<svg width="80" height="79" viewBox="0 0 80 79" fill="none" xmlns="http://www.w3.org/2000/svg">
<path d="M14.0801 61.4404C28.3937 68.9188 51.6033 68.9188 65.9201 61.4404C80.2369 53.962 80.2353 41.8372 65.9201 34.3588C51.6049 26.8804 28.3969 26.8804 14.0801 34.3588C-0.23665 41.8372 -0.233449 53.9684 14.0801 61.4404Z" fill="#F2FBFB"/>
<path d="M13.2666 48.9298C15.2973 48.9298 16.9434 48.1454 16.9434 47.1778C16.9434 46.2102 15.2973 45.4258 13.2666 45.4258C11.236 45.4258 9.58984 46.2102 9.58984 47.1778C9.58984 48.1454 11.236 48.9298 13.2666 48.9298Z" fill="#F2FBFB"/>
<path d="M55.2236 51.2682C57.9338 51.2682 60.1308 50.221 60.1308 48.929C60.1308 47.6371 57.9338 46.5898 55.2236 46.5898C52.5134 46.5898 50.3164 47.6371 50.3164 48.929C50.3164 50.221 52.5134 51.2682 55.2236 51.2682Z" fill="#F2FBFB"/>
<path d="M69.8984 39.3074C69.8984 39.3074 70.2776 38.1362 71.5112 36.8882C72.0552 36.3378 72.4104 35.9538 72.2968 35.6258C72.1944 35.3362 71.8488 35.1858 71.3544 35.4194C70.652 35.7522 70.1784 36.3698 69.8984 37.6098V39.3074Z" fill="#294C88"/>
<path opacity="0.1" d="M69.8984 39.3074C69.8984 39.3074 70.2776 38.1362 71.5112 36.8882C72.0552 36.3378 72.4104 35.9538 72.2968 35.6258C72.1944 35.3362 71.8488 35.1858 71.3544 35.4194C70.652 35.7522 70.1784 36.3698 69.8984 37.6098V39.3074Z" fill="black"/>
<path d="M69.8173 38.5708H69.8029C69.7874 38.5667 69.7743 38.5566 69.7662 38.5428C69.7581 38.5291 69.7558 38.5127 69.7597 38.4972C70.1997 36.798 71.3373 35.7452 71.8189 35.502C71.8334 35.4952 71.8499 35.4942 71.8651 35.4993C71.8803 35.5044 71.893 35.5151 71.9005 35.5292C71.9072 35.5435 71.9081 35.5598 71.903 35.5747C71.898 35.5896 71.8873 35.602 71.8733 35.6092C71.4077 35.8444 70.3053 36.8684 69.8765 38.5276C69.8726 38.5403 69.8648 38.5513 69.8541 38.5591C69.8434 38.5669 69.8305 38.571 69.8173 38.5708Z" fill="white"/>
<path d="M69.8984 40.7614C69.8984 40.7614 70.4248 39.7294 71.06 39.1806C71.6952 38.6318 72.5112 38.0718 71.82 37.643C71.1288 37.2142 69.9912 38.0558 69.9 38.8862L69.8984 40.7614Z" fill="#294C88"/>
<path d="M69.8207 40.0246H69.8079C69.7925 40.0208 69.7793 40.0111 69.7709 39.9977C69.7625 39.9842 69.7597 39.9681 69.7631 39.9526C70.0623 38.6726 71.1359 37.9494 71.4927 37.8294C71.5074 37.8263 71.5228 37.8288 71.5357 37.8364C71.5487 37.844 71.5584 37.8561 71.563 37.8704C71.5676 37.8847 71.5667 37.9002 71.5605 37.9139C71.5543 37.9276 71.5433 37.9386 71.5295 37.9446C71.2095 38.0534 70.1631 38.7654 69.8799 39.9798C69.8764 39.9927 69.8687 40.0042 69.858 40.0123C69.8472 40.0204 69.8341 40.0247 69.8207 40.0246Z" fill="white"/>
<path d="M23.1043 51.1341C23.1043 51.1341 22.8611 50.5933 21.8451 50.3645C20.8563 50.1421 20.3651 50.3645 19.6979 50.2493C19.0307 50.1341 19.2051 48.8876 21.0003 49.0172C22.6435 49.1356 23.1043 50.4285 23.1043 50.4285V51.1341Z" fill="#294C88"/>
<path d="M23.2013 50.8355C23.1896 50.8352 23.1783 50.8316 23.1687 50.8251C23.159 50.8186 23.1515 50.8094 23.1469 50.7987C22.9869 50.4163 22.3949 49.7923 21.5613 49.6019C20.5261 49.3667 19.9757 49.6019 19.9709 49.6019C19.9565 49.6068 19.9409 49.6061 19.9271 49.6C19.9133 49.594 19.9022 49.583 19.896 49.5692C19.8898 49.5555 19.8889 49.5399 19.8936 49.5255C19.8983 49.5111 19.9081 49.499 19.9213 49.4915C19.9453 49.4819 20.5149 49.2339 21.5869 49.4787C22.5133 49.6899 23.1037 50.3683 23.2573 50.7475C23.2604 50.7548 23.2621 50.7625 23.2621 50.7704C23.2622 50.7783 23.2607 50.7861 23.2578 50.7934C23.2548 50.8008 23.2504 50.8074 23.2448 50.813C23.2392 50.8185 23.2326 50.8229 23.2253 50.8259L23.2013 50.8355Z" fill="white"/>
<path d="M23.1032 50.5201C22.9006 50.1574 22.6414 49.8296 22.3352 49.5489C21.3752 48.6177 20.0952 48.3249 19.4552 47.8161C18.7512 47.2673 19.604 46.6337 20.5096 46.6737C21.028 46.6977 21.5752 47.0401 21.876 47.2865C22.9352 48.1521 23.1096 49.5489 23.1096 49.5489L23.1032 50.5201Z" fill="#294C88"/>
<path opacity="0.5" d="M23.1032 50.5201C22.9006 50.1574 22.6414 49.8296 22.3352 49.5489C21.3752 48.6177 20.0952 48.3249 19.4552 47.8161C18.7512 47.2673 19.604 46.6337 20.5096 46.6737C21.028 46.6977 21.5752 47.0401 21.876 47.2865C22.9352 48.1521 23.1096 49.5489 23.1096 49.5489L23.1032 50.5201Z" fill="white"/>
<path d="M23.2029 50.4256C23.1886 50.4254 23.1748 50.4202 23.164 50.4108C23.1532 50.4014 23.146 50.3886 23.1437 50.3744C23.0177 49.7017 22.7126 49.0755 22.2605 48.5616C21.5053 47.7024 20.2142 47.2416 20.1998 47.2368C20.1852 47.2314 20.1732 47.2205 20.1663 47.2066C20.1595 47.1926 20.1583 47.1765 20.1629 47.1616C20.1655 47.1541 20.1695 47.1471 20.1747 47.1411C20.18 47.1352 20.1864 47.1303 20.1935 47.1269C20.2007 47.1235 20.2085 47.1215 20.2164 47.1212C20.2244 47.1208 20.2323 47.122 20.2398 47.1248C20.2942 47.1424 21.5741 47.6048 22.3501 48.4816C22.8207 49.0118 23.1368 49.661 23.2637 50.3584C23.2649 50.3663 23.2644 50.3744 23.2623 50.3821C23.2602 50.3898 23.2566 50.397 23.2517 50.4033C23.2467 50.4096 23.2406 50.4148 23.2336 50.4186C23.2266 50.4225 23.2189 50.4248 23.2109 50.4256H23.2029Z" fill="white"/>
<path d="M45.0625 60.4609C45.0625 60.4609 45.3345 59.9329 46.3617 59.7585C47.3601 59.5889 47.8385 59.8305 48.5121 59.7585C49.1857 59.6865 49.0769 58.4241 47.2769 58.4577C45.6305 58.4881 45.1009 59.7537 45.1009 59.7537L45.0625 60.4609Z" fill="#294C88"/>
<path opacity="0.1" d="M45.0625 60.4609C45.0625 60.4609 45.3345 59.9329 46.3617 59.7585C47.3601 59.5889 47.8385 59.8305 48.5121 59.7585C49.1857 59.6865 49.0769 58.4241 47.2769 58.4577C45.6305 58.4881 45.1009 59.7537 45.1009 59.7537L45.0625 60.4609Z" fill="black"/>
<path d="M44.9826 60.212C44.9701 60.2114 44.9579 60.2076 44.9474 60.2008C44.9409 60.1963 44.9354 60.1906 44.9312 60.184C44.927 60.1773 44.9241 60.1699 44.9227 60.1622C44.9214 60.1544 44.9216 60.1465 44.9234 60.1389C44.9251 60.1312 44.9284 60.124 44.933 60.1176C45.3154 59.5704 46.0114 59.1576 46.797 59.02C47.8066 58.8392 48.397 59.1592 48.4226 59.18C48.4294 59.1838 48.4354 59.1888 48.4403 59.195C48.4452 59.2011 48.4488 59.2081 48.4509 59.2156C48.4531 59.2231 48.4537 59.2309 48.4528 59.2387C48.452 59.2464 48.4496 59.2539 48.4458 59.2608C48.442 59.2676 48.4369 59.2736 48.4308 59.2785C48.4247 59.2833 48.4177 59.287 48.4102 59.2891C48.4027 59.2913 48.3948 59.2919 48.3871 59.291C48.3793 59.2902 48.3718 59.2878 48.365 59.284C48.365 59.284 47.7842 58.972 46.8178 59.1448C46.0642 59.2792 45.3954 59.6712 45.0322 60.1928C45.0258 60.1993 45.018 60.2045 45.0095 60.2078C45.0009 60.2111 44.9917 60.2125 44.9826 60.212Z" fill="white"/>
<path d="M45.1329 59.7199C45.3652 59.4276 45.6292 59.162 45.9201 58.9279C46.9329 58.0511 48.2145 57.9087 48.8929 57.4351C49.6257 56.9247 48.8081 56.2463 47.9009 56.2383C47.3825 56.2383 46.8177 56.5471 46.5025 56.7775C45.8308 57.2807 45.3285 57.9767 45.0625 58.7727L45.1329 59.7199Z" fill="#294C88"/>
<path opacity="0.5" d="M45.1329 59.7199C45.3652 59.4276 45.6292 59.162 45.9201 58.9279C46.9329 58.0511 48.2145 57.9087 48.8929 57.4351C49.6257 56.9247 48.8081 56.2463 47.9009 56.2383C47.3825 56.2383 46.8177 56.5471 46.5025 56.7775C45.8308 57.2807 45.3285 57.9767 45.0625 58.7727L45.1329 59.7199Z" fill="white"/>
<path d="M44.985 59.7101H44.9626C44.9479 59.7047 44.9358 59.6939 44.9287 59.68C44.9216 59.6661 44.92 59.65 44.9242 59.6349C45.1742 58.9482 45.5693 58.3233 46.0826 57.8029C46.6393 57.2288 47.3625 56.8443 48.1498 56.7037C48.1575 56.7026 48.1653 56.7031 48.1728 56.705C48.1803 56.707 48.1874 56.7105 48.1935 56.7153C48.1996 56.7201 48.2047 56.7261 48.2085 56.7329C48.2122 56.7397 48.2146 56.7472 48.2154 56.7549C48.2165 56.7628 48.216 56.7709 48.2139 56.7786C48.2118 56.7863 48.2082 56.7935 48.2033 56.7998C48.1984 56.8061 48.1922 56.8113 48.1852 56.8151C48.1782 56.819 48.1705 56.8213 48.1626 56.8221C47.4045 56.966 46.7085 57.3377 46.1674 57.8877C45.6703 58.3939 45.2882 59.0013 45.0474 59.6685C45.0431 59.6814 45.0346 59.6926 45.0233 59.7001C45.012 59.7076 44.9985 59.7112 44.985 59.7101Z" fill="white"/>
<path d="M29.5992 51.2677V39.1797H23.1016V51.2693C23.1016 51.7493 23.4216 52.2293 24.0616 52.5941C25.3304 53.3269 27.388 53.3269 28.6568 52.5941C29.2968 52.2277 29.6072 51.7493 29.6088 51.2693L29.5992 51.2677Z" fill="#37474F"/>
<path d="M24.0544 40.5874C22.784 39.8546 22.784 38.6674 24.0544 37.933C25.3248 37.1986 27.3808 37.2002 28.6496 37.933C29.9184 38.6658 29.9184 39.853 28.6496 40.5874C27.3808 41.3218 25.3232 41.3186 24.0544 40.5874Z" fill="#455A64"/>
<path d="M37.3976 55.7727V46.9727H30.8984V55.7727C30.8984 56.2527 31.2184 56.7327 31.8584 57.0975C33.1272 57.8303 35.1848 57.8303 36.4536 57.0975C37.0936 56.7327 37.4056 56.2527 37.4056 55.7727H37.3976Z" fill="#37474F"/>
<path d="M31.85 48.3804C30.5812 47.6476 30.5812 46.4604 31.85 45.726C33.1188 44.9916 35.1764 44.9932 36.4452 45.726C37.714 46.4588 37.7156 47.646 36.4452 48.3804C35.1748 49.1148 33.1172 49.1196 31.85 48.3804Z" fill="#455A64"/>
<path d="M45.1984 60.275V53.4414H38.6992V60.2766C38.6992 60.7566 39.0192 61.2366 39.6592 61.603C40.928 62.3358 42.9856 62.3358 44.2544 61.603C44.8944 61.2366 45.2048 60.7566 45.2064 60.2766L45.1984 60.275Z" fill="#37474F"/>
<path d="M41.9488 55.3942C43.7435 55.3942 45.1984 54.5539 45.1984 53.5174C45.1984 52.4809 43.7435 51.6406 41.9488 51.6406C40.1541 51.6406 38.6992 52.4809 38.6992 53.5174C38.6992 54.5539 40.1541 55.3942 41.9488 55.3942Z" fill="#455A64"/>
<path d="M22.6849 55.5314L21.1505 54.6466L22.0001 53.5458C22.1089 53.405 22.0577 53.3282 21.8865 53.3714L19.8513 53.8962L18.3169 53.0098C18.188 52.9443 18.0455 52.9102 17.9009 52.9102C17.7564 52.9102 17.6138 52.9443 17.4849 53.0098L15.0673 54.4018C14.8369 54.5346 14.8369 54.749 15.0673 54.8818L19.4353 57.4034C19.5642 57.4689 19.7068 57.503 19.8513 57.503C19.9959 57.503 20.1384 57.4689 20.2673 57.4034L22.6849 56.0066C22.9137 55.8786 22.9137 55.6642 22.6849 55.5314Z" fill="#294C88"/>
<path d="M20.2308 54.9877C20.2558 54.9853 20.281 54.9853 20.306 54.9877C20.3308 54.9909 20.3548 54.999 20.3764 55.0117L20.5956 55.1381C20.6104 55.1453 20.6218 55.1579 20.6276 55.1733C20.6276 55.1861 20.6276 55.1973 20.6052 55.2053C20.6 55.2068 20.5944 55.2068 20.5892 55.2053C20.5813 55.2072 20.5731 55.2072 20.5652 55.2053L17.5252 55.4453H17.4388C17.4138 55.4416 17.3899 55.4329 17.3684 55.4197L17.1492 55.2933C17.1344 55.2861 17.1229 55.2735 17.1172 55.2581C17.1172 55.2453 17.1172 55.2341 17.1396 55.2261C17.1448 55.2247 17.1504 55.2247 17.1556 55.2261H17.1796L20.2308 54.9877ZM19.2516 54.7845C19.1866 54.828 19.1187 54.867 19.0484 54.9013C18.9916 54.9302 18.9321 54.9532 18.8708 54.9701C18.8065 54.9864 18.7403 54.9944 18.674 54.9941C18.5259 54.9945 18.3805 54.9547 18.2532 54.8789C18.1925 54.8492 18.1381 54.8079 18.0932 54.7573C18.064 54.7241 18.0476 54.6816 18.0468 54.6373C18.0474 54.5956 18.0627 54.5553 18.09 54.5237C18.1218 54.4824 18.1608 54.4472 18.2052 54.4197C18.2355 54.3978 18.2671 54.3775 18.2996 54.3589C18.33 54.3413 18.3668 54.3221 18.4068 54.3029C18.4644 54.2739 18.525 54.2514 18.5876 54.2357C18.7205 54.2027 18.8595 54.2027 18.9924 54.2357C19.0663 54.2558 19.1373 54.2854 19.2036 54.3237C19.2613 54.3539 19.3124 54.3952 19.354 54.4453C19.3835 54.4785 19.4005 54.521 19.402 54.5653C19.3999 54.6068 19.3848 54.6466 19.3588 54.6789C19.3295 54.7201 19.2932 54.7559 19.2516 54.7845ZM19.554 56.0357C19.492 56.082 19.4268 56.1237 19.3588 56.1605C19.3016 56.1893 19.2416 56.2118 19.1796 56.2277C19.1155 56.2454 19.0493 56.254 18.9828 56.2533C18.912 56.2531 18.8415 56.2434 18.7732 56.2245C18.6991 56.2057 18.628 56.1767 18.562 56.1381C18.5049 56.1071 18.4539 56.0659 18.4116 56.0165C18.3821 55.9829 18.3656 55.9397 18.3652 55.8949C18.3665 55.8536 18.381 55.8137 18.4068 55.7813C18.4394 55.7406 18.4789 55.7059 18.5236 55.6789C18.5533 55.6561 18.5849 55.6357 18.618 55.6181C18.6525 55.5972 18.6883 55.5785 18.7252 55.5621C18.7822 55.5331 18.8423 55.5106 18.9044 55.4949C18.9688 55.4791 19.0348 55.4706 19.1012 55.4693C19.2487 55.4693 19.3936 55.5091 19.5204 55.5845C19.5814 55.6138 19.6359 55.6552 19.6804 55.7061C19.7086 55.7385 19.7242 55.78 19.7242 55.8229C19.7242 55.8659 19.7086 55.9074 19.6804 55.9397C19.644 55.9787 19.6013 56.0111 19.554 56.0357ZM18.5348 54.5957C18.503 54.6137 18.4769 54.6404 18.4596 54.6725C18.4596 54.6949 18.4596 54.7173 18.506 54.7397C18.5406 54.7607 18.5809 54.7702 18.6212 54.7669C18.6677 54.7596 18.7126 54.7444 18.754 54.7221C18.8146 54.6931 18.8729 54.6594 18.9284 54.6213C18.961 54.6038 18.9877 54.5771 19.0052 54.5445C19.0052 54.5221 18.9972 54.4997 18.9588 54.4773C18.9237 54.4562 18.8827 54.4472 18.842 54.4517C18.796 54.4582 18.7516 54.4729 18.7108 54.4949C18.6497 54.5216 18.5908 54.5532 18.5348 54.5893V54.5957ZM18.8388 55.8469C18.8062 55.8645 18.7795 55.8912 18.762 55.9237C18.762 55.9445 18.762 55.9669 18.8084 55.9893C18.843 56.0117 18.8843 56.0213 18.9252 56.0165C18.971 56.0093 19.0153 55.9947 19.0564 55.9733C19.1177 55.9446 19.1766 55.9109 19.2324 55.8725C19.2646 55.8551 19.2908 55.8283 19.3076 55.7957C19.3076 55.7733 19.3076 55.7509 19.2612 55.7285C19.2266 55.7076 19.1863 55.698 19.146 55.7013C19.1 55.7085 19.0556 55.7236 19.0148 55.7461C18.9537 55.7728 18.8948 55.8044 18.8388 55.8405V55.8469Z" fill="white"/>
<path d="M31.1369 60.4064L29.5993 59.52L30.4489 58.4208C30.5561 58.28 30.5049 58.2016 30.3337 58.2464L28.2985 58.7696L26.7641 57.8848C26.6354 57.8193 26.4932 57.7852 26.3489 57.7852C26.2045 57.7852 26.0623 57.8193 25.9337 57.8848L23.5193 59.28C23.2905 59.4128 23.2905 59.6288 23.5193 59.76L27.8873 62.2832C28.0164 62.3479 28.1588 62.3816 28.3033 62.3816C28.4477 62.3816 28.5901 62.3479 28.7193 62.2832L31.1369 60.8864C31.3673 60.7536 31.3673 60.5392 31.1369 60.4064Z" fill="#294C88"/>
<path d="M28.6829 59.863H28.7597C28.7846 59.867 28.8085 59.8757 28.8301 59.8886L29.0477 60.015C29.0669 60.0262 29.0781 60.0374 29.0797 60.0502C29.0813 60.063 29.0797 60.0726 29.0589 60.0822C29.0536 60.0834 29.0482 60.0834 29.0429 60.0822H29.0189L25.9789 60.3222C25.9534 60.3247 25.9277 60.3247 25.9021 60.3222C25.8771 60.3187 25.8531 60.31 25.8317 60.2966L25.6141 60.1718C25.5949 60.1606 25.5837 60.1478 25.5821 60.1366C25.5816 60.1295 25.5833 60.1225 25.5871 60.1164C25.5908 60.1104 25.5964 60.1057 25.6029 60.103H25.6189H25.6429L28.6829 59.863ZM27.7037 59.6598C27.6394 59.7036 27.5721 59.7426 27.5021 59.7766C27.445 59.8054 27.3849 59.8279 27.3229 59.8438C27.2588 59.8614 27.1926 59.87 27.1261 59.8694C27.0553 59.8691 26.9848 59.8595 26.9165 59.8406C26.8424 59.8218 26.7713 59.7928 26.7053 59.7542C26.6478 59.7231 26.5963 59.6819 26.5533 59.6326C26.5243 59.6003 26.5083 59.5584 26.5083 59.515C26.5083 59.4716 26.5243 59.4297 26.5533 59.3974C26.5857 59.357 26.6246 59.3224 26.6685 59.295C26.6987 59.2729 26.7303 59.2526 26.7629 59.2342C26.7982 59.2136 26.8345 59.1949 26.8717 59.1782C26.9288 59.1492 26.9889 59.1267 27.0509 59.111C27.1544 59.0847 27.2621 59.079 27.3679 59.0944C27.4736 59.1098 27.5752 59.1459 27.6669 59.2006C27.7248 59.2312 27.7764 59.2725 27.8189 59.3222C27.8483 59.3553 27.8648 59.3979 27.8653 59.4422C27.8641 59.4839 27.8489 59.5239 27.8221 59.5558C27.7893 59.5974 27.7492 59.6327 27.7037 59.6598ZM28.0077 60.911C27.9427 60.9546 27.8748 60.9936 27.8045 61.0278C27.748 61.0568 27.6885 61.0794 27.6269 61.095C27.5626 61.1113 27.4965 61.1193 27.4301 61.119C27.282 61.1194 27.1366 61.0796 27.0093 61.0038C26.9516 60.9737 26.9 60.933 26.8573 60.8838C26.8278 60.8501 26.8113 60.807 26.8109 60.7622C26.8128 60.7207 26.8279 60.6809 26.8541 60.6486C26.8864 60.6077 26.9253 60.5726 26.9693 60.5446C27.0013 60.5222 27.0333 60.503 27.0637 60.4838C27.0941 60.4646 27.1309 60.447 27.1709 60.4278C27.2285 60.3988 27.2892 60.3763 27.3517 60.3606C27.4163 60.346 27.4823 60.3379 27.5485 60.3366C27.6188 60.3364 27.6887 60.3456 27.7565 60.3638C27.8308 60.3829 27.9019 60.4125 27.9677 60.4518C28.0256 60.4824 28.0772 60.5237 28.1197 60.5734C28.1486 60.6055 28.1646 60.6471 28.1646 60.6902C28.1646 60.7334 28.1486 60.775 28.1197 60.807C28.0884 60.8477 28.0506 60.8828 28.0077 60.911ZM26.9885 59.471C26.956 59.4886 26.9292 59.5153 26.9117 59.5478C26.9117 59.5686 26.9197 59.591 26.9581 59.6134C26.9927 59.6358 27.034 59.6454 27.0749 59.6406C27.1206 59.6331 27.1649 59.6186 27.2061 59.5974C27.2678 59.5688 27.3267 59.5345 27.3821 59.495C27.4141 59.478 27.4403 59.4518 27.4573 59.4198C27.4573 59.3974 27.4493 59.375 27.4109 59.3526C27.3767 59.3309 27.3361 59.3213 27.2957 59.3254C27.2492 59.3325 27.2042 59.3477 27.1629 59.3702C27.1023 59.3969 27.044 59.4285 26.9885 59.4646V59.471ZM27.2909 60.7222C27.2596 60.7402 27.2337 60.7661 27.2157 60.7974C27.2157 60.8198 27.2237 60.8422 27.2621 60.8646C27.2964 60.8864 27.337 60.8959 27.3773 60.8918C27.4236 60.8846 27.4684 60.87 27.5101 60.8486C27.5707 60.8188 27.6289 60.7846 27.6845 60.7462C27.7166 60.7287 27.7431 60.7027 27.7613 60.671C27.7693 60.6486 27.7613 60.6262 27.7149 60.6038C27.68 60.5822 27.639 60.5726 27.5981 60.5766C27.5524 60.5841 27.5081 60.5987 27.4669 60.6198C27.4062 60.648 27.3474 60.68 27.2909 60.7158V60.7222Z" fill="white"/>
<path d="M39.5822 65.2814L38.0478 64.3966L38.899 63.2942C39.0062 63.155 38.955 63.0766 38.7838 63.1214L36.7486 63.6446L35.2142 62.7598C35.0853 62.6943 34.9427 62.6602 34.7982 62.6602C34.6536 62.6602 34.5111 62.6943 34.3822 62.7598L31.9646 64.1614C31.7358 64.2942 31.7358 64.5102 31.9646 64.6414L36.3326 67.1646C36.4617 67.2293 36.6041 67.263 36.7486 67.263C36.893 67.263 37.0355 67.2293 37.1646 67.1646L39.5822 65.7614C39.8126 65.6334 39.8126 65.419 39.5822 65.2814Z" fill="#294C88"/>
<path d="M37.1266 64.7424H37.2018C37.2268 64.7462 37.2507 64.7549 37.2722 64.768L37.4914 64.8944C37.5106 64.9056 37.5218 64.9168 37.5234 64.9296C37.525 64.9424 37.5234 64.952 37.5026 64.9616H37.4866H37.4626L34.4226 65.2016C34.3976 65.2041 34.3724 65.2041 34.3474 65.2016C34.3224 65.1984 34.2984 65.1896 34.277 65.176L34.0594 65.0512C34.0402 65.04 34.029 65.0272 34.0274 65.016C34.0269 65.009 34.0286 65.0019 34.0324 64.9959C34.0361 64.9898 34.0417 64.9851 34.0482 64.9824H34.0642C34.0721 64.9806 34.0803 64.9806 34.0882 64.9824L37.1266 64.7424ZM36.1474 64.5392C36.0828 64.5834 36.0149 64.6224 35.9442 64.656C35.8877 64.685 35.8282 64.7076 35.7666 64.7232C35.7025 64.7408 35.6363 64.7494 35.5698 64.7488C35.4985 64.7485 35.4275 64.7388 35.3586 64.72C35.285 64.7013 35.2145 64.6722 35.149 64.6336C35.0915 64.6025 35.04 64.5613 34.997 64.512C34.9675 64.4784 34.9511 64.4352 34.9506 64.3904C34.9525 64.3489 34.9676 64.3091 34.9938 64.2768C35.0265 64.2363 35.0654 64.2012 35.109 64.1728C35.141 64.1504 35.173 64.1312 35.2034 64.1136C35.2338 64.096 35.2706 64.0768 35.3106 64.056C35.4283 63.9984 35.5572 63.9673 35.6882 63.9648C35.8357 63.9653 35.9804 64.0051 36.1074 64.08C36.1653 64.1106 36.2169 64.1519 36.2594 64.2016C36.2884 64.235 36.3048 64.2775 36.3058 64.3216C36.3038 64.3631 36.2887 64.4029 36.2626 64.4352C36.2308 64.4766 36.1918 64.5118 36.1474 64.5392ZM36.4498 65.7904C36.3852 65.8336 36.3179 65.8726 36.2482 65.9072C36.1916 65.936 36.1321 65.9585 36.0706 65.9744C35.9368 66.0085 35.7965 66.0085 35.6626 65.9744C35.589 65.9551 35.5184 65.9254 35.453 65.8864C35.392 65.8572 35.3376 65.8158 35.293 65.7648C35.2634 65.7319 35.2469 65.6892 35.2466 65.6448C35.2476 65.6034 35.2622 65.5635 35.2882 65.5312C35.3215 65.4907 35.3609 65.4556 35.405 65.4272C35.4354 65.4053 35.4669 65.385 35.4994 65.3664C35.5298 65.3488 35.5666 65.3296 35.6066 65.3104C35.7234 65.2503 35.8529 65.219 35.9842 65.2192C36.0545 65.219 36.1244 65.2282 36.1922 65.2464C36.2659 65.2658 36.3364 65.2954 36.4018 65.3344C36.4629 65.3637 36.5173 65.4051 36.5618 65.456C36.5915 65.489 36.608 65.5317 36.6082 65.576C36.6073 65.6175 36.5927 65.6574 36.5666 65.6896C36.5339 65.7298 36.4944 65.7639 36.4498 65.7904ZM35.4306 64.3504C35.3988 64.3684 35.3728 64.3951 35.3554 64.4272C35.3554 64.448 35.3634 64.4704 35.4018 64.4928C35.4362 64.5143 35.4767 64.5239 35.517 64.52C35.5633 64.5128 35.6082 64.4982 35.6498 64.4768C35.7114 64.4478 35.7702 64.4136 35.8258 64.3744C35.8578 64.3574 35.884 64.3312 35.901 64.2992C35.909 64.2768 35.901 64.2544 35.8546 64.232C35.8197 64.2104 35.7787 64.2009 35.7378 64.2048C35.6919 64.2122 35.6475 64.2274 35.6066 64.2496C35.5457 64.2767 35.4869 64.3082 35.4306 64.344V64.3504ZM35.7346 65.6016C35.703 65.6197 35.6765 65.6456 35.6578 65.6768C35.6578 65.6992 35.6578 65.7216 35.7058 65.744C35.7401 65.7658 35.7807 65.7754 35.821 65.7712C35.8668 65.764 35.9111 65.7494 35.9522 65.728C36.0133 65.6982 36.0721 65.664 36.1282 65.6256C36.1603 65.6081 36.1868 65.5821 36.205 65.5504C36.2136 65.528 36.1976 65.5056 36.157 65.4832C36.1228 65.4615 36.0822 65.4519 36.0418 65.456C35.9961 65.4633 35.9518 65.4779 35.9106 65.4992C35.8496 65.5286 35.7908 65.5623 35.7346 65.6V65.6016Z" fill="white"/>
<path d="M61.4477 38.8853L58.8477 37.3845V29.8789L61.4477 31.3797V38.8853Z" fill="#37474F"/>
<path d="M61.4453 38.8853L64.0453 37.3845V29.8789L61.4453 31.3797V38.8853Z" fill="#455A64"/>
<path d="M58.8477 29.8797L61.4477 31.3805L64.0477 29.8797L61.4477 28.3789L58.8477 29.8797Z" fill="#455A64"/>
<path d="M55.5961 35.5065L52.9961 34.0057V18.9961L55.5961 20.4969V35.5065Z" fill="#37474F"/>
<path d="M55.5977 35.5065L58.1977 34.0057V18.9961L55.5977 20.4969V35.5065Z" fill="#455A64"/>
<path d="M52.9961 18.9969L55.5961 20.4977L58.1961 18.9969L55.5961 17.4961L52.9961 18.9969Z" fill="#455A64"/>
<path d="M49.7484 32.1286L47.1484 30.6278V25.375L49.7484 26.8758V32.1286Z" fill="#37474F"/>
<path d="M49.7461 32.1286L52.3461 30.6278V25.375L49.7461 26.8758V32.1286Z" fill="#455A64"/>
<path d="M47.1484 25.3758L49.7484 26.8766L52.3484 25.3758L49.7484 23.875L47.1484 25.3758Z" fill="#455A64"/>
<path d="M67.2953 42.2639L64.6953 40.7615V26.5039L67.2937 28.0047L67.2953 42.2639Z" fill="#37474F"/>
<path d="M67.293 42.2639L69.893 40.7615V26.5039L67.293 28.0047V42.2639Z" fill="#455A64"/>
<path d="M64.6953 26.5024L67.2937 28.0032L69.8937 26.5024L67.2953 25L64.6953 26.5024Z" fill="#455A64"/>
<g opacity="0.3">
<path opacity="0.3" d="M49.1217 41.176L49.0945 24.5552C49.0889 24.459 49.0607 24.3654 49.0124 24.2821C48.964 24.1987 48.8968 24.1278 48.8161 24.0752L29.2065 12.8032C29.0465 12.7152 28.9297 12.7872 28.9297 12.9632L28.9617 29.5776C28.9669 29.6739 28.9949 29.7676 29.0433 29.851C29.0917 29.9344 29.1591 30.0052 29.2401 30.0576L48.8513 41.3376C49.0001 41.4256 49.1217 41.3536 49.1217 41.176Z" fill="white"/>
</g>
<path d="M48.9716 41.4526C48.915 41.4504 48.86 41.4339 48.8116 41.4046L29.2004 30.1246C29.1068 30.0657 29.0288 29.985 28.9731 29.8895C28.9173 29.7939 28.8855 29.6863 28.8804 29.5758L28.85 12.9614C28.8433 12.9127 28.8512 12.8631 28.8728 12.8189C28.8944 12.7747 28.9286 12.7379 28.9711 12.7132C29.0137 12.6885 29.0626 12.677 29.1117 12.6802C29.1607 12.6834 29.2078 12.7011 29.2468 12.731L48.858 24.0014C48.9514 24.0606 49.0292 24.1413 49.0849 24.2368C49.1406 24.3323 49.1725 24.4398 49.178 24.5502L49.2052 41.171C49.209 41.2195 49.1999 41.2682 49.1788 41.312C49.1578 41.3559 49.1254 41.3933 49.0851 41.4206C49.0508 41.4413 49.0116 41.4523 48.9716 41.4526ZM29.0836 12.8366C29.0731 12.8339 29.062 12.8339 29.0516 12.8366C29.0359 12.8501 29.024 12.8672 29.0167 12.8865C29.0094 12.9058 29.0071 12.9266 29.01 12.947L29.0372 29.5678C29.0417 29.6519 29.0663 29.7337 29.1089 29.8063C29.1515 29.879 29.2108 29.9404 29.282 29.9854L48.8932 41.2654C48.9412 41.2926 48.9828 41.3006 49.0084 41.2846C49.034 41.2686 49.0499 41.2302 49.0499 41.1742L49.0228 24.5534C49.0176 24.4715 48.9936 24.3919 48.9525 24.3208C48.9114 24.2497 48.8544 24.1892 48.786 24.1438L29.1668 12.8638C29.1418 12.8478 29.1132 12.8385 29.0836 12.8366Z" fill="#294C88"/>
<path d="M47.2573 37.5045C46.7373 37.1349 46.4333 36.8005 46.2269 34.2309L46.2093 34.0117C46.0157 31.5973 45.8893 30.0037 44.7885 29.3461C44.2605 29.0261 43.8381 29.3461 43.3917 29.6933C42.9869 30.0021 42.5709 30.3189 42.1021 30.0517C41.2781 29.5717 41.1421 28.6213 40.8861 26.8869C40.8541 26.6725 40.8221 26.4469 40.7853 26.2101C40.7293 25.8405 40.6813 25.4965 40.6365 25.1733C40.3837 23.3525 40.2301 22.2517 39.2989 21.6901C39.2072 21.6252 39.1016 21.5825 38.9905 21.5655C38.8794 21.5486 38.7658 21.5578 38.6589 21.5925C37.9533 21.8389 37.4013 23.3317 36.8173 24.9141C36.7725 25.0309 36.7293 25.1541 36.6829 25.2773C36.2589 26.4437 35.7789 27.7669 35.1149 28.0117C35.021 28.0461 34.9206 28.0588 34.8211 28.0488C34.7216 28.0388 34.6257 28.0065 34.5405 27.9541C33.8797 27.5797 33.7613 26.5557 33.6477 25.5637C33.5341 24.5717 33.4237 23.5749 32.7997 23.1989C32.7468 23.1647 32.6863 23.1441 32.6235 23.1388C32.5607 23.1335 32.4976 23.1437 32.4397 23.1685C31.6653 23.4693 30.9789 25.7605 30.9725 25.7829L30.8125 25.7381C30.8413 25.6405 31.5277 23.3493 32.3741 23.0181C32.4549 22.9847 32.5426 22.9711 32.6298 22.9786C32.7169 22.9862 32.801 23.0145 32.8749 23.0613C33.5645 23.4741 33.6845 24.5253 33.8013 25.5413C33.9181 26.5573 34.0237 27.4773 34.6157 27.8117C34.6803 27.8528 34.7534 27.8783 34.8295 27.8863C34.9055 27.8944 34.9824 27.8847 35.0541 27.8581C35.6477 27.6389 36.1357 26.2981 36.5277 25.2197C36.5741 25.0949 36.6173 24.9733 36.6621 24.8549C37.2861 23.1669 37.8253 21.7093 38.6013 21.4373C38.7299 21.3956 38.8664 21.3842 39.0002 21.4039C39.134 21.4236 39.2614 21.4739 39.3725 21.5509C40.3677 22.1525 40.5261 23.2805 40.7853 25.1493C40.8301 25.4693 40.8781 25.8149 40.9341 26.1829C40.9709 26.4213 41.0029 26.6469 41.0349 26.8597C41.2797 28.5461 41.4157 29.4741 42.1725 29.9093C42.5485 30.1253 42.8893 29.8645 43.2845 29.5637C43.7325 29.2213 44.2445 28.8357 44.8605 29.2053C46.0301 29.9061 46.1613 31.5333 46.3581 33.9957L46.3757 34.2149C46.5869 36.8357 46.9037 37.0597 47.3357 37.3717L47.2573 37.5045Z" fill="#294C88"/>
<g opacity="0.4">
<path opacity="0.4" d="M47.2573 37.5045C46.7373 37.1349 46.4333 36.8005 46.2269 34.2309L46.2093 34.0117C46.0157 31.5973 45.8893 30.0037 44.7885 29.3461C44.2605 29.0261 43.8381 29.3461 43.3917 29.6933C42.9869 30.0021 42.5709 30.3189 42.1021 30.0517C41.2781 29.5717 41.1421 28.6213 40.8861 26.8869C40.8541 26.6725 40.8221 26.4469 40.7853 26.2101C40.7293 25.8405 40.6813 25.4965 40.6365 25.1733C40.3837 23.3525 40.2301 22.2517 39.2989 21.6901C39.2072 21.6252 39.1016 21.5825 38.9905 21.5655C38.8794 21.5486 38.7658 21.5578 38.6589 21.5925C37.9533 21.8389 37.4013 23.3317 36.8173 24.9141C36.7725 25.0309 36.7293 25.1541 36.6829 25.2773C36.2589 26.4437 35.7789 27.7669 35.1149 28.0117C35.021 28.0461 34.9206 28.0588 34.8211 28.0488C34.7216 28.0388 34.6257 28.0065 34.5405 27.9541C33.8797 27.5797 33.7613 26.5557 33.6477 25.5637C33.5341 24.5717 33.4237 23.5749 32.7997 23.1989C32.7468 23.1647 32.6863 23.1441 32.6235 23.1388C32.5607 23.1335 32.4976 23.1437 32.4397 23.1685C31.6653 23.4693 30.9789 25.7605 30.9725 25.7829L30.8125 25.7381C30.8413 25.6405 31.5277 23.3493 32.3741 23.0181C32.4549 22.9847 32.5426 22.9711 32.6298 22.9786C32.7169 22.9862 32.801 23.0145 32.8749 23.0613C33.5645 23.4741 33.6845 24.5253 33.8013 25.5413C33.9181 26.5573 34.0237 27.4773 34.6157 27.8117C34.6803 27.8528 34.7534 27.8783 34.8295 27.8863C34.9055 27.8944 34.9824 27.8847 35.0541 27.8581C35.6477 27.6389 36.1357 26.2981 36.5277 25.2197C36.5741 25.0949 36.6173 24.9733 36.6621 24.8549C37.2861 23.1669 37.8253 21.7093 38.6013 21.4373C38.7299 21.3956 38.8664 21.3842 39.0002 21.4039C39.134 21.4236 39.2614 21.4739 39.3725 21.5509C40.3677 22.1525 40.5261 23.2805 40.7853 25.1493C40.8301 25.4693 40.8781 25.8149 40.9341 26.1829C40.9709 26.4213 41.0029 26.6469 41.0349 26.8597C41.2797 28.5461 41.4157 29.4741 42.1725 29.9093C42.5485 30.1253 42.8893 29.8645 43.2845 29.5637C43.7325 29.2213 44.2445 28.8357 44.8605 29.2053C46.0301 29.9061 46.1613 31.5333 46.3581 33.9957L46.3757 34.2149C46.5869 36.8357 46.9037 37.0597 47.3357 37.3717L47.2573 37.5045Z" fill="black"/>
</g>
<path d="M44.5502 28.6413C44.6692 28.7193 44.7684 28.8239 44.8397 28.947C44.9111 29.07 44.9528 29.2081 44.9614 29.3501C44.9614 29.6109 44.7774 29.7165 44.5518 29.5869C44.4323 29.5095 44.3328 29.4049 44.2613 29.2817C44.1898 29.1586 44.1485 29.0203 44.1406 28.8781C44.1406 28.6237 44.3182 28.5181 44.5502 28.6413Z" fill="#294C88"/>
<g opacity="0.2">
<path opacity="0.2" d="M44.5502 28.6413C44.6692 28.7193 44.7684 28.8239 44.8397 28.947C44.9111 29.07 44.9528 29.2081 44.9614 29.3501C44.9614 29.6109 44.7774 29.7165 44.5518 29.5869C44.4323 29.5095 44.3328 29.4049 44.2613 29.2817C44.1898 29.1586 44.1485 29.0203 44.1406 28.8781C44.1406 28.6237 44.3182 28.5181 44.5502 28.6413Z" fill="black"/>
</g>
<path d="M39.3393 21.1503C39.4584 21.228 39.5576 21.3326 39.6288 21.4557C39.6999 21.5789 39.7411 21.7171 39.7489 21.8591C39.7489 22.1199 39.5665 22.2255 39.3409 22.0959C39.2213 22.0186 39.1217 21.914 39.0502 21.7908C38.9787 21.6676 38.9374 21.5293 38.9297 21.3871C38.9297 21.1199 39.1121 21.0207 39.3393 21.1503Z" fill="#294C88"/>
<g opacity="0.5">
<path opacity="0.5" d="M39.3393 21.1503C39.4584 21.228 39.5576 21.3326 39.6288 21.4557C39.6999 21.5789 39.7411 21.7171 39.7489 21.8591C39.7489 22.1199 39.5665 22.2255 39.3409 22.0959C39.2213 22.0186 39.1217 21.914 39.0502 21.7908C38.9787 21.6676 38.9374 21.5293 38.9297 21.3871C38.9297 21.1199 39.1121 21.0207 39.3393 21.1503Z" fill="white"/>
</g>
<path d="M32.8416 22.6654C32.9612 22.7424 33.0608 22.8466 33.1323 22.9696C33.2038 23.0925 33.2451 23.2306 33.2528 23.3726C33.2528 23.635 33.0704 23.7406 32.8432 23.611C32.7242 23.5333 32.6251 23.4286 32.5539 23.3055C32.4828 23.1823 32.4415 23.0442 32.4336 22.9022C32.432 22.6414 32.616 22.5342 32.8416 22.6654Z" fill="#294C88"/>
<path opacity="0.65" d="M38.6995 40.4417V23.8209C38.6942 23.7248 38.6664 23.6313 38.6183 23.548C38.5702 23.4646 38.5033 23.3937 38.4227 23.3409L21.4291 13.5297C21.2691 13.4417 21.1523 13.5137 21.1523 13.6897V30.3105C21.1575 30.4067 21.1853 30.5002 21.2334 30.5836C21.2815 30.667 21.3485 30.7379 21.4291 30.7905L38.4227 40.6017C38.5763 40.6913 38.6995 40.6193 38.6995 40.4417Z" fill="white"/>
<path d="M38.5469 40.7205C38.4903 40.7183 38.4353 40.7018 38.3869 40.6725L21.3885 30.8613C21.2951 30.8018 21.2173 30.7207 21.1617 30.625C21.106 30.5292 21.0741 30.4215 21.0685 30.3109V13.6901C21.0622 13.6415 21.0704 13.5922 21.0921 13.5482C21.1138 13.5043 21.1481 13.4678 21.1905 13.4433C21.233 13.4188 21.2817 13.4075 21.3306 13.4107C21.3795 13.4139 21.4264 13.4315 21.4653 13.4613L38.4589 23.2725C38.5522 23.3317 38.63 23.4125 38.6857 23.508C38.7413 23.6035 38.7733 23.7109 38.7789 23.8213V40.4421C38.7827 40.4906 38.7736 40.5393 38.7526 40.5831C38.7315 40.627 38.6992 40.6644 38.6589 40.6917C38.6247 40.711 38.5861 40.7209 38.5469 40.7205ZM21.3053 13.5733C21.2948 13.5706 21.2838 13.5706 21.2733 13.5733C21.2577 13.5868 21.2457 13.6039 21.2384 13.6232C21.2311 13.6425 21.2288 13.6633 21.2317 13.6837V30.3109C21.2367 30.3931 21.2607 30.473 21.3018 30.5443C21.3429 30.6157 21.3999 30.6765 21.4685 30.7221L38.4621 40.5333C38.4784 40.5461 38.4976 40.5545 38.518 40.5579C38.5384 40.5612 38.5594 40.5594 38.5789 40.5525C38.6045 40.5381 38.6189 40.4981 38.6189 40.4421V23.8213C38.614 23.7393 38.59 23.6596 38.5489 23.5885C38.5078 23.5174 38.4507 23.4569 38.3821 23.4117L21.3885 13.6021C21.364 13.5849 21.3352 13.575 21.3053 13.5733Z" fill="#294C88"/>
<path d="M35.7746 36.6648V25.7272C35.7719 25.6791 35.7578 25.6323 35.7337 25.5906C35.7095 25.5489 35.6758 25.5135 35.6354 25.4872L33.9634 24.5272C33.8866 24.4824 33.8242 24.5176 33.8242 24.6072V35.5384C33.8266 35.5866 33.8405 35.6336 33.8647 35.6753C33.8889 35.7171 33.9227 35.7524 33.9634 35.7784L35.6354 36.7384C35.7122 36.7896 35.7746 36.7528 35.7746 36.6648Z" fill="#294C88"/>
<g opacity="0.3">
<path opacity="0.3" d="M35.7746 36.6648V25.7272C35.7719 25.6791 35.7578 25.6323 35.7337 25.5906C35.7095 25.5489 35.6758 25.5135 35.6354 25.4872L33.9634 24.5272C33.8866 24.4824 33.8242 24.5176 33.8242 24.6072V35.5384C33.8266 35.5866 33.8405 35.6336 33.8647 35.6753C33.8889 35.7171 33.9227 35.7524 33.9634 35.7784L35.6354 36.7384C35.7122 36.7896 35.7746 36.7528 35.7746 36.6648Z" fill="black"/>
</g>
<path d="M32.5246 34.787V29.1038C32.5219 29.0557 32.5078 29.0089 32.4837 28.9672C32.4595 28.9255 32.4258 28.8901 32.3854 28.8638L30.7118 27.9038C30.6366 27.8606 30.5742 27.9038 30.5742 27.9838V33.6686C30.577 33.7165 30.5909 33.7631 30.6148 33.8048C30.6387 33.8464 30.6719 33.882 30.7118 33.9086L32.3854 34.8686C32.4622 34.9118 32.5246 34.8814 32.5246 34.787Z" fill="#294C88"/>
<g opacity="0.2">
<path opacity="0.2" d="M32.5246 34.787V29.1038C32.5219 29.0557 32.5078 29.0089 32.4837 28.9672C32.4595 28.9255 32.4258 28.8901 32.3854 28.8638L30.7118 27.9038C30.6366 27.8606 30.5742 27.9038 30.5742 27.9838V33.6686C30.577 33.7165 30.5909 33.7631 30.6148 33.8048C30.6387 33.8464 30.6719 33.882 30.7118 33.9086L32.3854 34.8686C32.4622 34.9118 32.5246 34.8814 32.5246 34.787Z" fill="white"/>
</g>
<path d="M29.2785 32.9097V24.2233C29.2758 24.1752 29.2617 24.1284 29.2376 24.0867C29.2134 24.045 29.1797 24.0096 29.1393 23.9833L27.4657 23.0233C27.3905 22.9785 27.3281 23.0137 27.3281 23.1033V31.7881C27.3307 31.8361 27.3445 31.8828 27.3684 31.9245C27.3923 31.9662 27.4256 32.0017 27.4657 32.0281L29.1393 32.9881C29.2129 33.0329 29.2785 32.9977 29.2785 32.9097Z" fill="#294C88"/>
<g opacity="0.2">
<path opacity="0.2" d="M29.2785 32.9097V24.2233C29.2758 24.1752 29.2617 24.1284 29.2376 24.0867C29.2134 24.045 29.1797 24.0096 29.1393 23.9833L27.4657 23.0233C27.3905 22.9785 27.3281 23.0137 27.3281 23.1033V31.7881C27.3307 31.8361 27.3445 31.8828 27.3684 31.9245C27.3923 31.9662 27.4256 32.0017 27.4657 32.0281L29.1393 32.9881C29.2129 33.0329 29.2785 32.9977 29.2785 32.9097Z" fill="black"/>
</g>
<path d="M26.023 31.0415V18.5967C26.0206 18.5487 26.0068 18.5019 25.9829 18.4602C25.959 18.4185 25.9256 18.383 25.8854 18.3567L24.2118 17.3967C24.1366 17.3519 24.0742 17.3967 24.0742 17.4767V29.9151C24.077 29.963 24.0909 30.0096 24.1148 30.0512C24.1387 30.0929 24.1719 30.1284 24.2118 30.1551L25.8854 31.1151C25.9622 31.1599 26.023 31.1231 26.023 31.0415Z" fill="#294C88"/>
<path d="M60.583 33.0279C60.5606 32.9079 59.9734 31.5415 59.7318 31.0039L58.5078 31.5767L58.9766 32.6503L60.2438 33.6311C60.3671 33.5935 60.4712 33.5099 60.5344 33.3975C60.5975 33.2852 60.615 33.1528 60.583 33.0279Z" fill="#FFA8A7"/>
<path d="M58.1432 47.3438H57.1992V48.7198H58.1432V47.3438Z" fill="#FFA8A7"/>
<path d="M54.8184 45.6433L53.875 45.6758L53.9223 47.051L54.8657 47.0185L54.8184 45.6433Z" fill="#FFA8A7"/>
<path d="M55.0515 27.6367C54.7098 27.6447 54.3758 27.7389 54.0804 27.9107C53.7849 28.0824 53.5378 28.3261 53.3619 28.6191C52.8403 29.3951 51.9219 30.7215 51.9219 30.7215L53.6419 31.2671L55.0515 27.6367Z" fill="#294C88"/>
<g opacity="0.7">
<path opacity="0.7" d="M55.0515 27.6367C54.7098 27.6447 54.3758 27.7389 54.0804 27.9107C53.7849 28.0824 53.5378 28.3261 53.3619 28.6191C52.8403 29.3951 51.9219 30.7215 51.9219 30.7215L53.6419 31.2671L55.0515 27.6367Z" fill="white"/>
</g>
<path d="M58.0801 33.9219C58.0801 34.8243 58.1969 40.6595 58.1969 40.6595C58.2193 40.9187 58.4625 41.3971 58.4097 42.3939C58.3377 43.7491 58.2209 47.5139 58.2209 47.5139C58.2209 47.5139 57.7777 47.9539 57.1521 47.5139C57.1521 47.5139 56.2961 42.4019 56.1281 41.0595C55.9793 39.8883 55.7297 36.7075 55.7297 36.7075L54.8545 40.4531C54.8545 40.4531 55.0145 41.3331 55.0417 41.9539C55.0689 42.5747 54.8817 46.1651 54.8817 46.1651C54.7286 46.2608 54.5531 46.3148 54.3726 46.3218C54.1922 46.3288 54.013 46.2886 53.8529 46.2051C53.8529 46.2051 53.0945 40.9603 52.9969 40.3987C52.8993 39.8371 53.6625 33.9219 53.6625 33.9219H58.0801Z" fill="#294C88"/>
<path opacity="0.2" d="M58.0801 33.9219C58.0801 34.8243 58.1969 40.6595 58.1969 40.6595C58.2193 40.9187 58.4625 41.3971 58.4097 42.3939C58.3377 43.7491 58.2209 47.5139 58.2209 47.5139C58.2209 47.5139 57.7777 47.9539 57.1521 47.5139C57.1521 47.5139 56.2961 42.4019 56.1281 41.0595C55.9793 39.8883 55.7297 36.7075 55.7297 36.7075L54.8545 40.4531C54.8545 40.4531 55.0145 41.3331 55.0417 41.9539C55.0689 42.5747 54.8817 46.1651 54.8817 46.1651C54.7286 46.2608 54.5531 46.3148 54.3726 46.3218C54.1922 46.3288 54.013 46.2886 53.8529 46.2051C53.8529 46.2051 53.0945 40.9603 52.9969 40.3987C52.8993 39.8371 53.6625 33.9219 53.6625 33.9219H58.0801Z" fill="black"/>
<path d="M56.6625 27.6643C57.5089 27.8675 58.5825 28.2099 58.9601 28.9907C59.3377 29.7715 59.9201 31.0371 59.9201 31.0371L58.5185 31.8659L58.0833 31.1171V33.9203C57.4209 34.6403 55.1105 34.9763 53.6641 33.9203V29.3059C53.6641 28.5715 54.0737 27.6867 55.2017 27.6211L56.6625 27.6643Z" fill="#294C88"/>
<path opacity="0.7" d="M56.6625 27.6643C57.5089 27.8675 58.5825 28.2099 58.9601 28.9907C59.3377 29.7715 59.9201 31.0371 59.9201 31.0371L58.5185 31.8659L58.0833 31.1171V33.9203C57.4209 34.6403 55.1105 34.9763 53.6641 33.9203V29.3059C53.6641 28.5715 54.0737 27.6867 55.2017 27.6211L56.6625 27.6643Z" fill="white"/>
<path d="M56.9774 23.8978C57.0534 23.8891 57.1304 23.8978 57.2025 23.9233C57.2746 23.9488 57.3399 23.9904 57.3934 24.045C57.5726 24.2274 57.5358 24.5666 57.3934 25.3442L56.8398 25.4082L56.9774 23.8978Z" fill="#263238"/>
<path d="M53.7607 23.6812C53.642 23.6826 53.5243 23.6592 53.4151 23.6124C53.2455 23.5148 53.2007 23.7068 53.2935 23.8748C53.355 23.9946 53.446 24.0967 53.558 24.1715C53.67 24.2463 53.7993 24.2912 53.9335 24.302C53.9335 24.278 54.0935 23.87 54.0935 23.87L53.7607 23.6812Z" fill="#263238"/>
<path d="M56.7214 25.4107C56.803 25.4603 56.9198 25.3019 57.0206 25.1963C57.0604 25.1509 57.1111 25.1163 57.1679 25.0958C57.2248 25.0754 57.2859 25.0697 57.3455 25.0793C57.4052 25.0888 57.4614 25.1134 57.5089 25.1507C57.5565 25.188 57.5938 25.2367 57.6174 25.2923C57.7854 25.6459 57.4046 26.1179 57.1806 26.2731C57.1179 26.3272 57.0399 26.3602 56.9574 26.3673C56.875 26.3745 56.7924 26.3555 56.7214 26.3131L56.6622 27.6667C56.5633 27.8836 56.4122 28.0726 56.2223 28.2167C56.0324 28.3608 55.8097 28.4555 55.5742 28.4923C54.7742 28.5995 54.9422 27.9451 55.203 27.6235V27.1307C55.0044 27.1737 54.8002 27.1845 54.5982 27.1627C54.4942 27.1355 54.2478 26.8427 54.0878 26.5019C53.9086 26.1259 53.6078 25.4587 53.8766 24.3307C54.1614 23.1195 55.4622 23.0827 56.2398 23.5707C57.0174 24.0587 56.7214 25.4107 56.7214 25.4107Z" fill="#FFA8A7"/>
<path d="M56.7171 25.5464C56.7571 25.5464 56.9155 25.2872 57.0163 25.1944C57.1587 25.0648 56.9763 23.8984 56.9763 23.8984C56.9763 23.8984 57.1187 23.4568 56.8387 23.1624C56.5587 22.868 56.0179 22.9192 55.6211 22.9048C55.1341 22.9073 54.6517 22.8104 54.2035 22.62C53.6402 22.3752 53.5986 22.3464 53.5282 22.5944C53.4578 22.8424 53.4322 23.4072 53.7682 23.7864L54.0483 23.8904C54.0483 23.8904 54.1987 24.0232 54.7235 24.0872C55.2086 24.1241 55.6961 24.115 56.1795 24.06C56.3315 24.0392 56.3635 24.1864 56.4451 24.5896C56.5187 24.9448 56.5779 25.5448 56.7171 25.5464Z" fill="#263238"/>
<path d="M56.9762 23.993L57.4722 23.7258C57.4564 23.6925 57.434 23.6628 57.4063 23.6384C57.3787 23.614 57.3464 23.5955 57.3114 23.5839C57.2764 23.5724 57.2394 23.5681 57.2026 23.5713C57.1659 23.5746 57.1302 23.5852 57.0977 23.6026C57.0312 23.6396 56.9814 23.7008 56.9587 23.7735C56.9361 23.8462 56.9423 23.9248 56.9762 23.993Z" fill="#263238"/>
<path d="M55.1992 27.129C55.5385 27.065 55.8712 26.9697 56.1928 26.8442C56.3443 26.7658 56.4683 26.643 56.548 26.4922C56.5094 26.643 56.4408 26.7844 56.3464 26.9082C56.1576 27.1482 55.1992 27.3258 55.1992 27.3258V27.129Z" fill="#F28F8F"/>
<path d="M55.3791 25.2261C55.3784 25.2458 55.3818 25.2655 55.3889 25.2839C55.396 25.3023 55.4067 25.3191 55.4205 25.3333C55.4342 25.3475 55.4506 25.3588 55.4688 25.3665C55.487 25.3741 55.5065 25.3781 55.5263 25.3781C55.5587 25.3807 55.5911 25.3733 55.6192 25.357C55.6473 25.3407 55.6698 25.3162 55.6836 25.2868C55.6975 25.2574 55.7021 25.2244 55.6967 25.1924C55.6914 25.1603 55.6764 25.1306 55.6538 25.1073C55.6312 25.0839 55.602 25.068 55.5702 25.0617C55.5383 25.0553 55.5052 25.0588 55.4754 25.0717C55.4456 25.0846 55.4204 25.1063 55.4032 25.1339C55.386 25.1615 55.3776 25.1936 55.3791 25.2261Z" fill="#263238"/>
<path d="M55.5352 24.6705L55.8552 24.8449C55.8773 24.8015 55.8821 24.7513 55.8684 24.7046C55.8547 24.6579 55.8236 24.6182 55.7816 24.5937C55.7605 24.5816 55.7373 24.574 55.7132 24.5714C55.6891 24.5687 55.6647 24.5711 55.6416 24.5783C55.6185 24.5855 55.5971 24.5974 55.5788 24.6133C55.5604 24.6291 55.5456 24.6486 55.5352 24.6705Z" fill="#263238"/>
<path d="M55.3923 26.2266L55.0547 26.353C55.0623 26.3754 55.0742 26.3961 55.0898 26.414C55.1054 26.4318 55.1244 26.4463 55.1457 26.4567C55.167 26.4671 55.1901 26.4732 55.2138 26.4746C55.2374 26.4761 55.2611 26.4728 55.2835 26.465C55.3287 26.4467 55.3652 26.4118 55.3854 26.3675C55.4057 26.3231 55.4081 26.2727 55.3923 26.2266Z" fill="#F28F8F"/>
<path d="M54.0632 24.7932L54.3496 24.5708C54.3361 24.5514 54.3188 24.535 54.2987 24.5225C54.2787 24.51 54.2563 24.5017 54.233 24.4981C54.2097 24.4945 54.1858 24.4957 54.163 24.5016C54.1401 24.5075 54.1187 24.518 54.1 24.5324C54.0614 24.5627 54.0361 24.6068 54.0292 24.6554C54.0224 24.704 54.0345 24.7534 54.0632 24.7932Z" fill="#263238"/>
<path d="M54.1524 25.1832C54.1524 25.2026 54.1562 25.2217 54.1636 25.2396C54.171 25.2574 54.1818 25.2737 54.1955 25.2873C54.2091 25.301 54.2254 25.3118 54.2432 25.3192C54.2611 25.3266 54.2802 25.3305 54.2995 25.3305C54.3189 25.3305 54.338 25.3266 54.3559 25.3192C54.3737 25.3118 54.39 25.301 54.4036 25.2873C54.4173 25.2737 54.4281 25.2574 54.4355 25.2396C54.4429 25.2217 54.4467 25.2026 54.4467 25.1832C54.4474 25.1635 54.4441 25.1439 54.4369 25.1254C54.4298 25.107 54.4191 25.0902 54.4054 25.076C54.3916 25.0619 54.3752 25.0506 54.357 25.0429C54.3388 25.0352 54.3193 25.0312 54.2995 25.0313C54.2599 25.0321 54.2223 25.0485 54.1947 25.077C54.1671 25.1054 54.1519 25.1436 54.1524 25.1832Z" fill="#263238"/>
<path d="M54.901 25.043L54.853 25.931L54.3906 25.7726L54.901 25.043Z" fill="#F28F8F"/>
<path d="M51.0508 30.3867L54.8236 31.3803L55.9372 36.0635L52.35 35.0219L51.0508 30.3867Z" fill="#294C88"/>
<path d="M52.6969 33.4844C52.6305 33.6029 52.53 33.6988 52.4085 33.7595C52.287 33.8203 52.15 33.8432 52.0153 33.8252L51.9609 33.6316L52.6969 33.4844Z" fill="#294C88"/>
<path d="M53.5391 33.6328C53.5551 33.7576 53.8127 33.988 54.2463 34.132C54.7391 34.292 55.4959 34.2104 55.4959 34.2104L55.4287 33.9768L53.5391 33.6328Z" fill="#294C88"/>
<path opacity="0.43" d="M52.1617 31.0657L52.1297 30.9217C52.1137 30.8417 52.3345 30.8385 52.6257 30.9137L53.1809 31.0577C53.4721 31.1345 53.7201 31.2593 53.7377 31.3393L53.7697 31.4833L52.1617 31.0657Z" fill="#455A64"/>
<path d="M51.8913 30.5225C51.8817 30.4729 51.9713 30.4601 52.0929 30.4937L52.3201 30.5609C52.3201 30.5609 52.2545 30.2409 52.7441 30.3577C52.8748 30.3769 52.9982 30.4296 53.1025 30.5107C53.2068 30.5917 53.2884 30.6983 53.3393 30.8201L53.5745 30.8873C53.7041 30.9241 53.8209 30.9929 53.8369 31.0473L53.8641 31.1369L51.9201 30.6249L51.8913 30.5225Z" fill="#37474F"/>
<path d="M52.1606 30.6764C52.3382 30.7196 52.4118 30.7436 52.439 30.8652C52.4662 30.9868 52.4822 31.1084 52.4822 31.1084L53.3414 31.3356C53.3414 31.3356 53.2998 31.158 53.287 31.0892C53.2742 31.0204 53.303 30.9788 53.447 31.014L53.4582 30.9596L52.1094 30.6172L52.1606 30.6764Z" fill="#37474F"/>
<path d="M52.129 31.0774L52.0986 30.9334C52.081 30.8534 52.3018 30.8502 52.593 30.9254L53.1482 31.0694C53.4394 31.1446 53.689 31.2694 53.7066 31.3494L53.737 31.4934L52.129 31.0774Z" fill="#37474F"/>
<path d="M60.244 33.6307L58.9768 32.6499C58.9768 32.6499 56.3208 33.1491 56.0216 33.1731C55.7224 33.1971 55.4856 32.9011 55.372 32.6067C55.2584 32.3123 55.028 32.3491 55.028 32.3491C55.028 32.3491 55.116 32.7235 55.1448 32.8419C55.1736 32.9603 54.4808 33.0579 54.0824 32.9235C53.684 32.7891 53.1064 32.9843 53.4632 33.5283C53.82 34.0723 54.5176 34.1331 55.0008 34.1347C55.2031 34.1327 55.405 34.1189 55.6056 34.0931C55.7656 34.0739 55.9256 34.0579 56.0744 34.0467C57.0632 33.9763 59.7944 33.7715 60.244 33.6307Z" fill="#FFA8A7"/>
<path d="M51.4348 31.7555L51.6028 32.3523C51.6348 32.4675 52.0732 32.6723 52.3516 32.7523C52.63 32.8323 52.9324 32.9123 52.8012 33.3075C52.6796 33.6643 52.2236 33.7459 51.9916 33.7363C51.8353 33.7099 51.6893 33.6408 51.5699 33.5366C51.4504 33.4324 51.3621 33.2972 51.3148 33.1459C51.1548 32.6899 51.2412 32.2019 51.1772 31.9347C51.1132 31.6675 51.2972 31.5971 51.4348 31.7555Z" fill="#F28F8F"/>
<path d="M57.1995 48.2501V48.1141C57.1099 48.1541 56.8987 48.9557 56.5243 49.2965C56.2267 49.5685 55.8203 49.8837 55.7243 50.1861C55.6283 50.4885 56.2907 50.6757 56.5691 50.6261C56.8891 50.5685 57.4539 50.3413 57.5947 50.1301C57.7355 49.9189 57.8011 49.6069 57.9147 49.4517C58.0283 49.2965 58.2923 49.1317 58.3547 48.9461C58.3733 48.7788 58.3547 48.6094 58.3003 48.4501C58.2571 48.2821 58.2091 48.0997 58.1531 48.1141C58.1531 48.1349 58.1531 48.2181 58.1531 48.2181C58.0159 48.3243 57.8466 48.3807 57.6731 48.3781C57.5339 48.3829 57.1979 48.3557 57.1995 48.2501Z" fill="#37474F"/>
<path d="M53.9223 46.7541C53.8727 46.7541 53.8327 46.8245 53.7255 46.9413C53.5636 47.1049 53.3754 47.2401 53.1687 47.3413C52.8151 47.5189 52.1287 47.7909 51.8167 47.9317C51.6215 48.0197 51.6311 48.2517 51.8327 48.3877C52.0343 48.5237 52.5191 48.6181 53.1015 48.4869C53.4215 48.4165 53.8327 48.1237 54.0935 48.1381C54.3543 48.1525 54.8439 48.1509 55.0375 48.0181C55.2311 47.8853 55.1527 47.6005 55.0983 47.3557C55.0439 47.1109 54.9543 46.6821 54.8663 46.6997V46.7845C54.7527 46.9557 54.1735 47.0261 53.9239 46.8997L53.9223 46.7541Z" fill="#37474F"/>
<path d="M13.0068 46.1819L13.5972 47.0027C13.328 47.1269 13.0344 47.1893 12.738 47.1851C12.21 47.2059 12.0644 47.0251 12.0452 46.9899C11.9556 46.7995 12.0948 46.4539 12.1332 46.1562L13.0068 46.1819Z" fill="#37474F"/>
<path d="M12.0469 45.3559C12.0469 45.3559 12.1365 46.1015 12.1429 46.2615C12.1493 46.4215 12.8709 46.4743 13.0085 46.1815L13.0293 45.2695L12.0469 45.3559Z" fill="#F28F8F"/>
<path d="M12.0475 30.668C11.5547 31.436 11.0875 32.108 10.9851 32.9752C10.7739 34.7976 11.4651 36.8808 11.6139 38.228C11.3341 38.6124 11.1723 39.0699 11.1483 39.5448C11.1483 40.1016 12.0475 45.3576 12.0475 45.3576C12.0475 45.3576 12.7003 45.5576 13.0299 45.2712L13.6475 35.6024L13.3275 34.4248L12.0475 30.668Z" fill="#294C88"/>
<path opacity="0.5" d="M12.0475 30.668C11.5547 31.436 11.0875 32.108 10.9851 32.9752C10.7739 34.7976 11.4651 36.8808 11.6139 38.228C11.3341 38.6124 11.1723 39.0699 11.1483 39.5448C11.1483 40.1016 12.0475 45.3576 12.0475 45.3576C12.0475 45.3576 12.7003 45.5576 13.0299 45.2712L13.6475 35.6024L13.3275 34.4248L12.0475 30.668Z" fill="white"/>
<path d="M16.6023 27.0664L19.8519 28.6264L17.9015 33.012L14.8711 31.2632L16.6023 27.0664Z" fill="#294C88"/>
<path d="M19.4691 28.7028L17.7859 32.4404L15.4531 31.0964L16.7763 27.418L19.4691 28.7028Z" fill="#294C88"/>
<path d="M16.7775 27.418L19.4703 28.7028L17.6527 32.4804L15.1055 31.026L16.7775 27.418Z" fill="white"/>
<path d="M17.3633 27.9596L17.4257 27.8252C17.4609 27.7516 17.6833 27.782 17.9233 27.8956L18.3825 28.1132C18.6225 28.2252 18.7873 28.3788 18.7537 28.4524L18.6897 28.5868L17.3633 27.9596Z" fill="#F2FBFB"/>
<path d="M10.9437 28.6419C10.7069 29.3171 10.2381 30.3891 10.3885 30.6051C10.5389 30.8211 11.4413 30.7747 11.9437 30.7555C12.5837 30.7315 13.1149 30.7059 13.1149 30.7059L13.0077 29.5859H12.0989L12.4989 28.4531L10.9437 28.6419Z" fill="#F28F8F"/>
<path d="M11.8516 26.2383C11.5204 26.7823 10.8516 28.7023 10.8516 28.7023C11.0374 28.913 11.2838 29.0611 11.5572 29.1263C11.7959 29.1995 12.0495 29.2094 12.2932 29.1551L13.0324 27.3151L11.8516 26.2383Z" fill="#294C88"/>
<path opacity="0.4" d="M11.8516 26.2383C11.5204 26.7823 10.8516 28.7023 10.8516 28.7023C11.0374 28.913 11.2838 29.0611 11.5572 29.1263C11.7959 29.1995 12.0495 29.2094 12.2932 29.1551L13.0324 27.3151L11.8516 26.2383Z" fill="black"/>
<path d="M15.1611 26.582C15.7419 26.7564 16.0955 26.7868 16.7371 27.774C17.3787 28.7612 18.7835 30.7196 18.9227 30.9548C19.1163 31.2748 19.1995 31.6716 19.0331 31.9724C18.8667 32.2732 18.4235 32.1324 17.7867 31.5708C17.1499 31.0092 15.9499 29.5036 15.9499 29.5036C15.9499 29.5036 14.6987 28.094 15.1611 26.582Z" fill="#FFA8A7"/>
<path d="M14.6944 25.3038L14.5376 26.691L13.168 26.8494L13.3664 25.0078L14.6944 25.3038Z" fill="#FFA8A7"/>
<path d="M11.7656 23.2757C11.8792 21.9957 12.5656 21.4661 13.1112 21.3397C14.1944 21.0837 15.1608 21.4773 15.5992 22.2373C15.7144 22.4373 15.908 23.1861 15.5224 23.6277C15.1368 24.0693 11.7656 23.2757 11.7656 23.2757Z" fill="#263238"/>
<path d="M15.7063 23.7266C15.7063 23.7266 15.9911 24.2066 15.9479 24.261C15.8722 24.3049 15.7893 24.3353 15.7031 24.3506L15.7063 23.7266Z" fill="#F28F8F"/>
<path d="M14.845 22.1834C15.1394 22.3578 15.645 22.6762 15.7138 23.7962C15.7858 24.9466 15.5666 25.3002 15.3938 25.441C15.2834 25.537 14.717 25.505 14.4338 25.401C14.0866 25.2698 13.3138 24.913 12.981 24.3018C12.597 23.5834 12.5634 22.6538 13.0722 22.3194C13.3316 22.1475 13.6306 22.0448 13.9409 22.021C14.2512 21.9972 14.5624 22.0531 14.845 22.1834Z" fill="#FFA8A7"/>
<path d="M14.931 22.2385C14.931 22.2385 15.1342 23.2961 14.7822 23.9361C14.7822 23.9361 14.6222 23.5185 14.2638 23.6161C13.9054 23.7137 13.9102 24.1841 14.1742 24.4401C14.2411 24.513 14.3272 24.5654 14.4226 24.5915C14.518 24.6175 14.6188 24.6161 14.7134 24.5873C14.6636 24.9167 14.5101 25.2216 14.275 25.4577C13.9019 25.544 13.5119 25.5232 13.1501 25.3975C12.7883 25.2718 12.4695 25.0464 12.2302 24.7473C11.4302 23.7969 11.6398 22.1873 12.9086 21.8417C14.1774 21.4961 14.931 22.2385 14.931 22.2385Z" fill="#263238"/>
<path d="M13.5642 46.6071C13.5642 46.6071 14.281 46.5607 14.7754 46.4983C15.2698 46.4359 15.6618 46.6775 15.545 46.8823C15.4282 47.0871 15.1562 47.2551 14.7322 47.3975C14.369 47.5207 13.9322 47.6087 13.5546 47.7175C13.177 47.8263 12.9146 47.9671 12.6954 47.8919C12.4506 47.8071 12.345 47.7095 12.3658 47.5303C12.4193 47.2754 12.4855 47.0233 12.5642 46.7751L13.5642 46.6071Z" fill="#37474F"/>
<path d="M12.7734 45.8125L12.5158 46.9437C12.5158 46.9437 12.4918 47.0813 13.0806 47.1693C13.6694 47.2573 14.5942 46.8621 14.7526 46.7805C14.911 46.6989 14.9286 46.5405 14.3494 46.5725C13.7702 46.6045 13.5654 46.6061 13.5654 46.6061L13.759 46.1037L12.7734 45.8125Z" fill="#FFA8A7"/>
<path d="M13.6425 35.5995L13.3225 34.4219C12.7098 34.2606 12.1188 34.0258 11.5625 33.7227C11.5625 33.7227 11.8953 34.3291 12.8425 34.6603L13.3401 36.1739L13.3833 39.6363L13.6425 35.5995Z" fill="#294C88"/>
<path d="M12.0454 30.668C11.7814 31.0984 11.151 31.836 11.2838 32.5432C11.4438 33.4024 11.9094 34.004 13.3206 34.4248L14.6454 39.2248C14.6454 39.2248 13.9558 39.8648 13.7446 40.484C13.5334 41.1032 12.7718 45.8216 12.7718 45.8216C12.7718 45.8216 13.007 46.2056 13.751 46.1128C13.751 46.1128 16.3446 40.1928 16.5286 39.8072C16.7481 39.4189 16.8256 38.9663 16.7478 38.5272C16.6662 37.9048 15.7878 31.1096 15.7878 31.1096L12.0454 30.668Z" fill="#294C88"/>
<path opacity="0.5" d="M12.0454 30.668C11.7814 31.0984 11.151 31.836 11.2838 32.5432C11.4438 33.4024 11.9094 34.004 13.3206 34.4248L14.6454 39.2248C14.6454 39.2248 13.9558 39.8648 13.7446 40.484C13.5334 41.1032 12.7718 45.8216 12.7718 45.8216C12.7718 45.8216 13.007 46.2056 13.751 46.1128C13.751 46.1128 16.3446 40.1928 16.5286 39.8072C16.7481 39.4189 16.8256 38.9663 16.7478 38.5272C16.6662 37.9048 15.7878 31.1096 15.7878 31.1096L12.0454 30.668Z" fill="white"/>
<path d="M11.8048 26.3378C11.9072 26.0658 12.2336 25.8386 12.528 25.9186C13.4512 26.1698 14.8864 26.501 15.16 26.581C15.16 26.581 15.0384 28.661 16.1008 29.2818C16.0512 29.677 15.7808 31.0946 15.7808 31.0946C15.7808 31.0946 14.5008 31.7154 13.4512 31.4146C12.4016 31.1138 12.0448 30.669 12.0448 30.669L12.5712 29.8114C12.4592 29.5314 12.024 28.5858 11.744 27.7058C11.641 27.2526 11.662 26.7801 11.8048 26.3378Z" fill="#294C88"/>
<path opacity="0.2" d="M11.8048 26.3378C11.9072 26.0658 12.2336 25.8386 12.528 25.9186C13.4512 26.1698 14.8864 26.501 15.16 26.581C15.16 26.581 15.0384 28.661 16.1008 29.2818C16.0512 29.677 15.7808 31.0946 15.7808 31.0946C15.7808 31.0946 14.5008 31.7154 13.4512 31.4146C12.4016 31.1138 12.0448 30.669 12.0448 30.669L12.5712 29.8114C12.4592 29.5314 12.024 28.5858 11.744 27.7058C11.641 27.2526 11.662 26.7801 11.8048 26.3378Z" fill="black"/>
<path opacity="0.25" d="M12.4258 29.4727C12.8633 29.7358 13.322 29.9622 13.797 30.1495C13.3659 30.1411 12.9439 30.0245 12.5698 29.8103L12.4258 29.4727Z" fill="#294C88"/>
<path d="M12.7003 21.6247C12.7003 21.6247 12.2619 20.8775 11.1883 21.0711C10.1147 21.2647 9.67946 22.4039 9.69546 23.1255C9.71146 23.8471 9.95306 24.3511 9.30666 25.2055C9.17925 25.374 9.08948 25.5679 9.04339 25.774C8.9973 25.9801 8.99598 26.1938 9.0395 26.4005C9.08303 26.6072 9.17039 26.8022 9.29569 26.9722C9.421 27.1423 9.58133 27.2835 9.76586 27.3863C10.6283 27.8663 10.8379 27.0311 10.6379 26.3175C10.4075 25.4999 11.2635 25.3575 11.4923 24.7383C11.7211 24.1191 11.2715 22.8183 11.5595 22.3767C11.8795 21.8967 12.3115 21.9639 12.5195 22.1271L12.7003 21.6247Z" fill="#263238"/>
<path d="M15.1625 26.582C15.4494 26.643 15.7297 26.732 15.9993 26.8476C16.3513 27.0204 17.7241 29.1756 17.7241 29.1756C17.7241 29.1756 17.6265 29.9868 16.5033 30.3084L15.8393 29.47C15.8393 29.47 14.8633 28.0124 15.1625 26.582Z" fill="#294C88"/>
<path opacity="0.1" d="M15.1625 26.582C15.4494 26.643 15.7297 26.732 15.9993 26.8476C16.3513 27.0204 17.7241 29.1756 17.7241 29.1756C17.7241 29.1756 17.6265 29.9868 16.5033 30.3084L15.8393 29.47C15.8393 29.47 14.8633 28.0124 15.1625 26.582Z" fill="black"/>
<path d="M16.0333 29.7213C15.7383 29.3779 15.5157 28.9784 15.3789 28.5469C15.3789 28.5469 15.3789 29.4781 15.9917 29.9597L16.0333 29.7213Z" fill="#294C88"/>
<path opacity="0.4" d="M16.0333 29.7213C15.7383 29.3779 15.5157 28.9784 15.3789 28.5469C15.3789 28.5469 15.3789 29.4781 15.9917 29.9597L16.0333 29.7213Z" fill="black"/>
<path d="M17.4791 27.3799C17.4999 27.3335 17.5975 27.3367 17.6967 27.3799L17.8759 27.4679C17.8759 27.4679 18.0151 27.1783 18.4311 27.3527C18.8471 27.5271 18.7191 27.8615 18.7191 27.8615L18.9095 27.9591C19.0151 28.0119 19.0855 28.0935 19.0695 28.1415L19.0375 28.2263L17.4375 27.4583L17.4791 27.3799Z" fill="#455A64"/>
<path d="M17.6378 27.5624C17.7882 27.6296 17.8458 27.6616 17.7978 27.7768C17.7498 27.892 17.681 28.0024 17.681 28.0024L18.3882 28.3416C18.3882 28.3416 18.4634 28.1816 18.4954 28.1112C18.5274 28.0408 18.585 28.0136 18.697 28.068L18.745 28.02L17.625 27.5L17.6378 27.5624Z" fill="#455A64"/>
<path d="M17.3477 27.9212L17.4117 27.7868C17.4469 27.7116 17.6693 27.7436 17.9093 27.8572L18.3685 28.0748C18.6069 28.1868 18.7733 28.3388 18.7381 28.414L18.6741 28.5484L17.3477 27.9212Z" fill="#455A64"/>
</svg>
