<svg width="1440" height="900" viewBox="0 0 1440 900" fill="none" xmlns="http://www.w3.org/2000/svg">
<line x1="56.85" y1="2476" x2="56.85" y2="-404" stroke="#58985F" stroke-width="0.3"/>
<line x1="120.85" y1="2476" x2="120.85" y2="-404" stroke="#58985F" stroke-width="0.3"/>
<line x1="184.85" y1="2476" x2="184.85" y2="-404" stroke="#58985F" stroke-width="0.3"/>
<line x1="248.85" y1="2476" x2="248.85" y2="-404" stroke="#58985F" stroke-width="0.3"/>
<line x1="312.85" y1="2476" x2="312.85" y2="-404" stroke="#58985F" stroke-width="0.3"/>
<line x1="376.85" y1="2476" x2="376.85" y2="-404" stroke="#58985F" stroke-width="0.3"/>
<line x1="440.85" y1="2476" x2="440.85" y2="-404" stroke="#58985F" stroke-width="0.3"/>
<line x1="504.85" y1="2476" x2="504.85" y2="-404" stroke="#58985F" stroke-width="0.3"/>
<line x1="568.85" y1="2476" x2="568.85" y2="-404" stroke="#58985F" stroke-width="0.3"/>
<line x1="632.85" y1="2476" x2="632.85" y2="-404" stroke="#58985F" stroke-width="0.3"/>
<line x1="696.85" y1="2476" x2="696.85" y2="-404" stroke="#58985F" stroke-width="0.3"/>
<line x1="760.85" y1="2476" x2="760.85" y2="-404" stroke="#58985F" stroke-width="0.3"/>
<line x1="824.85" y1="2476" x2="824.85" y2="-404" stroke="#58985F" stroke-width="0.3"/>
<line x1="888.85" y1="2476" x2="888.85" y2="-404" stroke="#58985F" stroke-width="0.3"/>
<line x1="952.85" y1="2476" x2="952.85" y2="-404" stroke="#58985F" stroke-width="0.3"/>
<line x1="1016.85" y1="2476" x2="1016.85" y2="-404" stroke="#58985F" stroke-width="0.3"/>
<line x1="1080.85" y1="2476" x2="1080.85" y2="-404" stroke="#58985F" stroke-width="0.3"/>
<line x1="1144.85" y1="2476" x2="1144.85" y2="-404" stroke="#58985F" stroke-width="0.3"/>
<line x1="1208.85" y1="2476" x2="1208.85" y2="-404" stroke="#58985F" stroke-width="0.3"/>
<line x1="1272.85" y1="2476" x2="1272.85" y2="-404" stroke="#58985F" stroke-width="0.3"/>
<line x1="1336.85" y1="2476" x2="1336.85" y2="-404" stroke="#58985F" stroke-width="0.3"/>
<line x1="1400.85" y1="2476" x2="1400.85" y2="-404" stroke="#58985F" stroke-width="0.3"/>
<line x1="-583" y1="53.85" x2="2297" y2="53.85" stroke="#58985F" stroke-width="0.3"/>
<line x1="-583" y1="117.85" x2="2297" y2="117.85" stroke="#58985F" stroke-width="0.3"/>
<line x1="-583" y1="181.85" x2="2297" y2="181.85" stroke="#58985F" stroke-width="0.3"/>
<line x1="-583" y1="245.85" x2="2297" y2="245.85" stroke="#58985F" stroke-width="0.3"/>
<line x1="-583" y1="309.85" x2="2297" y2="309.85" stroke="#58985F" stroke-width="0.3"/>
<line x1="-583" y1="373.85" x2="2297" y2="373.85" stroke="#58985F" stroke-width="0.3"/>
<line x1="-583" y1="437.85" x2="2297" y2="437.85" stroke="#58985F" stroke-width="0.3"/>
<line x1="-583" y1="501.85" x2="2297" y2="501.85" stroke="#58985F" stroke-width="0.3"/>
<line x1="-583" y1="565.85" x2="2297" y2="565.85" stroke="#58985F" stroke-width="0.3"/>
<line x1="-583" y1="629.85" x2="2297" y2="629.85" stroke="#58985F" stroke-width="0.3"/>
<line x1="-583" y1="693.85" x2="2297" y2="693.85" stroke="#58985F" stroke-width="0.3"/>
<line x1="-583" y1="757.85" x2="2297" y2="757.85" stroke="#58985F" stroke-width="0.3"/>
<line x1="-583" y1="821.85" x2="2297" y2="821.85" stroke="#58985F" stroke-width="0.3"/>
<line x1="-583" y1="885.85" x2="2297" y2="885.85" stroke="#58985F" stroke-width="0.3"/>
</svg>
