<svg width="936" height="702" viewBox="0 0 936 702" fill="none" xmlns="http://www.w3.org/2000/svg">
<path d="M642.724 410.495C642.665 419.972 642.549 429.507 642.49 438.984C642.49 441.324 642.431 443.664 642.431 445.946C642.431 447.525 642.08 449.514 642.724 451.035C643.718 453.609 647.053 452.907 648.281 455.072C648.398 454.662 648.515 454.253 648.574 453.843C644.303 455.949 643.192 460.688 642.841 465.075C642.549 469.287 642.373 476.073 647.872 476.892C647.814 476.366 647.755 475.839 647.638 475.313C639.331 479.115 642.665 493.974 646.175 499.941C648.749 504.329 652.552 507.897 656.471 511.056C658.694 512.87 660.917 514.566 663.199 516.321C664.544 517.374 665.89 518.369 667.177 519.422C667.879 519.948 670.863 521.586 670.98 522.581C671.214 522.288 671.389 521.996 671.623 521.762C671.681 521.762 671.682 521.762 671.74 521.762C671.857 522.171 671.974 522.581 672.033 522.99C672.091 522.932 672.091 522.873 672.15 522.815C672.618 521.82 671.155 520.943 670.629 521.937C670.57 521.996 670.57 522.054 670.511 522.113C670.277 522.581 670.394 522.99 670.804 523.341C671.213 523.692 671.506 523.692 672.033 523.517C672.384 523.4 672.735 523.049 672.676 522.698C672.442 520.884 670.629 520.065 669.225 519.012C667.177 517.374 665.071 515.795 663.024 514.157C659.163 511.173 655.243 508.19 651.909 504.68C648.165 500.76 645.591 496.197 644.83 490.757C644.187 486.311 643.601 479.174 648.515 476.892C649.159 476.6 649.042 475.371 648.281 475.313C643.601 474.611 644.245 467.942 644.596 464.373C644.947 460.863 645.941 457.178 649.393 455.481C649.802 455.247 649.919 454.662 649.685 454.253C648.457 452.147 645.474 452.556 644.362 450.684C643.485 449.28 644.069 446.004 644.128 444.308C644.128 441.968 644.186 439.628 644.186 437.346C644.245 428.454 644.303 419.504 644.42 410.612C644.479 409.383 642.724 409.325 642.724 410.495Z" fill="#A1EAC4"/>
<path d="M643.678 410.962C651.868 411.372 657.601 417.631 662.515 423.481C664.855 426.289 667.312 428.922 669.711 431.554C672.168 434.187 675.385 439.51 670.939 442.084C670.179 442.552 670.529 443.722 671.407 443.722C678.193 443.898 681.176 452.146 683.282 457.353C685.798 463.671 687.787 470.164 689.249 476.775C692.233 490.347 692.818 504.328 691.122 518.076C691.005 519.187 692.76 519.187 692.877 518.076C694.69 502.749 693.754 487.188 689.952 472.27C688.197 465.25 685.856 458.172 682.697 451.62C680.474 446.94 677.023 442.084 671.407 441.967C671.582 442.494 671.699 443.079 671.875 443.605C680.416 438.691 669.827 429.331 666.376 425.295C660.233 418.158 654.033 409.675 643.737 409.149C642.567 409.149 642.567 410.904 643.678 410.962Z" fill="#A1EAC4"/>
<path d="M673.043 432.022C677.138 417.514 682.871 403.533 690.242 390.37C689.833 390.487 689.423 390.604 689.014 390.663C690.593 391.599 692.231 392.535 693.811 393.471C694.63 393.939 695.39 393.003 695.039 392.242C690.827 383.818 703.463 378.436 707.734 373.405C707.383 373.464 707.032 373.522 706.681 373.522C707.5 373.99 708.377 374.458 709.196 374.926C709.606 375.16 710.132 375.043 710.425 374.634C715.105 366.678 723.353 362.232 731.309 358.137C730.9 357.786 730.432 357.493 730.022 357.142C727.507 365.391 731.485 374.4 732.245 382.648C732.655 387.094 732.713 391.599 732.362 396.103C732.187 398.326 732.362 401.661 731.485 403.65C731.485 405.112 730.666 405.931 728.969 406.224C728.443 406.282 727.975 406.341 727.448 406.399C726.278 406.516 725.05 406.633 723.88 406.75C723.412 406.809 722.944 407.101 723.002 407.628C723.061 408.798 723.412 409.149 724.289 409.909C725.401 410.845 726.278 410.962 726.805 412.6C727.097 413.478 727.097 414.472 727.097 415.35C727.039 420.088 726.337 424.944 725.518 429.624C724.699 434.187 723.529 438.691 722.125 443.079C720.896 446.764 719.258 452.263 714.695 452.848C714.11 452.907 713.525 453.55 713.935 454.194C717.328 459.4 712.297 465.718 709.84 470.223C707.149 475.02 704.692 479.934 702.41 484.906C697.847 494.793 694.103 505.03 691.061 515.502C690.769 516.613 692.465 517.081 692.758 515.97C696.209 503.919 700.714 492.219 706.213 480.987C708.787 475.663 711.887 470.632 714.578 465.367C716.509 461.565 718.03 457.119 715.514 453.258C715.28 453.726 714.988 454.135 714.754 454.603C718.205 454.194 720.428 451.737 721.949 448.753C724.231 444.19 725.459 438.925 726.571 433.953C727.799 428.454 728.618 422.838 728.911 417.222C729.028 415.35 729.203 413.244 728.384 411.489C727.916 410.319 724.933 408.505 724.874 407.686C724.582 407.979 724.289 408.271 723.997 408.564C727.273 408.213 731.953 409.032 733.064 405.288C734.527 400.608 734.468 394.816 734.41 390.019C734.41 384.871 733.883 379.782 732.947 374.751C731.894 369.076 730.022 363.402 731.777 357.669C732.011 356.908 731.134 356.323 730.49 356.674C722.242 360.945 713.759 365.566 708.962 373.815C709.372 373.698 709.781 373.581 710.191 373.522C709.372 373.054 708.494 372.586 707.675 372.118C707.383 371.943 706.856 371.943 706.622 372.235C701.708 378.027 688.78 383.526 693.635 393.178C694.045 392.769 694.454 392.359 694.864 391.95C693.284 391.014 691.646 390.078 690.067 389.142C689.657 388.908 689.072 389.025 688.838 389.434C681.467 402.772 675.617 416.871 671.464 431.496C670.996 432.666 672.692 433.134 673.043 432.022Z" fill="#A1EAC4"/>
<path d="M631.679 372.236C621.851 372.938 616.645 361.413 618.283 353.106C619.862 344.975 627.818 339.242 635.95 339.476C646.655 339.71 652.154 350.181 650.224 359.951C648.527 368.667 639.752 375.102 630.977 371.651C629.924 371.241 629.456 372.938 630.509 373.347C637.529 376.097 645.719 372.879 649.58 366.503C653.675 359.717 653.207 350.006 648.469 343.688C643.672 337.253 634.487 336.375 627.526 339.476C620.564 342.518 616.001 349.362 616.177 356.967C616.352 365.274 622.495 374.634 631.621 373.991C632.791 373.932 632.849 372.177 631.679 372.236Z" fill="#A1EAC4"/>
<path d="M721.476 243.711C718.083 250.029 714.163 255.996 709.717 261.612C709.015 262.489 710.244 263.718 710.946 262.84C715.509 257.107 719.545 251.023 722.997 244.588C723.523 243.594 722.002 242.716 721.476 243.711Z" fill="#A1EAC4"/>
<path d="M721.423 245.115C723.529 250.673 725.752 256.23 728.033 261.729C728.443 262.782 730.139 262.314 729.73 261.261C727.448 255.762 725.225 250.205 723.119 244.647C722.71 243.594 721.013 244.062 721.423 245.115Z" fill="#A1EAC4"/>
<path d="M721.005 245.934C720.595 267.696 717.787 289.341 712.581 310.46C712.288 311.571 713.985 312.039 714.277 310.928C719.542 289.634 722.35 267.872 722.76 245.934C722.818 244.764 721.063 244.764 721.005 245.934Z" fill="#A1EAC4"/>
<path d="M731.125 281.677C732.646 294.196 732.295 306.833 730.013 319.235C729.838 320.346 731.476 320.814 731.71 319.703C733.991 307.125 734.401 294.372 732.88 281.677C732.704 280.566 730.949 280.566 731.125 281.677Z" fill="#A1EAC4"/>
<path d="M724.393 306.014C726.441 310.694 730.009 314.964 730.243 320.229C730.302 321.107 731.413 321.458 731.881 320.697C733.929 317.129 736.034 313.56 738.082 309.992C738.667 308.997 737.146 308.12 736.561 309.114C734.514 312.683 732.408 316.251 730.36 319.82C730.887 319.995 731.472 320.112 731.998 320.288C731.764 314.613 728.079 310.226 725.914 305.195C725.446 304.083 723.925 304.961 724.393 306.014Z" fill="#A1EAC4"/>
<path d="M325.256 602.199C360.531 598.923 395.865 594.653 431.258 593.19C466.943 591.728 502.803 592.664 538.488 593.6C558.963 594.126 579.438 595.121 599.796 597.051C600.908 597.168 600.908 595.413 599.796 595.296C563.994 591.903 528.075 591.494 492.156 591.084C474.138 590.85 456.12 590.675 438.161 591.26C420.669 591.786 403.236 593.249 385.803 594.828C365.621 596.7 345.438 598.572 325.256 600.444C324.144 600.503 324.144 602.258 325.256 602.199Z" fill="#A1EAC4"/>
<path d="M508.831 576.342C523.514 579.092 538.022 578.975 552.823 577.629C568.033 576.225 583.184 575.348 598.453 574.646C629.107 573.3 659.761 572.072 690.356 570.785C707.848 570.024 725.339 569.322 742.831 568.562C743.942 568.503 743.942 566.748 742.831 566.807C712.118 568.094 681.464 569.381 650.752 570.668C620.566 571.955 590.204 572.598 560.077 575.172C551.887 575.874 543.697 576.81 535.507 576.927C526.732 577.044 517.957 576.225 509.299 574.587C508.187 574.47 507.719 576.167 508.831 576.342Z" fill="#A1EAC4"/>
<path d="M110.792 563.94C138.053 564.701 165.314 564.584 192.575 563.589C193.686 563.531 193.686 561.776 192.575 561.834C165.314 562.829 138.053 562.946 110.792 562.185C109.622 562.127 109.622 563.882 110.792 563.94Z" fill="#A1EAC4"/>
<path d="M140.58 587.457C150.525 585.351 161.055 586.697 171.117 587.165C181.238 587.691 191.3 588.159 201.42 588.686C222.012 589.739 242.546 590.792 263.138 591.786C264.249 591.845 264.249 590.09 263.138 590.031C242.195 588.978 221.193 587.925 200.25 586.872C189.779 586.346 179.307 585.819 168.836 585.293C159.3 584.825 149.589 583.713 140.171 585.761C139.059 585.995 139.527 587.691 140.58 587.457Z" fill="#A1EAC4"/>
<path d="M298.287 542.88C334.44 545.337 370.008 535.977 406.102 536.094C407.214 536.094 407.214 534.339 406.102 534.339C370.008 534.222 334.44 543.524 298.287 541.125C297.175 541.008 297.175 542.822 298.287 542.88Z" fill="#A1EAC4"/>
<path d="M271.203 361.062C271.495 360.067 271.788 359.073 272.256 358.137C272.548 357.727 272.782 357.376 273.075 356.967C274.303 356.85 275.59 356.674 276.819 356.557C277.17 356.791 277.462 357.493 277.696 357.844C278.574 359.073 279.51 360.126 280.855 360.945C283.429 362.466 286.53 362.817 289.279 361.764C296.475 359.131 299.166 349.596 307.941 350.532C310.281 350.766 312.504 351.702 314.2 353.34C315.487 354.568 316.482 356.089 317.827 357.259C320.226 359.248 323.209 359.541 326.076 358.488C329.586 357.259 332.277 354.627 334.909 352.111C338.478 348.777 343.684 344.74 348.423 348.309C351.523 350.59 353.337 354.1 357.198 355.329C360.825 356.499 364.686 355.797 367.728 353.515C368.605 352.872 367.728 351.292 366.85 351.994C362.638 355.153 357.373 354.627 353.688 350.941C351.231 348.543 349.125 345.559 345.498 345.15C336.957 344.097 332.511 354.51 325.257 356.908C319.758 358.722 317.944 353.808 314.317 351.117C311.626 349.128 308.233 348.309 304.899 348.835C301.389 349.362 298.698 351.468 296.241 353.866C293.374 356.733 290.332 360.652 285.886 360.652C282.903 360.652 280.621 359.014 278.983 356.674C278.047 355.387 277.287 354.334 275.59 354.159C271.905 353.808 270.325 357.669 269.448 360.535C269.155 361.647 270.852 362.115 271.203 361.062Z" fill="#A1EAC4"/>
<path d="M361.412 330.818C363.518 324.675 370.889 329.882 373.697 332.163C376.154 334.152 379.021 336.2 382.355 336.083C387.854 335.849 390.779 330.233 395.284 327.893C401.543 324.675 405.346 333.041 411.43 332.222C414.121 331.871 415.525 329.706 417.221 327.834C419.035 325.845 420.907 325.845 423.481 326.43C425.879 327.015 428.336 327.6 430.735 328.185C431.846 328.478 432.314 326.781 431.203 326.489C428.804 325.904 426.347 325.319 423.949 324.734C422.311 324.324 420.673 323.856 419.035 324.324C415.817 325.319 414.881 329.589 411.664 330.35C408.212 331.169 404.819 327.308 401.836 326.079C399.32 325.026 396.863 325.026 394.465 326.313C391.891 327.659 389.96 329.94 387.679 331.754C386.158 332.982 384.461 334.094 382.472 334.211C379.43 334.386 376.915 332.28 374.692 330.525C372.001 328.419 369.134 325.904 365.449 326.196C362.816 326.372 360.652 327.776 359.774 330.291C359.365 331.403 361.061 331.871 361.412 330.818Z" fill="#A1EAC4"/>
<path d="M625.893 160.115C625.366 171.054 625.015 182.052 624.898 193.05C624.898 194.161 626.653 194.161 626.653 193.05C626.77 182.052 627.121 171.113 627.648 160.115C627.706 159.003 625.951 159.003 625.893 160.115Z" fill="#A1EAC4"/>
<path d="M627.057 160.934C640.57 159.062 654.318 157.248 667.773 160.407C668.884 160.641 669.352 159.003 668.241 158.711C654.493 155.435 640.395 157.307 626.589 159.237C625.477 159.354 625.945 161.051 627.057 160.934Z" fill="#A1EAC4"/>
<path d="M666.671 160.992C666.964 183.222 666.554 205.511 665.384 227.741C665.326 228.852 667.081 228.852 667.139 227.741C668.309 205.511 668.719 183.281 668.426 160.992C668.426 159.881 666.671 159.881 666.671 160.992Z" fill="#A1EAC4"/>
<path d="M626.357 221.774C626.65 224.582 626.767 227.507 627.293 230.256C627.586 231.602 628.054 232.538 629.224 233.357C632.909 235.755 638.876 234.351 642.913 234.117C648.646 233.766 654.437 233.415 660.17 233.064C662.744 232.889 666.839 232.187 665.26 228.618C664.792 227.565 663.271 228.501 663.739 229.496C664.031 230.139 660.755 231.192 660.17 231.309C659.234 231.485 658.24 231.426 657.304 231.485C655.607 231.602 653.852 231.719 652.156 231.777C648.704 232.011 645.253 232.187 641.801 232.421C638.642 232.596 635.132 233.24 631.973 232.538C627.995 231.602 628.522 225.167 628.112 221.832C627.995 220.662 626.24 220.662 626.357 221.774Z" fill="#A1EAC4"/>
<path d="M615.704 219.609C610.556 227.156 605.232 234.585 599.85 241.956C599.675 242.19 599.675 242.6 599.85 242.834C600.786 244.296 602.366 244.881 604.062 244.355C606.578 243.594 607.806 240.728 609.093 238.739C611.199 235.463 613.598 232.362 616.172 229.379C617.283 228.15 618.395 226.922 619.565 225.752C620.91 224.406 623.192 221.54 625.122 221.247C626.234 221.072 625.766 219.375 624.654 219.551C622.899 219.843 621.729 221.247 620.442 222.417C618.746 223.997 617.108 225.635 615.528 227.39C612.486 230.783 609.678 234.41 607.221 238.212C606.519 239.265 605.934 240.552 605.057 241.488C604.121 242.834 603.126 242.951 601.956 241.839C602.307 241.371 602.658 240.903 602.951 240.435C604.53 238.271 606.11 236.106 607.631 233.942C610.848 229.437 614.007 224.933 617.108 220.37C617.868 219.551 616.347 218.673 615.704 219.609Z" fill="#A1EAC4"/>
<path d="M624.836 221.774C632.09 221.949 639.052 217.562 641.918 210.893C644.492 204.867 643.088 197.028 637.648 193.05C631.388 188.546 623.374 191.939 618.518 196.853C615.652 199.778 613.253 203.463 612.668 207.558C612.434 209.196 612.493 210.834 612.902 212.414C613.136 213.35 613.487 214.227 613.955 215.046C614.072 215.28 616.763 219.083 615.593 219.024C614.482 218.907 614.482 220.662 615.593 220.779C617.407 220.955 618.343 219.317 617.816 217.679C617.407 216.333 616.12 215.397 615.418 214.169C614.365 212.238 614.131 210.015 614.423 207.851C615.418 200.363 623.374 192.524 631.096 192.641C638.701 192.699 642.679 201.182 641.099 207.851C639.344 215.105 632.207 220.194 624.836 219.96C623.666 220.019 623.666 221.774 624.836 221.774Z" fill="#A1EAC4"/>
<path d="M633.15 167.134L633.091 167.076C633.091 167.485 633.091 167.895 633.091 168.304C633.852 167.427 639.117 167.485 640.521 167.31C642.744 167.076 645.025 166.9 647.248 166.783C649.471 166.666 651.753 166.549 654.034 166.491C655.029 166.491 660.235 166.959 660.586 166.023C660.177 167.076 661.873 167.544 662.283 166.491C662.341 166.374 662.341 166.315 662.4 166.198C662.517 165.906 662.4 165.555 662.166 165.321C660.879 164.034 658.539 164.619 656.842 164.619C653.625 164.619 650.466 164.736 647.248 164.97C644.265 165.145 641.281 165.438 638.239 165.73C636.718 165.906 632.916 165.672 631.804 166.959C631.512 167.31 631.453 167.836 631.804 168.187L631.863 168.246C632.74 169.182 633.969 167.895 633.15 167.134Z" fill="#A1EAC4"/>
<path d="M632.331 175.676C638.239 176.495 643.972 176.261 649.881 176.027C650.992 175.968 650.992 174.213 649.881 174.272C644.089 174.506 638.532 174.74 632.799 173.979C631.687 173.862 631.219 175.559 632.331 175.676Z" fill="#A1EAC4"/>
<path d="M628.346 182.286C628.171 182.462 627.995 182.696 627.82 182.871C627.293 183.456 627.644 184.334 628.463 184.392C638.642 184.568 648.821 184.1 658.942 182.988C660.053 182.871 660.053 181.116 658.942 181.233C648.821 182.345 638.642 182.813 628.463 182.637C628.697 183.164 628.873 183.632 629.107 184.158C629.282 183.983 629.458 183.749 629.633 183.573C630.335 182.696 629.107 181.467 628.346 182.286Z" fill="#A1EAC4"/>
<path d="M640.924 191.88C646.248 192.29 651.571 192.056 656.836 191.178C657.948 191.003 657.48 189.306 656.368 189.482C651.22 190.301 646.072 190.535 640.924 190.125C639.754 190.067 639.754 191.822 640.924 191.88Z" fill="#A1EAC4"/>
<path d="M626.648 215.573C621.91 215.807 617.873 211.653 619.394 206.856C620.564 203.054 624.952 199.017 628.93 198.374C630.86 198.081 632.966 198.549 634.429 199.895C636.593 201.884 636.008 204.809 635.014 207.207C633.317 211.419 630.217 215.222 625.478 215.748C624.367 215.865 624.367 217.62 625.478 217.503C631.562 216.86 635.891 211.653 637.354 205.92C638.758 200.538 634.78 196.092 629.222 196.56C624.074 197.028 618.4 202.235 617.464 207.324C616.469 212.999 621.091 217.62 626.648 217.328C627.76 217.269 627.76 215.514 626.648 215.573Z" fill="#A1EAC4"/>
<path d="M627.639 199.134C625.299 204.165 623.134 209.255 621.204 214.403C620.794 215.456 622.491 215.924 622.9 214.871C624.831 209.84 626.878 204.867 629.16 200.012C629.628 198.959 628.165 198.081 627.639 199.134Z" fill="#A1EAC4"/>
<path d="M630.335 204.165C628.814 207.324 627.352 210.483 625.831 213.642C625.363 214.637 626.884 215.573 627.352 214.52C628.873 211.361 630.335 208.202 631.856 205.043C632.324 204.048 630.862 203.112 630.335 204.165Z" fill="#A1EAC4"/>
<path d="M195.438 108.635C195.438 113.958 195.438 119.34 195.438 124.664C195.438 125.775 197.192 125.775 197.192 124.664C197.192 119.34 197.192 113.958 197.192 108.635C197.192 107.523 195.438 107.523 195.438 108.635Z" fill="#A1EAC4"/>
<path d="M196.545 125.424C201.517 125.424 206.431 125.424 211.404 125.424C212.515 125.424 212.515 123.669 211.404 123.669C206.431 123.669 201.517 123.669 196.545 123.669C195.433 123.669 195.433 125.424 196.545 125.424Z" fill="#A1EAC4"/>
<path d="M212.474 123.552C212.474 117.761 212.474 111.911 212.474 106.119C212.474 105.008 210.719 105.008 210.719 106.119C210.719 111.911 210.719 117.761 210.719 123.552C210.719 124.664 212.474 124.664 212.474 123.552Z" fill="#A1EAC4"/>
<path d="M211.825 105.008C206.735 105.008 201.646 105.008 196.615 105.008C195.503 105.008 195.503 106.763 196.615 106.763C201.704 106.763 206.794 106.763 211.825 106.763C212.936 106.763 212.936 105.008 211.825 105.008Z" fill="#A1EAC4"/>
<path d="M202.875 126.36C202.875 132.327 202.875 138.236 202.875 144.203C202.875 145.314 204.63 145.314 204.63 144.203C204.63 138.236 204.63 132.327 204.63 126.36C204.63 125.249 202.875 125.249 202.875 126.36Z" fill="#A1EAC4"/>
<path d="M182.28 143.968C188.773 137.767 195.559 131.8 202.579 126.126C203.457 125.424 202.228 124.195 201.351 124.897C194.331 130.572 187.603 136.48 181.051 142.74C180.232 143.5 181.461 144.729 182.28 143.968Z" fill="#A1EAC4"/>
<path d="M204.746 126.711C211.766 132.035 218.786 137.358 225.806 142.682C226.684 143.384 227.561 141.863 226.684 141.161C219.664 135.837 212.644 130.514 205.624 125.19C204.746 124.488 203.869 126.009 204.746 126.711Z" fill="#A1EAC4"/>
<path d="M175.49 146.075C179.351 146.075 183.212 146.075 187.131 146.075C188.243 146.075 188.243 144.32 187.131 144.32C183.27 144.32 179.409 144.32 175.49 144.32C174.378 144.32 174.378 146.075 175.49 146.075Z" fill="#A1EAC4"/>
<path d="M186.094 146.426C186.094 150.813 186.094 155.259 186.094 159.647C186.094 160.758 187.849 160.758 187.849 159.647C187.849 155.259 187.849 150.813 187.849 146.426C187.849 145.256 186.094 145.256 186.094 146.426Z" fill="#A1EAC4"/>
<path d="M174.211 145.607C174.211 150.755 174.211 155.903 174.211 161.05C174.211 162.162 175.966 162.162 175.966 161.05C175.966 155.903 175.966 150.755 175.966 145.607C175.966 144.437 174.211 144.437 174.211 145.607Z" fill="#A1EAC4"/>
<path d="M174.912 162.104C178.539 162.104 182.107 162.104 185.734 162.104C186.846 162.104 186.846 160.349 185.734 160.349C182.107 160.349 178.539 160.349 174.912 160.349C173.8 160.349 173.8 162.104 174.912 162.104Z" fill="#A1EAC4"/>
<path d="M197.484 146.016C197.484 151.106 197.484 156.195 197.484 161.226C197.484 162.338 199.239 162.338 199.239 161.226C199.239 156.137 199.239 151.047 199.239 146.016C199.239 144.846 197.484 144.846 197.484 146.016Z" fill="#A1EAC4"/>
<path d="M198.365 161.694C201.933 161.694 205.443 161.694 209.012 161.694C210.123 161.694 210.123 159.939 209.012 159.939C205.443 159.939 201.933 159.939 198.365 159.939C197.253 159.939 197.253 161.694 198.365 161.694Z" fill="#A1EAC4"/>
<path d="M198.951 146.893C202.11 146.893 205.21 146.893 208.369 146.893C209.481 146.893 209.481 145.138 208.369 145.138C205.21 145.138 202.11 145.138 198.951 145.138C197.839 145.138 197.839 146.893 198.951 146.893Z" fill="#A1EAC4"/>
<path d="M207.734 145.782C207.734 150.579 207.734 155.376 207.734 160.232C207.734 161.343 209.489 161.343 209.489 160.232C209.489 155.435 209.489 150.638 209.489 145.782C209.489 144.671 207.734 144.671 207.734 145.782Z" fill="#A1EAC4"/>
<path d="M222.292 145.782C222.117 149.585 222 153.387 222 157.19C222 158.301 223.755 158.301 223.755 157.19C223.755 153.387 223.872 149.585 224.047 145.782C224.106 144.671 222.351 144.671 222.292 145.782Z" fill="#A1EAC4"/>
<path d="M223.059 146.192C226.92 145.782 230.781 145.314 234.642 144.905C235.753 144.788 235.753 143.033 234.642 143.15C230.781 143.559 226.92 144.027 223.059 144.437C221.947 144.554 221.889 146.309 223.059 146.192Z" fill="#A1EAC4"/>
<path d="M234.056 144.378C233.646 148.298 233.763 152.159 234.465 156.02C234.641 157.131 236.337 156.663 236.162 155.552C235.518 151.808 235.401 148.122 235.811 144.378C235.928 143.267 234.173 143.267 234.056 144.378Z" fill="#A1EAC4"/>
<path d="M223.65 158.711C227.511 158.126 231.372 157.541 235.233 156.956C236.345 156.78 235.877 155.084 234.765 155.259C230.904 155.844 227.043 156.429 223.182 157.014C222.071 157.19 222.539 158.828 223.65 158.711Z" fill="#A1EAC4"/>
<path d="M202.642 162.221C200.477 165.497 198.605 168.948 196.909 172.458C196.441 173.453 197.962 174.389 198.43 173.336C200.126 169.767 202.057 166.374 204.163 163.098C204.748 162.162 203.227 161.285 202.642 162.221Z" fill="#A1EAC4"/>
<path d="M203.163 162.923C205.328 165.848 207.2 168.89 208.779 172.107C209.306 173.102 210.827 172.224 210.3 171.23C208.662 168.012 206.79 164.912 204.684 162.045C204.041 161.109 202.52 161.987 203.163 162.923Z" fill="#A1EAC4"/>
<path d="M193.755 174.74C194.984 174.74 196.212 174.74 197.499 174.798C198.084 174.798 198.611 174.857 199.196 174.915C200.249 174.974 200.132 174.623 200.307 175.559C200.717 177.782 200.249 180.648 200.073 182.93C199.956 184.041 201.711 184.041 201.828 182.93C201.945 181.175 202.062 179.361 202.062 177.606C202.062 176.612 202.355 174.974 201.828 174.038C201.302 173.16 200.073 173.277 199.196 173.219C197.382 173.102 195.569 173.043 193.755 173.043C192.644 172.985 192.644 174.74 193.755 174.74Z" fill="#A1EAC4"/>
<path d="M192.568 174.681C192.744 176.729 192.919 178.718 193.095 180.765C193.212 182.403 192.978 184.802 193.621 186.381C193.855 187.025 194.148 187.259 194.791 187.376C196.312 187.668 198.594 186.908 200.115 186.674C201.226 186.498 200.758 184.86 199.647 184.977C198.594 185.094 196.956 185.738 195.961 185.504C194.85 185.211 195.084 183.69 195.025 182.52C194.791 179.888 194.557 177.314 194.323 174.681C194.206 173.57 192.451 173.511 192.568 174.681Z" fill="#A1EAC4"/>
<path d="M205.796 174.447C205.679 176.144 205.621 177.899 205.68 179.595C205.68 180.005 206.206 183.866 206.031 183.983C206.323 183.924 206.616 183.807 206.908 183.749C206.85 183.749 206.791 183.69 206.674 183.69C206.908 183.983 207.083 184.275 207.317 184.509C207.317 184.451 207.317 184.392 207.317 184.275C207.083 184.568 206.908 184.86 206.674 185.094C206.732 185.094 206.791 185.094 206.85 185.036C207.961 184.802 207.493 183.105 206.381 183.339C206.323 183.339 206.265 183.339 206.206 183.398C205.797 183.456 205.562 183.866 205.562 184.217C205.562 184.275 205.562 184.334 205.562 184.451C205.562 184.802 205.855 185.211 206.206 185.27C207.727 185.562 207.727 184.158 207.669 183.047C207.435 180.122 207.317 177.255 207.551 174.272C207.61 173.277 205.855 173.336 205.796 174.447Z" fill="#A1EAC4"/>
<path d="M206.857 174.856C206.857 174.447 210.601 174.33 211.127 174.388C212.59 174.622 212.297 174.739 212.531 175.792C212.707 176.494 212.473 177.489 212.414 178.191C212.356 179.653 212.356 181.057 212.414 182.52C212.414 183.339 212.999 185.796 212.59 186.381C212.999 186.264 213.409 186.147 213.818 186.088C213.76 186.088 213.701 186.03 213.643 186.03C213.76 186.381 213.935 186.673 214.052 187.024C214.052 186.966 214.111 186.907 214.111 186.849C214.403 185.737 212.707 185.269 212.414 186.381C212.414 186.439 212.356 186.498 212.356 186.556C212.239 186.907 212.414 187.375 212.765 187.551C212.824 187.551 212.882 187.609 212.941 187.609C213.409 187.785 213.877 187.726 214.169 187.317C214.579 186.732 214.403 186.147 214.345 185.445C214.286 183.865 214.169 182.227 214.169 180.648C214.169 179.068 214.228 177.43 214.286 175.851C214.345 175.149 214.52 174.213 214.052 173.569C213.058 172.224 209.899 172.633 208.612 172.809C207.149 172.984 205.219 173.16 205.102 174.915C205.102 175.968 206.857 175.968 206.857 174.856Z" fill="#A1EAC4"/>
<path d="M207.018 186.732C208.773 186.615 210.528 186.791 212.225 187.2C213.336 187.493 213.804 185.796 212.693 185.504C210.821 184.977 208.949 184.802 207.018 184.919C205.848 185.036 205.848 186.791 207.018 186.732Z" fill="#A1EAC4"/>
<path d="M229.018 159.062C227.614 162.162 226.386 165.38 225.274 168.597C224.923 169.65 226.62 170.118 226.971 169.065C228.024 165.965 229.194 162.923 230.539 159.939C231.007 158.886 229.486 158.009 229.018 159.062Z" fill="#A1EAC4"/>
<path d="M220.064 172.926C222.989 172.107 225.973 171.697 229.073 171.814C230.185 171.873 230.185 170.118 229.073 170.059C225.856 169.942 222.697 170.352 219.596 171.229C218.485 171.522 218.953 173.218 220.064 172.926Z" fill="#A1EAC4"/>
<path d="M220.017 172.107C219.491 173.745 219.9 175.266 220.076 176.904C220.251 178.893 220.251 180.824 220.193 182.813C220.076 185.387 220.719 185.679 223.293 185.445C225.048 185.27 227.447 185.738 228.09 183.807C228.675 181.935 228.5 179.42 228.675 177.431C228.851 175.325 229.085 173.16 229.26 171.054C229.377 169.943 227.622 169.943 227.505 171.054C227.271 173.511 227.037 176.027 226.803 178.484C226.686 179.478 226.745 180.707 226.511 181.701C226.16 183.339 225.984 183.456 224.288 183.632C223.761 183.69 223.293 183.749 222.767 183.807C221.772 184.158 221.48 183.866 221.889 182.871C221.655 182.052 222.006 180.765 221.948 179.888C221.889 177.665 221.012 174.681 221.655 172.575C222.065 171.464 220.368 170.996 220.017 172.107Z" fill="#A1EAC4"/>
<path d="M231.476 160.699C232.821 162.747 233.991 164.911 235.103 167.134C235.571 168.129 237.092 167.251 236.624 166.257C235.571 164.034 234.342 161.928 232.997 159.822C232.353 158.827 230.832 159.705 231.476 160.699Z" fill="#A1EAC4"/>
<path d="M233.479 169.708C236.404 169.708 239.329 169.708 242.254 169.708C243.366 169.708 243.366 167.953 242.254 167.953C242.079 167.953 241.903 167.953 241.728 167.953C240.616 167.953 240.616 169.708 241.728 169.708C241.903 169.708 242.079 169.708 242.254 169.708C243.366 169.708 243.366 167.953 242.254 167.953C239.329 167.953 236.404 167.953 233.479 167.953C232.309 167.953 232.309 169.708 233.479 169.708Z" fill="#A1EAC4"/>
<path d="M232.592 169.65C232.826 171.873 233.001 174.096 233.06 176.319C233.118 177.899 232.592 180.59 233.294 182.052C233.703 182.93 234.23 183.047 235.166 183.047C237.33 182.988 239.67 182.462 241.835 182.169C242.186 182.111 242.478 181.643 242.478 181.35C242.42 177.372 242.361 173.453 242.303 169.475C242.303 168.363 240.548 168.363 240.548 169.475C240.606 173.453 240.665 177.372 240.723 181.35C240.957 181.058 241.133 180.765 241.367 180.531C239.963 180.707 238.559 180.882 237.155 181.116C236.687 181.175 235.341 181.584 234.932 181.233C234.639 180.999 234.932 179.186 234.932 178.835C234.873 175.793 234.698 172.751 234.405 169.767C234.23 168.539 232.475 168.539 232.592 169.65Z" fill="#A1EAC4"/>
<path d="M167.655 174.447C170.697 171.639 173.797 169.006 177.132 166.608C178.009 165.964 177.132 164.443 176.254 165.087C172.803 167.602 169.527 170.293 166.426 173.218C165.607 173.979 166.836 175.207 167.655 174.447Z" fill="#A1EAC4"/>
<path d="M176.609 165.848C178.364 168.363 179.826 170.996 180.996 173.745C181.464 174.798 182.985 173.862 182.517 172.868C181.289 170.06 179.826 167.427 178.13 164.97C177.486 164.034 175.965 164.912 176.609 165.848Z" fill="#A1EAC4"/>
<path d="M159.866 177.665C161.445 177.548 162.966 177.431 164.546 177.314C165.248 177.255 166.008 177.08 166.652 177.138C167.471 176.846 167.705 176.904 167.354 177.372C167.12 177.723 167.003 178.074 167.061 178.484C166.418 181.35 166.301 184.392 166.184 187.317C166.71 187.083 167.178 186.908 167.705 186.674C167.646 186.615 167.588 186.557 167.529 186.44C166.769 185.621 165.54 186.849 166.301 187.668C166.359 187.727 166.418 187.785 166.476 187.902C167.003 188.487 167.939 188.019 167.997 187.259C168.056 184.743 168.29 182.228 168.641 179.771C168.816 178.718 169.577 176.963 168.933 175.91C168.407 175.091 167.529 175.266 166.71 175.325C164.429 175.5 162.206 175.676 159.924 175.851C158.754 176.027 158.754 177.782 159.866 177.665Z" fill="#A1EAC4"/>
<path d="M161.052 175.968C160.994 175.968 160.935 175.968 160.818 175.968C160.526 175.968 160.233 176.144 160.058 176.378C159.122 177.957 159.18 180.707 158.888 182.52C158.478 185.094 158.069 187.668 157.659 190.242C157.601 190.71 157.776 191.237 158.244 191.295C160.994 191.88 163.568 191.763 166.2 190.769C167.253 190.359 166.785 188.663 165.732 189.072C163.392 189.95 161.169 190.125 158.712 189.599C158.888 189.95 159.122 190.301 159.297 190.652C159.473 189.482 161.52 177.723 160.935 177.665C162.164 177.84 162.164 176.085 161.052 175.968Z" fill="#A1EAC4"/>
<path d="M176.96 175.675L176.902 175.734C177.311 175.734 177.721 175.734 178.13 175.734C178.072 175.734 178.072 175.675 178.013 175.675C178.013 176.085 178.013 176.494 178.013 176.904C178.072 176.845 179.125 176.845 179.359 176.845C180.002 176.787 180.704 176.728 181.348 176.728C182.576 176.67 183.805 176.728 185.033 176.845C184.799 176.319 184.624 175.851 184.39 175.324C184.273 175.383 184.156 175.5 184.097 175.558C182.986 175.675 182.986 177.43 184.097 177.313C184.741 177.255 185.209 177.079 185.677 176.553C186.203 175.968 185.852 175.09 185.033 175.032C183.337 174.915 181.64 174.856 179.944 174.973C179.125 175.032 177.428 174.856 176.843 175.617C176.551 175.968 176.434 176.553 176.843 176.845C176.902 176.845 176.902 176.904 176.96 176.904C177.311 177.196 177.896 177.313 178.189 176.904L178.247 176.845C178.949 176.085 177.721 174.856 176.96 175.675Z" fill="#A1EAC4"/>
<path d="M176.252 176.085C176.076 178.484 175.901 180.882 175.784 183.281C175.725 184.626 174.965 188.078 175.784 189.306C176.193 189.891 176.603 190.125 177.363 190.067C178.124 190.067 178.943 189.54 179.645 189.365C181.049 188.955 182.511 188.838 183.974 188.838C185.085 188.838 185.085 187.083 183.974 187.083C182.687 187.083 181.4 187.2 180.113 187.493C179.528 187.61 178.416 188.253 177.89 188.136C177.48 188.429 177.305 188.37 177.422 187.902C177.363 187.434 177.363 186.966 177.422 186.44C177.48 183.047 177.773 179.595 178.007 176.202C178.124 174.915 176.369 174.915 176.252 176.085Z" fill="#A1EAC4"/>
<path d="M183.801 176.261C183.333 180.18 183.099 184.1 183.157 188.078C183.157 189.189 184.912 189.189 184.912 188.078C184.854 184.1 185.088 180.18 185.556 176.261C185.731 175.149 183.976 175.149 183.801 176.261Z" fill="#A1EAC4"/>
<path d="M651.096 421.668C664.902 452.03 674.555 484.088 679.878 517.023C680.054 518.135 681.75 517.667 681.575 516.555C676.193 483.503 666.482 451.269 652.617 420.791C652.149 419.796 650.628 420.674 651.096 421.668Z" fill="#A1EAC4"/>
<path d="M723.941 370.305C706.859 396.396 692 423.891 681.47 453.317C681.06 454.37 682.757 454.838 683.166 453.785C693.638 424.476 708.438 397.157 725.461 371.183C726.046 370.247 724.526 369.369 723.941 370.305Z" fill="#A1EAC4"/>
<path d="M645.136 453.726C654.613 456.3 662.744 462.15 668.185 470.34C668.828 471.276 670.349 470.399 669.706 469.463C664.031 460.922 655.549 454.721 645.604 452.03C644.492 451.737 644.024 453.434 645.136 453.726Z" fill="#A1EAC4"/>
<path d="M667.952 429.449C664.734 434.772 662.57 440.564 661.692 446.765C661.517 447.876 663.213 448.344 663.389 447.233C664.266 441.207 666.314 435.533 669.473 430.326C670.058 429.39 668.537 428.513 667.952 429.449Z" fill="#A1EAC4"/>
<path d="M686.131 396.572C688.997 399.731 690.986 403.357 692.507 407.277C693.209 409.032 693.794 410.845 694.321 412.6C694.847 414.297 696.076 416.813 695.374 418.509C694.964 419.562 696.661 420.03 697.07 418.977C697.772 417.28 697.07 415.584 696.544 413.946C695.842 411.547 695.081 409.149 694.145 406.809C692.507 402.597 690.343 398.677 687.301 395.284C686.599 394.465 685.37 395.694 686.131 396.572Z" fill="#A1EAC4"/>
<path d="M705.977 403.299C713.29 394.875 722.767 388.908 733.531 385.983C734.642 385.691 734.174 383.994 733.063 384.287C722.065 387.27 712.237 393.413 704.749 402.012C704.047 402.89 705.275 404.177 705.977 403.299Z" fill="#A1EAC4"/>
<path d="M685.316 450.275C690.581 445.595 696.783 442.319 703.335 439.862C706.318 438.75 709.301 437.873 712.343 436.995C714.04 436.527 715.678 436.118 717.375 435.65C718.194 435.474 721.645 434.07 722.288 434.421C722.171 434.012 722.054 433.602 721.996 433.193C721.937 433.251 721.937 433.31 721.879 433.368C722.288 433.251 722.698 433.134 723.107 433.076C723.049 433.076 722.991 433.017 722.932 433.017C721.938 432.491 721.06 434.012 722.055 434.538C722.113 434.538 722.171 434.597 722.23 434.597C722.639 434.831 723.166 434.714 723.458 434.304C723.517 434.246 723.517 434.187 723.575 434.129C723.809 433.719 723.692 433.193 723.283 432.9C722.464 432.432 721.586 432.842 720.709 433.017C718.72 433.485 716.731 433.953 714.742 434.48C710.94 435.474 707.137 436.586 703.393 437.873C696.373 440.388 689.704 443.84 684.146 448.871C683.269 449.748 684.497 451.035 685.316 450.275Z" fill="#A1EAC4"/>
<path d="M655.484 522.464C668.764 525.681 682.277 523.283 695.557 521.703C709.948 520.007 724.397 519.714 738.847 519.48C739.958 519.48 739.958 517.725 738.847 517.725C724.748 517.959 710.65 518.252 696.668 519.831C683.155 521.411 669.407 524.043 655.952 520.767C654.899 520.475 654.431 522.171 655.484 522.464Z" fill="#A1EAC4"/>
<path d="M697.365 517.491C720.999 516.263 744.633 514.976 768.267 513.747C769.378 513.689 769.378 511.934 768.267 511.992C744.633 513.221 720.999 514.508 697.365 515.736C696.253 515.795 696.253 517.55 697.365 517.491Z" fill="#A1EAC4"/>
<path d="M629.681 348.602C623.89 349.713 616.811 344.156 616.987 338.013C617.221 331.052 625.937 328.712 631.495 328.653C637.637 328.653 641.966 333.392 640.504 339.593C639.86 342.284 638.164 344.507 636.058 346.203C634.829 347.198 629.857 350.825 628.453 349.07C627.751 348.192 626.522 349.421 627.224 350.298C629.096 352.638 632.957 350.24 634.946 349.128C637.988 347.315 640.738 344.565 641.908 341.172C644.248 334.328 640.094 327.483 632.899 326.957C626.054 326.43 615.466 329.589 615.29 338.013C615.173 345.384 623.246 351.585 630.208 350.298C631.261 350.123 630.793 348.426 629.681 348.602Z" fill="#A1EAC4"/>
<path d="M180.647 376.155C178.483 378.612 176.611 381.303 175.031 384.228C174.505 385.222 176.026 386.1 176.552 385.105C178.073 382.356 179.828 379.782 181.934 377.383C182.636 376.564 181.408 375.277 180.647 376.155Z" fill="#E5E5E5"/>
<path d="M180.587 376.857C182.342 379.314 184.097 381.713 185.852 384.17C186.495 385.106 188.016 384.228 187.373 383.292C185.618 380.835 183.863 378.437 182.108 375.98C181.406 375.044 179.885 375.921 180.587 376.857Z" fill="#E5E5E5"/>
<path d="M180.462 380.308C180.989 400.959 181.457 421.609 181.983 442.318C181.983 443.43 183.738 443.43 183.738 442.318C183.212 421.668 182.744 401.017 182.217 380.308C182.159 379.197 180.404 379.138 180.462 380.308Z" fill="#E5E5E5"/>
<path d="M183.92 443.956C209.894 443.956 235.868 443.956 261.842 443.956C262.953 443.956 262.953 442.201 261.842 442.201C235.868 442.201 209.894 442.201 183.92 442.201C182.808 442.201 182.808 443.956 183.92 443.956Z" fill="#E5E5E5"/>
<path d="M258.446 442.202C260.259 442.904 262.014 443.606 263.828 444.308C263.594 443.664 263.301 443.021 263.067 442.377C262.19 443.957 260.961 445.185 259.44 446.121C257.978 446.999 259.323 449.28 260.786 448.403C262.716 447.291 264.296 445.653 265.407 443.723C265.875 442.904 265.407 442.085 264.647 441.792C262.833 441.09 261.078 440.388 259.265 439.686C257.568 439.043 256.866 441.558 258.446 442.202Z" fill="#E5E5E5"/>
<path d="M707.731 126.243C705.391 123.143 708.725 118.404 712.352 120.744C713.99 121.797 714.751 123.962 713.581 125.658C712.528 127.179 710.363 127.823 708.725 127.004C707.731 126.477 706.853 127.998 707.848 128.525C710.246 129.695 713.171 128.993 714.868 126.887C716.681 124.605 716.038 121.388 713.815 119.633C711.65 117.936 708.608 117.936 706.736 120.042C705.04 121.973 704.747 125.073 706.327 127.179C706.853 127.998 708.374 127.121 707.731 126.243Z" fill="#A239A0"/>
<path d="M756.397 348.718C756.28 345.969 758.327 344.097 761.018 344.097C762.13 344.097 763.007 344.389 764.06 343.921C766.049 343.044 766.81 340.762 767.453 338.832C768.389 336.024 769.091 334.678 772.601 335.556C773.537 335.79 774.122 336.258 775.117 335.907C778.042 334.795 776.286 329.764 780.732 330.583C781.844 330.817 782.312 329.121 781.201 328.887C779.797 328.594 778.451 328.711 777.222 329.589C776.111 330.408 775.994 331.402 775.351 332.455C775.292 333.567 774.531 334.035 773.127 333.859C772.835 333.684 772.484 333.508 772.192 333.391C771.548 333.333 771.197 332.982 770.495 333.04C769.208 333.099 768.214 333.918 767.453 334.854C766.342 336.199 766.049 337.837 765.406 339.475C764.762 341.113 764.119 342.283 762.13 342.459C761.252 342.517 760.433 342.225 759.556 342.342C756.455 342.81 754.466 345.676 754.583 348.718C754.7 349.888 756.455 349.888 756.397 348.718Z" fill="#A239A0"/>
<path d="M201.407 440.622C209.655 424.066 210.942 405.405 215.798 387.796C217.026 383.292 218.255 378.027 221.648 374.634C226.62 369.661 232.938 373.171 234.986 379.021C236.507 383.467 236.565 388.615 236.858 393.295C237.15 398.326 237.384 403.357 237.677 408.388C238.32 419.152 239.432 429.975 243.059 440.212C243.41 441.265 245.106 440.797 244.755 439.744C240.953 428.98 239.9 417.573 239.315 406.224C239.022 400.666 238.788 395.05 238.379 389.493C238.028 385.047 237.852 380.191 235.746 376.155C234.108 372.996 230.949 370.422 227.264 370.422C223.461 370.422 220.302 373.054 218.372 376.096C215.856 380.133 214.686 385.222 213.516 389.785C212.229 394.875 211.176 400.023 210.123 405.171C207.783 416.988 205.385 428.863 199.944 439.744C199.359 440.739 200.88 441.616 201.407 440.622Z" fill="#A239A0"/>
<path d="M209.431 368.082C208.261 366.385 210.659 364.104 212.063 365.976C213.409 367.731 210.893 369.486 209.489 368.14C208.67 367.38 207.442 368.608 208.261 369.369C209.489 370.539 211.478 370.656 212.882 369.661C214.462 368.55 214.637 366.444 213.467 364.923C212.297 363.402 210.133 362.992 208.67 364.279C207.383 365.449 206.974 367.497 207.968 368.959C208.553 369.895 210.074 369.018 209.431 368.082Z" fill="#A239A0"/>
<path d="M222.345 360.302C221.409 358.956 223.457 357.728 224.334 359.132C225.27 360.653 222.638 362.349 221.76 360.653C221.234 359.658 219.771 360.536 220.239 361.53C221 363.11 223.047 363.519 224.51 362.642C226.031 361.764 226.733 359.775 225.797 358.196C224.978 356.85 223.047 356.148 221.643 357.026C220.298 357.903 219.83 359.775 220.707 361.121C221.468 362.115 222.989 361.238 222.345 360.302Z" fill="#A239A0"/>
<path d="M217.267 347.432C216.799 346.086 218.262 344.682 219.432 345.794C220.602 346.905 219.256 348.485 217.911 348.017C216.858 347.666 216.39 349.362 217.443 349.713C220.485 350.708 223.059 346.847 220.66 344.565C219.607 343.512 217.969 343.337 216.741 344.214C215.629 345.033 215.044 346.554 215.571 347.9C215.98 348.953 217.677 348.543 217.267 347.432Z" fill="#A239A0"/>
<path d="M239.619 363.051C239.444 362.934 239.678 363.11 239.736 363.227C239.736 363.285 239.736 363.344 239.736 363.402C239.736 363.461 239.736 363.461 239.736 363.344V363.402C239.853 363.344 239.736 363.402 239.736 363.402C239.678 363.402 239.912 363.402 239.97 363.402C240.146 363.402 240.321 363.461 240.497 363.519C240.263 363.227 240.087 362.934 239.853 362.7C239.853 363.168 239.853 363.636 239.853 364.104C240.087 363.812 240.263 363.519 240.497 363.285C240.029 363.461 239.561 363.519 239.093 363.402C238.04 363.051 237.572 364.748 238.625 365.099C239.385 365.333 240.263 365.333 240.965 364.982C241.316 364.806 241.608 364.572 241.608 364.163C241.608 363.695 241.608 363.227 241.608 362.759C241.608 362.349 241.316 361.998 240.965 361.94C240.029 361.706 238.917 361.589 238.332 362.525C237.864 363.227 237.923 364.338 238.8 364.689C239.21 364.923 239.736 364.806 240.029 364.397C240.204 363.87 240.087 363.285 239.619 363.051Z" fill="#A239A0"/>
<path d="M337.306 130.163C337.599 130.28 336.955 133.205 337.248 133.907C337.657 134.784 338.593 135.311 339.529 135.428C340.816 135.662 341.928 135.077 342.981 134.433C344.034 133.79 346.549 131.567 347.31 134.024C347.485 134.55 346.9 135.837 347.076 136.539C347.602 138.879 349.825 138.762 351.405 137.534C351.99 137.066 352.341 136.481 352.809 135.954C353.394 134.55 354.271 134.258 355.383 135.077C355.383 135.428 355.441 135.779 355.558 136.071C356.143 136.949 356.436 137.534 357.606 137.475C358.717 137.417 358.717 135.662 357.606 135.72C357.664 135.72 356.377 133.088 355.675 132.795C354.856 132.444 353.92 132.737 353.16 133.205C352.633 133.497 352.224 133.965 351.814 134.375C350.937 135.252 350.995 136.539 349.591 135.662C348.246 134.843 349.357 133.556 348.421 132.386C346.9 130.455 344.326 131.508 342.688 132.561C341.752 133.146 339.412 135.252 338.827 132.152C338.769 131.742 339.12 131.099 339.12 130.689C339.12 129.753 338.944 129.227 338.125 128.817C337.189 128.115 336.312 129.636 337.306 130.163Z" fill="#A239A0"/>
<path d="M276.115 266.994C276.817 275.184 277.519 283.374 278.279 291.564C278.396 292.676 279.917 292.676 280.034 291.564C280.034 291.389 280.093 291.155 280.093 290.979C280.21 289.868 278.455 289.868 278.338 290.979C278.338 291.155 278.279 291.389 278.279 291.564C278.864 291.564 279.449 291.564 280.034 291.564C279.332 283.374 278.63 275.184 277.87 266.994C277.753 265.883 275.998 265.824 276.115 266.994Z" fill="#006644"/>
<path d="M277.471 267.638C279.928 267.111 284.198 266.351 286.07 268.398C287.767 270.212 287.357 273.78 287.591 276.237C288.001 281.151 288.41 286.065 288.82 290.921C288.937 292.032 290.692 292.032 290.575 290.921C289.99 283.901 289.931 276.53 288.761 269.568C287.884 264.128 281.098 265.122 277.003 265.941C275.891 266.175 276.359 267.872 277.471 267.638Z" fill="#006644"/>
<path d="M292.435 234.643C294.307 253.363 294.951 272.142 294.366 290.979C294.307 292.09 296.062 292.09 296.121 290.979C296.706 272.2 296.062 253.363 294.19 234.643C294.073 233.532 292.318 233.473 292.435 234.643Z" fill="#006644"/>
<path d="M294.542 234.643C296.94 234.994 299.865 234.994 302.088 235.813C305.072 236.866 304.604 242.248 304.896 244.998C305.423 250.321 305.774 255.645 306.125 260.968C306.768 272.025 307.002 283.081 307.236 294.138C307.236 295.249 308.991 295.249 308.991 294.138C308.699 281.385 308.406 268.573 307.529 255.82C307.119 249.853 306.827 243.828 305.891 237.919C305.072 232.888 299.046 233.532 295.01 232.888C293.898 232.83 293.43 234.468 294.542 234.643Z" fill="#006644"/>
<path d="M309.4 223.646C311.389 245.876 313.436 268.047 315.425 290.277C315.542 291.389 317.297 291.389 317.18 290.277C315.191 268.047 313.144 245.876 311.155 223.646C311.096 222.534 309.341 222.534 309.4 223.646Z" fill="#006644"/>
<path d="M310.518 224.523C313.326 223.996 316.192 223.821 319.059 224.113C321.457 224.347 323.154 224.815 323.271 227.389C323.329 228.267 323.329 229.203 323.329 230.08C323.505 234.468 323.68 238.855 323.914 243.243C324.675 260.032 325.552 276.763 326.43 293.553C326.488 294.664 328.243 294.664 328.185 293.553C327.249 275.418 326.313 257.341 325.494 239.206C325.318 235.404 325.143 231.66 325.026 227.857C324.967 226.161 324.967 224.464 323.388 223.353C321.925 222.358 319.644 222.3 317.947 222.241C315.315 222.066 312.682 222.3 310.05 222.826C308.938 223.06 309.406 224.757 310.518 224.523Z" fill="#006644"/>
<path d="M263.537 218.03C261.607 221.832 259.735 225.635 257.804 229.437C257.278 230.432 258.799 231.309 259.325 230.315C261.256 226.512 263.128 222.71 265.058 218.907C265.526 217.913 264.005 216.977 263.537 218.03Z" fill="#E5E5E5"/>
<path d="M263.776 219.785C264.595 223.178 266.408 226.161 269.099 228.384C269.977 229.086 271.205 227.858 270.328 227.156C267.871 225.108 266.233 222.476 265.472 219.375C265.18 218.205 263.483 218.673 263.776 219.785Z" fill="#E5E5E5"/>
<path d="M262.541 220.604C262.19 246.227 265.524 271.791 272.486 296.478C272.778 297.59 274.475 297.122 274.182 296.01C267.279 271.499 263.945 246.11 264.296 220.604C264.296 219.492 262.541 219.492 262.541 220.604Z" fill="#E5E5E5"/>
<path d="M274.599 297.999C288.288 296.712 302.036 296.01 315.783 295.951C328.595 295.893 342.459 295.366 354.276 301.158C355.271 301.626 356.148 300.163 355.154 299.637C343.688 294.021 330.584 294.138 318.065 294.196C303.557 294.196 289.049 294.898 274.599 296.244C273.488 296.361 273.488 298.116 274.599 297.999Z" fill="#E5E5E5"/>
<path d="M347.07 295.133C350.229 297.063 353.271 299.169 356.079 301.509C356.138 301.041 356.196 300.573 356.255 300.105C353.856 301.919 351.516 303.732 349.118 305.546C348.24 306.248 349.118 307.769 349.995 307.067C352.394 305.253 354.734 303.44 357.132 301.626C357.542 301.334 357.776 300.632 357.308 300.222C354.324 297.765 351.224 295.542 347.948 293.612C346.953 293.085 346.076 294.548 347.07 295.133Z" fill="#E5E5E5"/>
<path d="M267.974 250.263C268.851 251.316 269.729 252.369 270.606 253.422C270.957 253.832 271.718 253.715 272.01 253.247C276.69 244.062 281.312 234.819 286.05 225.635C287.279 223.295 288.975 225.225 290.73 225.869C291.842 226.278 293.012 226.161 294.123 225.752C296.931 224.699 298.803 221.774 300.09 219.2C302.196 214.812 304.068 210.249 306.116 205.803C306.642 204.575 307.227 203.346 307.754 202.176C308.046 201.474 308.397 200.012 308.982 199.485C310.796 197.847 315.242 201.591 316.763 202.527C319.278 204.048 322.905 207.441 326.181 206.564C328.638 205.92 329.808 203.229 330.51 201.006C333.903 191.003 338.232 181.935 344.901 173.687C345.428 173.043 344.96 171.932 344.024 172.224C340.982 173.219 338.232 174.74 335.717 176.67C334.898 177.314 335.951 178.484 336.77 178.074C339.051 176.963 341.391 175.793 343.673 174.681C343.263 174.506 342.795 174.33 342.386 174.155C343.088 177.665 343.79 181.175 344.433 184.685C344.667 185.796 346.364 185.328 346.13 184.217C345.428 180.707 344.726 177.197 344.082 173.687C343.965 173.102 343.263 172.926 342.795 173.16C340.514 174.272 338.174 175.442 335.892 176.553C336.243 177.021 336.594 177.489 336.945 177.957C339.227 176.144 341.684 174.857 344.492 173.921C344.199 173.453 343.907 172.926 343.614 172.458C338.525 178.776 334.313 185.738 331.271 193.284C330.452 195.273 329.75 197.321 329.106 199.368C328.58 201.006 327.761 204.516 325.596 204.867C323.139 205.277 319.98 202.469 317.991 201.24C316.002 200.012 314.072 198.666 312.024 197.555C309.684 196.326 308.222 196.794 307.052 199.076C304.829 203.463 303.015 208.143 300.968 212.648C299.447 216.041 297.516 222.885 293.363 223.997C290.555 224.757 287.981 220.545 285.465 223.002C284.003 224.406 283.242 227.039 282.365 228.794C281.019 231.426 279.732 234 278.387 236.633C275.754 241.839 273.063 247.046 270.431 252.252C270.899 252.194 271.367 252.135 271.835 252.077C270.957 251.024 270.08 249.971 269.202 248.918C268.442 248.157 267.213 249.386 267.974 250.263Z" fill="#E5E5E5"/>
<path d="M522.63 104.891C516.897 101.732 514.439 93.717 518.066 88.0425C521.752 82.251 530.702 81.198 535.909 85.4685C541.232 89.9145 541.291 99.0405 536.201 103.662C530.936 108.518 522.103 107.231 517.774 101.849C517.072 100.971 515.844 102.2 516.546 103.077C520.582 107.991 527.777 109.746 533.686 107.289C539.419 104.891 542.403 98.6895 541.642 92.664C540.882 86.463 536.26 81.8415 530.059 81.1395C524.15 80.4375 517.833 83.3625 515.61 89.0955C513.153 95.4135 515.902 103.077 521.811 106.295C522.747 106.938 523.624 105.417 522.63 104.891Z" fill="#006644"/>
<path d="M548.02 115.654C545.563 111.091 551.881 106.06 555.04 110.974C557.848 115.303 550.945 118.579 548.722 114.543C548.195 113.548 546.674 114.426 547.201 115.42C548.605 117.994 551.881 118.696 554.455 117.585C557.497 116.298 558.257 112.788 556.561 110.097C554.806 107.289 551.179 106.177 548.371 108.166C545.738 110.038 544.919 113.724 546.44 116.59C547.084 117.526 548.605 116.649 548.02 115.654Z" fill="#006644"/>
<path d="M517.252 558.149C563.292 558.149 609.273 558.149 655.312 558.149C656.424 558.149 656.424 556.394 655.312 556.394C609.273 556.394 563.292 556.394 517.252 556.394C516.083 556.394 516.083 558.149 517.252 558.149Z" fill="#E5E5E5"/>
<path d="M684.209 558.149C692.984 558.149 701.759 558.149 710.534 558.149C711.645 558.149 711.645 556.394 710.534 556.394C701.759 556.394 692.984 556.394 684.209 556.394C683.097 556.394 683.097 558.149 684.209 558.149Z" fill="#E5E5E5"/>
<path d="M384.623 584.708C415.218 584.708 445.872 584.708 476.468 584.708C477.579 584.708 477.579 582.953 476.468 582.953C445.872 582.953 415.218 582.953 384.623 582.953C383.511 582.953 383.511 584.708 384.623 584.708Z" fill="#E5E5E5"/>
<path d="M475.302 577.687C501.803 577.687 528.362 577.687 554.862 577.687C555.974 577.687 555.974 575.932 554.862 575.932C528.362 575.932 501.803 575.932 475.302 575.932C474.191 575.932 474.191 577.687 475.302 577.687Z" fill="#E5E5E5"/>
<path d="M261.491 572.891C269.506 572.891 277.462 572.891 285.476 572.891C287.173 572.891 287.173 570.258 285.476 570.258C277.462 570.258 269.506 570.258 261.491 570.258C259.795 570.258 259.795 572.891 261.491 572.891Z" fill="#E5E5E5"/>
<path d="M293.655 572.891C296.405 572.891 299.096 572.891 301.845 572.891C303.542 572.891 303.542 570.258 301.845 570.258C299.096 570.258 296.405 570.258 293.655 570.258C291.959 570.258 291.959 572.891 293.655 572.891Z" fill="#E5E5E5"/>
<path d="M586.235 378.144C566.872 401.603 547.567 425.003 528.203 448.461C558.565 456.008 588.926 463.554 619.288 471.101C620.282 458.523 620.516 432.842 606.535 405.99C600.217 393.822 592.67 384.696 586.235 378.144Z" fill="#A239A0"/>
<path d="M522.523 453.199C553.177 460.921 583.89 468.585 614.544 476.307C614.193 481.221 613.198 488.065 610.273 495.67C606.822 504.796 601.966 511.407 598.456 515.502C573.184 494.734 547.854 473.967 522.523 453.199Z" fill="#006644"/>
<path d="M518.02 557.271C574.334 557.271 619.986 510.467 619.986 452.731C619.986 394.996 574.334 348.192 518.02 348.192C461.706 348.192 416.055 394.996 416.055 452.731C416.055 510.467 461.706 557.271 518.02 557.271Z" stroke="#E5E5E5" stroke-width="1.755" stroke-miterlimit="10"/>
<path d="M519.302 450.508C519.536 450.274 520.121 450.45 520.238 450.742C520.297 450.508 520.297 450.274 520.355 450.04C520.297 450.157 520.121 450.099 520.063 450.04C519.595 449.865 519.127 450.216 519.01 450.625C518.893 451.093 519.185 451.561 519.595 451.678C520.297 451.912 521.116 451.737 521.584 451.21C522.169 450.625 521.993 449.806 521.467 449.28C520.531 448.344 519.068 448.285 518.132 449.163C517.196 449.982 518.425 451.269 519.302 450.508Z" fill="#E5E5E5"/>
<path d="M580.961 371.182C562.299 398.326 542.234 424.534 520.881 449.631C520.179 450.508 521.408 451.737 522.11 450.859C543.579 425.646 563.703 399.379 582.482 372.06C583.125 371.124 581.604 370.246 580.961 371.182Z" fill="#E5E5E5"/>
<path d="M520.011 451.62C553.005 457.528 585.765 464.49 618.291 472.563C619.402 472.855 619.87 471.159 618.759 470.866C586.233 462.852 553.473 455.832 520.479 449.923C519.367 449.748 518.899 451.444 520.011 451.62Z" fill="#E5E5E5"/>
<path d="M519.888 451.327C544.867 474.201 570.607 496.197 597.108 517.374C597.985 518.076 599.214 516.847 598.336 516.145C571.894 495.027 546.096 472.972 521.116 450.099C520.297 449.338 519.01 450.567 519.888 451.327Z" fill="#E5E5E5"/>
</svg>
