<svg width="1000" height="1287" viewBox="0 0 1000 1287" fill="none" xmlns="http://www.w3.org/2000/svg">
<path d="M908 502H0V1287H908V502Z" fill="white"/>
<path d="M907.931 501.383H0.329102V559.802H907.931V501.383Z" fill="#455A64"/>
<path d="M42.3152 535.205C42.2251 536.857 41.6532 538.445 40.6702 539.775C39.6872 541.105 38.3362 542.118 36.784 542.688C35.2318 543.259 33.5465 543.362 31.9363 542.985C30.3261 542.608 28.8616 541.768 27.7236 540.568C26.5857 539.368 25.8243 537.861 25.5334 536.233C25.2425 534.605 25.4348 532.928 26.0867 531.408C26.7386 529.888 27.8215 528.593 29.2015 527.682C30.5816 526.771 32.1983 526.284 33.852 526.281C36.155 526.35 38.3374 527.327 39.9229 528.999C41.5084 530.671 42.3684 532.902 42.3152 535.205V535.205Z" fill="#263238"/>
<path d="M72.9412 535.205C72.8511 536.857 72.2792 538.445 71.2962 539.775C70.3132 541.105 68.9621 542.118 67.41 542.688C65.8578 543.259 64.1725 543.362 62.5623 542.985C60.9521 542.608 59.4876 541.768 58.3496 540.568C57.2117 539.368 56.4502 537.861 56.1593 536.233C55.8684 534.605 56.0608 532.928 56.7127 531.408C57.3646 529.888 58.4475 528.593 59.8275 527.682C61.2075 526.771 62.8243 526.284 64.478 526.281C66.781 526.35 68.9634 527.327 70.5489 528.999C72.1344 530.671 72.9944 532.902 72.9412 535.205V535.205Z" fill="#263238"/>
<path d="M101.097 528.883C102.685 530.599 103.567 532.851 103.567 535.189C103.567 537.527 102.685 539.779 101.097 541.495C100.335 542.321 99.411 542.979 98.3824 543.429C97.3537 543.88 96.243 544.112 95.1201 544.112C93.9971 544.112 92.8863 543.88 91.8577 543.429C90.829 542.979 89.9048 542.321 89.1431 541.495C87.541 539.786 86.6494 537.532 86.6494 535.189C86.6494 532.847 87.541 530.592 89.1431 528.883C89.9099 528.067 90.8359 527.416 91.8638 526.971C92.8918 526.526 94 526.297 95.1201 526.297C96.2401 526.297 97.3483 526.526 98.3762 526.971C99.4042 527.416 100.33 528.067 101.097 528.883Z" fill="#263238"/>
<path d="M907.177 1286.6C907.177 1282.49 906.947 973.393 906.651 501.671L907.177 502.159H0.427759L1.05291 501.579C1.05291 787.899 1.05291 1056.9 1.05291 1286.51L0.526465 1286.02L907.375 1286.51L0.526465 1287H0V1286.51C0 1056.9 0 787.899 0 501.579V501H0.723877H907.473H908V501.488C907.474 973.393 907.177 1282.49 907.177 1286.6Z" fill="#263238"/>
<path d="M668.525 916.217C668.525 916.217 668.525 917.567 668.525 920.201C668.525 922.836 668.525 926.787 668.13 931.76C666.989 946.43 664.284 960.935 660.062 975.031C658.515 979.542 657.23 984.416 655.09 989.257C654.102 991.727 653.114 994.229 652.06 996.798C651.006 999.367 649.656 1001.84 648.438 1004.44C646.067 1009.71 642.938 1014.84 639.843 1020.28C638.295 1022.98 636.385 1025.55 634.64 1028.25C632.895 1030.95 631.05 1033.71 628.943 1036.31C620.418 1047.74 610.667 1058.2 599.865 1067.5C587.884 1077.92 574.72 1086.89 560.645 1094.24L561.007 1093.65C560.579 1110.57 560.118 1128.52 559.624 1147.13V1147.85H558.899H384.005H383.181V1146.99C383.181 1130.99 383.181 1114.06 383.181 1096.68L383.675 1097.43C377.814 1094.34 371.326 1091.34 365.3 1087.55C336.219 1070.05 312.093 1045.4 295.213 1015.95C278.332 986.497 269.256 953.222 268.846 919.279C268.353 889.763 274.462 860.511 286.727 833.659C297.413 810.26 312.494 789.131 331.151 771.42C339.281 763.742 348.014 756.728 357.265 750.444C365.578 744.938 374.26 740.009 383.247 735.691C397.704 728.901 412.914 723.85 428.56 720.641C438.449 718.708 448.463 717.476 458.527 716.953H466.397H469.064C469.064 716.953 468.175 716.953 466.397 717.118L458.56 717.414C448.525 718.066 438.546 719.397 428.691 721.399C413.139 724.71 398.03 729.839 383.675 736.679C374.745 740.985 366.129 745.915 357.891 751.432C348.709 757.711 340.053 764.727 332.007 772.408C313.525 790.048 298.591 811.063 288.012 834.318C275.883 861.041 269.875 890.135 270.427 919.477C270.879 953.134 279.911 986.119 296.669 1015.31C313.426 1044.5 337.354 1068.94 366.189 1086.3C372.149 1090.19 378.604 1093.19 384.4 1096.18L384.894 1096.45V1147.09L384.037 1146.24H558.932L558.175 1146.96C558.702 1128.36 559.196 1110.44 559.69 1093.52V1093.09L560.052 1092.92C574.048 1085.69 587.155 1076.85 599.108 1066.58C609.88 1057.37 619.599 1047 628.087 1035.66C630.194 1033.09 632.038 1030.35 633.817 1027.69C635.595 1025.02 637.472 1022.45 639.02 1019.75C642.115 1014.35 645.243 1009.28 647.614 1004.04C648.866 1001.44 650.216 998.971 651.27 996.436C652.324 993.9 653.344 991.397 654.332 988.96C656.506 984.185 657.79 979.312 659.371 974.833C663.678 960.796 666.514 946.35 667.834 931.727C668.196 926.656 668.262 922.77 668.427 920.168C668.591 917.567 668.525 916.217 668.525 916.217Z" fill="#252B34"/>
<path d="M495.607 1146.27C495.629 1145.44 495.695 1144.62 495.805 1143.8C496.002 1142.08 496.266 1139.68 496.595 1136.62C497.385 1130.3 498.505 1120.98 500.283 1108.99C502.062 1097 504.4 1082.41 508.22 1065.62C512.377 1046.56 518.411 1027.97 526.233 1010.1C530.81 999.667 536.321 989.67 542.698 980.231C546.117 975.046 550.812 970.827 556.331 967.98C559.307 966.56 562.58 965.876 565.875 965.985C569.17 966.094 572.391 966.993 575.266 968.606C578.324 970.316 580.592 973.151 581.589 976.509C582.626 979.904 582.332 983.566 580.766 986.751C577.42 992.885 571.935 997.574 565.354 999.923C551.678 1004.46 536.764 1003.41 523.862 996.992C517.154 993.64 511.197 988.96 506.352 983.238C501.506 977.515 497.873 970.868 495.673 963.699C493.125 956.277 492.726 948.287 494.52 940.648C495.453 936.59 497.772 932.984 501.079 930.453C504.385 927.922 508.471 926.625 512.632 926.784C514.781 927.006 516.838 927.765 518.617 928.991C520.395 930.216 521.836 931.87 522.808 933.798C524.767 937.59 525.326 941.951 524.389 946.114C522.479 954.446 516.485 960.67 510.36 965.873C503.991 971.26 496.559 975.246 488.548 977.573C480.537 979.899 472.126 980.513 463.862 979.374C455.581 978.054 447.745 974.746 441.023 969.733C434.301 964.72 428.895 958.153 425.267 950.593C423.385 946.876 422.293 942.809 422.061 938.649C421.829 934.489 422.461 930.326 423.917 926.422C424.684 924.423 425.859 922.606 427.367 921.086C428.875 919.567 430.684 918.378 432.677 917.596C434.688 916.903 436.824 916.648 438.943 916.847C441.061 917.045 443.112 917.694 444.96 918.749C448.621 920.71 451.57 923.775 453.39 927.509C455.135 931.107 456.164 935.01 456.42 939.001C456.963 946.724 455.933 954.477 453.39 961.789C448.62 976.117 438.561 988.084 425.267 995.247C412.653 1002.06 398.031 1004.17 384.005 1001.21C377.136 1000.08 370.829 996.726 366.058 991.657C363.728 989.055 362.349 985.741 362.145 982.254C361.942 978.767 362.927 975.314 364.938 972.459C366.066 971.171 367.439 970.121 368.977 969.369C370.515 968.617 372.187 968.179 373.895 968.079C377.185 967.853 380.476 968.489 383.445 969.923C388.882 973.051 393.158 977.858 395.63 983.622C400.668 994.424 404.686 1004.96 408.802 1015.01C424.74 1055.21 436.069 1088.34 443.643 1111.29C447.43 1122.79 450.229 1131.74 452.106 1137.84L454.18 1144.79C454.641 1146.33 454.839 1147.16 454.839 1147.16C454.502 1146.4 454.206 1145.63 453.95 1144.85L451.645 1138L442.753 1111.66C434.883 1088.77 423.324 1055.67 407.188 1015.66C403.072 1005.78 398.956 995.082 394.016 984.511C391.711 979.136 387.724 974.652 382.655 971.734C377.551 969.199 370.405 969.232 366.585 973.776C364.918 976.258 364.126 979.224 364.335 982.207C364.543 985.189 365.741 988.016 367.737 990.241C372.235 994.926 378.148 998.004 384.565 999.001C397.999 1001.88 412.018 999.92 424.148 993.469C436.895 986.524 446.533 975.003 451.118 961.229C453.536 954.22 454.51 946.793 453.983 939.397C453.456 932.086 450.426 924.479 443.774 921.054C442.218 920.13 440.475 919.566 438.672 919.404C436.869 919.242 435.053 919.486 433.357 920.117C431.661 920.749 430.128 921.753 428.87 923.055C427.613 924.356 426.663 925.923 426.091 927.64C424.769 931.238 424.207 935.07 424.439 938.896C424.671 942.721 425.693 946.457 427.441 949.868C430.905 957.053 436.057 963.292 442.457 968.051C448.857 972.811 456.314 975.951 464.191 977.201C472.11 978.282 480.168 977.689 487.843 975.459C495.518 973.23 502.639 969.414 508.746 964.259C514.641 959.188 520.305 953.162 521.919 945.785C522.756 942.192 522.277 938.418 520.569 935.148C519.788 933.566 518.622 932.206 517.178 931.193C515.733 930.18 514.057 929.547 512.303 929.353C508.712 929.162 505.182 930.339 502.424 932.646C499.632 934.96 497.64 938.094 496.727 941.603C495.087 948.79 495.474 956.291 497.846 963.271C499.939 970.143 503.405 976.517 508.036 982.008C512.666 987.499 518.364 991.992 524.784 995.214C537.118 1001.38 551.385 1002.45 564.498 998.178C570.592 996.018 575.678 991.693 578.79 986.026C580.154 983.342 580.436 980.238 579.578 977.352C578.72 974.466 576.788 972.019 574.18 970.516C571.584 969.063 568.679 968.251 565.706 968.148C562.733 968.045 559.779 968.653 557.089 969.923C551.871 972.64 547.42 976.627 544.147 981.515C537.795 990.831 532.285 1000.69 527.682 1010.99C519.777 1028.72 513.633 1047.18 509.339 1066.11C505.42 1082.81 502.918 1097.36 501.008 1109.32C499.098 1121.27 497.715 1130.43 496.891 1136.85C496.463 1139.91 496.101 1142.28 495.838 1143.99C495.574 1145.71 495.607 1146.27 495.607 1146.27Z" fill="#252B34"/>
<path d="M550.14 1179.46C551.409 1179.34 552.63 1178.91 553.696 1178.21C554.909 1177.32 555.781 1176.04 556.166 1174.59C556.356 1172.49 556.356 1170.37 556.166 1168.27C556.166 1167.08 556.166 1165.8 556.166 1164.48C556.288 1163.14 556.037 1161.8 555.442 1160.59C554.744 1159.34 553.641 1158.37 552.313 1157.83C550.785 1157.39 549.184 1157.25 547.604 1157.43H524.553L390.459 1157.7C389.034 1157.7 387.663 1158.24 386.619 1159.21C385.575 1160.18 384.936 1161.51 384.828 1162.93C384.828 1166.23 384.828 1169.35 384.828 1172.52C384.751 1173.91 385.187 1175.28 386.055 1176.37C386.923 1177.47 388.162 1178.2 389.537 1178.44C392.402 1178.44 395.728 1178.44 398.758 1178.44H434.356L494.619 1178.64L535.288 1178.9L546.32 1179.07H549.185H550.173H549.185H546.32L535.288 1179.23L494.619 1179.5L434.356 1179.66H398.758C395.464 1179.66 392.665 1179.66 389.274 1179.66C387.504 1179.35 385.907 1178.4 384.776 1177.01C383.646 1175.61 383.056 1173.85 383.115 1172.05C383.115 1168.76 383.115 1165.47 383.115 1162.37C383.256 1160.52 384.089 1158.78 385.45 1157.51C386.81 1156.25 388.599 1155.53 390.459 1155.52L524.553 1155.79H547.604C549.304 1155.65 551.015 1155.84 552.642 1156.35C554.168 1157 555.415 1158.16 556.166 1159.64C556.808 1160.96 557.07 1162.43 556.924 1163.89C556.924 1165.21 556.924 1166.49 556.924 1167.67C556.999 1169.88 556.888 1172.08 556.594 1174.26C556.16 1175.83 555.163 1177.17 553.795 1178.05C552.974 1178.59 552.038 1178.92 551.062 1179.04C550.783 1179.23 550.47 1179.38 550.14 1179.46V1179.46Z" fill="#252B34"/>
<path d="M545.365 1189.3C546.471 1189.19 547.59 1189.29 548.658 1189.6C551.28 1190.32 553.563 1191.94 555.101 1194.19C556.638 1196.43 557.331 1199.15 557.055 1201.85C556.77 1204.61 555.509 1207.18 553.499 1209.1C552.338 1210.2 550.967 1211.06 549.469 1211.63C547.97 1212.19 546.373 1212.45 544.772 1212.39H534.3L534.761 1212.09L519.975 1241.3L515.727 1249.63L513.521 1253.95C512.283 1256.29 510.45 1258.26 508.206 1259.66C505.963 1261.07 503.389 1261.86 500.744 1261.95H490.008C475.716 1261.95 460.7 1262.11 444.663 1261.95C442.55 1261.72 440.508 1261.05 438.666 1259.99C436.824 1258.93 435.222 1257.5 433.96 1255.79C432.847 1254.03 431.825 1252.22 430.898 1250.36L428.099 1244.89L416.408 1222.63L410.975 1212.26L411.732 1212.72H396.057C394.223 1212.79 392.395 1212.47 390.689 1211.8C388.17 1210.78 386.066 1208.94 384.718 1206.58C383.37 1204.23 382.857 1201.48 383.26 1198.79C383.663 1196.11 384.96 1193.63 386.942 1191.78C388.923 1189.92 391.473 1188.78 394.18 1188.55C397.473 1188.55 400.766 1188.55 404.059 1188.55H422.665L486.847 1188.71L529.525 1188.91L541.182 1189.07H544.212H545.233C544.894 1189.12 544.551 1189.12 544.212 1189.07H541.182L529.525 1189.24L486.715 1189.9L422.533 1190.09H403.927C400.634 1190.09 397.341 1190.09 394.378 1190.09C392.859 1190.23 391.388 1190.69 390.069 1191.45C388.749 1192.22 387.612 1193.26 386.738 1194.51C385.835 1195.79 385.233 1197.25 384.978 1198.8C384.722 1200.34 384.82 1201.93 385.264 1203.43C385.707 1204.93 386.485 1206.31 387.539 1207.47C388.592 1208.63 389.895 1209.53 391.348 1210.12C392.854 1210.72 394.471 1210.99 396.09 1210.91H412.292L412.522 1211.37L417.989 1221.74L429.679 1244L432.544 1249.47C433.409 1251.26 434.376 1252.99 435.442 1254.67C436.56 1256.2 437.982 1257.48 439.62 1258.44C441.259 1259.39 443.076 1259.99 444.959 1260.2C460.634 1260.37 475.947 1260.2 490.14 1260.2H500.612C503.847 1260.11 506.942 1258.86 509.339 1256.68C511.512 1254.38 513.243 1251.7 514.443 1248.78C515.892 1245.94 517.308 1243.18 518.724 1240.48C524.289 1229.68 529.327 1219.93 533.773 1211.37V1211.1H534.102C541.314 1210.74 548.592 1212.59 552.741 1208.24C554.489 1206.62 555.66 1204.48 556.076 1202.14C556.493 1199.8 556.131 1197.38 555.046 1195.26C554.373 1193.94 553.444 1192.77 552.313 1191.81C551.183 1190.85 549.873 1190.12 548.46 1189.67C547.435 1189.49 546.402 1189.37 545.365 1189.3V1189.3Z" fill="#252B34"/>
<path d="M564.432 1092.16H555.244V1101.35H564.432V1092.16Z" fill="#252B34"/>
<path d="M563.477 1141.03H554.289V1150.22H563.477V1141.03Z" fill="#252B34"/>
<path d="M388.549 1141.03H379.361V1150.22H388.549V1141.03Z" fill="#252B34"/>
<path d="M388.549 1092.16H379.361V1101.35H388.549V1092.16Z" fill="#252B34"/>
<path d="M473.576 712.078H464.389V721.266H473.576V712.078Z" fill="#252B34"/>
<path d="M673.103 911.641H663.915V920.828H673.103V911.641Z" fill="#252B34"/>
<path d="M544.015 715.434C544.015 715.895 509.141 716.29 466.166 716.29C423.192 716.29 388.318 715.895 388.318 715.434C388.318 714.973 423.159 714.578 466.166 714.578C509.174 714.578 544.015 714.94 544.015 715.434Z" fill="#252B34"/>
<path d="M545.76 715.436C545.76 715.977 545.6 716.505 545.3 716.955C544.999 717.404 544.573 717.755 544.073 717.962C543.574 718.168 543.024 718.223 542.494 718.117C541.964 718.012 541.477 717.751 541.094 717.369C540.712 716.987 540.452 716.5 540.346 715.97C540.241 715.439 540.295 714.89 540.502 714.39C540.709 713.891 541.059 713.464 541.509 713.164C541.958 712.863 542.487 712.703 543.027 712.703C543.752 712.703 544.447 712.991 544.96 713.504C545.472 714.016 545.76 714.711 545.76 715.436V715.436Z" fill="#252B34"/>
<path d="M388.318 718.17C389.828 718.17 391.051 716.946 391.051 715.436C391.051 713.927 389.828 712.703 388.318 712.703C386.809 712.703 385.585 713.927 385.585 715.436C385.585 716.946 386.809 718.17 388.318 718.17Z" fill="#252B34"/>
<path d="M674.815 808.169C674.618 808.63 629.074 788.213 573.125 762.593C517.176 736.973 471.962 715.864 472.16 715.436C472.357 715.008 517.868 735.392 573.85 761.012C629.832 786.632 675.013 807.741 674.815 808.169Z" fill="#252B34"/>
<path d="M279.252 388.926C279.252 389.256 274.345 387.675 266.343 386.588C261.67 385.987 256.959 385.734 252.249 385.831C246.471 386.002 240.72 386.675 235.059 387.84C229.432 389.117 223.924 390.868 218.594 393.076C214.244 394.937 210.049 397.139 206.047 399.662C199.197 403.91 195.443 407.335 195.246 407.071C195.048 406.808 196.036 406.083 197.715 404.535C198.572 403.778 199.625 402.823 201.009 401.868C202.392 400.913 203.742 399.695 205.487 398.575C209.465 395.889 213.675 393.564 218.067 391.627C223.477 389.318 229.088 387.51 234.828 386.226C240.594 385.032 246.46 384.381 252.347 384.283C257.147 384.251 261.94 384.636 266.672 385.436C268.49 385.718 270.293 386.092 272.073 386.555C273.424 386.844 274.754 387.218 276.058 387.675C277.165 387.973 278.237 388.392 279.252 388.926V388.926Z" fill="#FAFAFA"/>
<path d="M696.384 299.949L604.606 269.455C540.984 246.766 505.485 252.595 444.695 281.969C440.743 283.879 433.96 286.843 427.505 289.708L320.25 337.062L243.555 370.552C191.886 393.077 164.817 444.482 162.348 500.793L415.025 501.024L747.855 500.859L805.681 398.774C791.62 327.677 719.963 311.08 696.384 299.949Z" fill="#252B34"/>
<path d="M763.893 333.344L973.2 525.527C981.895 533.524 988.782 543.286 993.4 554.159C998.018 565.033 1000.26 576.767 999.976 588.577C999.693 600.387 996.89 612 991.755 622.639C986.62 633.279 979.273 642.698 970.203 650.268L861.005 741.256L784.013 697.656L874.178 581.015L747.855 500.862L763.893 333.344Z" fill="#252B34"/>
<path d="M489.184 499.537C489.148 499.231 489.148 498.921 489.184 498.615C489.184 497.924 489.184 497.067 488.954 495.981C488.954 493.478 488.592 490.053 488.328 485.706C487.834 476.65 487.143 463.807 486.286 447.968L486.78 448.56C450.122 440.355 413.933 430.176 378.373 418.067C356.836 410.921 336.88 402.425 318.11 396.925C309.244 394.255 300.149 392.414 290.942 391.426C282.924 390.594 274.833 390.804 266.87 392.051C255.285 393.729 244.298 398.255 234.894 405.224C232.395 407.182 230.05 409.329 227.88 411.645L226.233 413.489C225.838 413.917 225.64 414.115 225.607 414.082C228.077 410.531 231.063 407.367 234.466 404.697C243.847 397.411 254.932 392.639 266.672 390.833C274.732 389.47 282.938 389.182 291.074 389.977C300.378 390.906 309.574 392.715 318.538 395.377C337.506 400.844 357.429 409.274 378.933 416.42C420.261 430.514 458.658 440.723 487.044 447.309H487.505V447.968C488.131 463.807 488.625 476.683 488.987 485.739C488.987 490.086 489.217 493.544 489.283 496.013V498.681C489.283 498.969 489.25 499.256 489.184 499.537V499.537Z" fill="#263238"/>
<path d="M444.761 437.467C444.3 437.467 444.465 421.463 445.189 401.738C445.914 382.012 446.836 366.008 447.297 366.008C447.758 366.008 447.593 382.045 446.902 401.771C446.21 421.496 445.255 437.5 444.761 437.467Z" fill="#263238"/>
<path d="M746.868 502.342C746.706 500.997 746.706 499.637 746.868 498.292C746.868 495.361 747.131 491.706 747.296 487.359C747.625 478.138 747.823 465.394 747.921 451.135C748.02 436.876 748.284 424.264 748.745 414.911C748.975 410.301 749.206 406.547 749.436 403.978C749.478 402.625 749.654 401.279 749.963 399.961C750.17 401.301 750.225 402.659 750.128 404.011C750.128 406.942 750.128 410.598 749.963 414.944C749.963 424.56 749.766 437.14 749.634 451.168C749.502 465.197 749.14 478.072 748.481 487.392C748.185 492.002 747.856 495.756 747.526 498.325C747.461 499.685 747.24 501.033 746.868 502.342V502.342Z" fill="#263238"/>
<path d="M593.378 339.008C591.255 340.736 588.972 342.257 586.561 343.552C582.873 345.989 580.172 348.459 579.81 348.13C579.448 347.8 581.72 344.837 585.639 342.103C587.838 340.298 590.541 339.217 593.378 339.008V339.008Z" fill="#263238"/>
<path d="M603.29 368.938C602.954 365.716 603.695 362.473 605.398 359.717C607.834 354.942 611.325 352.209 611.621 352.571C611.918 352.933 609.185 355.864 606.945 360.507C604.706 365.151 603.784 368.938 603.29 368.938Z" fill="#263238"/>
<path d="M636.912 374.043C635.347 368.606 635.684 362.798 637.867 357.578C638.265 360.308 638.265 363.081 637.867 365.811C637.946 368.587 637.624 371.359 636.912 374.043Z" fill="#263238"/>
<path d="M672.51 368.943C671.421 365.911 670.54 362.808 669.875 359.656C668.692 356.667 667.724 353.596 666.978 350.469C669.262 352.894 670.834 355.902 671.522 359.162C672.764 362.265 673.106 365.655 672.51 368.943V368.943Z" fill="#263238"/>
<path d="M695.364 344.31C694.903 344.507 693.289 341.741 690.918 338.646C688.547 335.55 686.341 333.245 686.637 332.85C686.934 332.455 689.93 334.299 692.301 337.592C694.672 340.885 695.792 344.145 695.364 344.31Z" fill="#263238"/>
<path d="M710.412 324.481C709.984 324.745 707.515 321.188 703.168 318.191C698.821 315.195 694.671 314.075 694.77 313.581C698.193 313.511 701.527 314.68 704.156 316.874C707.112 318.546 709.342 321.257 710.412 324.481V324.481Z" fill="#263238"/>
<path d="M580.798 316.252C580.798 316.746 577.505 317.405 574.212 319.249C570.919 321.093 568.252 323.267 567.889 322.937C567.527 322.608 569.536 319.644 573.422 317.701C575.594 316.265 578.245 315.744 580.798 316.252Z" fill="#263238"/>
<path d="M577.142 295.798C576.879 296.193 574.343 294.975 571.017 294.382C567.691 293.789 564.859 294.086 564.76 293.592C564.661 293.098 567.559 292.044 571.346 292.703C575.133 293.361 577.439 295.436 577.142 295.798Z" fill="#263238"/>
<path d="M488.23 486.271C484.282 487.112 480.237 487.4 476.21 487.128C472.182 487.383 468.137 487.084 464.19 486.238C468.138 485.395 472.183 485.107 476.21 485.382C480.238 485.13 484.282 485.429 488.23 486.271V486.271Z" fill="#263238"/>
<path d="M487.538 469.775C483.824 470.762 479.986 471.205 476.144 471.092C472.325 471.525 468.461 471.381 464.685 470.664C472.218 469.249 479.918 468.95 487.538 469.775V469.775Z" fill="#263238"/>
<path d="M486.716 455.746C482.85 456.462 478.9 456.607 474.992 456.174C471.065 456.306 467.139 455.874 463.335 454.89C467.201 454.174 471.151 454.03 475.058 454.462C478.986 454.33 482.911 454.763 486.716 455.746V455.746Z" fill="#263238"/>
<path d="M931.707 592.867C931.476 593.065 929.072 590.529 924.429 587.335C921.717 585.501 918.852 583.904 915.867 582.56C912.198 580.97 908.382 579.746 904.473 578.905C900.547 578.127 896.555 577.73 892.552 577.719C889.237 577.763 885.931 578.093 882.673 578.707C877.174 579.794 873.913 581.177 873.815 580.88C873.716 580.584 874.539 580.354 875.988 579.695C878.049 578.753 880.201 578.025 882.41 577.521C885.646 576.723 888.957 576.259 892.289 576.138C896.422 576.048 900.552 576.413 904.605 577.225C908.637 578.087 912.559 579.401 916.295 581.144C919.34 582.581 922.231 584.325 924.923 586.347C926.736 587.707 928.422 589.228 929.961 590.891C931.279 592.11 931.806 592.867 931.707 592.867Z" fill="#263238"/>
<path d="M862.125 717.211C860.3 720.544 858.09 723.65 855.538 726.464C853.399 729.618 850.877 732.494 848.03 735.026C849.507 731.487 851.591 728.233 854.188 725.411C856.32 722.223 859.008 719.445 862.125 717.211Z" fill="#263238"/>
<path d="M840.423 700.125C836.131 707.995 830.504 715.059 823.793 721.003C826.053 717.161 828.689 713.554 831.663 710.235C834.219 706.566 837.155 703.177 840.423 700.125V700.125Z" fill="#263238"/>
<path d="M820.961 686.258C818.283 690.257 815.144 693.926 811.609 697.191C808.469 700.883 804.91 704.199 801.005 707.07C803.686 703.064 806.825 699.384 810.357 696.104C813.502 692.425 817.06 689.121 820.961 686.258V686.258Z" fill="#263238"/>
<g opacity="0.3">
<path d="M872.596 580.457C879.383 574.951 887.309 571.022 895.8 568.955C904.292 566.888 913.137 566.733 921.695 568.503C927.623 569.788 934.011 572.62 936.185 578.382C936.923 580.057 937.016 581.946 936.444 583.685C935.873 585.425 934.678 586.89 933.089 587.801C929.796 589.217 926.042 586.846 922.914 584.936C915.697 580.563 907.569 577.914 899.162 577.194C890.755 576.474 882.295 577.704 874.44 580.786L879.445 579.864" fill="black"/>
</g>
<g opacity="0.2">
<path d="M252.908 396.17C268.681 382.998 290.383 378.783 310.833 380.594C331.283 382.405 350.778 389.749 369.746 397.52C382.918 402.954 396.09 408.651 409.658 413.064C422.17 417.088 433.365 424.415 442.061 434.271L444.86 437.564C393.061 421.296 386.079 418.563 334.279 402.295C320.68 397.56 306.667 394.109 292.424 391.988C278.11 389.887 263.493 391.85 250.24 397.652" fill="black"/>
</g>
<path d="M725.199 312.133C725.199 312.133 725.199 312.397 725.034 312.924L724.376 315.196C723.52 318.089 722.486 320.926 721.28 323.692C716.994 333.99 711.128 343.556 703.893 352.045C693.191 364.782 679.405 374.566 663.849 380.464C644.704 387.789 623.667 388.542 604.047 382.605C584.496 376.283 567.919 363.054 557.417 345.393C552.875 337.742 549.762 329.328 548.229 320.563C546.944 312.941 546.833 305.168 547.9 297.512C549.358 286.409 553.383 275.8 559.656 266.524C561.885 263.095 564.529 259.954 567.527 257.172C567.386 257.408 567.22 257.629 567.033 257.831L565.518 259.642C564.678 260.58 563.897 261.57 563.18 262.605C562.106 263.979 561.106 265.408 560.183 266.886C554.217 276.185 550.424 286.71 549.086 297.677C548.115 305.213 548.304 312.854 549.645 320.333C551.202 328.906 554.292 337.127 558.767 344.603C569.154 361.818 585.428 374.687 604.574 380.827C623.827 386.654 644.464 385.971 663.289 378.884C678.641 373.116 692.289 363.567 702.971 351.123C710.218 342.773 716.188 333.396 720.687 323.297C722.268 319.74 723.388 316.711 723.98 314.932C724.31 314.043 724.606 313.319 724.804 312.726C724.924 312.521 725.056 312.323 725.199 312.133V312.133Z" fill="#FAFAFA"/>
<path d="M828.634 394.101C828.61 394.504 828.533 394.903 828.404 395.286C828.01 396.417 827.431 397.474 826.691 398.414C825.172 400.157 823.285 401.542 821.167 402.47C819.049 403.398 816.752 403.846 814.441 403.782C811.073 403.731 807.736 403.131 804.562 402.004C801.104 400.917 797.515 399.369 793.53 398.184C784.449 395.529 774.988 394.416 765.539 394.891C754.084 395.501 742.736 397.423 731.719 400.621C719.765 403.914 707.285 408.294 693.882 412.311C679.903 416.608 665.58 419.693 651.072 421.532C635.43 423.537 619.587 423.405 603.981 421.137C588.328 418.84 573.208 413.778 559.327 406.186C552.754 402.548 546.565 398.257 540.853 393.376C535.419 388.664 530.385 383.509 525.804 377.965C516.814 367.196 509.503 356.066 502.291 345.989C495.792 336.527 488.511 327.626 480.524 319.381C473.896 312.633 466.251 306.967 457.868 302.586C451.527 299.316 444.699 297.091 437.648 296C433.194 295.294 428.666 295.172 424.18 295.638C421.084 295.934 419.504 296.329 419.471 296.231C421 295.784 422.564 295.465 424.147 295.276C428.659 294.658 433.235 294.658 437.747 295.276C444.913 296.322 451.857 298.547 458.296 301.862C466.831 306.188 474.614 311.858 481.347 318.656C489.452 326.888 496.834 335.801 503.411 345.297C510.689 355.374 518.032 366.439 526.989 377.075C536.169 388.358 547.412 397.79 560.118 404.869C573.839 412.316 588.765 417.287 604.212 419.556C619.663 421.813 635.349 421.968 650.842 420.017C665.29 418.208 679.557 415.167 693.487 410.928C706.857 406.976 719.37 402.564 731.423 399.369C742.552 396.198 754.012 394.331 765.572 393.804C775.133 393.407 784.694 394.609 793.859 397.361C797.91 398.612 801.499 400.226 804.891 401.312C807.933 402.443 811.133 403.087 814.375 403.222C816.607 403.304 818.831 402.908 820.898 402.062C822.965 401.216 824.828 399.939 826.362 398.316C827.391 397.075 828.163 395.642 828.634 394.101V394.101Z" fill="#FAFAFA"/>
<path d="M443.707 408.916C443.218 409.011 442.715 409.011 442.225 408.916C440.81 408.882 439.4 408.728 438.01 408.455C432.848 407.426 427.951 405.353 423.619 402.363C417.203 397.957 411.543 392.541 406.858 386.326C401.391 379.542 396.188 371.507 389.668 364.032C383.526 356.991 376.149 351.132 367.901 346.743C361.164 343.172 353.958 340.567 346.496 339.005C339.554 337.746 332.507 337.161 325.453 337.259C325.932 337.102 326.431 337.013 326.935 336.996C327.89 336.996 329.306 336.699 331.15 336.666C336.369 336.471 341.593 336.858 346.726 337.819C363.873 340.966 379.456 349.807 390.952 362.912C397.538 370.519 402.774 378.587 408.109 385.371C412.657 391.494 418.109 396.89 424.278 401.375C428.458 404.361 433.161 406.539 438.142 407.797C441.665 408.719 443.707 408.752 443.707 408.916Z" fill="#FAFAFA"/>
<path d="M742.85 499.871C742.85 499.871 742.85 499.641 742.422 499.147L741.335 496.973C740.874 495.985 740.248 494.833 739.458 493.483C738.592 491.892 737.636 490.353 736.593 488.872C730.131 479.334 721.795 471.211 712.093 464.998C705.467 460.644 698.376 457.043 690.951 454.262C682.423 451.154 673.594 448.947 664.607 447.676C643.836 445.104 622.835 444.994 602.038 447.347C579.843 449.29 558.636 451.792 539.24 451.759C521.97 452.102 504.754 449.713 488.23 444.679C477.108 441.289 466.634 436.057 457.242 429.202C453.791 426.723 450.592 423.91 447.692 420.805C447.692 420.805 447.956 420.805 448.384 421.299L450.228 422.879C451.018 423.604 452.039 424.46 453.291 425.415C454.542 426.37 455.958 427.523 457.638 428.708C467.086 435.298 477.54 440.314 488.592 443.56C504.99 448.349 522.03 450.571 539.108 450.146C558.438 450.146 579.547 447.577 601.676 445.601C622.607 443.231 643.748 443.397 664.64 446.095C673.753 447.437 682.696 449.756 691.313 453.011C698.815 455.883 705.972 459.583 712.652 464.043C722.404 470.423 730.706 478.782 737.021 488.576C739.396 492.102 741.352 495.893 742.85 499.871V499.871Z" fill="#FAFAFA"/>
<path d="M876.318 438.095C876.318 438.49 868.744 439.05 857.021 442.607L852.476 444.056C850.863 444.582 849.183 445.274 847.635 445.933C844.342 447.151 840.819 448.929 837.196 450.642C821.588 458.696 807.871 469.977 796.955 483.737C794.551 487.03 792.147 489.994 790.369 493.056C789.414 494.604 788.426 496.02 787.603 497.469C786.78 498.918 786.022 500.301 785.298 501.651C779.568 512.453 777.526 519.862 777.131 519.73C777.489 517.974 777.973 516.246 778.58 514.56C779.181 512.552 779.907 510.583 780.753 508.665C781.774 506.083 782.928 503.554 784.211 501.091L786.45 496.81C787.241 495.296 788.229 493.847 789.183 492.299C791.215 489.017 793.414 485.84 795.77 482.782C806.667 468.686 820.602 457.228 836.538 449.259C839.999 447.525 843.55 445.975 847.174 444.615C848.887 443.99 850.467 443.298 852.114 442.804L856.757 441.421C859.422 440.64 862.126 440.003 864.858 439.511C866.897 439.04 868.965 438.71 871.049 438.523C872.789 438.221 874.552 438.078 876.318 438.095Z" fill="#FAFAFA"/>
<path d="M936.614 495.688C935.115 496.275 933.558 496.706 931.97 496.972C928.941 497.663 924.594 498.783 919.292 500.265C913.99 501.747 907.766 504.019 901.016 506.851C893.709 509.907 886.584 513.382 879.677 517.257C872.855 521.212 866.259 525.544 859.918 530.232C854.089 534.612 849.051 538.827 844.968 542.581C840.884 546.335 837.723 549.463 835.582 551.703C834.518 552.901 833.35 554.003 832.092 554.996C832.958 553.623 833.962 552.344 835.088 551.176C837.945 547.853 840.967 544.676 844.144 541.659C848.785 537.146 853.69 532.913 858.831 528.98C865.201 524.177 871.866 519.777 878.787 515.808C885.77 511.923 892.985 508.47 900.39 505.468C906.446 503.049 912.636 500.982 918.93 499.277C924.298 497.828 928.809 496.873 931.773 496.379C933.366 496.023 934.985 495.791 936.614 495.688Z" fill="#FAFAFA"/>
<path d="M998.952 608.507C997.392 609.368 995.761 610.095 994.078 610.68C992.169 611.491 990.211 612.184 988.216 612.755C985.603 613.628 982.942 614.354 980.247 614.928L975.538 615.949C973.892 616.311 972.245 616.476 970.401 616.739C966.59 617.28 962.754 617.62 958.908 617.76C950.083 618.028 941.254 617.377 932.564 615.817C923.927 614.124 915.486 611.553 907.372 608.145C903.683 606.432 900.16 604.851 897.064 603.04C895.484 602.151 893.936 601.361 892.52 600.439L888.502 597.804C886.224 596.271 884.026 594.622 881.916 592.865C880.242 591.628 878.658 590.274 877.174 588.814C875.825 587.664 874.58 586.397 873.453 585.027C873.717 584.731 879.051 590.164 889.227 596.783L893.244 599.319C894.661 600.175 896.208 600.933 897.756 601.789C900.851 603.567 904.342 605.082 908.03 606.696C924.104 613.423 941.424 616.656 958.842 616.18C962.631 616.092 966.412 615.806 970.17 615.323C971.949 615.093 973.661 614.961 975.275 614.665L979.951 613.743C991.872 611.24 998.787 608.145 998.952 608.507Z" fill="#FAFAFA"/>
<path d="M884.155 717.346C883.687 716.099 883.345 714.808 883.134 713.493C882.509 710.628 881.718 707.105 880.829 702.89C878.498 691.223 874.829 679.863 869.896 669.037C864.834 658.297 857.129 649.018 847.503 642.067C843.336 639.387 838.926 637.104 834.331 635.25C835.668 635.388 836.977 635.721 838.217 636.238C841.703 637.41 845.023 639.026 848.096 641.046C858.161 647.868 866.204 657.276 871.378 668.279C876.364 679.232 879.895 690.79 881.883 702.659C882.706 707.171 883.299 710.826 883.661 713.362C883.974 714.667 884.14 716.004 884.155 717.346V717.346Z" fill="#FAFAFA"/>
<path d="M391.512 501.218C391.217 500.247 391.072 499.236 391.084 498.221C390.913 495.48 390.913 492.73 391.084 489.988C391.987 471.69 398.378 454.087 409.427 439.473C411.053 437.252 412.836 435.15 414.761 433.183C416.144 431.8 416.935 431.043 417.001 431.141C417.067 431.24 414.333 434.434 410.415 440.164C400.111 454.923 393.855 472.125 392.27 490.054C391.644 496.937 391.809 501.218 391.512 501.218Z" fill="#FAFAFA"/>
<path d="M265.652 500.661C265.487 499.051 265.487 497.429 265.652 495.82C265.674 493.937 265.806 492.057 266.047 490.189C266.31 488.015 266.508 485.48 267.068 482.779C267.628 480.079 268.121 477.049 269.011 473.888C269.9 470.727 270.888 467.302 272.04 464.009C274.759 456.499 278.165 449.256 282.216 442.373C286.373 435.561 291.135 429.135 296.442 423.175C298.978 420.507 301.349 417.906 303.818 415.765C306.011 413.672 308.32 411.704 310.734 409.871C312.67 408.288 314.693 406.815 316.793 405.458C318.32 404.35 319.915 403.338 321.568 402.428C322.912 401.544 324.334 400.784 325.816 400.156C326.014 400.486 319.987 403.812 311.491 410.826C309.384 412.571 307.078 414.514 304.905 416.819C302.732 419.124 300.229 421.561 297.759 424.229C292.566 430.152 287.905 436.521 283.829 443.263C279.83 450.046 276.425 457.164 273.654 464.536C272.468 467.829 271.283 471.122 270.361 474.415C269.439 477.708 268.813 480.474 268.253 483.174C266.08 493.712 266.08 500.661 265.652 500.661Z" fill="#FAFAFA"/>
<path d="M582.215 278.94C581.886 279.303 579.35 277.228 575.826 275.647C572.303 274.067 569.24 273.046 569.24 272.552C571.8 272.143 574.419 272.707 576.584 274.133C580.305 275.845 582.478 278.644 582.215 278.94Z" fill="#263238"/>
<path d="M615.375 96.1409C613.378 84.7503 612.506 73.1908 612.774 61.6295C613.091 49.998 616.824 38.717 623.509 29.1928C626.887 24.5151 631.347 20.7242 636.508 18.1438C641.669 15.5633 647.378 14.27 653.147 14.374C660.26 14.8351 667.175 17.8976 674.288 17.239C682.521 16.4816 689.37 10.9492 696.648 7.06342C708.124 0.948632 721.273 -1.28136 734.123 0.7078C740.881 1.53235 747.266 4.26201 752.531 8.57823C755.131 10.7685 757.134 13.5807 758.355 16.7531C759.575 19.9256 759.974 23.3552 759.513 26.723C767.801 25.8331 776.171 26.0324 784.408 27.3158C792.732 28.6691 800.192 33.2329 805.187 40.027C807.552 43.4638 808.768 47.5609 808.662 51.7313C808.555 55.9018 807.132 59.9315 804.595 63.2431C808.454 62.4697 812.464 63.1519 815.85 65.1584C819.237 67.1648 821.761 70.3536 822.937 74.1102C823.924 77.9216 823.797 81.9361 822.571 85.6775C821.346 89.4189 819.073 92.7303 816.022 95.2188C808.631 100.486 799.61 102.96 790.566 102.2C782.762 101.212 773.805 99.6315 767.251 95.2847" fill="#263238"/>
<path d="M625.88 357.115C641.395 360.075 657.45 356.778 670.542 347.943C683.634 339.108 692.699 325.453 695.759 309.958C699.316 291.945 702.181 277.027 702.181 277.027C702.181 277.027 748.942 282 761.456 237.28C773.969 192.56 793.662 87.4456 793.662 87.4456C771.085 69.6305 744.157 58.173 715.666 54.2591C687.174 50.3453 658.155 54.1172 631.61 65.1844L623.608 68.4775L578.46 286.116C576.833 293.898 576.774 301.925 578.286 309.73C579.798 317.534 582.851 324.959 587.267 331.57C591.682 338.18 597.371 343.844 604.001 348.231C610.631 352.617 618.069 355.637 625.88 357.115Z" fill="#B78876"/>
<path d="M702.443 276.239C681.619 271.096 662.797 259.874 648.371 244C648.371 244 653.574 279.993 699.447 287.897L702.443 276.239Z" fill="#AA6550"/>
<path d="M616.825 116.491C616.133 115.964 588.405 99.1698 581.227 130.092C574.048 161.014 606.55 161.87 606.814 161.014C607.077 160.157 616.825 116.491 616.825 116.491Z" fill="#B78876"/>
<path d="M600.095 147.089C600.095 147.089 599.469 147.352 598.448 147.55C597.049 147.801 595.606 147.494 594.431 146.694C591.434 144.751 589.886 138.922 591.138 133.291C591.669 130.617 592.795 128.096 594.431 125.914C594.945 125.009 595.667 124.238 596.537 123.666C597.408 123.093 598.401 122.735 599.436 122.621C600.095 122.607 600.739 122.822 601.255 123.231C601.772 123.64 602.131 124.216 602.268 124.861C602.499 125.816 602.268 126.375 602.268 126.474C602.268 126.573 603.059 126.112 603.125 124.795C603.118 123.981 602.84 123.193 602.334 122.555C601.991 122.133 601.566 121.784 601.086 121.53C600.605 121.275 600.077 121.12 599.535 121.074C598.206 121.035 596.889 121.335 595.708 121.946C594.527 122.557 593.521 123.458 592.784 124.564C590.788 126.957 589.419 129.809 588.8 132.863C587.548 139.12 589.36 145.706 593.542 148.044C594.325 148.466 595.192 148.709 596.081 148.755C596.969 148.8 597.857 148.647 598.679 148.307C599.864 147.813 600.194 147.188 600.095 147.089Z" fill="#AA6550"/>
<path d="M760.797 159.2C760.384 160.886 759.321 162.34 757.841 163.246C756.361 164.153 754.583 164.438 752.894 164.041C752.063 163.884 751.273 163.563 750.567 163.097C749.861 162.632 749.255 162.031 748.784 161.33C748.312 160.628 747.984 159.84 747.819 159.011C747.654 158.182 747.655 157.329 747.823 156.5C748.237 154.815 749.299 153.361 750.779 152.454C752.259 151.548 754.037 151.262 755.726 151.659C756.561 151.808 757.357 152.124 758.067 152.587C758.777 153.05 759.387 153.651 759.86 154.355C760.333 155.058 760.66 155.85 760.821 156.682C760.982 157.515 760.974 158.371 760.797 159.2V159.2Z" fill="#263238"/>
<path d="M768.338 148.304C767.317 148.93 763.432 144.023 756.516 142.212C749.601 140.401 743.64 142.509 743.113 141.455C742.85 140.994 744.068 139.677 746.703 138.656C750.238 137.38 754.084 137.242 757.702 138.261C761.289 139.192 764.485 141.246 766.823 144.122C768.503 146.164 768.832 147.876 768.338 148.304Z" fill="#263238"/>
<path d="M690.392 141.319C689.971 142.999 688.905 144.445 687.426 145.344C685.947 146.244 684.173 146.525 682.488 146.127C681.654 145.978 680.858 145.662 680.147 145.199C679.437 144.736 678.827 144.135 678.354 143.431C677.881 142.728 677.554 141.936 677.393 141.104C677.232 140.272 677.24 139.415 677.417 138.586C677.838 136.907 678.903 135.461 680.382 134.561C681.862 133.661 683.635 133.38 685.32 133.778C686.153 133.932 686.946 134.25 687.654 134.714C688.362 135.178 688.97 135.779 689.443 136.482C689.915 137.184 690.242 137.974 690.405 138.805C690.568 139.636 690.564 140.49 690.392 141.319V141.319Z" fill="#263238"/>
<path d="M700.204 131.34C699.183 131.965 695.265 127.092 688.382 125.248C681.5 123.403 675.506 125.544 674.98 124.49C674.716 124.029 675.934 122.745 678.569 121.724C682.104 120.454 685.945 120.305 689.568 121.296C693.159 122.239 696.355 124.304 698.69 127.19C700.369 129.364 700.764 131.076 700.204 131.34Z" fill="#263238"/>
<path d="M711.599 189.164C715.531 188.997 719.469 189.318 723.322 190.119C725.133 190.416 726.911 190.515 727.537 189.395C728.142 187.61 728.211 185.686 727.735 183.863C727.208 179.153 726.681 174.214 726.121 169.044C723.948 148.034 722.828 130.943 723.75 130.844C724.672 130.745 727.043 147.738 729.184 168.78C729.645 173.95 730.139 178.89 730.567 183.599C731.097 186.016 730.771 188.542 729.645 190.745C729.224 191.3 728.681 191.752 728.059 192.066C727.437 192.38 726.752 192.547 726.055 192.556C725.011 192.56 723.97 192.427 722.96 192.161C719.063 191.638 715.246 190.632 711.599 189.164V189.164Z" fill="#263238"/>
<path d="M690.029 188.511C691.182 188.742 689.206 196.25 694.178 203.264C699.151 210.279 707.351 211.596 707.153 212.65C707.153 213.144 704.98 213.638 701.588 212.65C697.182 211.551 693.308 208.925 690.655 205.24C688.114 201.708 687.04 197.33 687.658 193.023C688.185 189.96 689.535 188.347 690.029 188.511Z" fill="#263238"/>
<path d="M769.03 135.328C767.384 136.547 763.07 133.682 757.406 132.035C751.742 130.389 746.571 130.29 745.88 128.347C745.616 127.425 746.802 126.042 749.173 125.054C752.485 124.035 756.025 124.024 759.343 125.02C762.662 126.017 765.609 127.977 767.812 130.652C769.524 132.891 769.919 134.702 769.03 135.328Z" fill="#263238"/>
<path d="M697.867 104.041C696.879 104.667 695.2 103.844 693.026 102.79C690.39 101.466 687.647 100.364 684.827 99.4971C681.973 98.6736 679.053 98.1007 676.1 97.7847C673.696 97.4554 671.852 97.1919 671.358 96.1052C670.864 95.0185 672.115 93.339 675.046 91.9889C678.932 90.4687 683.214 90.2912 687.211 91.4846C691.209 92.678 694.693 95.1738 697.11 98.575C698.822 101.308 698.822 103.449 697.867 104.041Z" fill="#263238"/>
<path d="M792.213 101.637C769.024 101.761 746.401 94.4811 727.636 80.858C706.725 65.9733 681.006 56.0941 674.42 59.6836C667.834 63.273 662.828 86.5221 639.217 89.7163C639.217 89.7163 633.586 134.667 616.001 130.188C598.416 125.71 620.743 58.3334 620.743 58.3334L667.834 44.0744L716.9 42.9219L761.455 50.1008L800.808 69.2664L792.213 101.637Z" fill="#263238"/>
<path d="M847.339 733.516C847.339 733.516 797.943 809.256 786.549 810.376C783.684 810.705 780.852 812.944 773.772 814.295C772.29 814.558 766.396 812.879 764.749 813.076C738.405 816.369 699.744 820.156 698.888 812.253C697.538 800.134 710.15 799.377 721.116 797.533C728.067 796.249 734.947 794.611 741.731 792.626C743.939 791.979 745.908 790.698 747.395 788.942C748.882 787.185 749.821 785.032 750.095 782.747C751.643 771.254 754.508 749.981 755.43 744.943C756.714 737.994 789.316 710.859 789.316 710.859L847.339 733.516Z" fill="#B78876"/>
<path d="M707.779 788.376L815.759 761.537C817.88 760.991 820.131 761.3 822.028 762.396C823.924 763.492 825.315 765.288 825.901 767.399V767.399C826.204 768.471 826.29 769.594 826.153 770.7C826.016 771.806 825.66 772.873 825.104 773.84C824.549 774.806 823.806 775.652 822.92 776.327C822.033 777.002 821.02 777.494 819.941 777.772L712.521 805.434C711.033 805.833 709.447 805.637 708.101 804.887C706.755 804.137 705.753 802.892 705.309 801.416L703.597 796.016C703.346 795.24 703.257 794.421 703.333 793.609C703.41 792.798 703.651 792.01 704.043 791.295C704.434 790.58 704.968 789.952 705.61 789.45C706.252 788.948 706.991 788.582 707.779 788.376V788.376Z" fill="#263238"/>
<path d="M770.478 772.804C770.478 772.804 742.619 782.684 721.082 791.871C718.288 793.117 715.248 793.714 712.191 793.617C710.666 793.626 709.165 793.229 707.845 792.465C706.525 791.7 705.434 790.597 704.683 789.27C702.839 785.417 707.679 783.672 711.005 781.004C714.331 778.337 719.37 774.616 723.585 771.323C728.237 767.896 731.554 762.961 732.97 757.36C738.996 732.958 764.715 705.099 789.15 710.994L795.209 704.078L847.207 733.518" fill="#B78876"/>
<path d="M691.939 788.969L674.156 806.06L674.584 807.476L691.247 802.372C691.196 801.931 691.299 801.487 691.539 801.114C691.78 800.742 692.142 800.464 692.564 800.33C693.058 800.177 693.592 800.226 694.049 800.467C694.506 800.708 694.848 801.121 695.001 801.614C695.154 802.108 695.105 802.642 694.864 803.099C694.623 803.556 694.21 803.898 693.717 804.051C693.291 804.177 692.834 804.151 692.425 803.976C692.017 803.802 691.682 803.491 691.478 803.096L674.815 808.167L675.21 809.55L700.073 813.963C699.511 811.721 699.754 809.352 700.759 807.27C701.764 805.188 703.467 803.525 705.572 802.569L703.234 794.732C695.429 797.037 691.939 788.969 691.939 788.969Z" fill="#252B34"/>
<path d="M775.517 803.126C775.588 804.047 775.292 804.958 774.693 805.661C773.281 807.674 771.505 809.405 769.457 810.766C768.076 811.805 766.543 812.627 764.913 813.203C763.043 813.72 761.14 814.105 759.216 814.355C755.198 814.981 750.786 815.146 746.044 815.475C736.79 816.035 728.426 816.43 722.367 816.66C719.079 816.936 715.775 816.936 712.487 816.66C715.737 815.955 719.043 815.547 722.367 815.442C728.393 814.915 736.757 814.322 746.011 813.762C750.621 813.433 755.034 813.301 758.953 812.807C760.795 812.6 762.621 812.27 764.419 811.819C765.937 811.349 767.379 810.661 768.7 809.778C770.699 808.556 772.508 807.047 774.068 805.299C775.22 804.015 775.352 803.093 775.517 803.126Z" fill="#AA6550"/>
<path d="M791.488 801.743C791.653 801.743 790.928 803.456 789.282 805.761C787.118 808.827 784.264 811.343 780.95 813.105C777.574 814.878 773.695 815.447 769.951 814.718C768.816 814.55 767.708 814.229 766.658 813.763C765.934 813.434 765.572 813.236 765.605 813.105C765.638 812.973 766.099 813.105 766.856 813.105C767.945 813.307 769.044 813.45 770.149 813.533C773.623 813.837 777.114 813.164 780.226 811.59C783.325 809.908 786.093 807.677 788.393 805.004C790.171 802.929 791.29 801.612 791.488 801.743Z" fill="#AA6550"/>
<path d="M771.499 771.188C768.92 772.788 766.197 774.144 763.365 775.238C758.294 777.543 751.214 780.606 743.311 783.833C735.407 787.06 728.196 789.826 722.894 791.605C720.082 792.913 717.036 793.641 713.937 793.745C713.937 793.745 714.76 793.482 716.209 792.922C717.658 792.362 719.765 791.605 722.367 790.584L742.553 782.384C750.457 779.091 757.603 776.259 762.806 774.25C765.602 772.96 768.512 771.935 771.499 771.188V771.188Z" fill="#AA6550"/>
<path d="M487.538 453.109C487.538 453.109 603.652 452.714 618.964 500.826L489.712 501.254L487.538 453.109Z" fill="#B78876"/>
<path d="M199.408 623C198.654 623 198.074 622.797 197.668 622.391C197.262 621.985 197.059 621.405 197.059 620.651V604.904C197.059 604.15 197.262 603.57 197.668 603.164C198.074 602.758 198.654 602.555 199.408 602.555H209.529C210.109 602.555 210.544 602.71 210.834 603.019C211.143 603.309 211.298 603.734 211.298 604.295C211.298 604.875 211.143 605.32 210.834 605.629C210.544 605.919 210.109 606.064 209.529 606.064H201.351V610.849H208.862C209.461 610.849 209.906 611.004 210.196 611.313C210.505 611.603 210.66 612.038 210.66 612.618C210.66 613.198 210.505 613.643 210.196 613.952C209.906 614.242 209.461 614.387 208.862 614.387H201.351V619.491H209.529C210.109 619.491 210.544 619.646 210.834 619.955C211.143 620.245 211.298 620.67 211.298 621.231C211.298 621.811 211.143 622.256 210.834 622.565C210.544 622.855 210.109 623 209.529 623H199.408ZM227.176 628.481C226.461 628.481 225.919 628.288 225.552 627.901C225.185 627.534 225.001 626.983 225.001 626.248V620.332H225.32C225.011 621.221 224.421 621.946 223.551 622.507C222.7 623.048 221.714 623.319 220.593 623.319C219.356 623.319 218.263 623.019 217.316 622.42C216.388 621.821 215.663 620.96 215.141 619.839C214.619 618.718 214.358 617.393 214.358 615.866C214.358 614.339 214.619 613.024 215.141 611.922C215.663 610.82 216.388 609.969 217.316 609.37C218.263 608.771 219.356 608.471 220.593 608.471C221.734 608.471 222.739 608.761 223.609 609.341C224.498 609.902 225.078 610.646 225.349 611.574L225.03 612.705V610.733C225.03 610.018 225.214 609.476 225.581 609.109C225.968 608.722 226.509 608.529 227.205 608.529C227.901 608.529 228.433 608.722 228.8 609.109C229.187 609.476 229.38 610.018 229.38 610.733V626.248C229.38 626.983 229.187 627.534 228.8 627.901C228.413 628.288 227.872 628.481 227.176 628.481ZM221.898 620.042C222.536 620.042 223.087 619.887 223.551 619.578C224.015 619.269 224.382 618.814 224.653 618.215C224.924 617.596 225.059 616.813 225.059 615.866C225.059 614.455 224.769 613.42 224.189 612.763C223.609 612.086 222.845 611.748 221.898 611.748C221.279 611.748 220.728 611.893 220.245 612.183C219.781 612.473 219.414 612.927 219.143 613.546C218.892 614.145 218.766 614.919 218.766 615.866C218.766 617.277 219.056 618.331 219.636 619.027C220.216 619.704 220.97 620.042 221.898 620.042ZM238.873 623.319C237.674 623.319 236.679 623.097 235.886 622.652C235.093 622.207 234.504 621.54 234.117 620.651C233.75 619.742 233.566 618.621 233.566 617.287V610.733C233.566 609.998 233.75 609.447 234.117 609.08C234.504 608.713 235.045 608.529 235.741 608.529C236.437 608.529 236.978 608.713 237.365 609.08C237.752 609.447 237.945 609.998 237.945 610.733V617.403C237.945 618.254 238.119 618.892 238.467 619.317C238.815 619.723 239.366 619.926 240.12 619.926C240.951 619.926 241.628 619.636 242.15 619.056C242.691 618.457 242.962 617.674 242.962 616.707V610.733C242.962 609.998 243.146 609.447 243.513 609.08C243.9 608.713 244.441 608.529 245.137 608.529C245.852 608.529 246.394 608.713 246.761 609.08C247.148 609.447 247.341 609.998 247.341 610.733V621.028C247.341 622.517 246.635 623.261 245.224 623.261C244.528 623.261 243.996 623.068 243.629 622.681C243.262 622.294 243.078 621.743 243.078 621.028V619.085L243.513 620.216C243.088 621.202 242.479 621.966 241.686 622.507C240.893 623.048 239.956 623.319 238.873 623.319ZM253.804 623.232C253.088 623.232 252.537 623.029 252.151 622.623C251.783 622.198 251.6 621.608 251.6 620.854V610.936C251.6 610.163 251.783 609.573 252.151 609.167C252.537 608.742 253.088 608.529 253.804 608.529C254.5 608.529 255.031 608.742 255.399 609.167C255.785 609.573 255.979 610.163 255.979 610.936V620.854C255.979 621.608 255.795 622.198 255.428 622.623C255.06 623.029 254.519 623.232 253.804 623.232ZM253.804 606.151C252.992 606.151 252.363 605.967 251.919 605.6C251.493 605.213 251.281 604.672 251.281 603.976C251.281 603.261 251.493 602.719 251.919 602.352C252.363 601.965 252.992 601.772 253.804 601.772C254.616 601.772 255.234 601.965 255.66 602.352C256.085 602.719 256.298 603.261 256.298 603.976C256.298 604.672 256.085 605.213 255.66 605.6C255.234 605.967 254.616 606.151 253.804 606.151ZM267.218 623.319C265.884 623.319 264.763 623.097 263.854 622.652C262.965 622.207 262.298 621.56 261.853 620.709C261.428 619.858 261.215 618.785 261.215 617.49V612.038H259.997C259.456 612.038 259.031 611.893 258.721 611.603C258.431 611.313 258.286 610.917 258.286 610.414C258.286 609.873 258.431 609.467 258.721 609.196C259.031 608.906 259.456 608.761 259.997 608.761H261.215V606.557C261.215 605.822 261.409 605.271 261.795 604.904C262.182 604.517 262.723 604.324 263.419 604.324C264.135 604.324 264.676 604.517 265.043 604.904C265.411 605.271 265.594 605.822 265.594 606.557V608.761H268.349C268.891 608.761 269.306 608.906 269.596 609.196C269.886 609.467 270.031 609.873 270.031 610.414C270.031 610.917 269.886 611.313 269.596 611.603C269.306 611.893 268.891 612.038 268.349 612.038H265.594V617.316C265.594 618.128 265.778 618.737 266.145 619.143C266.532 619.549 267.141 619.752 267.972 619.752C268.262 619.752 268.533 619.723 268.784 619.665C269.036 619.607 269.268 619.568 269.48 619.549C269.751 619.53 269.973 619.617 270.147 619.81C270.321 619.984 270.408 620.38 270.408 620.999C270.408 621.463 270.331 621.869 270.176 622.217C270.022 622.565 269.751 622.816 269.364 622.971C269.113 623.068 268.765 623.145 268.32 623.203C267.895 623.28 267.528 623.319 267.218 623.319ZM276.965 628.481C276.462 628.481 276.047 628.346 275.718 628.075C275.389 627.804 275.196 627.447 275.138 627.002C275.08 626.577 275.157 626.122 275.37 625.639L277.313 621.347V623.145L272.18 611.371C271.987 610.868 271.919 610.404 271.977 609.979C272.054 609.534 272.267 609.186 272.615 608.935C272.982 608.664 273.485 608.529 274.123 608.529C274.645 608.529 275.061 608.655 275.37 608.906C275.699 609.138 275.998 609.592 276.269 610.269L279.691 618.969H278.763L282.301 610.24C282.572 609.583 282.871 609.138 283.2 608.906C283.548 608.655 284.012 608.529 284.592 608.529C285.095 608.529 285.491 608.664 285.781 608.935C286.09 609.186 286.274 609.525 286.332 609.95C286.409 610.375 286.332 610.839 286.1 611.342L279.285 626.799C278.995 627.456 278.666 627.901 278.299 628.133C277.951 628.365 277.506 628.481 276.965 628.481ZM328.016 623C327.262 623 326.682 622.797 326.276 622.391C325.87 621.985 325.667 621.405 325.667 620.651V604.904C325.667 604.15 325.87 603.57 326.276 603.164C326.682 602.758 327.262 602.555 328.016 602.555H333.671C337.171 602.555 339.868 603.444 341.762 605.223C343.676 606.982 344.633 609.496 344.633 612.763C344.633 614.406 344.382 615.866 343.879 617.142C343.396 618.399 342.69 619.462 341.762 620.332C340.834 621.202 339.694 621.869 338.34 622.333C336.987 622.778 335.431 623 333.671 623H328.016ZM330.162 619.317H333.41C334.512 619.317 335.469 619.182 336.281 618.911C337.093 618.64 337.77 618.234 338.311 617.693C338.853 617.152 339.259 616.475 339.529 615.663C339.8 614.832 339.935 613.865 339.935 612.763C339.935 610.559 339.384 608.925 338.282 607.862C337.2 606.779 335.576 606.238 333.41 606.238H330.162V619.317ZM356.013 623.319C354.331 623.319 352.881 623.019 351.663 622.42C350.465 621.801 349.537 620.941 348.879 619.839C348.241 618.718 347.922 617.403 347.922 615.895C347.922 614.426 348.232 613.14 348.85 612.038C349.469 610.917 350.329 610.047 351.431 609.428C352.553 608.79 353.819 608.471 355.23 608.471C356.255 608.471 357.183 608.645 358.014 608.993C358.846 609.322 359.561 609.805 360.16 610.443C360.76 611.062 361.214 611.825 361.523 612.734C361.833 613.623 361.987 614.619 361.987 615.721C361.987 616.088 361.871 616.369 361.639 616.562C361.407 616.736 361.069 616.823 360.624 616.823H351.518V614.561H358.826L358.362 614.967C358.362 614.174 358.246 613.517 358.014 612.995C357.782 612.454 357.444 612.048 356.999 611.777C356.574 611.506 356.042 611.371 355.404 611.371C354.689 611.371 354.08 611.535 353.577 611.864C353.075 612.193 352.688 612.666 352.417 613.285C352.147 613.904 352.011 614.648 352.011 615.518V615.75C352.011 617.219 352.35 618.302 353.026 618.998C353.722 619.694 354.747 620.042 356.1 620.042C356.564 620.042 357.096 619.984 357.695 619.868C358.295 619.752 358.855 619.568 359.377 619.317C359.822 619.104 360.218 619.037 360.566 619.114C360.914 619.172 361.185 619.327 361.378 619.578C361.572 619.829 361.678 620.119 361.697 620.448C361.736 620.777 361.668 621.105 361.494 621.434C361.32 621.743 361.03 622.004 360.624 622.217C359.967 622.584 359.223 622.855 358.391 623.029C357.579 623.222 356.787 623.319 356.013 623.319ZM374.191 623.319C373.051 623.319 372.036 623.039 371.146 622.478C370.276 621.898 369.696 621.134 369.406 620.187L369.725 619.23V621.028C369.725 621.743 369.542 622.294 369.174 622.681C368.807 623.068 368.275 623.261 367.579 623.261C366.883 623.261 366.342 623.068 365.955 622.681C365.588 622.294 365.404 621.743 365.404 621.028V604.527C365.404 603.792 365.588 603.241 365.955 602.874C366.342 602.487 366.893 602.294 367.608 602.294C368.304 602.294 368.836 602.487 369.203 602.874C369.59 603.241 369.783 603.792 369.783 604.527V611.4H369.435C369.745 610.53 370.334 609.824 371.204 609.283C372.074 608.742 373.07 608.471 374.191 608.471C375.448 608.471 376.54 608.771 377.468 609.37C378.396 609.969 379.121 610.82 379.643 611.922C380.165 613.024 380.426 614.339 380.426 615.866C380.426 617.393 380.165 618.718 379.643 619.839C379.121 620.96 378.387 621.821 377.439 622.42C376.511 623.019 375.429 623.319 374.191 623.319ZM372.886 620.042C373.505 620.042 374.046 619.887 374.51 619.578C374.994 619.269 375.361 618.814 375.612 618.215C375.883 617.596 376.018 616.813 376.018 615.866C376.018 614.455 375.728 613.42 375.148 612.763C374.568 612.086 373.814 611.748 372.886 611.748C372.268 611.748 371.717 611.893 371.233 612.183C370.769 612.473 370.402 612.927 370.131 613.546C369.861 614.145 369.725 614.919 369.725 615.866C369.725 617.277 370.015 618.331 370.595 619.027C371.175 619.704 371.939 620.042 372.886 620.042ZM390.822 623.319C389.488 623.319 388.366 623.097 387.458 622.652C386.568 622.207 385.901 621.56 385.457 620.709C385.031 619.858 384.819 618.785 384.819 617.49V612.038H383.601C383.059 612.038 382.634 611.893 382.325 611.603C382.035 611.313 381.89 610.917 381.89 610.414C381.89 609.873 382.035 609.467 382.325 609.196C382.634 608.906 383.059 608.761 383.601 608.761H384.819V606.557C384.819 605.822 385.012 605.271 385.399 604.904C385.785 604.517 386.327 604.324 387.023 604.324C387.738 604.324 388.279 604.517 388.647 604.904C389.014 605.271 389.198 605.822 389.198 606.557V608.761H391.953C392.494 608.761 392.91 608.906 393.2 609.196C393.49 609.467 393.635 609.873 393.635 610.414C393.635 610.917 393.49 611.313 393.2 611.603C392.91 611.893 392.494 612.038 391.953 612.038H389.198V617.316C389.198 618.128 389.381 618.737 389.749 619.143C390.135 619.549 390.744 619.752 391.576 619.752C391.866 619.752 392.136 619.723 392.388 619.665C392.639 619.607 392.871 619.568 393.084 619.549C393.354 619.53 393.577 619.617 393.751 619.81C393.925 619.984 394.012 620.38 394.012 620.999C394.012 621.463 393.934 621.869 393.78 622.217C393.625 622.565 393.354 622.816 392.968 622.971C392.716 623.068 392.368 623.145 391.924 623.203C391.498 623.28 391.131 623.319 390.822 623.319ZM442.601 623.319C440.397 623.319 438.512 622.884 436.946 622.014C435.38 621.144 434.172 619.926 433.321 618.36C432.49 616.775 432.074 614.909 432.074 612.763C432.074 611.158 432.306 609.718 432.77 608.442C433.253 607.147 433.949 606.045 434.858 605.136C435.767 604.208 436.869 603.493 438.164 602.99C439.479 602.487 440.958 602.236 442.601 602.236C443.568 602.236 444.544 602.362 445.53 602.613C446.535 602.845 447.405 603.183 448.14 603.628C448.623 603.899 448.952 604.237 449.126 604.643C449.3 605.049 449.348 605.455 449.271 605.861C449.213 606.267 449.049 606.615 448.778 606.905C448.527 607.195 448.208 607.379 447.821 607.456C447.434 607.533 446.999 607.446 446.516 607.195C445.936 606.847 445.327 606.596 444.689 606.441C444.051 606.286 443.403 606.209 442.746 606.209C441.451 606.209 440.358 606.47 439.469 606.992C438.599 607.495 437.942 608.229 437.497 609.196C437.052 610.163 436.83 611.352 436.83 612.763C436.83 614.155 437.052 615.344 437.497 616.33C437.942 617.316 438.599 618.07 439.469 618.592C440.358 619.095 441.451 619.346 442.746 619.346C443.365 619.346 443.993 619.269 444.631 619.114C445.288 618.959 445.917 618.718 446.516 618.389C447.019 618.138 447.463 618.051 447.85 618.128C448.256 618.186 448.585 618.36 448.836 618.65C449.107 618.921 449.271 619.249 449.329 619.636C449.406 620.023 449.368 620.409 449.213 620.796C449.058 621.183 448.768 621.511 448.343 621.782C447.628 622.265 446.748 622.642 445.704 622.913C444.66 623.184 443.626 623.319 442.601 623.319ZM458.825 623.319C457.297 623.319 455.963 623.019 454.823 622.42C453.701 621.821 452.831 620.96 452.213 619.839C451.594 618.718 451.285 617.393 451.285 615.866C451.285 614.725 451.459 613.701 451.807 612.792C452.155 611.883 452.657 611.11 453.315 610.472C453.991 609.815 454.794 609.322 455.722 608.993C456.65 608.645 457.684 608.471 458.825 608.471C460.352 608.471 461.676 608.771 462.798 609.37C463.938 609.969 464.818 610.82 465.437 611.922C466.075 613.024 466.394 614.339 466.394 615.866C466.394 617.026 466.21 618.06 465.843 618.969C465.495 619.878 464.992 620.661 464.335 621.318C463.677 621.975 462.875 622.478 461.928 622.826C461 623.155 459.965 623.319 458.825 623.319ZM458.825 620.042C459.463 620.042 460.014 619.887 460.478 619.578C460.942 619.269 461.309 618.814 461.58 618.215C461.85 617.596 461.986 616.813 461.986 615.866C461.986 614.455 461.696 613.42 461.116 612.763C460.536 612.086 459.772 611.748 458.825 611.748C458.206 611.748 457.655 611.893 457.172 612.183C456.708 612.473 456.34 612.927 456.07 613.546C455.818 614.145 455.693 614.919 455.693 615.866C455.693 617.277 455.983 618.331 456.563 619.027C457.143 619.704 457.897 620.042 458.825 620.042ZM472.19 623.261C471.474 623.261 470.923 623.068 470.537 622.681C470.169 622.294 469.986 621.743 469.986 621.028V610.733C469.986 610.018 470.169 609.476 470.537 609.109C470.923 608.722 471.455 608.529 472.132 608.529C472.828 608.529 473.359 608.722 473.727 609.109C474.094 609.476 474.278 610.018 474.278 610.733V612.589L473.959 611.429C474.345 610.54 474.945 609.824 475.757 609.283C476.569 608.742 477.526 608.471 478.628 608.471C479.73 608.471 480.648 608.732 481.383 609.254C482.117 609.776 482.639 610.578 482.949 611.661H482.543C482.968 610.675 483.616 609.902 484.486 609.341C485.375 608.761 486.39 608.471 487.531 608.471C488.633 608.471 489.532 608.693 490.228 609.138C490.943 609.563 491.475 610.221 491.823 611.11C492.171 611.98 492.345 613.092 492.345 614.445V621.028C492.345 621.743 492.151 622.294 491.765 622.681C491.397 623.068 490.866 623.261 490.17 623.261C489.454 623.261 488.903 623.068 488.517 622.681C488.149 622.294 487.966 621.743 487.966 621.028V614.59C487.966 613.643 487.811 612.956 487.502 612.531C487.212 612.086 486.709 611.864 485.994 611.864C485.162 611.864 484.515 612.154 484.051 612.734C483.587 613.314 483.355 614.136 483.355 615.199V621.028C483.355 621.743 483.161 622.294 482.775 622.681C482.407 623.068 481.876 623.261 481.18 623.261C480.484 623.261 479.942 623.068 479.556 622.681C479.169 622.294 478.976 621.743 478.976 621.028V614.59C478.976 613.643 478.821 612.956 478.512 612.531C478.222 612.086 477.719 611.864 477.004 611.864C476.172 611.864 475.525 612.154 475.061 612.734C474.597 613.314 474.365 614.136 474.365 615.199V621.028C474.365 622.517 473.64 623.261 472.19 623.261ZM498.831 623.261C498.116 623.261 497.565 623.068 497.178 622.681C496.811 622.294 496.627 621.743 496.627 621.028V610.733C496.627 610.018 496.811 609.476 497.178 609.109C497.565 608.722 498.097 608.529 498.773 608.529C499.469 608.529 500.001 608.722 500.368 609.109C500.736 609.476 500.919 610.018 500.919 610.733V612.589L500.6 611.429C500.987 610.54 501.586 609.824 502.398 609.283C503.21 608.742 504.167 608.471 505.269 608.471C506.371 608.471 507.29 608.732 508.024 609.254C508.759 609.776 509.281 610.578 509.59 611.661H509.184C509.61 610.675 510.257 609.902 511.127 609.341C512.017 608.761 513.032 608.471 514.172 608.471C515.274 608.471 516.173 608.693 516.869 609.138C517.585 609.563 518.116 610.221 518.464 611.11C518.812 611.98 518.986 613.092 518.986 614.445V621.028C518.986 621.743 518.793 622.294 518.406 622.681C518.039 623.068 517.507 623.261 516.811 623.261C516.096 623.261 515.545 623.068 515.158 622.681C514.791 622.294 514.607 621.743 514.607 621.028V614.59C514.607 613.643 514.453 612.956 514.143 612.531C513.853 612.086 513.351 611.864 512.635 611.864C511.804 611.864 511.156 612.154 510.692 612.734C510.228 613.314 509.996 614.136 509.996 615.199V621.028C509.996 621.743 509.803 622.294 509.416 622.681C509.049 623.068 508.517 623.261 507.821 623.261C507.125 623.261 506.584 623.068 506.197 622.681C505.811 622.294 505.617 621.743 505.617 621.028V614.59C505.617 613.643 505.463 612.956 505.153 612.531C504.863 612.086 504.361 611.864 503.645 611.864C502.814 611.864 502.166 612.154 501.702 612.734C501.238 613.314 501.006 614.136 501.006 615.199V621.028C501.006 622.517 500.281 623.261 498.831 623.261ZM530.055 623.319C528.527 623.319 527.193 623.019 526.053 622.42C524.931 621.821 524.061 620.96 523.443 619.839C522.824 618.718 522.515 617.393 522.515 615.866C522.515 614.725 522.689 613.701 523.037 612.792C523.385 611.883 523.887 611.11 524.545 610.472C525.221 609.815 526.024 609.322 526.952 608.993C527.88 608.645 528.914 608.471 530.055 608.471C531.582 608.471 532.906 608.771 534.028 609.37C535.168 609.969 536.048 610.82 536.667 611.922C537.305 613.024 537.624 614.339 537.624 615.866C537.624 617.026 537.44 618.06 537.073 618.969C536.725 619.878 536.222 620.661 535.565 621.318C534.907 621.975 534.105 622.478 533.158 622.826C532.23 623.155 531.195 623.319 530.055 623.319ZM530.055 620.042C530.693 620.042 531.244 619.887 531.708 619.578C532.172 619.269 532.539 618.814 532.81 618.215C533.08 617.596 533.216 616.813 533.216 615.866C533.216 614.455 532.926 613.42 532.346 612.763C531.766 612.086 531.002 611.748 530.055 611.748C529.436 611.748 528.885 611.893 528.402 612.183C527.938 612.473 527.57 612.927 527.3 613.546C527.048 614.145 526.923 614.919 526.923 615.866C526.923 617.277 527.213 618.331 527.793 619.027C528.373 619.704 529.127 620.042 530.055 620.042ZM546.697 623.319C545.459 623.319 544.367 623.019 543.42 622.42C542.492 621.821 541.767 620.96 541.245 619.839C540.723 618.718 540.462 617.393 540.462 615.866C540.462 614.339 540.723 613.024 541.245 611.922C541.767 610.82 542.492 609.969 543.42 609.37C544.367 608.771 545.459 608.471 546.697 608.471C547.818 608.471 548.804 608.742 549.655 609.283C550.525 609.824 551.114 610.53 551.424 611.4H551.105V604.527C551.105 603.792 551.288 603.241 551.656 602.874C552.023 602.487 552.564 602.294 553.28 602.294C553.976 602.294 554.517 602.487 554.904 602.874C555.29 603.241 555.484 603.792 555.484 604.527V621.028C555.484 621.743 555.29 622.294 554.904 622.681C554.536 623.068 554.005 623.261 553.309 623.261C552.613 623.261 552.071 623.068 551.685 622.681C551.317 622.294 551.134 621.743 551.134 621.028V619.056L551.453 620.187C551.182 621.134 550.602 621.898 549.713 622.478C548.843 623.039 547.837 623.319 546.697 623.319ZM548.002 620.042C548.64 620.042 549.191 619.887 549.655 619.578C550.119 619.269 550.486 618.814 550.757 618.215C551.027 617.596 551.163 616.813 551.163 615.866C551.163 614.455 550.873 613.42 550.293 612.763C549.713 612.086 548.949 611.748 548.002 611.748C547.383 611.748 546.832 611.893 546.349 612.183C545.885 612.473 545.517 612.927 545.247 613.546C544.995 614.145 544.87 614.919 544.87 615.866C544.87 617.277 545.16 618.331 545.74 619.027C546.32 619.704 547.074 620.042 548.002 620.042ZM561.932 623.232C561.217 623.232 560.666 623.029 560.279 622.623C559.912 622.198 559.728 621.608 559.728 620.854V610.936C559.728 610.163 559.912 609.573 560.279 609.167C560.666 608.742 561.217 608.529 561.932 608.529C562.628 608.529 563.16 608.742 563.527 609.167C563.914 609.573 564.107 610.163 564.107 610.936V620.854C564.107 621.608 563.923 622.198 563.556 622.623C563.189 623.029 562.647 623.232 561.932 623.232ZM561.932 606.151C561.12 606.151 560.492 605.967 560.047 605.6C559.622 605.213 559.409 604.672 559.409 603.976C559.409 603.261 559.622 602.719 560.047 602.352C560.492 601.965 561.12 601.772 561.932 601.772C562.744 601.772 563.363 601.965 563.788 602.352C564.213 602.719 564.426 603.261 564.426 603.976C564.426 604.672 564.213 605.213 563.788 605.6C563.363 605.967 562.744 606.151 561.932 606.151ZM575.347 623.319C574.013 623.319 572.891 623.097 571.983 622.652C571.093 622.207 570.426 621.56 569.982 620.709C569.556 619.858 569.344 618.785 569.344 617.49V612.038H568.126C567.584 612.038 567.159 611.893 566.85 611.603C566.56 611.313 566.415 610.917 566.415 610.414C566.415 609.873 566.56 609.467 566.85 609.196C567.159 608.906 567.584 608.761 568.126 608.761H569.344V606.557C569.344 605.822 569.537 605.271 569.924 604.904C570.31 604.517 570.852 604.324 571.548 604.324C572.263 604.324 572.804 604.517 573.172 604.904C573.539 605.271 573.723 605.822 573.723 606.557V608.761H576.478C577.019 608.761 577.435 608.906 577.725 609.196C578.015 609.467 578.16 609.873 578.16 610.414C578.16 610.917 578.015 611.313 577.725 611.603C577.435 611.893 577.019 612.038 576.478 612.038H573.723V617.316C573.723 618.128 573.906 618.737 574.274 619.143C574.66 619.549 575.269 619.752 576.101 619.752C576.391 619.752 576.661 619.723 576.913 619.665C577.164 619.607 577.396 619.568 577.609 619.549C577.879 619.53 578.102 619.617 578.276 619.81C578.45 619.984 578.537 620.38 578.537 620.999C578.537 621.463 578.459 621.869 578.305 622.217C578.15 622.565 577.879 622.816 577.493 622.971C577.241 623.068 576.893 623.145 576.449 623.203C576.023 623.28 575.656 623.319 575.347 623.319ZM585.093 628.481C584.591 628.481 584.175 628.346 583.846 628.075C583.518 627.804 583.324 627.447 583.266 627.002C583.208 626.577 583.286 626.122 583.498 625.639L585.441 621.347V623.145L580.308 611.371C580.115 610.868 580.047 610.404 580.105 609.979C580.183 609.534 580.395 609.186 580.743 608.935C581.111 608.664 581.613 608.529 582.251 608.529C582.773 608.529 583.189 608.655 583.498 608.906C583.827 609.138 584.127 609.592 584.397 610.269L587.819 618.969H586.891L590.429 610.24C590.7 609.583 591 609.138 591.328 608.906C591.676 608.655 592.14 608.529 592.72 608.529C593.223 608.529 593.619 608.664 593.909 608.935C594.219 609.186 594.402 609.525 594.46 609.95C594.538 610.375 594.46 610.839 594.228 611.342L587.413 626.799C587.123 627.456 586.795 627.901 586.427 628.133C586.079 628.365 585.635 628.481 585.093 628.481ZM636.058 623.261C635.323 623.261 634.762 623.058 634.376 622.652C633.989 622.246 633.796 621.676 633.796 620.941V604.614C633.796 603.879 633.989 603.309 634.376 602.903C634.762 602.497 635.323 602.294 636.058 602.294C636.773 602.294 637.324 602.497 637.711 602.903C638.097 603.309 638.291 603.879 638.291 604.614V610.762H647.803V604.614C647.803 603.879 647.996 603.309 648.383 602.903C648.769 602.497 649.32 602.294 650.036 602.294C650.77 602.294 651.331 602.497 651.718 602.903C652.104 603.309 652.298 603.879 652.298 604.614V620.941C652.298 621.676 652.104 622.246 651.718 622.652C651.331 623.058 650.77 623.261 650.036 623.261C649.32 623.261 648.769 623.058 648.383 622.652C647.996 622.246 647.803 621.676 647.803 620.941V614.503H638.291V620.941C638.291 621.676 638.097 622.246 637.711 622.652C637.343 623.058 636.792 623.261 636.058 623.261ZM660.803 628.481C660.3 628.481 659.884 628.346 659.556 628.075C659.227 627.804 659.034 627.447 658.976 627.002C658.918 626.577 658.995 626.122 659.208 625.639L661.151 621.347V623.145L656.018 611.371C655.824 610.868 655.757 610.404 655.815 609.979C655.892 609.534 656.105 609.186 656.453 608.935C656.82 608.664 657.323 608.529 657.961 608.529C658.483 608.529 658.898 608.655 659.208 608.906C659.536 609.138 659.836 609.592 660.107 610.269L663.529 618.969H662.601L666.139 610.24C666.409 609.583 666.709 609.138 667.038 608.906C667.386 608.655 667.85 608.529 668.43 608.529C668.932 608.529 669.329 608.664 669.619 608.935C669.928 609.186 670.112 609.525 670.17 609.95C670.247 610.375 670.17 610.839 669.938 611.342L663.123 626.799C662.833 627.456 662.504 627.901 662.137 628.133C661.789 628.365 661.344 628.481 660.803 628.481ZM682.036 623.319C680.896 623.319 679.881 623.039 678.991 622.478C678.121 621.898 677.541 621.134 677.251 620.187L677.57 619.23V621.028C677.57 621.743 677.387 622.294 677.019 622.681C676.652 623.068 676.12 623.261 675.424 623.261C674.728 623.261 674.187 623.068 673.8 622.681C673.433 622.294 673.249 621.743 673.249 621.028V604.527C673.249 603.792 673.433 603.241 673.8 602.874C674.187 602.487 674.738 602.294 675.453 602.294C676.149 602.294 676.681 602.487 677.048 602.874C677.435 603.241 677.628 603.792 677.628 604.527V611.4H677.28C677.59 610.53 678.179 609.824 679.049 609.283C679.919 608.742 680.915 608.471 682.036 608.471C683.293 608.471 684.385 608.771 685.313 609.37C686.241 609.969 686.966 610.82 687.488 611.922C688.01 613.024 688.271 614.339 688.271 615.866C688.271 617.393 688.01 618.718 687.488 619.839C686.966 620.96 686.232 621.821 685.284 622.42C684.356 623.019 683.274 623.319 682.036 623.319ZM680.731 620.042C681.35 620.042 681.891 619.887 682.355 619.578C682.839 619.269 683.206 618.814 683.457 618.215C683.728 617.596 683.863 616.813 683.863 615.866C683.863 614.455 683.573 613.42 682.993 612.763C682.413 612.086 681.659 611.748 680.731 611.748C680.113 611.748 679.562 611.893 679.078 612.183C678.614 612.473 678.247 612.927 677.976 613.546C677.706 614.145 677.57 614.919 677.57 615.866C677.57 617.277 677.86 618.331 678.44 619.027C679.02 619.704 679.784 620.042 680.731 620.042ZM694.082 623.261C693.347 623.261 692.786 623.068 692.4 622.681C692.013 622.294 691.82 621.743 691.82 621.028V610.733C691.82 610.018 692.003 609.476 692.371 609.109C692.757 608.722 693.289 608.529 693.966 608.529C694.662 608.529 695.193 608.722 695.561 609.109C695.928 609.476 696.112 610.018 696.112 610.733V612.241H695.822C696.054 611.081 696.566 610.182 697.359 609.544C698.151 608.906 699.176 608.548 700.433 608.471C700.916 608.432 701.283 608.558 701.535 608.848C701.805 609.119 701.95 609.573 701.97 610.211C702.008 610.81 701.883 611.284 701.593 611.632C701.322 611.98 700.858 612.193 700.201 612.27L699.534 612.328C698.432 612.425 697.61 612.744 697.069 613.285C696.547 613.826 696.286 614.609 696.286 615.634V621.028C696.286 621.743 696.092 622.294 695.706 622.681C695.338 623.068 694.797 623.261 694.082 623.261ZM706.845 623.232C706.129 623.232 705.578 623.029 705.192 622.623C704.824 622.198 704.641 621.608 704.641 620.854V610.936C704.641 610.163 704.824 609.573 705.192 609.167C705.578 608.742 706.129 608.529 706.845 608.529C707.541 608.529 708.072 608.742 708.44 609.167C708.826 609.573 709.02 610.163 709.02 610.936V620.854C709.02 621.608 708.836 622.198 708.469 622.623C708.101 623.029 707.56 623.232 706.845 623.232ZM706.845 606.151C706.033 606.151 705.404 605.967 704.96 605.6C704.534 605.213 704.322 604.672 704.322 603.976C704.322 603.261 704.534 602.719 704.96 602.352C705.404 601.965 706.033 601.772 706.845 601.772C707.657 601.772 708.275 601.965 708.701 602.352C709.126 602.719 709.339 603.261 709.339 603.976C709.339 604.672 709.126 605.213 708.701 605.6C708.275 605.967 707.657 606.151 706.845 606.151ZM718.81 623.319C717.572 623.319 716.48 623.019 715.533 622.42C714.605 621.821 713.88 620.96 713.358 619.839C712.836 618.718 712.575 617.393 712.575 615.866C712.575 614.339 712.836 613.024 713.358 611.922C713.88 610.82 714.605 609.969 715.533 609.37C716.48 608.771 717.572 608.471 718.81 608.471C719.931 608.471 720.917 608.742 721.768 609.283C722.638 609.824 723.227 610.53 723.537 611.4H723.218V604.527C723.218 603.792 723.401 603.241 723.769 602.874C724.136 602.487 724.677 602.294 725.393 602.294C726.089 602.294 726.63 602.487 727.017 602.874C727.403 603.241 727.597 603.792 727.597 604.527V621.028C727.597 621.743 727.403 622.294 727.017 622.681C726.649 623.068 726.118 623.261 725.422 623.261C724.726 623.261 724.184 623.068 723.798 622.681C723.43 622.294 723.247 621.743 723.247 621.028V619.056L723.566 620.187C723.295 621.134 722.715 621.898 721.826 622.478C720.956 623.039 719.95 623.319 718.81 623.319ZM720.115 620.042C720.753 620.042 721.304 619.887 721.768 619.578C722.232 619.269 722.599 618.814 722.87 618.215C723.14 617.596 723.276 616.813 723.276 615.866C723.276 614.455 722.986 613.42 722.406 612.763C721.826 612.086 721.062 611.748 720.115 611.748C719.496 611.748 718.945 611.893 718.462 612.183C717.998 612.473 717.63 612.927 717.36 613.546C717.108 614.145 716.983 614.919 716.983 615.866C716.983 617.277 717.273 618.331 717.853 619.027C718.433 619.704 719.187 620.042 720.115 620.042Z" fill="black"/>
</svg>
