<svg width="32" height="25" viewBox="0 0 32 25" fill="none" xmlns="http://www.w3.org/2000/svg">
<path d="M25.8728 10.1469C25.5474 4.98125 22.0442 0 15.619 0C9.74248 0 5.21067 4.47891 4.97067 10.4563C1.75543 11.482 0 15.0102 0 17.5781C0 21.532 3.20457 25 6.85714 25H11.8095C11.9106 25 12.0075 24.9588 12.0789 24.8856C12.1503 24.8123 12.1905 24.713 12.1905 24.6094C12.1905 24.5058 12.1503 24.4064 12.0789 24.3332C12.0075 24.2599 11.9106 24.2188 11.8095 24.2188H6.85714C3.6099 24.2188 0.761905 21.1156 0.761905 17.5781C0.761905 15.1945 2.79924 10.9375 6.85714 10.9375H8C8.10104 10.9375 8.19793 10.8963 8.26937 10.8231C8.34082 10.7498 8.38095 10.6505 8.38095 10.5469C8.38095 10.4433 8.34082 10.3439 8.26937 10.2707C8.19793 10.1974 8.10104 10.1562 8 10.1562H6.85714C6.46933 10.1562 6.10286 10.2008 5.74552 10.2648C6.04419 5.58516 9.51314 0.78125 15.619 0.78125C22.1623 0.78125 25.1429 6.04609 25.1429 10.9375V12.1094C25.1429 12.213 25.183 12.3123 25.2544 12.3856C25.3259 12.4588 25.4228 12.5 25.5238 12.5C25.6248 12.5 25.7217 12.4588 25.7932 12.3856C25.8646 12.3123 25.9048 12.213 25.9048 12.1094V10.9375V10.9305C28.205 11.1891 31.2381 13.7203 31.2381 17.5781C31.2381 20.5672 28.4259 24.2188 25.1429 24.2188H19.4286C16.9615 24.2188 16 23.2328 16 20.7031V9.98672L19.107 13.1664C19.1421 13.2038 19.1841 13.2336 19.2306 13.2541C19.277 13.2747 19.327 13.2855 19.3776 13.286C19.4282 13.2865 19.4783 13.2767 19.5252 13.2572C19.572 13.2376 19.6146 13.2086 19.6504 13.172C19.6862 13.1354 19.7146 13.0918 19.7338 13.0438C19.753 12.9959 19.7627 12.9445 19.7624 12.8926C19.762 12.8407 19.7516 12.7894 19.7317 12.7418C19.7118 12.6941 19.6828 12.6509 19.6465 12.6148L16.2476 9.13672C15.795 8.67422 15.4438 8.67422 14.992 9.13672L11.5931 12.6148C11.5237 12.6885 11.4854 12.7872 11.4862 12.8896C11.4871 12.992 11.5272 13.09 11.5978 13.1624C11.6684 13.2349 11.764 13.2759 11.8638 13.2768C11.9637 13.2777 12.06 13.2383 12.1318 13.1672L15.2381 9.98672V20.7031C15.2381 23.675 16.5303 25 19.4286 25H25.1429C28.8358 25 32 20.9188 32 17.5781C32 13.5414 28.7825 10.3844 25.8728 10.1469Z" fill="#58985F"/>
</svg>
