<svg width="1000" height="821" viewBox="0 0 1000 821" fill="none" xmlns="http://www.w3.org/2000/svg">
<path d="M112.892 163.911C74.2395 215.872 49.3866 292.22 68.2346 356.166C100.441 465.456 237.107 473.691 330.71 486.338C395.22 495.063 459.362 545.774 514.534 577.245C588.063 619.205 706.347 685.406 791.151 642.416C861.445 606.804 899.24 520.652 920.808 449.181C954.607 337.269 957.867 202.269 884.289 104.769C784.141 -27.5837 608.945 -5.52484 463.382 17.1222C365.955 32.2938 271.249 47.0732 184.632 98.7154C156.666 115.522 132.288 137.676 112.892 163.911V163.911Z" fill="#252B34"/>
<path opacity="0.4" d="M112.892 163.911C74.2395 215.872 49.3866 292.22 68.2346 356.166C100.441 465.456 237.107 473.691 330.71 486.338C395.22 495.063 459.362 545.774 514.534 577.245C588.063 619.205 706.347 685.406 791.151 642.416C861.445 606.804 899.24 520.652 920.808 449.181C954.607 337.269 957.867 202.269 884.289 104.769C784.141 -27.5837 608.945 -5.52484 463.382 17.1222C365.955 32.2938 271.249 47.0732 184.632 98.7154C156.666 115.522 132.288 137.676 112.892 163.911V163.911Z" fill="white"/>
<path d="M0 788.324C0 797.05 223.799 804.133 500 804.133C776.201 804.133 1000 797.05 1000 788.324C1000 779.599 776.201 772.516 500.123 772.516C224.044 772.516 0 779.599 0 788.324Z" fill="#252B34"/>
<path opacity="0.6" d="M0 788.324C0 797.05 223.799 804.133 500 804.133C776.201 804.133 1000 797.05 1000 788.324C1000 779.599 776.201 772.516 500.123 772.516C224.044 772.516 0 779.599 0 788.324Z" fill="white"/>
<path d="M556.422 5.25781H112.427V568.444H556.422V5.25781Z" fill="white" stroke="#263238" stroke-width="0.75" stroke-linecap="round" stroke-linejoin="round"/>
<path d="M556.422 5.25781H112.427V38.8608H556.422V5.25781Z" fill="#263238" stroke="#263238" stroke-width="0.75" stroke-linecap="round" stroke-linejoin="round"/>
<path d="M200.123 398.055H125.074V557.344H200.123V398.055Z" fill="#252B34"/>
<path opacity="0.6" d="M200.123 398.055H125.074V557.344H200.123V398.055Z" fill="white"/>
<path d="M281.961 398.055H206.912V557.344H281.961V398.055Z" fill="#252B34"/>
<path opacity="0.6" d="M281.961 398.055H206.912V557.344H281.961V398.055Z" fill="white"/>
<path d="M368.922 398.055H293.873V557.344H368.922V398.055Z" fill="#252B34"/>
<path opacity="0.6" d="M368.922 398.055H293.873V557.344H368.922V398.055Z" fill="white"/>
<path d="M455.858 398.055H380.809V557.344H455.858V398.055Z" fill="#252B34"/>
<path opacity="0.6" d="M455.858 398.055H380.809V557.344H455.858V398.055Z" fill="white"/>
<path d="M544.927 398.055H469.878V557.344H544.927V398.055Z" fill="white" stroke="#263238" stroke-width="0.75" stroke-linecap="round" stroke-linejoin="round"/>
<path d="M543.726 18.5391H125.099V57.142H543.726V18.5391Z" fill="#252B34"/>
<path opacity="0.6" d="M543.726 18.5391H125.099V57.142H543.726V18.5391Z" fill="white"/>
<path d="M537.844 26.0391H132.623V43.1224H537.844V26.0391Z" fill="white"/>
<path d="M537.819 26.0391H491.937V43.1224H537.819V26.0391Z" fill="#263238" stroke="#263238" stroke-width="0.75" stroke-linecap="round" stroke-linejoin="round"/>
<path d="M311.422 91.7505H225.638C224.76 91.7505 223.919 91.4019 223.298 90.7814C222.678 90.1608 222.329 89.3192 222.329 88.4416C222.329 87.5641 222.678 86.7225 223.298 86.102C223.919 85.4814 224.76 85.1328 225.638 85.1328H311.422C312.3 85.1328 313.141 85.4814 313.762 86.102C314.382 86.7225 314.731 87.5641 314.731 88.4416C314.731 89.3192 314.382 90.1608 313.762 90.7814C313.141 91.4019 312.3 91.7505 311.422 91.7505V91.7505Z" fill="#263238"/>
<path d="M311.422 114.816H225.637C225.18 114.856 224.72 114.8 224.286 114.652C223.852 114.504 223.454 114.268 223.116 113.958C222.778 113.648 222.508 113.271 222.324 112.851C222.139 112.432 222.044 111.978 222.044 111.52C222.044 111.061 222.139 110.608 222.324 110.188C222.508 109.768 222.778 109.391 223.116 109.082C223.454 108.772 223.852 108.535 224.286 108.387C224.72 108.24 225.18 108.184 225.637 108.223H311.422C312.247 108.294 313.015 108.673 313.575 109.283C314.135 109.893 314.446 110.691 314.446 111.52C314.446 112.348 314.135 113.146 313.575 113.757C313.015 114.367 312.247 114.745 311.422 114.816Z" fill="#263238"/>
<path d="M311.422 137.907H225.638C224.76 137.907 223.919 137.558 223.298 136.938C222.678 136.317 222.329 135.475 222.329 134.598C222.329 133.72 222.678 132.879 223.298 132.258C223.919 131.638 224.76 131.289 225.638 131.289H311.422C312.3 131.289 313.141 131.638 313.762 132.258C314.382 132.879 314.731 133.72 314.731 134.598C314.731 135.475 314.382 136.317 313.762 136.938C313.141 137.558 312.3 137.907 311.422 137.907Z" fill="#263238"/>
<path d="M311.422 160.968H133.383C132.557 160.897 131.789 160.519 131.229 159.908C130.669 159.298 130.358 158.5 130.358 157.672C130.358 156.843 130.669 156.045 131.229 155.435C131.789 154.824 132.557 154.446 133.383 154.375H311.422C312.247 154.446 313.016 154.824 313.576 155.435C314.136 156.045 314.446 156.843 314.446 157.672C314.446 158.5 314.136 159.298 313.576 159.908C313.016 160.519 312.247 160.897 311.422 160.968Z" fill="#263238"/>
<path d="M311.422 184.055H133.383C132.505 184.055 131.664 183.707 131.043 183.086C130.423 182.465 130.074 181.624 130.074 180.746C130.074 179.869 130.423 179.027 131.043 178.407C131.664 177.786 132.505 177.438 133.383 177.438H311.422C312.3 177.438 313.141 177.786 313.762 178.407C314.382 179.027 314.731 179.869 314.731 180.746C314.731 181.624 314.382 182.465 313.762 183.086C313.141 183.707 312.3 184.055 311.422 184.055Z" fill="#263238"/>
<path d="M311.422 207.141H133.383C132.505 207.141 131.664 206.792 131.043 206.172C130.423 205.551 130.074 204.71 130.074 203.832C130.074 202.955 130.423 202.113 131.043 201.493C131.664 200.872 132.505 200.523 133.383 200.523H311.422C312.3 200.523 313.141 200.872 313.762 201.493C314.382 202.113 314.731 202.955 314.731 203.832C314.731 204.71 314.382 205.551 313.762 206.172C313.141 206.792 312.3 207.141 311.422 207.141V207.141Z" fill="#263238"/>
<path d="M311.422 230.21H133.383C132.557 230.139 131.789 229.761 131.229 229.151C130.669 228.54 130.358 227.742 130.358 226.914C130.358 226.085 130.669 225.287 131.229 224.677C131.789 224.067 132.557 223.688 133.383 223.617H311.422C312.247 223.688 313.016 224.067 313.576 224.677C314.136 225.287 314.446 226.085 314.446 226.914C314.446 227.742 314.136 228.54 313.576 229.151C313.016 229.761 312.247 230.139 311.422 230.21Z" fill="#263238"/>
<path d="M311.422 250.726H133.383C132.557 250.655 131.789 250.277 131.229 249.666C130.669 249.056 130.358 248.258 130.358 247.429C130.358 246.601 130.669 245.803 131.229 245.193C131.789 244.582 132.557 244.204 133.383 244.133H311.422C312.247 244.204 313.016 244.582 313.576 245.193C314.136 245.803 314.446 246.601 314.446 247.429C314.446 248.258 314.136 249.056 313.576 249.666C313.016 250.277 312.247 250.655 311.422 250.726V250.726Z" fill="#263238"/>
<path d="M311.422 273.883H133.383C132.505 273.883 131.664 273.535 131.043 272.914C130.423 272.294 130.074 271.452 130.074 270.574C130.074 269.697 130.423 268.855 131.043 268.235C131.664 267.614 132.505 267.266 133.383 267.266H311.422C312.3 267.266 313.141 267.614 313.762 268.235C314.382 268.855 314.731 269.697 314.731 270.574C314.731 271.452 314.382 272.294 313.762 272.914C313.141 273.535 312.3 273.883 311.422 273.883V273.883Z" fill="#263238"/>
<path d="M311.422 296.874H133.383C132.557 296.803 131.789 296.425 131.229 295.815C130.669 295.204 130.358 294.406 130.358 293.578C130.358 292.75 130.669 291.951 131.229 291.341C131.789 290.731 132.557 290.352 133.383 290.281H311.422C312.247 290.352 313.016 290.731 313.576 291.341C314.136 291.951 314.446 292.75 314.446 293.578C314.446 294.406 314.136 295.204 313.576 295.815C313.016 296.425 312.247 296.803 311.422 296.874V296.874Z" fill="#263238"/>
<path d="M311.422 319.961H133.383C132.505 319.961 131.664 319.613 131.043 318.992C130.423 318.372 130.074 317.53 130.074 316.653C130.074 315.775 130.423 314.933 131.043 314.313C131.664 313.692 132.505 313.344 133.383 313.344H311.422C312.3 313.344 313.141 313.692 313.762 314.313C314.382 314.933 314.731 315.775 314.731 316.653C314.731 317.53 314.382 318.372 313.762 318.992C313.141 319.613 312.3 319.961 311.422 319.961Z" fill="#263238"/>
<path d="M311.422 343.023H133.383C132.557 342.952 131.789 342.573 131.229 341.963C130.669 341.353 130.358 340.555 130.358 339.726C130.358 338.898 130.669 338.1 131.229 337.489C131.789 336.879 132.557 336.501 133.383 336.43H311.422C312.247 336.501 313.016 336.879 313.576 337.489C314.136 338.1 314.446 338.898 314.446 339.726C314.446 340.555 314.136 341.353 313.576 341.963C313.016 342.573 312.247 342.952 311.422 343.023Z" fill="#263238"/>
<path d="M311.422 366.117H133.383C132.557 366.045 131.789 365.667 131.229 365.057C130.669 364.446 130.358 363.648 130.358 362.82C130.358 361.992 130.669 361.194 131.229 360.583C131.789 359.973 132.557 359.595 133.383 359.523H311.422C312.247 359.595 313.016 359.973 313.576 360.583C314.136 361.194 314.446 361.992 314.446 362.82C314.446 363.648 314.136 364.446 313.576 365.057C313.016 365.667 312.247 366.045 311.422 366.117V366.117Z" fill="#263238"/>
<path d="M540.588 91.7505H362.622C361.745 91.7505 360.903 91.4019 360.283 90.7814C359.662 90.1608 359.313 89.3192 359.313 88.4416C359.313 87.5641 359.662 86.7225 360.283 86.102C360.903 85.4814 361.745 85.1328 362.622 85.1328H540.588C541.466 85.1328 542.307 85.4814 542.928 86.102C543.548 86.7225 543.897 87.5641 543.897 88.4416C543.897 89.3192 543.548 90.1608 542.928 90.7814C542.307 91.4019 541.466 91.7505 540.588 91.7505Z" fill="#263238"/>
<path d="M540.588 114.816H362.623C362.166 114.856 361.706 114.8 361.272 114.652C360.838 114.504 360.439 114.268 360.101 113.958C359.763 113.648 359.494 113.271 359.309 112.851C359.125 112.432 359.029 111.978 359.029 111.52C359.029 111.061 359.125 110.608 359.309 110.188C359.494 109.768 359.763 109.391 360.101 109.082C360.439 108.772 360.838 108.535 361.272 108.387C361.706 108.24 362.166 108.184 362.623 108.223H540.588C541.045 108.184 541.505 108.24 541.939 108.387C542.373 108.535 542.772 108.772 543.11 109.082C543.448 109.391 543.717 109.768 543.902 110.188C544.086 110.608 544.182 111.061 544.182 111.52C544.182 111.978 544.086 112.432 543.902 112.851C543.717 113.271 543.448 113.648 543.11 113.958C542.772 114.268 542.373 114.504 541.939 114.652C541.505 114.8 541.045 114.856 540.588 114.816Z" fill="#263238"/>
<path d="M540.588 137.907H362.622C361.745 137.907 360.903 137.558 360.283 136.938C359.662 136.317 359.313 135.475 359.313 134.598C359.313 133.72 359.662 132.879 360.283 132.258C360.903 131.638 361.745 131.289 362.622 131.289H540.588C541.466 131.289 542.307 131.638 542.928 132.258C543.548 132.879 543.897 133.72 543.897 134.598C543.897 135.475 543.548 136.317 542.928 136.938C542.307 137.558 541.466 137.907 540.588 137.907Z" fill="#263238"/>
<path d="M540.588 160.965H362.623C362.166 161.004 361.706 160.948 361.272 160.8C360.838 160.653 360.439 160.416 360.101 160.106C359.763 159.796 359.494 159.42 359.309 159C359.125 158.58 359.029 158.127 359.029 157.668C359.029 157.21 359.125 156.756 359.309 156.336C359.494 155.917 359.763 155.54 360.101 155.23C360.439 154.92 360.838 154.684 361.272 154.536C361.706 154.388 362.166 154.332 362.623 154.372H540.588C541.045 154.332 541.505 154.388 541.939 154.536C542.373 154.684 542.772 154.92 543.11 155.23C543.448 155.54 543.717 155.917 543.902 156.336C544.086 156.756 544.182 157.21 544.182 157.668C544.182 158.127 544.086 158.58 543.902 159C543.717 159.42 543.448 159.796 543.11 160.106C542.772 160.416 542.373 160.653 541.939 160.8C541.505 160.948 541.045 161.004 540.588 160.965V160.965Z" fill="#263238"/>
<path d="M540.588 184.055H362.622C361.745 184.055 360.903 183.707 360.283 183.086C359.662 182.465 359.313 181.624 359.313 180.746C359.313 179.869 359.662 179.027 360.283 178.407C360.903 177.786 361.745 177.438 362.622 177.438H540.588C541.466 177.438 542.307 177.786 542.928 178.407C543.548 179.027 543.897 179.869 543.897 180.746C543.897 181.624 543.548 182.465 542.928 183.086C542.307 183.707 541.466 184.055 540.588 184.055Z" fill="#263238"/>
<path d="M540.588 207.141H362.622C362.188 207.141 361.758 207.055 361.356 206.889C360.955 206.723 360.59 206.479 360.283 206.172C359.975 205.865 359.732 205.5 359.565 205.098C359.399 204.697 359.313 204.267 359.313 203.832C359.313 203.398 359.399 202.967 359.565 202.566C359.732 202.165 359.975 201.8 360.283 201.493C360.59 201.185 360.955 200.942 361.356 200.775C361.758 200.609 362.188 200.523 362.622 200.523H540.588C541.023 200.523 541.453 200.609 541.854 200.775C542.256 200.942 542.62 201.185 542.928 201.493C543.235 201.8 543.479 202.165 543.645 202.566C543.811 202.967 543.897 203.398 543.897 203.832C543.897 204.267 543.811 204.697 543.645 205.098C543.479 205.5 543.235 205.865 542.928 206.172C542.62 206.479 542.256 206.723 541.854 206.889C541.453 207.055 541.023 207.141 540.588 207.141V207.141Z" fill="#263238"/>
<path d="M540.588 230.207H362.623C362.166 230.246 361.706 230.19 361.272 230.043C360.838 229.895 360.439 229.659 360.101 229.349C359.763 229.039 359.494 228.662 359.309 228.242C359.125 227.822 359.029 227.369 359.029 226.91C359.029 226.452 359.125 225.998 359.309 225.579C359.494 225.159 359.763 224.782 360.101 224.472C360.439 224.162 360.838 223.926 361.272 223.778C361.706 223.63 362.166 223.574 362.623 223.614H540.588C541.045 223.574 541.505 223.63 541.939 223.778C542.373 223.926 542.772 224.162 543.11 224.472C543.448 224.782 543.717 225.159 543.902 225.579C544.086 225.998 544.182 226.452 544.182 226.91C544.182 227.369 544.086 227.822 543.902 228.242C543.717 228.662 543.448 229.039 543.11 229.349C542.772 229.659 542.373 229.895 541.939 230.043C541.505 230.19 541.045 230.246 540.588 230.207V230.207Z" fill="#263238"/>
<path d="M543.799 245.727H362.427V372.222H543.799V245.727Z" fill="#252B34"/>
<path opacity="0.6" d="M543.799 245.727H362.427V372.222H543.799V245.727Z" fill="white"/>
<path d="M607.182 71.4375H422.329V567.295H607.182V71.4375Z" fill="#252B34"/>
<path opacity="0.4" d="M607.182 71.4375H422.329V567.295H607.182V71.4375Z" fill="white"/>
<path d="M880.147 52.8828H436.152V616.069H880.147V52.8828Z" fill="white" stroke="#263238" stroke-width="0.75" stroke-linecap="round" stroke-linejoin="round"/>
<path d="M880.147 52.8828H436.152V86.4858H880.147V52.8828Z" fill="#263238" stroke="#263238" stroke-width="0.75" stroke-linecap="round" stroke-linejoin="round"/>
<path d="M741.618 132.633H585.711V424.079H741.618V132.633Z" fill="#252B34"/>
<path opacity="0.6" d="M741.618 132.633H585.711V424.079H741.618V132.633Z" fill="white"/>
<path d="M867.476 445.648H448.849V604.938H867.476V445.648Z" fill="#252B34"/>
<path opacity="0.6" d="M867.476 445.648H448.849V604.938H867.476V445.648Z" fill="white"/>
<path d="M867.476 66.1641H448.849V104.767H867.476V66.1641Z" fill="#252B34"/>
<path opacity="0.6" d="M867.476 66.1641H448.849V104.767H867.476V66.1641Z" fill="white"/>
<path d="M861.594 73.6641H456.373V90.7474H861.594V73.6641Z" fill="white"/>
<path d="M861.569 73.6641H815.687V90.7474H861.569V73.6641Z" fill="#263238" stroke="#263238" stroke-width="0.75" stroke-linecap="round" stroke-linejoin="round"/>
<path d="M559.51 139.348H452.671C452.215 139.387 451.755 139.331 451.321 139.183C450.887 139.036 450.488 138.799 450.15 138.489C449.812 138.179 449.542 137.802 449.358 137.383C449.173 136.963 449.078 136.51 449.078 136.051C449.078 135.593 449.173 135.139 449.358 134.719C449.542 134.3 449.812 133.923 450.15 133.613C450.488 133.303 450.887 133.066 451.321 132.919C451.755 132.771 452.215 132.715 452.671 132.754H559.51C559.966 132.715 560.426 132.771 560.861 132.919C561.295 133.066 561.693 133.303 562.031 133.613C562.369 133.923 562.639 134.3 562.823 134.719C563.008 135.139 563.103 135.593 563.103 136.051C563.103 136.51 563.008 136.963 562.823 137.383C562.639 137.802 562.369 138.179 562.031 138.489C561.693 138.799 561.295 139.036 560.861 139.183C560.426 139.331 559.966 139.387 559.51 139.348V139.348Z" fill="#263238"/>
<path d="M559.51 162.438H452.672C451.795 162.438 450.953 162.089 450.332 161.469C449.712 160.848 449.363 160.007 449.363 159.129C449.363 158.252 449.712 157.41 450.332 156.789C450.953 156.169 451.795 155.82 452.672 155.82H559.51C560.388 155.82 561.23 156.169 561.85 156.789C562.471 157.41 562.819 158.252 562.819 159.129C562.819 160.007 562.471 160.848 561.85 161.469C561.23 162.089 560.388 162.438 559.51 162.438V162.438Z" fill="#263238"/>
<path d="M559.51 185.504H452.671C452.215 185.543 451.755 185.487 451.321 185.34C450.887 185.192 450.488 184.955 450.15 184.645C449.812 184.335 449.542 183.959 449.358 183.539C449.173 183.119 449.078 182.666 449.078 182.207C449.078 181.749 449.173 181.295 449.358 180.876C449.542 180.456 449.812 180.079 450.15 179.769C450.488 179.459 450.887 179.223 451.321 179.075C451.755 178.927 452.215 178.871 452.671 178.911H559.51C559.966 178.871 560.426 178.927 560.861 179.075C561.295 179.223 561.693 179.459 562.031 179.769C562.369 180.079 562.639 180.456 562.823 180.876C563.008 181.295 563.103 181.749 563.103 182.207C563.103 182.666 563.008 183.119 562.823 183.539C562.639 183.959 562.369 184.335 562.031 184.645C561.693 184.955 561.295 185.192 560.861 185.34C560.426 185.487 559.966 185.543 559.51 185.504V185.504Z" fill="#263238"/>
<path d="M559.51 208.586H452.672C452.238 208.586 451.807 208.501 451.406 208.335C451.004 208.168 450.64 207.925 450.332 207.617C450.025 207.31 449.781 206.945 449.615 206.544C449.449 206.142 449.363 205.712 449.363 205.278C449.363 204.843 449.449 204.413 449.615 204.011C449.781 203.61 450.025 203.245 450.332 202.938C450.64 202.631 451.004 202.387 451.406 202.221C451.807 202.054 452.238 201.969 452.672 201.969H559.51C560.388 201.969 561.23 202.317 561.85 202.938C562.471 203.558 562.819 204.4 562.819 205.278C562.819 206.155 562.471 206.997 561.85 207.617C561.23 208.238 560.388 208.586 559.51 208.586V208.586Z" fill="#263238"/>
<path d="M559.51 231.652H452.671C452.215 231.692 451.755 231.636 451.321 231.488C450.887 231.34 450.488 231.104 450.15 230.794C449.812 230.484 449.542 230.107 449.358 229.687C449.173 229.268 449.078 228.814 449.078 228.356C449.078 227.897 449.173 227.444 449.358 227.024C449.542 226.604 449.812 226.227 450.15 225.917C450.488 225.608 450.887 225.371 451.321 225.223C451.755 225.076 452.215 225.02 452.671 225.059H559.51C559.966 225.02 560.426 225.076 560.861 225.223C561.295 225.371 561.693 225.608 562.031 225.917C562.369 226.227 562.639 226.604 562.823 227.024C563.008 227.444 563.103 227.897 563.103 228.356C563.103 228.814 563.008 229.268 562.823 229.687C562.639 230.107 562.369 230.484 562.031 230.794C561.693 231.104 561.295 231.34 560.861 231.488C560.426 231.636 559.966 231.692 559.51 231.652V231.652Z" fill="#263238"/>
<path d="M559.51 254.738H452.671C452.215 254.778 451.755 254.722 451.321 254.574C450.887 254.426 450.488 254.19 450.15 253.88C449.812 253.57 449.542 253.193 449.358 252.773C449.173 252.354 449.078 251.9 449.078 251.442C449.078 250.983 449.173 250.53 449.358 250.11C449.542 249.69 449.812 249.313 450.15 249.003C450.488 248.693 450.887 248.457 451.321 248.309C451.755 248.162 452.215 248.106 452.671 248.145H559.51C559.966 248.106 560.426 248.162 560.861 248.309C561.295 248.457 561.693 248.693 562.031 249.003C562.369 249.313 562.639 249.69 562.823 250.11C563.008 250.53 563.103 250.983 563.103 251.442C563.103 251.9 563.008 252.354 562.823 252.773C562.639 253.193 562.369 253.57 562.031 253.88C561.693 254.19 561.295 254.426 560.861 254.574C560.426 254.722 559.966 254.778 559.51 254.738V254.738Z" fill="#263238"/>
<path d="M559.51 277.829H452.672C452.238 277.829 451.807 277.743 451.406 277.577C451.004 277.41 450.64 277.167 450.332 276.859C450.025 276.552 449.781 276.187 449.615 275.786C449.449 275.385 449.363 274.954 449.363 274.52C449.363 274.085 449.449 273.655 449.615 273.254C449.781 272.852 450.025 272.487 450.332 272.18C450.64 271.873 451.004 271.629 451.406 271.463C451.807 271.296 452.238 271.211 452.672 271.211H559.51C560.388 271.211 561.23 271.56 561.85 272.18C562.471 272.801 562.819 273.642 562.819 274.52C562.819 275.397 562.471 276.239 561.85 276.859C561.23 277.48 560.388 277.829 559.51 277.829V277.829Z" fill="#263238"/>
<path d="M559.51 298.399H452.672C451.795 298.399 450.953 298.05 450.332 297.43C449.712 296.809 449.363 295.968 449.363 295.09C449.363 294.212 449.712 293.371 450.332 292.75C450.953 292.13 451.795 291.781 452.672 291.781H559.51C560.388 291.781 561.23 292.13 561.85 292.75C562.471 293.371 562.819 294.212 562.819 295.09C562.819 295.968 562.471 296.809 561.85 297.43C561.23 298.05 560.388 298.399 559.51 298.399Z" fill="#263238"/>
<path d="M559.51 321.41H452.671C452.215 321.45 451.755 321.394 451.321 321.246C450.887 321.098 450.488 320.862 450.15 320.552C449.812 320.242 449.542 319.865 449.358 319.445C449.173 319.026 449.078 318.572 449.078 318.114C449.078 317.655 449.173 317.201 449.358 316.782C449.542 316.362 449.812 315.985 450.15 315.675C450.488 315.365 450.887 315.129 451.321 314.981C451.755 314.833 452.215 314.778 452.671 314.817H559.51C559.966 314.778 560.426 314.833 560.861 314.981C561.295 315.129 561.693 315.365 562.031 315.675C562.369 315.985 562.639 316.362 562.823 316.782C563.008 317.201 563.103 317.655 563.103 318.114C563.103 318.572 563.008 319.026 562.823 319.445C562.639 319.865 562.369 320.242 562.031 320.552C561.693 320.862 561.295 321.098 560.861 321.246C560.426 321.394 559.966 321.45 559.51 321.41V321.41Z" fill="#263238"/>
<path d="M559.51 344.5H452.672C451.795 344.5 450.953 344.152 450.332 343.531C449.712 342.911 449.363 342.069 449.363 341.192C449.363 340.314 449.712 339.472 450.332 338.852C450.953 338.231 451.795 337.883 452.672 337.883H559.51C560.388 337.883 561.23 338.231 561.85 338.852C562.471 339.472 562.819 340.314 562.819 341.192C562.819 342.069 562.471 342.911 561.85 343.531C561.23 344.152 560.388 344.5 559.51 344.5Z" fill="#263238"/>
<path d="M559.51 367.559H452.671C452.215 367.598 451.755 367.542 451.321 367.394C450.887 367.246 450.488 367.01 450.15 366.7C449.812 366.39 449.542 366.013 449.358 365.594C449.173 365.174 449.078 364.72 449.078 364.262C449.078 363.803 449.173 363.35 449.358 362.93C449.542 362.51 449.812 362.134 450.15 361.824C450.488 361.514 450.887 361.277 451.321 361.13C451.755 360.982 452.215 360.926 452.671 360.965H559.51C559.966 360.926 560.426 360.982 560.861 361.13C561.295 361.277 561.693 361.514 562.031 361.824C562.369 362.134 562.639 362.51 562.823 362.93C563.008 363.35 563.103 363.803 563.103 364.262C563.103 364.72 563.008 365.174 562.823 365.594C562.639 366.013 562.369 366.39 562.031 366.7C561.693 367.01 561.295 367.246 560.861 367.394C560.426 367.542 559.966 367.598 559.51 367.559Z" fill="#263238"/>
<path d="M559.51 390.649H452.672C451.795 390.649 450.953 390.3 450.332 389.68C449.712 389.059 449.363 388.218 449.363 387.34C449.363 386.462 449.712 385.621 450.332 385C450.953 384.38 451.795 384.031 452.672 384.031H559.51C560.388 384.031 561.23 384.38 561.85 385C562.471 385.621 562.819 386.462 562.819 387.34C562.819 388.218 562.471 389.059 561.85 389.68C561.23 390.3 560.388 390.649 559.51 390.649Z" fill="#263238"/>
<path d="M559.51 413.715H452.671C452.215 413.754 451.755 413.698 451.321 413.551C450.887 413.403 450.488 413.166 450.15 412.856C449.812 412.547 449.542 412.17 449.358 411.75C449.173 411.33 449.078 410.877 449.078 410.418C449.078 409.96 449.173 409.506 449.358 409.086C449.542 408.667 449.812 408.29 450.15 407.98C450.488 407.67 450.887 407.434 451.321 407.286C451.755 407.138 452.215 407.082 452.671 407.122H559.51C559.966 407.082 560.426 407.138 560.861 407.286C561.295 407.434 561.693 407.67 562.031 407.98C562.369 408.29 562.639 408.667 562.823 409.086C563.008 409.506 563.103 409.96 563.103 410.418C563.103 410.877 563.008 411.33 562.823 411.75C562.639 412.17 562.369 412.547 562.031 412.856C561.693 413.166 561.295 413.403 560.861 413.551C560.426 413.698 559.966 413.754 559.51 413.715V413.715Z" fill="#263238"/>
<path d="M559.51 436.801H452.671C452.215 436.84 451.755 436.784 451.321 436.636C450.887 436.489 450.488 436.252 450.15 435.942C449.812 435.632 449.542 435.256 449.358 434.836C449.173 434.416 449.078 433.963 449.078 433.504C449.078 433.046 449.173 432.592 449.358 432.172C449.542 431.753 449.812 431.376 450.15 431.066C450.488 430.756 450.887 430.52 451.321 430.372C451.755 430.224 452.215 430.168 452.671 430.208H559.51C559.966 430.168 560.426 430.224 560.861 430.372C561.295 430.52 561.693 430.756 562.031 431.066C562.369 431.376 562.639 431.753 562.823 432.172C563.008 432.592 563.103 433.046 563.103 433.504C563.103 433.963 563.008 434.416 562.823 434.836C562.639 435.256 562.369 435.632 562.031 435.942C561.693 436.252 561.295 436.489 560.861 436.636C560.426 436.784 559.966 436.84 559.51 436.801V436.801Z" fill="#263238"/>
<path d="M866.667 139.348H759.951C759.494 139.387 759.034 139.331 758.6 139.183C758.166 139.036 757.767 138.799 757.429 138.489C757.092 138.179 756.822 137.802 756.637 137.383C756.453 136.963 756.357 136.51 756.357 136.051C756.357 135.593 756.453 135.139 756.637 134.719C756.822 134.3 757.092 133.923 757.429 133.613C757.767 133.303 758.166 133.066 758.6 132.919C759.034 132.771 759.494 132.715 759.951 132.754H866.789C867.246 132.715 867.706 132.771 868.14 132.919C868.574 133.066 868.973 133.303 869.31 133.613C869.648 133.923 869.918 134.3 870.103 134.719C870.287 135.139 870.382 135.593 870.382 136.051C870.382 136.51 870.287 136.963 870.103 137.383C869.918 137.802 869.648 138.179 869.31 138.489C868.973 138.799 868.574 139.036 868.14 139.183C867.706 139.331 867.246 139.387 866.789 139.348H866.667Z" fill="#263238"/>
<path d="M866.667 162.438H759.951C759.517 162.438 759.087 162.352 758.685 162.186C758.284 162.02 757.919 161.776 757.612 161.469C757.304 161.162 757.061 160.797 756.894 160.395C756.728 159.994 756.643 159.564 756.643 159.129C756.643 158.695 756.728 158.264 756.894 157.863C757.061 157.461 757.304 157.097 757.612 156.789C757.919 156.482 758.284 156.238 758.685 156.072C759.087 155.906 759.517 155.82 759.951 155.82H866.79C867.667 155.82 868.509 156.169 869.129 156.789C869.75 157.41 870.098 158.252 870.098 159.129C870.098 160.007 869.75 160.848 869.129 161.469C868.509 162.089 867.667 162.438 866.79 162.438H866.667Z" fill="#263238"/>
<path d="M866.667 185.504H759.951C759.494 185.543 759.034 185.487 758.6 185.34C758.166 185.192 757.767 184.955 757.429 184.645C757.092 184.335 756.822 183.959 756.637 183.539C756.453 183.119 756.357 182.666 756.357 182.207C756.357 181.749 756.453 181.295 756.637 180.876C756.822 180.456 757.092 180.079 757.429 179.769C757.767 179.459 758.166 179.223 758.6 179.075C759.034 178.927 759.494 178.871 759.951 178.911H866.789C867.246 178.871 867.706 178.927 868.14 179.075C868.574 179.223 868.973 179.459 869.31 179.769C869.648 180.079 869.918 180.456 870.103 180.876C870.287 181.295 870.382 181.749 870.382 182.207C870.382 182.666 870.287 183.119 870.103 183.539C869.918 183.959 869.648 184.335 869.31 184.645C868.973 184.955 868.574 185.192 868.14 185.34C867.706 185.487 867.246 185.543 866.789 185.504H866.667Z" fill="#263238"/>
<path d="M866.667 208.586H759.951C759.517 208.586 759.087 208.501 758.685 208.335C758.284 208.168 757.919 207.925 757.612 207.617C757.304 207.31 757.061 206.945 756.894 206.544C756.728 206.142 756.643 205.712 756.643 205.278C756.643 204.843 756.728 204.413 756.894 204.011C757.061 203.61 757.304 203.245 757.612 202.938C757.919 202.631 758.284 202.387 758.685 202.221C759.087 202.054 759.517 201.969 759.951 201.969H866.79C867.667 201.969 868.509 202.317 869.129 202.938C869.75 203.558 870.098 204.4 870.098 205.278C870.098 206.155 869.75 206.997 869.129 207.617C868.509 208.238 867.667 208.586 866.79 208.586H866.667Z" fill="#263238"/>
<path d="M866.667 231.652H759.951C759.494 231.692 759.034 231.636 758.6 231.488C758.166 231.34 757.767 231.104 757.429 230.794C757.092 230.484 756.822 230.107 756.637 229.687C756.453 229.268 756.357 228.814 756.357 228.356C756.357 227.897 756.453 227.444 756.637 227.024C756.822 226.604 757.092 226.227 757.429 225.917C757.767 225.608 758.166 225.371 758.6 225.223C759.034 225.076 759.494 225.02 759.951 225.059H866.789C867.246 225.02 867.706 225.076 868.14 225.223C868.574 225.371 868.973 225.608 869.31 225.917C869.648 226.227 869.918 226.604 870.103 227.024C870.287 227.444 870.382 227.897 870.382 228.356C870.382 228.814 870.287 229.268 870.103 229.687C869.918 230.107 869.648 230.484 869.31 230.794C868.973 231.104 868.574 231.34 868.14 231.488C867.706 231.636 867.246 231.692 866.789 231.652H866.667Z" fill="#263238"/>
<path d="M866.667 254.738H759.951C759.494 254.778 759.034 254.722 758.6 254.574C758.166 254.426 757.767 254.19 757.429 253.88C757.092 253.57 756.822 253.193 756.637 252.773C756.453 252.354 756.357 251.9 756.357 251.442C756.357 250.983 756.453 250.53 756.637 250.11C756.822 249.69 757.092 249.313 757.429 249.003C757.767 248.693 758.166 248.457 758.6 248.309C759.034 248.162 759.494 248.106 759.951 248.145H866.789C867.246 248.106 867.706 248.162 868.14 248.309C868.574 248.457 868.973 248.693 869.31 249.003C869.648 249.313 869.918 249.69 870.103 250.11C870.287 250.53 870.382 250.983 870.382 251.442C870.382 251.9 870.287 252.354 870.103 252.773C869.918 253.193 869.648 253.57 869.31 253.88C868.973 254.19 868.574 254.426 868.14 254.574C867.706 254.722 867.246 254.778 866.789 254.738H866.667Z" fill="#263238"/>
<path d="M866.667 277.829H759.951C759.517 277.829 759.087 277.743 758.685 277.577C758.284 277.41 757.919 277.167 757.612 276.859C757.304 276.552 757.061 276.187 756.894 275.786C756.728 275.385 756.643 274.954 756.643 274.52C756.643 274.085 756.728 273.655 756.894 273.254C757.061 272.852 757.304 272.487 757.612 272.18C757.919 271.873 758.284 271.629 758.685 271.463C759.087 271.296 759.517 271.211 759.951 271.211H866.79C867.667 271.211 868.509 271.56 869.129 272.18C869.75 272.801 870.098 273.642 870.098 274.52C870.098 275.397 869.75 276.239 869.129 276.859C868.509 277.48 867.667 277.829 866.79 277.829H866.667Z" fill="#263238"/>
<path d="M867.549 293.32H757.279V419.815H867.549V293.32Z" fill="#252B34"/>
<path opacity="0.6" d="M867.549 293.32H757.279V419.815H867.549V293.32Z" fill="white"/>
<path d="M922.524 522.399C921.862 497.497 923.798 454.997 901.936 437.497C882.745 422.129 867.818 442.987 862.45 459.801C849.387 500.61 850.784 654.188 854.166 685.119C854.166 685.119 850.833 654.139 826.495 667.423C802.156 680.708 838.749 750.438 838.749 750.438C838.749 750.438 809.975 729.409 796.691 747.105C783.406 764.801 813.308 784.752 813.308 784.752C813.308 784.752 785.637 777.007 785.637 784.752C785.637 792.497 794.485 799.139 819.95 802.472H957.205C957.205 802.472 979.264 790.218 974.926 777.007C970.588 763.796 947.156 771.443 947.156 771.443C947.156 771.443 982.573 728.281 980.343 709.458C978.112 690.634 932.745 712.767 932.745 712.767C932.745 712.767 968.186 623.11 961.544 583.257C956.298 551.86 931.936 573.453 918.676 585.414C921.794 564.561 923.081 543.476 922.524 522.399V522.399Z" fill="#252B34"/>
<path opacity="0.1" d="M922.524 522.399C921.862 497.497 923.798 454.997 901.936 437.497C882.745 422.129 867.818 442.987 862.45 459.801C849.387 500.61 850.784 654.188 854.166 685.119C854.166 685.119 850.833 654.139 826.495 667.423C802.156 680.708 838.749 750.438 838.749 750.438C838.749 750.438 809.975 729.409 796.691 747.105C783.406 764.801 813.308 784.752 813.308 784.752C813.308 784.752 785.637 777.007 785.637 784.752C785.637 792.497 794.485 799.139 819.95 802.472H957.205C957.205 802.472 979.264 790.218 974.926 777.007C970.588 763.796 947.156 771.443 947.156 771.443C947.156 771.443 982.573 728.281 980.343 709.458C978.112 690.634 932.745 712.767 932.745 712.767C932.745 712.767 968.186 623.11 961.544 583.257C956.298 551.86 931.936 573.453 918.676 585.414C921.794 564.561 923.081 543.476 922.524 522.399V522.399Z" fill="black"/>
<path d="M878.382 799.503L888.48 496.93" stroke="#252B34" stroke-width="1.72695" stroke-linecap="round" stroke-linejoin="round"/>
<path d="M884.044 674.069L936.078 625.344" stroke="#252B34" stroke-width="1.72695" stroke-linecap="round" stroke-linejoin="round"/>
<path d="M908.406 651.91L919.46 620.93" stroke="#252B34" stroke-width="1.72695" stroke-linecap="round" stroke-linejoin="round"/>
<path d="M840.882 711.688L879.975 753.379" stroke="#252B34" stroke-width="1.72695" stroke-linecap="round" stroke-linejoin="round"/>
<path d="M947.157 736.047L880.735 770.361" stroke="#252B34" stroke-width="1.72695" stroke-linecap="round" stroke-linejoin="round"/>
<path d="M913.676 752.961L936.078 754.873" stroke="#252B34" stroke-width="1.72695" stroke-linecap="round" stroke-linejoin="round"/>
<path d="M423.162 803.637C423.162 812.754 336.274 820.156 229.117 820.156C121.961 820.156 35.0488 812.804 35.0488 803.637C35.0488 794.47 121.936 787.117 229.117 787.117C336.299 787.117 423.162 794.519 423.162 803.637Z" fill="#263238"/>
<path d="M132.5 500.228C132.5 500.228 147.5 492.63 154.02 499.15C160.539 505.67 157.917 575.425 159.878 597.581C161.065 610.797 163.503 623.87 167.157 636.625C167.157 636.625 145.637 632.728 129.338 624.371C129.338 624.371 115 554.763 132.5 500.228Z" fill="#263238" stroke="#263238" stroke-width="0.75" stroke-linecap="round" stroke-linejoin="round"/>
<path d="M431.152 658.194C429.388 658.192 427.677 657.594 426.296 656.497C424.915 655.4 423.945 653.868 423.545 652.15C423.145 650.432 423.337 648.629 424.09 647.035C424.844 645.44 426.115 644.147 427.696 643.366L498.554 611.503L553.554 548.243C554.89 546.657 556.801 545.666 558.867 545.489C560.933 545.313 562.985 545.964 564.571 547.299C566.157 548.635 567.148 550.546 567.325 552.613C567.502 554.679 566.851 556.73 565.515 558.317L509.461 622.826C508.79 623.65 507.955 624.326 507.01 624.812L434.657 657.385C433.572 657.935 432.369 658.213 431.152 658.194Z" fill="white" stroke="#263238" stroke-width="0.75" stroke-linecap="round" stroke-linejoin="round"/>
<path d="M479.607 630.576L487.377 627.047" stroke="#263238" stroke-width="0.75" stroke-linecap="round" stroke-linejoin="round"/>
<path d="M443.774 646.869L474.485 632.898" stroke="#263238" stroke-width="0.75" stroke-linecap="round" stroke-linejoin="round"/>
<path d="M548.799 568.906L528.333 592.044" stroke="#263238" stroke-width="0.75" stroke-linecap="round" stroke-linejoin="round"/>
<path d="M525.024 595.352L520.392 600.621" stroke="#263238" stroke-width="0.75" stroke-linecap="round" stroke-linejoin="round"/>
<path d="M440.588 686.302C449.256 649.747 426.649 613.087 390.094 604.419C353.539 595.752 316.879 618.359 308.212 654.913C299.544 691.468 322.151 728.128 358.706 736.796C395.261 745.463 431.921 722.856 440.588 686.302Z" fill="#252B34" stroke="#263238" stroke-width="0.747671" stroke-linecap="round" stroke-linejoin="round"/>
<path d="M204.387 418.836C204.387 418.836 214.191 441.826 216.25 446.311C218.308 450.797 220.269 452.022 219.803 453.444C219.338 454.865 214.338 456.507 214.338 456.507C215.032 463.581 213.804 470.711 210.784 477.145C205.882 486.949 196.323 492.071 195.392 498.223C194.843 504.139 194.761 510.089 195.147 516.017L180.686 504.155C180.686 504.155 184.705 492.537 181.152 484.007C178.138 477.027 172.769 471.328 165.98 467.905C157.528 462.357 151.514 453.792 149.166 443.958C147.034 432.561 153.652 420.478 162.426 411.949C171.201 403.419 188.504 405.086 190.416 405.797C192.328 406.507 185.661 400.895 191.593 399.62C197.524 398.346 201.078 406.973 201.397 408.395C201.715 409.816 203.529 402.243 205.441 407.218C207.352 412.194 204.387 418.836 204.387 418.836Z" fill="white"/>
<g style="mix-blend-mode:multiply" opacity="0.5">
<path d="M186.715 509.178C186.63 507.534 186.441 505.897 186.152 504.276C185.196 499.963 191.054 486.531 192.867 470.722C194.681 454.914 182.303 432.83 182.303 432.83L173.235 406.531C169.207 407.394 165.479 409.305 162.426 412.07C153.652 420.6 147.034 432.683 149.166 444.08C151.514 453.914 157.528 462.479 165.98 468.026C172.769 471.449 178.138 477.149 181.152 484.129C184.705 492.659 180.686 504.276 180.686 504.276L186.715 509.178Z" fill="#252B34"/>
</g>
<path d="M204.387 418.836C204.387 418.836 214.191 441.826 216.25 446.311C218.308 450.797 220.269 452.022 219.803 453.444C219.338 454.865 214.338 456.507 214.338 456.507C215.032 463.581 213.804 470.711 210.784 477.145C205.882 486.949 196.323 492.071 195.392 498.223C194.843 504.139 194.761 510.089 195.147 516.017L180.686 504.155C180.686 504.155 184.705 492.537 181.152 484.007C178.138 477.027 172.769 471.328 165.98 467.905C157.528 462.357 151.514 453.792 149.166 443.958C147.034 432.561 153.652 420.478 162.426 411.949C171.201 403.419 188.504 405.086 190.416 405.797C192.328 406.507 185.661 400.895 191.593 399.62C197.524 398.346 201.078 406.973 201.397 408.395C201.715 409.816 203.529 402.243 205.441 407.218C207.352 412.194 204.387 418.836 204.387 418.836Z" stroke="#263238" stroke-width="0.75" stroke-linecap="round" stroke-linejoin="round"/>
<path d="M205.319 431.065C205.319 431.065 201.03 429.888 199.608 433.516C199.161 434.347 198.91 435.268 198.871 436.211C198.833 437.154 199.01 438.093 199.388 438.957" stroke="#263238" stroke-width="0.75" stroke-linecap="round" stroke-linejoin="round"/>
<path d="M210.319 467.187C210.319 467.187 206.054 469.32 203.432 466.477" stroke="#263238" stroke-width="0.75" stroke-linecap="round" stroke-linejoin="round"/>
<path d="M201.961 447.312L182.206 455.866" stroke="#263238" stroke-width="0.75" stroke-linecap="round" stroke-linejoin="round"/>
<path d="M173.946 466.258C171.279 470.186 170.034 474.908 170.417 479.64C171.005 487.728 170.809 498.758 166.667 497.777C162.525 496.797 168.628 484.371 168.628 479.248C168.383 475.344 167.488 471.509 165.981 467.9" stroke="#263238" stroke-width="0.75" stroke-linecap="round" stroke-linejoin="round"/>
<path d="M216.373 441.086L211.716 443.096" stroke="#263238" stroke-width="0.75" stroke-linecap="round" stroke-linejoin="round"/>
<path d="M208.75 445.7C209.363 447.783 209.363 449.622 208.75 449.793C208.137 449.965 207.157 448.421 206.544 446.337C205.931 444.254 205.956 442.416 206.544 442.22C207.132 442.024 208.162 443.592 208.75 445.7Z" fill="#263238"/>
<path d="M211.226 445.697C212.868 450.599 212.451 455.133 210.294 455.868C208.137 456.604 205.049 453.197 203.407 448.319C201.765 443.442 202.181 438.859 204.338 438.123C206.495 437.388 209.583 440.795 211.226 445.697Z" stroke="#263238" stroke-width="0.75" stroke-linecap="round" stroke-linejoin="round"/>
<path d="M178.48 464.689C178.48 464.689 174.583 459.983 178.088 460.375C179.189 460.602 180.208 461.123 181.036 461.883C181.865 462.642 182.472 463.612 182.794 464.689" stroke="#263238" stroke-width="0.5" stroke-linecap="round" stroke-linejoin="round"/>
<path d="M288.063 545.156L274.313 554.887L276.446 566.259L292.108 560.107L288.063 545.156Z" fill="white" stroke="#263238" stroke-width="0.75" stroke-linecap="round" stroke-linejoin="round"/>
<path d="M275.735 552.039L281.912 575.029C281.912 575.029 240.343 594 232.132 599.858C223.922 605.716 217.427 604.122 217.427 604.122L211.985 577.554C211.985 577.554 217.892 580.397 230.466 574.956C243.039 569.515 275.735 552.039 275.735 552.039Z" fill="white" stroke="#263238" stroke-width="0.75" stroke-linecap="round" stroke-linejoin="round"/>
<path d="M296.152 611.873C295.316 611.786 294.54 611.401 293.964 610.789C293.388 610.177 293.051 609.379 293.015 608.54L287.524 517.584C287.469 517.103 287.513 516.615 287.653 516.152C287.794 515.689 288.029 515.259 288.343 514.89C288.657 514.522 289.043 514.221 289.478 514.008C289.913 513.795 290.387 513.674 290.871 513.652C291.354 513.63 291.838 513.708 292.29 513.881C292.742 514.054 293.154 514.318 293.5 514.657C293.846 514.996 294.119 515.402 294.301 515.851C294.483 516.3 294.571 516.781 294.559 517.265L300.049 608.197C300.072 608.66 300.003 609.124 299.847 609.561C299.691 609.998 299.45 610.4 299.138 610.744C298.826 611.087 298.449 611.366 298.029 611.564C297.61 611.762 297.155 611.876 296.691 611.898L296.152 611.873Z" fill="#263238" stroke="#263238" stroke-width="0.75" stroke-linecap="round" stroke-linejoin="round"/>
<path d="M285.686 542.996C284.813 542.959 283.985 542.599 283.361 541.987C282.738 541.374 282.365 540.552 282.313 539.68C282.261 538.807 282.535 537.947 283.081 537.265C283.627 536.582 284.407 536.127 285.269 535.987L299.019 534.32C299.496 534.224 299.988 534.227 300.463 534.329C300.939 534.432 301.388 534.632 301.782 534.916C302.177 535.201 302.508 535.564 302.756 535.982C303.004 536.401 303.162 536.866 303.222 537.349C303.281 537.832 303.24 538.322 303.101 538.788C302.962 539.254 302.728 539.687 302.414 540.058C302.1 540.43 301.712 540.732 301.276 540.947C300.839 541.161 300.363 541.283 299.877 541.305L286.127 542.972L285.686 542.996Z" fill="white" stroke="#263238" stroke-width="0.75" stroke-linecap="round" stroke-linejoin="round"/>
<path d="M286.397 550.105C285.524 550.068 284.695 549.708 284.072 549.095C283.449 548.482 283.076 547.66 283.024 546.788C282.972 545.916 283.246 545.055 283.792 544.373C284.338 543.691 285.118 543.235 285.98 543.095L299.73 541.428C300.658 541.324 301.59 541.59 302.324 542.168C303.058 542.746 303.535 543.59 303.652 544.517C303.706 544.974 303.671 545.437 303.546 545.88C303.422 546.323 303.212 546.738 302.927 547.1C302.643 547.462 302.29 547.764 301.888 547.989C301.487 548.215 301.045 548.359 300.588 548.414L286.838 550.08L286.397 550.105Z" fill="white" stroke="#263238" stroke-width="0.75" stroke-linecap="round" stroke-linejoin="round"/>
<path d="M287.156 556.574C286.296 556.57 285.469 556.239 284.844 555.647C284.219 555.055 283.844 554.247 283.794 553.388C283.744 552.529 284.023 551.683 284.575 551.022C285.127 550.362 285.91 549.937 286.764 549.833L299.926 548.24C300.37 548.181 300.821 548.211 301.253 548.328C301.685 548.445 302.09 548.646 302.443 548.92C302.797 549.195 303.093 549.536 303.313 549.926C303.534 550.315 303.675 550.744 303.729 551.189C303.782 551.633 303.747 552.084 303.625 552.514C303.503 552.945 303.297 553.347 303.019 553.698C302.74 554.048 302.395 554.34 302.003 554.556C301.611 554.772 301.18 554.908 300.735 554.956L287.573 556.549L287.156 556.574Z" fill="white" stroke="#263238" stroke-width="0.75" stroke-linecap="round" stroke-linejoin="round"/>
<path d="M289.363 562.776C288.685 562.708 288.057 562.389 287.603 561.881C287.149 561.372 286.903 560.712 286.912 560.031C286.775 559.296 286.912 558.537 287.295 557.896C287.679 557.256 288.284 556.777 288.995 556.55L298.309 555.055C299.633 554.884 300.76 556.085 300.956 557.8C301.104 558.536 300.973 559.3 300.587 559.943C300.202 560.587 299.591 561.064 298.873 561.281L289.584 562.751L289.363 562.776Z" fill="white" stroke="#263238" stroke-width="0.75" stroke-linecap="round" stroke-linejoin="round"/>
<path d="M284.314 551.576C284.273 552.245 283.989 552.876 283.515 553.35C283.041 553.824 282.409 554.109 281.74 554.149C281.015 554.348 280.242 554.273 279.569 553.938C278.895 553.604 278.368 553.033 278.088 552.335L275.931 543.169C275.637 541.87 276.74 540.595 278.382 540.301C279.104 540.115 279.869 540.196 280.535 540.529C281.202 540.862 281.726 541.426 282.01 542.115L284.191 551.306C284.191 551.306 284.289 551.478 284.314 551.576Z" fill="white" stroke="#263238" stroke-width="0.75" stroke-linecap="round" stroke-linejoin="round"/>
<path d="M175.465 497.039C175.465 497.039 192.304 507.235 200.122 520.029C207.941 532.823 214.583 551.892 218.382 568.632C222.181 585.372 225.245 629.073 227.622 638.093C228.773 642.879 230.527 647.499 232.843 651.843C219.124 656.936 204.555 659.349 189.926 658.951C166.691 657.995 163.137 652.309 163.137 652.309C163.137 652.309 155.318 600.642 156.029 559.613C156.74 518.583 175.465 497.039 175.465 497.039Z" fill="white"/>
<g style="mix-blend-mode:multiply" opacity="0.5">
<path d="M165.539 543.491C165.539 543.491 163.088 547.339 165.049 537.266C166.635 530.219 169.218 523.435 172.72 517.119L184.215 530.06L191.421 530.55L189.509 533.908L203.406 542.535L196.813 534.766L197.279 522.903L186.152 526.334C186.152 526.334 178.946 513.393 177.034 509.177C175.759 506.285 180.024 503.834 183.014 502.535C180.591 500.649 178.072 498.89 175.465 497.266C175.465 497.266 156.74 518.834 156.029 559.839C155.465 592.364 160.269 631.555 162.279 646.408L199.044 644.373L165.539 543.491Z" fill="#252B34"/>
</g>
<path d="M175.465 497.039C175.465 497.039 192.304 507.235 200.122 520.029C207.941 532.823 214.583 551.892 218.382 568.632C222.181 585.372 225.245 629.073 227.622 638.093C228.773 642.879 230.527 647.499 232.843 651.843C219.124 656.936 204.555 659.349 189.926 658.951C166.691 657.995 163.137 652.309 163.137 652.309C163.137 652.309 155.318 600.642 156.029 559.613C156.74 518.583 175.465 497.039 175.465 497.039Z" stroke="#263238" stroke-width="0.75" stroke-linecap="round" stroke-linejoin="round"/>
<path d="M170.49 505.352L188.039 526.43L197.279 522.876L196.814 534.739L210.784 551.577" stroke="#263238" stroke-width="0.75" stroke-linecap="round" stroke-linejoin="round"/>
<path d="M159.706 550.031C159.706 550.031 161.667 569.639 167.525 574.296" stroke="#263238" stroke-width="0.5" stroke-linecap="round" stroke-linejoin="round"/>
<path d="M160.882 571.188C160.882 571.188 163.333 578.54 169.485 580.991" stroke="#263238" stroke-width="0.5" stroke-linecap="round" stroke-linejoin="round"/>
<path d="M211.764 560.594L201.593 564.515L203.161 568.829L212.549 565.3" stroke="#263238" stroke-width="0.5" stroke-linecap="round" stroke-linejoin="round"/>
<path d="M280.367 634.446C279.526 634.444 278.713 634.142 278.075 633.593C277.437 633.045 277.016 632.287 276.887 631.455L264.191 549.004C264.122 548.546 264.144 548.078 264.255 547.628C264.367 547.178 264.566 546.754 264.841 546.38C265.117 546.007 265.463 545.692 265.86 545.452C266.257 545.213 266.698 545.054 267.157 544.985C267.615 544.916 268.083 544.937 268.533 545.049C268.984 545.161 269.407 545.36 269.781 545.635C270.154 545.911 270.469 546.257 270.709 546.654C270.948 547.051 271.107 547.492 271.176 547.951L283.872 630.402C284.006 631.327 283.77 632.268 283.215 633.02C282.66 633.773 281.83 634.276 280.907 634.421L280.367 634.446Z" fill="#263238" stroke="#263238" stroke-width="0.75" stroke-linecap="round" stroke-linejoin="round"/>
<path d="M204.387 418.835C204.387 418.835 207.23 412.192 205.343 407.217C203.456 402.241 201.544 409.815 201.299 408.393C201.054 406.972 197.524 398.442 191.495 399.619C185.466 400.795 192.206 406.506 190.319 405.795C188.431 405.085 171.103 403.344 162.328 411.947C153.554 420.55 146.936 432.56 149.069 443.957C151.416 453.79 157.43 462.356 165.882 467.903C170.319 470.178 174.188 473.42 177.206 477.388C179.753 475.342 182.078 473.034 184.142 470.501C182.91 470.894 181.603 470.993 180.326 470.789C179.048 470.584 177.837 470.083 176.789 469.325C172.99 466.702 171.103 459.129 175.858 455.33C180.613 451.531 185.196 460.158 185.196 460.158C190.098 462.781 188.26 455.893 186.373 452.805C184.485 449.717 187.083 446.384 187.794 441.898C188.505 437.413 182.353 435.722 183.064 431.212C183.774 426.702 204.387 418.835 204.387 418.835Z" fill="#263238" stroke="#263238" stroke-width="0.75" stroke-linecap="round" stroke-linejoin="round"/>
<path d="M192.966 422.019C192.966 422.019 184.363 417.706 178.873 424.47C173.382 431.235 174.583 442.485 170.27 449.127C169.261 450.957 167.858 452.539 166.162 453.76C164.467 454.981 162.521 455.81 160.466 456.186" stroke="white" stroke-width="0.5" stroke-linecap="round" stroke-linejoin="round"/>
<path d="M155.393 444.344C157.984 444.622 160.581 443.875 162.628 442.263C164.676 440.65 166.011 438.301 166.348 435.717C168.309 425.913 179.265 411.844 190.246 411.452C201.226 411.06 200.417 418.805 200.417 418.805" stroke="white" stroke-width="0.5" stroke-linecap="round" stroke-linejoin="round"/>
<path d="M250.147 580.719L257.01 576.209C257.01 576.209 262.942 565.302 263.407 564.592C263.873 563.881 278.358 556.773 279.535 557.729C280.202 558.311 280.72 559.044 281.049 559.867C281.377 560.689 281.505 561.578 281.422 562.459C280.956 563.66 279.29 564.91 279.29 566.038C279.29 567.165 281.201 576.209 281.201 578.587C281.201 580.964 271.397 584.984 267.451 586.185C263.505 587.386 258.211 587.361 257.01 588.317L253.701 590.915L250.147 580.719Z" fill="white" stroke="#263238" stroke-width="0.75" stroke-linecap="round" stroke-linejoin="round"/>
<path d="M170.49 532.852C170.49 532.852 164.338 534.494 166.471 551.798C168.603 569.102 185.907 627.41 192.059 634.543C198.211 641.675 258.235 601.822 258.235 601.822L250.882 579.053C250.882 579.053 210.343 594.935 207.034 595.646C203.726 596.356 194.216 544.69 190.907 538.293" fill="white"/>
<g style="mix-blend-mode:multiply" opacity="0.5">
<path d="M257.132 598.516C244.656 602.462 215.784 611.457 212.034 611.065C207.132 610.6 205.808 607.707 202.916 603.884C200.024 600.06 195.735 615.379 191.887 616.825C188.039 618.271 190.931 599.668 192.377 595.722C193.823 591.776 189.019 597.658 189.019 597.658C189.019 597.658 179.436 578.051 174.632 564.57C171.587 555.77 169.186 546.759 167.451 537.609L166.372 540.256C165.83 544.053 165.83 547.906 166.372 551.703C168.504 569.006 185.808 627.315 191.96 634.448C198.112 641.58 258.137 601.727 258.137 601.727L257.132 598.516Z" fill="#252B34"/>
</g>
<path d="M170.49 532.852C170.49 532.852 164.338 534.494 166.471 551.798C168.603 569.102 185.907 627.41 192.059 634.543C198.211 641.675 258.235 601.822 258.235 601.822L250.882 579.053C250.882 579.053 210.343 594.935 207.034 595.646C203.726 596.356 194.216 544.69 190.907 538.293" stroke="#263238" stroke-width="0.75" stroke-linecap="round" stroke-linejoin="round"/>
<path d="M207.01 595.648C204.594 597.212 202.52 599.25 200.915 601.638C199.309 604.027 198.206 606.717 197.672 609.546" stroke="#263238" stroke-width="0.5" stroke-linecap="round" stroke-linejoin="round"/>
<path d="M198.064 600.914C196.417 602.558 195.117 604.516 194.242 606.671C193.366 608.827 192.932 611.137 192.966 613.463" stroke="#263238" stroke-width="0.5" stroke-linecap="round" stroke-linejoin="round"/>
<path d="M136.961 620.178C136.961 620.178 130.441 598.438 131.299 553.242C132.157 508.046 134.779 503.708 132.598 500.227C130.417 496.747 90.9313 520.007 61.5195 553.904C42.794 575.57 18.8724 607.654 17.3038 658.193C16.0048 698.609 35.2205 731.281 47.2793 740.325C68.1372 755.962 96.6175 754.884 99.6567 754.884H390.735C390.735 754.884 409.412 748.364 413.75 731.428C418.088 714.492 432.868 666.232 402.034 608.438C381.789 570.521 345.539 529.786 339.436 532.825C333.333 535.864 310.539 579.394 279.485 606.698C250.147 632.507 194.314 651.453 136.961 620.178Z" fill="#252B34" stroke="#263238" stroke-width="0.75" stroke-linecap="round" stroke-linejoin="round"/>
<path d="M402.108 608.441C397.769 600.353 392.72 592.142 387.402 584.25C370.392 590.108 327.745 607.608 304.068 642.559C283.75 672.559 297.255 720.157 339.608 754.887H390.76C390.76 754.887 409.436 748.368 413.774 731.407C418.112 714.446 432.867 666.235 402.108 608.441Z" fill="white" stroke="#263238" stroke-width="0.75" stroke-linecap="round" stroke-linejoin="round"/>
<path d="M411.446 699.883C410.989 704.131 410.311 708.486 409.412 712.947" stroke="#263238" stroke-width="0.75" stroke-linecap="round" stroke-linejoin="round"/>
<path d="M396.862 615.82C396.862 615.82 414.485 646.188 412.23 690.477" stroke="#263238" stroke-width="0.75" stroke-linecap="round" stroke-linejoin="round"/>
<path d="M130.049 748.712V705.256C107.377 697.903 92.745 689.178 79.093 680.992C59.4852 669.251 45.7597 637.609 54.9754 617.119C63.4313 598.197 86.8381 589.742 99.2891 598.197C111.44 606.182 123.989 613.544 136.887 620.256C136.887 620.256 130.368 598.516 131.225 553.32C132.083 508.124 134.706 503.786 132.524 500.305C130.343 496.825 90.8577 520.085 61.446 553.982C42.794 575.575 18.8724 607.658 17.3038 658.197C16.0048 698.614 35.2205 731.286 47.2793 740.33C68.1372 755.967 96.6175 754.889 99.6567 754.889H130.049C130.049 752.658 130.049 750.575 130.049 748.712Z" fill="white" stroke="#263238" stroke-width="0.75" stroke-linecap="round" stroke-linejoin="round"/>
<path d="M26.5439 666.703C26.7659 672.054 27.339 677.384 28.2596 682.659" stroke="#263238" stroke-width="0.75" stroke-linecap="round" stroke-linejoin="round"/>
<path d="M96.6177 533.047C89.5588 539.37 79.0196 546.797 72.4755 554.37C53.7255 576.037 28.1128 606.993 26.4951 657.532" stroke="#263238" stroke-width="0.75" stroke-linecap="round" stroke-linejoin="round"/>
<path d="M197.794 749.667C197.794 773.564 161.029 775.745 115.441 775.745C69.8526 775.745 33.0879 774.863 33.0879 749.667C33.0879 714.863 69.8526 681.039 115.441 681.039C161.029 681.039 197.794 714.863 197.794 749.667Z" fill="#252B34" stroke="#263238" stroke-width="0.75" stroke-linecap="round" stroke-linejoin="round"/>
<path d="M115.343 681.016C73.2593 681.016 38.6024 709.986 33.627 741.874C38.5289 761.947 73.2593 762.707 115.343 762.707C157.426 762.707 191.985 760.844 197.034 741.726C192.083 709.888 157.45 681.016 115.343 681.016Z" fill="#263238" stroke="#263238" stroke-width="0.75" stroke-linecap="round" stroke-linejoin="round"/>
<path d="M410.71 752.213C410.71 773.855 377.328 775.84 336.152 775.84C294.975 775.84 261.568 775.056 261.568 752.213C261.568 720.718 294.951 690.031 336.152 690.031C377.353 690.031 410.71 720.718 410.71 752.213Z" fill="#252B34" stroke="#263238" stroke-width="0.75" stroke-linecap="round" stroke-linejoin="round"/>
<path d="M336.152 690.031C298.04 690.031 266.643 716.281 262.157 745.178C266.643 763.34 298.04 764.026 336.152 764.026C374.265 764.026 405.54 762.335 410.123 745.031C405.54 716.208 374.192 690.031 336.152 690.031Z" fill="#263238" stroke="#263238" stroke-width="0.75" stroke-linecap="round" stroke-linejoin="round"/>
<path d="M626.471 494.467C623.556 493.377 621.194 491.175 619.903 488.344C618.611 485.513 618.496 482.285 619.584 479.369L652.672 390.913C653.211 389.465 654.03 388.137 655.082 387.005C656.135 385.873 657.4 384.96 658.805 384.317C660.211 383.674 661.729 383.314 663.273 383.258C664.818 383.202 666.358 383.45 667.807 383.989C669.255 384.528 670.583 385.348 671.715 386.4C672.847 387.452 673.76 388.717 674.403 390.123C675.046 391.528 675.406 393.046 675.462 394.591C675.518 396.135 675.27 397.676 674.731 399.124L641.642 487.58C641.103 489.032 640.282 490.362 639.226 491.495C638.17 492.628 636.9 493.541 635.49 494.181C634.08 494.822 632.557 495.176 631.009 495.226C629.461 495.275 627.919 495.017 626.471 494.467V494.467Z" fill="white" stroke="#263238" stroke-width="0.75" stroke-linecap="round" stroke-linejoin="round"/>
<path d="M664.559 406.844L645.98 455.667" stroke="#263238" stroke-width="0.75" stroke-linecap="round" stroke-linejoin="round"/>
<path d="M576.128 629.278C573.56 628.32 571.207 626.867 569.201 625C567.196 623.133 565.578 620.89 564.44 618.397C563.302 615.905 562.666 613.213 562.569 610.475C562.471 607.737 562.915 605.006 563.873 602.439L611.103 476.14C613.053 470.956 616.983 466.759 622.027 464.472C627.072 462.186 632.819 461.997 638.003 463.947C643.187 465.897 647.384 469.826 649.67 474.871C651.957 479.916 652.146 485.662 650.196 490.846L602.868 617.023C600.934 622.184 597.036 626.37 592.026 628.666C587.015 630.962 581.3 631.182 576.128 629.278V629.278Z" fill="#263238" stroke="#263238" stroke-width="0.75" stroke-linecap="round" stroke-linejoin="round"/>
<path d="M751.446 164.029C727.899 155.223 702.27 153.598 677.799 159.359C653.329 165.119 631.116 178.007 613.97 196.391C596.824 214.776 585.514 237.833 581.472 262.645C577.429 287.457 580.835 312.911 591.259 335.788C601.682 358.664 618.656 377.936 640.032 391.166C661.409 404.397 686.228 410.991 711.353 410.115C736.477 409.239 760.777 400.933 781.181 386.247C801.584 371.561 817.175 351.154 825.981 327.607C837.782 296.031 836.56 261.06 822.583 230.385C808.606 199.71 783.018 175.842 751.446 164.029V164.029ZM670.098 381.529C650.631 374.244 633.76 361.351 621.62 344.479C609.48 327.607 602.615 307.514 601.894 286.741C601.173 265.968 606.628 245.447 617.569 227.774C628.51 210.101 644.446 196.069 663.362 187.453C682.278 178.836 703.324 176.022 723.839 179.367C744.354 182.711 763.416 192.063 778.616 206.241C793.816 220.419 804.47 238.786 809.232 259.019C813.994 279.252 812.649 300.442 805.368 319.911C795.597 346.017 775.858 367.174 750.492 378.729C725.125 390.284 696.207 391.291 670.098 381.529V381.529Z" fill="#263238" stroke="#263238" stroke-width="0.75" stroke-linecap="round" stroke-linejoin="round"/>
<path d="M621.691 244.473C626.791 233.228 634.07 223.106 643.107 214.692C652.143 206.278 662.759 199.739 674.338 195.453" stroke="#263238" stroke-width="0.75" stroke-linecap="round" stroke-linejoin="round"/>
<path d="M613.284 283.394C613.258 273.86 614.696 264.379 617.548 255.281" stroke="#263238" stroke-width="0.75" stroke-linecap="round" stroke-linejoin="round"/>
<path d="M586.421 309.32C580.092 280.169 584.543 249.712 598.95 223.591C613.356 197.47 636.741 177.456 664.773 167.255C692.805 157.055 723.584 157.36 751.408 168.113C779.233 178.867 802.217 199.341 816.103 225.742" stroke="white" stroke-miterlimit="10"/>
<path d="M829.387 268.391C832.98 297.761 825.893 327.444 809.421 352.025C792.949 376.605 768.188 394.444 739.657 402.287C711.126 410.13 680.726 407.455 654.004 394.748C627.282 382.042 606.018 360.152 594.093 333.072" stroke="white" stroke-miterlimit="10"/>
<path d="M821.054 236.406C824.253 244.204 826.643 252.311 828.186 260.597" stroke="white" stroke-miterlimit="10"/>
<path d="M213.382 716.407C232.915 716.407 248.75 700.573 248.75 681.04C248.75 661.506 232.915 645.672 213.382 645.672C193.849 645.672 178.015 661.506 178.015 681.04C178.015 700.573 193.849 716.407 213.382 716.407Z" fill="#263238"/>
<path d="M213.382 710.893C229.87 710.893 243.235 697.528 243.235 681.04C243.235 664.553 229.87 651.188 213.382 651.188C196.895 651.188 183.529 664.553 183.529 681.04C183.529 697.528 196.895 710.893 213.382 710.893Z" fill="white" stroke="#263238" stroke-width="0.75" stroke-linecap="round" stroke-linejoin="round"/>
<path d="M204.314 689.86C204.055 689.595 203.91 689.239 203.91 688.868C203.91 688.497 204.055 688.141 204.314 687.875L212.402 679.787C212.668 679.528 213.024 679.383 213.395 679.383C213.766 679.383 214.122 679.528 214.388 679.787C214.523 679.917 214.63 680.073 214.703 680.246C214.776 680.418 214.814 680.604 214.814 680.792C214.814 680.979 214.776 681.165 214.703 681.338C214.63 681.51 214.523 681.666 214.388 681.797L206.324 689.86C206.194 689.995 206.037 690.103 205.865 690.176C205.692 690.249 205.507 690.287 205.319 690.287C205.131 690.287 204.946 690.249 204.773 690.176C204.601 690.103 204.444 689.995 204.314 689.86V689.86Z" fill="#263238"/>
<path d="M192.01 702.162C191.769 701.933 191.577 701.657 191.446 701.352C191.315 701.046 191.247 700.717 191.247 700.385C191.247 700.053 191.315 699.724 191.446 699.418C191.577 699.113 191.769 698.837 192.01 698.608L203.53 687.088C203.759 686.843 204.036 686.648 204.344 686.515C204.651 686.381 204.983 686.312 205.319 686.312C205.654 686.312 205.986 686.381 206.294 686.515C206.602 686.648 206.879 686.843 207.108 687.088C207.349 687.317 207.541 687.593 207.672 687.898C207.803 688.204 207.871 688.533 207.871 688.865C207.871 689.198 207.803 689.527 207.672 689.832C207.541 690.138 207.349 690.413 207.108 690.642L195.588 702.162C195.359 702.407 195.082 702.602 194.774 702.735C194.466 702.869 194.135 702.938 193.799 702.938C193.464 702.938 193.132 702.869 192.824 702.735C192.516 702.602 192.239 702.407 192.01 702.162Z" fill="#263238"/>
<path d="M234.607 681.532C236.759 679.384 238.225 676.646 238.82 673.664C239.415 670.682 239.112 667.591 237.95 664.781C236.787 661.972 234.818 659.57 232.29 657.881C229.762 656.191 226.79 655.289 223.749 655.289C220.709 655.289 217.737 656.191 215.209 657.881C212.681 659.57 210.712 661.972 209.549 664.781C208.387 667.591 208.084 670.682 208.679 673.664C209.274 676.646 210.74 679.384 212.892 681.532C215.773 684.409 219.678 686.024 223.749 686.024C227.821 686.024 231.726 684.409 234.607 681.532Z" fill="#263238"/>
<path d="M231.666 678.566C233.226 677.001 234.286 675.01 234.714 672.843C235.142 670.676 234.919 668.43 234.072 666.39C233.225 664.35 231.792 662.607 229.955 661.381C228.118 660.154 225.959 659.5 223.75 659.5C221.541 659.5 219.382 660.154 217.544 661.381C215.707 662.607 214.275 664.35 213.428 666.39C212.581 668.43 212.357 670.676 212.785 672.843C213.213 675.01 214.274 677.001 215.833 678.566C216.871 679.608 218.105 680.434 219.464 680.998C220.822 681.563 222.279 681.853 223.75 681.853C225.221 681.853 226.677 681.563 228.036 680.998C229.394 680.434 230.628 679.608 231.666 678.566Z" fill="white"/>
<path d="M652.108 554.908C652.108 558.021 650.871 561.007 648.669 563.209C646.467 565.411 643.481 566.648 640.367 566.648H557.598C556.013 566.72 554.429 566.471 552.943 565.914C551.457 565.357 550.099 564.505 548.952 563.409C547.804 562.313 546.891 560.995 546.267 559.536C545.643 558.077 545.321 556.507 545.321 554.92C545.321 553.333 545.643 551.763 546.267 550.304C546.891 548.844 547.804 547.527 548.952 546.431C550.099 545.335 551.457 544.482 552.943 543.926C554.429 543.369 556.013 543.119 557.598 543.192H640.367C643.477 543.192 646.459 544.425 648.66 546.622C650.861 548.818 652.101 551.798 652.108 554.908V554.908Z" fill="#252B34" stroke="#263238" stroke-width="0.75" stroke-linecap="round" stroke-linejoin="round"/>
<path d="M602.573 563.024C606.174 563.024 609.093 560.105 609.093 556.504C609.093 552.903 606.174 549.984 602.573 549.984C598.973 549.984 596.054 552.903 596.054 556.504C596.054 560.105 598.973 563.024 602.573 563.024Z" fill="white" stroke="#263238" stroke-width="0.75" stroke-linecap="round" stroke-linejoin="round"/>
<path d="M503.48 633.022C512.252 633.022 519.362 625.912 519.362 617.14C519.362 608.369 512.252 601.258 503.48 601.258C494.708 601.258 487.598 608.369 487.598 617.14C487.598 625.912 494.708 633.022 503.48 633.022Z" fill="#252B34" stroke="#263238" stroke-width="0.75" stroke-linecap="round" stroke-linejoin="round"/>
<path d="M509.436 617.137C509.441 615.958 509.096 614.804 508.444 613.821C507.793 612.838 506.864 612.071 505.777 611.617C504.689 611.162 503.49 611.041 502.333 611.268C501.176 611.495 500.113 612.06 499.278 612.892C498.442 613.724 497.872 614.785 497.641 615.941C497.409 617.097 497.525 618.296 497.975 619.386C498.425 620.475 499.189 621.407 500.169 622.062C501.149 622.718 502.301 623.068 503.48 623.068C505.056 623.068 506.567 622.444 507.683 621.332C508.799 620.221 509.43 618.712 509.436 617.137V617.137Z" fill="white" stroke="#263238" stroke-width="0.75" stroke-linecap="round" stroke-linejoin="round"/>
<path d="M557.598 571.085C566.37 571.085 573.481 563.974 573.481 555.203C573.481 546.431 566.37 539.32 557.598 539.32C548.827 539.32 541.716 546.431 541.716 555.203C541.716 563.974 548.827 571.085 557.598 571.085Z" fill="#252B34" stroke="#263238" stroke-width="0.75" stroke-linecap="round" stroke-linejoin="round"/>
<path d="M557.598 561.333C560.982 561.333 563.726 558.59 563.726 555.206C563.726 551.821 560.982 549.078 557.598 549.078C554.214 549.078 551.471 551.821 551.471 555.206C551.471 558.59 554.214 561.333 557.598 561.333Z" fill="white" stroke="#263238" stroke-width="0.75" stroke-linecap="round" stroke-linejoin="round"/>
<path d="M177.367 134.721C176.459 136.211 174.347 136.187 173.472 134.678L173.381 112.605C173.4 110.837 173.341 109.658 175.127 109.678L188.435 109.826C190.221 109.846 191.294 111.878 190.342 113.439L177.367 134.721Z" fill="#252B34"/>
<path d="M168.893 90.9953C169.805 89.5075 171.916 89.5358 172.788 91.0474L172.83 113.12C172.807 114.888 172.863 116.068 171.077 116.044L157.77 115.865C155.984 115.841 154.916 113.807 155.871 112.249L168.893 90.9953Z" fill="#252B34"/>
</svg>
