<svg width="616" height="616" viewBox="0 0 616 616" fill="none" xmlns="http://www.w3.org/2000/svg">
<circle cx="307.65" cy="307.65" r="188.436" stroke="#E5E5E5" stroke-width="0.427778"/>
<circle cx="308.239" cy="308.239" r="256.025" stroke="#E5E5E5" stroke-width="0.427778"/>
<circle cx="308" cy="308" r="307.786" stroke="#E5E5E5" stroke-width="0.427778"/>
<path d="M98.0987 177C98.0095 177 97.9214 176.98 97.8413 176.941C97.7611 176.902 97.691 176.845 97.6364 176.774C97.5818 176.704 97.5442 176.622 97.5264 176.534C97.5086 176.447 97.5111 176.357 97.5337 176.271C98.1893 173.83 98.8444 171.387 99.4991 168.939C99.5255 168.841 99.5774 168.751 99.6496 168.679C99.7218 168.607 99.8118 168.556 99.9103 168.529L115.874 164.251C115.924 164.237 115.975 164.23 116.027 164.23C116.116 164.23 116.204 164.25 116.284 164.289C116.365 164.328 116.435 164.384 116.49 164.454C116.568 164.554 116.61 164.677 116.61 164.804C116.609 164.856 116.602 164.907 116.588 164.957L115.102 170.513C114.931 171.151 114.595 171.734 114.127 172.201C113.659 172.669 113.077 173.005 112.438 173.175L98.2548 176.981C98.2038 176.994 98.1513 177.001 98.0987 177V177Z" fill="#FF8080"/>
<path d="M102.096 155.686C102.02 155.687 101.945 155.672 101.874 155.643C101.804 155.614 101.741 155.571 101.687 155.517L90.3169 144.152C90.2445 144.081 90.1923 143.991 90.1656 143.892C90.139 143.794 90.1388 143.69 90.1652 143.591C90.1916 143.493 90.2435 143.403 90.3158 143.331C90.3881 143.259 90.4781 143.207 90.5768 143.181L106.104 139.021C106.203 138.994 106.308 138.993 106.407 139.019C106.506 139.045 106.597 139.097 106.669 139.17L118.04 150.538C118.113 150.611 118.165 150.701 118.192 150.8C118.219 150.899 118.219 151.003 118.192 151.103C118.166 151.202 118.113 151.292 118.04 151.364C117.967 151.437 117.877 151.489 117.777 151.514L102.244 155.669C102.195 155.682 102.144 155.689 102.094 155.688L102.096 155.686Z" fill="#FF8080"/>
<path d="M100.98 166.232C100.891 166.233 100.803 166.213 100.722 166.174C100.642 166.135 100.572 166.078 100.517 166.008C100.463 165.937 100.425 165.855 100.408 165.767C100.39 165.68 100.393 165.59 100.416 165.503C101.071 163.059 101.726 160.616 102.382 158.172C102.408 158.074 102.459 157.984 102.531 157.912C102.603 157.839 102.693 157.788 102.792 157.761L118.763 153.484C118.812 153.47 118.864 153.463 118.915 153.463C119.004 153.463 119.092 153.482 119.173 153.521C119.253 153.56 119.323 153.617 119.378 153.687C119.456 153.787 119.498 153.91 119.497 154.037C119.497 154.088 119.49 154.14 119.475 154.189C118.818 156.633 118.162 159.079 117.508 161.526C117.481 161.624 117.429 161.714 117.357 161.786C117.285 161.857 117.196 161.909 117.098 161.936L101.127 166.219C101.079 166.229 101.029 166.233 100.98 166.232Z" fill="#FF8080"/>
<path d="M97.7853 165.376C97.7092 165.376 97.6338 165.361 97.5636 165.332C97.4933 165.303 97.4297 165.26 97.3765 165.205L85.6879 153.519C85.6158 153.446 85.564 153.356 85.5379 153.257C85.5118 153.157 85.5121 153.053 85.539 152.954C86.1945 150.512 86.8492 148.07 87.5031 145.627C87.5366 145.503 87.6102 145.393 87.7124 145.316C87.8147 145.238 87.9397 145.197 88.0681 145.198C88.1451 145.196 88.2218 145.21 88.2931 145.239C88.3645 145.268 88.4291 145.312 88.4829 145.367L100.163 157.055C100.236 157.128 100.289 157.218 100.315 157.317C100.342 157.417 100.341 157.521 100.313 157.62L98.3503 164.946C98.3165 165.069 98.2428 165.179 98.1407 165.256C98.0386 165.334 97.9137 165.376 97.7853 165.376V165.376Z" fill="#FF8080"/>
<path d="M84.6159 156.401C84.6498 156.278 84.7235 156.168 84.8256 156.091C84.9277 156.013 85.0526 155.972 85.1809 155.972C85.2569 155.971 85.3323 155.986 85.4025 156.015C85.4728 156.044 85.5364 156.087 85.5897 156.141L97.2699 167.83C97.3246 167.883 97.3681 167.947 97.3978 168.018C97.4274 168.088 97.4427 168.164 97.4428 168.24C97.4428 168.292 97.4356 168.345 97.4213 168.395C96.7674 170.837 96.1126 173.279 95.4571 175.721C95.4238 175.845 95.3507 175.954 95.2492 176.031C95.1478 176.109 95.0235 176.151 94.8958 176.15C94.8198 176.151 94.7444 176.136 94.6742 176.107C94.6039 176.078 94.5403 176.035 94.4869 175.981L84.1022 165.589C83.635 165.122 83.299 164.54 83.1281 163.902C82.9572 163.263 82.9573 162.591 83.1285 161.953L84.6159 156.401Z" fill="#FF8080"/>
<path d="M551.073 139C550.96 139 550.849 138.975 550.748 138.926C550.646 138.876 550.558 138.804 550.489 138.715C550.42 138.626 550.372 138.522 550.35 138.412C550.327 138.302 550.33 138.187 550.359 138.079C551.187 134.996 552.015 131.909 552.842 128.818C552.875 128.694 552.941 128.58 553.032 128.489C553.123 128.398 553.237 128.333 553.361 128.3L573.526 122.895C573.589 122.879 573.654 122.87 573.719 122.87C573.831 122.869 573.943 122.895 574.044 122.944C574.146 122.993 574.235 123.064 574.304 123.153C574.402 123.279 574.455 123.434 574.455 123.594C574.455 123.66 574.446 123.725 574.428 123.788L572.55 130.805C572.334 131.612 571.91 132.348 571.319 132.938C570.728 133.529 569.992 133.953 569.185 134.169L551.27 138.976C551.206 138.993 551.139 139.001 551.073 139V139Z" fill="#FDD504"/>
<path d="M556.122 112.077C556.026 112.078 555.931 112.06 555.842 112.023C555.753 111.986 555.673 111.932 555.605 111.863L541.243 97.5082C541.151 97.4175 541.085 97.3041 541.052 97.1797C541.018 97.0552 541.018 96.9241 541.051 96.7996C541.085 96.675 541.15 96.5615 541.241 96.4705C541.333 96.3795 541.446 96.3142 541.571 96.2813L561.185 91.027C561.31 90.992 561.442 90.991 561.567 91.0241C561.693 91.0572 561.807 91.1232 561.899 91.2152L576.261 105.575C576.353 105.666 576.42 105.78 576.453 105.905C576.487 106.03 576.487 106.162 576.454 106.288C576.42 106.413 576.354 106.527 576.262 106.618C576.17 106.71 576.055 106.775 575.93 106.808L556.309 112.056C556.247 112.072 556.183 112.08 556.119 112.08L556.122 112.077Z" fill="#FDD504"/>
<path d="M554.712 125.398C554.599 125.399 554.488 125.374 554.386 125.325C554.285 125.276 554.196 125.204 554.127 125.115C554.058 125.026 554.011 124.922 553.989 124.811C553.967 124.701 553.97 124.587 554 124.478C554.827 121.391 555.654 118.304 556.482 115.218C556.515 115.093 556.581 114.979 556.671 114.888C556.762 114.797 556.876 114.732 557 114.698L577.174 109.295C577.237 109.278 577.302 109.269 577.367 109.269C577.479 109.268 577.591 109.294 577.692 109.343C577.793 109.392 577.882 109.463 577.951 109.552C578.049 109.678 578.102 109.834 578.101 109.993C578.102 110.059 578.092 110.124 578.074 110.186C577.244 113.273 576.416 116.363 575.589 119.454C575.555 119.578 575.489 119.691 575.398 119.782C575.308 119.872 575.195 119.938 575.071 119.972L554.897 125.381C554.836 125.394 554.774 125.4 554.712 125.398Z" fill="#FDD504"/>
<path d="M550.676 124.317C550.579 124.317 550.484 124.299 550.395 124.262C550.307 124.225 550.226 124.17 550.159 124.101L535.395 109.34C535.303 109.248 535.238 109.133 535.205 109.008C535.172 108.883 535.173 108.751 535.206 108.626C536.034 105.542 536.861 102.457 537.688 99.3703C537.73 99.2138 537.823 99.0757 537.952 98.9776C538.081 98.8795 538.239 98.827 538.401 98.8283C538.498 98.826 538.595 98.8438 538.685 98.8806C538.776 98.9174 538.857 98.9723 538.925 99.0421L553.679 113.807C553.772 113.898 553.838 114.012 553.871 114.138C553.905 114.263 553.904 114.395 553.869 114.52L551.389 123.773C551.346 123.93 551.253 124.068 551.124 124.166C550.995 124.264 550.838 124.317 550.676 124.317V124.317Z" fill="#FDD504"/>
<path d="M534.041 112.98C534.084 112.824 534.177 112.686 534.306 112.588C534.435 112.49 534.593 112.438 534.755 112.439C534.851 112.438 534.946 112.456 535.035 112.493C535.124 112.529 535.204 112.584 535.271 112.652L550.025 127.417C550.094 127.484 550.149 127.565 550.187 127.654C550.224 127.743 550.243 127.838 550.243 127.935C550.244 128.001 550.234 128.067 550.216 128.13C549.39 131.215 548.563 134.3 547.735 137.385C547.693 137.541 547.601 137.678 547.473 137.776C547.345 137.874 547.188 137.927 547.026 137.927C546.93 137.928 546.835 137.909 546.746 137.872C546.658 137.836 546.577 137.781 546.51 137.713L533.392 124.586C532.802 123.996 532.378 123.261 532.162 122.455C531.946 121.648 531.946 120.799 532.162 119.993L534.041 112.98Z" fill="#FDD504"/>
<path d="M520.099 463C520.01 463 519.921 462.98 519.841 462.941C519.761 462.902 519.691 462.845 519.636 462.774C519.582 462.704 519.544 462.622 519.526 462.534C519.509 462.447 519.511 462.357 519.534 462.271C520.189 459.83 520.844 457.387 521.499 454.939C521.526 454.841 521.577 454.751 521.65 454.679C521.722 454.607 521.812 454.556 521.91 454.529L537.874 450.251C537.924 450.237 537.975 450.23 538.027 450.23C538.116 450.23 538.204 450.25 538.284 450.289C538.365 450.328 538.435 450.384 538.49 450.454C538.568 450.554 538.61 450.677 538.61 450.804C538.609 450.856 538.602 450.907 538.588 450.957L537.102 456.513C536.931 457.151 536.595 457.734 536.127 458.201C535.659 458.669 535.077 459.005 534.438 459.175L520.255 462.981C520.204 462.994 520.151 463.001 520.099 463V463Z" fill="#A1EAC4"/>
<path d="M524.096 441.686C524.02 441.687 523.945 441.672 523.874 441.643C523.804 441.614 523.741 441.571 523.687 441.517L512.317 430.152C512.244 430.081 512.192 429.991 512.166 429.892C512.139 429.794 512.139 429.69 512.165 429.591C512.192 429.493 512.244 429.403 512.316 429.331C512.388 429.259 512.478 429.207 512.577 429.181L528.104 425.021C528.203 424.994 528.308 424.993 528.407 425.019C528.506 425.045 528.597 425.097 528.669 425.17L540.04 436.538C540.113 436.611 540.165 436.701 540.192 436.8C540.219 436.899 540.219 437.003 540.192 437.103C540.166 437.202 540.113 437.292 540.04 437.364C539.967 437.437 539.877 437.489 539.777 437.514L524.244 441.669C524.195 441.682 524.144 441.689 524.094 441.688L524.096 441.686Z" fill="#A1EAC4"/>
<path d="M522.98 452.232C522.891 452.232 522.803 452.213 522.722 452.174C522.642 452.135 522.572 452.078 522.517 452.007C522.463 451.937 522.425 451.855 522.408 451.767C522.39 451.68 522.393 451.589 522.416 451.503C523.071 449.059 523.726 446.616 524.382 444.172C524.408 444.074 524.459 443.984 524.531 443.912C524.603 443.839 524.693 443.787 524.792 443.761L540.763 439.483C540.812 439.47 540.864 439.463 540.915 439.463C541.004 439.462 541.092 439.482 541.173 439.521C541.253 439.56 541.323 439.617 541.378 439.687C541.456 439.787 541.498 439.91 541.497 440.036C541.497 440.088 541.49 440.139 541.475 440.189C540.818 442.633 540.162 445.079 539.508 447.526C539.481 447.624 539.429 447.714 539.357 447.785C539.285 447.857 539.196 447.909 539.098 447.936L523.127 452.218C523.079 452.229 523.029 452.233 522.98 452.232Z" fill="#A1EAC4"/>
<path d="M519.785 451.376C519.709 451.376 519.634 451.361 519.564 451.332C519.493 451.303 519.43 451.26 519.377 451.205L507.688 439.519C507.616 439.446 507.564 439.356 507.538 439.256C507.512 439.157 507.512 439.053 507.539 438.954C508.194 436.512 508.849 434.07 509.503 431.626C509.537 431.503 509.61 431.393 509.712 431.316C509.815 431.238 509.94 431.196 510.068 431.197C510.145 431.196 510.222 431.21 510.293 431.239C510.364 431.268 510.429 431.311 510.483 431.367L522.163 443.055C522.236 443.127 522.289 443.218 522.315 443.317C522.342 443.417 522.341 443.521 522.313 443.62L520.35 450.945C520.316 451.069 520.243 451.178 520.141 451.256C520.039 451.334 519.914 451.376 519.785 451.376V451.376Z" fill="#A1EAC4"/>
<path d="M506.616 442.401C506.65 442.277 506.723 442.168 506.826 442.091C506.928 442.013 507.053 441.971 507.181 441.972C507.257 441.971 507.332 441.986 507.403 442.015C507.473 442.044 507.536 442.087 507.59 442.141L519.27 453.83C519.325 453.883 519.368 453.947 519.398 454.017C519.427 454.088 519.443 454.164 519.443 454.24C519.443 454.292 519.436 454.344 519.421 454.395C518.767 456.837 518.113 459.279 517.457 461.721C517.424 461.845 517.351 461.953 517.249 462.031C517.148 462.109 517.024 462.151 516.896 462.15C516.82 462.151 516.744 462.136 516.674 462.107C516.604 462.078 516.54 462.035 516.487 461.981L506.102 451.589C505.635 451.122 505.299 450.54 505.128 449.902C504.957 449.263 504.957 448.591 505.128 447.953L506.616 442.401Z" fill="#A1EAC4"/>
<path d="M63.0727 520C62.96 520 62.8488 519.975 62.7476 519.926C62.6463 519.876 62.5578 519.804 62.4888 519.715C62.4198 519.626 62.3723 519.522 62.3498 519.412C62.3273 519.302 62.3305 519.187 62.3591 519.079C63.1871 515.996 64.0146 512.909 64.8417 509.818C64.875 509.694 64.9406 509.58 65.0318 509.489C65.123 509.398 65.2366 509.333 65.3611 509.3L85.5259 503.895C85.5887 503.879 85.6535 503.87 85.7186 503.87C85.8313 503.869 85.9427 503.895 86.0441 503.944C86.1456 503.993 86.2346 504.064 86.3042 504.153C86.4019 504.279 86.4548 504.434 86.4548 504.594C86.4547 504.66 86.4456 504.725 86.4277 504.788L84.5503 511.805C84.3343 512.612 83.9095 513.348 83.3188 513.938C82.7281 514.529 81.9923 514.953 81.1855 515.169L63.2699 519.976C63.2055 519.993 63.1392 520.001 63.0727 520V520Z" fill="#9F87E8"/>
<path d="M68.1219 493.077C68.0258 493.078 67.9306 493.06 67.8419 493.023C67.7531 492.986 67.6727 492.932 67.6055 492.863L53.2429 478.508C53.1514 478.417 53.0854 478.304 53.0517 478.18C53.0181 478.055 53.0179 477.924 53.0512 477.8C53.0845 477.675 53.1502 477.562 53.2414 477.47C53.3327 477.379 53.4465 477.314 53.5711 477.281L73.1849 472.027C73.3098 471.992 73.4418 471.991 73.5673 472.024C73.6928 472.057 73.8071 472.123 73.8985 472.215L88.2611 486.575C88.3533 486.666 88.4196 486.78 88.4535 486.905C88.4873 487.03 88.4874 487.162 88.4538 487.288C88.4202 487.413 88.354 487.527 88.2619 487.618C88.1699 487.71 88.0554 487.775 87.9299 487.808L68.3086 493.056C68.2467 493.072 68.1829 493.08 68.1189 493.08L68.1219 493.077Z" fill="#9F87E8"/>
<path d="M66.7118 506.398C66.5991 506.399 66.4878 506.374 66.3864 506.325C66.285 506.276 66.1964 506.204 66.1274 506.115C66.0584 506.026 66.011 505.922 65.9889 505.811C65.9667 505.701 65.9704 505.587 65.9997 505.478C66.8267 502.391 67.6542 499.304 68.4823 496.218C68.5153 496.093 68.5805 495.979 68.6714 495.888C68.7624 495.797 68.8758 495.732 69.0002 495.698L89.174 490.295C89.2369 490.278 89.3017 490.269 89.3667 490.269C89.4793 490.268 89.5905 490.294 89.6918 490.343C89.7931 490.392 89.8818 490.463 89.9509 490.552C90.0494 490.678 90.1025 490.834 90.1014 490.993C90.1015 491.059 90.0924 491.124 90.0743 491.186C89.2443 494.273 88.4157 497.363 87.5887 500.454C87.5548 500.578 87.4892 500.691 87.3984 500.782C87.3076 500.872 87.1947 500.938 87.0708 500.972L66.897 506.381C66.8362 506.394 66.774 506.4 66.7118 506.398Z" fill="#9F87E8"/>
<path d="M62.6756 505.317C62.5794 505.317 62.4842 505.299 62.3954 505.262C62.3067 505.225 62.2264 505.17 62.1592 505.101L47.3946 490.34C47.3035 490.248 47.2381 490.133 47.2051 490.008C47.1721 489.883 47.1725 489.751 47.2064 489.626C48.0345 486.542 48.8615 483.457 49.6875 480.37C49.7298 480.214 49.8228 480.076 49.9519 479.978C50.081 479.88 50.239 479.827 50.4011 479.828C50.4985 479.826 50.5952 479.844 50.6854 479.881C50.7755 479.917 50.8571 479.972 50.925 480.042L65.6791 494.807C65.7716 494.898 65.8381 495.012 65.8715 495.138C65.9048 495.263 65.9039 495.395 65.8687 495.52L63.3892 504.773C63.3465 504.93 63.2535 505.068 63.1245 505.166C62.9955 505.264 62.8377 505.317 62.6756 505.317V505.317Z" fill="#9F87E8"/>
<path d="M46.0412 493.98C46.0839 493.824 46.177 493.686 46.306 493.588C46.4351 493.49 46.5928 493.438 46.7548 493.439C46.8508 493.438 46.9461 493.456 47.0348 493.493C47.1235 493.529 47.2039 493.584 47.2712 493.652L62.0252 508.417C62.0943 508.484 62.1492 508.565 62.1866 508.654C62.2241 508.743 62.2435 508.838 62.2435 508.935C62.2436 509.001 62.2345 509.067 62.2164 509.13C61.3904 512.215 60.5633 515.3 59.7353 518.385C59.6932 518.541 59.6009 518.678 59.4727 518.776C59.3445 518.874 59.1876 518.927 59.0262 518.927C58.9302 518.928 58.835 518.909 58.7463 518.872C58.6576 518.836 58.5772 518.781 58.5098 518.713L45.3923 505.586C44.8021 504.996 44.3777 504.261 44.1618 503.455C43.9459 502.648 43.9461 501.799 44.1623 500.993L46.0412 493.98Z" fill="#9F87E8"/>
</svg>
