<svg width="87" height="87" viewBox="0 0 87 87" fill="none" xmlns="http://www.w3.org/2000/svg">
<circle cx="43.5" cy="43.5" r="43.5" fill="#DBECFF"/>
<path d="M67.7803 36.4265H39.5899C39.2009 36.4265 38.8851 36.7423 38.8851 37.1312V49.0276L34.476 44.2519V44.2523C33.9919 43.7269 33.3403 43.3863 32.6327 43.288L25.8671 42.3689L25.8667 41.1627C25.8667 40.9755 25.7928 40.7966 25.6606 40.6645C25.5281 40.5319 25.3491 40.458 25.1619 40.458H19.1463C18.7562 40.458 18.4388 40.7726 18.436 41.1627V55.8218V55.8214C18.4388 56.2127 18.7554 56.5289 19.1463 56.532H25.1619C25.5521 56.5289 25.8667 56.2115 25.8667 55.8214V54.6714L34.3521 59.9936C35.3837 60.6437 36.5776 60.9898 37.7969 60.9914C38.2401 60.991 38.6821 60.9458 39.1163 60.8561C39.5619 60.766 48.8531 58.9393 50.5052 58.4996C52.0107 58.0992 53.3636 57.6143 53.3636 56.0923V56.0919C53.3479 55.5787 53.1477 55.0887 52.7996 54.7107H67.7798C67.967 54.7107 68.146 54.6364 68.2781 54.5042C68.4102 54.3721 68.4846 54.1927 68.4846 54.0059V37.0917C68.4637 36.7181 68.1542 36.4259 67.7798 36.4263L67.7803 36.4265ZM40.3057 37.8191H49.755C47.8941 38.816 46.4522 40.4477 45.6928 42.4177C44.9334 44.3876 44.9062 46.5645 45.6165 48.553C46.3268 50.541 47.7277 52.2082 49.5635 53.2507L41.535 52.1232H41.5346C41.3805 51.7999 41.1791 51.5018 40.9372 51.2379L40.3056 50.5386L40.3057 37.8191ZM53.9277 38.1856C55.8926 38.1856 57.7767 38.9663 59.1662 40.3558C60.5557 41.7448 61.3359 43.6295 61.3359 45.5942C61.3359 47.559 60.5557 49.4432 59.1662 50.8327C57.7767 52.2222 55.8925 53.0025 53.9277 53.0025C51.9629 53.0025 50.0783 52.2222 48.6892 50.8327C47.2997 49.4432 46.5191 47.559 46.5191 45.5942C46.5222 43.6302 47.3037 41.7476 48.6924 40.3589C50.081 38.9702 51.9636 38.1887 53.9277 38.1856ZM24.4516 55.0998H19.8565V41.8725H24.4516V55.122V55.0998ZM51.9423 56.0697C51.9423 56.3458 51.9423 56.6336 50.1379 57.1072C48.531 57.5359 38.9353 59.4244 38.8618 59.4413H38.8622C37.5781 59.7084 36.2405 59.4681 35.1295 58.7704L25.8662 52.997V43.7561L32.4458 44.6469H32.4462C32.8281 44.7012 33.1801 44.884 33.444 45.1656C34.9663 46.8119 38.6424 50.8037 39.8883 52.1794C40.0499 52.356 40.1813 52.5581 40.2772 52.7772C40.282 52.8897 40.313 52.9998 40.3677 53.0985C40.3917 53.2393 40.3567 53.384 40.2717 53.4988C40.0519 53.7639 39.3696 53.7356 38.5071 53.1775C36.7027 52.0103 32.9819 49.2648 32.9481 49.231L32.9477 49.2306C32.637 49.0536 32.2429 49.1358 32.0282 49.4221C31.8135 49.708 31.8453 50.1096 32.1021 50.3585C32.2598 50.4714 35.8966 53.1776 37.7402 54.3503C39.4825 55.4778 40.7736 55.0834 41.3486 54.401C41.5578 54.1639 41.6966 53.8728 41.7489 53.561L49.6705 54.6606H49.7664C51.266 54.9363 51.9424 55.6469 51.9424 56.0922L51.9423 56.0697ZM67.0695 53.2506H58.2179C60.073 52.2207 61.4943 50.5558 62.2207 48.5624C62.9467 46.5684 62.9294 44.3798 62.1712 42.3977C61.4129 40.4159 59.9653 38.7745 58.094 37.7743H67.0699L67.0695 53.2506Z" fill="#007AFF"/>
<path d="M53.8152 48.3786C52.9751 48.3786 52.4847 47.8882 52.3211 46.8959L50.5396 47.3863C50.6328 48.0014 50.9316 48.5666 51.3871 48.9905C51.8429 49.4141 52.4281 49.6713 53.0483 49.7204V50.7127H54.221V49.7429C54.875 49.7067 55.4874 49.4113 55.9231 48.9229C56.3589 48.434 56.5823 47.7918 56.5441 47.1381C56.5441 45.9654 55.9239 45.2945 54.2438 44.6121C53.0824 44.1441 52.7383 43.8342 52.7383 43.3154C52.7257 43.1085 52.8 42.9056 52.9436 42.7558C53.0868 42.6059 53.2861 42.5226 53.4938 42.5261C54.1871 42.5261 54.6213 43.0562 54.6665 44.0823L56.4595 43.6875C56.268 42.3004 55.4897 41.4324 54.2045 41.2802L54.2041 40.2651H53.0483V41.2743C52.4603 41.3258 51.9136 41.5991 51.52 42.0392C51.1263 42.4789 50.9147 43.0522 50.9285 43.6422C50.9285 44.708 51.5318 45.3676 53.1835 46.1062C54.3787 46.6363 54.7507 46.9686 54.7507 47.5101H54.7511C54.7629 47.7559 54.6654 47.9947 54.4848 48.1622C54.3047 48.3294 54.0593 48.4088 53.8151 48.3785L53.8152 48.3786Z" fill="#007AFF"/>
</svg>
