<svg width="512" height="512" viewBox="0 0 512 512" fill="none" xmlns="http://www.w3.org/2000/svg">
<g clip-path="url(#clip0_1532_224)">
<path d="M486.399 315.734H349.865V290.134H383.998C388.711 290.134 392.531 286.313 392.531 281.601C392.531 276.888 388.71 273.068 383.998 273.068H349.865V93.8683C349.894 83.5083 343.662 74.1573 334.089 70.1973C324.516 66.2373 313.499 68.4513 306.2 75.8033L213.333 168.594L163.174 118.503C153.089 108.75 137.087 108.75 127.001 118.503L51.1999 194.27V51.2003H76.7999C81.5128 51.2003 85.3328 47.3794 85.3328 42.6674C85.3328 37.9554 81.5118 34.1344 76.7999 34.1344H51.1999V25.6004C51.2569 18.8454 48.5679 12.3564 43.7499 7.62044C38.9919 2.71145 32.4359 -0.0405483 25.5999 0.000451647C11.462 0.000451647 0 11.4624 0 25.6004V341.333C0 355.471 11.462 366.933 25.5999 366.933H298.666V486.399C298.655 496.78 304.914 506.141 314.512 510.096C317.611 511.351 320.922 511.997 324.266 511.999C331.061 512.045 337.582 509.325 342.331 504.464L410.598 436.241C415.442 431.481 418.177 424.979 418.191 418.188C418.205 411.397 415.498 404.883 410.675 400.103C400.602 390.344 384.607 390.325 374.511 400.06L349.867 424.619V366.934H486.4C500.538 366.934 512 355.472 512 341.334C511.999 327.195 500.537 315.734 486.399 315.734ZM298.665 273.067H273.065C268.352 273.067 264.532 276.888 264.532 281.6C264.532 286.313 268.352 290.133 273.065 290.133H298.665V315.733H51.1999V290.133H76.7999C81.5128 290.133 85.3328 286.312 85.3328 281.6C85.3328 276.887 81.5118 273.067 76.7999 273.067H51.1999V266.539L145.067 172.741L195.226 222.832C205.311 232.585 221.313 232.585 231.399 222.832L298.666 155.666V273.067H298.665ZM25.5999 349.867C20.887 349.867 17.067 346.046 17.067 341.334V25.6004C17.067 20.8874 20.888 17.0674 25.5999 17.0674C27.9029 17.0624 30.1049 18.0114 31.6839 19.6874C33.2689 21.2444 34.1529 23.3794 34.1329 25.6014V324.268C34.1329 328.981 37.9539 332.801 42.6659 332.801H298.665V349.868H25.5999V349.867ZM386.559 412.101C388.155 410.514 390.319 409.629 392.57 409.644C394.821 409.658 396.973 410.571 398.549 412.178C400.172 413.741 401.089 415.898 401.089 418.151C401.089 420.404 400.172 422.561 398.549 424.124L330.205 492.466C327.747 494.796 324.17 495.509 321.006 494.301C317.835 492.948 315.765 489.847 315.732 486.399V135.083C315.731 131.632 313.652 128.521 310.464 127.201C307.276 125.881 303.606 126.61 301.166 129.05L219.307 210.833C216.004 214.122 210.663 214.122 207.36 210.833L151.125 154.684C147.793 151.353 142.391 151.353 139.059 154.684L51.1999 242.415V218.402L139.093 130.509C142.408 127.231 147.748 127.25 151.04 130.552L207.275 186.701C210.607 190.032 216.009 190.032 219.341 186.701L318.293 87.8173C320.691 85.3553 324.353 84.6163 327.518 85.9573C330.696 87.3083 332.77 90.4153 332.8 93.8673V445.184C332.801 448.633 334.877 451.742 338.062 453.064C341.247 454.386 344.915 453.661 347.357 451.226L386.559 412.101ZM486.399 349.867H349.865V332.8H486.398C491.111 332.8 494.931 336.621 494.931 341.333C494.932 346.047 491.111 349.867 486.399 349.867Z" fill="#B82447"/>
<path d="M119.467 34.1328C114.754 34.1328 110.934 37.9538 110.934 42.6658C110.934 47.3778 114.755 51.1988 119.467 51.1988H153.6C158.313 51.1988 162.133 47.3778 162.133 42.6658C162.133 37.9538 158.312 34.1328 153.6 34.1328H119.467Z" fill="#B82447"/>
<path d="M196.267 34.1328C191.554 34.1328 187.734 37.9538 187.734 42.6658C187.734 47.3778 191.555 51.1988 196.267 51.1988H230.4C235.113 51.1988 238.933 47.3778 238.933 42.6658C238.933 37.9538 235.112 34.1328 230.4 34.1328H196.267Z" fill="#B82447"/>
<path d="M273.064 34.1328C268.351 34.1328 264.531 37.9538 264.531 42.6658C264.531 47.3778 268.351 51.1988 273.064 51.1988H307.197C311.91 51.1988 315.73 47.3778 315.73 42.6658C315.73 37.9538 311.91 34.1328 307.197 34.1328H273.064Z" fill="#B82447"/>
<path d="M349.865 51.1988H383.998C388.711 51.1988 392.531 47.3778 392.531 42.6658C392.531 37.9538 388.71 34.1328 383.998 34.1328H349.865C345.152 34.1328 341.332 37.9538 341.332 42.6658C341.332 47.3778 345.152 51.1988 349.865 51.1988Z" fill="#B82447"/>
<path d="M426.666 51.1988H460.799C465.512 51.1988 469.332 47.3778 469.332 42.6658C469.332 37.9538 465.512 34.1328 460.799 34.1328H426.666C421.953 34.1328 418.133 37.9538 418.133 42.6658C418.133 47.3778 421.953 51.1988 426.666 51.1988Z" fill="#B82447"/>
<path d="M153.6 273.07H119.467C114.754 273.07 110.934 276.891 110.934 281.603C110.934 286.316 114.755 290.136 119.467 290.136H153.6C158.313 290.136 162.133 286.315 162.133 281.603C162.133 276.891 158.312 273.07 153.6 273.07Z" fill="#B82447"/>
<path d="M196.267 273.07C191.554 273.07 187.734 276.891 187.734 281.603C187.734 286.316 191.555 290.136 196.267 290.136H230.4C235.113 290.136 238.933 286.315 238.933 281.603C238.933 276.89 235.112 273.07 230.4 273.07H196.267Z" fill="#B82447"/>
<path d="M426.666 290.136H460.799C465.512 290.136 469.332 286.315 469.332 281.603C469.332 276.89 465.512 273.07 460.799 273.07H426.666C421.953 273.07 418.133 276.891 418.133 281.603C418.133 286.315 421.953 290.136 426.666 290.136Z" fill="#B82447"/>
</g>
<defs>
<clipPath id="clip0_1532_224">
<rect width="512" height="512" fill="white"/>
</clipPath>
</defs>
</svg>
