<svg width="512" height="512" viewBox="0 0 512 512" fill="none" xmlns="http://www.w3.org/2000/svg">
<g clip-path="url(#clip0_1532_237)">
<path d="M501.333 511.997H10.6667C4.77867 511.997 0 507.219 0 501.331C0 495.443 4.77867 490.664 10.6667 490.664H501.333C507.221 490.664 512 495.443 512 501.331C512 507.219 507.221 511.997 501.333 511.997Z" fill="#FF003D"/>
<path d="M479.999 511.997H373.333C367.445 511.997 362.666 507.219 362.666 501.331V383.997C362.666 372.243 372.245 362.664 383.999 362.664H469.333C481.087 362.664 490.666 372.243 490.666 383.997V501.331C490.666 507.219 485.887 511.997 479.999 511.997ZM383.999 490.664H469.333V383.997H383.999V490.664Z" fill="#FF003D"/>
<path d="M309.333 511.997H202.667C196.779 511.997 192 507.219 192 501.331V255.997C192 244.243 201.579 234.664 213.333 234.664H298.667C310.421 234.664 320 244.243 320 255.997V501.331C320 507.219 315.221 511.997 309.333 511.997ZM213.333 490.664H298.667V255.997H213.333V490.664Z" fill="#FF003D"/>
<path d="M138.667 511.997H32.0007C26.1127 511.997 21.334 507.219 21.334 501.331V127.997C21.334 116.243 30.9127 106.664 42.6673 106.664H128.001C139.755 106.664 149.334 116.243 149.334 127.997V501.331C149.334 507.219 144.555 511.997 138.667 511.997ZM42.6673 490.664H128.001V127.997H42.6673V490.664Z" fill="#FF003D"/>
<path d="M458.666 234.669C455.935 234.669 453.205 233.624 451.114 231.554L259.114 39.5542C254.954 35.3942 254.954 28.6316 259.114 24.4716C263.274 20.3116 270.037 20.3116 274.197 24.4716L466.197 216.472C470.357 220.632 470.357 227.394 466.197 231.554C464.127 233.624 461.397 234.669 458.666 234.669Z" fill="#FF003D"/>
<path d="M458.666 234.667H373.333C367.445 234.667 362.666 229.888 362.666 224C362.666 218.112 367.445 213.333 373.333 213.333H447.999V138.667C447.999 132.779 452.778 128 458.666 128C464.554 128 469.333 132.779 469.333 138.667V224C469.333 229.888 464.554 234.667 458.666 234.667Z" fill="#FF003D"/>
</g>
<defs>
<clipPath id="clip0_1532_237">
<rect width="512" height="512" fill="white"/>
</clipPath>
</defs>
</svg>
