<svg width="39" height="39" viewBox="0 0 39 39" fill="none" xmlns="http://www.w3.org/2000/svg">
<g opacity="0.5" clip-path="url(#clip0)">
<path d="M34.7202 38.974H4.27939C3.48196 38.974 2.83569 38.3277 2.83569 37.5303V14.2529H36.1642V37.5303C36.1642 38.3277 35.5176 38.974 34.7202 38.974Z" fill="#FFC73B"/>
<path d="M2.83569 14.2529H36.1642V19.0967H2.83569V14.2529Z" fill="#EFB025"/>
<path d="M39 9.20335V15.2043C39 15.8452 38.4799 16.3644 37.839 16.3644H1.16013C0.519218 16.3644 0 15.8452 0 15.2043V9.20335C0 8.56243 0.519218 8.04321 1.16013 8.04321H37.839C38.4799 8.04321 39 8.56243 39 9.20335Z" fill="#FFC73B"/>
<path d="M18.1741 10.8021C17.9209 11.097 17.6724 11.396 17.4299 11.6983C16.5263 12.8227 15.6991 14.001 14.9513 15.2239C14.7213 15.6 14.4994 15.98 14.2839 16.3644H6.37427C6.83636 15.3159 7.34308 14.2867 7.89205 13.2807C8.88764 11.4555 10.0237 9.70415 11.293 8.04324C11.5962 7.64661 11.9065 7.25475 12.2246 6.86883C12.4151 6.63615 12.6088 6.40674 12.8051 6.17822C13.527 6.80009 14.2482 7.42137 14.9704 8.04324C15.0823 8.13905 15.1941 8.23605 15.3057 8.33216C16.1579 9.06591 17.0101 9.79936 17.8619 10.534C17.9664 10.6227 18.0699 10.7128 18.1741 10.8021Z" fill="#EFB025"/>
<path d="M29.9757 16.3644H22.0654C21.8509 15.98 21.628 15.6 21.398 15.2239C20.6503 14.001 19.8222 12.8227 18.9194 11.6983C18.676 11.396 18.4276 11.097 18.1741 10.8021C18.2785 10.7128 18.3821 10.6233 18.4865 10.534C19.3393 9.79936 20.1914 9.06502 21.0433 8.33216C21.1552 8.23605 21.2671 8.13905 21.3789 8.04324C22.1008 7.42137 22.8229 6.80009 23.5442 6.17822C23.7406 6.40614 23.9343 6.63615 24.1247 6.86823C24.4434 7.25475 24.754 7.64661 25.0563 8.04324C26.3257 9.70415 27.4617 11.4555 28.4579 13.2807C29.0068 14.2867 29.5136 15.3159 29.9757 16.3644Z" fill="#EFB025"/>
<path d="M19.4995 10.8029C19.246 11.0975 18.9975 11.3965 18.755 11.6988C17.8517 12.8232 17.0242 14.0015 16.2764 15.2247C13.9026 19.105 12.3259 23.4397 11.6609 27.9767C10.6614 26.6511 9.73905 25.2169 8.90919 23.6834C7.44943 24.6355 6.0227 25.7245 4.64893 26.9498C5.35441 22.1373 6.90879 17.5117 9.21745 13.2811C10.4505 11.0204 11.8995 8.8724 13.5497 6.86932C13.7402 6.63663 13.9339 6.40752 14.1302 6.17871C14.964 6.89669 15.7971 7.61467 16.6311 8.33265C17.483 9.0664 18.3352 9.79985 19.1873 10.5345C19.2915 10.6232 19.395 10.7133 19.4995 10.8029Z" fill="#FF4440"/>
<path d="M34.3506 26.9498C32.9769 25.7245 31.5501 24.6355 30.0904 23.6834C29.2605 25.2169 28.3381 26.6511 27.3387 27.9767C26.6737 23.4397 25.0973 19.105 22.7231 15.2247C21.9754 14.0015 21.1473 12.8232 20.2446 11.6988C20.0012 11.3965 19.7527 11.0975 19.4995 10.8029C19.6037 10.7133 19.7072 10.6238 19.8116 10.5345C20.6644 9.79985 21.5166 9.06551 22.3688 8.33265C23.2025 7.61378 24.0365 6.89669 24.8693 6.17871C25.0657 6.40663 25.2594 6.63663 25.4498 6.86872C27.1003 8.8718 28.5494 11.0198 29.783 13.2811C32.0911 17.5117 33.6452 22.1373 34.3506 26.9498Z" fill="#FF4440"/>
<path d="M16.3948 10.803H22.6049V16.3647H16.3948V10.803Z" fill="#FF4440"/>
<path d="M29.7828 13.2811L22.7229 15.2246C21.9752 14.0014 21.1471 12.8232 20.2443 11.6987L19.8114 10.5344L19.4993 9.69475L22.3685 8.33258L25.4496 6.86865C27.1001 8.87173 28.5491 11.0197 29.7828 13.2811Z" fill="#EA2F2F"/>
<path d="M19.4995 9.69464L19.1874 10.5343L18.7551 11.6986C17.8517 12.823 17.0243 14.0013 16.2765 15.2245L9.21753 13.281C10.4506 11.0202 11.8996 8.87222 13.5498 6.86914L16.6312 8.33247L19.4995 9.69464Z" fill="#EA2F2F"/>
<path d="M30.7667 0.269814L19.4995 5.62059L21.6639 11.4415L33.6901 8.13129C35.2629 7.69836 36.127 6.01038 35.5584 4.48129L34.5658 1.81229C33.9975 0.283204 32.2405 -0.430015 30.7667 0.269814Z" fill="#FF4440"/>
<path d="M8.23264 0.269814L19.4998 5.62059L17.3355 11.4415L5.30955 8.13129C3.73672 7.69836 2.87264 6.01038 3.44125 4.48129L4.43357 1.81229C5.00218 0.283204 6.7589 -0.430015 8.23264 0.269814Z" fill="#FF4440"/>
<path d="M22.1903 7.96002C21.9856 7.96002 21.7847 7.85886 21.6666 7.67349C21.4818 7.38457 21.566 7.00073 21.8549 6.81596C21.9403 6.76151 23.9696 5.47016 26.2994 4.52783C29.6581 3.16923 31.901 3.24213 32.965 4.74444C33.1635 5.02443 33.0971 5.41213 32.8171 5.6103C32.5371 5.80847 32.1497 5.74241 31.9516 5.46242C30.5091 3.42601 24.5114 6.5925 22.5241 7.86243C22.4206 7.92848 22.3048 7.96002 22.1903 7.96002Z" fill="#EA2F2F"/>
<path d="M16.7481 7.96002C16.6335 7.96002 16.5178 7.92848 16.4142 7.86243C14.4269 6.5925 8.42926 3.42601 6.98675 5.46242C6.78829 5.74241 6.40088 5.80847 6.12089 5.6103C5.8412 5.41184 5.77484 5.02443 5.97331 4.74444C7.03733 3.24213 9.27994 3.16923 12.6389 4.52783C14.9687 5.46986 16.998 6.76151 17.0834 6.81596C17.3723 7.00073 17.4565 7.38457 17.272 7.67349C17.1533 7.85886 16.9528 7.96002 16.7481 7.96002Z" fill="#EA2F2F"/>
<path d="M21.2664 3.61987H17.7327C16.7657 3.61987 15.9817 4.40391 15.9817 5.37123V10.5048C15.9817 11.4721 16.7657 12.2562 17.7327 12.2562H21.2664C22.2334 12.2562 23.0175 11.4721 23.0175 10.5048V5.37123C23.0175 4.40391 22.2334 3.61987 21.2664 3.61987Z" fill="#EA2F2F"/>
<path d="M16.3948 16.3645H22.6049V38.9742H16.3948V16.3645Z" fill="#FF4440"/>
<path d="M16.3948 16.3645H22.6049V19.0969H16.3948V16.3645Z" fill="#EA2F2F"/>
</g>
<defs>
<clipPath id="clip0">
<rect width="39" height="39" fill="white"/>
</clipPath>
</defs>
</svg>
