<svg width="226" height="192" viewBox="0 0 226 192" fill="none" xmlns="http://www.w3.org/2000/svg">
<g clip-path="url(#clip0)">
<path d="M205.521 171.642H20.4795V92.6652C20.4795 68.0888 30.2272 44.519 47.5782 27.1408C64.9292 9.76269 88.4622 -0.000244141 113 -0.000244141C137.538 -0.000244141 161.071 9.76269 178.422 27.1408C195.773 44.519 205.521 68.0888 205.521 92.6652V171.642Z" fill="#E6E6E6"/>
<path d="M67.2353 168.169C67.2684 168.169 67.3011 168.162 67.3317 168.15C67.3623 168.137 67.39 168.118 67.4134 168.095C67.4368 168.072 67.4554 168.044 67.4681 168.013C67.4808 167.983 67.4873 167.95 67.4873 167.917V62.1626C67.487 62.0958 67.4604 62.0319 67.4131 61.9847C67.3659 61.9376 67.302 61.9111 67.2353 61.9111C67.1686 61.9111 67.1047 61.9376 67.0574 61.9847C67.0102 62.0319 66.9835 62.0958 66.9833 62.1626V167.917C66.9833 167.95 66.9898 167.983 67.0025 168.013C67.0152 168.044 67.0337 168.072 67.0571 168.095C67.0805 168.118 67.1083 168.137 67.1389 168.15C67.1694 168.162 67.2022 168.169 67.2353 168.169Z" fill="#3F3D56"/>
<path d="M67.2353 82.5793C67.2684 82.5793 67.3012 82.5728 67.3318 82.5601C67.3624 82.5475 67.3902 82.5289 67.4136 82.5054L79.5435 70.3647C79.5908 70.3174 79.6173 70.2532 79.6172 70.1863C79.6172 70.1194 79.5907 70.0552 79.5434 70.0079C79.4961 69.9606 79.432 69.9341 79.3652 69.9341C79.2984 69.9341 79.2343 69.9607 79.1871 70.0081L67.0571 82.1487C67.0219 82.184 66.9979 82.229 66.9882 82.2779C66.9785 82.3268 66.9835 82.3776 67.0026 82.4237C67.0217 82.4697 67.054 82.5091 67.0954 82.5368C67.1368 82.5645 67.1855 82.5793 67.2353 82.5793H67.2353Z" fill="#3F3D56"/>
<path d="M67.2361 103.597C67.2859 103.597 67.3346 103.582 67.376 103.555C67.4174 103.527 67.4497 103.488 67.4688 103.442C67.4879 103.396 67.4929 103.345 67.4832 103.296C67.4735 103.247 67.4495 103.202 67.4143 103.167L47.1004 82.8347C47.0532 82.7874 46.9891 82.7608 46.9223 82.7607C46.8555 82.7607 46.7914 82.7873 46.7441 82.8346C46.6969 82.8819 46.6703 82.946 46.6703 83.0129C46.6703 83.0799 46.6968 83.144 46.744 83.1914L67.0579 103.523C67.0812 103.547 67.109 103.565 67.1396 103.578C67.1702 103.591 67.203 103.597 67.2361 103.597Z" fill="#3F3D56"/>
<path d="M97.8829 93.5424C97.8829 76.6016 84.1618 36.4019 67.236 36.4019C50.3102 36.4019 36.5891 76.6016 36.5891 93.5424C36.5953 101.679 39.8268 109.481 45.5736 115.232C51.3203 120.983 59.1119 124.214 67.236 124.214C75.36 124.214 83.1517 120.983 88.8984 115.232C94.6452 109.481 97.8767 101.679 97.8829 93.5424Z" fill="white"/>
<path d="M52.2681 47.4165C59.8508 50.739 68.2154 51.8521 76.4013 50.628C78.6796 50.2872 80.9264 49.7612 83.1194 49.0552L82.5258 48.2818C79.0143 53.905 74.4933 58.8283 69.1915 62.8024C63.916 66.7761 57.9783 69.7809 51.6546 71.6769C48.0959 72.7411 44.4347 73.4246 40.7322 73.7159C40.6297 73.7191 40.5303 73.7519 40.446 73.8103C40.3616 73.8687 40.2959 73.9502 40.2566 74.0451C40.2174 74.14 40.2063 74.2442 40.2247 74.3452C40.2432 74.4462 40.2903 74.5398 40.3605 74.6147C45.6011 80.4026 52.1662 84.8298 59.4919 87.5161C65.5909 89.7237 72.0744 90.6664 78.5485 90.2868C85.0225 89.9073 91.3519 88.2134 97.1521 85.3082L96.4329 84.5878C92.3392 91.6287 86.6084 97.5753 79.7278 101.922C72.8909 106.305 65.1507 109.078 57.0895 110.032C52.5706 110.56 48.0004 110.453 43.511 109.715C42.8491 109.604 42.5646 110.619 43.2315 110.73C51.4233 112.056 59.8133 111.384 67.6911 108.774C75.5853 106.204 82.7945 101.874 88.7757 96.109C92.1295 92.8647 95.0125 89.1655 97.3407 85.1193C97.3956 85.0187 97.4165 84.9029 97.4002 84.7893C97.3839 84.6758 97.3313 84.5706 97.2503 84.4895C97.1693 84.4084 97.0643 84.3557 96.951 84.3394C96.8376 84.3231 96.722 84.344 96.6215 84.399C89.2033 88.0904 80.9448 89.7585 72.678 89.2352C60.5622 88.4077 49.2413 82.8985 41.1039 73.8701L40.7322 74.7689C47.4702 74.2292 54.0511 72.4502 60.1451 69.5209C66.2454 66.606 71.7753 62.6207 76.473 57.7536C79.1001 55.0265 81.4332 52.0298 83.4336 48.8133C83.4837 48.7226 83.5062 48.6192 83.4985 48.5159C83.4907 48.4126 83.453 48.3138 83.3899 48.2316C83.3268 48.1495 83.2412 48.0876 83.1435 48.0535C83.0458 48.0194 82.9403 48.0147 82.8399 48.0398C75.1772 50.4852 66.9817 50.7196 59.1921 48.7164C57.0047 48.1547 54.8666 47.4159 52.7987 46.5073C52.1852 46.2369 51.6495 47.1439 52.2681 47.4165Z" fill="#F2F2F2"/>
<path d="M57.9784 50.7203C58.8494 50.7203 59.5555 50.0132 59.5555 49.1408C59.5555 48.2685 58.8494 47.5613 57.9784 47.5613C57.1074 47.5613 56.4014 48.2685 56.4014 49.1408C56.4014 50.0132 57.1074 50.7203 57.9784 50.7203Z" fill="#6C63FF"/>
<path d="M69.193 51.7733C70.064 51.7733 70.7701 51.0661 70.7701 50.1938C70.7701 49.3214 70.064 48.6143 69.193 48.6143C68.322 48.6143 67.616 49.3214 67.616 50.1938C67.616 51.0661 68.322 51.7733 69.193 51.7733Z" fill="#6C63FF"/>
<path d="M79.0059 55.9855C79.8769 55.9855 80.583 55.2783 80.583 54.4059C80.583 53.5336 79.8769 52.8264 79.0059 52.8264C78.1349 52.8264 77.4288 53.5336 77.4288 54.4059C77.4288 55.2783 78.1349 55.9855 79.0059 55.9855Z" fill="#6C63FF"/>
<path d="M70.5949 63.3566C71.4659 63.3566 72.1719 62.6494 72.1719 61.777C72.1719 60.9047 71.4659 60.1975 70.5949 60.1975C69.7239 60.1975 69.0178 60.9047 69.0178 61.777C69.0178 62.6494 69.7239 63.3566 70.5949 63.3566Z" fill="#6C63FF"/>
<path d="M61.1325 70.3766C62.0035 70.3766 62.7095 69.6694 62.7095 68.7971C62.7095 67.9247 62.0035 67.2175 61.1325 67.2175C60.2615 67.2175 59.5554 67.9247 59.5554 68.7971C59.5554 69.6694 60.2615 70.3766 61.1325 70.3766Z" fill="#6C63FF"/>
<path d="M47.8152 74.9396C48.6862 74.9396 49.3923 74.2324 49.3923 73.36C49.3923 72.4877 48.6862 71.7805 47.8152 71.7805C46.9442 71.7805 46.2382 72.4877 46.2382 73.36C46.2382 74.2324 46.9442 74.9396 47.8152 74.9396Z" fill="#6C63FF"/>
<path d="M54.8244 86.5228C55.6954 86.5228 56.4014 85.8156 56.4014 84.9433C56.4014 84.0709 55.6954 83.3638 54.8244 83.3638C53.9534 83.3638 53.2473 84.0709 53.2473 84.9433C53.2473 85.8156 53.9534 86.5228 54.8244 86.5228Z" fill="#6C63FF"/>
<path d="M70.9453 91.4369C71.8163 91.4369 72.5224 90.7297 72.5224 89.8574C72.5224 88.985 71.8163 88.2778 70.9453 88.2778C70.0744 88.2778 69.3683 88.985 69.3683 89.8574C69.3683 90.7297 70.0744 91.4369 70.9453 91.4369Z" fill="#6C63FF"/>
<path d="M70.9453 91.4369C71.8163 91.4369 72.5224 90.7297 72.5224 89.8574C72.5224 88.985 71.8163 88.2778 70.9453 88.2778C70.0744 88.2778 69.3683 88.985 69.3683 89.8574C69.3683 90.7297 70.0744 91.4369 70.9453 91.4369Z" fill="#6C63FF"/>
<path d="M84.9637 90.735C85.8346 90.735 86.5407 90.0278 86.5407 89.1555C86.5407 88.2831 85.8346 87.5759 84.9637 87.5759C84.0927 87.5759 83.3866 88.2831 83.3866 89.1555C83.3866 90.0278 84.0927 90.735 84.9637 90.735Z" fill="#6C63FF"/>
<path d="M80.4077 104.073C81.2787 104.073 81.9848 103.366 81.9848 102.494C81.9848 101.621 81.2787 100.914 80.4077 100.914C79.5368 100.914 78.8307 101.621 78.8307 102.494C78.8307 103.366 79.5368 104.073 80.4077 104.073Z" fill="#6C63FF"/>
<path d="M66.039 110.04C66.91 110.04 67.616 109.333 67.616 108.461C67.616 107.588 66.91 106.881 66.039 106.881C65.168 106.881 64.4619 107.588 64.4619 108.461C64.4619 109.333 65.168 110.04 66.039 110.04Z" fill="#6C63FF"/>
<path d="M50.9693 112.848C51.8403 112.848 52.5463 112.141 52.5463 111.269C52.5463 110.396 51.8403 109.689 50.9693 109.689C50.0983 109.689 49.3922 110.396 49.3922 111.269C49.3922 112.141 50.0983 112.848 50.9693 112.848Z" fill="#6C63FF"/>
<path d="M68.6674 29.3089C70.6029 29.3089 72.172 27.7374 72.172 25.7989C72.172 23.8603 70.6029 22.2888 68.6674 22.2888C66.7319 22.2888 65.1628 23.8603 65.1628 25.7989C65.1628 27.7374 66.7319 29.3089 68.6674 29.3089Z" fill="white"/>
<path d="M177.309 93.5431C179.245 93.5431 180.814 91.9716 180.814 90.033C180.814 88.0945 179.245 86.5229 177.309 86.5229C175.374 86.5229 173.805 88.0945 173.805 90.033C173.805 91.9716 175.374 93.5431 177.309 93.5431Z" fill="white"/>
<path d="M44.1354 135.664C46.071 135.664 47.64 134.092 47.64 132.154C47.64 130.215 46.071 128.644 44.1354 128.644C42.1999 128.644 40.6309 130.215 40.6309 132.154C40.6309 134.092 42.1999 135.664 44.1354 135.664Z" fill="white"/>
<path d="M97.7553 34.223C99.6908 34.223 101.26 32.6515 101.26 30.7129C101.26 28.7744 99.6908 27.2029 97.7553 27.2029C95.8198 27.2029 94.2507 28.7744 94.2507 30.7129C94.2507 32.6515 95.8198 34.223 97.7553 34.223Z" fill="white"/>
<path d="M192.028 150.406C193.964 150.406 195.533 148.834 195.533 146.896C195.533 144.957 193.964 143.386 192.028 143.386C190.093 143.386 188.524 144.957 188.524 146.896C188.524 148.834 190.093 150.406 192.028 150.406Z" fill="white"/>
<path d="M126.142 103.722C128.078 103.722 129.647 102.151 129.647 100.212C129.647 98.2734 128.078 96.7019 126.142 96.7019C124.207 96.7019 122.638 98.2734 122.638 100.212C122.638 102.151 124.207 103.722 126.142 103.722Z" fill="white"/>
<path d="M136.656 68.9725C138.592 68.9725 140.161 67.401 140.161 65.4625C140.161 63.5239 138.592 61.9524 136.656 61.9524C134.721 61.9524 133.151 63.5239 133.151 65.4625C133.151 67.401 134.721 68.9725 136.656 68.9725Z" fill="white"/>
<path d="M88.293 143.386C90.2285 143.386 91.7976 141.814 91.7976 139.876C91.7976 137.937 90.2285 136.366 88.293 136.366C86.3575 136.366 84.7885 137.937 84.7885 139.876C84.7885 141.814 86.3575 143.386 88.293 143.386Z" fill="white"/>
<path d="M155.999 164.842H150.217C149.785 164.841 149.359 164.752 148.963 164.581C148.567 164.409 148.211 164.158 147.915 163.843C147.618 163.528 147.39 163.155 147.244 162.747C147.099 162.339 147.039 161.905 147.069 161.473C147.138 160.661 147.511 159.905 148.114 159.357C148.717 158.81 149.505 158.512 150.319 158.524H151.619V151.504H159.329V161.508C159.328 162.392 158.977 163.239 158.352 163.864C157.728 164.489 156.882 164.841 155.999 164.842Z" fill="white"/>
<path d="M154.15 133.639L147.175 132.939C146.159 132.836 145.225 132.333 144.578 131.541C143.931 130.748 143.625 129.731 143.727 128.713C143.829 127.694 144.33 126.758 145.121 126.11C145.912 125.462 146.927 125.154 147.944 125.255L154.918 125.955C155.677 126.031 156.396 126.331 156.984 126.816C157.573 127.302 158.005 127.951 158.225 128.682C158.445 129.413 158.444 130.194 158.221 130.924C157.998 131.654 157.565 132.302 156.975 132.786C156.801 132.928 156.615 133.055 156.419 133.166C155.73 133.555 154.937 133.72 154.15 133.639Z" fill="white"/>
<path d="M136.575 127.995V127.995C136.623 127.513 136.766 127.046 136.994 126.62C137.223 126.193 137.533 125.816 137.907 125.509C138.281 125.203 138.712 124.973 139.174 124.834C139.637 124.694 140.123 124.647 140.604 124.695L141.004 124.669L140.386 124.069C140.303 123.989 140.237 123.893 140.191 123.787C140.145 123.682 140.12 123.568 140.118 123.452C140.116 123.337 140.137 123.222 140.179 123.115C140.222 123.008 140.285 122.91 140.365 122.827C140.445 122.744 140.541 122.678 140.647 122.632C140.752 122.587 140.866 122.562 140.981 122.56C141.096 122.559 141.211 122.58 141.318 122.622C141.425 122.665 141.522 122.728 141.605 122.809L143.365 124.517L146.028 124.345C146.217 124.332 146.407 124.359 146.586 124.422C146.765 124.486 146.929 124.585 147.068 124.714C147.208 124.842 147.32 124.998 147.397 125.172C147.475 125.345 147.517 125.532 147.52 125.722L147.625 132.034C147.628 132.247 147.583 132.458 147.493 132.651C147.403 132.844 147.27 133.015 147.105 133.149C146.939 133.283 146.746 133.377 146.538 133.425C146.331 133.473 146.115 133.473 145.908 133.425L139.87 132.03C138.899 131.932 138.006 131.452 137.388 130.696C136.77 129.939 136.478 128.968 136.575 127.995Z" fill="#3F3D56"/>
<path d="M160.03 156.593C168.062 156.593 174.574 148.736 174.574 139.043C174.574 129.35 168.062 121.493 160.03 121.493C151.998 121.493 145.486 129.35 145.486 139.043C145.486 148.736 151.998 156.593 160.03 156.593Z" fill="white"/>
<path d="M151.794 139.043C152.375 139.043 152.846 138.242 152.846 137.253C152.846 136.264 152.375 135.463 151.794 135.463C151.214 135.463 150.743 136.264 150.743 137.253C150.743 138.242 151.214 139.043 151.794 139.043Z" fill="#3F3D56"/>
<path d="M151.444 144.027C152.024 144.027 152.495 143.226 152.495 142.237C152.495 141.248 152.024 140.447 151.444 140.447C150.863 140.447 150.392 141.248 150.392 142.237C150.392 143.226 150.863 144.027 151.444 144.027Z" fill="#3F3D56"/>
<path d="M159.855 125.354C166.048 125.354 171.069 120.325 171.069 114.122C171.069 107.918 166.048 102.89 159.855 102.89C153.661 102.89 148.64 107.918 148.64 114.122C148.64 120.325 153.661 125.354 159.855 125.354Z" fill="white"/>
<path d="M169.317 110.787H150.743C150.139 110.787 149.56 110.546 149.133 110.118C148.706 109.691 148.466 109.111 148.465 108.506V106.751C148.465 100.839 154.44 95.343 160.906 95.343C167.372 95.343 171.245 100.839 171.245 106.751V108.857C171.244 109.369 171.041 109.859 170.679 110.221C170.318 110.583 169.828 110.787 169.317 110.787Z" fill="#3F3D56"/>
<path d="M161.257 98.3265C162.805 98.3265 164.06 97.0693 164.06 95.5185C164.06 93.9677 162.805 92.7104 161.257 92.7104C159.708 92.7104 158.453 93.9677 158.453 95.5185C158.453 97.0693 159.708 98.3265 161.257 98.3265Z" fill="#6C63FF"/>
<path d="M157.226 114.297C157.807 114.297 158.278 113.826 158.278 113.244C158.278 112.663 157.807 112.191 157.226 112.191C156.646 112.191 156.175 112.663 156.175 113.244C156.175 113.826 156.646 114.297 157.226 114.297Z" fill="#3F3D56"/>
<path d="M151.268 114.297C151.849 114.297 152.32 113.826 152.32 113.244C152.32 112.663 151.849 112.191 151.268 112.191C150.688 112.191 150.217 112.663 150.217 113.244C150.217 113.826 150.688 114.297 151.268 114.297Z" fill="#3F3D56"/>
<path d="M168.791 164.842H163.009C162.126 164.841 161.28 164.489 160.656 163.864C160.032 163.239 159.68 162.392 159.679 161.508V151.504H167.39V158.524H168.689C169.503 158.512 170.291 158.81 170.894 159.357C171.497 159.905 171.871 160.661 171.939 161.473C171.969 161.905 171.909 162.339 171.764 162.747C171.618 163.155 171.39 163.528 171.093 163.843C170.798 164.158 170.441 164.409 170.045 164.581C169.649 164.752 169.223 164.841 168.791 164.842Z" fill="white"/>
<path d="M154.892 117.432C154.882 117.432 154.872 117.432 154.862 117.432L145.191 117.008C145.08 117.015 144.97 116.983 144.88 116.917C144.79 116.851 144.726 116.756 144.698 116.647C144.671 116.446 144.83 116.269 145.085 116.217L154.331 114.311C154.475 114.281 154.625 114.3 154.758 114.364C154.815 114.39 154.866 114.428 154.906 114.477C154.946 114.526 154.974 114.583 154.988 114.644L155.412 116.974C155.422 117.036 155.415 117.099 155.391 117.157C155.367 117.215 155.328 117.265 155.278 117.302C155.168 117.389 155.032 117.435 154.892 117.432Z" fill="#FF6584"/>
<path d="M155.171 118.551C153.722 118.551 152.363 117.627 152.363 118.4C152.363 119.174 153.722 121.353 155.171 121.353C156.621 121.353 157.927 119.825 157.927 119.051C157.927 118.277 156.621 118.551 155.171 118.551Z" fill="#E6E6E6"/>
<path d="M145.963 149.56L124.438 155.783C123.759 155.978 123.031 155.896 122.412 155.554C121.794 155.212 121.336 154.638 121.139 153.959L115.42 134.115C115.225 133.435 115.307 132.705 115.649 132.086C115.99 131.467 116.563 131.008 117.241 130.811L138.766 124.588C139.445 124.393 140.174 124.475 140.792 124.817C141.411 125.159 141.869 125.733 142.065 126.412L147.784 146.256C147.979 146.936 147.897 147.666 147.556 148.285C147.214 148.904 146.642 149.363 145.963 149.56Z" fill="#6C63FF"/>
<path d="M136.99 153.011L133.867 153.914C133.508 154.018 133.122 153.974 132.794 153.793C132.467 153.612 132.225 153.308 132.121 152.949L125.288 129.241C125.185 128.881 125.228 128.494 125.409 128.166C125.59 127.838 125.893 127.596 126.252 127.491L129.375 126.589C129.734 126.485 130.12 126.529 130.447 126.71C130.775 126.891 131.017 127.195 131.121 127.554L137.954 151.262C138.057 151.622 138.014 152.009 137.833 152.336C137.652 152.664 137.349 152.907 136.99 153.011Z" fill="#3F3D56"/>
<path d="M125.641 122.479C127.845 123.487 128.322 127.177 128.322 127.177C128.322 127.177 125.226 129.233 123.022 128.225C120.818 127.217 120.34 123.527 120.34 123.527C120.34 123.527 123.437 121.471 125.641 122.479Z" fill="#3F3D56"/>
<path d="M132.736 125.055C131.736 127.266 128.054 127.756 128.054 127.756C128.054 127.756 125.991 124.661 126.991 122.45C127.99 120.24 131.673 119.75 131.673 119.75C131.673 119.75 133.735 122.845 132.736 125.055Z" fill="#3F3D56"/>
<path d="M159.631 136.528L152.938 138.611C151.961 138.914 150.905 138.817 150 138.34C149.096 137.863 148.417 137.046 148.114 136.069C147.811 135.091 147.908 134.033 148.383 133.127C148.859 132.221 149.674 131.541 150.65 131.237L157.343 129.154C158.071 128.927 158.85 128.922 159.581 129.139C160.312 129.355 160.963 129.784 161.451 130.371C161.938 130.958 162.241 131.677 162.321 132.437C162.401 133.196 162.254 133.962 161.899 134.638C161.795 134.837 161.673 135.027 161.536 135.205C161.053 135.833 160.387 136.295 159.631 136.528Z" fill="#F2F2F2"/>
<path d="M141.252 138.204C141.109 137.742 141.058 137.256 141.102 136.774C141.146 136.292 141.285 135.824 141.51 135.395C141.735 134.967 142.042 134.587 142.413 134.278C142.784 133.968 143.213 133.735 143.675 133.591L144.033 133.411L143.23 133.1C143.123 133.059 143.025 132.996 142.941 132.917C142.858 132.837 142.791 132.742 142.745 132.637C142.698 132.531 142.673 132.418 142.67 132.303C142.667 132.188 142.687 132.073 142.728 131.965C142.77 131.858 142.832 131.76 142.911 131.676C142.991 131.593 143.086 131.526 143.191 131.479C143.296 131.433 143.409 131.407 143.524 131.404C143.639 131.402 143.754 131.421 143.861 131.463L146.147 132.347L148.532 131.147C148.702 131.062 148.887 131.012 149.076 131.001C149.265 130.989 149.455 131.016 149.634 131.08C149.812 131.144 149.976 131.244 150.115 131.373C150.254 131.503 150.366 131.659 150.443 131.832L152.999 137.602C153.086 137.797 153.127 138.009 153.119 138.222C153.111 138.435 153.055 138.644 152.955 138.832C152.855 139.02 152.714 139.183 152.542 139.308C152.369 139.433 152.171 139.517 151.961 139.554L145.858 140.631C144.926 140.921 143.917 140.828 143.054 140.373C142.19 139.918 141.542 139.138 141.252 138.204Z" fill="#3F3D56"/>
<path d="M85.7213 165.455H74.4445C74.089 165.454 73.7481 165.313 73.4967 165.061C73.2453 164.809 73.1038 164.468 73.1034 164.112V153.716C73.1038 153.359 73.2453 153.018 73.4967 152.766C73.7481 152.514 74.089 152.373 74.4445 152.372H85.7213C86.0769 152.373 86.4177 152.514 86.6692 152.766C86.9206 153.018 87.062 153.359 87.0624 153.716V164.112C87.062 164.468 86.9206 164.809 86.6692 165.061C86.4178 165.313 86.0769 165.454 85.7213 165.455Z" fill="white"/>
<path d="M80.9012 165.869H79.2653C79.0771 165.869 78.8966 165.794 78.7635 165.661C78.6304 165.528 78.5555 165.347 78.5553 165.158V152.738C78.5555 152.549 78.6304 152.369 78.7635 152.235C78.8966 152.102 79.0771 152.027 79.2653 152.027H80.9012C81.0895 152.027 81.27 152.102 81.4031 152.235C81.5362 152.369 81.6111 152.549 81.6113 152.738V165.158C81.6111 165.347 81.5362 165.528 81.4031 165.661C81.27 165.794 81.0895 165.869 80.9012 165.869Z" fill="#3F3D56"/>
<path d="M79.6682 149.517C80.5937 150.313 80.3102 152.164 80.3102 152.164C80.3102 152.164 78.5264 152.725 77.6009 151.93C76.6754 151.134 76.9589 149.283 76.9589 149.283C76.9589 149.283 78.7428 148.722 79.6682 149.517Z" fill="#3F3D56"/>
<path d="M82.7395 151.755C81.9481 152.685 80.0989 152.407 80.0989 152.407C80.0989 152.407 79.5329 150.622 80.3242 149.692C81.1156 148.763 82.9647 149.041 82.9647 149.041C82.9647 149.041 83.5308 150.826 82.7395 151.755Z" fill="#3F3D56"/>
<path d="M56.982 165.563H48.6329C48.3696 165.562 48.1172 165.457 47.9311 165.271C47.7449 165.084 47.6402 164.832 47.6399 164.568V156.871C47.6402 156.607 47.7449 156.355 47.9311 156.168C48.1172 155.982 48.3696 155.877 48.6329 155.876H56.982C57.2453 155.877 57.4977 155.982 57.6838 156.168C57.87 156.355 57.9747 156.607 57.975 156.871V164.568C57.9747 164.832 57.87 165.084 57.6838 165.271C57.4977 165.457 57.2453 165.562 56.982 165.563Z" fill="white"/>
<path d="M53.4126 165.869H52.2015C52.0621 165.869 51.9285 165.814 51.8299 165.715C51.7314 165.616 51.6759 165.483 51.6758 165.343V156.147C51.6759 156.008 51.7314 155.874 51.8299 155.775C51.9285 155.676 52.0621 155.621 52.2015 155.621H53.4126C53.552 155.621 53.6856 155.676 53.7842 155.775C53.8827 155.874 53.9382 156.008 53.9383 156.147V165.343C53.9382 165.483 53.8827 165.616 53.7842 165.715C53.6856 165.814 53.552 165.869 53.4126 165.869Z" fill="#3F3D56"/>
<path d="M52.5001 153.762C53.1853 154.351 52.9755 155.722 52.9755 155.722C52.9755 155.722 51.6547 156.138 50.9695 155.549C50.2843 154.96 50.4941 153.589 50.4941 153.589C50.4941 153.589 51.8149 153.174 52.5001 153.762Z" fill="#3F3D56"/>
<path d="M54.7743 155.419C54.1884 156.107 52.8193 155.902 52.8193 155.902C52.8193 155.902 52.4001 154.58 52.9861 153.892C53.572 153.204 54.9411 153.41 54.9411 153.41C54.9411 153.41 55.3602 154.731 54.7743 155.419Z" fill="#3F3D56"/>
<path d="M219.516 192H6.4832C5.54627 192 4.62046 191.797 3.76954 191.404C2.91862 191.011 2.16282 190.438 1.55416 189.725C0.945496 189.012 0.498446 188.175 0.243802 187.271C-0.0108422 186.368 -0.0670313 185.421 0.0790972 184.494L2.29251 170.454C2.52746 168.923 3.30317 167.528 4.4785 166.522C5.65382 165.516 7.15065 164.966 8.69662 164.973H217.302C218.848 164.966 220.345 165.516 221.52 166.522C222.696 167.528 223.471 168.923 223.706 170.454L225.92 184.494C226.066 185.421 226.01 186.368 225.755 187.271C225.5 188.175 225.053 189.012 224.445 189.725C223.836 190.438 223.08 191.011 222.229 191.404C221.378 191.797 220.453 192 219.516 192Z" fill="#3F3D56"/>
</g>
<defs>
<clipPath id="clip0">
<rect width="226" height="192" fill="white"/>
</clipPath>
</defs>
</svg>
