<svg width="116" height="27" viewBox="0 0 116 27" fill="none" xmlns="http://www.w3.org/2000/svg">
<path d="M21.278 20V7.4H23.186V20H21.278ZM25.6708 20V11.072H27.3628L27.5068 12.638C27.7828 12.086 28.1848 11.654 28.7128 11.342C29.2528 11.018 29.8708 10.856 30.5668 10.856C31.6468 10.856 32.4928 11.192 33.1048 11.864C33.7288 12.536 34.0408 13.538 34.0408 14.87V20H32.1508V15.068C32.1508 13.34 31.4428 12.476 30.0268 12.476C29.3188 12.476 28.7308 12.728 28.2628 13.232C27.8068 13.736 27.5788 14.456 27.5788 15.392V20H25.6708ZM38.6494 20L35.3014 11.072H37.2994L39.7834 18.182L42.2674 11.072H44.2474L40.9174 20H38.6494ZM49.5343 20.216C48.6583 20.216 47.8783 20.024 47.1943 19.64C46.5223 19.244 45.9943 18.698 45.6103 18.002C45.2263 17.306 45.0343 16.496 45.0343 15.572C45.0343 14.636 45.2203 13.814 45.5923 13.106C45.9763 12.398 46.5043 11.846 47.1763 11.45C47.8603 11.054 48.6523 10.856 49.5523 10.856C50.4283 10.856 51.1903 11.054 51.8383 11.45C52.4863 11.834 52.9903 12.35 53.3503 12.998C53.7103 13.646 53.8903 14.36 53.8903 15.14C53.8903 15.26 53.8843 15.392 53.8723 15.536C53.8723 15.668 53.8663 15.818 53.8543 15.986H46.9063C46.9663 16.85 47.2483 17.51 47.7523 17.966C48.2683 18.41 48.8623 18.632 49.5343 18.632C50.0743 18.632 50.5243 18.512 50.8843 18.272C51.2563 18.02 51.5323 17.684 51.7123 17.264H53.6203C53.3803 18.104 52.9003 18.806 52.1803 19.37C51.4723 19.934 50.5903 20.216 49.5343 20.216ZM49.5343 12.422C48.8983 12.422 48.3343 12.614 47.8423 12.998C47.3503 13.37 47.0503 13.934 46.9423 14.69H51.9823C51.9463 13.994 51.7003 13.442 51.2443 13.034C50.7883 12.626 50.2183 12.422 49.5343 12.422ZM59.4341 20.216C58.3061 20.216 57.3761 19.94 56.6441 19.388C55.9121 18.836 55.4921 18.104 55.3841 17.192H57.3101C57.4061 17.6 57.6341 17.954 57.9941 18.254C58.3541 18.542 58.8281 18.686 59.4161 18.686C59.9921 18.686 60.4121 18.566 60.6761 18.326C60.9401 18.086 61.0721 17.81 61.0721 17.498C61.0721 17.042 60.8861 16.736 60.5141 16.58C60.1541 16.412 59.6501 16.262 59.0021 16.13C58.4981 16.022 57.9941 15.878 57.4901 15.698C56.9981 15.518 56.5841 15.266 56.2481 14.942C55.9241 14.606 55.7621 14.156 55.7621 13.592C55.7621 12.812 56.0621 12.164 56.6621 11.648C57.2621 11.12 58.1021 10.856 59.1821 10.856C60.1781 10.856 60.9821 11.096 61.5941 11.576C62.2181 12.056 62.5841 12.734 62.6921 13.61H60.8561C60.7961 13.226 60.6161 12.926 60.3161 12.71C60.0281 12.494 59.6381 12.386 59.1461 12.386C58.6661 12.386 58.2941 12.488 58.0301 12.692C57.7661 12.884 57.6341 13.136 57.6341 13.448C57.6341 13.76 57.8141 14.006 58.1741 14.186C58.5461 14.366 59.0321 14.528 59.6321 14.672C60.2321 14.804 60.7841 14.96 61.2881 15.14C61.8041 15.308 62.2181 15.56 62.5301 15.896C62.8421 16.232 62.9981 16.724 62.9981 17.372C63.0101 18.188 62.6921 18.866 62.0441 19.406C61.4081 19.946 60.5381 20.216 59.4341 20.216ZM68.491 20C67.615 20 66.919 19.79 66.403 19.37C65.887 18.938 65.629 18.176 65.629 17.084V12.674H64.099V11.072H65.629L65.863 8.804H67.537V11.072H70.057V12.674H67.537V17.084C67.537 17.576 67.639 17.918 67.843 18.11C68.059 18.29 68.425 18.38 68.941 18.38H69.967V20H68.491ZM72.0244 20V11.072H73.7164L73.8784 12.332C74.1664 11.876 74.5444 11.516 75.0124 11.252C75.4924 10.988 76.0444 10.856 76.6684 10.856C78.0844 10.856 79.0684 11.414 79.6204 12.53C79.9444 12.014 80.3764 11.606 80.9164 11.306C81.4684 11.006 82.0624 10.856 82.6984 10.856C83.8144 10.856 84.6904 11.192 85.3264 11.864C85.9624 12.536 86.2804 13.538 86.2804 14.87V20H84.3724V15.068C84.3724 13.34 83.7124 12.476 82.3924 12.476C81.7204 12.476 81.1684 12.728 80.7364 13.232C80.3164 13.736 80.1064 14.456 80.1064 15.392V20H78.1984V15.068C78.1984 13.34 77.5324 12.476 76.2004 12.476C75.5404 12.476 74.9944 12.728 74.5624 13.232C74.1424 13.736 73.9324 14.456 73.9324 15.392V20H72.0244ZM92.6886 20.216C91.8126 20.216 91.0326 20.024 90.3486 19.64C89.6766 19.244 89.1486 18.698 88.7646 18.002C88.3806 17.306 88.1886 16.496 88.1886 15.572C88.1886 14.636 88.3746 13.814 88.7466 13.106C89.1306 12.398 89.6586 11.846 90.3306 11.45C91.0146 11.054 91.8066 10.856 92.7066 10.856C93.5826 10.856 94.3446 11.054 94.9926 11.45C95.6406 11.834 96.1446 12.35 96.5046 12.998C96.8646 13.646 97.0446 14.36 97.0446 15.14C97.0446 15.26 97.0386 15.392 97.0266 15.536C97.0266 15.668 97.0206 15.818 97.0086 15.986H90.0606C90.1206 16.85 90.4026 17.51 90.9066 17.966C91.4226 18.41 92.0166 18.632 92.6886 18.632C93.2286 18.632 93.6786 18.512 94.0386 18.272C94.4106 18.02 94.6866 17.684 94.8666 17.264H96.7746C96.5346 18.104 96.0546 18.806 95.3346 19.37C94.6266 19.934 93.7446 20.216 92.6886 20.216ZM92.6886 12.422C92.0526 12.422 91.4886 12.614 90.9966 12.998C90.5046 13.37 90.2046 13.934 90.0966 14.69H95.1366C95.1006 13.994 94.8546 13.442 94.3986 13.034C93.9426 12.626 93.3726 12.422 92.6886 12.422ZM99.0244 20V11.072H100.716L100.86 12.638C101.136 12.086 101.538 11.654 102.066 11.342C102.606 11.018 103.224 10.856 103.92 10.856C105 10.856 105.846 11.192 106.458 11.864C107.082 12.536 107.394 13.538 107.394 14.87V20H105.504V15.068C105.504 13.34 104.796 12.476 103.38 12.476C102.672 12.476 102.084 12.728 101.616 13.232C101.16 13.736 100.932 14.456 100.932 15.392V20H99.0244ZM113.386 20C112.51 20 111.814 19.79 111.298 19.37C110.782 18.938 110.524 18.176 110.524 17.084V12.674H108.994V11.072H110.524L110.758 8.804H112.432V11.072H114.952V12.674H112.432V17.084C112.432 17.576 112.534 17.918 112.738 18.11C112.954 18.29 113.32 18.38 113.836 18.38H114.862V20H113.386Z" fill="#294C88"/>
<circle cx="6" cy="14" r="6" fill="#294C88"/>
</svg>
