<svg width="308" height="240" viewBox="0 0 308 240" fill="none" xmlns="http://www.w3.org/2000/svg">
<path fill-rule="evenodd" clip-rule="evenodd" d="M125.944 83.5865C126.851 82.6631 126.527 82.6793 125.442 77.8197C124.697 74.3855 124.94 75.5842 124.146 72.636C124.146 72.4254 124.146 72.1987 123.822 72.1987C123.498 72.1987 123.546 72.6846 123.563 73.8185C123.642 75.26 123.821 76.6943 124.097 78.1112C124.23 79.4552 124.529 80.7774 124.988 82.0476C125.166 82.5983 125.183 82.5173 124.907 82.7927C124.236 83.3364 123.52 83.824 122.769 84.2506C122.105 84.5908 121.667 84.3964 121.667 84.7852C121.667 85.6113 124.794 84.5908 125.944 83.5865ZM114.151 74.3855V76.1026C114.151 76.2916 114.226 76.4729 114.36 76.6066C114.494 76.7402 114.675 76.8153 114.864 76.8153C115.053 76.8153 115.234 76.7402 115.368 76.6066C115.502 76.4729 115.577 76.2916 115.577 76.1026V74.2235C115.739 73.3164 114.119 72.798 114.151 74.3855ZM130.366 74.5151V76.2646C130.366 76.4536 130.441 76.6349 130.575 76.7686C130.709 76.9022 130.89 76.9773 131.079 76.9773C131.268 76.9773 131.449 76.9022 131.583 76.7686C131.717 76.6349 131.792 76.4536 131.792 76.2646V74.5313C131.794 74.3423 131.721 74.1601 131.589 74.0249C131.457 73.8897 131.276 73.8126 131.087 73.8104C130.898 73.8083 130.716 73.8813 130.581 74.0135C130.446 74.1456 130.368 74.3261 130.366 74.5151ZM119.221 93.322C120.454 93.6327 121.749 93.5843 122.955 93.1824C124.16 92.7805 125.226 92.042 126.025 91.0541C126.365 90.6168 126.349 90.6492 126.349 90.39C126.349 90.1308 125.96 90.228 125.717 90.39C123.662 91.4554 121.487 92.2711 119.238 92.8198C119.188 92.84 119.146 92.8739 119.116 92.9175C119.086 92.9611 119.069 93.0126 119.067 93.0657C119.065 93.1187 119.079 93.1711 119.106 93.2166C119.134 93.2621 119.174 93.2987 119.221 93.322ZM108.239 69.3639C108.201 69.3756 108.167 69.3945 108.137 69.4195C108.107 69.4446 108.082 69.4753 108.064 69.5099C108.046 69.5445 108.035 69.5823 108.032 69.6212C108.028 69.66 108.032 69.6992 108.044 69.7364C108.056 69.7737 108.075 69.8082 108.1 69.8381C108.125 69.868 108.156 69.8927 108.19 69.9108C108.225 69.9288 108.263 69.9399 108.301 69.9433C108.34 69.9468 108.38 69.9425 108.417 69.9308C110.341 69.6584 112.245 69.2634 114.119 68.7483C116.079 68.0356 116.079 67.987 116.079 67.8088C115.982 66.7882 110.798 68.0679 109.826 68.4081C109.246 68.633 108.709 68.9564 108.239 69.3639ZM129.783 68.3109C132.909 68.1327 135.048 69.1695 134.643 68.3109C134.432 68.0521 134.159 67.8514 133.849 67.7278C132.903 67.1911 131.825 66.9328 130.739 66.9826C130.04 66.9846 129.348 67.1165 128.698 67.3714C127.159 67.7602 126.981 68.4729 129.783 68.3109Z" fill="white" fill-opacity="0.2"/>
<path fill-rule="evenodd" clip-rule="evenodd" d="M188.358 157.502C179.87 145.061 175.011 138.273 160.27 128.084C160.265 125.79 160.009 123.503 159.508 121.265C159.383 121.003 159.176 120.79 158.919 120.655C158.662 120.521 158.369 120.473 158.083 120.52L149.303 121.054C142.052 116.731 134.336 113.242 126.301 110.654C124.835 108.999 123.638 107.124 122.753 105.098C127.24 103.883 130.658 102.701 133.865 99.299C136.623 95.9999 138.431 92.0132 139.098 87.7654C140.863 78.3701 138.903 71.3074 138.11 62.56C144.589 59.9358 149.449 57.3116 151.409 50.9292C152.439 47.4955 152.371 43.8256 151.214 40.4324C150.627 37.9135 149.17 35.6823 147.1 34.131C145.762 32.7215 144.148 31.6027 142.359 30.8447C140.57 30.0866 138.643 29.7054 136.7 29.7249C134.209 29.6634 131.756 30.3458 129.654 31.685C128.536 30.9398 127.791 30.0651 126.414 29.2875C125.327 28.68 124.111 28.3412 122.866 28.2994C120.726 27.8967 118.519 28.0259 116.441 28.6755C114.362 29.3251 112.474 30.4754 110.944 32.0252C110.523 31.9118 109.924 31.4258 109.243 31.2152C105.368 30.1922 101.289 30.2313 97.4342 31.3286C91.554 32.7703 86.8402 35.7347 82.6284 44.2067C80.7751 47.7545 80.1702 51.823 80.9114 55.7565C81.4459 59.8224 81.8671 61.9768 84.5399 65.0546C84.8699 65.431 85.2215 65.788 85.5928 66.1238C85.2736 67.6507 85.0678 69.1993 84.9773 70.7566C84.9935 72.5117 85.409 74.24 86.1922 75.8107C87.2289 77.7869 87.8121 79.4878 89.9341 80.2492C90.3067 83.6509 93.9029 84.6553 97.3046 84.6067C98.2639 92.5166 96.89 100.534 93.3521 107.674C85.8886 108.199 78.5058 109.546 71.3378 111.691C61.3855 114.378 51.9823 118.792 43.5568 124.731C34.8145 130.404 27.1382 137.571 20.8784 145.903C10.9971 158.409 5.44085 169.1 1.79611 189.041C-1.20068 205.531 -2.01063 227.367 12.1472 236.422C16.2405 238.975 21.0173 240.213 25.8352 239.97C41.0784 239.516 50.5547 226.071 57.0828 212.432C60.1247 206.372 62.5348 200.016 64.2751 193.463C64.6477 192.2 68.0333 179.953 67.6445 178.349C67.5473 178.026 67.6445 178.188 66.1542 176.73C69.556 176.438 75.0474 175.79 75.177 175.774C75.3452 175.718 75.4882 175.605 75.5802 175.453C75.6722 175.302 75.7073 175.123 75.6791 174.948C75.4038 172.388 75.9221 168.889 77.785 167.043C78.8548 166.041 80.212 165.401 81.6652 165.212C83.1183 165.023 84.5941 165.295 85.8844 165.99C85.2365 167.237 85.1717 166.848 86.5 169.537C121.457 230.04 119.189 226.395 119.805 226.493C119.873 226.524 119.948 226.541 120.024 226.541C120.099 226.541 120.174 226.524 120.242 226.493C120.373 226.512 120.507 226.499 120.632 226.454C120.756 226.408 120.867 226.333 120.955 226.233C120.955 226.136 131.598 197.966 138.498 179.257C139.917 178.317 141.11 177.074 141.989 175.617C142.869 174.16 143.414 172.526 143.585 170.833C145.464 170.833 149.044 170.833 152.348 170.704C150.486 172.68 150.453 172.55 150.405 172.971C150.291 174.429 152.899 189.591 160.934 205.223C166.83 216.708 174.865 227.27 187.824 227.805C200.459 228.323 206.582 221.244 206.858 208.544C206.991 202.526 206.081 196.53 204.169 190.823C200.862 178.886 195.513 167.612 188.358 157.502ZM167.915 151.897C166.765 153.419 164.854 156.854 163.688 158.02C162.829 158.895 162.068 159.753 161.274 160.579C159.654 158.214 157.435 154.845 157.289 154.683C157.143 154.521 146.646 151.54 145.512 149.823C146.177 148.949 150.372 150.439 152.3 150.957C152.407 150.984 152.52 150.985 152.627 150.959C152.735 150.933 152.835 150.881 152.918 150.807C153.001 150.734 153.065 150.641 153.104 150.538C153.143 150.434 153.156 150.322 153.142 150.212C153.013 149.597 152.624 149.629 151.279 149.224C149.512 148.824 147.787 148.254 146.128 147.523C145.48 147.167 145.577 147.215 145.512 146.956C146.663 146.065 152.932 148.414 153.709 148.365C153.84 148.349 153.964 148.295 154.065 148.211C154.167 148.126 154.243 148.015 154.284 147.889C154.324 147.764 154.329 147.629 154.296 147.501C154.263 147.373 154.194 147.257 154.098 147.167C153.943 147.042 153.759 146.958 153.563 146.924C151.376 146.308 147.084 145.093 146.452 144.137C147.91 142.518 157.791 145.887 158.698 145.757C159.605 145.628 159.265 145.126 159.67 142.048C159.735 141.557 159.827 141.07 159.946 140.59C160.644 141.118 161.199 141.812 161.559 142.611C161.918 143.409 162.071 144.285 162.003 145.158C162.051 145.903 165.291 149.354 167.915 151.897ZM146.857 121.119L137.138 121.718C136.522 119.823 135.809 117.701 135.016 115.239C139.373 117.312 143.147 119.191 146.808 121.2L146.857 121.119ZM125.977 113.214C125.831 114.834 125.572 117.523 125.118 122.512L117.91 122.966C120.777 119.742 124.486 115.417 125.977 113.214ZM126.754 112.258C129.282 112.981 131.746 113.908 134.125 115.028C134.935 117.588 135.664 119.888 136.279 121.848L125.831 122.463C126.414 115.498 126.608 113.084 126.754 112.258ZM97.256 100.789C98.5279 95.2728 98.813 89.5747 98.0984 83.9587C98.0621 83.8535 97.9909 83.764 97.8965 83.705C97.8022 83.646 97.6904 83.6212 97.58 83.6347C95.2474 83.8291 92.1534 83.4241 91.1005 81.3507C90.1609 79.6012 90.9385 77.0418 91.8618 75.2923C93.6275 72.0526 98.0498 71.6476 99.3781 75.0979C99.5239 75.5029 99.3781 75.0979 99.7182 75.5029C102.213 75.5029 101.338 62.5438 101.856 58.7371C106.83 61.9769 118.898 59.0125 121.571 54.7846C125.069 59.7576 130.529 61.6367 136.716 60.9401C137.121 70.3031 141.187 84.3475 134.773 95.6867C129.249 104.758 120.582 102.717 121.182 104.952C121.584 106.162 122.128 107.32 122.802 108.403C125.053 112.064 125.329 111.4 125.134 111.805C124.308 113.522 118.995 119.596 115.804 123.144C113.973 123.338 114.184 123.5 114.184 123.857C114.184 124.213 114.184 124.488 114.07 125.104L113.714 125.493C106.473 119.013 110.96 123.03 94.2754 108.338C95.5666 105.95 96.5673 103.415 97.256 100.789ZM113.892 169.894C114.605 170.849 115.285 170.704 120.647 170.704C118.59 192.815 119.222 195.261 119.238 216.627C113.73 183.501 116.857 200.574 108.579 163.965L109.664 153.128C111.114 151.661 112.054 149.767 112.345 147.726C112.637 145.684 112.265 143.603 111.284 141.789C113.365 141.849 115.447 141.795 117.521 141.627C117.602 142.453 117.974 144.64 119.141 151.476C117.467 152.128 115.712 152.548 113.925 152.723C113.762 152.818 113.623 152.949 113.519 153.107C113.416 153.264 113.349 153.443 113.325 153.63C113.73 170.849 113.617 169.327 113.876 169.894H113.892ZM106.084 155.509C106.796 155.219 107.474 154.856 108.109 154.424C107.866 156.854 107.639 159.057 107.478 160.741L106.084 155.509ZM87.3909 119.386C87.9648 116.175 88.3058 112.926 88.4114 109.666C89.9179 109.472 91.4406 109.31 92.9633 109.197C93.9191 112.712 94.7128 115.676 95.4094 118.284C93.3845 118.446 90.5821 118.851 87.3909 119.386ZM102.326 133.965C100.706 121.006 101.16 123.711 100.561 120.325C100.107 117.798 99.5887 117.669 95.9925 118.074C95.2474 115.266 94.4536 112.307 93.6113 109.197C95.0044 110.557 99.3943 114.38 112.726 126.303C106.538 130.773 106.619 130.725 102.326 134.029V133.965ZM106.975 132.037C107.899 135.277 108.482 137.528 108.887 138.938C107.132 137.567 104.974 136.815 102.747 136.799C102.747 136.151 102.585 135.52 102.504 134.92C104.627 133.543 105.096 133.268 106.975 132.037ZM120.177 150.763C120.177 150.471 118.752 141.157 118.558 140.946C118.936 140.095 119.255 139.218 119.513 138.322C120.526 138.834 121.395 139.592 122.04 140.525C123.011 142.171 123.357 144.111 123.015 145.991C122.673 147.871 121.666 149.565 120.177 150.763ZM117.634 140.363C116.452 140.477 111.641 140.363 110.685 140.363L108.125 131.324C110.005 129.957 111.957 128.691 113.973 127.534C113.746 131.227 113.52 136.313 113.552 136.475C113.989 137.577 115.172 136.475 118.671 137.901C118.381 138.749 118.035 139.577 117.634 140.379V140.363ZM55.9813 147.863C55.9393 147.02 56.1066 146.179 56.4684 145.416C56.8302 144.653 57.3752 143.991 58.0548 143.49C58.7675 146.875 58.3463 148.916 59.5613 148.673C61.8939 148.155 68.989 146.017 71.1111 146.729C71.3864 146.843 71.3378 146.843 71.5322 147.086C70.0905 148.544 64.3723 149.694 63.8864 150.082C63.7587 150.215 63.6873 150.392 63.6873 150.577C63.6873 150.761 63.7587 150.938 63.8864 151.071C64.3399 151.459 64.4047 151.346 67.4177 150.455C68.5354 150.18 71.4836 149.386 72.4232 149.807V150.082C70.9491 151.2 66.3648 152.253 65.2147 152.642C65.0615 152.701 64.9349 152.814 64.8582 152.959C64.7815 153.104 64.76 153.272 64.7975 153.432C64.835 153.592 64.929 153.733 65.0622 153.829C65.1955 153.925 65.3589 153.969 65.5224 153.954C66.9965 153.76 70.6089 152.156 72.3098 152.658V152.917C70.9977 154.359 62.0235 157.194 60.8248 157.469C58.9949 159.845 57.2917 162.316 55.7221 164.872C52.9521 161.243 51.4456 159.802 48.8052 155.865C49.6314 155.088 55.2848 149.872 55.8517 148.398C55.9261 148.234 55.9701 148.059 55.9813 147.879V147.863ZM60.274 159.656C61.2459 165.844 61.8939 169.796 62.2989 172.307C60.8734 170.687 59.0591 168.468 56.2081 165.342L60.274 159.656ZM55.7545 126.157C55.5434 126.301 55.378 126.503 55.2776 126.738C55.1771 126.974 55.1459 127.233 55.1876 127.485C56.0785 133.09 56.8075 138.047 57.5688 142.453C56.7863 142.98 56.1423 143.689 55.6912 144.517C55.2401 145.346 54.9951 146.272 54.977 147.215C54.977 148.284 55.2038 147.96 54.329 149.062C52.5028 151.248 50.5616 153.335 48.5136 155.315C47.5093 153.857 47.2663 153.824 46.181 154.116C39.1993 156.141 26.7424 173.555 22.8384 179.71C21.2185 182.334 20.3762 183.728 21.2185 183.598C22.0609 183.468 37.7252 157.372 46.4078 155.153C47.8333 154.764 47.6875 157.696 53.9565 164.694C59.2373 170.558 61.3431 173.36 62.72 174.932C63.1088 176.973 63.206 176.697 63.4814 176.746C63.767 176.771 64.0543 176.771 64.3399 176.746L66.2028 178.738C66.2028 178.981 66.2028 179.467 66.0408 179.905C63.9503 191.992 59.9938 203.682 54.3128 214.554C49.8095 223.253 44.5935 231.142 35.9271 235.774C31.7342 238.111 26.9028 239.042 22.1419 238.431C5.78102 236.228 1.19675 222.508 1.08336 206.033C1.24454 191.834 4.48896 177.84 10.5921 165.018C16.3265 154.618 19.3557 148.819 27.5685 140.039C34.2285 132.638 42.1276 126.455 50.9111 121.767C58.714 117.16 67.2003 113.825 76.0517 111.886C79.9123 110.941 83.8222 110.211 87.7635 109.699C87.5686 113.004 87.1628 116.294 86.5486 119.548C74.4804 121.508 57.5364 124.845 55.7545 126.173V126.157ZM90.1771 173.214C90.3563 173.336 90.5616 173.414 90.7765 173.441C105.226 170.444 104.74 170.59 105.145 170.396C106.392 169.78 106.003 169.1 104.659 156.108L105.064 155.979C112.062 185.137 110.393 176.389 118.963 222.977C100.966 191.876 93.5141 179.078 90.1771 173.231V173.214ZM120.696 222.929C120.696 201.028 120.388 192.426 122.089 170.671C126.673 170.671 126.236 170.671 126.252 170.768C127.159 178.544 132.229 181.362 136.684 179.986C133.412 188.814 128.39 202.291 120.696 222.945V222.929ZM141.625 168.112C140.653 168.711 140.961 169.246 140.734 170.687C140.037 174.737 137.332 178.268 133.315 177.313C128.747 175.984 128.973 169.213 128.795 168.679C128.66 168.414 128.445 168.198 128.18 168.063C127.499 167.788 128.568 168.063 116.257 168.063C115.577 153.857 115.577 154.877 115.739 154.861C117.476 154.693 119.146 154.109 120.609 153.159C122.073 152.208 123.286 150.92 124.146 149.402C125.22 147.057 125.444 144.41 124.778 141.918C123.466 137.642 119.497 135.763 115.059 135.552C115.204 127.453 115.188 125.833 115.334 124.342L157.451 122.917C157.921 127.404 157.937 135.876 158.083 144.38C154.909 143.413 151.657 142.725 148.363 142.323C147.1 142.323 145.804 142.453 145.237 143.587C145.076 143.882 145.031 144.228 145.112 144.555C145.193 144.882 145.394 145.166 145.674 145.352C145.885 145.547 145.772 145.352 145.026 145.66C144.758 145.761 144.525 145.936 144.352 146.166C144.18 146.395 144.077 146.668 144.055 146.954C144.033 147.24 144.093 147.526 144.228 147.779C144.362 148.031 144.566 148.241 144.816 148.382C145.237 148.673 145.269 148.544 144.962 148.722C144.801 148.809 144.66 148.929 144.549 149.074C144.437 149.219 144.357 149.386 144.314 149.564C144.103 150.487 144.751 151.054 145.577 151.54C148.363 153.16 153.515 154.505 156.657 155.396L158.277 157.421C158.277 159.98 158.277 162.28 158.131 164.256L155.07 167.772C150.324 167.853 142.24 167.869 141.625 168.128V168.112ZM204.282 216.174C203.697 218.363 202.556 220.364 200.969 221.982C199.383 223.6 197.404 224.78 195.227 225.407C173.391 231.757 160.27 205.402 154.082 183.582C153.102 180.2 152.312 176.766 151.717 173.295C151.717 173.133 151.571 173.425 153.337 171.433C161.825 162.07 159.411 164.192 162.959 160.353C165.534 157.566 164.579 158.733 168.369 152.95C168.552 152.654 168.764 152.378 169.001 152.124C183.061 160.32 191.307 178.771 192.392 177.361C192.489 177.232 192.522 177.167 192.262 176.875C192.262 176.875 179.546 157.437 170.264 151.686C169.39 151.152 169.373 151.119 169.13 151.087C168.991 151.066 168.849 151.078 168.714 151.12C168.579 151.162 168.456 151.234 168.353 151.33C166.452 149.473 164.682 147.487 163.056 145.385C162.845 145.028 163.056 145.207 162.91 143.862C162.83 143.044 162.584 142.25 162.189 141.529C161.794 140.808 161.257 140.174 160.61 139.667C160.61 136.2 160.448 132.782 160.302 129.85C172.386 138.63 177.084 143.733 184.698 154.537C192.959 166.233 197.802 175.029 202.16 188.798C204.962 197.513 207.149 207.459 204.282 216.19V216.174ZM268.105 40.6915C265.939 38.6633 263.462 36.9953 260.767 35.7509C252.715 31.6717 243.883 29.3619 234.864 28.9763C225.846 28.5908 216.849 30.1384 208.477 33.5154C195.518 38.6991 186.544 46.9767 182.008 60.033C178.137 71.1616 178.769 81.2697 182.089 92.4307C183.776 98.7253 186.514 104.69 190.189 110.071C195.165 117.901 202.558 123.895 211.247 127.145C211.134 128.878 211.069 131.146 210.794 134.11C210.622 135.362 210.525 136.622 210.502 137.885C210.502 155.185 231.204 158.425 239.79 151.168C243.629 147.928 244.892 143.23 245.8 138.403C246.043 137.075 246.723 132.393 247.047 128.133C252.428 126.961 257.518 124.719 262.015 121.54C265.436 119.451 268.468 116.781 270.973 113.651C276.853 106.491 278.214 99.7688 280.303 90.7298C282.612 81.4873 282.612 71.8188 280.303 62.5762C278.133 53.7964 274.779 46.7175 268.105 40.6915ZM181.134 81.6747C182.187 81.6747 185.135 81.6747 193.704 81.5127C193.615 83.2694 193.73 85.0305 194.044 86.7611C195.178 92.7223 199.341 94.8605 205.011 94.0992C206.5 94.0271 207.919 93.4435 209.028 92.4469C211.409 90.3249 212.268 86.2104 212.576 83.0354C217.662 83.165 225.713 83.5537 228.645 82.841C227.867 86.3561 227.495 90.3573 226.199 101.324C220.448 100.66 216.01 102.344 215.832 108.225C215.751 110.897 217.452 112.76 219.687 114.186C221.086 115.027 222.639 115.578 224.255 115.806C224.822 115.806 224.255 123.209 224.595 129.332C199.082 127.015 184.017 106.637 181.134 81.6747ZM237.279 151.33C233.602 153.214 229.415 153.862 225.34 153.176C218.861 152.091 213.758 148.544 212.041 142.113C217.614 142.858 238.494 145.174 242.56 145.093C241.543 147.714 239.686 149.925 237.279 151.378V151.33ZM242.787 144.575C239.174 144.057 233.489 142.615 211.895 141.465C211.458 139.493 211.338 137.464 211.539 135.455C214.082 135.455 223.526 136.897 244.73 137.869C244.285 140.174 243.635 142.434 242.787 144.623V144.575ZM244.828 137.334C244.245 137.334 242.22 136.913 236.016 136.313C231.383 135.876 216.221 134.694 211.588 134.839C211.588 134.483 211.588 134.515 211.863 127.355C215.772 128.773 219.842 129.698 223.98 130.109C231.431 130.903 238.965 130.288 246.188 128.295C245.929 130.628 245.346 134.872 244.828 137.383V137.334ZM279.364 90.5031C276.318 104.207 274.585 112.193 261.966 120.811C256.377 124.634 252.619 126.951 240.357 128.911C235.359 129.698 230.286 129.888 225.243 129.478C225.421 127.339 225.373 125.898 225.632 115.465C225.629 115.315 225.572 115.171 225.47 115.061C225.097 114.753 225.259 115.061 222.846 114.364C221.285 113.914 219.871 113.059 218.748 111.886C218.098 111.375 217.603 110.694 217.317 109.919C217.031 109.145 216.966 108.306 217.128 107.496C217.646 103.187 221.177 102.101 225.535 102.506C226.555 102.604 227.398 101.583 227.803 99.8498C228.321 97.5658 229.244 85.1412 229.423 82.7438C232.29 83.1488 250.918 85.0926 251.048 85.0764C251.177 85.051 251.293 84.9827 251.379 84.8828C251.464 84.7828 251.513 84.657 251.518 84.5257C251.72 82.5685 252.536 80.7255 253.85 79.261C254.64 78.5465 255.598 78.0428 256.634 77.7965C257.671 77.5502 258.752 77.5692 259.779 77.8517C260.578 77.9838 261.336 78.2923 262.001 78.7547C262.665 79.217 263.217 79.8217 263.618 80.5246C264.286 81.8134 264.61 83.2531 264.558 84.7039C264.542 84.7806 264.541 84.8598 264.556 84.9368C264.571 85.0138 264.601 85.087 264.645 85.152C264.689 85.2171 264.745 85.2726 264.811 85.3153C264.877 85.3579 264.95 85.3869 265.028 85.4004C265.173 85.4004 277.144 85.4004 280.174 85.1898C280.012 86.9555 279.769 88.7536 279.364 90.5517V90.5031ZM280.303 84.6391L265.724 84.3475C265.816 82.9821 265.53 81.6178 264.899 80.4037C264.267 79.1896 263.315 78.1723 262.144 77.463C261.04 76.913 259.835 76.5962 258.603 76.5321C257.371 76.468 256.14 76.658 254.984 77.0904C253.716 77.7567 252.632 78.7267 251.829 79.9138C251.026 81.1009 250.53 82.4683 250.384 83.8939C247.76 83.6347 249.963 83.8939 229.52 82.112C229.73 81.4317 229.649 81.7881 232.095 64.7955C234.662 65.0667 237.257 64.7906 239.709 63.9855C241.527 63.3747 243.044 62.0947 243.953 60.4056C244.914 58.4757 245.188 56.2758 244.73 54.169C243.451 50.5243 237.473 49.7305 233.618 49.5037C234.169 42.1008 234.574 34.9247 235.335 31.0532C235.335 31.0532 235.335 30.7778 235.141 30.7454C234.946 30.713 234.833 30.5835 234.444 33.0133C234.055 35.4431 232.484 49.8439 232.824 50.2489C233.165 50.6538 243.273 50.5891 243.823 55.1085C244.027 57.1237 243.491 59.1442 242.317 60.7943C239.822 63.7911 235.837 63.5805 232.031 63.5643C231.399 63.5643 231.123 63.5643 230.978 64.2123C228.791 79.4392 228.564 81.4641 228.305 81.7395C227.544 82.1606 212.381 81.9015 211.895 81.9177C211.767 81.9313 211.647 81.9884 211.555 82.0796C211.296 82.355 211.442 82.3064 211.231 84.0721C210.81 87.4415 209.709 91.6856 206.469 92.7223C204.217 93.3537 201.836 93.3537 199.584 92.7223C193.607 90.7298 194.725 81.9338 194.417 81.0267C194.387 80.9687 194.346 80.9173 194.296 80.8756C194.246 80.8338 194.188 80.8026 194.125 80.7837C193.817 80.7837 183.726 81.0105 181.02 80.9295C179.757 69.2177 181.766 58.7371 189.363 48.9854C199.73 35.6861 214.941 30.7616 231.674 30.3729C238.467 30.2607 245.231 31.2677 251.696 33.3535C263.537 37.1116 271.297 42.036 276.788 55.6431C280.44 64.8608 281.651 74.865 280.303 84.6877V84.6391ZM237.166 21.1719C238.219 21.1719 238.332 20.3458 238.413 19.9084C238.769 17.8188 238.98 17.6082 242.171 3.56375C242.277 2.75979 242.093 1.9445 241.653 1.26351C240.567 0.226782 241.021 0.534563 239.644 0H238.429C237.068 0.615557 237.506 0.307778 236.518 1.34451C234.898 5.62101 235.384 15.0649 235.951 19.8436C235.942 20.0109 235.967 20.1782 236.023 20.3359C236.08 20.4936 236.167 20.6384 236.28 20.762C236.393 20.8856 236.53 20.9855 236.682 21.0559C236.834 21.1263 236.998 21.1657 237.166 21.1719ZM307.031 83.6509C306.47 83.059 305.707 82.7003 304.893 82.6466C286.038 82.8896 286.443 85.1898 286.524 86.0484C286.605 86.9069 287.366 86.8907 304.618 88.8184C305.431 88.8266 306.22 88.5387 306.837 88.0084C307.429 87.4475 307.788 86.6839 307.841 85.8702C307.849 85.0567 307.562 84.2679 307.031 83.6509Z" fill="white" fill-opacity="0.2"/>
<path fill-rule="evenodd" clip-rule="evenodd" d="M151.101 73.7538C151.106 74.5679 151.398 75.3539 151.927 75.9731C154.033 77.4958 152.397 75.8759 167.931 76.621C169.229 76.7924 170.547 76.7209 171.819 76.4104C171.977 76.3684 172.12 76.283 172.232 76.1639C172.343 76.0449 172.42 75.8969 172.452 75.7367C172.484 75.5766 172.47 75.4106 172.413 75.2577C172.355 75.1048 172.256 74.9711 172.127 74.8715C171.124 74.1248 169.968 73.6102 168.741 73.3651C164.047 71.9451 159.203 71.0753 154.308 70.7732C153.484 70.7425 152.681 71.0384 152.075 71.5966C151.468 72.1549 151.106 72.9302 151.068 73.7538H151.101ZM300.211 35.9619C300.438 35.1733 300.357 34.328 299.984 33.5968C299.061 32.4629 299.482 32.8031 298.17 32.0903C296.275 31.8798 296.81 31.4262 290.411 35.6379C288.205 37.01 286.171 38.6415 284.353 40.4975C281.55 43.1542 281.016 43.7373 281.696 44.5959C282.376 45.4544 282.814 45.1142 286.329 43.3647C300.098 36.4802 299.045 38.1325 300.211 35.9619ZM182.429 33.3053C186.738 36.6422 186.268 36.545 187.921 37.2092C188.071 37.2684 188.235 37.2848 188.394 37.2565C188.553 37.2282 188.702 37.1564 188.822 37.049C188.943 36.9416 189.032 36.8029 189.079 36.6482C189.125 36.4934 189.128 36.3288 189.087 36.1725C188.742 35.0751 188.192 34.0528 187.467 33.1595C183.952 27.7976 182.429 26.8419 177.424 22.0956C176.787 21.589 175.984 21.3403 175.172 21.3991C174.362 21.4902 173.616 21.8835 173.083 22.5006C172.823 22.8133 172.628 23.174 172.507 23.5623C172.387 23.9505 172.345 24.3586 172.382 24.7633C172.42 25.1679 172.537 25.5612 172.727 25.9206C172.916 26.2801 173.175 26.5986 173.488 26.8581L182.429 33.3053Z" fill="white" fill-opacity="0.2"/>
</svg>
