<svg width="32" height="32" viewBox="0 0 32 32" fill="none" xmlns="http://www.w3.org/2000/svg">
<path d="M15.9998 19.2026C15.9263 19.2026 15.8538 19.1864 15.7873 19.1551L0.287294 11.8626C0.201396 11.8223 0.128765 11.7583 0.0778905 11.6781C0.0270161 11.598 0 11.5051 0 11.4101C0 11.3152 0.0270161 11.2223 0.0778905 11.1421C0.128765 11.062 0.201396 10.998 0.287294 10.9576L15.7873 3.66264C15.8538 3.63142 15.9263 3.61523 15.9998 3.61523C16.0732 3.61523 16.1458 3.63142 16.2123 3.66264L31.7123 10.9576C31.7982 10.998 31.8708 11.062 31.9217 11.1421C31.9726 11.2223 31.9996 11.3152 31.9996 11.4101C31.9996 11.5051 31.9726 11.598 31.9217 11.6781C31.8708 11.7583 31.7982 11.8223 31.7123 11.8626L16.2123 19.1551C16.1458 19.1864 16.0733 19.2026 15.9998 19.2026ZM1.67479 11.4101L15.9998 18.1601L30.3248 11.4101L15.9998 4.66764L1.67479 11.4101Z" fill="#00A6A4"/>
<path d="M6.00504 20C5.87243 20 5.74525 19.9473 5.65148 19.8536C5.55771 19.7598 5.50504 19.6326 5.50504 19.5V14.25C5.50504 14.1174 5.55771 13.9902 5.65148 13.8964C5.74525 13.8027 5.87243 13.75 6.00504 13.75C6.13764 13.75 6.26482 13.8027 6.35859 13.8964C6.45236 13.9902 6.50504 14.1174 6.50504 14.25V19.5C6.50504 19.6326 6.45236 19.7598 6.35859 19.8536C6.26482 19.9473 6.13764 20 6.00504 20Z" fill="#00A6A4"/>
<path d="M26.005 20C25.8724 20 25.7452 19.9473 25.6515 19.8536C25.5577 19.7598 25.505 19.6326 25.505 19.5V14.25C25.505 14.1174 25.5577 13.9902 25.6515 13.8964C25.7452 13.8027 25.8724 13.75 26.005 13.75C26.1376 13.75 26.2648 13.8027 26.3586 13.8964C26.4524 13.9902 26.505 14.1174 26.505 14.25V19.5C26.505 19.6326 26.4524 19.7598 26.3586 19.8536C26.2648 19.9473 26.1376 20 26.005 20Z" fill="#00A6A4"/>
<path d="M16.005 25.1354C10.35 25.1354 5.50504 22.0379 5.50504 19.5029C5.50504 19.3703 5.55771 19.2431 5.65148 19.1494C5.74525 19.0556 5.87243 19.0029 6.00504 19.0029C6.13764 19.0029 6.26482 19.0556 6.35859 19.1494C6.45236 19.2431 6.50504 19.3703 6.50504 19.5029C6.50504 21.0879 10.505 24.1354 16.005 24.1354C21.505 24.1354 25.505 21.0879 25.505 19.5029C25.505 19.3703 25.5577 19.2431 25.6515 19.1494C25.7453 19.0556 25.8724 19.0029 26.005 19.0029C26.1376 19.0029 26.2648 19.0556 26.3586 19.1494C26.4524 19.2431 26.505 19.3703 26.505 19.5029C26.505 22.0379 21.66 25.1354 16.005 25.1354Z" fill="#00A6A4"/>
<path d="M23.5077 25.2442C23.3751 25.2442 23.2479 25.1915 23.1541 25.0977C23.0604 25.004 23.0077 24.8768 23.0077 24.7442V15.3042L15.7852 11.6917C15.7243 11.6637 15.6697 11.6238 15.6246 11.5744C15.5794 11.5249 15.5447 11.4669 15.5224 11.4038C15.5001 11.3406 15.4907 11.2737 15.4948 11.2068C15.4989 11.14 15.5164 11.0747 15.5462 11.0147C15.576 10.9547 15.6175 10.9014 15.6684 10.8578C15.7192 10.8142 15.7782 10.7813 15.842 10.7609C15.9058 10.7406 15.9731 10.7333 16.0397 10.7394C16.1064 10.7456 16.1712 10.765 16.2302 10.7967L23.7302 14.5467C23.8135 14.5881 23.8836 14.6519 23.9326 14.7309C23.9816 14.81 24.0076 14.9011 24.0077 14.9942V24.7442C24.0077 24.8768 23.955 25.004 23.8612 25.0977C23.7675 25.1915 23.6403 25.2442 23.5077 25.2442Z" fill="#00A6A4"/>
<path d="M23.5131 27.4971C23.2164 27.4971 22.9264 27.4091 22.6798 27.2443C22.4331 27.0795 22.2408 26.8452 22.1273 26.5711C22.0138 26.297 21.9841 25.9954 22.0419 25.7044C22.0998 25.4135 22.2427 25.1462 22.4524 24.9364C22.6622 24.7266 22.9295 24.5838 23.2205 24.5259C23.5114 24.468 23.813 24.4977 24.0871 24.6113C24.3612 24.7248 24.5955 24.917 24.7603 25.1637C24.9251 25.4104 25.0131 25.7004 25.0131 25.9971C25.0131 26.3949 24.8551 26.7764 24.5738 27.0577C24.2925 27.339 23.9109 27.4971 23.5131 27.4971ZM23.5131 25.4971C23.4142 25.4971 23.3175 25.5264 23.2353 25.5813C23.1531 25.6363 23.089 25.7144 23.0512 25.8057C23.0133 25.8971 23.0034 25.9976 23.0227 26.0946C23.042 26.1916 23.0896 26.2807 23.1596 26.3506C23.2295 26.4206 23.3186 26.4682 23.4156 26.4875C23.5126 26.5068 23.6131 26.4969 23.7045 26.459C23.7958 26.4212 23.8739 26.3571 23.9288 26.2749C23.9838 26.1926 24.0131 26.096 24.0131 25.9971C24.0131 25.8645 23.9604 25.7373 23.8667 25.6435C23.7729 25.5497 23.6457 25.4971 23.5131 25.4971Z" fill="#00A6A4"/>
<path d="M24.2577 30.4997H22.7577C22.6883 30.4999 22.6196 30.4857 22.556 30.458C22.4924 30.4302 22.4353 30.3896 22.3882 30.3385C22.3412 30.2875 22.3053 30.2273 22.2828 30.1616C22.2604 30.0959 22.2518 30.0263 22.2577 29.9572L22.5077 26.9572C22.5127 26.8246 22.5701 26.6994 22.6674 26.6091C22.7647 26.5189 22.8939 26.471 23.0265 26.4759C23.1591 26.4809 23.2843 26.5384 23.3745 26.6356C23.4648 26.7329 23.5127 26.8621 23.5077 26.9947C23.5027 26.8621 23.5506 26.7329 23.6409 26.6356C23.7312 26.5384 23.8564 26.4809 23.989 26.4759C24.1216 26.471 24.2507 26.5189 24.348 26.6091C24.4453 26.6994 24.5027 26.8246 24.5077 26.9572L24.7577 29.9572C24.7636 30.0263 24.7551 30.0959 24.7326 30.1616C24.7101 30.2273 24.6742 30.2875 24.6272 30.3385C24.5801 30.3896 24.523 30.4302 24.4594 30.458C24.3958 30.4857 24.3271 30.4999 24.2577 30.4997ZM23.3002 29.4997H23.7152L23.5077 27.0422C23.5065 27.0297 23.5065 27.0172 23.5077 27.0047C23.5089 27.0172 23.5089 27.0297 23.5077 27.0422L23.3002 29.4997Z" fill="#00A6A4"/>
</svg>
