<svg width="87" height="20" viewBox="0 0 87 20" fill="none" xmlns="http://www.w3.org/2000/svg">
<g clip-path="url(#clip0_3094_27454)">
<path d="M32.5978 7.16211C33.5838 7.16211 34.3784 7.48119 34.9814 8.11934C35.5845 8.75749 35.8862 9.61645 35.8866 10.6962V16.0908H34.0048V10.8179C34.0048 10.2145 33.8538 9.74734 33.5519 9.41655C33.2499 9.08577 32.838 8.92038 32.3161 8.92038C31.7353 8.92038 31.2738 9.1119 30.9317 9.49496C30.5896 9.87802 30.4201 10.4524 30.423 11.2181V16.0927H28.5411V10.8179C28.5411 10.2145 28.399 9.74734 28.1146 9.41655C27.8302 9.08577 27.4271 8.92038 26.9052 8.92038C26.3365 8.92038 25.8721 9.11462 25.512 9.50312C25.1519 9.89161 24.9721 10.4633 24.9725 11.2181V16.0927H23.0907V7.38793H24.9725V8.43298C25.5296 7.58573 26.3595 7.16211 27.4622 7.16211C28.5763 7.16211 29.4003 7.62044 29.9343 8.53711C30.5148 7.62086 31.4026 7.16253 32.5978 7.16211Z" fill="#A1EAC4"/>
<path d="M39.6915 5.72617C39.5236 5.89214 39.3104 6.00494 39.0787 6.05046C38.847 6.09598 38.6071 6.07221 38.3888 5.98213C38.1706 5.89204 37.9837 5.73963 37.8516 5.54394C37.7194 5.34825 37.6479 5.11796 37.6459 4.88185C37.6443 4.72496 37.6744 4.56935 37.7342 4.4243C37.794 4.27924 37.8824 4.14771 37.9941 4.03754C38.1055 3.9245 38.2384 3.83474 38.3848 3.77348C38.5313 3.71221 38.6884 3.68066 38.8472 3.68066C39.0059 3.68066 39.1631 3.71221 39.3095 3.77348C39.456 3.83474 39.5888 3.9245 39.7003 4.03754C39.812 4.14771 39.9004 4.27924 39.9602 4.4243C40.02 4.56935 40.05 4.72496 40.0484 4.88185C40.0497 5.0395 40.0187 5.19574 39.9573 5.34095C39.8959 5.48615 39.8055 5.61726 39.6915 5.72617V5.72617ZM37.9069 16.0932V7.38847H39.7887V16.0932H37.9069Z" fill="#A1EAC4"/>
<path d="M46.5441 7.16211C47.5423 7.16211 48.349 7.48119 48.9641 8.11934C49.5793 8.75749 49.8869 9.6338 49.8869 10.7483V16.0927H48.005V10.9396C48.005 10.2897 47.8309 9.79062 47.4825 9.44227C47.1342 9.09392 46.6583 8.91996 46.0548 8.92038C45.3937 8.92038 44.8599 9.12633 44.4534 9.53825C44.0469 9.95016 43.8447 10.5797 43.8468 11.427V16.0927H41.965V7.38793H43.8468V8.50261C44.413 7.60852 45.3121 7.16169 46.5441 7.16211Z" fill="#A1EAC4"/>
<path d="M56.7608 9.19904H54.6023V13.3767C54.6023 13.7368 54.6834 13.995 54.8457 14.1514C55.0079 14.3078 55.2488 14.395 55.5683 14.413C55.9655 14.43 56.3633 14.4271 56.7601 14.4042V16.0928C55.3212 16.2664 54.2882 16.1409 53.6614 15.7165C53.0345 15.292 52.7209 14.5115 52.7205 13.3748V9.19716H51.1234V7.38808H52.7255V5.50624L54.6073 4.94922V7.3862H56.7658L56.7608 9.19904Z" fill="#A1EAC4"/>
<path d="M63.3935 7.16183C64.5887 7.16183 65.6101 7.60281 66.4578 8.48477C67.3054 9.36672 67.7291 10.4519 67.7287 11.7404C67.7287 13.0171 67.305 14.0993 66.4578 14.9872C65.6105 15.875 64.5891 16.3189 63.3935 16.3189C62.0704 16.3189 61.0548 15.8256 60.3468 14.8391V16.0937H58.465V3.90625H60.3468V8.62403C61.0561 7.64923 62.0716 7.16183 63.3935 7.16183ZM61.1303 13.7332C61.653 14.2622 62.3087 14.5263 63.0974 14.5255C63.8861 14.5246 64.5419 14.2606 65.0646 13.7332C65.5869 13.2055 65.8481 12.5412 65.8481 11.7404C65.8481 10.9395 65.5869 10.275 65.0646 9.74686C64.5427 9.21869 63.887 8.9546 63.0974 8.9546C62.3079 8.9546 61.6522 9.21869 61.1303 9.74686C60.6084 10.2742 60.3464 10.9387 60.3443 11.7404C60.3422 12.542 60.6042 13.2063 61.1303 13.7332Z" fill="#A1EAC4"/>
<path d="M73.543 16.3191C72.2658 16.3191 71.1806 15.878 70.2874 14.9956C69.3942 14.1132 68.9473 13.0282 68.9469 11.7406C68.9469 10.4522 69.3937 9.367 70.2874 8.48504C71.1811 7.60309 72.2663 7.16211 73.543 7.16211C74.8306 7.16211 75.9179 7.60309 76.8048 8.48504C77.6918 9.367 78.1357 10.4522 78.1366 11.7406C78.1366 13.0282 77.6927 14.1132 76.8048 14.9956C75.917 15.878 74.8297 16.3191 73.543 16.3191ZM71.6103 13.7078C72.1331 14.2293 72.7773 14.49 73.543 14.49C74.3087 14.49 74.9527 14.2288 75.475 13.7065C75.9973 13.1838 76.2585 12.5281 76.2585 11.7394C76.2585 10.9507 75.9973 10.295 75.475 9.77222C74.9531 9.24949 74.3091 8.98833 73.543 8.98875C72.7769 8.98917 72.1326 9.25032 71.6103 9.77222C71.0884 10.2941 70.8273 10.9498 70.8269 11.7394C70.8264 12.5289 71.0876 13.185 71.6103 13.7078V13.7078Z" fill="#A1EAC4"/>
<path d="M87.0002 16.0925H84.8236L82.6569 13.1235L80.4891 16.0925H78.2936L81.5554 11.6212L78.473 7.3877H80.649L82.6507 10.1302L84.653 7.3877H86.8484L83.7421 11.6325L87.0002 16.0925Z" fill="#A1EAC4"/>
<path d="M7.94703 20C7.90009 20.0002 7.85374 19.9896 7.81156 19.969C7.76937 19.9484 7.73249 19.9184 7.70375 19.8813C7.67501 19.8442 7.65519 19.801 7.64581 19.755C7.63644 19.709 7.63777 19.6615 7.6497 19.6161C7.9947 18.3318 8.3395 17.0457 8.68408 15.7577C8.69797 15.7059 8.7253 15.6586 8.7633 15.6207C8.80129 15.5828 8.84862 15.5556 8.90049 15.5419L17.3023 13.29C17.3285 13.283 17.3555 13.2794 17.3826 13.2793C17.4295 13.2791 17.4759 13.2896 17.5182 13.31C17.5605 13.3305 17.5976 13.3603 17.6266 13.3972C17.6673 13.4499 17.6893 13.5145 17.6893 13.581C17.6893 13.6084 17.6855 13.6356 17.678 13.6619L16.8958 16.5857C16.8058 16.9218 16.6288 17.2283 16.3827 17.4743C16.1366 17.7203 15.83 17.8972 15.4938 17.987L8.0292 19.9899C8.00237 19.9969 7.97474 20.0003 7.94703 20V20Z" fill="#A1EAC4"/>
<path d="M10.0507 8.78189C10.0107 8.78228 9.97105 8.7746 9.93408 8.75929C9.89711 8.74399 9.86361 8.72138 9.83558 8.69282L3.85133 2.7117C3.81318 2.67388 3.78571 2.62666 3.77168 2.57481C3.75766 2.52296 3.75758 2.46832 3.77146 2.41643C3.78534 2.36454 3.81268 2.31724 3.85072 2.27931C3.88876 2.24139 3.93615 2.21419 3.98808 2.20047L12.1603 0.0112578C12.2123 -0.00332633 12.2673 -0.00374796 12.3196 0.0100364C12.3719 0.0238208 12.4195 0.0513113 12.4576 0.0896678L18.4419 6.07267C18.4803 6.11068 18.5079 6.15817 18.522 6.21033C18.5361 6.26249 18.5362 6.31746 18.5222 6.36964C18.5081 6.42182 18.4806 6.46937 18.4422 6.50744C18.4039 6.54551 18.3561 6.57276 18.3039 6.58641L10.1285 8.77311C10.1027 8.77991 10.0762 8.78329 10.0495 8.78314L10.0507 8.78189Z" fill="#A1EAC4"/>
<path d="M9.46365 14.3324C9.41671 14.3328 9.37031 14.3224 9.32806 14.3019C9.28582 14.2815 9.24889 14.2515 9.22016 14.2144C9.19142 14.1773 9.17167 14.134 9.16244 14.088C9.1532 14.042 9.15475 13.9944 9.16694 13.9491C9.51153 12.6628 9.85633 11.3766 10.2013 10.0907C10.2151 10.0388 10.2423 9.9915 10.2801 9.9535C10.318 9.9155 10.3653 9.88818 10.4171 9.87429L18.8227 7.62298C18.8489 7.61597 18.8759 7.61238 18.903 7.61231C18.9499 7.61197 18.9962 7.62243 19.0384 7.64288C19.0806 7.66333 19.1176 7.69322 19.1463 7.73024C19.1874 7.78266 19.2095 7.84744 19.2091 7.91403C19.2091 7.9412 19.2053 7.96823 19.1978 7.99433C18.8519 9.28067 18.5067 10.5678 18.1621 11.8559C18.148 11.9075 18.1207 11.9545 18.0829 11.9924C18.045 12.0302 17.998 12.0575 17.9464 12.0716L9.5408 14.3255C9.51547 14.3309 9.48955 14.3333 9.46365 14.3324Z" fill="#A1EAC4"/>
<path d="M7.78136 13.8817C7.74131 13.8819 7.70161 13.8741 7.66464 13.8587C7.62768 13.8433 7.59419 13.8206 7.5662 13.792L1.41446 7.64147C1.37649 7.60313 1.34926 7.55548 1.3355 7.50329C1.32174 7.45111 1.32193 7.39623 1.33605 7.34414C1.68106 6.05906 2.02564 4.77355 2.36981 3.48762C2.38743 3.4224 2.42616 3.36486 2.47996 3.324C2.53376 3.28314 2.59959 3.26127 2.66714 3.2618C2.7077 3.26083 2.74802 3.26824 2.78558 3.28357C2.82314 3.2989 2.85714 3.32181 2.88544 3.35088L9.03278 9.50262C9.07136 9.54057 9.09904 9.58818 9.11295 9.64048C9.12685 9.69278 9.12646 9.74785 9.11182 9.79995L8.07869 13.6552C8.0609 13.7204 8.02214 13.7779 7.9684 13.8188C7.91465 13.8598 7.84892 13.8818 7.78136 13.8817V13.8817Z" fill="#A1EAC4"/>
<path d="M0.850594 9.15845C0.868401 9.09334 0.907188 9.03592 0.960944 8.99509C1.0147 8.95427 1.08042 8.93231 1.14792 8.93263C1.18794 8.93224 1.22762 8.93992 1.26459 8.95523C1.30156 8.97053 1.33506 8.99315 1.36308 9.02171L7.51043 15.1734C7.5392 15.2015 7.56207 15.2351 7.57769 15.2721C7.59331 15.3092 7.60137 15.349 7.60138 15.3892C7.60142 15.4168 7.59762 15.4442 7.59009 15.4708C7.24593 16.7559 6.90134 18.0412 6.55633 19.3267C6.5388 19.3916 6.50035 19.4489 6.44693 19.4897C6.39351 19.5305 6.32812 19.5526 6.26089 19.5525C6.22088 19.5528 6.18123 19.5451 6.14427 19.5298C6.10731 19.5145 6.0738 19.4919 6.04573 19.4634L0.580236 13.9942C0.334328 13.7482 0.157503 13.4419 0.0675409 13.1059C-0.0224211 12.77 -0.0223496 12.4162 0.0677482 12.0803L0.850594 9.15845Z" fill="#A1EAC4"/>
</g>
<defs>
<clipPath id="clip0_3094_27454">
<rect width="87" height="19.9996" fill="white"/>
</clipPath>
</defs>
</svg>
