<svg width="157" height="36" viewBox="0 0 157 36" fill="none" xmlns="http://www.w3.org/2000/svg">
<g clip-path="url(#clip0_3710_31833)">
<path d="M58.6772 12.8926C60.4522 12.8926 61.8824 13.4669 62.9679 14.6156C64.0533 15.7643 64.5964 17.3105 64.5972 19.2541V28.9646H61.2098V19.4731C61.2098 18.3869 60.9381 17.5461 60.3946 16.9507C59.8511 16.3552 59.1096 16.0575 58.1702 16.0575C57.1246 16.0575 56.294 16.4023 55.6782 17.0918C55.0624 17.7813 54.7572 18.8152 54.7625 20.1935V28.968H51.3751V19.4731C51.3751 18.3869 51.1192 17.5461 50.6073 16.9507C50.0954 16.3552 49.3698 16.0575 48.4303 16.0575C47.4066 16.0575 46.5706 16.4072 45.9225 17.1065C45.2744 17.8058 44.9507 18.8348 44.9515 20.1935V28.968H41.5641V13.2991H44.9515V15.1802C45.9541 13.6551 47.448 12.8926 49.433 12.8926C51.4383 12.8926 52.9216 13.7176 53.8829 15.3676C54.9277 13.7183 56.5258 12.8933 58.6772 12.8926Z" fill="#A1EAC4"/>
<path d="M71.4464 10.307C71.1441 10.6057 70.7604 10.8088 70.3434 10.8907C69.9263 10.9727 69.4944 10.9299 69.1015 10.7677C68.7086 10.6056 68.3723 10.3312 68.1344 9.97897C67.8966 9.62672 67.7678 9.21219 67.7643 8.78719C67.7614 8.50478 67.8154 8.22467 67.9231 7.96357C68.0307 7.70247 68.1899 7.4657 68.3909 7.26738C68.5916 7.06391 68.8307 6.90234 69.0943 6.79207C69.3579 6.68179 69.6408 6.625 69.9265 6.625C70.2123 6.625 70.4952 6.68179 70.7588 6.79207C71.0225 6.90234 71.2615 7.06391 71.4622 7.26738C71.6633 7.4657 71.8224 7.70247 71.93 7.96357C72.0377 8.22467 72.0917 8.50478 72.0888 8.78719C72.0912 9.07096 72.0353 9.35219 71.9248 9.61357C71.8144 9.87495 71.6515 10.1109 71.4464 10.307ZM68.234 28.9681V13.2992H71.6214V28.9681H68.234Z" fill="#A1EAC4"/>
<path d="M83.7812 12.8926C85.578 12.8926 87.0301 13.4669 88.1374 14.6156C89.2447 15.7643 89.7983 17.3417 89.7983 19.3478V28.968H86.4109V19.6922C86.4109 18.5224 86.0974 17.624 85.4704 16.997C84.8433 16.3699 83.9867 16.0568 82.9005 16.0575C81.7104 16.0575 80.7495 16.4283 80.0178 17.1697C79.2861 17.9112 78.9222 19.0444 78.926 20.5695V28.968H75.5386V13.2991H78.926V15.3055C79.9452 13.6961 81.5636 12.8918 83.7812 12.8926Z" fill="#A1EAC4"/>
<path d="M102.172 16.558H98.2863V24.078C98.2863 24.7262 98.4323 25.191 98.7244 25.4725C99.0165 25.754 99.45 25.911 100.025 25.9433C100.74 25.9741 101.456 25.9688 102.17 25.9275V28.9672C99.5803 29.2795 97.721 29.0537 96.5926 28.2897C95.4642 27.5256 94.8997 26.1206 94.8989 24.0746V16.5547H92.0242V13.2983H94.908V9.91087L98.2953 8.9082V13.2949H102.181L102.172 16.558Z" fill="#A1EAC4"/>
<path d="M114.111 12.8914C116.262 12.8914 118.101 13.6852 119.627 15.2728C121.152 16.8603 121.915 18.8137 121.914 21.1329C121.914 23.4311 121.152 25.3792 119.627 26.9773C118.102 28.5754 116.263 29.3744 114.111 29.3744C111.729 29.3744 109.901 28.4866 108.627 26.7108V28.9691H105.239V7.03125H108.627V15.5234C109.903 13.7688 111.731 12.8914 114.111 12.8914ZM110.037 24.7202C110.978 25.6724 112.158 26.1478 113.578 26.1463C114.998 26.1448 116.178 25.6694 117.119 24.7202C118.059 23.7702 118.529 22.5745 118.529 21.1329C118.529 19.6914 118.059 18.4953 117.119 17.5446C116.179 16.5938 114.999 16.1185 113.578 16.1185C112.157 16.1185 110.976 16.5938 110.037 17.5446C109.098 18.4938 108.626 19.6899 108.622 21.1329C108.618 22.576 109.09 23.7717 110.037 24.7202Z" fill="#A1EAC4"/>
<path d="M132.38 29.3756C130.081 29.3756 128.128 28.5814 126.52 26.9931C124.912 25.4048 124.108 23.4518 124.107 21.1341C124.107 18.8149 124.911 16.8615 126.52 15.2739C128.129 13.6864 130.082 12.8926 132.38 12.8926C134.698 12.8926 136.655 13.6864 138.252 15.2739C139.848 16.8615 140.647 18.8149 140.649 21.1341C140.649 23.4518 139.85 25.4048 138.252 26.9931C136.653 28.5814 134.696 29.3756 132.38 29.3756ZM128.901 24.675C129.842 25.6137 131.002 26.0831 132.38 26.0831C133.758 26.0831 134.918 25.613 135.858 24.6728C136.798 23.7318 137.268 22.5515 137.268 21.1318C137.268 19.7121 136.798 18.5318 135.858 17.5909C134.918 16.6499 133.759 16.1798 132.38 16.1806C131.001 16.1814 129.841 16.6514 128.901 17.5909C127.962 18.5303 127.492 19.7106 127.491 21.1318C127.49 22.553 127.96 23.7341 128.901 24.675Z" fill="#A1EAC4"/>
<path d="M156.604 28.9677H152.686L148.786 23.6236L144.883 28.9677H140.932L146.803 20.9193L141.254 13.2988H145.171L148.774 18.2354L152.379 13.2988H156.331L150.739 20.9396L156.604 28.9677Z" fill="#A1EAC4"/>
<path d="M14.3049 35.9998C14.2204 36.0002 14.137 35.9811 14.061 35.9441C13.9851 35.907 13.9187 35.853 13.867 35.7862C13.8152 35.7194 13.7796 35.6416 13.7627 35.5588C13.7458 35.4761 13.7482 35.3905 13.7697 35.3088C14.3907 32.9971 15.0113 30.682 15.6316 28.3635C15.6566 28.2702 15.7058 28.1852 15.7742 28.117C15.8426 28.0488 15.9278 27.9998 16.0212 27.9751L31.1447 23.9215C31.1918 23.9089 31.2404 23.9025 31.2892 23.9023C31.3738 23.902 31.4573 23.9209 31.5334 23.9577C31.6095 23.9945 31.6762 24.0482 31.7285 24.1146C31.8017 24.2094 31.8414 24.3257 31.8414 24.4455C31.8413 24.4947 31.8345 24.5437 31.821 24.5911L30.413 29.854C30.251 30.459 29.9324 31.0108 29.4894 31.4536C29.0464 31.8964 28.4946 32.2147 27.8894 32.3765L14.4528 35.9818C14.4045 35.9943 14.3548 36.0004 14.3049 35.9998Z" fill="#A1EAC4"/>
<path d="M18.0918 15.8077C18.0198 15.8084 17.9484 15.7946 17.8819 15.7671C17.8153 15.7395 17.755 15.6988 17.7046 15.6474L6.93267 4.88116C6.864 4.81309 6.81455 4.72808 6.7893 4.63475C6.76405 4.54142 6.76392 4.44307 6.7889 4.34967C6.81388 4.25626 6.8631 4.17112 6.93157 4.10285C7.00004 4.03459 7.08534 3.98563 7.17882 3.96092L21.8891 0.0202644C21.9828 -0.00598752 22.0818 -0.00674646 22.1759 0.018066C22.27 0.0428784 22.3557 0.0923623 22.4243 0.161405L33.1962 10.931C33.2653 10.9995 33.3151 11.085 33.3405 11.1788C33.3659 11.2727 33.366 11.3717 33.3407 11.4656C33.3155 11.5595 33.2658 11.6451 33.1968 11.7136C33.1278 11.7822 33.0419 11.8312 32.9478 11.8558L18.2319 15.7919C18.1854 15.8042 18.1376 15.8102 18.0896 15.81L18.0918 15.8077Z" fill="#A1EAC4"/>
<path d="M17.0351 25.7975C16.9506 25.7983 16.867 25.7796 16.791 25.7428C16.715 25.7059 16.6485 25.652 16.5968 25.5852C16.545 25.5183 16.5095 25.4405 16.4929 25.3576C16.4763 25.2748 16.479 25.1892 16.501 25.1076C17.1213 22.7922 17.7419 20.4771 18.3629 18.1624C18.3877 18.069 18.4366 17.9838 18.5048 17.9154C18.573 17.847 18.658 17.7978 18.7513 17.7728L33.8817 13.7204C33.9288 13.7078 33.9774 13.7013 34.0262 13.7012C34.1106 13.7006 34.194 13.7194 34.27 13.7562C34.346 13.793 34.4125 13.8468 34.4643 13.9135C34.5382 14.0078 34.578 14.1244 34.5772 14.2443C34.5773 14.2932 34.5704 14.3418 34.5569 14.3888C33.9344 16.7043 33.313 19.0213 32.6927 21.3397C32.6673 21.4326 32.6181 21.5173 32.55 21.5854C32.4819 21.6535 32.3972 21.7027 32.3043 21.7282L17.1739 25.7851C17.1283 25.795 17.0817 25.7991 17.0351 25.7975Z" fill="#A1EAC4"/>
<path d="M14.0067 24.9874C13.9346 24.9879 13.8632 24.9739 13.7966 24.9461C13.7301 24.9184 13.6698 24.8775 13.6194 24.8259L2.54609 13.7548C2.47773 13.6858 2.42872 13.6 2.40395 13.5061C2.37918 13.4122 2.37952 13.3134 2.40495 13.2196C3.02597 10.9064 3.64624 8.59245 4.26575 6.27773C4.29746 6.16033 4.36719 6.05676 4.46403 5.98321C4.56087 5.90966 4.67936 5.87029 4.80096 5.87125C4.87396 5.8695 4.94654 5.88284 5.01415 5.91043C5.08176 5.93801 5.14295 5.97926 5.19389 6.03158L16.2594 17.1049C16.3288 17.1733 16.3786 17.259 16.4037 17.3531C16.4287 17.4472 16.428 17.5464 16.4016 17.6402L14.5419 24.5798C14.5099 24.6971 14.4402 24.8006 14.3434 24.8743C14.2467 24.948 14.1283 24.9877 14.0067 24.9874Z" fill="#A1EAC4"/>
<path d="M1.53113 16.4846C1.56318 16.3674 1.633 16.2641 1.72976 16.1906C1.82652 16.1171 1.94483 16.0776 2.06633 16.0782C2.13836 16.0774 2.20978 16.0913 2.27633 16.1188C2.34288 16.1464 2.40318 16.1871 2.45362 16.2385L13.5191 27.3118C13.5709 27.3624 13.612 27.4228 13.6402 27.4895C13.6683 27.5562 13.6828 27.6279 13.6828 27.7003C13.6829 27.7499 13.676 27.7993 13.6625 27.8471C13.043 30.1603 12.4227 32.4738 11.8017 34.7878C11.7701 34.9046 11.7009 35.0078 11.6047 35.0813C11.5086 35.1548 11.3909 35.1945 11.2699 35.1943C11.1979 35.1949 11.1265 35.181 11.0599 35.1534C10.9934 35.1259 10.9331 35.0853 10.8826 35.0339L1.04447 25.1891C0.601827 24.7464 0.283536 24.1949 0.121601 23.5902C-0.0403345 22.9855 -0.0402058 22.3488 0.121974 21.7441L1.53113 16.4846Z" fill="#A1EAC4"/>
</g>
<defs>
<clipPath id="clip0_3710_31833">
<rect width="156.603" height="36" fill="white"/>
</clipPath>
</defs>
</svg>
