<svg width="120" height="100" viewBox="0 0 130 87" fill="none" xmlns="http://www.w3.org/2000/svg">
<path d="M102.651 26.8132C100.876 26.2433 99.261 25.2645 97.9386 23.9567C96.6162 22.649 95.6234 21.0491 95.041 19.2876C94.4586 17.5261 94.3032 15.6528 94.5875 13.8203C94.8717 11.9878 95.5874 10.2479 96.6765 8.7425C97.7655 7.23709 99.197 6.0087 100.854 5.15745C102.511 4.3062 104.348 3.85616 106.213 3.844C108.078 3.83185 109.92 4.25793 111.589 5.08751C113.257 5.9171 114.705 7.12672 115.813 8.61782C117.305 10.6216 118.118 13.0444 118.135 15.537C118.152 18.0295 117.373 20.4631 115.909 22.4869C114.444 24.5107 112.372 26.0202 109.989 26.7977C107.606 27.5752 105.037 27.5807 102.651 26.8132ZM109.689 5.1686C107.183 4.36524 104.471 4.478 102.042 5.48654C99.6126 6.49509 97.6257 8.33306 96.4394 10.6691C95.2531 13.0052 94.9455 15.6856 95.572 18.2272C96.1985 20.7688 97.7179 23.0043 99.8563 24.5307C101.995 26.0571 104.611 26.774 107.235 26.5521C109.858 26.3303 112.315 25.1843 114.163 23.3207C116.011 21.4571 117.129 18.9986 117.314 16.3883C117.5 13.7781 116.741 11.1878 115.175 9.08457C113.802 7.24203 111.884 5.87269 109.689 5.1686Z" fill="#E0E0E0"/>
<path d="M124.175 36.9238C124.026 37.0461 123.854 37.1379 123.67 37.1942C123.485 37.2504 123.291 37.2699 123.099 37.2515C122.907 37.2332 122.72 37.1773 122.55 37.0871C122.379 36.9969 122.228 36.8742 122.106 36.726L112.753 25.3875C112.732 25.3621 112.716 25.3327 112.706 25.3012C112.697 25.2696 112.693 25.2364 112.696 25.2035C112.7 25.1706 112.709 25.1387 112.725 25.1095C112.74 25.0803 112.762 25.0545 112.787 25.0335L114.29 23.8112C114.34 23.7698 114.405 23.7495 114.47 23.7547C114.536 23.7599 114.596 23.7901 114.64 23.8389L124.342 34.8353C124.472 34.9821 124.57 35.1533 124.632 35.3387C124.694 35.5241 124.718 35.7199 124.702 35.9146C124.687 36.1093 124.632 36.2989 124.541 36.4722C124.451 36.6456 124.326 36.7991 124.175 36.9238Z" fill="#E0E0E0"/>
<path d="M102.854 26.1804C101.079 25.6105 99.4641 24.6317 98.1417 23.3239C96.8193 22.0161 95.8265 20.4163 95.2441 18.6548C94.6618 16.8933 94.5064 15.02 94.7906 13.1875C95.0748 11.355 95.7906 9.6151 96.8796 8.10969C97.9686 6.60427 99.4001 5.37589 101.057 4.52464C102.715 3.67338 104.551 3.22334 106.416 3.21119C108.282 3.19904 110.124 3.62511 111.792 4.4547C113.46 5.28429 114.908 6.49391 116.017 7.985C117.507 9.98904 118.319 12.4115 118.335 14.9034C118.351 17.3954 117.572 19.8282 116.108 21.8515C114.644 23.8748 112.572 25.3841 110.19 26.162C107.809 26.94 105.24 26.9464 102.854 26.1804ZM109.892 4.5437C107.387 3.7414 104.676 3.8549 102.248 4.86374C99.82 5.87259 97.8344 7.7104 96.6492 10.0459C95.464 12.3814 95.1572 15.0608 95.7841 17.6013C96.411 20.1417 97.9304 22.376 100.068 23.9013C102.206 25.4267 104.822 26.1427 107.444 25.9203C110.066 25.698 112.522 24.5519 114.37 22.6886C116.217 20.8253 117.333 18.3675 117.518 15.7582C117.703 13.149 116.944 10.5599 115.378 8.45769C114.005 6.6156 112.087 5.2469 109.892 4.5437Z" fill="#EBEBEB"/>
<path d="M112.805 24.5586L114.697 23.0187L124.76 35.2347C124.919 35.4279 124.995 35.676 124.97 35.9245C124.945 36.1729 124.822 36.4014 124.627 36.5595L124.207 36.9016C124.013 37.0598 123.763 37.1347 123.513 37.11C123.263 37.0852 123.033 36.9628 122.874 36.7696L112.811 24.5536L112.805 24.5586Z" fill="#EBEBEB"/>
<path d="M97.3564 13.3876C97.353 13.2641 97.359 13.1405 97.3743 13.0178C97.3816 12.8731 97.3989 12.729 97.426 12.5866C97.4527 12.397 97.4893 12.2089 97.5355 12.023C97.5633 11.9201 97.5892 11.8114 97.6171 11.6986C97.6449 11.5859 97.6907 11.4732 97.7285 11.3525C97.8001 11.1112 97.9096 10.866 98.017 10.6049C98.2733 10.0478 98.5852 9.51776 98.9482 9.02272C99.3206 8.5333 99.7427 8.08329 100.208 7.67982C100.409 7.50692 100.62 7.34453 100.839 7.19329C100.944 7.12209 101.038 7.04892 101.139 6.99552L101.43 6.82345C101.595 6.7251 101.766 6.63596 101.941 6.55645C102.07 6.48911 102.202 6.43031 102.339 6.38043C102.453 6.33134 102.57 6.29037 102.689 6.25781C102.582 6.32102 102.47 6.37591 102.355 6.42197C102.222 6.48003 102.092 6.54608 101.967 6.61974C101.82 6.70083 101.644 6.78192 101.467 6.90058L101.185 7.07661C101.087 7.13792 100.986 7.21307 100.892 7.27438C100.693 7.4148 100.484 7.59082 100.269 7.76882C99.3545 8.57215 98.619 9.55715 98.1105 10.6603C98.0011 10.9174 97.8897 11.1587 97.816 11.3941C97.7762 11.5127 97.7305 11.6235 97.7006 11.7342C97.6708 11.845 97.6409 11.9518 97.6131 12.0546C97.5494 12.2524 97.5216 12.4502 97.4857 12.6104C97.4545 12.7507 97.4312 12.8927 97.4161 13.0356C97.4054 13.1543 97.3855 13.272 97.3564 13.3876Z" fill="#E0E0E0"/>
<path d="M47.3657 35.932H30.106L22.5586 26.7828L22.7118 26.6562L30.2015 35.7342H47.3657V35.932Z" fill="#E0E0E0"/>
<path d="M47.938 35.8166C47.938 35.9442 47.8999 36.0688 47.8287 36.1748C47.7574 36.2809 47.6561 36.3635 47.5375 36.4123C47.419 36.4611 47.2886 36.4739 47.1628 36.449C47.0369 36.4241 46.9213 36.3627 46.8306 36.2725C46.7399 36.1824 46.6781 36.0675 46.6531 35.9424C46.6281 35.8173 46.6409 35.6877 46.69 35.5699C46.7391 35.4521 46.8222 35.3514 46.9289 35.2805C47.0356 35.2097 47.161 35.1719 47.2893 35.1719C47.4612 35.1724 47.6259 35.2405 47.7474 35.3613C47.869 35.4821 47.9375 35.6458 47.938 35.8166Z" fill="#E0E0E0"/>
<path d="M7.59441 19.7803C7.57186 17.8471 8.12599 15.9507 9.18686 14.3304C10.2477 12.71 11.7678 11.4383 13.5552 10.6759C15.3425 9.91343 17.3171 9.69437 19.2296 10.0463C21.1421 10.3983 22.9069 11.3056 24.3011 12.6536C25.6953 14.0015 26.6565 15.7299 27.0633 17.6203C27.4702 19.5108 27.3044 21.4787 26.587 23.2756C25.8695 25.0726 24.6326 26.618 23.0323 27.7168C21.432 28.8156 19.54 29.4185 17.5953 29.4495C14.9803 29.4813 12.4592 28.4813 10.5847 26.6689C8.71006 24.8564 7.63477 22.3793 7.59441 19.7803ZM22.144 19.5469C22.1246 18.623 21.8303 17.7255 21.2983 16.9676C20.7662 16.2098 20.0202 15.6256 19.1544 15.2888C18.2886 14.9519 17.3419 14.8775 16.4336 15.075C15.5253 15.2724 14.6963 15.7329 14.051 16.3982C13.4057 17.0635 12.9732 17.9039 12.808 18.8133C12.6428 19.7227 12.7524 20.6604 13.1228 21.508C13.4932 22.3556 14.108 23.0751 14.8894 23.5758C15.6709 24.0765 16.5841 24.3358 17.5137 24.3212C18.7643 24.2973 19.9543 23.7811 20.8224 22.886C21.6905 21.9909 22.1658 20.79 22.144 19.5469Z" fill="#F5F5F5"/>
<path d="M7.59516 19.7787C7.55093 17.1791 8.54553 14.6682 10.3609 12.7963C12.1763 10.9245 14.6644 9.84443 17.2796 9.79297L17.3632 14.9213C16.1093 14.9412 14.9147 15.4554 14.0423 16.3508C13.1698 17.2462 12.6909 18.4493 12.711 19.6956C12.7311 20.9419 13.2484 22.1292 14.1492 22.9964C15.05 23.8636 16.2605 24.3396 17.5144 24.3196L17.596 29.448C14.9805 29.4813 12.4586 28.4818 10.5837 26.6691C8.70875 24.8563 7.63395 22.3782 7.59516 19.7787Z" fill="#E0E0E0"/>
<path d="M16.3945 9.00544C22.7441 8.90457 27.8101 13.8015 27.9116 20.1422L21.9024 20.2371C21.8526 17.2072 19.5325 15.2927 16.498 15.3461L16.3945 9.00544Z" fill="#EBEBEB"/>
<path d="M47.4805 6.47158C47.6492 7.60596 47.4755 8.7646 46.9814 9.80083C46.4873 10.8371 45.6951 11.7043 44.7048 12.2927C43.7146 12.8812 42.571 13.1644 41.4188 13.1066C40.2666 13.0487 39.1575 12.6524 38.232 11.9677C37.3065 11.2831 36.6062 10.3409 36.2197 9.26044C35.8332 8.17999 35.7779 7.00986 36.0608 5.89816C36.3437 4.78646 36.9521 3.78317 37.8089 3.0153C38.6658 2.24743 39.7326 1.7495 40.8743 1.58453C42.4023 1.36216 43.9566 1.75207 45.1954 2.66852C46.4342 3.58497 47.2562 4.95292 47.4805 6.47158Z" fill="#F5F5F5"/>
<path d="M46.0965 6.66899C46.2252 7.53354 46.0929 8.41661 45.7164 9.20639C45.3399 9.99618 44.7361 10.6572 43.9814 11.1057C43.2267 11.5542 42.3552 11.7701 41.477 11.7261C40.5988 11.682 39.7536 11.3799 39.0482 10.8581C38.3428 10.3363 37.8091 9.61824 37.5145 8.79478C37.22 7.97131 37.1779 7.0795 37.3935 6.23223C37.6092 5.38496 38.0729 4.62033 38.7259 4.03514C39.379 3.44995 40.1921 3.07052 41.0622 2.94487C42.2266 2.77567 43.4109 3.0729 44.3549 3.77122C45.2989 4.46954 45.9253 5.51182 46.0965 6.66899Z" fill="#EBEBEB"/>
<path d="M46.0851 6.5363C46.0004 6.37458 45.9336 6.20414 45.8861 6.02801C45.7193 5.5721 45.4816 5.14499 45.1817 4.76225C44.7405 4.1988 44.1683 3.7502 43.5143 3.45495C43.1302 3.28132 42.7226 3.1647 42.3045 3.10884C42.0842 3.07935 41.862 3.06679 41.6399 3.07126C41.411 3.07544 41.1828 3.09726 40.9573 3.13653C40.7318 3.17729 40.5096 3.23481 40.2927 3.30859C40.0826 3.38041 39.8783 3.46835 39.6819 3.57163C39.4919 3.6703 39.3102 3.78406 39.1386 3.91181C38.9719 4.03198 38.8143 4.16419 38.6671 4.30736C38.3949 4.57357 38.1582 4.87333 37.9627 5.19933C37.7973 5.48601 37.6638 5.78974 37.5647 6.10515C37.4119 6.56739 37.3327 7.05051 37.3299 7.53704C37.3494 7.71716 37.3494 7.89883 37.3299 8.07895C37.2491 7.91149 37.2057 7.72866 37.2025 7.54298C37.1488 7.0388 37.19 6.52909 37.3239 6.03988C37.4182 5.70005 37.5518 5.3722 37.7219 5.06287C38.0277 4.51342 38.4451 4.0332 38.9476 3.65272C39.1275 3.51361 39.3185 3.38926 39.5187 3.2809C39.7295 3.1669 39.9491 3.06968 40.1753 2.99017C40.4091 2.9106 40.6486 2.84846 40.8917 2.80426C41.135 2.76279 41.3811 2.73965 41.6279 2.73504C41.8676 2.73081 42.1072 2.74669 42.3442 2.78251C42.5734 2.81463 42.7997 2.86489 43.0208 2.93282C43.6252 3.11661 44.1843 3.42378 44.6624 3.83468C44.9298 4.06951 45.1683 4.33507 45.3728 4.62578C45.6681 5.03883 45.8833 5.50295 46.0075 5.99439C46.0713 6.16762 46.0978 6.35225 46.0851 6.5363Z" fill="#E0E0E0"/>
<path d="M42.5785 9.83956L42.7018 10.599L42.0193 10.7078L41.9079 9.96218C41.297 10.0411 40.6761 9.94651 40.1171 9.68925L40.3598 8.80321C40.7932 9.01043 41.2727 9.10372 41.7527 9.07416L41.5696 7.9409C40.7837 7.87959 39.8982 7.7629 39.741 6.79182C39.6256 6.07389 40.0514 5.37376 41.11 5.07908L40.9886 4.32753L41.6711 4.21875L41.7905 4.95646C42.283 4.90762 42.7801 4.97539 43.2411 5.15423L43.0421 6.04225C42.6913 5.90843 42.3173 5.84523 41.9417 5.85634L42.1268 7.00938C42.9128 7.06475 43.7863 7.18342 43.9395 8.13868C44.0489 8.84672 43.6291 9.53894 42.5785 9.83956ZM41.4144 6.95004L41.2592 5.98687C40.911 6.12532 40.7996 6.34485 40.8354 6.57031C40.8712 6.79578 41.0981 6.90258 41.4144 6.95004ZM42.8511 8.39777C42.8133 8.16043 42.5944 8.06352 42.284 8.00221L42.4352 8.9377C42.7635 8.81507 42.8849 8.61532 42.8511 8.39777Z" fill="#E0E0E0"/>
<path d="M7.8635 45.4104C7.39441 46.0962 6.73116 46.6283 5.9577 46.9392C5.18424 47.2502 4.33534 47.3261 3.51846 47.1573C2.70158 46.9886 1.95344 46.5827 1.36874 45.9911C0.784037 45.3995 0.38906 44.6488 0.233803 43.834C0.0785455 43.0192 0.169988 42.1769 0.496556 41.4138C0.823124 40.6507 1.37014 40.001 2.06835 39.547C2.76657 39.0931 3.5846 38.8552 4.4189 38.8635C5.2532 38.8718 6.06626 39.126 6.75517 39.5938C7.21231 39.9033 7.60363 40.2993 7.90675 40.7591C8.20988 41.219 8.41887 41.7337 8.5218 42.2739C8.62472 42.814 8.61956 43.369 8.50661 43.9072C8.39366 44.4454 8.17512 44.9562 7.8635 45.4104Z" fill="#F5F5F5"/>
<path d="M7.03325 44.8503C6.67614 45.3736 6.17078 45.7798 5.58119 46.0174C4.99161 46.255 4.34434 46.3133 3.72138 46.185C3.09843 46.0566 2.52782 45.7473 2.08186 45.2964C1.6359 44.8454 1.33465 44.273 1.21627 43.6517C1.0979 43.0304 1.16773 42.3881 1.41692 41.8063C1.66611 41.2245 2.08344 40.7293 2.61604 40.3834C3.14865 40.0375 3.77255 39.8566 4.40871 39.8635C5.04488 39.8704 5.66467 40.0648 6.18957 40.4221C6.89197 40.8983 7.37539 41.6323 7.53359 42.4626C7.69179 43.293 7.51183 44.1518 7.03325 44.8503Z" fill="#EBEBEB"/>
<path d="M7.08419 44.7726C7.11994 44.6464 7.1693 44.5244 7.23144 44.4087C7.36736 44.0834 7.45193 43.7391 7.48215 43.3882C7.50219 43.1488 7.49485 42.9079 7.46027 42.6702C7.42117 42.398 7.34624 42.132 7.23741 41.8791C7.18141 41.7424 7.11489 41.6101 7.03842 41.4836C6.95882 41.3516 6.86901 41.2259 6.7698 41.1078C6.66769 40.9845 6.55591 40.8694 6.43551 40.7637C6.31011 40.6555 6.17712 40.5564 6.03754 40.467C5.89765 40.3791 5.75132 40.3017 5.59978 40.2356C5.45238 40.1709 5.3 40.1179 5.14411 40.0774C4.99478 40.0373 4.84237 40.0095 4.68844 39.9943C4.5405 39.9776 4.39154 39.9717 4.24272 39.9765C3.96614 39.9852 3.69189 40.0298 3.4269 40.109C3.19559 40.1787 2.97271 40.2736 2.7623 40.3918C2.45651 40.5656 2.1799 40.7858 1.94249 41.0445C1.77137 41.2284 1.68779 41.3412 1.67188 41.3313C1.7125 41.2025 1.78034 41.0838 1.87086 40.9832C2.0912 40.6893 2.36444 40.4385 2.67673 40.2435C2.89388 40.1076 3.12628 39.9974 3.36919 39.9152C3.64916 39.8227 3.94021 39.7675 4.23477 39.751C4.39439 39.7392 4.55468 39.7392 4.71431 39.751C4.88087 39.7659 5.04592 39.7943 5.20779 39.8361C5.54997 39.9217 5.8759 40.062 6.17285 40.2514C6.32288 40.3472 6.46524 40.4543 6.59867 40.5718C6.72825 40.687 6.84867 40.812 6.95883 40.9456C7.16535 41.1989 7.33237 41.4816 7.4543 41.7842C7.65879 42.2956 7.72732 42.8507 7.65328 43.3961C7.60805 43.7601 7.49395 44.1125 7.317 44.4344C7.19761 44.6678 7.1021 44.7726 7.08419 44.7726Z" fill="#E0E0E0"/>
<path d="M3.60102 44.8196L3.29061 45.2844L2.87474 45.0095L3.1752 44.5585C2.8123 44.3037 2.52944 43.9519 2.35938 43.5439L2.92448 43.186C3.054 43.5093 3.26506 43.794 3.53735 44.0127L3.99899 43.3205C3.61097 42.9051 3.20306 42.4107 3.60102 41.8193C3.89353 41.3803 4.4646 41.2141 5.17298 41.5741L5.47941 41.1133L5.8913 41.3921L5.59084 41.8431C5.87721 42.0561 6.109 42.3332 6.26738 42.652L5.72018 43.0258C5.59732 42.7847 5.42756 42.5703 5.22073 42.3949L4.75114 43.097C5.1491 43.5103 5.54706 43.9969 5.1491 44.5823C4.87252 45.0075 4.29945 45.1637 3.60102 44.8196ZM4.39695 42.7153L4.79491 42.1219C4.54221 42.027 4.37307 42.0883 4.28353 42.2268C4.19399 42.3652 4.25965 42.5373 4.40292 42.7153H4.39695ZM4.44869 44.1867C4.54619 44.0404 4.47654 43.8821 4.33924 43.7022L3.95919 44.2737C4.20394 44.3726 4.3671 44.3172 4.45465 44.1867H4.44869Z" fill="#E0E0E0"/>
<path d="M80.8731 11.3447C80.9475 12.1707 80.7737 13.0001 80.3736 13.7279C79.9736 14.4558 79.3652 15.0492 78.6256 15.4332C77.8861 15.8172 77.0485 15.9744 76.2189 15.885C75.3894 15.7956 74.6052 15.4636 73.9656 14.931C73.326 14.3983 72.8598 13.6891 72.626 12.8929C72.3921 12.0968 72.4012 11.2496 72.6521 10.4587C72.9029 9.66767 73.3843 8.96844 74.0351 8.4495C74.686 7.93055 75.4772 7.61522 76.3084 7.54342C77.4208 7.44629 78.5265 7.79212 79.3824 8.50492C80.2383 9.21771 80.7745 10.2391 80.8731 11.3447Z" fill="#F5F5F5"/>
<path d="M79.8753 11.4333C79.9319 12.0628 79.7994 12.6949 79.4945 13.2495C79.1896 13.8041 78.726 14.2563 78.1624 14.549C77.5987 14.8416 76.9605 14.9614 76.3283 14.8933C75.6961 14.8252 75.0985 14.5723 74.611 14.1664C74.1235 13.7606 73.7682 13.2202 73.5899 12.6135C73.4116 12.0068 73.4183 11.3612 73.6094 10.7584C73.8004 10.1555 74.167 9.62258 74.6629 9.22696C75.1588 8.83133 75.7616 8.59082 76.3951 8.53587C76.815 8.49892 77.2382 8.54456 77.6403 8.67018C78.0425 8.7958 78.4159 8.99894 78.7391 9.26801C79.0622 9.53707 79.3289 9.86678 79.5239 10.2383C79.7188 10.6098 79.8382 11.0159 79.8753 11.4333Z" fill="#EBEBEB"/>
<path d="M79.8642 11.3336C79.8112 11.2129 79.7711 11.087 79.7448 10.9579C79.6435 10.622 79.4905 10.3038 79.2911 10.0145C78.9971 9.5883 78.6021 9.24055 78.141 9.00187C78.0087 8.93373 77.8717 8.87491 77.7311 8.82585C77.5853 8.77341 77.4356 8.73241 77.2834 8.70323C77.1259 8.67263 76.9662 8.65412 76.8058 8.64785C76.6404 8.64168 76.4748 8.64829 76.3104 8.66763C76.1456 8.68752 75.9826 8.71992 75.8229 8.76454C75.6683 8.80767 75.5173 8.86255 75.3712 8.92869C75.0953 9.05589 74.8387 9.221 74.6091 9.41918C74.4008 9.59997 74.2169 9.8067 74.0619 10.0343C73.9283 10.234 73.8169 10.4475 73.7296 10.6711C73.6029 10.9984 73.5284 11.3434 73.5087 11.6936C73.5146 11.826 73.506 11.9586 73.4828 12.0891C73.4316 11.9637 73.4078 11.8289 73.4132 11.6936C73.3966 11.3275 73.4479 10.9615 73.5644 10.6137C73.6457 10.3718 73.7552 10.1401 73.8907 9.9235C74.049 9.67538 74.2397 9.44926 74.4578 9.25107C74.5759 9.14454 74.7016 9.04671 74.8339 8.95836C75.1167 8.76733 75.4284 8.62245 75.7572 8.52919C75.9287 8.48099 76.1036 8.44594 76.2805 8.42436C76.4582 8.40501 76.6371 8.3984 76.8158 8.40459C76.9889 8.41348 77.1611 8.43463 77.3311 8.46787C77.4951 8.50115 77.6562 8.54745 77.8127 8.60632C77.9625 8.66181 78.1081 8.7279 78.2485 8.80409C78.7363 9.06764 79.1475 9.45184 79.4423 9.91955C79.6374 10.2309 79.7723 10.5756 79.8403 10.9361C79.8761 11.0655 79.8842 11.2009 79.8642 11.3336Z" fill="#E0E0E0"/>
<path d="M77.2011 13.5784L77.2588 14.1302L76.7614 14.1816L76.7057 13.6417C76.2629 13.6731 75.8201 13.5799 75.4282 13.3727L75.6411 12.7418C75.945 12.9106 76.2879 12.9978 76.636 12.995L76.5524 12.1702C75.9873 12.0931 75.3585 11.9724 75.2789 11.2664C75.2252 10.7423 75.5635 10.2538 76.3395 10.0797L76.2838 9.53189L76.7793 9.48047L76.835 10.0184C77.1927 10.0022 77.5492 10.07 77.8757 10.2162L77.6886 10.8491C77.4409 10.7389 77.1739 10.6778 76.9026 10.6691L76.9882 11.5097C77.5533 11.5828 78.1821 11.7074 78.2498 12.3996C78.3055 12.9297 77.9732 13.4043 77.2011 13.5784ZM76.4828 11.4444L76.4092 10.7423C76.1525 10.8273 76.0629 10.9816 76.0789 11.1378C76.0948 11.2941 76.256 11.3969 76.4828 11.4444ZM77.4578 12.548C77.4399 12.3759 77.2867 12.2968 77.0598 12.2434L77.1275 12.9297C77.3782 12.8466 77.4757 12.7062 77.4578 12.548Z" fill="#E0E0E0"/>
<path d="M129.427 48.8943C128.977 49.8781 128.242 50.7069 127.317 51.2758C126.393 51.8446 125.319 52.1279 124.232 52.0898C123.145 52.0516 122.094 51.6938 121.211 51.0615C120.329 50.4293 119.655 49.551 119.276 48.538C118.896 47.525 118.827 46.4228 119.078 45.3708C119.329 44.3189 119.888 43.3646 120.685 42.6288C121.481 41.8929 122.48 41.4086 123.554 41.2371C124.628 41.0657 125.729 41.2147 126.717 41.6655C127.373 41.9633 127.963 42.3864 128.454 42.9109C128.945 43.4353 129.327 44.0507 129.579 44.722C129.83 45.3932 129.946 46.1072 129.921 46.8231C129.895 47.5389 129.727 48.2427 129.427 48.8943Z" fill="#F5F5F5"/>
<path d="M128.239 48.3521C127.895 49.0985 127.336 49.7268 126.633 50.1576C125.93 50.5884 125.114 50.8024 124.289 50.7726C123.463 50.7428 122.665 50.4704 121.995 49.99C121.325 49.5096 120.814 48.8426 120.525 48.0733C120.236 47.3041 120.184 46.467 120.373 45.668C120.563 44.8689 120.987 44.1437 121.591 43.5839C122.195 43.0241 122.953 42.6548 123.768 42.5228C124.584 42.3908 125.42 42.5019 126.172 42.8421C126.672 43.0684 127.122 43.3906 127.497 43.7902C127.872 44.1898 128.164 44.6589 128.356 45.1708C128.548 45.6826 128.636 46.2271 128.616 46.773C128.596 47.3189 128.468 47.8555 128.239 48.3521Z" fill="#EBEBEB"/>
<path d="M128.293 48.2327C128.312 48.0626 128.349 47.8949 128.402 47.7323C128.505 47.2864 128.537 46.8274 128.498 46.3716C128.47 46.0598 128.407 45.7521 128.311 45.4539C128.199 45.1138 128.044 44.7894 127.849 44.4888C127.745 44.3258 127.629 44.1711 127.501 44.026C127.369 43.8735 127.225 43.7314 127.071 43.6008C126.913 43.465 126.744 43.3419 126.566 43.2329C126.381 43.1207 126.189 43.0216 125.991 42.9362C125.792 42.8556 125.587 42.7895 125.378 42.7385C125.175 42.6887 124.968 42.655 124.759 42.6376C124.36 42.6026 123.958 42.6252 123.565 42.7048C122.902 42.84 122.282 43.1339 121.758 43.5612C121.403 43.8515 121.096 44.1952 120.847 44.5798C120.67 44.8527 120.586 45.0168 120.562 45.0069C120.587 44.8338 120.648 44.6676 120.74 44.5184C120.956 44.0919 121.251 43.7096 121.609 43.3911C122.145 42.9089 122.798 42.5735 123.503 42.4181C123.707 42.3724 123.913 42.3413 124.12 42.3251C124.338 42.3083 124.557 42.3083 124.775 42.3251C125 42.3418 125.224 42.3769 125.444 42.4299C125.67 42.485 125.891 42.5571 126.106 42.6455C126.32 42.7368 126.527 42.8439 126.725 42.9659C126.916 43.0832 127.098 43.2154 127.268 43.3614C127.432 43.5037 127.584 43.6584 127.724 43.8242C127.859 43.9829 127.981 44.1515 128.09 44.3286C128.292 44.6548 128.449 45.0068 128.556 45.3748C128.646 45.694 128.699 46.0225 128.715 46.3538C128.737 46.8314 128.669 47.3089 128.516 47.762C128.477 47.9332 128.401 48.0939 128.293 48.2327Z" fill="#E0E0E0"/>
<path d="M123.82 49.0722L123.525 49.7347L122.928 49.4736L123.215 48.8289C122.692 48.5803 122.251 48.1902 121.941 47.7035L122.59 47.1241C122.826 47.5122 123.16 47.832 123.559 48.0516L123.997 47.0628C123.4 46.6138 122.765 46.0739 123.141 45.2234C123.42 44.5945 124.118 44.2583 125.107 44.5629L125.398 43.9062L125.995 44.1673L125.708 44.8121C126.124 45.023 126.483 45.3287 126.757 45.704L126.136 46.2974C125.927 46.0133 125.663 45.7733 125.36 45.5913L124.914 46.598C125.511 47.041 126.138 47.5869 125.766 48.4136C125.495 49.0346 124.807 49.3688 123.82 49.0722ZM124.385 46.1925L124.759 45.352C124.411 45.2847 124.21 45.4014 124.124 45.5972C124.039 45.793 124.16 45.9948 124.385 46.1925ZM124.783 48.0694C124.876 47.8618 124.753 47.6739 124.536 47.4761L124.174 48.2929C124.494 48.3542 124.693 48.2593 124.777 48.0694H124.783Z" fill="#E0E0E0"/>
<path d="M56.0275 59.7656H50.6211V86.0402H56.0275V59.7656Z" fill="#EBEBEB"/>
<path d="M124.504 59.8281H119.098V86.1027H124.504V59.8281Z" fill="#EBEBEB"/>
<path d="M10.8673 55.957H5.46094V86.0388H10.8673V55.957Z" fill="#EBEBEB"/>
<path d="M22.1564 42.5938H16.75V86.0393H22.1564V42.5938Z" fill="#EBEBEB"/>
<path d="M33.4454 51.6836H28.0391V86.0413H33.4454V51.6836Z" fill="#EBEBEB"/>
<path d="M44.7384 40.0586H39.332V86.0416H44.7384V40.0586Z" fill="#EBEBEB"/>
<path d="M67.3204 40.2852H61.9141V86.0427H67.3204V40.2852Z" fill="#EBEBEB"/>
<path d="M78.6094 55.3125H73.2031V86.041H78.6094V55.3125Z" fill="#EBEBEB"/>
<path d="M89.8985 42.3008H84.4922V86.0429H89.8985V42.3008Z" fill="#EBEBEB"/>
<path d="M101.191 32.4453H95.7852V86.0407H101.191V32.4453Z" fill="#EBEBEB"/>
<path d="M112.481 42.0742H107.074V86.0399H112.481V42.0742Z" fill="#EBEBEB"/>
<path d="M129.585 85.8916C129.585 85.9194 100.576 85.9433 64.7966 85.9433C29.0176 85.9433 0 85.9115 0 85.8916C0 85.8717 29.0036 85.8398 64.7966 85.8398C100.589 85.8398 129.585 85.8617 129.585 85.8916Z" fill="#263238"/>
<path d="M72.3538 46.207H48.4023V85.873H72.3538V46.207Z" fill="#455A64"/>
<g opacity="0.3">
<path opacity="0.3" d="M72.3538 46.207H48.4023V85.873H72.3538V46.207Z" fill="black"/>
</g>
<path d="M77.3265 46.207H53.375V85.873H77.3265V46.207Z" fill="#455A64"/>
<path d="M53.2985 65.6567C53.3164 65.6804 52.2459 66.5368 50.9107 67.5692C49.5755 68.6016 48.4752 69.4223 48.4573 69.4006C48.4393 69.3788 49.5099 68.5224 50.845 67.4881C52.1802 66.4537 53.2806 65.6349 53.2985 65.6567Z" fill="#455A64"/>
<path d="M53.2985 63.4185C53.3164 63.4402 52.2459 64.2966 50.9107 65.329C49.5755 66.3614 48.4752 67.1841 48.4573 67.1604C48.4393 67.1366 49.5099 66.2823 50.845 65.2479C52.1802 64.2135 53.2806 63.3947 53.2985 63.4185Z" fill="#455A64"/>
<path d="M53.3005 61.192C53.3184 61.2138 52.2479 62.0701 50.9127 63.1045C49.5776 64.1388 48.4772 64.9497 48.4573 64.9319C48.4374 64.9141 49.5099 64.0538 50.8451 63.0194C52.1803 61.9851 53.2826 61.1663 53.3005 61.192Z" fill="#455A64"/>
<path d="M53.3005 58.9457C53.3184 58.9695 52.2479 59.8258 50.9127 60.8582C49.5776 61.8906 48.4772 62.7114 48.4573 62.6896C48.4374 62.6679 49.5099 61.8115 50.8451 60.7771C52.1803 59.7428 53.2826 58.924 53.3005 58.9457Z" fill="#455A64"/>
<path d="M53.2985 56.7114C53.3164 56.7332 52.2459 57.5896 50.9107 58.624C49.5755 59.6583 48.4752 60.4771 48.4573 60.4534C48.4393 60.4297 49.5099 59.5753 50.845 58.5409C52.1802 57.5065 53.2806 56.6877 53.2985 56.7114Z" fill="#455A64"/>
<path d="M53.3005 54.4767C53.3184 54.4984 52.2479 55.3548 50.9127 56.3892C49.5776 57.4236 48.4772 58.2424 48.4573 58.2226C48.4374 58.2028 49.5099 57.3445 50.8451 56.3101C52.1803 55.2757 53.2826 54.4648 53.3005 54.4767Z" fill="#455A64"/>
<path d="M53.2985 52.2426C53.3164 52.2663 52.2459 53.1227 50.9107 54.1551C49.5755 55.1875 48.4752 56.0083 48.4573 55.9865C48.4393 55.9648 49.5099 55.1084 50.845 54.074C52.1802 53.0397 53.2806 52.2209 53.2985 52.2426Z" fill="#455A64"/>
<path d="M53.2985 50.0044C53.3164 50.0262 52.2459 50.8825 50.9107 51.9169C49.5755 52.9513 48.4752 53.77 48.4573 53.7463C48.4393 53.7226 49.5099 52.8682 50.845 51.8338C52.1802 50.7995 53.2806 49.9807 53.2985 50.0044Z" fill="#455A64"/>
<path d="M53.2985 47.7663C53.3164 47.7881 52.2459 48.6444 50.9107 49.6788C49.5755 50.7132 48.4752 51.532 48.4573 51.5102C48.4393 51.4884 49.5099 50.6321 50.845 49.5977C52.1802 48.5633 53.2806 47.7386 53.2985 47.7663Z" fill="#455A64"/>
<path d="M52.3176 46.2896C52.3355 46.3133 51.4858 46.9996 50.4193 47.8224C49.3527 48.6451 48.4752 49.2978 48.4573 49.274C48.4394 49.2503 49.2891 48.566 50.3556 47.7413C51.4222 46.9165 52.2997 46.2678 52.3176 46.2896Z" fill="#455A64"/>
<path d="M49.4739 46.252C49.3392 46.4215 49.1779 46.5684 48.9964 46.6871C48.836 46.8339 48.6525 46.9535 48.4531 47.0411C48.7492 46.7255 49.0938 46.4585 49.4739 46.25V46.252Z" fill="#455A64"/>
<path d="M48.4455 72.2366C48.4276 72.2129 49.4982 71.3565 50.8333 70.3241C52.1685 69.2917 53.2689 68.469 53.2848 68.4927C53.3007 68.5164 52.2342 69.3708 50.897 70.4052C49.5598 71.4396 48.4634 72.2623 48.4455 72.2366Z" fill="#455A64"/>
<path d="M48.59 75.0686C48.5741 75.0468 49.6426 74.1904 50.9778 73.1561C52.313 72.1217 53.4134 71.3029 53.4313 71.3246C53.4492 71.3464 52.3786 72.2028 51.0435 73.2372C49.7083 74.2715 48.6079 75.0903 48.59 75.0686Z" fill="#455A64"/>
<path d="M48.4573 77.6662C48.4393 77.6444 49.5099 76.7881 50.845 75.7537C52.1802 74.7193 53.2806 73.9005 53.2985 73.9223C53.3164 73.9441 52.2459 74.8024 50.9107 75.8348C49.5755 76.8672 48.4772 77.6899 48.4573 77.6662Z" fill="#455A64"/>
<path d="M48.4573 79.9006C48.4393 79.8789 49.5099 79.0225 50.845 77.9881C52.1802 76.9537 53.2806 76.1349 53.2985 76.1567C53.3164 76.1784 52.2459 77.0348 50.9107 78.0692C49.5755 79.1036 48.4772 79.9224 48.4573 79.9006Z" fill="#455A64"/>
<path d="M48.4573 82.1389C48.4393 82.1152 49.5099 81.2588 50.845 80.2264C52.1802 79.1941 53.2806 78.3713 53.2985 78.395C53.3164 78.4188 52.2459 79.2732 50.9107 80.3075C49.5755 81.3419 48.4772 82.1548 48.4573 82.1389Z" fill="#455A64"/>
<path d="M48.4573 84.3732C48.4393 84.3515 49.5099 83.4951 50.845 82.4607C52.1802 81.4264 53.2806 80.6076 53.2985 80.6293C53.3164 80.6511 52.2459 81.5094 50.9107 82.5418C49.5755 83.5742 48.4772 84.397 48.4573 84.3732Z" fill="#455A64"/>
<path d="M49.4417 85.8483C49.4238 85.8245 50.2734 85.1382 51.34 84.3155C52.4065 83.4927 53.284 82.8421 53.3019 82.8638C53.3198 82.8856 52.4702 83.5719 51.4037 84.3966C50.3371 85.2213 49.4596 85.87 49.4417 85.8483Z" fill="#455A64"/>
<path d="M52.2812 85.8888C52.5763 85.572 52.921 85.3048 53.302 85.0977C53.1663 85.2669 53.0044 85.4138 52.8225 85.5328C52.6613 85.678 52.4788 85.798 52.2812 85.8888Z" fill="#455A64"/>
<path d="M105.479 57.8164H84.3789V85.865H105.479V57.8164Z" fill="#455A64"/>
<g opacity="0.3">
<path opacity="0.3" d="M105.479 57.8164H84.3789V85.865H105.479V57.8164Z" fill="black"/>
</g>
<path d="M109.709 57.8164H88.6094V85.865H109.709V57.8164Z" fill="#455A64"/>
<path d="M88.6097 74.9224C88.6276 74.9442 87.6924 75.6957 86.5223 76.6016C85.3523 77.5074 84.3893 78.2213 84.3713 78.1996C84.3534 78.1778 85.2887 77.4243 86.4587 76.5205C87.6287 75.6166 88.5918 74.8987 88.6097 74.9224Z" fill="#455A64"/>
<path d="M88.6097 72.9614C88.6276 72.9832 87.6924 73.7367 86.5223 74.6405C85.3523 75.5444 84.3893 76.2603 84.3713 76.2386C84.3534 76.2168 85.2887 75.4633 86.4587 74.5595C87.6287 73.6556 88.5918 72.9397 88.6097 72.9614Z" fill="#455A64"/>
<path d="M88.6097 71.0083C88.6276 71.032 87.6924 71.7836 86.5223 72.6874C85.3523 73.5912 84.3893 74.3092 84.3713 74.2854C84.3534 74.2617 85.2887 73.5121 86.4587 72.6063C87.6287 71.7005 88.5918 70.9865 88.6097 71.0083Z" fill="#455A64"/>
<path d="M88.6097 69.0514C88.6276 69.0731 87.6924 69.8247 86.5223 70.7305C85.3523 71.6363 84.3893 72.3503 84.3713 72.3285C84.3534 72.3068 85.2887 71.5532 86.4587 70.6494C87.6287 69.7455 88.5918 69.0276 88.6097 69.0514Z" fill="#455A64"/>
<path d="M88.6097 67.0942C88.6276 67.116 87.6924 67.8695 86.5223 68.7734C85.3523 69.6772 84.3893 70.3931 84.3713 70.3714C84.3534 70.3496 85.2887 69.5981 86.4587 68.6923C87.6287 67.7864 88.5918 67.0725 88.6097 67.0942Z" fill="#455A64"/>
<path d="M88.6097 65.1455C88.6276 65.1693 87.6924 65.9208 86.5223 66.8247C85.3523 67.7285 84.3893 68.4464 84.3713 68.4227C84.3534 68.399 85.2887 67.6494 86.4587 66.7436C87.6287 65.8377 88.5918 65.1139 88.6097 65.1455Z" fill="#455A64"/>
<path d="M88.6097 63.1764C88.6276 63.1981 87.6924 63.9497 86.5223 64.8555C85.3523 65.7613 84.3893 66.4753 84.3713 66.4535C84.3534 66.4318 85.2887 65.6782 86.4587 64.7744C87.6287 63.8706 88.5918 63.1526 88.6097 63.1764Z" fill="#455A64"/>
<path d="M88.6097 61.2192C88.6276 61.243 87.6924 61.9945 86.5223 62.8984C85.3523 63.8022 84.3893 64.5182 84.3713 64.4964C84.3534 64.4746 85.2887 63.7231 86.4587 62.8173C87.6287 61.9115 88.5918 61.1975 88.6097 61.2192Z" fill="#455A64"/>
<path d="M88.6097 59.2623C88.6276 59.284 87.6924 60.0356 86.5223 60.9394C85.3523 61.8433 84.3893 62.5612 84.3713 62.5375C84.3534 62.5137 85.2887 61.7642 86.4587 60.8583C87.6287 59.9525 88.5918 59.2386 88.6097 59.2623Z" fill="#455A64"/>
<path d="M87.7501 57.9694C87.768 57.9911 87.0258 58.5943 86.0926 59.3162C85.1594 60.0381 84.3893 60.6037 84.3714 60.582C84.3535 60.5602 85.0957 59.957 86.0289 59.2351C86.9621 58.5132 87.7322 57.9476 87.7501 57.9694Z" fill="#455A64"/>
<path d="M85.2657 57.9336C85.2836 57.9553 85.0986 58.1314 84.8518 58.3193C84.7104 58.4448 84.5481 58.5452 84.3723 58.6159C84.3544 58.5942 84.5414 58.4181 84.7881 58.2204C84.9283 58.0965 85.0902 57.9993 85.2657 57.9336Z" fill="#455A64"/>
<path d="M88.6097 82.6138C88.6276 82.6355 87.6924 83.3871 86.5223 84.2929C85.3523 85.1987 84.3893 85.9107 84.3713 85.8909C84.3534 85.8711 85.2887 85.1156 86.4587 84.2118C87.6287 83.308 88.5918 82.592 88.6097 82.6138Z" fill="#455A64"/>
<path d="M88.6097 80.6567C88.6276 80.6805 87.6924 81.432 86.5223 82.3359C85.3523 83.2397 84.3893 83.9556 84.3713 83.9339C84.3534 83.9121 85.2887 83.1606 86.4587 82.2548C87.6287 81.349 88.5918 80.635 88.6097 80.6567Z" fill="#455A64"/>
<path d="M88.6097 78.6998C88.6276 78.7215 87.6924 79.4731 86.5223 80.3789C85.3523 81.2847 84.3893 81.9987 84.3713 81.975C84.3534 81.9512 85.2887 81.2017 86.4587 80.2958C87.6287 79.39 88.5918 78.6761 88.6097 78.6998Z" fill="#455A64"/>
<path d="M88.6097 76.7427C88.6276 76.7644 87.6924 77.516 86.5223 78.4218C85.3523 79.3276 84.3893 80.0416 84.3713 80.0198C84.3534 79.9981 85.2887 79.2445 86.4587 78.3407C87.6287 77.4369 88.5918 76.7209 88.6097 76.7427Z" fill="#455A64"/>
<path d="M39.1848 66.793H16.5625V85.8922H39.1848V66.793Z" fill="#455A64"/>
<g opacity="0.3">
<path opacity="0.3" d="M39.1848 66.793H16.5625V85.8922H39.1848V66.793Z" fill="black"/>
</g>
<path d="M43.259 66.793H20.6367V85.8922H43.259V66.793Z" fill="#455A64"/>
<path d="M20.5583 82.8013C20.5743 82.825 19.6948 83.5331 18.5924 84.3835C17.49 85.2339 16.5807 85.9083 16.5628 85.8866C16.5449 85.8648 17.4244 85.1548 18.5287 84.3044C19.6331 83.454 20.5404 82.7795 20.5583 82.8013Z" fill="#455A64"/>
<path d="M20.5583 80.9659C20.5743 80.9896 19.6948 81.6997 18.5924 82.5481C17.49 83.3966 16.5807 84.073 16.5628 84.0512C16.5449 84.0295 17.4244 83.3194 18.5287 82.469C19.6331 81.6186 20.5404 80.9343 20.5583 80.9659Z" fill="#455A64"/>
<path d="M20.5583 79.1139C20.5743 79.1356 19.6948 79.8457 18.5924 80.6961C17.49 81.5465 16.5807 82.2229 16.5628 82.1992C16.5449 82.1755 17.4244 81.4674 18.5287 80.617C19.6331 79.7665 20.5404 79.0902 20.5583 79.1139Z" fill="#455A64"/>
<path d="M20.5583 77.2661C20.5743 77.2879 19.6948 77.9979 18.5924 78.8483C17.49 79.6988 16.5807 80.3752 16.5628 80.3534C16.5449 80.3316 17.4244 79.6197 18.5287 78.7712C19.6331 77.9227 20.5404 77.2444 20.5583 77.2661Z" fill="#455A64"/>
<path d="M20.5583 75.4266C20.5743 75.4503 19.6948 76.1584 18.5924 77.0088C17.49 77.8593 16.5807 78.5337 16.5628 78.5119C16.5449 78.4902 17.4244 77.7801 18.5287 76.9297C19.6331 76.0793 20.5404 75.3989 20.5583 75.4266Z" fill="#455A64"/>
<path d="M20.5583 73.5787C20.5743 73.6005 19.6948 74.3105 18.5924 75.1609C17.49 76.0114 16.5807 76.6858 16.5628 76.6641C16.5449 76.6423 17.4244 75.9323 18.5287 75.0818C19.6331 74.2314 20.5404 73.555 20.5583 73.5787Z" fill="#455A64"/>
<path d="M20.5583 71.735C20.5743 71.7567 19.6948 72.4668 18.5924 73.3172C17.49 74.1676 16.5807 74.844 16.5628 74.8203C16.5449 74.7966 17.4244 74.0885 18.5287 73.2381C19.6331 72.3876 20.5404 71.7112 20.5583 71.735Z" fill="#455A64"/>
<path d="M20.5583 69.8912C20.5743 69.913 19.6948 70.623 18.5924 71.4734C17.49 72.3239 16.5807 73.0003 16.5628 72.9785C16.5449 72.9568 17.4244 72.2467 18.5287 71.3963C19.6331 70.5459 20.5404 69.8675 20.5583 69.8912Z" fill="#455A64"/>
<path d="M20.5583 68.0435C20.5743 68.0672 19.6948 68.7753 18.5924 69.6257C17.49 70.4761 16.5807 71.1505 16.5628 71.1288C16.5449 71.107 17.4244 70.397 18.5287 69.5466C19.6331 68.6961 20.5404 68.0217 20.5583 68.0435Z" fill="#455A64"/>
<path d="M19.7462 66.8249C19.2495 67.2762 18.7287 67.7007 18.1862 68.0966C17.6656 68.5193 17.1237 68.9154 16.5625 69.2832C17.0605 68.8333 17.5811 68.4088 18.1225 68.0115C19.002 67.3371 19.7283 66.8031 19.7462 66.8249Z" fill="#455A64"/>
<path d="M17.4054 66.793C17.4234 66.8147 17.2502 66.9789 17.0174 67.1589C16.8862 67.2821 16.7321 67.3788 16.5638 67.4437C16.5459 67.4219 16.721 67.2577 16.9617 67.0778C17.0905 66.9562 17.241 66.8597 17.4054 66.793Z" fill="#455A64"/>
<g opacity="0.3">
<path opacity="0.3" d="M73.4434 44.5262C73.2547 44.4679 73.0543 44.457 72.8603 44.4946C66.7795 45.165 60.0439 45.6199 53.957 46.2904V46.3556C57.862 47.4715 61.9254 47.9392 65.9835 47.7401C66.3636 47.7223 66.7974 47.7183 67.056 47.9972C67.3147 48.276 67.255 48.7764 67.1695 49.1838C66.3138 52.8823 65.4589 56.58 64.6046 60.2771C64.4713 60.8586 64.3777 61.5725 64.8354 61.9562C65.4682 62.4882 66.3994 61.8573 66.9327 61.2284C70.5541 56.9584 72.1977 51.4167 73.7478 46.0491C73.911 45.5052 73.9766 44.7438 73.4434 44.5262Z" fill="black"/>
</g>
<path d="M81.2047 42.7203C80.5695 42.1804 79.7461 41.9105 78.9124 41.9687L77.5195 46.397C78.5463 46.4405 79.571 46.9685 80.562 46.6976C80.9591 46.576 81.3128 46.3437 81.5809 46.0281C81.849 45.7126 82.0202 45.3271 82.0742 44.9176C82.1165 44.5089 82.0595 44.0962 81.9082 43.7139C81.757 43.3316 81.5157 42.9909 81.2047 42.7203Z" fill="#294C88"/>
<path d="M78.9385 41.8661C78.9385 41.8305 79.0897 41.8028 79.3623 41.8048C79.7546 41.8111 80.1428 41.884 80.5104 42.0204C81.0697 42.2383 81.5536 42.6127 81.9033 43.0982C82.1174 43.3863 82.2754 43.7116 82.3689 44.0575C82.4699 44.4367 82.4815 44.834 82.4027 45.2184C82.3255 45.6082 82.1503 45.9722 81.8933 46.2765C81.6499 46.5566 81.3391 46.7709 80.99 46.8995C80.4243 47.0993 79.8137 47.1384 79.227 47.0123C78.85 46.9378 78.4819 46.8244 78.1286 46.6741C77.8799 46.5673 77.7505 46.4901 77.7625 46.4545C77.7744 46.4189 77.9237 46.4288 78.1863 46.4723C78.449 46.5158 78.823 46.5949 79.2807 46.6365C79.7968 46.6978 80.32 46.6298 80.8029 46.4387C81.0684 46.3283 81.3032 46.156 81.4874 45.9363C81.6825 45.6965 81.815 45.4125 81.8734 45.1096C81.9301 44.8126 81.9268 44.5073 81.8636 44.2115C81.8004 43.9158 81.6786 43.6355 81.5053 43.387C81.2188 42.9567 80.8254 42.6072 80.3632 42.3724C80.0358 42.2187 79.693 42.1 79.3404 42.0184C79.0797 41.9472 78.9345 41.9037 78.9385 41.8661Z" fill="#E0E0E0"/>
<path d="M66.2454 58.1484L63.4219 66.012L73.2496 69.5562C73.5322 68.6009 69.1307 64.8966 69.1307 64.8966L71.1583 59.9304L66.2454 58.1484Z" fill="#294C88"/>
<g opacity="0.6">
<path opacity="0.6" d="M66.2461 63.3756C66.1412 63.3698 66.0379 63.4028 65.956 63.4681C65.8741 63.5335 65.8194 63.6266 65.8024 63.7296C65.7931 63.8336 65.8242 63.9373 65.8894 64.0193C65.9545 64.1012 66.0486 64.1554 66.1526 64.1706C66.264 64.1763 66.3736 64.1406 66.4601 64.0704C66.5465 64.0002 66.6036 63.9006 66.6202 63.7909C66.6202 63.5832 66.4212 63.3439 66.2043 63.3736" fill="white"/>
</g>
<path d="M63.4219 66.0099L63.7064 65.2188L73.0407 68.9191C73.0407 68.9191 73.4108 69.2672 73.2496 69.556L63.4219 66.0099Z" fill="#F5F5F5"/>
<path d="M69.3064 64.9002C69.2885 64.9457 69.0398 64.8824 68.7492 64.9497C68.4587 65.0169 68.2578 65.1732 68.2199 65.1475C68.1821 65.1217 68.3553 64.8646 68.7095 64.7875C69.0636 64.7104 69.3343 64.8587 69.3064 64.9002Z" fill="#263238"/>
<path d="M70.1845 65.6976C70.1845 65.747 69.9397 65.7529 69.7049 65.8953C69.4701 66.0377 69.3428 66.2355 69.295 66.2157C69.2473 66.196 69.3169 65.9171 69.6134 65.743C69.9099 65.569 70.2004 65.6501 70.1845 65.6976Z" fill="#263238"/>
<path d="M70.3219 67.1293C70.2742 67.1293 70.2941 66.8623 70.5209 66.6447C70.7477 66.4271 71.0024 66.4054 71.0084 66.4469C71.0144 66.4885 70.8234 66.5834 70.6483 66.7634C70.4732 66.9433 70.3717 67.1431 70.3219 67.1293Z" fill="#263238"/>
<path d="M69.6425 63.7177C69.6067 63.7533 69.4097 63.6089 69.1331 63.5199C68.8565 63.4309 68.6118 63.4507 68.6018 63.3992C68.5919 63.3478 68.8565 63.2529 69.1829 63.3518C69.5092 63.4507 69.6803 63.688 69.6425 63.7177Z" fill="#263238"/>
<path d="M69.8326 62.4716C69.6555 62.4563 69.4858 62.3941 69.3411 62.2916C69.1757 62.1957 69.0221 62.0808 68.8835 61.9494C68.8017 61.8708 68.7253 61.7869 68.6546 61.6983C68.6112 61.6478 68.5757 61.5911 68.5492 61.5302C68.5297 61.4849 68.526 61.4344 68.5386 61.3868C68.5512 61.3391 68.5794 61.297 68.6188 61.2671C68.6552 61.2428 68.6968 61.2271 68.7402 61.2213C68.7837 61.2155 68.8279 61.2196 68.8695 61.2335C68.9318 61.2566 68.9907 61.2879 69.0446 61.3264C69.1403 61.3897 69.2302 61.4611 69.3133 61.54C69.4519 61.675 69.5687 61.8304 69.6595 62.0009C69.7581 62.149 69.8081 62.3237 69.8028 62.5012C69.7749 62.5012 69.7192 62.3213 69.5501 62.0641C69.4519 61.9177 69.3349 61.7847 69.2018 61.6686C69.1232 61.5959 69.0387 61.5297 68.9491 61.4708C68.8556 61.4075 68.7681 61.3739 68.7243 61.4115C68.6805 61.4491 68.7044 61.4313 68.7143 61.4688C68.7359 61.5133 68.7626 61.5551 68.7939 61.5934C68.8557 61.6775 68.9221 61.7581 68.9929 61.8347C69.1183 61.9644 69.2555 62.0822 69.4028 62.1868C69.5524 62.2718 69.696 62.367 69.8326 62.4716Z" fill="#263238"/>
<path d="M69.7462 62.5204C69.7041 62.3477 69.7187 62.1661 69.788 62.0022C69.8464 61.8182 69.9352 61.6451 70.0506 61.49C70.1208 61.3992 70.1994 61.3151 70.2854 61.2388C70.3349 61.1849 70.3974 61.1442 70.467 61.1207C70.5366 61.0972 70.611 61.0916 70.6834 61.1043C70.7267 61.1214 70.7643 61.1504 70.7918 61.1878C70.8192 61.2253 70.8355 61.2697 70.8386 61.3159C70.8424 61.3822 70.8377 61.4486 70.8246 61.5137C70.8011 61.6286 70.7602 61.7393 70.7033 61.842C70.609 62.0161 70.4722 62.1637 70.3053 62.2712C70.0208 62.4551 69.7999 62.4413 69.8019 62.4235C69.95 62.3474 70.0935 62.2629 70.2317 62.1703C70.3671 62.0637 70.4772 61.9286 70.554 61.7748C70.5997 61.685 70.6319 61.5891 70.6495 61.49C70.6714 61.3812 70.6635 61.2823 70.6197 61.2784C70.5763 61.2774 70.5333 61.2858 70.4935 61.3028C70.4536 61.3199 70.418 61.3453 70.3889 61.3772C70.3095 61.4445 70.2363 61.5187 70.17 61.5988C70.0577 61.7359 69.9659 61.8884 69.8974 62.0517C69.7899 62.3266 69.7681 62.5224 69.7462 62.5204Z" fill="#263238"/>
<path d="M55.672 35.7975C54.0622 35.8351 52.536 36.0606 51.4277 37.2195C49.9572 38.7582 48.1405 40.9516 48.045 42.4705C47.8779 44.7429 49.2707 45.4173 50.2656 45.9731C50.7136 46.2142 51.2192 46.3298 51.7282 46.3073L70.327 46.1669L70.912 43.0361L58.8816 40.0893L59.381 35.5898L55.672 35.7975Z" fill="#263238"/>
<path d="M59.3824 35.5893L65.2345 35.3203C65.2345 35.3203 75.3368 35.8741 77.4978 37.8518C79.6587 39.8296 79.3841 42.0487 78.6658 44.1807C77.9475 46.3127 71.6139 60.0305 71.6139 60.0305C71.6139 60.0305 72.1272 60.9027 71.8387 61.7709C71.7228 62.1513 71.5098 62.4953 71.2204 62.7695C70.9309 63.0436 70.575 63.2386 70.1871 63.3353L64.5619 61.2804C64.5619 61.2804 63.7978 61.0134 64.3371 60.2915C64.8763 59.5697 65.2345 59.4451 65.2345 59.4451V58.025C65.2345 58.025 67.2124 54.4532 67.3914 53.9627C67.5705 53.4722 69.4648 46.202 69.4648 46.202L70.7244 44.0521C70.7244 44.0521 67.68 42.6301 65.0435 41.5997L58.875 40.0907L59.3824 35.5893Z" fill="#263238"/>
<path d="M68.873 61.0204C68.861 61.0343 68.684 60.8938 68.3795 60.7C67.585 60.1879 66.6894 59.8507 65.753 59.7111C65.5566 59.692 65.3614 59.663 65.168 59.6241C65.3666 59.6011 65.5674 59.6051 65.7649 59.636C66.2417 59.6866 66.7098 59.7982 67.1578 59.9682C67.6067 60.1366 68.0315 60.3627 68.4213 60.6407C68.5882 60.7467 68.7401 60.8744 68.873 61.0204Z" fill="#455A64"/>
<path d="M71.6837 60.04C71.562 59.9388 71.4525 59.824 71.3573 59.6978C71.1683 59.4763 70.9156 59.1619 70.651 58.8059C70.3863 58.4499 70.1595 58.1136 70.0043 57.8684C69.9093 57.742 69.8317 57.6037 69.7734 57.457C69.884 57.57 69.9827 57.6939 70.0679 57.8269L70.7385 58.7426L71.417 59.6504C71.5204 59.7698 71.6099 59.9005 71.6837 60.04Z" fill="#455A64"/>
<path d="M73.746 42.0859C73.746 42.1037 73.547 42.1472 73.2147 42.256C72.79 42.3962 72.3833 42.5854 72.0029 42.8197C71.624 43.0569 71.2742 43.337 70.9602 43.6543C70.7195 43.8976 70.5881 44.0657 70.5742 44.0499C70.6612 43.8835 70.7725 43.7309 70.9045 43.5969C71.2072 43.2572 71.5577 42.9628 71.9452 42.7228C72.3323 42.4832 72.7517 42.2994 73.1908 42.1769C73.3704 42.1197 73.5574 42.089 73.746 42.0859Z" fill="#455A64"/>
<path d="M67.9922 51.79C67.9946 51.7491 68.002 51.7086 68.0141 51.6694C68.038 51.5804 68.0658 51.4716 68.1016 51.3292L68.4379 50.0812L69.59 45.9773C69.8228 45.1763 70.0238 44.4129 70.2486 43.7207C70.4866 43.1187 70.8469 42.572 71.3072 42.1148C71.6111 41.805 71.948 41.5291 72.3121 41.292C72.4434 41.209 72.5449 41.1476 72.6165 41.1101C72.6518 41.088 72.6891 41.0695 72.728 41.0547C72.728 41.0547 72.5867 41.1496 72.33 41.3256C71.9796 41.5753 71.6538 41.8574 71.357 42.1682C70.9129 42.6218 70.5657 43.16 70.3362 43.7504C70.1193 44.4307 69.9203 45.204 69.6875 46.0011L68.5115 50.1109L68.1414 51.349C68.0976 51.4854 68.0638 51.5962 68.036 51.6832C68.0256 51.7204 68.011 51.7562 67.9922 51.79Z" fill="#455A64"/>
<path d="M62.8161 41.3243C62.7863 41.3243 62.6629 40.2385 62.5415 38.8956C62.4201 37.5527 62.3425 36.459 62.3744 36.457C62.4062 36.4551 62.5276 37.5408 62.649 38.8857C62.7703 40.2306 62.846 41.3204 62.8161 41.3243Z" fill="#455A64"/>
<path d="M53.0772 44.2234C53.0593 44.2234 52.9697 44.0553 52.7867 43.7981C52.547 43.4638 52.261 43.1648 51.937 42.9101C51.6105 42.6589 51.2493 42.4557 50.8645 42.3069C50.568 42.1922 50.375 42.1467 50.379 42.1289C50.5539 42.1368 50.7265 42.1722 50.8904 42.2337C51.7006 42.5019 52.3929 43.0399 52.8503 43.7566C52.9513 43.8987 53.0279 44.0565 53.0772 44.2234Z" fill="#455A64"/>
<path d="M56.6632 40.2784C56.6632 40.2962 56.4046 40.138 55.9748 39.9442C54.8499 39.4361 53.6025 39.2577 52.3791 39.43C51.9115 39.4972 51.629 39.5803 51.625 39.5605C51.687 39.5258 51.7542 39.5011 51.824 39.4873C52.004 39.4317 52.1875 39.3874 52.3732 39.3548C53.6117 39.1375 54.8877 39.3197 56.0146 39.875C56.1841 39.9571 56.3477 40.051 56.5041 40.1558C56.5625 40.1892 56.6161 40.2305 56.6632 40.2784Z" fill="#455A64"/>
<path d="M70.6743 43.0332C70.6255 43.028 70.577 43.02 70.5291 43.0094L70.1152 42.9185L68.599 42.5803C67.3195 42.2955 65.5486 41.9138 63.5846 41.5261C61.6207 41.1385 59.8378 40.8181 58.5444 40.6025L57.0123 40.3414L56.5964 40.2663C56.548 40.2588 56.5002 40.2482 56.4531 40.2346C56.5025 40.2333 56.5519 40.2372 56.6004 40.2465L57.0182 40.2999C57.3824 40.3493 57.9077 40.4265 58.5564 40.5273C59.8537 40.7251 61.6406 41.0356 63.6065 41.4213C65.5725 41.807 67.3414 42.2025 68.6169 42.5071C69.2556 42.6594 69.771 42.786 70.1252 42.8789L70.5351 42.9877C70.5831 42.9976 70.6298 43.0128 70.6743 43.0332Z" fill="#455A64"/>
<path d="M58.8839 40.6175C58.8092 40.4152 58.7236 40.2171 58.6272 40.0241C58.5107 39.8233 58.3675 39.639 58.2014 39.4763C57.9957 39.2772 57.7784 39.0903 57.5507 38.9166C57.1291 38.6074 56.6833 38.3323 56.2175 38.0938C56.0196 38.0021 55.8293 37.895 55.6484 37.7734C55.8549 37.8392 56.0547 37.924 56.2454 38.0266C56.7269 38.2477 57.1843 38.5175 57.6104 38.8315C57.8427 39.0077 58.0621 39.2 58.267 39.4071C58.435 39.5798 58.5771 39.7756 58.6889 39.9885C58.7616 40.1319 58.817 40.2832 58.854 40.4395C58.8737 40.4968 58.8838 40.5569 58.8839 40.6175Z" fill="#455A64"/>
<path d="M79.5983 43.4141C79.6222 43.4378 79.3118 43.7503 79.069 44.225C78.8263 44.6996 78.7487 45.1308 78.7148 45.1248C78.733 44.794 78.8211 44.4707 78.9733 44.1759C79.1255 43.8812 79.3385 43.6216 79.5983 43.4141Z" fill="#263238"/>
<path d="M94.6485 16.6727C94.6433 16.6824 94.6373 16.6917 94.6306 16.7004L94.5768 16.7795L94.3579 17.0841L93.5143 18.2134C92.782 19.1884 91.7393 20.5689 90.4957 22.2184L90.4698 22.254L90.434 22.2282L87.8015 20.379L87.8711 20.3672C87.2463 21.2077 86.5797 22.1036 85.8912 23.0253C85.1451 24.024 84.4228 25.003 83.7383 25.9069L83.7124 25.9445L83.6746 25.9207L80.4411 24.0399L80.4968 24.028L77.7111 27.4891L76.9271 28.4443L76.7182 28.6955C76.6955 28.7248 76.6709 28.7526 76.6445 28.7786C76.6632 28.7466 76.6845 28.7162 76.7082 28.6876L76.9072 28.4285L77.6713 27.4535L80.4312 23.9687L80.4551 23.939L80.4869 23.9588L83.7263 25.8297L83.6607 25.8436L85.8097 22.958L87.7995 20.3019L87.8293 20.2623L87.8691 20.292L90.4937 22.1491H90.432L93.4804 18.1659L94.342 17.0524L94.5729 16.7617C94.5967 16.7301 94.6166 16.7063 94.6345 16.6866C94.6524 16.6668 94.6465 16.6727 94.6485 16.6727Z" fill="#263238"/>
<path d="M94.3662 19.6058C94.3579 19.5289 94.3579 19.4513 94.3662 19.3744C94.3781 19.2043 94.394 18.9947 94.4099 18.7475C94.4517 18.2174 94.5154 17.4857 94.593 16.6807V16.6669L94.6627 16.7203C93.8966 16.9912 93.2021 17.2325 92.6987 17.4026L92.1018 17.6004C92.0303 17.6289 91.9554 17.6482 91.8789 17.6577C91.9455 17.6185 92.0162 17.5867 92.0898 17.5628L92.6768 17.3354C93.1743 17.1495 93.8707 16.8963 94.6288 16.6253L94.7064 16.5977V16.6787V16.6867C94.6288 17.4916 94.5532 18.2214 94.4935 18.7495C94.4637 18.9967 94.4378 19.2063 94.4159 19.3744C94.4097 19.4534 94.393 19.5312 94.3662 19.6058Z" fill="#263238"/>
<path d="M71.5428 28.2043C71.4513 27.5991 69.6326 25.5976 69.6326 25.5976C69.6326 25.5976 68.0507 21.7489 67.7781 20.6789C67.5733 20.0044 67.3247 19.3438 67.0339 18.7012C66.3972 17.6312 66.0828 17.6114 64.9923 17.0023L62.8792 16.0747L62.6205 15.5031C62.3982 15.0106 62.0135 14.608 61.5301 14.362L56.2351 11.6445L54.5955 14.5222C54.5955 14.5222 51.4476 15.9996 51.2646 16.2329C50.6179 17.0517 51.0656 30.2019 51.0656 30.2019C51.0656 30.2019 50.7492 35.3263 50.397 36.7641C50.0448 38.2019 49.8398 39.264 49.8398 39.264L51.4118 37.4682C52.3351 36.3191 54.3587 35.789 55.8133 35.8108L68.2377 35.8642L67.4816 32.1816L77.7909 34.3473C77.7909 34.3473 79.52 30.9969 79.6573 30.9297C79.7946 30.8624 71.5428 28.2043 71.5428 28.2043Z" fill="#294C88"/>
<path d="M55.9659 15.6512C55.8784 15.5642 56.9608 18.1274 57.6593 20.9121C58.101 22.6486 58.1945 25.4609 58.1945 27.0234L58.4612 31.4021V35.2331L64.4187 34.8375L63.5273 28.4019C63.5273 28.4019 62.801 24.2486 62.598 22.6664C62.413 21.2206 61.5275 15.4258 61.5275 15.4258C61.5275 15.4258 58.4612 18.1768 55.9659 15.6512Z" fill="white"/>
<path d="M69.1864 30.6321C69.1774 30.5824 69.1774 30.5315 69.1864 30.4818C69.2006 30.348 69.2266 30.2156 69.264 30.0863C69.3919 29.6528 69.6265 29.2579 69.9465 28.9372C70.2676 28.6181 70.6646 28.3847 71.1006 28.2588C71.2305 28.2201 71.3638 28.1937 71.4986 28.1797C71.5941 28.1797 71.6478 28.1797 71.6498 28.1797C71.6518 28.1797 71.4409 28.2192 71.1225 28.33C70.7064 28.4698 70.3283 28.7031 70.0177 29.0119C69.7071 29.3206 69.4723 29.6964 69.3317 30.11C69.2282 30.4245 69.2063 30.6341 69.1864 30.6321Z" fill="#263238"/>
<path d="M69.4961 28.2866C69.7721 28.1246 70.085 28.0348 70.4054 28.0256C70.7229 27.9816 71.0464 28.0197 71.3446 28.1363C71.3446 28.168 70.9248 28.0889 70.4134 28.1363C69.902 28.1838 69.506 28.3183 69.4961 28.2866Z" fill="#263238"/>
<path d="M51.4154 16.1172C50.5788 16.4787 49.8395 17.0308 49.2573 17.729C48.6752 18.4272 48.2666 19.2518 48.0646 20.136C47.5074 22.3946 45.1176 31.6288 45.6091 33.0093C46.1006 34.3897 55.6518 35.7465 55.6518 35.7465L56.784 30.9999L51.9328 29.6807C51.9328 29.6807 51.9945 25.2861 52.0561 23.4646C52.1178 21.6431 51.4154 16.1172 51.4154 16.1172Z" fill="#294C88"/>
<path d="M56.6568 31.6641L58.3561 32.1071L57.3472 35.7659L55.6758 35.6928L56.6568 31.6641Z" fill="white"/>
<path d="M68.3533 34.8366L66.8232 33.2208L63.6713 32.4297C63.6713 32.4297 60.7841 33.29 60.7144 33.288C60.6448 33.2861 58.2013 32.6235 58.2013 32.6235L57.3477 35.7345L61.7491 36.0352L66.7754 35.8374C66.7754 35.8374 67.0361 35.5941 66.8809 35.428C66.7257 35.2618 67.7226 35.7088 67.84 35.7148C67.9574 35.7207 68.1842 35.8097 68.3394 35.6218C68.4449 35.4932 68.5881 35.0819 68.3533 34.8366Z" fill="#C78976"/>
<path d="M66.8814 35.4233C66.7107 35.3904 66.5434 35.3414 66.382 35.277C66.0756 35.18 65.6537 35.0515 65.1881 34.9309C64.7225 34.8102 64.2827 34.7212 63.9683 34.6579C63.7958 34.6355 63.6259 34.5964 63.4609 34.5412C63.6357 34.5334 63.8107 34.5467 63.9823 34.5808C64.3978 34.6377 64.8097 34.7182 65.216 34.8221C65.6212 34.9249 66.0199 35.0517 66.4099 35.2018C66.576 35.2551 66.7345 35.3296 66.8814 35.4233Z" fill="#8B5D54"/>
<path d="M68.3546 34.8342C68.1178 34.7728 67.8846 34.6982 67.6562 34.6107C67.2284 34.4663 66.6275 34.2903 65.9609 34.1064C65.2943 33.9225 64.7033 33.7108 64.2536 33.6871C64.0112 33.6757 63.7682 33.6849 63.5273 33.7148C63.5892 33.6817 63.6566 33.6602 63.7263 33.6515C63.9041 33.6137 64.086 33.5991 64.2676 33.608C64.7332 33.608 65.344 33.8058 66.0027 34.0035C66.6613 34.2013 67.2682 34.3773 67.694 34.5415C67.9049 34.6226 68.0761 34.6938 68.1915 34.7393C68.2501 34.7631 68.305 34.7951 68.3546 34.8342Z" fill="#8B5D54"/>
<path d="M45.5743 32.5101C45.5743 32.5101 45.5743 32.5892 45.5982 32.7336C45.6505 32.9432 45.7665 33.1318 45.9305 33.2735C46.3464 33.6572 47.1383 33.9776 48.1432 34.1575C48.6028 34.3079 49.1261 34.4265 49.6853 34.5531C50.2444 34.6797 50.8473 34.8063 51.4761 34.9348C52.7476 35.1919 54.1544 35.4648 55.6428 35.7417L55.5791 35.7833L55.9154 34.3988C56.184 33.3111 56.4447 32.2549 56.6895 31.2562L56.7273 31.3214L52.4173 30.0972C51.8235 29.8483 51.1805 29.7367 50.5369 29.7709C50.0482 29.7975 49.568 29.9093 49.1182 30.1012C48.8321 30.2239 48.5589 30.3743 48.3024 30.5501L48.1034 30.6945L48.0337 30.74C48.0337 30.74 48.0516 30.7182 48.0954 30.6826C48.1392 30.647 48.1989 30.5936 48.2944 30.5303C48.5474 30.3441 48.8195 30.185 49.1062 30.0557C49.5591 29.8524 50.0451 29.7318 50.5409 29.6997C51.1962 29.6592 51.8521 29.7675 52.4591 30.0161L56.775 31.2206L56.8268 31.2344L56.8148 31.2858C56.5681 32.2866 56.3114 33.3407 56.0448 34.4305C55.9274 34.9032 55.8139 35.3679 55.7065 35.8149L55.6926 35.8663H55.6408C54.1504 35.5855 52.7456 35.3106 51.4741 35.0456C50.8394 34.915 50.2385 34.7845 49.6833 34.65C49.1281 34.5155 48.6028 34.3969 48.1352 34.2386C47.1204 34.0409 46.3245 33.7125 45.9066 33.3091C45.7399 33.16 45.6255 32.9618 45.5803 32.7434C45.5641 32.6667 45.562 32.5876 45.5743 32.5101Z" fill="#263238"/>
<path d="M52.1958 29.997C52.1818 30.0109 52.0207 29.8625 51.7282 29.6687C50.9638 29.161 50.0605 28.8999 49.1414 28.9211C48.7912 28.9211 48.5743 28.9666 48.5703 28.9488C48.752 28.8818 48.9437 28.8457 49.1374 28.842C50.0782 28.7752 51.0121 29.0453 51.7699 29.6034C51.9325 29.7107 52.0763 29.8436 52.1958 29.997Z" fill="#263238"/>
<path d="M52.8288 22.2617C52.8396 22.3577 52.8396 22.4545 52.8288 22.5505C52.8288 22.7364 52.8089 23.0054 52.7831 23.3416C52.7293 24.0041 52.6299 24.9238 52.4547 25.9127C52.3168 26.7702 52.1173 27.6169 51.8578 28.4462C51.8041 28.6024 51.7484 28.7448 51.7026 28.8694L51.5633 29.1799C51.5229 29.2682 51.4728 29.3517 51.4141 29.4291C51.4426 29.3371 51.4792 29.2478 51.5235 29.1621C51.5593 29.0692 51.5991 28.9644 51.6429 28.8457C51.6867 28.727 51.7324 28.5787 51.7802 28.4205C52.0189 27.5904 52.2083 26.7471 52.3473 25.8949C52.5224 24.906 52.6338 23.9863 52.7075 23.3238C52.7393 23.0113 52.7672 22.7483 52.789 22.5327C52.793 22.4412 52.8064 22.3505 52.8288 22.2617Z" fill="#263238"/>
<path d="M57.2124 20.0295C57.2124 20.0295 57.1905 19.9742 57.1408 19.8772C57.0673 19.7399 56.9598 19.6235 56.8284 19.539C56.731 19.4726 56.6195 19.4292 56.5026 19.412C56.3857 19.3949 56.2664 19.4045 56.1538 19.4402C56.0114 19.4891 55.8842 19.5738 55.7845 19.6861C55.6848 19.7984 55.616 19.9344 55.5848 20.081L55.5569 20.2273L55.4932 20.0928C55.2501 19.5751 55.0382 19.0434 54.8585 18.5007C54.5417 17.5968 54.3836 16.6455 54.3909 15.6883C54.3909 15.5044 54.4167 15.3403 54.4267 15.1939C54.4366 15.0475 54.4705 14.9269 54.4923 14.828C54.5138 14.7238 54.5451 14.6218 54.5859 14.5234C54.5133 14.9084 54.4734 15.2987 54.4665 15.6903C54.4837 16.6335 54.6509 17.568 54.9619 18.4592C55.1401 18.9973 55.3473 19.5255 55.5828 20.0414L55.4892 20.0533C55.5249 19.891 55.6029 19.7409 55.7153 19.618C55.8278 19.4951 55.9708 19.4038 56.13 19.3531C56.2537 19.3169 56.3842 19.3097 56.5113 19.332C56.6383 19.3543 56.7584 19.4055 56.8622 19.4817C56.9966 19.5755 57.1026 19.7041 57.1687 19.8535C57.1854 19.8932 57.1987 19.9342 57.2085 19.9761C57.2144 20.0137 57.2144 20.0295 57.2124 20.0295Z" fill="#263238"/>
<path d="M62.3659 20.4936C62.3461 20.4129 62.3315 20.331 62.3221 20.2484C62.2775 20.0205 62.2635 19.7877 62.2804 19.5561C62.3229 19.2055 62.491 18.8819 62.7539 18.6444C62.9108 18.5059 63.1132 18.4292 63.323 18.4288C63.4376 18.4279 63.5509 18.4529 63.6543 18.5019C63.7577 18.5509 63.8485 18.6226 63.92 18.7116L63.8344 18.7631L63.6474 18.2706C63.2812 17.2995 62.9549 16.4174 62.7241 15.7786C62.6166 15.4721 62.5251 15.2169 62.4555 15.0192C62.4183 14.927 62.3896 14.8317 62.3699 14.7344C62.418 14.8207 62.4592 14.9107 62.4933 15.0034C62.5709 15.2011 62.6704 15.4503 62.7917 15.7509C63.0405 16.3838 63.3768 17.2619 63.7429 18.233L63.9279 18.7255L64.0473 19.0439L63.8483 18.7789C63.7854 18.7012 63.7057 18.6384 63.6151 18.5953C63.5246 18.5522 63.4254 18.5298 63.325 18.5297C63.1363 18.5296 62.9536 18.5962 62.8097 18.7176C62.5621 18.9391 62.399 19.2388 62.348 19.566C62.3275 19.7913 62.3315 20.018 62.36 20.2424C62.3729 20.3255 62.3749 20.41 62.3659 20.4936Z" fill="#263238"/>
<path d="M65.8881 21.0039C65.916 21.0039 66.3597 23.8875 66.883 27.4514C67.4063 31.0153 67.8003 33.9088 67.7725 33.9128C67.7446 33.9167 67.3009 31.0312 66.7776 27.4653C66.2542 23.8993 65.8603 21.0079 65.8881 21.0039Z" fill="#263238"/>
<g opacity="0.3">
<path opacity="0.3" d="M54.9219 18.5312C54.9484 19.3323 55.1238 20.1215 55.4392 20.8591C55.6641 20.5822 55.9148 20.2895 56.259 20.2064C56.6868 20.1055 57.1206 20.3686 57.429 20.687C57.3753 20.3662 57.2472 20.0622 57.055 19.799C56.9604 19.6696 56.8371 19.5637 56.6945 19.4896C56.5519 19.4155 56.394 19.3752 56.2332 19.3718C56.0715 19.3752 55.9157 19.4321 55.7902 19.5335C55.6648 19.6348 55.577 19.7749 55.5407 19.9315L54.9438 18.5471" fill="black"/>
</g>
<path d="M52.8167 19.7793C52.7968 19.7793 52.8027 19.5637 52.7411 19.2275C52.6568 18.7893 52.4849 18.3723 52.2356 18.0013C52.0982 17.7986 51.9394 17.6109 51.7621 17.4416C51.6161 17.3037 51.4568 17.1804 51.2865 17.0737C50.996 16.8898 50.791 16.8206 50.797 16.8008C50.8484 16.8042 50.8989 16.8162 50.9462 16.8364C51.0035 16.8539 51.0594 16.8758 51.1134 16.9016C51.1867 16.9325 51.2578 16.9682 51.3263 17.0084C51.5068 17.1099 51.6756 17.2306 51.8297 17.3684C52.017 17.5401 52.1839 17.7326 52.3272 17.9419C52.5843 18.3247 52.7516 18.76 52.8167 19.2156C52.8366 19.3525 52.8433 19.4909 52.8366 19.629C52.8306 19.7259 52.8246 19.7793 52.8167 19.7793Z" fill="#263238"/>
<g opacity="0.3">
<path opacity="0.3" d="M66.0703 22.2852L67.4015 31.6083L67.4672 31.7567C67.7808 28.5336 67.3014 25.2831 66.0703 22.2852Z" fill="black"/>
</g>
<path d="M73.4548 27.6418L69.1269 35.1573L58.4595 35.3887L58.4336 35.8673L68.7608 35.7922L69.0891 35.7803L79.9953 35.8021L82.2 32.0245L85.0156 28.0136C85.0577 27.9542 85.0824 27.8844 85.0872 27.8119C85.0919 27.7394 85.0765 27.667 85.0426 27.6026C85.0087 27.5383 84.9576 27.4845 84.8949 27.4471C84.8322 27.4097 84.7604 27.3901 84.6873 27.3906L73.799 27.4322C73.728 27.4334 73.6587 27.4535 73.5982 27.4904C73.5376 27.5272 73.4881 27.5795 73.4548 27.6418Z" fill="#E0E0E0"/>
<path d="M82.2046 32.0391C82.2046 32.0391 82.7638 32.5493 82.6762 32.9825C82.5887 33.4156 82.6165 33.7399 82.2046 33.7736C82.2106 33.9317 82.156 34.0861 82.0518 34.2058C81.9477 34.3254 81.8018 34.4014 81.6435 34.4183C81.6435 34.4183 81.7708 35.0987 80.9729 35.2094C80.9729 35.2094 80.7302 35.9372 80.2267 35.7612C79.939 35.6626 79.6622 35.5347 79.401 35.3795L79.2537 35.1145C79.2537 35.1145 78.5155 34.8396 78.6966 34.4242C78.808 34.1731 79.19 34.1078 79.19 34.1078C79.1462 34.0042 79.1277 33.8918 79.136 33.7797C79.1443 33.6677 79.1792 33.5591 79.2378 33.463C79.4149 33.2257 79.9919 33.4215 79.9919 33.4215C79.9796 33.2184 80.0442 33.018 80.173 32.8598C80.372 32.6284 81.2893 33.2554 81.2893 33.2554L81.7888 32.6621L82.2046 32.0391Z" fill="#C78976"/>
<path d="M80.9704 35.209C80.6472 35.0722 80.3391 34.9025 80.0511 34.7027C79.743 34.5356 79.4536 34.3368 79.1875 34.1094C79.822 34.4126 80.4223 34.7818 80.9783 35.211L80.9704 35.209Z" fill="#8B5D54"/>
<path d="M81.6418 34.4127C81.3417 34.2942 81.0555 34.1437 80.7881 33.9638C80.5036 33.8127 80.2367 33.631 79.9922 33.4219C80.2925 33.5399 80.5787 33.6904 80.8458 33.8708C81.1308 34.0211 81.3978 34.2028 81.6418 34.4127Z" fill="#8B5D54"/>
<path d="M80.7305 32.9173C80.7484 32.8876 81.0906 33.0656 81.4886 33.3128C81.736 33.4542 81.974 33.6115 82.2009 33.7836C82.185 33.8172 81.8288 33.657 81.4309 33.4038C81.1814 33.2657 80.9467 33.1027 80.7305 32.9173Z" fill="#8B5D54"/>
<path d="M85.0176 27.6899C85.0004 27.6926 84.983 27.6926 84.9658 27.6899H84.8126H84.2157L82.0508 27.7077L74.9053 27.7235H74.384C74.3069 27.7153 74.229 27.7283 74.1588 27.7611C74.0887 27.7939 74.0289 27.8452 73.986 27.9094C73.8209 28.2021 73.6597 28.4928 73.5005 28.7776L72.5812 30.4271L71.0192 33.2177C70.5735 34.0088 70.2133 34.6437 69.9586 35.0946L69.6641 35.6009L69.5865 35.7315C69.5776 35.7471 69.5669 35.7617 69.5547 35.775C69.5605 35.7579 69.5678 35.7413 69.5766 35.7255C69.5945 35.6899 69.6164 35.6464 69.6462 35.591C69.7119 35.4645 69.8054 35.2924 69.9208 35.0729L70.9535 33.1801C71.3933 32.389 71.9146 31.4318 72.4956 30.3796C72.7862 29.8516 73.0926 29.2998 73.409 28.7262L73.8965 27.8501C73.9493 27.7717 74.022 27.7087 74.1073 27.6673C74.1926 27.626 74.2874 27.6078 74.382 27.6147H74.9033L82.0488 27.6305L84.2137 27.6483H84.8106H84.9639L85.0176 27.6899Z" fill="#263238"/>
<path d="M77.3424 31.4691C77.2925 31.5414 77.2646 31.6264 77.2619 31.7141C77.2593 31.8017 77.2821 31.8883 77.3276 31.9634C77.3731 32.0385 77.4394 32.099 77.5186 32.1377C77.5978 32.1764 77.6865 32.1916 77.7742 32.1815C77.8618 32.1715 77.9447 32.1365 78.0129 32.0809C78.0811 32.0253 78.1318 31.9514 78.1589 31.8679C78.1859 31.7844 78.1883 31.695 78.1656 31.6103C78.1429 31.5255 78.0962 31.449 78.0309 31.39C77.9289 31.3101 77.7993 31.2736 77.6703 31.2884C77.5413 31.3032 77.4234 31.3682 77.3424 31.4691Z" fill="white"/>
<path d="M61.6361 15.0288L61.5764 13.322C61.5764 13.322 63.8568 12.8255 63.7433 10.5353C63.6896 9.42775 63.3892 7.15926 63.0947 5.11029C62.9399 4.04858 62.389 3.08354 61.5515 2.40682C60.714 1.73009 59.6511 1.39118 58.5738 1.45737L58.3529 1.47121C55.9651 1.75601 54.8767 3.93155 55.2289 6.29497L55.788 15.3017C55.8352 16.0557 56.1755 16.762 56.7369 17.2713C57.2983 17.7806 58.0369 18.053 58.7966 18.031C59.1814 18.0193 59.5601 17.9323 59.9111 17.775C60.262 17.6177 60.5784 17.3933 60.8421 17.1145C61.1058 16.8357 61.3116 16.508 61.4478 16.1502C61.5841 15.7923 61.6481 15.4112 61.6361 15.0288Z" fill="#C78976"/>
<path d="M61.5758 13.3251C60.5123 13.3879 59.453 13.1463 58.5234 12.6289C58.5234 12.6289 59.3015 14.2507 61.5878 13.9046L61.5758 13.3251Z" fill="#8B5D54"/>
<path d="M62.8013 7.25942C62.8075 7.34464 62.7799 7.42889 62.7246 7.49425C62.6692 7.55962 62.5904 7.60096 62.5049 7.60949C62.4632 7.6153 62.4208 7.61275 62.3802 7.60199C62.3396 7.59123 62.3015 7.57248 62.2683 7.54685C62.2351 7.52122 62.2074 7.48922 62.1869 7.45276C62.1663 7.4163 62.1533 7.37611 62.1487 7.33458C62.1453 7.25007 62.1749 7.16753 62.2312 7.10415C62.2876 7.04078 62.3664 7.00146 62.4511 6.9944C62.5327 6.98474 62.6149 7.00699 62.6802 7.05645C62.7456 7.10591 62.789 7.1787 62.8013 7.25942Z" fill="#263238"/>
<path d="M62.6661 6.25917C62.6283 6.30465 62.3676 6.13655 62.0134 6.1583C61.6592 6.18006 61.4165 6.37388 61.3707 6.33234C61.325 6.29081 61.3866 6.23543 61.4961 6.14643C61.6416 6.0322 61.8189 5.96523 62.004 5.95462C62.1891 5.944 62.373 5.99026 62.5308 6.0871C62.6442 6.16424 62.686 6.23939 62.6661 6.25917Z" fill="#263238"/>
<path d="M59.3547 7.4027C59.3603 7.4879 59.3322 7.57191 59.2765 7.6369C59.2208 7.70188 59.1418 7.74273 59.0563 7.75078C59.0147 7.75688 58.9724 7.7546 58.9318 7.74408C58.8911 7.73355 58.8531 7.715 58.8198 7.68952C58.7866 7.66405 58.7588 7.63218 58.7383 7.59581C58.7177 7.55944 58.7047 7.51932 58.7001 7.47785C58.6939 7.39263 58.7215 7.30839 58.7768 7.24303C58.8322 7.17766 58.911 7.13632 58.9966 7.12779C59.0383 7.12225 59.0807 7.12498 59.1213 7.13582C59.162 7.14667 59.2 7.16542 59.2334 7.19098C59.2667 7.21655 59.2945 7.24842 59.3154 7.28476C59.3362 7.3211 59.3496 7.36119 59.3547 7.4027Z" fill="#263238"/>
<path d="M59.1934 6.53881C59.1556 6.5843 58.895 6.41619 58.5408 6.43795C58.1866 6.4597 57.9438 6.65352 57.8981 6.61199C57.8523 6.57046 57.914 6.51508 58.0234 6.42608C58.1687 6.30824 58.3476 6.23902 58.5348 6.22831C58.7183 6.21672 58.9008 6.2631 59.0561 6.36082C59.1715 6.44388 59.2193 6.51904 59.1934 6.53881Z" fill="#263238"/>
<path d="M60.6422 9.066C60.8246 8.99645 61.0152 8.94994 61.2093 8.92755C61.3008 8.91371 61.3844 8.88998 61.3963 8.82866C61.3972 8.73529 61.3702 8.64376 61.3187 8.56562L61.0123 7.89714C60.5805 6.94583 60.2621 6.16264 60.2999 6.14484C60.3377 6.12704 60.7198 6.8865 61.1516 7.83583C61.2551 8.07118 61.3506 8.29467 61.4501 8.50827C61.5135 8.61339 61.5381 8.73715 61.5197 8.85833C61.5085 8.8909 61.49 8.92049 61.4655 8.94483C61.441 8.96917 61.4112 8.98762 61.3784 8.99875C61.3295 9.01548 61.2787 9.02611 61.2272 9.0304C61.0344 9.0661 60.8379 9.07805 60.6422 9.066Z" fill="#263238"/>
<path d="M59.6159 9.36719C59.6736 9.36719 59.6975 9.74296 60.0438 9.99414C60.39 10.2453 60.7959 10.1781 60.8019 10.2315C60.8019 10.2552 60.7143 10.3106 60.5432 10.3264C60.3181 10.3428 60.0943 10.2805 59.9104 10.1504C59.7348 10.0236 59.6151 9.83452 59.5761 9.62232C59.5483 9.47003 59.5861 9.36719 59.6159 9.36719Z" fill="#263238"/>
<path d="M59.2006 5.15873C59.1727 5.25762 58.8166 5.23389 58.4047 5.30904C57.9928 5.3842 57.6625 5.50682 57.6087 5.43364C57.5809 5.39409 57.6346 5.30113 57.7639 5.20027C57.9364 5.07322 58.137 4.98913 58.3489 4.95502C58.5597 4.91731 58.7765 4.9295 58.9817 4.99062C59.1309 5.04204 59.2205 5.11324 59.2006 5.15873Z" fill="#263238"/>
<path d="M62.4735 5.25111C62.4157 5.33615 62.167 5.26693 61.8765 5.28078C61.586 5.29462 61.3373 5.3678 61.2796 5.28078C61.2517 5.24122 61.2796 5.15815 61.391 5.083C61.5292 4.98084 61.6964 4.92476 61.8686 4.9228C62.0408 4.91466 62.2113 4.9603 62.3561 5.05333C62.4595 5.13047 62.4993 5.21749 62.4735 5.25111Z" fill="#263238"/>
<path d="M62.8001 4.07373C62.8001 4.07373 62.1037 2.67743 61.3874 2.38472C60.5218 2.0307 60.2154 2.97805 59.3975 2.79807C58.5797 2.61809 57.7539 2.28583 56.9719 2.95234C56.1163 3.68213 56.574 4.12911 56.574 5.14765C56.6038 9.27921 55.9193 10.4876 55.5791 8.56326C55.5413 8.35163 54.9383 8.21912 54.7951 7.32715C54.608 6.17016 54.4747 4.75606 54.6856 3.91748C54.8627 3.20747 55.2328 2.70314 55.9153 2.1375C56.9938 1.23168 58.5459 1.11895 59.6085 1.14861C60.671 1.17828 62.8001 2.27198 62.8001 4.07373Z" fill="#263238"/>
<path d="M55.7351 8.49364C55.7273 8.40984 55.7025 8.3285 55.6621 8.25454C55.6217 8.18058 55.5667 8.11554 55.5002 8.06338C55.4338 8.01123 55.3574 7.97303 55.2756 7.95112C55.1939 7.9292 55.1085 7.92403 55.0247 7.93591C54.5969 8.00315 54.1333 8.2741 54.2169 9.15618C54.3641 10.7166 55.9122 10.2479 55.9102 10.2024C55.9082 10.1569 55.8027 9.1463 55.7351 8.49364Z" fill="#C78976"/>
<path d="M55.5135 9.64675C55.5135 9.64675 55.4876 9.6685 55.4438 9.69422C55.383 9.72695 55.3118 9.73544 55.2449 9.71795C55.0718 9.67246 54.9086 9.42326 54.8728 9.14242C54.8567 9.00913 54.871 8.87394 54.9146 8.74687C54.9246 8.69666 54.9466 8.6496 54.9788 8.60966C55.0111 8.56972 55.0525 8.53809 55.0996 8.51745C55.1304 8.50673 55.1639 8.50677 55.1947 8.51756C55.2254 8.52835 55.2516 8.54924 55.2687 8.57679C55.2926 8.6203 55.2866 8.65194 55.2946 8.65392C55.3026 8.6559 55.3264 8.62425 55.3085 8.56096C55.2946 8.5235 55.2697 8.4911 55.2369 8.46801C55.1904 8.44006 55.1348 8.43086 55.0817 8.4423C55.0183 8.46089 54.9609 8.49541 54.9149 8.54253C54.8689 8.58965 54.8359 8.64777 54.8191 8.71127C54.7643 8.85289 54.7459 9.0058 54.7653 9.15627C54.8051 9.46875 54.9942 9.74959 55.227 9.7931C55.2704 9.80118 55.3151 9.79951 55.3578 9.78822C55.4004 9.77693 55.4401 9.7563 55.4737 9.72784C55.5155 9.6863 55.5195 9.64873 55.5135 9.64675Z" fill="#8B5D54"/>
<path d="M55.5801 5.46C55.7822 5.60417 56.0177 5.69532 56.2646 5.72502C56.3887 5.73665 56.5127 5.70288 56.6135 5.63005C56.7142 5.55722 56.7848 5.45033 56.8118 5.32947C56.8238 5.22069 56.7899 5.09411 56.8556 5.00709C56.9213 4.92007 57.0964 4.92205 57.2297 4.92798C57.4602 4.93094 57.6848 4.85518 57.8659 4.71335C58.047 4.57152 58.1736 4.37222 58.2246 4.14874C58.3001 4.22182 58.4004 4.26417 58.5057 4.26746C58.611 4.27076 58.7137 4.23476 58.7937 4.16654C58.9484 4.02494 59.0823 3.8625 59.1917 3.68397C59.2477 3.59528 59.3246 3.52154 59.4158 3.46915C59.507 3.41676 59.6097 3.3873 59.715 3.38335C59.8288 3.41365 59.9455 3.43156 60.0632 3.43675C60.2622 3.4051 60.3537 3.15986 60.3736 2.95417C60.3935 2.74849 60.4015 2.5072 60.5726 2.38656C60.7437 2.26591 60.9427 2.31931 61.1357 2.33711C61.3287 2.35491 61.5715 2.2936 61.6073 2.10571C61.6126 2.05545 61.6075 2.00465 61.5925 1.95638C61.5774 1.90811 61.5527 1.86337 61.5197 1.82487C61.3799 1.64358 61.1826 1.5145 60.9598 1.45851C60.737 1.40252 60.5017 1.42289 60.292 1.51634C60.1952 1.2638 60.0261 1.04495 59.8056 0.886797C59.5851 0.728641 59.3228 0.638091 59.0512 0.626315C58.7795 0.614539 58.5103 0.682052 58.2768 0.820527C58.0433 0.959002 57.8557 1.16238 57.7371 1.40559C57.5607 1.26492 57.3527 1.16874 57.1308 1.12522C56.9089 1.08171 56.6798 1.09216 56.4628 1.15568C56.2459 1.2192 56.0476 1.33391 55.8849 1.49003C55.7222 1.64615 55.5999 1.83906 55.5284 2.05231C55.3324 2.01383 55.1293 2.03349 54.9444 2.10885C54.7596 2.1842 54.6011 2.31193 54.4887 2.47613C54.3763 2.64033 54.3149 2.83375 54.3123 3.03234C54.3097 3.23092 54.3658 3.42589 54.4738 3.59299C54.3324 3.6735 54.2137 3.78824 54.1288 3.92655C54.0439 4.06486 53.9956 4.22225 53.9883 4.3841C54.0042 4.70845 54.3405 5.01302 54.6509 4.9082C54.6174 4.97391 54.5973 5.04553 54.5917 5.11896C54.5861 5.19239 54.5951 5.2662 54.6182 5.33617C54.6413 5.40614 54.6781 5.4709 54.7264 5.52676C54.7746 5.58262 54.8335 5.62849 54.8996 5.66173C54.9657 5.69497 55.0378 5.71495 55.1117 5.72052C55.1855 5.72609 55.2598 5.71714 55.3302 5.69418C55.4006 5.67122 55.4657 5.63471 55.5219 5.58672C55.5781 5.53874 55.6243 5.48022 55.6577 5.41451" fill="#263238"/>
<path d="M60.4385 1.96875C60.4385 1.96875 60.4385 1.96875 60.4385 1.99644C60.4401 2.02476 60.4401 2.05316 60.4385 2.08148C60.4233 2.18871 60.3911 2.29286 60.3429 2.39001C60.2662 2.54505 60.1546 2.68041 60.0166 2.78557C59.8347 2.92566 59.612 3.00338 59.3819 3.00708L59.4057 2.97148C59.4348 3.04002 59.4498 3.11366 59.4498 3.18804C59.4498 3.26243 59.4348 3.33606 59.4057 3.40461C59.3442 3.5477 59.2617 3.68099 59.161 3.80016C59.1132 3.87178 59.0579 3.93809 58.9958 3.99794C58.9246 4.05381 58.8405 4.09119 58.7511 4.10671C58.6591 4.12558 58.5638 4.12174 58.4736 4.09554C58.3834 4.06933 58.3011 4.02156 58.2337 3.9564L58.2915 3.93663C58.2792 4.10034 58.2329 4.25975 58.1555 4.40477C58.0781 4.54979 57.9713 4.67727 57.8418 4.77915C57.6986 4.89791 57.5206 4.96731 57.3344 4.97693C57.1587 4.97911 56.9839 4.95238 56.817 4.89782L56.8588 4.87606C56.7889 5.07052 56.6713 5.24456 56.5165 5.38237C56.4457 5.45029 56.3606 5.50181 56.2674 5.53327C56.1742 5.56472 56.0751 5.57533 55.9773 5.56433C55.8096 5.53873 55.653 5.46503 55.5268 5.35225C55.4006 5.23947 55.3103 5.09253 55.2669 4.92946L55.3047 4.94529C55.144 5.04306 54.9541 5.08221 54.7675 5.05604C54.6249 5.04142 54.4881 4.99181 54.3695 4.91166C54.2974 4.8626 54.2342 4.80175 54.1825 4.73169C54.1506 4.68224 54.1367 4.65455 54.1367 4.65455C54.205 4.74696 54.2892 4.82664 54.3854 4.88991C54.499 4.96126 54.6278 5.00528 54.7615 5.01846C54.9383 5.03994 55.1171 4.99936 55.2669 4.90375L55.2968 4.88595V4.91957C55.3382 5.0727 55.4237 5.21045 55.5428 5.31587C55.662 5.4213 55.8095 5.48978 55.9673 5.5129C56.0566 5.52296 56.1469 5.5129 56.2316 5.48345C56.3164 5.454 56.3934 5.40593 56.4568 5.34282C56.6022 5.21161 56.7123 5.04642 56.7772 4.86222L56.7891 4.83255H56.819C56.9779 4.88586 57.1448 4.91194 57.3125 4.90969C57.4845 4.89966 57.6486 4.83442 57.7801 4.72378C57.9026 4.62873 58.0038 4.50925 58.0772 4.373C58.1505 4.23675 58.1944 4.08676 58.2059 3.93267V3.85949L58.2576 3.91289C58.348 3.99625 58.4647 4.04578 58.5878 4.053C58.7108 4.06021 58.8326 4.02467 58.9322 3.95245C58.99 3.89792 59.042 3.83761 59.0874 3.77247C59.1866 3.65736 59.2678 3.528 59.3281 3.38879C59.356 3.32677 59.3712 3.25989 59.3729 3.192C59.3746 3.12411 59.3628 3.05655 59.3381 2.99323L59.3242 2.95763H59.362C59.581 2.95807 59.7944 2.88876 59.9709 2.75986C60.1054 2.66141 60.2162 2.53439 60.2952 2.38804C60.3684 2.25818 60.417 2.11606 60.4385 1.96875Z" fill="#455A64"/>
<path d="M61.224 7.53651C61.1803 7.4173 61.1457 7.29499 61.1205 7.17062C61.0625 6.83213 61.12 6.48409 61.2837 6.18174C61.3966 5.97278 61.5575 5.79322 61.7533 5.65763C61.9773 5.50169 62.2389 5.40752 62.5114 5.3847C62.6586 5.37234 62.8068 5.38167 62.9512 5.41239C63.1015 5.44272 63.2459 5.4968 63.379 5.57259C63.6632 5.72929 63.8898 5.97198 64.0257 6.2654C64.1617 6.55883 64.2 6.8877 64.1351 7.20424C64.1052 7.35414 64.0515 7.49834 63.9759 7.63144C63.9074 7.76051 63.8187 7.87799 63.7133 7.97953C63.5183 8.17066 63.276 8.30712 63.0109 8.37508C62.7793 8.43212 62.5378 8.43618 62.3045 8.38695C61.9642 8.31304 61.6587 8.12779 61.4369 7.86086C61.3585 7.76052 61.2873 7.65478 61.224 7.54442C61.2351 7.57565 61.2484 7.60605 61.2638 7.6354C61.2805 7.67205 61.3005 7.70713 61.3235 7.74022C61.3511 7.78741 61.3823 7.83238 61.417 7.87471C61.6032 8.11 61.8538 8.28686 62.1386 8.38404C62.4235 8.48122 62.7305 8.4946 63.0228 8.42255C63.2972 8.35735 63.5492 8.22084 63.7531 8.02699C63.863 7.92126 63.9556 7.79915 64.0277 7.66506C64.1072 7.52759 64.163 7.37785 64.1928 7.22204C64.2601 6.89311 64.2205 6.55142 64.0795 6.24637C63.9386 5.94133 63.7037 5.68874 63.4088 5.52512C63.2696 5.44792 63.1193 5.39255 62.9631 5.36097C62.8135 5.32894 62.6597 5.32027 62.5074 5.33526C62.2436 5.35723 61.9897 5.44507 61.7691 5.59063C61.5486 5.73619 61.3686 5.93475 61.2459 6.16789C61.0792 6.4815 61.0265 6.84265 61.0967 7.1904C61.1068 7.24471 61.1207 7.29825 61.1384 7.3506C61.1489 7.38937 61.1628 7.42711 61.1802 7.46333C61.1928 7.48885 61.2075 7.51332 61.224 7.53651Z" fill="#263238"/>
<path d="M57.1663 7.77698C57.1253 7.65692 57.0908 7.53479 57.0628 7.4111C57.0065 7.07239 57.0646 6.72467 57.228 6.42221C57.3402 6.21339 57.5004 6.03382 57.6956 5.89811C57.9186 5.73702 58.1812 5.63863 58.4557 5.61331C58.6022 5.59996 58.7499 5.6093 58.8935 5.641C59.0443 5.67164 59.1894 5.7257 59.3233 5.8012C59.6074 5.95738 59.8339 6.19977 59.9695 6.49297C60.1052 6.78617 60.143 7.11481 60.0774 7.43087C60.0183 7.7261 59.8713 7.99688 59.6556 8.20813C59.4742 8.38774 59.2503 8.51918 59.0045 8.59036C58.7587 8.66155 58.4988 8.67021 58.2488 8.61555C57.9073 8.54322 57.6007 8.35772 57.3792 8.08947C57.3012 7.98956 57.23 7.88449 57.1663 7.775C57.1776 7.80644 57.1916 7.83688 57.2081 7.86598C57.224 7.90264 57.2433 7.93773 57.2658 7.9708C57.2941 8.01799 57.3261 8.06295 57.3613 8.10529C57.5811 8.38464 57.891 8.58021 58.2388 8.65906C58.4968 8.71793 58.7656 8.71109 59.0202 8.63918C59.2748 8.56726 59.5071 8.43261 59.6954 8.24769C59.8058 8.14274 59.8992 8.02129 59.972 7.88774C60.0498 7.74878 60.1055 7.59867 60.1371 7.44274C60.2049 7.11274 60.1641 6.76983 60.0207 6.46463C59.8774 6.15944 59.6392 5.90813 59.3412 5.7478C59.2024 5.66976 59.0519 5.61434 58.8955 5.58364C58.7458 5.55159 58.5921 5.54291 58.4398 5.55793C58.1574 5.58245 57.8868 5.68145 57.6558 5.84471C57.4557 5.98686 57.2921 6.17387 57.1783 6.39057C57.0119 6.70431 56.9599 7.06556 57.031 7.41307C57.0401 7.46695 57.0541 7.51991 57.0728 7.5713C57.0829 7.6108 57.0969 7.64922 57.1146 7.68601C57.1295 7.7176 57.1468 7.74801 57.1663 7.77698Z" fill="#263238"/>
<path d="M60.1295 6.79972C60.275 6.71731 60.4379 6.66992 60.6051 6.66133C60.7724 6.65275 60.9393 6.68321 61.0926 6.75027C61.0926 6.75027 61.0528 6.70478 60.9652 6.66522C60.8509 6.61499 60.7263 6.59222 60.6015 6.59875C60.4768 6.60528 60.3553 6.64093 60.2469 6.7028C60.1633 6.74236 60.1235 6.78588 60.1295 6.79972Z" fill="#263238"/>
<path d="M55.5938 8.08145C55.8468 7.98744 56.0917 7.87301 56.326 7.7393C56.5709 7.62597 56.8064 7.49371 57.0304 7.34375C56.7778 7.43877 56.5329 7.55316 56.2981 7.6859C56.0541 7.80069 55.8186 7.93289 55.5938 8.08145Z" fill="#263238"/>
</svg>
