<svg width="80" height="80" viewBox="0 0 80 80" fill="none" xmlns="http://www.w3.org/2000/svg">
<path d="M57.5723 39.8202C57.4475 39.9135 57.308 39.9854 57.1595 40.033C56.7512 40.174 56.3065 40.1684 55.9019 40.017C55.6216 39.9146 55.3694 39.7474 55.1659 39.529C54.9319 39.2767 54.77 38.9661 54.6971 38.6298C54.6561 38.4488 54.6431 38.2627 54.6587 38.0778C54.6721 37.8844 54.7159 37.6943 54.7883 37.5146C54.9393 37.1329 55.2086 36.8097 55.5568 36.5922C55.9049 36.3748 56.3135 36.2747 56.7227 36.3066C57.1031 36.3365 57.4662 36.4785 57.7659 36.7146C58.036 36.9278 58.2437 37.2096 58.3675 37.5306C58.4749 37.809 58.5149 38.1089 58.4843 38.4058C58.4416 38.8359 58.251 39.2379 57.9451 39.5434C57.837 39.6556 57.7111 39.7492 57.5723 39.8202C57.6927 39.7261 57.8076 39.6251 57.9163 39.5178C58.2019 39.2105 58.3755 38.8159 58.4091 38.3978C58.4343 38.1136 58.392 37.8274 58.2859 37.5626C58.1647 37.2587 57.9648 36.9925 57.7067 36.7914C57.5684 36.6829 57.4147 36.5955 57.2507 36.5322C57.0803 36.4636 56.8998 36.423 56.7163 36.4122C56.3298 36.3829 55.9439 36.4777 55.615 36.6829C55.2861 36.8881 55.0312 37.1929 54.8875 37.553C54.8182 37.7229 54.7761 37.9027 54.7627 38.0858C54.7466 38.2608 54.7574 38.4372 54.7947 38.609C54.8576 38.9087 54.9942 39.1881 55.1923 39.4216C55.3904 39.6552 55.6437 39.8356 55.9291 39.9466C56.3189 40.0982 56.7482 40.1146 57.1483 39.993C57.4363 39.905 57.5659 39.809 57.5723 39.8202Z" fill="#E0E0E0"/>
<path d="M57.9201 42.3085L57.9681 42.3517L58.1121 42.4909L58.6753 43.0461H58.6545L60.1329 42.1101L60.1217 42.1421C60.0145 41.8413 59.8961 41.5021 59.7697 41.1453V41.1277L59.7825 41.1133C60.0415 40.8366 60.2617 40.526 60.4369 40.1901L60.4465 40.1709H61.5265L61.4881 40.1997C61.6113 39.6637 61.7425 39.0925 61.8785 38.4941L61.9009 38.5421L60.9489 38.0845L60.9249 38.0733V38.0461C60.9127 37.6661 60.8497 37.2894 60.7377 36.9261L60.7297 36.8989L60.7489 36.8797C60.9825 36.6493 61.2385 36.3997 61.4993 36.1341V36.1949L60.5521 34.7181L60.6113 34.7389L59.6145 35.0877L59.5841 35.0973L59.5617 35.0765C59.2863 34.8188 58.978 34.5988 58.6449 34.4221L58.6161 34.4077V34.3757C58.6161 34.0445 58.6161 33.6845 58.6161 33.3181L58.6577 33.3709L56.9601 32.9789L57.0209 32.9501L56.5601 33.9101L56.5473 33.9389H56.5137C56.1376 33.951 55.7648 34.0128 55.4049 34.1229L55.3505 34.1085L55.3393 34.0973L55.3153 34.0733L55.2689 34.0253L55.1761 33.9309L54.9889 33.7437L54.6177 33.3693L54.6849 33.3773L53.2001 34.3037L53.2225 34.2397C53.3388 34.5757 53.4545 34.9085 53.5697 35.2381L53.5809 35.2685L53.5585 35.2925C53.2998 35.567 53.0797 35.8754 52.9041 36.2093L52.8881 36.2365H52.8577H51.8001L51.8497 36.1965C51.7153 36.7767 51.5836 37.3447 51.4545 37.9005L51.4273 37.8445L52.3793 38.3053L52.4049 38.3181V38.3469C52.4153 38.7268 52.4772 39.1036 52.5889 39.4669L52.5969 39.4941L52.5761 39.5133L51.8241 40.2557V40.1997L52.7473 41.6861L52.6993 41.6701L53.6977 41.3245L53.7201 41.3165L53.7377 41.3325C54.0135 41.5917 54.3223 41.8134 54.6561 41.9917L54.6753 42.0013V42.0237C54.6753 42.4077 54.6753 42.7533 54.6673 43.0797L54.6417 43.0493L56.3441 43.4509L56.3169 43.4637L56.7841 42.5149V42.5053H56.7937C57.0802 42.4972 57.3652 42.4619 57.6449 42.3997L57.8513 42.3501L57.9201 42.3357L57.8529 42.3597C57.8081 42.3741 57.7409 42.3949 57.6481 42.4173C57.3689 42.4876 57.0831 42.5289 56.7953 42.5405L56.8097 42.5293L56.3569 43.4893L56.3473 43.5069H56.3297L54.6225 43.1213H54.5985V43.0957C54.5985 42.7757 54.5985 42.4221 54.5985 42.0381L54.6161 42.0701C54.2753 41.891 53.96 41.6671 53.6785 41.4045L53.7169 41.4125L52.7201 41.7629L52.6897 41.7741L52.6721 41.7469L51.7425 40.2637L51.7233 40.2333L51.7489 40.2077L52.4977 39.4637L52.4865 39.5101C52.3724 39.1411 52.3083 38.7585 52.2961 38.3725L52.3233 38.4141L51.3633 37.9565L51.3281 37.9389L51.3361 37.9005L51.7345 36.1581L51.7425 36.1181H51.7841H52.8417L52.7953 36.1453C52.976 35.8033 53.2014 35.4869 53.4657 35.2045L53.4545 35.2589C53.3393 34.9293 53.2231 34.5965 53.1057 34.2605L53.0913 34.2205L53.1281 34.1981L54.6113 33.2717L54.6481 33.2477L54.6785 33.2781L55.0497 33.6525L55.2353 33.8413L55.3297 33.9357L55.3761 33.9837L55.4001 34.0061L55.4113 34.0189C55.3025 33.9917 55.3809 34.0109 55.3569 34.0045C55.7261 33.8914 56.1086 33.8279 56.4945 33.8157L56.4481 33.8461L56.9089 32.8861L56.9265 32.8477L56.9681 32.8573L58.6721 33.2509L58.7137 33.2605V33.3037C58.7137 33.6685 58.7137 34.0301 58.7137 34.3613L58.6865 34.3149C59.028 34.4956 59.3438 34.721 59.6257 34.9853L59.5745 34.9741L60.5729 34.6285L60.6097 34.6141L60.6321 34.6493L61.5569 36.1341L61.5761 36.1661L61.5489 36.1933C61.2881 36.4525 61.0305 36.7053 60.7969 36.9357L60.8097 36.8893C60.9219 37.2586 60.9848 37.6411 60.9969 38.0269L60.9713 37.9885L61.9233 38.4509L61.9537 38.4653L61.9457 38.4973C61.8065 39.0957 61.6721 39.6653 61.5473 40.2013V40.2317H61.5169H60.4593L60.4897 40.2125C60.309 40.552 60.0836 40.8658 59.8193 41.1453V41.1133C59.9441 41.4733 60.0593 41.8109 60.1633 42.1133L60.1713 42.1341L60.1521 42.1453L58.6625 43.0637H58.6513L58.6417 43.0541L58.0961 42.4909L57.9569 42.3437C57.9438 42.3328 57.9315 42.3211 57.9201 42.3085Z" fill="#E0E0E0"/>
<path fill-rule="evenodd" clip-rule="evenodd" d="M61.3993 29.6493C60.8833 29.8083 60.3485 29.8976 59.8089 29.9149L59.1577 31.2605L56.7481 30.7037V29.2077C56.2702 28.956 55.8284 28.6412 55.4345 28.2717L54.0233 28.7645L52.7145 26.6653L53.7753 25.6141C53.6167 25.0976 53.5279 24.5622 53.5113 24.0221L52.1641 23.3725L52.7289 20.9581H54.2233C54.476 20.4805 54.7913 20.0388 55.1609 19.6445L54.6681 18.2381L56.7673 16.9293L57.8185 17.9901C58.3344 17.8315 58.8693 17.7427 59.4089 17.7261L60.0601 16.3789L62.4697 16.9373V18.4317C62.9466 18.6841 63.3878 18.9989 63.7817 19.3677L65.1929 18.8765L66.5033 20.9741L65.4393 22.0333C65.5991 22.549 65.6885 23.084 65.7049 23.6237L67.0505 24.2749L66.4937 26.6845H64.9993C64.7464 27.1615 64.4311 27.6027 64.0617 27.9965L64.5545 29.4077L62.4505 30.7181L61.3993 29.6557V29.6493ZM60.9193 26.1293C61.3646 25.8513 61.7175 25.4475 61.9333 24.9689C62.1491 24.4904 62.2182 23.9586 62.1318 23.4408C62.0454 22.923 61.8074 22.4424 61.4479 22.0599C61.0883 21.6773 60.6235 21.41 60.112 21.2916C59.6006 21.1732 59.0655 21.2092 58.5745 21.3949C58.0835 21.5807 57.6585 21.9078 57.3535 22.335C57.0484 22.7622 56.8768 23.2703 56.8605 23.795C56.8441 24.3198 56.9837 24.8375 57.2617 25.2829C57.4458 25.5791 57.6866 25.836 57.9701 26.0391C58.2536 26.2422 58.5744 26.3874 58.9141 26.4664C59.2538 26.5455 59.6057 26.5568 59.9497 26.4998C60.2938 26.4428 60.6232 26.3185 60.9193 26.1341V26.1293Z" fill="#E0E0E0"/>
<path fill-rule="evenodd" clip-rule="evenodd" d="M67.0745 37.6219C66.7997 37.7058 66.5152 37.7532 66.2281 37.7627L65.8825 38.4779L64.6025 38.1819V37.3819C64.3485 37.2476 64.1134 37.0803 63.9033 36.8843L63.1529 37.1451L62.4569 36.0251L63.0217 35.4667C62.9364 35.1923 62.889 34.9075 62.8809 34.6203L62.1641 34.2731L62.4601 32.9931H63.2601C63.3953 32.7398 63.5632 32.5053 63.7593 32.2955L63.4969 31.5451L64.6169 30.8475L65.1769 31.4123C65.4516 31.3283 65.7362 31.281 66.0233 31.2715L66.3689 30.5547L67.6489 30.8523V31.6523C67.9026 31.7862 68.1372 31.9536 68.3465 32.1499L69.0985 31.8891L69.7945 33.0091L69.2297 33.5691C69.3149 33.8435 69.3623 34.1283 69.3705 34.4155L70.0873 34.7611L69.7913 36.0411H68.9913C68.8564 36.2951 68.6885 36.5302 68.4921 36.7403L68.7545 37.4907L67.6345 38.1883L67.0745 37.6235V37.6219ZM66.8201 35.7515C67.0573 35.6037 67.2453 35.3889 67.3604 35.1342C67.4755 34.8796 67.5125 34.5965 67.4667 34.3208C67.4209 34.0451 67.2944 33.7892 67.1031 33.5854C66.9119 33.3817 66.6644 33.2392 66.3922 33.1761C66.12 33.1129 65.8351 33.132 65.5737 33.2307C65.3122 33.3295 65.086 33.5036 64.9235 33.731C64.761 33.9584 64.6697 34.2289 64.6609 34.5082C64.6522 34.7875 64.7265 35.0632 64.8745 35.3003C65.0727 35.618 65.389 35.844 65.7539 35.9286C66.1187 36.0132 66.5022 35.9495 66.8201 35.7515Z" fill="#EBEBEB"/>
<path d="M17.9763 23.4612C17.9939 23.4772 17.2435 24.2468 16.3011 25.178C15.3587 26.1092 14.5827 26.8516 14.5667 26.8356C14.5507 26.8196 15.3011 26.05 16.2435 25.1188C17.1859 24.1876 17.9603 23.4452 17.9763 23.4612Z" fill="#E0E0E0"/>
<path d="M17.9844 26.8275C17.9684 26.8435 17.1844 26.1043 16.2436 25.1779C15.3028 24.2515 14.5428 23.4867 14.5588 23.4691C14.5748 23.4515 15.3588 24.1907 16.3012 25.1187C17.2436 26.0467 18.002 26.8099 17.9844 26.8275Z" fill="#E0E0E0"/>
<path d="M21.3688 44.7557C21.3688 44.7781 20.4088 44.6949 19.2312 44.5717C18.0536 44.4485 17.1 44.3269 17.1016 44.3045C17.1032 44.2821 18.0616 44.3637 19.2392 44.4885C20.4168 44.6133 21.372 44.7317 21.3688 44.7557Z" fill="#E0E0E0"/>
<path d="M21.2008 46.3635C21.2008 46.3859 20.2408 46.3043 19.0632 46.1795C17.8856 46.0547 16.9304 45.9363 16.9336 45.9139C16.9368 45.8915 17.8936 45.9731 19.0712 46.0963C20.2488 46.2195 21.204 46.3411 21.2008 46.3635Z" fill="#E0E0E0"/>
<path d="M9.66248 41.227C9.66248 41.227 8.39528 41.1358 8.51208 43.979C8.62888 46.8222 8.91848 48.3342 8.91848 48.3342C8.91848 48.3342 8.88168 48.9646 8.39368 48.8414C7.90568 48.7182 6.98728 48.1038 6.53288 48.563C6.07848 49.0222 6.23048 49.7678 6.85288 50.627C7.47528 51.4862 8.77288 53.4174 8.89128 53.5918C9.00968 53.7662 9.05128 54.0862 8.70568 54.0558C8.36008 54.0254 6.02408 53.2334 5.71528 54.3646C5.40648 55.4958 7.53768 57.5966 7.76648 57.8366C7.99528 58.0766 8.00808 58.2206 7.91528 58.363C7.82248 58.5054 7.06248 58.1646 6.38888 57.9662C5.71528 57.7678 4.89928 57.6574 4.77608 58.3246C4.65288 58.9918 5.59048 60.9438 9.10568 62.9966L10.7969 63.8366L12.3969 62.8158C15.6881 60.4158 16.4273 58.3854 16.2369 57.7326C16.0465 57.0798 15.2465 57.2734 14.5969 57.539C13.9473 57.8046 13.2241 58.2174 13.1185 58.0846C13.0129 57.9518 13.0097 57.8046 13.2129 57.547C13.4161 57.2894 15.3265 54.987 14.9057 53.8862C14.4849 52.7854 12.2401 53.8142 11.8993 53.8862C11.5585 53.9582 11.5793 53.6254 11.6689 53.443C11.7585 53.2606 12.8641 51.203 13.4001 50.2878C13.9361 49.3726 14.0273 48.6286 13.5121 48.2078C12.9969 47.787 12.1585 48.4926 11.6913 48.6638C11.2241 48.835 11.1185 48.2126 11.1185 48.2126C11.1185 48.2126 11.2545 46.6766 11.0865 43.8382C10.9185 40.9998 9.63688 41.227 9.63688 41.227" fill="#EBEBEB"/>
<path d="M9.75781 43.7734C9.75908 43.7932 9.75908 43.8129 9.75781 43.8326C9.75781 43.8758 9.75781 43.9334 9.77061 44.007C9.78181 44.167 9.79621 44.3894 9.81701 44.679C9.85541 45.2614 9.90501 46.1062 9.96261 47.1478C10.0778 49.2278 10.2138 52.1174 10.353 55.3078C10.4922 58.4982 10.6202 61.3766 10.7242 63.4678C10.777 64.5078 10.8202 65.3526 10.8506 65.9382C10.865 66.2278 10.8762 66.4534 10.8842 66.6102C10.8842 66.6838 10.8842 66.743 10.8842 66.7846C10.8853 66.8044 10.8853 66.8241 10.8842 66.8438C10.8842 66.8438 10.8842 66.8246 10.8842 66.7846C10.8842 66.7446 10.8842 66.6854 10.8714 66.6102C10.8602 66.4502 10.8442 66.2294 10.825 65.9398C10.7866 65.3574 10.737 64.5126 10.6794 63.4694C10.5626 61.3894 10.4282 58.5014 10.289 55.3094C10.1498 52.1174 10.0218 49.2422 9.91621 47.1494C9.86341 46.1078 9.82021 45.2646 9.79141 44.679C9.77701 44.3894 9.76581 44.1638 9.75781 44.007C9.75781 43.9318 9.75781 43.8742 9.75781 43.8326C9.75781 43.791 9.75781 43.7734 9.75781 43.7734Z" fill="#E0E0E0"/>
<path d="M7.78516 49.4727C7.82319 49.4978 7.8581 49.5273 7.88916 49.5607C7.95476 49.6199 8.04916 49.7079 8.15796 49.8183C8.38036 50.0391 8.68116 50.3527 9.00596 50.7047L9.83316 51.6103L10.0844 51.8823C10.1182 51.9134 10.1478 51.949 10.1724 51.9879C10.1342 51.9629 10.0988 51.9339 10.0668 51.9015C10.0028 51.8407 9.90676 51.7527 9.79956 51.6407C9.57876 51.4183 9.27956 51.1015 8.95956 50.7495L8.12596 49.8503L7.87316 49.5783C7.83903 49.5473 7.80941 49.5118 7.78516 49.4727Z" fill="#E0E0E0"/>
<path d="M10.34 51.9316C10.3272 51.9188 10.9464 51.2708 11.7208 50.4916C12.4952 49.7124 13.1368 49.0772 13.1496 49.09C13.1624 49.1028 12.5432 49.7508 11.7672 50.53C10.9912 51.3092 10.3528 51.9444 10.34 51.9316Z" fill="#E0E0E0"/>
<path d="M10.332 56.834C10.3678 56.8042 10.407 56.779 10.4488 56.7588L10.78 56.5732C11.06 56.4132 11.444 56.1988 11.86 55.9428C12.276 55.6868 12.6456 55.4436 12.9112 55.266L13.2312 55.0564C13.2681 55.0275 13.3084 55.0033 13.3512 54.9844C13.3196 55.0187 13.2842 55.0493 13.2456 55.0756C13.1752 55.1316 13.0712 55.21 12.9416 55.3044C12.6808 55.4916 12.3144 55.7428 11.8968 55.9972C11.4792 56.2516 11.0968 56.466 10.8056 56.6132C10.6616 56.6852 10.5464 56.7428 10.4648 56.7812C10.4224 56.803 10.3779 56.8207 10.332 56.834Z" fill="#E0E0E0"/>
<path d="M7.53125 55.1172C7.57245 55.13 7.61174 55.1483 7.64805 55.1716C7.72165 55.21 7.82565 55.2692 7.95525 55.3428C8.21125 55.4884 8.56485 55.6948 8.95365 55.9252C9.34245 56.1556 9.69125 56.3684 9.94245 56.5252L10.2385 56.7124C10.2764 56.7332 10.3114 56.759 10.3425 56.7892C10.3016 56.7754 10.2625 56.7572 10.2257 56.7348C10.1537 56.6948 10.0481 56.6372 9.92005 56.5636C9.66245 56.418 9.30885 56.2116 8.92005 55.9812C8.53125 55.7508 8.18245 55.538 7.93125 55.3812L7.63525 55.1972C7.59743 55.1749 7.5625 55.148 7.53125 55.1172Z" fill="#E0E0E0"/>
<path d="M6.97656 59.4414C7.02764 59.4611 7.07689 59.4852 7.12376 59.5134L7.51896 59.731C7.85016 59.9166 8.30616 60.1774 8.79896 60.4686C9.29176 60.7598 9.75096 61.0254 10.079 61.2222L10.463 61.4574C10.511 61.4841 10.5566 61.5152 10.599 61.5502C10.5465 61.5326 10.4965 61.5084 10.4502 61.4782L10.0566 61.2622C9.72536 61.0766 9.27096 60.8158 8.77656 60.5246C8.28216 60.2334 7.82456 59.9662 7.49656 59.771L7.11416 59.5358C7.06453 59.5102 7.01831 59.4785 6.97656 59.4414Z" fill="#E0E0E0"/>
<path d="M10.5273 61.4769C10.5721 61.4379 10.6216 61.4046 10.6745 61.3777L11.0841 61.1281C11.4313 60.9153 11.9097 60.6225 12.4281 60.2833C12.9465 59.9441 13.4105 59.6273 13.7449 59.3953L14.1401 59.1217C14.1856 59.0841 14.2356 59.0524 14.2889 59.0273C14.2479 59.0694 14.2029 59.1075 14.1545 59.1409C14.0649 59.2129 13.9337 59.3121 13.7705 59.4337C13.4505 59.6753 12.9849 60.0001 12.4649 60.3377C11.9449 60.6753 11.4617 60.9649 11.1081 61.1665C10.9305 61.2673 10.7881 61.3473 10.6857 61.4001C10.635 61.4299 10.5821 61.4555 10.5273 61.4769Z" fill="#E0E0E0"/>
<path d="M13.069 64.3984H8.39062L9.91702 75.9568H11.5426L13.069 64.3984Z" fill="#E0E0E0"/>
<path d="M8.64062 65.8154C8.64062 65.8154 8.64063 65.8314 8.66463 65.8554C8.69543 65.8913 8.73438 65.9193 8.77823 65.937C8.85987 65.9649 8.94677 65.9739 9.0324 65.9634C9.11803 65.9528 9.20016 65.923 9.27262 65.8762C9.46142 65.7722 9.62623 65.5674 9.87902 65.4762C10.1599 65.3862 10.4628 65.3924 10.7398 65.4938C11.021 65.5904 11.2896 65.7204 11.5398 65.881C11.7474 66.0141 11.9639 66.1328 12.1878 66.2362C12.3407 66.3043 12.5022 66.3511 12.6678 66.3754C12.7129 66.3818 12.7583 66.385 12.8038 66.385C12.8342 66.385 12.8502 66.385 12.8502 66.385C12.6289 66.3507 12.4135 66.2855 12.2102 66.1914C11.9905 66.0832 11.7768 65.9631 11.5702 65.8314C11.3167 65.6638 11.0431 65.5289 10.7558 65.4298C10.4627 65.3237 10.1423 65.3203 9.84702 65.4202C9.72255 65.4713 9.60739 65.5427 9.50622 65.6314C9.42144 65.7068 9.33163 65.7763 9.23742 65.8394C9.172 65.8849 9.09742 65.9155 9.01891 65.929C8.94041 65.9425 8.8599 65.9387 8.78302 65.9178C8.72944 65.8931 8.6811 65.8584 8.64062 65.8154Z" fill="#F5F5F5"/>
<path d="M8.79688 67.9457C8.79688 67.9457 8.83368 67.8977 8.90568 67.8225C9.01215 67.7173 9.13977 67.6361 9.28007 67.5841C9.48853 67.5087 9.70988 67.4755 9.93127 67.4865C10.2042 67.5076 10.4756 67.545 10.7441 67.5985C11.0187 67.6513 11.2997 67.6626 11.5777 67.6321C11.8045 67.6031 12.0257 67.54 12.2337 67.4449C12.3763 67.3821 12.5115 67.3037 12.6369 67.2113C12.6839 67.1799 12.726 67.1416 12.7617 67.0977C12.5886 67.2093 12.4078 67.3088 12.2209 67.3953C12.016 67.478 11.8006 67.5319 11.5809 67.5553C11.3094 67.5818 11.0356 67.5683 10.7681 67.5153C10.4961 67.4614 10.2208 67.4262 9.94407 67.4097C9.71377 67.4022 9.48443 67.4425 9.27047 67.5281C9.12587 67.5855 8.99738 67.6772 8.89607 67.7953C8.86913 67.8278 8.84505 67.8626 8.82407 67.8993C8.80647 67.9313 8.79688 67.9441 8.79688 67.9457Z" fill="#F5F5F5"/>
<path d="M12.5407 69.0835C12.5018 69.0541 12.4579 69.0318 12.4111 69.0179C12.287 68.9709 12.1564 68.9428 12.0239 68.9347C11.8281 68.9217 11.6314 68.9329 11.4383 68.9683C11.2191 69.0035 10.9855 69.0627 10.7407 69.1155C10.5121 69.1691 10.2779 69.1954 10.0431 69.1939C9.85272 69.1887 9.66497 69.148 9.48951 69.0739C9.32908 68.9975 9.18632 68.8885 9.07031 68.7539C9.08866 68.7993 9.11585 68.8407 9.15031 68.8755C9.23923 68.9768 9.3482 69.0585 9.47031 69.1155C9.64984 69.2005 9.84465 69.2484 10.0431 69.2563C10.2837 69.2624 10.524 69.2376 10.7583 69.1827C11.0079 69.1299 11.2383 69.0675 11.4527 69.0227C11.6407 68.9852 11.8323 68.9686 12.0239 68.9731C12.2 68.9891 12.3735 69.0262 12.5407 69.0835Z" fill="#F5F5F5"/>
<path d="M9.21896 70.6884C9.36223 70.6271 9.52089 70.6115 9.67336 70.6436C9.83955 70.6837 10.0006 70.7428 10.1534 70.8196C10.3467 70.9133 10.5554 70.9713 10.7694 70.9908C11.1607 71.0242 11.5525 70.9335 11.8894 70.7316C11.9867 70.6698 12.0774 70.5979 12.1598 70.5172C12.2158 70.4564 12.2462 70.4212 12.2414 70.418C12.1176 70.514 11.9883 70.6027 11.8542 70.6836C11.5234 70.8661 11.1458 70.9463 10.7694 70.914C10.3262 70.8884 9.98536 70.6244 9.67816 70.594C9.56004 70.5737 9.43869 70.5848 9.32616 70.626C9.24936 70.6516 9.21576 70.6868 9.21896 70.6884Z" fill="#F5F5F5"/>
<path d="M9.48048 72.9081C9.61483 72.9114 9.74821 72.8846 9.87088 72.8297C10.1061 72.7513 10.3957 72.5721 10.7365 72.4361C10.8949 72.3724 11.0634 72.3372 11.2341 72.3321C11.3721 72.3321 11.5082 72.3633 11.6325 72.4233C11.7463 72.484 11.8453 72.5692 11.9221 72.6729C11.9158 72.6366 11.9004 72.6024 11.8773 72.5737C11.8207 72.4914 11.7456 72.4234 11.6581 72.3753C11.5281 72.3036 11.3825 72.2646 11.2341 72.2617C11.0541 72.2622 10.8759 72.2975 10.7093 72.3657C10.3573 72.5049 10.0693 72.6857 9.85008 72.7801C9.63088 72.8745 9.47888 72.8953 9.48048 72.9081Z" fill="#F5F5F5"/>
<path d="M9.70703 73.9402C9.8008 73.9857 9.90041 74.018 10.003 74.0362C10.2467 74.0951 10.4943 74.1368 10.7438 74.161C10.9932 74.1855 11.2439 74.193 11.4942 74.1834C11.5989 74.1853 11.7033 74.173 11.8046 74.1466C11.8046 74.1226 11.3246 74.1466 10.7518 74.0858C10.179 74.025 9.71343 73.9194 9.70703 73.9402Z" fill="#F5F5F5"/>
<path d="M24.3789 25.7579C24.3789 25.7579 24.8141 23.1482 24.9181 22.9498C25.0221 22.7514 26.2237 21.5322 26.3661 21.5098C26.5085 21.4874 28.4045 20.889 28.2989 21.1898C28.1933 21.4906 26.8589 21.8842 26.8589 21.8842L26.7325 22.0442C26.7325 22.0442 27.8701 21.673 28.1517 21.6826C28.4333 21.6922 28.4589 21.9626 28.2557 22.0394C28.0525 22.1162 27.0509 22.409 27.0125 22.473C26.9741 22.537 28.1325 22.2058 28.2733 22.2122C28.4685 22.2202 28.6093 22.4666 28.4109 22.5514C28.2925 22.5994 27.1789 22.8554 27.1789 22.8554C27.5223 22.8103 27.8679 22.7836 28.2141 22.7754C28.3853 22.8218 28.3741 23.0298 28.1821 23.0794C28.0525 23.113 27.3725 23.1434 27.1997 23.1898C27.1997 23.1898 27.0701 23.2986 27.0749 23.6442C27.0797 23.9898 26.6317 24.9066 26.6317 24.9066L24.3789 25.7579Z" fill="#FFBE9D"/>
<path d="M28.2963 21.1806C28.2199 21.2784 28.1254 21.3604 28.0179 21.4222C27.9056 21.4979 27.7867 21.5632 27.6627 21.6174C27.5219 21.6702 27.3651 21.7246 27.2019 21.7774L26.8515 21.8958L26.8707 21.8846C26.6707 22.1013 26.454 22.3019 26.2227 22.4846C26.4006 22.2511 26.5964 22.0318 26.8083 21.8286V21.8206H26.8195L27.1651 21.699L27.6243 21.539C27.7455 21.4898 27.8631 21.432 27.9763 21.3662C28.1779 21.259 28.2883 21.1694 28.2963 21.1806Z" fill="#EB996E"/>
<path d="M53.5599 54.4178L27.7327 51.757C27.3541 51.7167 27.007 51.528 26.7671 51.2324C26.5272 50.9368 26.4142 50.5582 26.4527 50.1794L30.9215 6.75861C30.9776 6.22022 31.2449 5.72604 31.6648 5.38442C32.0847 5.0428 32.623 4.88162 33.1615 4.93621L57.7887 7.47221C58.3271 7.52833 58.8213 7.79564 59.1629 8.21554C59.5045 8.63544 59.6657 9.17366 59.6111 9.71221L55.1311 53.133C55.0919 53.5112 54.9047 53.8586 54.6103 54.0993C54.316 54.34 53.9384 54.4545 53.5599 54.4178Z" fill="#294C88"/>
<path opacity="0.4" d="M53.5599 54.4178L27.7327 51.757C27.3541 51.7167 27.007 51.528 26.7671 51.2324C26.5272 50.9368 26.4142 50.5582 26.4527 50.1794L30.9215 6.75861C30.9776 6.22022 31.2449 5.72604 31.6648 5.38442C32.0847 5.0428 32.623 4.88162 33.1615 4.93621L57.7887 7.47221C58.3271 7.52833 58.8213 7.79564 59.1629 8.21554C59.5045 8.63544 59.6657 9.17366 59.6111 9.71221L55.1311 53.133C55.0919 53.5112 54.9047 53.8586 54.6103 54.0993C54.316 54.34 53.9384 54.4545 53.5599 54.4178Z" fill="black"/>
<path d="M50.9555 54.1486L25.1235 51.4894C24.7446 51.449 24.3972 51.2602 24.1573 50.9642C23.9174 50.6682 23.8045 50.2892 23.8435 49.9102L28.3235 6.48938C28.3509 6.22263 28.4305 5.96388 28.5579 5.72792C28.6853 5.49195 28.858 5.2834 29.066 5.11417C29.274 4.94493 29.5133 4.81834 29.7703 4.74161C30.0272 4.66488 30.2967 4.63952 30.5635 4.66698L55.1843 7.19818C55.451 7.22556 55.7098 7.30523 55.9458 7.43263C56.1817 7.56003 56.3903 7.73266 56.5595 7.94067C56.7287 8.14868 56.8553 8.388 56.9321 8.64494C57.0088 8.90189 57.0342 9.17144 57.0067 9.43818L52.5267 52.8606C52.4883 53.2394 52.3014 53.5875 52.007 53.8289C51.7125 54.0703 51.3345 54.1852 50.9555 54.1486Z" fill="#294C88"/>
<path d="M37.8229 42.3319L28.9164 41.4147C28.7037 41.3928 28.5135 41.5474 28.4916 41.7602L28.1306 45.2648C28.1087 45.4776 28.2634 45.6678 28.4761 45.6897L37.3826 46.6069C37.5954 46.6288 37.7856 46.4741 37.8075 46.2614L38.1684 42.7568C38.1903 42.544 38.0356 42.3538 37.8229 42.3319Z" fill="#294C88"/>
<g opacity="0.4">
<path opacity="0.4" d="M37.8229 42.3319L28.9164 41.4147C28.7037 41.3928 28.5135 41.5474 28.4916 41.7602L28.1306 45.2648C28.1087 45.4776 28.2634 45.6678 28.4761 45.6897L37.3826 46.6069C37.5954 46.6288 37.7856 46.4741 37.8075 46.2614L38.1684 42.7568C38.1903 42.544 38.0356 42.3538 37.8229 42.3319Z" fill="black"/>
</g>
<path d="M30.1119 9.51952L29.1211 19.1406L53.6474 21.6665L54.6382 12.0454L30.1119 9.51952Z" fill="#FAFAFA"/>
<path d="M53.6516 21.6693C53.6516 21.6693 53.6516 21.6101 53.666 21.4981C53.6804 21.3861 53.6932 21.2181 53.714 21.0005C53.7572 20.5621 53.8212 19.9189 53.9044 19.0885C54.0644 17.4293 54.3124 15.0277 54.6132 12.0485L54.6388 12.0805L30.1124 9.56367L30.1588 9.52687C29.8116 12.8869 29.4756 16.1429 29.1652 19.1477L29.13 19.1029L46.706 20.9333L51.81 21.4693L53.178 21.6165L53.5316 21.6549L53.6532 21.6693C53.6532 21.6693 53.6132 21.6693 53.5348 21.6597L53.186 21.6261L51.826 21.4917L46.722 20.9781L29.122 19.1829H29.082V19.1445C29.3908 16.1381 29.722 12.8869 30.0708 9.52207V9.48047H30.1124L54.6452 12.0197H54.674V12.0485C54.354 15.0357 54.106 17.4437 53.9316 19.1061C53.8436 19.9317 53.7716 20.5733 53.7284 21.0085C53.7044 21.2245 53.6868 21.3893 53.674 21.5013L53.6516 21.6693Z" fill="#263238"/>
<path d="M33.935 23.5124L30.4287 23.1513C30.2459 23.1325 30.0824 23.2654 30.0636 23.4482L29.7025 26.9545C29.6836 27.1373 29.8166 27.3008 29.9994 27.3196L33.5057 27.6807C33.6885 27.6996 33.852 27.5666 33.8708 27.3838L34.2319 23.8775C34.2507 23.6947 34.1178 23.5312 33.935 23.5124Z" fill="#294C88"/>
<g opacity="0.4">
<path opacity="0.4" d="M33.9389 23.5124L30.4326 23.1513C30.2498 23.1325 30.0863 23.2654 30.0675 23.4482L29.7064 26.9545C29.6875 27.1373 29.8205 27.3008 30.0033 27.3196L33.5096 27.6807C33.6924 27.6996 33.8559 27.5666 33.8747 27.3838L34.2358 23.8775C34.2547 23.6947 34.1217 23.5312 33.9389 23.5124Z" fill="black"/>
</g>
<path d="M33.2943 23.4499L29.7881 23.0888C29.6052 23.07 29.4418 23.2029 29.4229 23.3857L29.0618 26.892C29.043 27.0748 29.176 27.2383 29.3588 27.2571L32.8651 27.6182C33.0479 27.6371 33.2114 27.5041 33.2302 27.3213L33.5913 23.815C33.6101 23.6322 33.4772 23.4687 33.2943 23.4499Z" fill="#263238"/>
<path d="M31.7082 24.4962L31.5306 26.2386L31.1274 26.197L31.273 24.7826L30.9258 24.7458L30.9594 24.4258L31.7082 24.4962Z" fill="white"/>
<path d="M39.7514 24.1139L36.2451 23.7528C36.0623 23.734 35.8988 23.867 35.88 24.0498L35.5189 27.5561C35.5 27.7389 35.633 27.9024 35.8158 27.9212L39.3221 28.2823C39.5049 28.3011 39.6684 28.1682 39.6872 27.9853L40.0483 24.4791C40.0671 24.2963 39.9342 24.1328 39.7514 24.1139Z" fill="#294C88"/>
<g opacity="0.4">
<path opacity="0.4" d="M39.7514 24.1139L36.2451 23.7528C36.0623 23.734 35.8988 23.867 35.88 24.0498L35.5189 27.5561C35.5 27.7389 35.633 27.9024 35.8158 27.9212L39.3221 28.2823C39.5049 28.3011 39.6684 28.1682 39.6872 27.9853L40.0483 24.4791C40.0671 24.2963 39.9342 24.1328 39.7514 24.1139Z" fill="black"/>
</g>
<path d="M39.1068 24.0475L35.6006 23.6864C35.4177 23.6676 35.2543 23.8006 35.2354 23.9834L34.8743 27.4896C34.8555 27.6725 34.9885 27.836 35.1713 27.8548L38.6775 28.2159C38.8604 28.2347 39.0239 28.1018 39.0427 27.9189L39.4038 24.4127C39.4226 24.2298 39.2897 24.0664 39.1068 24.0475Z" fill="#263238"/>
<path d="M38.0058 26.5716L37.9722 26.8916L36.6602 26.7572L36.6874 26.4964L37.4218 25.9316C37.5914 25.802 37.6282 25.7156 37.6362 25.6308C37.6506 25.4948 37.5642 25.4052 37.3802 25.386C37.3108 25.3762 37.24 25.3836 37.1742 25.4076C37.1083 25.4316 37.0494 25.4714 37.0026 25.5236L36.729 25.3044C36.8193 25.206 36.9327 25.1315 37.0589 25.0877C37.1851 25.0439 37.3202 25.032 37.4522 25.0532C37.8394 25.0932 38.0778 25.3172 38.0442 25.6324C38.0282 25.802 37.9642 25.9524 37.6986 26.1508L37.2602 26.4868L38.0058 26.5716Z" fill="white"/>
<path d="M45.7748 24.735L42.2685 24.3739C42.0857 24.3551 41.9222 24.4881 41.9034 24.6709L41.5423 28.1772C41.5235 28.36 41.6564 28.5235 41.8393 28.5423L45.3455 28.9034C45.5284 28.9222 45.6919 28.7893 45.7107 28.6064L46.0718 25.1002C46.0906 24.9173 45.9577 24.7539 45.7748 24.735Z" fill="#294C88"/>
<g opacity="0.4">
<path opacity="0.4" d="M45.7787 24.735L42.2725 24.3739C42.0896 24.3551 41.9261 24.4881 41.9073 24.6709L41.5462 28.1772C41.5274 28.36 41.6603 28.5235 41.8432 28.5423L45.3494 28.9034C45.5322 28.9222 45.6957 28.7893 45.7146 28.6064L46.0757 25.1002C46.0945 24.9173 45.9615 24.7539 45.7787 24.735Z" fill="black"/>
</g>
<path d="M45.1342 24.6686L41.6279 24.3075C41.4451 24.2887 41.2816 24.4217 41.2628 24.6045L40.9017 28.1107C40.8829 28.2936 41.0158 28.457 41.1986 28.4759L44.7049 28.837C44.8877 28.8558 45.0512 28.7229 45.07 28.54L45.4311 25.0338C45.45 24.8509 45.317 24.6875 45.1342 24.6686Z" fill="#263238"/>
<path d="M44.0387 26.9844C44.0083 27.2772 43.7555 27.522 43.2611 27.4724C43.0276 27.4514 42.8053 27.3631 42.6211 27.218L42.8083 26.9252C42.9424 27.0434 43.1104 27.1162 43.2883 27.1332C43.4899 27.154 43.6227 27.0852 43.6371 26.9428C43.6515 26.8004 43.5619 26.7204 43.3347 26.6964L43.1507 26.6772L43.1779 26.4116L43.5763 26.0436L42.8371 25.9684L42.8707 25.6484L44.0867 25.7732L44.0595 26.034L43.6211 26.4404C43.7474 26.4599 43.8613 26.5273 43.9391 26.6286C44.0169 26.73 44.0525 26.8574 44.0387 26.9844Z" fill="white"/>
<path d="M51.8061 25.3561L48.2998 24.995C48.117 24.9762 47.9535 25.1092 47.9347 25.292L47.5736 28.7982C47.5547 28.9811 47.6877 29.1446 47.8705 29.1634L51.3768 29.5245C51.5596 29.5433 51.7231 29.4104 51.7419 29.2275L52.103 25.7213C52.1219 25.5384 51.9889 25.375 51.8061 25.3561Z" fill="#294C88"/>
<g opacity="0.4">
<path opacity="0.4" d="M51.8061 25.3561L48.2998 24.995C48.117 24.9762 47.9535 25.1092 47.9347 25.292L47.5736 28.7982C47.5547 28.9811 47.6877 29.1446 47.8705 29.1634L51.3768 29.5245C51.5596 29.5433 51.7231 29.4104 51.7419 29.2275L52.103 25.7213C52.1219 25.5384 51.9889 25.375 51.8061 25.3561Z" fill="black"/>
</g>
<path d="M51.1732 25.2858L47.667 24.9247C47.4842 24.9059 47.3207 25.0388 47.3018 25.2217L46.9407 28.7279C46.9219 28.9108 47.0549 29.0742 47.2377 29.0931L50.7439 29.4542C50.9268 29.473 51.0903 29.34 51.1091 29.1572L51.4702 25.651C51.489 25.4681 51.3561 25.3046 51.1732 25.2858Z" fill="#263238"/>
<path d="M48.2625 26.9463L48.2461 27.1055L50.1082 27.2973L50.1246 27.1381L48.2625 26.9463Z" fill="white"/>
<path d="M49.5752 26.3461C49.5692 26.4059 49.5456 26.4626 49.5074 26.509C49.4691 26.5554 49.418 26.5894 49.3604 26.6068C49.3029 26.6241 49.2414 26.624 49.1839 26.6065C49.1264 26.5889 49.0754 26.5547 49.0374 26.5081C48.9993 26.4615 48.9759 26.4047 48.9702 26.3449C48.9644 26.285 48.9765 26.2248 49.005 26.1718C49.0334 26.1189 49.0769 26.0755 49.13 26.0473C49.1831 26.0191 49.2434 26.0072 49.3032 26.0133C49.3834 26.0213 49.4571 26.0609 49.5081 26.1233C49.5591 26.1857 49.5832 26.2659 49.5752 26.3461Z" fill="white"/>
<path d="M49.4073 27.9673C49.4012 28.0272 49.3775 28.0839 49.3392 28.1304C49.3009 28.1768 49.2496 28.2108 49.192 28.228C49.1343 28.2453 49.0728 28.2451 49.0153 28.2273C48.9578 28.2096 48.9068 28.1752 48.8688 28.1285C48.8309 28.0818 48.8077 28.0249 48.8021 27.9649C48.7965 27.905 48.8089 27.8448 48.8376 27.7918C48.8663 27.7389 48.91 27.6957 48.9633 27.6677C49.0166 27.6397 49.077 27.6282 49.1369 27.6345C49.2168 27.643 49.2901 27.6828 49.3407 27.7451C49.3914 27.8075 49.4153 27.8874 49.4073 27.9673Z" fill="white"/>
<path d="M33.306 29.6218L29.7998 29.2607C29.617 29.2418 29.4535 29.3748 29.4347 29.5576L29.0736 33.0639C29.0547 33.2467 29.1877 33.4102 29.3705 33.429L32.8768 33.7901C33.0596 33.8089 33.2231 33.676 33.2419 33.4932L33.603 29.9869C33.6218 29.8041 33.4889 29.6406 33.306 29.6218Z" fill="#294C88"/>
<g opacity="0.4">
<path opacity="0.4" d="M33.31 29.6218L29.8037 29.2607C29.6209 29.2418 29.4574 29.3748 29.4386 29.5576L29.0775 33.0639C29.0586 33.2467 29.1916 33.4102 29.3744 33.429L32.8807 33.7901C33.0635 33.8089 33.227 33.676 33.2458 33.4932L33.6069 29.9869C33.6257 29.8041 33.4928 29.6406 33.31 29.6218Z" fill="black"/>
</g>
<path d="M32.6654 29.5553L29.1592 29.1943C28.9763 29.1754 28.8129 29.3084 28.794 29.4912L28.4329 32.9975C28.4141 33.1803 28.5471 33.3438 28.7299 33.3626L32.2361 33.7237C32.419 33.7425 32.5824 33.6096 32.6013 33.4268L32.9624 29.9205C32.9812 29.7377 32.8483 29.5742 32.6654 29.5553Z" fill="#263238"/>
<path d="M31.4471 32.0286L31.1639 31.9998L31.1255 32.3646L30.7335 32.3246L30.7719 31.9598L29.8359 31.8622L29.8631 31.5918L30.7959 30.5742L31.2183 30.619L30.3511 31.579L30.8183 31.627L30.8519 31.307L31.2311 31.3454L31.1975 31.6654L31.4807 31.6942L31.4471 32.0286Z" fill="white"/>
<path d="M39.1225 30.2194L35.6162 29.8583C35.4334 29.8395 35.2699 29.9724 35.2511 30.1553L34.89 33.6615C34.8711 33.8444 35.0041 34.0078 35.1869 34.0267L38.6932 34.3878C38.876 34.4066 39.0395 34.2736 39.0583 34.0908L39.4194 30.5846C39.4383 30.4017 39.3053 30.2382 39.1225 30.2194Z" fill="#294C88"/>
<g opacity="0.4">
<path opacity="0.4" d="M39.1225 30.2194L35.6162 29.8583C35.4334 29.8395 35.2699 29.9724 35.2511 30.1553L34.89 33.6615C34.8711 33.8444 35.0041 34.0078 35.1869 34.0267L38.6932 34.3878C38.876 34.4066 39.0395 34.2736 39.0583 34.0908L39.4194 30.5846C39.4382 30.4017 39.3053 30.2382 39.1225 30.2194Z" fill="black"/>
</g>
<path d="M38.4779 30.153L34.9717 29.7919C34.7888 29.7731 34.6254 29.906 34.6065 30.0889L34.2454 33.5951C34.2266 33.7779 34.3596 33.9414 34.5424 33.9603L38.0486 34.3213C38.2315 34.3402 38.395 34.2072 38.4138 34.0244L38.7749 30.5181C38.7937 30.3353 38.6608 30.1718 38.4779 30.153Z" fill="#263238"/>
<path d="M37.206 32.4407C37.1756 32.7479 36.9212 32.9927 36.4252 32.9415C36.1917 32.9203 35.9695 32.8319 35.7852 32.6871L35.9756 32.3959C36.1094 32.5142 36.2776 32.5865 36.4556 32.6023C36.6572 32.6231 36.79 32.5527 36.8044 32.4103C36.8188 32.2679 36.7388 32.1751 36.4236 32.1431L35.9788 32.0967L36.1692 31.1367L37.2284 31.2455L37.1964 31.5655L36.4716 31.4903L36.4092 31.8183L36.5516 31.8327C37.0588 31.8807 37.238 32.1319 37.206 32.4407Z" fill="white"/>
<path d="M45.1498 30.8405L41.6436 30.4794C41.4607 30.4606 41.2972 30.5935 41.2784 30.7764L40.9173 34.2826C40.8985 34.4655 41.0314 34.6289 41.2143 34.6478L44.7205 35.0089C44.9034 35.0277 45.0668 34.8947 45.0857 34.7119L45.4468 31.2056C45.4656 31.0228 45.3326 30.8593 45.1498 30.8405Z" fill="#294C88"/>
<g opacity="0.4">
<path opacity="0.4" d="M45.1498 30.8405L41.6436 30.4794C41.4607 30.4606 41.2972 30.5935 41.2784 30.7764L40.9173 34.2826C40.8985 34.4655 41.0314 34.6289 41.2143 34.6478L44.7205 35.0089C44.9034 35.0277 45.0668 34.8947 45.0857 34.7119L45.4468 31.2056C45.4656 31.0228 45.3326 30.8593 45.1498 30.8405Z" fill="black"/>
</g>
<path d="M44.5053 30.7741L40.999 30.413C40.8162 30.3942 40.6527 30.5271 40.6339 30.71L40.2728 34.2162C40.2539 34.399 40.3869 34.5625 40.5697 34.5813L44.076 34.9424C44.2588 34.9613 44.4223 34.8283 44.4411 34.6455L44.8022 31.1392C44.8211 30.9564 44.6881 30.7929 44.5053 30.7741Z" fill="#263238"/>
<path d="M43.3618 33.0667C43.325 33.4219 43.0114 33.6155 42.645 33.5771C42.165 33.5275 41.8994 33.1963 41.957 32.6363C42.0194 32.0347 42.4162 31.7371 42.9394 31.7915C43.1091 31.8044 43.2722 31.863 43.4114 31.9611L43.2322 32.2411C43.1401 32.1694 43.0286 32.127 42.9122 32.1195C42.621 32.0907 42.4178 32.2427 42.3714 32.5739C42.4345 32.5269 42.5064 32.493 42.5827 32.474C42.6591 32.4551 42.7384 32.4515 42.8162 32.4635C42.8926 32.4643 42.968 32.4809 43.0376 32.5122C43.1073 32.5436 43.1697 32.589 43.221 32.6457C43.2722 32.7024 43.3112 32.769 43.3354 32.8415C43.3597 32.9139 43.3686 32.9906 43.3618 33.0667ZM42.9698 33.0459C42.9739 33.0087 42.97 32.971 42.9584 32.9354C42.9468 32.8999 42.9276 32.8672 42.9023 32.8396C42.877 32.812 42.8461 32.7902 42.8117 32.7755C42.7772 32.7609 42.74 32.7538 42.7026 32.7547C42.6658 32.7469 42.6278 32.7467 42.5909 32.7542C42.5541 32.7617 42.5192 32.7768 42.4884 32.7984C42.4576 32.82 42.4316 32.8478 42.412 32.8799C42.3925 32.912 42.3797 32.9478 42.3746 32.9851C42.3586 33.1339 42.4594 33.2539 42.653 33.2747C42.6887 33.282 42.7256 33.2818 42.7612 33.274C42.7968 33.2663 42.8304 33.2511 42.8598 33.2295C42.8892 33.208 42.9137 33.1805 42.9319 33.1489C42.95 33.1172 42.9613 33.0822 42.965 33.0459H42.9698Z" fill="white"/>
<path d="M51.1733 31.4616L47.667 31.1005C47.4842 31.0817 47.3207 31.2146 47.3018 31.3975L46.9407 34.9037C46.9219 35.0865 47.0549 35.25 47.2377 35.2689L50.744 35.63C50.9268 35.6488 51.0903 35.5158 51.1091 35.333L51.4702 31.8267C51.489 31.6439 51.3561 31.4804 51.1733 31.4616Z" fill="#294C88"/>
<g opacity="0.4">
<path opacity="0.4" d="M51.1733 31.4616L47.667 31.1005C47.4842 31.0817 47.3207 31.2146 47.3018 31.3975L46.9407 34.9037C46.9219 35.0865 47.0549 35.25 47.2377 35.2689L50.744 35.63C50.9268 35.6488 51.0903 35.5158 51.1091 35.333L51.4702 31.8267C51.489 31.6439 51.3561 31.4804 51.1733 31.4616Z" fill="black"/>
</g>
<path d="M50.5326 31.3952L47.0264 31.0341C46.8435 31.0153 46.68 31.1482 46.6612 31.331L46.3001 34.8373C46.2813 35.0201 46.4142 35.1836 46.5971 35.2024L50.1033 35.5635C50.2862 35.5824 50.4497 35.4494 50.4685 35.2666L50.8296 31.7603C50.8484 31.5775 50.7155 31.414 50.5326 31.3952Z" fill="#263238"/>
<path d="M49.2472 32.6572L47.7773 33.8164L47.8764 33.942L49.3463 32.7828L49.2472 32.6572Z" fill="white"/>
<path d="M48.0343 32.528L47.9102 32.6289L49.0913 34.0813L49.2154 33.9803L48.0343 32.528Z" fill="white"/>
<path d="M32.685 35.6803L29.1787 35.3193C28.9959 35.3004 28.8324 35.4334 28.8136 35.6162L28.4525 39.1225C28.4336 39.3053 28.5666 39.4688 28.7494 39.4876L32.2557 39.8487C32.4385 39.8675 32.602 39.7346 32.6208 39.5518L32.9819 36.0455C33.0007 35.8627 32.8678 35.6992 32.685 35.6803Z" fill="#294C88"/>
<g opacity="0.4">
<path opacity="0.4" d="M32.685 35.6803L29.1787 35.3193C28.9959 35.3004 28.8324 35.4334 28.8136 35.6162L28.4525 39.1225C28.4336 39.3053 28.5666 39.4688 28.7494 39.4876L32.2557 39.8487C32.4385 39.8675 32.602 39.7346 32.6208 39.5518L32.9819 36.0455C33.0007 35.8627 32.8678 35.6992 32.685 35.6803Z" fill="black"/>
</g>
<path d="M32.0404 35.6139L28.5342 35.2528C28.3513 35.234 28.1879 35.367 28.169 35.5498L27.8079 39.056C27.7891 39.2389 27.9221 39.4024 28.1049 39.4212L31.6111 39.7823C31.794 39.8011 31.9575 39.6682 31.9763 39.4853L32.3374 35.9791C32.3562 35.7963 32.2233 35.6328 32.0404 35.6139Z" fill="#263238"/>
<path d="M30.7326 36.6893L30.7054 36.9501L29.9054 38.3613L29.4686 38.3149L30.2366 36.9693L29.6606 36.9101L29.6318 37.1933L29.2734 37.1565L29.3374 36.5469L30.7326 36.6893Z" fill="white"/>
<path d="M38.4975 36.278L34.9912 35.9169C34.8084 35.8981 34.6449 36.031 34.6261 36.2139L34.265 39.7201C34.2461 39.903 34.3791 40.0664 34.5619 40.0853L38.0682 40.4464C38.251 40.4652 38.4145 40.3322 38.4333 40.1494L38.7944 36.6431C38.8133 36.4603 38.6803 36.2968 38.4975 36.278Z" fill="#294C88"/>
<g opacity="0.4">
<path opacity="0.4" d="M38.4975 36.278L34.9912 35.9169C34.8084 35.8981 34.6449 36.031 34.6261 36.2139L34.265 39.7201C34.2461 39.903 34.3791 40.0664 34.5619 40.0853L38.0682 40.4464C38.251 40.4652 38.4145 40.3322 38.4333 40.1494L38.7944 36.6431C38.8132 36.4603 38.6803 36.2968 38.4975 36.278Z" fill="black"/>
</g>
<path d="M37.8529 36.2116L34.3467 35.8505C34.1638 35.8317 34.0004 35.9646 33.9815 36.1475L33.6204 39.6537C33.6016 39.8366 33.7346 40 33.9174 40.0189L37.4236 40.38C37.6065 40.3988 37.77 40.2658 37.7888 40.083L38.1499 36.5767C38.1687 36.3939 38.0358 36.2304 37.8529 36.2116Z" fill="#263238"/>
<path d="M36.7207 38.5561C36.6871 38.8761 36.3735 39.0601 35.9319 39.0137C35.4903 38.9673 35.2231 38.7321 35.2567 38.4057C35.2643 38.319 35.2973 38.2364 35.3517 38.1683C35.4061 38.1003 35.4794 38.0498 35.5623 38.0233C35.5042 37.9802 35.4587 37.9223 35.4306 37.8556C35.4024 37.7889 35.3927 37.7159 35.4023 37.6441C35.4343 37.3385 35.7223 37.1769 36.1207 37.2169C36.5191 37.2569 36.7735 37.4777 36.7431 37.7833C36.7367 37.8559 36.7108 37.9253 36.6683 37.9844C36.6258 38.0435 36.5682 38.0901 36.5015 38.1193C36.577 38.1625 36.6381 38.227 36.6771 38.3047C36.7161 38.3824 36.7313 38.4698 36.7207 38.5561ZM36.3143 38.5017C36.3303 38.3417 36.2135 38.2409 36.0135 38.2201C35.8135 38.1993 35.6807 38.2809 35.6647 38.4345C35.6487 38.5881 35.7623 38.6985 35.9623 38.7193C36.1623 38.7401 36.2999 38.6489 36.3207 38.4953L36.3143 38.5017ZM35.7959 37.7017C35.7815 37.8329 35.8775 37.9257 36.0407 37.9433C36.2039 37.9609 36.3223 37.8889 36.3367 37.7577C36.3511 37.6265 36.2503 37.5273 36.0855 37.5113C35.9207 37.4953 35.8087 37.5609 35.7959 37.6969V37.7017Z" fill="white"/>
<path d="M44.5248 36.8991L41.0186 36.538C40.8357 36.5192 40.6722 36.6521 40.6534 36.835L40.2923 40.3412C40.2735 40.524 40.4064 40.6875 40.5893 40.7063L44.0955 41.0674C44.2784 41.0863 44.4418 40.9533 44.4607 40.7705L44.8218 37.2642C44.8406 37.0814 44.7077 36.9179 44.5248 36.8991Z" fill="#294C88"/>
<g opacity="0.4">
<path opacity="0.4" d="M44.5248 36.8991L41.0186 36.538C40.8357 36.5192 40.6722 36.6521 40.6534 36.835L40.2923 40.3412C40.2735 40.524 40.4064 40.6875 40.5893 40.7063L44.0955 41.0674C44.2784 41.0863 44.4418 40.9533 44.4607 40.7705L44.8218 37.2642C44.8406 37.0814 44.7077 36.9179 44.5248 36.8991Z" fill="black"/>
</g>
<path d="M43.7643 36.5498L40.2748 36.1973C40.0928 36.179 39.9304 36.3116 39.912 36.4935L39.5596 39.9831C39.5412 40.165 39.6738 40.3275 39.8557 40.3458L43.3453 40.6983C43.5273 40.7167 43.6897 40.5841 43.708 40.4021L44.0605 36.9126C44.0789 36.7306 43.9463 36.5682 43.7643 36.5498Z" fill="#263238"/>
<path d="M42.7207 38.762C42.6583 39.3636 42.2647 39.6612 41.7383 39.6068C41.5697 39.5944 41.4076 39.5363 41.2695 39.4388L41.4487 39.1588C41.5405 39.2307 41.6523 39.2726 41.7687 39.2788C42.0567 39.3076 42.2631 39.1556 42.3095 38.8228C42.246 38.8702 42.1736 38.9044 42.0967 38.9236C42.0198 38.9429 41.9399 38.9467 41.8615 38.9348C41.7855 38.9334 41.7105 38.9163 41.6414 38.8846C41.5722 38.853 41.5103 38.8075 41.4594 38.7509C41.4085 38.6944 41.3699 38.628 41.3457 38.5558C41.3216 38.4837 41.3125 38.4074 41.3191 38.3316C41.3559 37.9764 41.6695 37.7828 42.0375 37.8212C42.5159 37.8708 42.7799 38.202 42.7207 38.762ZM42.3031 38.4132C42.3175 38.2644 42.2167 38.1444 42.0263 38.1236C41.9904 38.1166 41.9533 38.1173 41.9176 38.1255C41.8819 38.1337 41.8483 38.1493 41.8189 38.1713C41.7896 38.1933 41.7652 38.2212 41.7474 38.2532C41.7295 38.2852 41.7185 38.3206 41.7151 38.3571C41.7118 38.3936 41.7161 38.4304 41.7278 38.4651C41.7395 38.4999 41.7584 38.5318 41.7832 38.5587C41.808 38.5857 41.8382 38.6072 41.8718 38.6219C41.9054 38.6365 41.9417 38.6439 41.9783 38.6436C42.015 38.6514 42.053 38.6516 42.0897 38.6441C42.1265 38.6365 42.1613 38.6215 42.1919 38.5998C42.2226 38.5782 42.2484 38.5504 42.2679 38.5183C42.2873 38.4862 42.2998 38.4504 42.3047 38.4132H42.3031Z" fill="white"/>
<path d="M50.5522 37.5202L47.0459 37.1591C46.8631 37.1403 46.6996 37.2732 46.6807 37.456L46.3196 40.9623C46.3008 41.1452 46.4338 41.3086 46.6166 41.3275L50.1229 41.6886C50.3057 41.7074 50.4692 41.5744 50.488 41.3916L50.8491 37.8853C50.868 37.7025 50.735 37.539 50.5522 37.5202Z" fill="#294C88"/>
<g opacity="0.4">
<path opacity="0.4" d="M50.5522 37.5202L47.0459 37.1591C46.8631 37.1403 46.6996 37.2732 46.6808 37.456L46.3196 40.9623C46.3008 41.1452 46.4338 41.3086 46.6166 41.3275L50.1229 41.6886C50.3057 41.7074 50.4692 41.5744 50.488 41.3916L50.8491 37.8853C50.868 37.7025 50.735 37.539 50.5522 37.5202Z" fill="black"/>
</g>
<path d="M49.9076 37.4499L46.4014 37.0888C46.2185 37.07 46.055 37.2029 46.0362 37.3857L45.6751 40.892C45.6563 41.0748 45.7892 41.2383 45.9721 41.2571L49.4783 41.6182C49.6612 41.637 49.8247 41.5041 49.8435 41.3213L50.2046 37.815C50.2234 37.6322 50.0905 37.4687 49.9076 37.4499Z" fill="#263238"/>
<path d="M47.0164 39.1846L47 39.3438L48.8621 39.5355L48.8785 39.3764L47.0164 39.1846Z" fill="white"/>
<path d="M43.8959 43.0085L40.3896 42.6474C40.2068 42.6285 40.0433 42.7615 40.0245 42.9443L39.6634 46.4506C39.6446 46.6334 39.7775 46.7969 39.9604 46.8157L43.4666 47.1768C43.6495 47.1957 43.813 47.0627 43.8318 46.8799L44.1929 43.3736C44.2117 43.1908 44.0788 43.0273 43.8959 43.0085Z" fill="#294C88"/>
<g opacity="0.4">
<path opacity="0.4" d="M43.8959 43.0085L40.3896 42.6474C40.2068 42.6285 40.0433 42.7615 40.0245 42.9443L39.6634 46.4506C39.6446 46.6334 39.7775 46.7969 39.9604 46.8157L43.4666 47.1768C43.6495 47.1957 43.813 47.0627 43.8318 46.8799L44.1929 43.3736C44.2117 43.1908 44.0788 43.0273 43.8959 43.0085Z" fill="black"/>
</g>
<path d="M43.2514 42.9421L39.7451 42.581C39.5623 42.5621 39.3988 42.6951 39.38 42.8779L39.0189 46.3842C39 46.567 39.133 46.7305 39.3158 46.7493L42.8221 47.1104C43.0049 47.1292 43.1684 46.9963 43.1872 46.8135L43.5483 43.3072C43.5671 43.1244 43.4342 42.9609 43.2514 42.9421Z" fill="#263238"/>
<path d="M49.9233 43.6296L46.417 43.2685C46.2342 43.2496 46.0707 43.3826 46.0518 43.5654L45.6907 47.0717C45.6719 47.2545 45.8049 47.418 45.9877 47.4368L49.494 47.7979C49.6768 47.8168 49.8403 47.6838 49.8591 47.501L50.2202 43.9947C50.239 43.8119 50.1061 43.6484 49.9233 43.6296Z" fill="#294C88"/>
<g opacity="0.4">
<path opacity="0.4" d="M49.9233 43.6296L46.417 43.2685C46.2342 43.2496 46.0707 43.3826 46.0518 43.5654L45.6907 47.0717C45.6719 47.2545 45.8049 47.418 45.9877 47.4368L49.494 47.7979C49.6768 47.8168 49.8403 47.6838 49.8591 47.501L50.2202 43.9947C50.239 43.8119 50.1061 43.6484 49.9233 43.6296Z" fill="black"/>
</g>
<path d="M49.2787 43.5632L45.7725 43.2021C45.5896 43.1832 45.4261 43.3162 45.4073 43.499L45.0462 47.0053C45.0274 47.1881 45.1603 47.3516 45.3432 47.3704L48.8494 47.7315C49.0323 47.7504 49.1958 47.6174 49.2146 47.4346L49.5757 43.9283C49.5945 43.7455 49.4616 43.582 49.2787 43.5632Z" fill="#455A64"/>
<path d="M46.4109 45.0674L46.3945 45.2266L48.2567 45.4183L48.2731 45.2592L46.4109 45.0674Z" fill="white"/>
<path d="M46.3406 45.7744L46.3242 45.9336L48.1864 46.1254L48.2028 45.9662L46.3406 45.7744Z" fill="white"/>
<path d="M37.0251 42.2493L27.7573 41.2949C27.5375 41.2723 27.341 41.4321 27.3184 41.6518L26.9601 45.131C26.9375 45.3507 27.0973 45.5472 27.317 45.5699L36.5848 46.5243C36.8045 46.547 37.001 46.3872 37.0237 46.1674L37.382 42.6882C37.4046 42.4685 37.2448 42.272 37.0251 42.2493Z" fill="#263238"/>
<path d="M31.7969 43.7875C31.8561 43.2131 32.2081 42.9219 32.6353 42.9651C33.0625 43.0083 33.3457 43.3667 33.2865 43.9411C33.2273 44.5155 32.8785 44.8067 32.4497 44.7619C32.0209 44.7171 31.7377 44.3603 31.7969 43.7875ZM32.8817 43.8995C32.9233 43.5043 32.8001 43.3267 32.6001 43.3059C32.4001 43.2851 32.2449 43.4339 32.2049 43.8291C32.1649 44.2243 32.2865 44.4019 32.4849 44.4227C32.6833 44.4435 32.8417 44.2931 32.8817 43.8995Z" fill="white"/>
<path d="M41.3131 43.9065L41.0938 45.7656L41.2527 45.7844L41.472 43.9253L41.3131 43.9065Z" fill="white"/>
<path d="M40.3601 44.6729L40.3438 44.832L42.2059 45.0238L42.2223 44.8646L40.3601 44.6729Z" fill="white"/>
<path d="M39.4878 15.3964L39.2206 17.9932L39.0974 17.9804L39.3598 15.4988L38.707 15.4316L38.7182 15.3164L39.4878 15.3964Z" fill="#263238"/>
<path d="M41.6244 18.1235L41.6115 18.2387L39.8516 18.0579L39.8612 17.9683L41.09 16.9619C41.4419 16.6755 41.5268 16.4931 41.5492 16.2819C41.5844 15.9363 41.3668 15.6899 40.9092 15.6419C40.7653 15.616 40.6175 15.6233 40.4769 15.6632C40.3363 15.7031 40.2067 15.7746 40.098 15.8723L40.0212 15.7827C40.1436 15.6759 40.2882 15.5976 40.4445 15.5534C40.6008 15.5091 40.7649 15.5 40.9252 15.5267C41.4212 15.5779 41.7107 15.8659 41.6676 16.2851C41.642 16.5315 41.5427 16.7379 41.1652 17.0435L40.0452 17.9603L41.6244 18.1235Z" fill="#263238"/>
<path d="M43.6832 17.724C43.6384 18.156 43.304 18.428 42.7328 18.364C42.5645 18.3549 42.4001 18.3098 42.2507 18.2317C42.1014 18.1536 41.9706 18.0443 41.8672 17.9112L41.944 17.8296C42.0392 17.953 42.16 18.0544 42.2981 18.1268C42.4362 18.1992 42.5883 18.2408 42.744 18.2488C43.24 18.3 43.5248 18.0888 43.5648 17.708C43.6048 17.3272 43.376 17.068 42.8256 17.0056L42.6816 16.9896L42.6912 16.9016L43.608 15.9304L42.176 15.7832L42.1872 15.668L43.7872 15.828L43.7776 15.916L42.856 16.8904C43.4576 16.9576 43.728 17.2904 43.6832 17.724Z" fill="#263238"/>
<path d="M46.2417 17.9608L45.6769 17.9032L45.6001 18.6536L45.4769 18.6408L45.5537 17.8904L44.0625 17.7304L44.0721 17.6408L45.6897 16.0312L45.8337 16.0456L44.2337 17.636L45.5633 17.7736L45.6305 17.1128L45.7537 17.1256L45.6849 17.7848L46.2497 17.844L46.2417 17.9608Z" fill="#263238"/>
<path d="M46.7793 18.6588C46.7719 18.7053 46.7595 18.7509 46.7425 18.7948L46.5569 19.2748L46.4609 19.2652L46.6289 18.7644C46.5967 18.7591 46.5679 18.7412 46.5488 18.7146C46.5298 18.6881 46.522 18.655 46.5273 18.6228C46.5326 18.5905 46.5505 18.5617 46.5771 18.5426C46.6036 18.5236 46.6367 18.5159 46.6689 18.5212C46.7016 18.5252 46.7315 18.5418 46.7521 18.5675C46.7727 18.5932 46.7825 18.626 46.7793 18.6588Z" fill="#263238"/>
<path d="M49.3534 18.2803L48.7902 18.2227L48.7134 18.9715L48.5902 18.9587L48.667 18.2099L47.1758 18.0499L47.1854 17.9603L48.8014 16.3555L48.9454 16.3715L47.3454 17.9619L48.675 18.0979L48.7422 17.4371L48.8654 17.4499L48.8014 18.1107L49.3662 18.1683L49.3534 18.2803Z" fill="#263238"/>
<path d="M51.2817 18.4926C51.2369 18.915 50.9105 19.211 50.3217 19.1502C50.1542 19.1406 49.9907 19.0952 49.8423 19.0171C49.6938 18.939 49.5637 18.8299 49.4609 18.6974L49.5409 18.6158C49.6357 18.7397 49.7564 18.8415 49.8946 18.9139C50.0327 18.9863 50.1851 19.0276 50.3409 19.035C50.8481 19.0878 51.1249 18.8462 51.1633 18.4782C51.2049 18.0782 50.9905 17.8158 50.2481 17.739L49.7441 17.6878L50.0001 16.4766L51.3393 16.6158L51.3281 16.731L50.0913 16.603L49.8785 17.5854L50.2785 17.627C51.0721 17.7086 51.3281 18.0318 51.2817 18.4926Z" fill="#263238"/>
<path d="M22.9004 71.707L21.8828 75.4686L25.19 75.7694L25.8844 72.1886L22.9004 71.707Z" fill="#294C88"/>
<path d="M25.283 75.4616C25.1229 75.473 24.962 75.4677 24.803 75.4456C24.5054 75.4216 24.0958 75.3752 23.643 75.3176L22.4878 75.1576C22.3255 75.1453 22.1648 75.1175 22.0078 75.0744C22.1681 75.0652 22.3288 75.0716 22.4878 75.0936C22.7854 75.1176 23.195 75.164 23.6478 75.2216L24.803 75.3816C24.965 75.3945 25.1256 75.4213 25.283 75.4616Z" fill="#263238"/>
<g opacity="0.6">
<path opacity="0.6" d="M21.8828 75.4669L25.19 75.7677L25.2428 75.4925L21.9788 75.0781L21.8876 75.4285" fill="white"/>
</g>
<path d="M23.5195 75.2976C23.7053 74.3316 23.9403 73.3757 24.2235 72.4336C24.1421 72.9189 24.0353 73.3995 23.9035 73.8736C23.8002 74.3546 23.6721 74.8299 23.5195 75.2976Z" fill="#263238"/>
<path d="M25.1038 75.4387C25.1557 75.2085 25.1557 74.9697 25.1038 74.7395C25.0457 74.4922 24.9206 74.2658 24.7422 74.0851C24.5197 73.868 24.2293 73.7341 23.9198 73.7059C23.6107 73.6739 23.2997 73.7448 23.035 73.9075C22.8201 74.0438 22.643 74.232 22.5198 74.4547C22.4102 74.6637 22.3392 74.8908 22.3102 75.1251C22.3081 75.1086 22.3081 75.0919 22.3102 75.0755C22.3096 75.0279 22.3122 74.9803 22.3182 74.9331C22.3412 74.7569 22.3954 74.5863 22.4782 74.4291C22.5997 74.1927 22.7805 73.992 23.003 73.8467C23.2801 73.6715 23.6082 73.5948 23.9342 73.6291C24.2611 73.6588 24.5674 73.802 24.7998 74.0339C24.9839 74.2261 25.1103 74.4661 25.1646 74.7267C25.2004 74.9009 25.2004 75.0805 25.1646 75.2547C25.1543 75.3016 25.1404 75.3476 25.123 75.3923C25.1187 75.4085 25.1123 75.4242 25.1038 75.4387Z" fill="#263238"/>
<path d="M36.5389 71.2757L36.3421 74.2373C36.3421 74.2373 39.2893 75.2149 39.3069 75.7653L33.5469 75.8069L33.6637 71.1797L36.5389 71.2757Z" fill="#294C88"/>
<g opacity="0.6">
<path opacity="0.6" d="M34.5723 73.937C34.5164 73.9524 34.4681 73.9878 34.4366 74.0365C34.405 74.0851 34.3924 74.1437 34.4011 74.201C34.4142 74.2577 34.4486 74.3071 34.4972 74.339C34.5458 74.3709 34.6048 74.3828 34.6619 74.3722C34.721 74.3557 34.7719 74.318 34.8049 74.2664C34.838 74.2147 34.8509 74.1527 34.8411 74.0922C34.8214 74.0348 34.7802 73.9873 34.7263 73.9596C34.6723 73.9319 34.6097 73.9261 34.5515 73.9434" fill="white"/>
</g>
<g opacity="0.6">
<path opacity="0.6" d="M33.5469 75.811L33.5773 75.3438L39.1229 75.5038C39.1815 75.534 39.2316 75.5783 39.2688 75.6328C39.3059 75.6873 39.3289 75.7502 39.3357 75.8158L33.5469 75.811Z" fill="white"/>
</g>
<path d="M36.4369 74.2124C36.4369 74.2412 36.2945 74.2492 36.1521 74.3356C36.0097 74.422 35.9345 74.5372 35.9089 74.526C35.8833 74.5148 35.9297 74.3532 36.1025 74.2508C36.2753 74.1484 36.4433 74.1868 36.4369 74.2124Z" fill="#263238"/>
<path d="M37.0319 74.4817C37.0319 74.5089 36.9151 74.5521 36.8159 74.6689C36.7167 74.7857 36.6847 74.9089 36.6559 74.9073C36.6271 74.9057 36.6143 74.7473 36.7407 74.6033C36.8671 74.4593 37.0335 74.4545 37.0319 74.4817Z" fill="#263238"/>
<path d="M37.3549 75.2131C37.3293 75.2131 37.2941 75.0755 37.3709 74.9251C37.4477 74.7747 37.5822 74.7155 37.5934 74.7395C37.6046 74.7635 37.5197 74.8435 37.4589 74.9683C37.3981 75.0931 37.3837 75.2115 37.3549 75.2131Z" fill="#263238"/>
<path d="M36.4081 73.5308C36.3953 73.5564 36.2673 73.5132 36.1089 73.5196C35.9505 73.526 35.8241 73.5724 35.8097 73.5468C35.7953 73.5212 35.9185 73.4269 36.1057 73.4221C36.2929 73.4173 36.4225 73.51 36.4081 73.5308Z" fill="#263238"/>
<g opacity="0.3">
<path opacity="0.3" d="M36.5007 71.8639L36.4655 72.3919L33.6367 72.2799L33.6479 71.8047L36.5007 71.8639Z" fill="black"/>
</g>
<path d="M36.4365 72.9356C36.3413 72.9582 36.2419 72.9548 36.1485 72.926C36.045 72.9042 35.9445 72.8698 35.8493 72.8236C35.7937 72.7968 35.7402 72.7658 35.6893 72.7308C35.6572 72.7124 35.6285 72.6886 35.6045 72.6604C35.5864 72.6399 35.5758 72.6139 35.5744 72.5866C35.5729 72.5593 35.5807 72.5323 35.5965 72.51C35.6114 72.4912 35.6303 72.4759 35.6519 72.4654C35.6735 72.4549 35.6972 72.4493 35.7213 72.4492C35.7578 72.4499 35.794 72.4564 35.8285 72.4684C35.8897 72.485 35.9492 72.5075 36.0061 72.5356C36.1022 72.5821 36.1903 72.6436 36.2669 72.718C36.3965 72.846 36.4397 72.9516 36.4269 72.9564C36.4141 72.9612 36.3517 72.8764 36.2189 72.7692C36.1417 72.7076 36.0567 72.6565 35.9661 72.6172C35.9145 72.594 35.8609 72.5752 35.8061 72.5612C35.7453 72.5436 35.6941 72.5404 35.6765 72.5612C35.6589 72.582 35.6765 72.5756 35.6765 72.5932C35.6949 72.6134 35.7159 72.6312 35.7389 72.646C35.789 72.6802 35.8386 72.7106 35.8877 72.7372C35.9757 72.784 36.0678 72.8226 36.1629 72.8524C36.2557 72.8744 36.3471 72.9022 36.4365 72.9356Z" fill="#263238"/>
<path d="M36.3966 72.9727C36.3457 72.888 36.3223 72.7897 36.3294 72.6911C36.3264 72.5223 36.3707 72.356 36.4574 72.2111C36.4738 72.1735 36.4997 72.1408 36.5325 72.1161C36.5653 72.0915 36.6039 72.0757 36.6446 72.0703C36.6704 72.0714 36.6954 72.08 36.7164 72.095C36.7375 72.1101 36.7536 72.131 36.763 72.1551C36.7767 72.1889 36.7858 72.2245 36.7902 72.2607C36.8002 72.3472 36.793 72.4348 36.7692 72.5186C36.7453 72.6023 36.7051 72.6805 36.651 72.7487C36.5342 72.8959 36.4158 72.9247 36.4142 72.9087C36.4126 72.8927 36.5054 72.8431 36.595 72.7023C36.6471 72.6215 36.6809 72.5303 36.6942 72.4351C36.7022 72.3794 36.7022 72.3228 36.6942 72.2671C36.6942 72.2063 36.6654 72.1567 36.643 72.1615C36.6206 72.1663 36.5646 72.2047 36.539 72.2527C36.5093 72.304 36.4837 72.3575 36.4622 72.4127C36.4277 72.5042 36.4062 72.6001 36.3982 72.6975C36.3854 72.8623 36.4126 72.9679 36.3966 72.9727Z" fill="#263238"/>
<path d="M24.0516 25.1402C24.0516 25.1402 23.426 28.5482 22.9316 30.6106C22.5412 32.2107 21.5332 35.2155 23.3588 36.0875C25.1844 36.9595 27.6324 33.4379 27.6324 33.4379L28.674 25.4154C27.9492 25.5514 27.1268 26.393 26.2516 27.6298L26.4116 24.5898L24.0516 25.1402Z" fill="#455A64"/>
<path d="M49.1729 30.1765L48.2129 30.6341L47.3281 29.2469L47.8449 28.1765C47.8945 28.0773 47.9473 27.9669 48.0049 27.8389C48.0689 27.6891 48.1073 27.5295 48.1185 27.3669C48.1408 27.1667 48.136 26.9643 48.1041 26.7653C48.0561 26.5861 48.2449 26.4453 48.3729 26.5445C48.5009 26.6437 48.6449 27.1365 48.5505 27.7269C48.4561 28.3173 49.1409 27.6917 49.3953 27.4677C49.6497 27.2437 50.4673 26.5909 50.5969 26.6165C50.7841 26.6533 50.7793 26.8677 50.5201 27.0837C50.2609 27.2997 49.5297 28.0085 49.6497 28.1397C49.7996 28.1566 49.9406 28.2198 50.053 28.3204C50.1654 28.421 50.2436 28.5542 50.2769 28.7013C50.3409 28.9909 50.3937 29.3925 50.2305 29.5253C49.8924 29.7649 49.5391 29.9824 49.1729 30.1765Z" fill="#FFBE9D"/>
<path d="M30.5608 17.2435L30.5352 25.5811L34.1096 25.7571L34.2136 23.7299C34.2136 23.7299 35.484 23.9827 35.8135 22.8019C36.0231 22.0483 35.9735 16.2227 35.9735 16.2227L30.5608 17.2435Z" fill="#FFBE9D"/>
<path d="M36.779 17.0383C36.5374 17.5359 35.3902 18.4479 35.3902 18.4479L34.8718 19.8367C34.4221 19.4847 33.8174 19.5055 33.7038 20.2959C33.6206 20.8687 34.331 20.9839 34.331 20.9839C33.9166 21.6879 33.6365 22.2639 33.0349 22.9263C32.3821 23.6527 32.0173 23.7263 31.3101 23.7375H30.5293C30.5293 23.7375 28.9293 22.4031 29.2493 18.8911C29.5693 15.3791 32.723 16.4047 33.4766 15.5311C34.7038 14.0975 37.5838 15.3759 36.779 17.0383Z" fill="#263238"/>
<path d="M29.4258 21.8267H29.525C29.6202 21.825 29.715 21.8143 29.8082 21.7947C30.1502 21.7169 30.4661 21.5515 30.725 21.3147C31.0961 20.9503 31.4091 20.531 31.653 20.0715C31.813 19.8203 31.9634 19.5531 32.1554 19.2955C32.3488 19.0248 32.5862 18.7885 32.8578 18.5963C33.1372 18.4154 33.4457 18.2838 33.7698 18.2075C34.0802 18.1275 34.3858 18.0779 34.6738 18.0219C35.2498 17.9147 35.7666 17.7547 36.1138 17.4811C36.3979 17.2732 36.6037 16.9756 36.6978 16.6363C36.7205 16.5441 36.7323 16.4496 36.733 16.3547C36.733 16.2891 36.733 16.2539 36.733 16.2539C36.733 16.2539 36.733 16.2891 36.7442 16.3547C36.7463 16.4505 36.7366 16.5461 36.7154 16.6395C36.6244 16.9841 36.419 17.2877 36.133 17.5003C35.7778 17.7787 35.2562 17.9435 34.6802 18.0507C34.3906 18.1083 34.0866 18.1579 33.7778 18.2395C33.4575 18.3156 33.1523 18.4455 32.8754 18.6235C32.6079 18.8147 32.3734 19.0482 32.181 19.3147C31.9906 19.5707 31.8322 19.8363 31.6802 20.0875C31.4333 20.5485 31.1165 20.9684 30.741 21.3323C30.4788 21.5714 30.1581 21.737 29.8114 21.8123C29.717 21.8308 29.6211 21.8399 29.525 21.8395C29.4594 21.8315 29.4258 21.8267 29.4258 21.8267Z" fill="#455A64"/>
<path d="M29.2422 18.9724C29.2422 18.9724 29.2982 18.95 29.4022 18.9148C29.5614 18.8587 29.726 18.8196 29.8934 18.798C30.1598 18.7574 30.4319 18.8142 30.6598 18.958C30.7302 19.0048 30.7906 19.0651 30.8376 19.1354C30.8845 19.2057 30.9171 19.2846 30.9334 19.3676C30.9525 19.4612 30.9478 19.5581 30.9199 19.6495C30.8919 19.7409 30.8416 19.8238 30.7734 19.8908C30.6957 19.9591 30.5968 19.9986 30.4934 20.0028C30.3859 20.0043 30.2801 19.9761 30.1878 19.9212C29.9919 19.8049 29.846 19.6202 29.7782 19.4028C29.7012 19.1736 29.6906 18.9273 29.7478 18.6924C29.8067 18.4441 29.9415 18.2204 30.1334 18.0524C30.3342 17.8723 30.5867 17.7603 30.855 17.7324C31.1328 17.715 31.4114 17.7508 31.6758 17.838C31.9478 17.9253 32.2259 17.9921 32.5078 18.038C32.7988 18.0764 33.0936 18.0764 33.3846 18.038C33.6759 18.0033 33.9602 17.9245 34.2278 17.8044C34.3587 17.7516 34.4768 17.6715 34.5742 17.5694C34.6716 17.4673 34.7461 17.3456 34.7926 17.2124C34.8307 17.0819 34.8335 16.9437 34.8006 16.8118C34.7677 16.6799 34.7003 16.5592 34.6054 16.462C34.5089 16.3747 34.3887 16.318 34.26 16.2989C34.1313 16.2798 33.9999 16.2993 33.8822 16.3548C33.7677 16.4051 33.6739 16.4932 33.6166 16.6044C33.562 16.7137 33.5419 16.837 33.559 16.958C33.5753 17.0738 33.6162 17.1848 33.6788 17.2835C33.7414 17.3823 33.8244 17.4666 33.9222 17.5308C34.1104 17.6462 34.327 17.7072 34.5478 17.7068C34.7514 17.7104 34.9541 17.6801 35.1478 17.6172C35.4833 17.5116 35.788 17.326 36.0358 17.0764C36.2243 16.8908 36.3796 16.6743 36.495 16.4364C36.5678 16.2828 36.6241 16.1219 36.663 15.9564C36.6838 15.8444 36.6982 15.7852 36.6982 15.7852L36.6694 15.958C36.6339 16.1234 36.5802 16.2843 36.5094 16.438C36.3964 16.6803 36.2415 16.9008 36.0518 17.0892C35.8035 17.3426 35.497 17.5316 35.159 17.6396C34.9626 17.703 34.7573 17.7343 34.551 17.7324C34.3253 17.7338 34.1037 17.6723 33.911 17.5548C33.8094 17.4888 33.7232 17.4018 33.658 17.2997C33.5929 17.1976 33.5504 17.0827 33.5334 16.9628C33.5145 16.8359 33.5352 16.7063 33.5926 16.5916C33.6533 16.4744 33.752 16.3813 33.8726 16.3276C33.9959 16.2691 34.1338 16.2485 34.2688 16.2685C34.4038 16.2884 34.5298 16.3479 34.631 16.4396C34.7299 16.5407 34.8002 16.6662 34.8348 16.8034C34.8694 16.9406 34.8669 17.0844 34.8278 17.2204C34.7798 17.3582 34.703 17.4842 34.6026 17.5901C34.5022 17.696 34.3804 17.7794 34.2454 17.8348C33.9745 17.9558 33.6871 18.0356 33.3926 18.0716C33.0983 18.1092 32.8005 18.1092 32.5062 18.0716C32.2233 18.0253 31.9441 17.9585 31.671 17.8716C31.4101 17.7859 31.1356 17.7495 30.8614 17.7644C30.6754 17.7842 30.4962 17.8454 30.337 17.9437C30.1778 18.0419 30.0426 18.1745 29.9415 18.3319C29.8403 18.4892 29.7757 18.6672 29.7524 18.8528C29.7292 19.0384 29.7478 19.2269 29.807 19.4044C29.8728 19.6154 30.0141 19.7948 30.2038 19.9084C30.2918 19.961 30.3924 19.9887 30.495 19.9884C30.593 19.9847 30.6868 19.9474 30.7606 19.8828C30.8254 19.818 30.8732 19.7383 30.8997 19.6507C30.9262 19.563 30.9307 19.4701 30.9126 19.3804C30.8805 19.2188 30.7862 19.0764 30.6502 18.9836C30.4259 18.8412 30.1578 18.7844 29.895 18.8236C29.7285 18.8436 29.5644 18.8806 29.4054 18.934L29.2422 18.9724Z" fill="#455A64"/>
<path d="M26.8827 41.668L22.1211 72.9448L26.0763 73.4456L31.6555 47.2136L33.0619 73.6232L37.3483 73.548L36.6379 41.7416L26.8827 41.668Z" fill="#263238"/>
<path d="M32.9865 73.7049V73.6281L31.6137 47.8233L26.1401 73.5369L22.0312 73.0153L26.8153 41.5977L36.7177 41.6713L37.4312 73.6361L32.9865 73.7049ZM31.7064 46.6057L33.1465 73.5433L37.2761 73.4713L36.5688 41.8233L26.9529 41.7577L22.2137 72.8761L26.0137 73.3561L31.7064 46.6057Z" fill="#263238"/>
<path d="M36.0729 73.4982C36.0489 73.4982 36.0312 67.2326 36.0312 59.5046C36.0312 51.7766 36.0489 45.5078 36.0729 45.5078C36.0968 45.5078 36.1144 51.7734 36.1144 59.5046C36.1144 67.2358 36.0952 73.4982 36.0729 73.4982Z" fill="#455A64"/>
<path d="M25.207 73.3874C25.2081 73.3647 25.2113 73.3422 25.2166 73.3202C25.2166 73.2706 25.2374 73.205 25.2534 73.1218C25.287 72.9442 25.3366 72.6882 25.399 72.3618C25.5334 71.6978 25.719 70.7458 25.9606 69.5698C26.4406 67.213 27.1206 63.9618 27.9014 60.3778C28.6822 56.7938 29.4166 53.5522 29.9606 51.2114C30.2342 50.0434 30.4566 49.0978 30.6118 48.4386C30.6902 48.1186 30.7526 47.8626 30.7942 47.6866C30.815 47.6034 30.8326 47.5394 30.8438 47.4914C30.8493 47.4691 30.8562 47.4472 30.8646 47.4258C30.8646 47.4258 30.8646 47.4482 30.8518 47.493C30.839 47.5378 30.8294 47.6066 30.8118 47.6898C30.7718 47.8674 30.7158 48.1218 30.6438 48.4466C30.495 49.1058 30.2822 50.0466 30.0182 51.2242C29.4886 53.5698 28.7638 56.8114 27.983 60.3954C27.2022 63.9794 26.5126 67.229 26.0182 69.581C25.7702 70.7554 25.5702 71.7058 25.431 72.3682C25.3622 72.6882 25.3078 72.9474 25.271 73.125L25.2262 73.3218C25.222 73.3442 25.2156 73.3662 25.207 73.3874Z" fill="#455A64"/>
<path d="M33.0616 47.1857C33.0027 47.2015 32.9419 47.2096 32.8808 47.2097L32.3864 47.2449C31.9688 47.2721 31.3912 47.3009 30.7576 47.3633C30.124 47.4257 29.5528 47.5121 29.1384 47.5665L28.6472 47.6289C28.5872 47.6405 28.5259 47.6442 28.4648 47.6401C28.5222 47.6191 28.5818 47.6046 28.6424 47.5969C28.756 47.5729 28.9224 47.5425 29.1224 47.5073C29.5352 47.4385 30.1064 47.3473 30.7432 47.2801C31.38 47.2129 31.9592 47.1985 32.3768 47.1857C32.5864 47.1857 32.756 47.1777 32.8728 47.1777C32.9359 47.1735 32.9992 47.1762 33.0616 47.1857Z" fill="#455A64"/>
<path d="M36.7231 45.1582C36.6841 45.1753 36.6424 45.1856 36.5999 45.1886C36.4855 45.2052 36.3698 45.2105 36.2543 45.2046C35.8702 45.1841 35.5 45.0535 35.188 44.8286C34.876 44.6036 34.6352 44.2937 34.4943 43.9358C34.4517 43.8283 34.4201 43.7168 34.3999 43.603C34.3855 43.523 34.3839 43.4782 34.3903 43.4766C34.3967 43.475 34.4319 43.6526 34.5503 43.9118C34.7036 44.2502 34.9417 44.5434 35.2415 44.763C35.5444 44.9774 35.8978 45.1092 36.2671 45.1454C36.5423 45.1742 36.7199 45.1422 36.7231 45.1582Z" fill="#455A64"/>
<path d="M26.0664 42.285L37.0232 42.2498L36.4232 35.0194C36.3576 33.365 36.3672 33.1666 36.3256 31.6402C36.3256 31.6402 37.8808 33.5202 39.1048 34.8402C39.4655 35.228 39.9403 35.4909 40.4604 35.5908C40.9806 35.6906 41.519 35.6222 41.9976 35.3954L48.3976 30.9298L47.1992 27.8626L41.3832 31.4226C41.116 31.2626 38.852 28.0258 37.2872 26.4498C36.2853 25.4411 34.934 24.8562 33.5128 24.8162C32.3334 24.7886 31.1534 24.8362 29.98 24.9586C29.1253 25.0501 28.3291 25.4366 27.7285 26.0515C27.1278 26.6665 26.7602 27.4715 26.6888 28.3282C26.5752 29.6802 26.6664 31.2498 26.6664 33.917L26.0664 42.285Z" fill="#455A64"/>
<path d="M26.582 29.0586C26.582 29.0586 26.582 29.089 26.582 29.1434C26.582 29.1978 26.582 29.289 26.582 29.385C26.582 29.5962 26.582 29.9002 26.582 30.2762C26.582 31.0282 26.6156 32.065 26.6492 33.2122C26.6828 34.3594 26.6876 35.3994 26.6588 36.1498C26.646 36.5258 26.6284 36.8298 26.6108 37.0394C26.6108 37.137 26.5964 37.217 26.5916 37.281C26.5868 37.345 26.582 37.3642 26.582 37.3642C26.582 37.3642 26.582 37.3354 26.582 37.281C26.582 37.2266 26.59 37.1354 26.5948 37.0394C26.6092 36.8298 26.622 36.5258 26.6316 36.1498C26.654 35.3978 26.6444 34.3594 26.6124 33.2122C26.5804 32.065 26.5532 31.0282 26.5548 30.2762C26.5548 29.9002 26.5548 29.5962 26.566 29.385C26.566 29.2874 26.566 29.209 26.574 29.1434C26.582 29.0778 26.582 29.0586 26.582 29.0586Z" fill="#263238"/>
<path d="M41.1445 32.4581C41.1464 32.4073 41.1539 32.3569 41.1669 32.3077C41.1861 32.2149 41.2133 32.0869 41.2469 31.9477C41.2805 31.8085 41.3109 31.6805 41.3349 31.5909C41.3444 31.5407 41.3599 31.4918 41.3813 31.4453C41.3793 31.4962 41.3713 31.5467 41.3573 31.5957C41.3397 31.6885 41.3109 31.8149 41.2789 31.9557C41.2469 32.0965 41.2149 32.2213 41.1909 32.3125C41.1808 32.3626 41.1653 32.4114 41.1445 32.4581Z" fill="#263238"/>
<path d="M41.7304 32.5467C41.6692 32.3579 41.6195 32.1656 41.5816 31.9707C41.5323 31.7783 41.4934 31.5833 41.4648 31.3867C41.5252 31.5758 41.5749 31.7681 41.6136 31.9627C41.6629 32.1552 41.7019 32.3501 41.7304 32.5467Z" fill="#263238"/>
<path d="M36.5985 31.9109L36.5393 31.8565L36.3713 31.6965C36.2273 31.5557 36.0193 31.3493 35.7697 31.0853C35.4771 30.7784 35.2045 30.4529 34.9537 30.1109C34.6435 29.6922 34.3931 29.2323 34.2097 28.7445C34.0243 28.2557 33.941 27.734 33.9649 27.2117C33.9729 26.7852 34.0665 26.3646 34.2401 25.9749C34.3644 25.7143 34.5493 25.4871 34.7793 25.3125C34.841 25.2657 34.9057 25.2229 34.9729 25.1845L35.0449 25.1445C35.0449 25.1445 34.9457 25.1989 34.7873 25.3221C34.5628 25.499 34.3826 25.7258 34.2609 25.9845C34.092 26.3725 34.0018 26.7902 33.9953 27.2133C33.973 27.7315 34.0568 28.2488 34.2417 28.7333C34.4241 29.218 34.6717 29.6756 34.9777 30.0933C35.2273 30.435 35.4977 30.7609 35.7873 31.0693C36.0337 31.3349 36.2385 31.5493 36.3809 31.6885L36.5409 31.8485C36.5809 31.8901 36.5985 31.9109 36.5985 31.9109Z" fill="#263238"/>
<path d="M29.4755 28.9359C29.3308 28.8191 29.2041 28.6816 29.0995 28.5279C28.9746 28.3911 28.87 28.2369 28.7891 28.0703C28.9335 28.1868 29.0602 28.3237 29.1651 28.4767C29.2906 28.6137 29.3952 28.7684 29.4755 28.9359Z" fill="#FAFAFA"/>
<path d="M31.9671 31.7617C31.8154 31.9717 31.6416 32.1648 31.4487 32.3377C31.275 32.5305 31.0814 32.7042 30.8711 32.8561C31.1965 32.4534 31.5639 32.0865 31.9671 31.7617Z" fill="#FAFAFA"/>
<path d="M34.3755 35.8166C34.3531 35.8166 34.2651 35.5766 34.1019 35.2998C33.9387 35.023 33.7691 34.8198 33.7819 34.8086C33.947 34.9233 34.0802 35.078 34.1691 35.2582C34.2834 35.4242 34.3544 35.6162 34.3755 35.8166Z" fill="#FAFAFA"/>
<path d="M28.1309 35.3564C27.8874 34.8456 27.7878 34.2781 27.8429 33.7148C27.8685 33.7148 27.8749 34.0892 27.9565 34.5404C28.0381 34.9916 28.1629 35.3468 28.1309 35.3564Z" fill="#FAFAFA"/>
<path d="M31.4466 37.1423C31.2472 36.7129 31.2042 36.2273 31.325 35.7695C31.349 35.7695 31.3138 36.0815 31.349 36.4591C31.3842 36.8367 31.4706 37.1343 31.4466 37.1423Z" fill="#FAFAFA"/>
<path d="M30.1327 39.7362C29.8687 39.6212 29.6168 39.4803 29.3807 39.3154C29.1294 39.1745 28.8921 39.01 28.6719 38.8242C28.9363 38.9394 29.1887 39.0803 29.4255 39.245C29.6763 39.3859 29.9131 39.5503 30.1327 39.7362Z" fill="#FAFAFA"/>
<path d="M35.2914 38.9727C35.3026 38.9951 34.9314 39.1791 34.501 39.4527C34.0706 39.7263 33.7426 39.9807 33.7266 39.9615C33.9393 39.7329 34.1853 39.5376 34.4562 39.3823C34.7121 39.204 34.9937 39.0658 35.2914 38.9727Z" fill="#FAFAFA"/>
<path d="M28.8013 41.902C28.5314 41.8894 28.2634 41.8498 28.0013 41.7836C27.7316 41.7439 27.4667 41.6763 27.2109 41.582C27.481 41.5948 27.749 41.635 28.0109 41.702C28.2805 41.7417 28.5453 41.8087 28.8013 41.902Z" fill="#FAFAFA"/>
<path d="M32.2655 41.3382C31.9602 41.0421 31.7531 40.6596 31.6719 40.2422C31.6943 40.2422 31.7935 40.495 31.9583 40.7958C32.1231 41.0966 32.2847 41.3222 32.2655 41.3382Z" fill="#FAFAFA"/>
<path d="M36.1633 41.6102C36.1033 41.7456 36.0187 41.8688 35.9137 41.9734C35.7537 42.159 35.6193 42.2934 35.5938 42.2838C35.6525 42.1467 35.7373 42.0223 35.8433 41.9174C36.0033 41.735 36.1393 41.5974 36.1633 41.6102Z" fill="#FAFAFA"/>
<path d="M29.0348 30.6133C29.0476 30.6325 28.9052 30.7509 28.7148 30.8757C28.6067 30.9642 28.4822 31.0305 28.3484 31.0709C28.3356 31.0517 28.4796 30.9333 28.6684 30.8069C28.7764 30.7185 28.901 30.6526 29.0348 30.6133Z" fill="#FAFAFA"/>
<path d="M31.7371 27.598C31.6087 27.3357 31.512 27.0591 31.4491 26.774C31.3625 26.4959 31.3088 26.2086 31.2891 25.918C31.3896 26.1903 31.4708 26.4694 31.5323 26.7532C31.6205 27.0296 31.6889 27.3119 31.7371 27.598Z" fill="#FAFAFA"/>
<path d="M34.3327 30.3423C34.3215 30.3647 34.0879 30.2751 33.7887 30.2191C33.4895 30.1631 33.2383 30.1583 33.2383 30.1327C33.6164 30.0669 34.0056 30.1414 34.3327 30.3423Z" fill="#FAFAFA"/>
<path d="M36.113 28.01C35.9142 28.0681 35.704 28.0752 35.5018 28.0308C35.2956 28.013 35.0974 27.9431 34.9258 27.8276C34.9354 27.8052 35.1882 27.8996 35.5146 27.9476C35.841 27.9956 36.1098 27.986 36.113 28.01Z" fill="#FAFAFA"/>
<path d="M37.9369 30.6117C37.9068 30.3173 37.9219 30.02 37.9817 29.7301C38.0159 29.4358 38.0958 29.1486 38.2185 28.8789C38.2409 28.8789 38.1401 29.2661 38.0585 29.7429C37.9769 30.2197 37.9625 30.6133 37.9369 30.6117Z" fill="#FAFAFA"/>
<path d="M40.0784 33.6786C39.6796 33.3453 39.318 32.9698 39 32.5586C39.3978 32.893 39.7593 33.2684 40.0784 33.6786Z" fill="#FAFAFA"/>
<path d="M41.8627 33.4375C41.6973 33.7992 41.4819 34.1358 41.2227 34.4375C41.2937 34.2505 41.3906 34.0744 41.5107 33.9143C41.605 33.7396 41.7235 33.5791 41.8627 33.4375Z" fill="#FAFAFA"/>
<path d="M43.9324 32.4313C43.7931 32.241 43.6771 32.0347 43.5868 31.8169C43.4717 31.6105 43.381 31.3914 43.3164 31.1641C43.4555 31.355 43.5715 31.5618 43.662 31.7801C43.777 31.986 43.8677 32.2045 43.9324 32.4313Z" fill="#FAFAFA"/>
<path d="M46.7451 31.267C46.2515 31.2361 45.763 31.1492 45.2891 31.0078C45.537 31.0103 45.7838 31.0404 46.0251 31.0974C46.2707 31.1265 46.5122 31.1834 46.7451 31.267Z" fill="#FAFAFA"/>
<path d="M24.3789 34.2662C24.5498 33.7693 24.774 33.2923 25.0477 32.8438C24.9746 33.0963 24.8748 33.3403 24.7501 33.5718C24.6512 33.8157 24.5268 34.0484 24.3789 34.2662Z" fill="#FAFAFA"/>
<path d="M25.8727 31.63C25.6939 31.4901 25.5327 31.3289 25.3928 31.15C25.2313 30.9894 25.089 30.8106 24.9688 30.6172C25.1482 30.7565 25.3094 30.9178 25.4487 31.0972C25.611 31.2571 25.7534 31.436 25.8727 31.63Z" fill="#FAFAFA"/>
<path d="M25.7456 35.8584C25.76 35.876 25.6496 35.9928 25.4992 36.1192C25.3488 36.2456 25.2128 36.332 25.1968 36.3144C25.1808 36.2968 25.2944 36.18 25.4448 36.0552C25.5952 35.9304 25.7312 35.8376 25.7456 35.8584Z" fill="#FAFAFA"/>
<path d="M26.2504 28.8296C26.2696 28.844 26.2024 28.9576 26.1016 29.084C26.0008 29.2104 25.9032 29.3 25.8856 29.2856C25.868 29.2712 25.9352 29.1576 26.036 29.0312C26.1368 28.9048 26.2408 28.8152 26.2504 28.8296Z" fill="#FAFAFA"/>
<g opacity="0.3">
<path opacity="0.3" d="M34.6133 29.5586C35.2901 31.685 35.8117 33.917 36.4885 36.0434L36.3285 31.6402C35.6703 31.0223 35.0939 30.3228 34.6133 29.5586Z" fill="black"/>
</g>
<path d="M23.6055 32.3401C23.611 32.3225 23.618 32.3054 23.6263 32.2889L23.6903 32.1401C23.7479 32.0121 23.8327 31.8297 23.9415 31.6041C24.1591 31.1529 24.4727 30.5369 24.8503 29.8713C25.2279 29.2057 25.5943 28.6201 25.8695 28.2025C26.0071 27.9929 26.1207 27.8249 26.2007 27.7113L26.2935 27.5801C26.3159 27.5497 26.3271 27.5337 26.3287 27.5353L26.2999 27.5833L26.2119 27.7177L25.8919 28.2153C25.6215 28.6361 25.2519 29.2233 24.8823 29.8873C24.5127 30.5513 24.1879 31.1673 23.9671 31.6137L23.7063 32.1465C23.6791 32.2009 23.6551 32.2489 23.6359 32.2905C23.6275 32.308 23.6173 32.3247 23.6055 32.3401Z" fill="#263238"/>
<path d="M24.6842 30.3047C24.6271 30.333 24.5683 30.3576 24.5081 30.3783C24.3691 30.439 24.2362 30.5129 24.1113 30.5991C23.9873 30.6862 23.872 30.7854 23.7673 30.8951C23.6857 30.9799 23.6409 31.0359 23.6377 31.0327C23.6345 31.0295 23.6377 31.0167 23.6633 30.9895C23.6899 30.951 23.7187 30.9141 23.7497 30.8791C23.8504 30.7626 23.9655 30.6594 24.0921 30.5719C24.2188 30.484 24.3559 30.412 24.5001 30.3575C24.5436 30.3406 24.5879 30.3261 24.6329 30.3143C24.6495 30.3087 24.6667 30.3055 24.6842 30.3047Z" fill="#263238"/>
<path d="M24.836 27.0234C24.699 27.2855 24.5383 27.5346 24.356 27.7674C24.1934 28.016 24.0075 28.2485 23.8008 28.4618C23.9385 28.2006 24.0991 27.9522 24.2808 27.7194C24.4437 27.4706 24.6295 27.2376 24.836 27.0234Z" fill="#FAFAFA"/>
<path d="M25.9883 24.4211C26.0676 24.4351 26.1492 24.4242 26.222 24.3898C26.2948 24.3554 26.3552 24.2992 26.3947 24.2291C26.4843 24.0947 26.5259 23.9347 26.6043 23.7939C26.8427 23.3763 27.3835 23.1939 27.6011 22.7651C27.6315 22.7043 27.6491 22.6211 27.6011 22.5795C27.5531 22.5379 27.4811 22.5667 27.4251 22.5939L26.0011 23.3075" fill="#FFBE9D"/>
<path d="M25.9993 23.3053C26.0433 23.2677 26.0923 23.2365 26.1449 23.2125C26.2409 23.1581 26.3833 23.0829 26.5593 22.9901L27.1769 22.6701L27.3577 22.5789C27.4249 22.531 27.508 22.511 27.5897 22.5229C27.6147 22.5325 27.6363 22.5493 27.6517 22.5713C27.6671 22.5932 27.6756 22.6193 27.6761 22.6461C27.6768 22.6905 27.6669 22.7343 27.6473 22.7741C27.6126 22.8446 27.5696 22.9106 27.5193 22.9709C27.3189 23.1734 27.1051 23.3621 26.8793 23.5357C26.7888 23.6149 26.7106 23.7071 26.6473 23.8093C26.5897 23.9069 26.5529 24.0077 26.5081 24.0989C26.4798 24.176 26.4349 24.2459 26.3765 24.3037C26.3182 24.3615 26.2478 24.4057 26.1705 24.4333C26.1424 24.4445 26.112 24.4492 26.0818 24.447C26.0516 24.4448 26.0223 24.4357 25.9961 24.4205C26.0502 24.4224 26.1043 24.4154 26.1561 24.3997C26.2238 24.3689 26.2845 24.3246 26.3346 24.2696C26.3846 24.2146 26.423 24.15 26.4473 24.0797C26.4858 23.9778 26.5296 23.8779 26.5785 23.7805C26.643 23.6697 26.7239 23.5694 26.8185 23.4829C27.0426 23.3084 27.2563 23.1209 27.4585 22.9213C27.5031 22.866 27.5422 22.8066 27.5753 22.7437C27.6041 22.6845 27.6041 22.6221 27.5753 22.6141C27.5465 22.6061 27.4729 22.6333 27.4153 22.6637L27.2345 22.7533L26.6073 23.0573C26.4281 23.1421 26.2873 23.2173 26.1801 23.2541C26.1228 23.2804 26.0618 23.2976 25.9993 23.3053Z" fill="#EB996E"/>
<path d="M70.6592 67.2617H60.5312V68.6537H70.6592V67.2617Z" fill="#263238"/>
<path d="M70.6733 68.6717H60.5117V67.2461H70.6733V68.6717ZM60.5469 68.6413H70.6381V67.2845H60.5469V68.6413Z" fill="#263238"/>
<path d="M61.4688 68.1914L62.9264 75.3818H68.32L69.728 68.6538L61.4688 68.1914Z" fill="#263238"/>
<path d="M61.4688 74.6992L62.2464 75.768H68.8016L69.728 74.6992H61.4688Z" fill="#455A64"/>
<path d="M65.2145 68.3972C65.1937 68.3972 65.1681 65.066 65.1569 60.9572C65.1457 56.8484 65.1569 53.5156 65.1729 53.5156C65.1889 53.5156 65.2177 56.8468 65.2289 60.9572C65.2401 65.0676 65.2337 68.3972 65.2145 68.3972Z" fill="#263238"/>
<path d="M67.4678 60.0625C67.4611 60.0894 67.452 60.1156 67.4406 60.1409L67.3494 60.3553C67.3302 60.4033 67.3078 60.4545 67.2838 60.5153L67.2166 60.7057C67.1926 60.7729 67.1654 60.8449 67.1382 60.9217C67.111 60.9985 67.0902 61.0817 67.063 61.1697C66.9427 61.5767 66.8481 61.9908 66.7798 62.4097C66.7003 62.9235 66.6469 63.4409 66.6198 63.9601C66.5828 64.9048 66.6095 65.851 66.6998 66.7921C66.7334 67.1537 66.7654 67.4465 66.7894 67.6481C66.8006 67.7425 66.8086 67.8193 66.815 67.8801C66.8171 67.9073 66.8171 67.9345 66.815 67.9617C66.8046 67.9367 66.7981 67.9103 66.7958 67.8833C66.7862 67.8225 66.7734 67.7457 66.7574 67.6513C66.7238 67.4513 66.6838 67.1585 66.6454 66.7969C66.5439 65.8522 66.515 64.9012 66.559 63.9521C66.5844 63.4301 66.6378 62.9099 66.719 62.3937C66.7908 61.9724 66.8913 61.5565 67.0198 61.1489C67.047 61.0625 67.071 60.9793 67.0998 60.9025L67.183 60.6865C67.2102 60.6193 67.2342 60.5569 67.2566 60.4977C67.279 60.4385 67.3078 60.3905 67.3286 60.3377L67.4326 60.1281C67.4419 60.105 67.4537 60.083 67.4678 60.0625Z" fill="#263238"/>
<path d="M67.2091 57.3672C67.2006 57.4046 67.1899 57.4414 67.1771 57.4776C67.1499 57.5544 67.1147 57.6568 67.0715 57.7864C67.0475 57.8552 67.0219 57.9288 66.9947 58.0104L66.9131 58.2792C66.8539 58.4728 66.7851 58.6904 66.7243 58.9384C66.6907 59.06 66.6571 59.1896 66.6219 59.3224C66.5867 59.4552 66.5595 59.5992 66.5275 59.7448C66.4571 60.0344 66.4059 60.3496 66.3403 60.6776C66.2283 61.34 66.1307 62.0712 66.0619 62.8424C65.9931 63.6136 65.9707 64.3528 65.9611 65.0248C65.9515 65.6968 65.9611 66.3048 65.9947 66.8072C66.0043 67.0616 66.0203 67.2872 66.0331 67.492C66.0459 67.6968 66.0571 67.8664 66.0699 68.0088C66.0827 68.1512 66.0891 68.2536 66.0955 68.3288C66.0994 68.3666 66.0994 68.4046 66.0955 68.4424C66.0863 68.4057 66.0804 68.3682 66.0779 68.3304L66.0395 68.0104C66.0219 67.8696 66.0043 67.6904 65.9899 67.4952C65.9755 67.3 65.9531 67.0648 65.9403 66.8104C65.9067 66.3032 65.8923 65.6904 65.8907 65.0232C65.8891 64.356 65.9227 63.6104 65.9867 62.8376C66.0507 62.0648 66.1563 61.3288 66.2715 60.6664C66.3387 60.3368 66.3915 60.0264 66.4651 59.7304C66.5003 59.5848 66.5323 59.444 66.5643 59.3096C66.5963 59.1752 66.6379 59.0472 66.6715 58.924C66.7355 58.6776 66.8075 58.4584 66.8715 58.2664L66.9579 57.9992C66.9883 57.9192 67.0171 57.8392 67.0411 57.7768L67.1595 57.4728C67.1739 57.4366 67.1905 57.4014 67.2091 57.3672Z" fill="#263238"/>
<path d="M64.5714 68.9879V68.9495C64.5714 68.9191 64.5714 68.8823 64.5618 68.8343C64.5538 68.7287 64.5442 68.5815 64.5314 68.3943C64.5074 68.0055 64.4738 67.4519 64.4306 66.7703C64.3426 65.4007 64.2146 63.508 63.9842 61.4264C63.8674 60.3864 63.7298 59.3976 63.589 58.5016C63.5122 58.0552 63.445 57.6295 63.3666 57.2327C63.2882 56.8359 63.2194 56.4679 63.1474 56.1319C63.0754 55.7959 63.0066 55.4919 62.9474 55.2279C62.8882 54.9639 62.8322 54.7351 62.7874 54.5479C62.7426 54.3607 62.7074 54.228 62.6834 54.1192C62.6722 54.0728 62.6642 54.0359 62.6578 54.0071C62.6514 53.9783 62.6498 53.9688 62.6578 53.9688C62.6629 53.9807 62.6672 53.993 62.6706 54.0056C62.6706 54.0344 62.6898 54.0696 62.7026 54.116C62.7314 54.2184 62.7714 54.3608 62.821 54.5416C62.8706 54.7224 62.9346 54.9527 62.997 55.2183C63.0594 55.4839 63.1378 55.7847 63.2082 56.1223C63.2786 56.4599 63.3682 56.8248 63.4354 57.2216C63.5026 57.6184 63.5858 58.0439 63.6642 58.4919C63.8098 59.3879 63.949 60.3767 64.0658 61.4183C64.2962 63.4983 64.4162 65.3975 64.4914 66.7687C64.5282 67.4535 64.5538 68.0087 64.5698 68.3927C64.5698 68.5799 64.5826 68.7287 64.5858 68.8343C64.5858 68.8807 64.5858 68.9191 64.5858 68.9495C64.5836 68.9632 64.5787 68.9762 64.5714 68.9879Z" fill="#263238"/>
<path d="M65.1303 55.1188C65.0871 54.6468 64.6103 54.29 64.1351 54.2852C63.8978 54.2957 63.6661 54.3602 63.4573 54.4735C63.2486 54.5869 63.0684 54.7463 62.9303 54.9396C62.6576 55.3292 62.4606 55.7667 62.3495 56.2292C62.0035 57.3369 61.8822 58.5027 61.9927 59.658C62.1287 60.8068 62.5943 61.938 63.4183 62.7492C63.5527 62.882 63.7271 63.0132 63.9111 62.9748C64.01 62.9449 64.0994 62.8898 64.1703 62.8148C64.977 62.0756 65.6164 61.1726 66.0458 60.1662C66.4752 59.1599 66.6845 58.0734 66.6599 56.9796C66.6471 56.5428 66.5895 56.0884 66.3479 55.7252C66.1063 55.362 65.5479 54.9748 65.1303 55.1204" fill="#294C88"/>
<path d="M61.5916 51.3374L60.9244 52.547C60.9084 52.5742 60.8876 52.6062 60.8556 52.6094C60.8236 52.6126 60.7948 52.579 60.7756 52.5502C60.1868 51.6467 59.6002 50.7432 59.0156 49.8398L59.422 49.6094L61.5916 51.3374Z" fill="#294C88"/>
<g opacity="0.2">
<path opacity="0.2" d="M61.5916 51.3374L60.9244 52.547C60.9084 52.5742 60.8876 52.6062 60.8556 52.6094C60.8236 52.6126 60.7948 52.579 60.7756 52.5502C60.1868 51.6467 59.6002 50.7432 59.0156 49.8398L59.422 49.6094L61.5916 51.3374Z" fill="black"/>
</g>
<path d="M65.173 53.5175L59.1522 49.9639C59.0858 49.9358 59.033 49.883 59.005 49.8167C58.981 49.7271 59.0482 49.6423 59.1122 49.5751C59.5261 49.1454 60.0278 48.8101 60.5831 48.592C61.1383 48.3738 61.7341 48.278 62.3298 48.3111C62.925 48.3542 63.5008 48.5415 64.0076 48.8567C64.5143 49.172 64.9368 49.6058 65.2386 50.1207C65.8194 51.1591 65.8386 52.5319 65.173 53.5175Z" fill="#294C88"/>
<path d="M60.0195 48.8337C60.045 48.8263 60.0714 48.8226 60.0979 48.8225C60.1507 48.8225 60.2275 48.8113 60.3251 48.8129C60.6055 48.8092 60.8856 48.8311 61.1619 48.8785C62.0789 49.0338 62.9326 49.4475 63.6227 50.071C64.3128 50.6945 64.8107 51.5019 65.0579 52.3985C65.1328 52.6681 65.1831 52.9439 65.2083 53.2225C65.2114 53.2811 65.2114 53.3399 65.2083 53.3985C65.2043 53.4455 65.1883 53.4906 65.1619 53.5297C65.1805 53.4294 65.1838 53.3269 65.1715 53.2257C65.1367 52.9507 65.08 52.6789 65.0019 52.4129C64.6993 51.3993 64.0835 50.5077 63.2427 49.8658C62.4019 49.2239 61.3794 48.8649 60.3219 48.8401C60.1283 48.8353 60.0195 48.8401 60.0195 48.8337Z" fill="#263238"/>
<path d="M64.3578 51.0664C64.2621 51.1243 64.1601 51.171 64.0538 51.2056C63.8618 51.2808 63.5946 51.3768 63.2938 51.4728C62.993 51.5688 62.7194 51.644 62.5194 51.692C62.4126 51.7248 62.3027 51.7463 62.1914 51.756C62.2934 51.7064 62.4008 51.6688 62.5114 51.644L63.2794 51.404L64.0426 51.1576C64.1443 51.1167 64.2499 51.0861 64.3578 51.0664Z" fill="#263238"/>
<path d="M63.4087 48.5156C63.4621 48.7355 63.4857 48.9615 63.4791 49.1876C63.4964 49.4133 63.4841 49.6403 63.4423 49.8628C63.4123 49.6396 63.4005 49.4143 63.4071 49.1892C63.3898 48.965 63.3904 48.7398 63.4087 48.5156Z" fill="#263238"/>
<path d="M59.0977 49.8979C59.2387 49.833 59.3848 49.7795 59.5345 49.7379C59.8081 49.6531 60.1889 49.5475 60.6145 49.4451C61.0401 49.3427 61.4257 49.2643 61.7089 49.2147C61.8598 49.1808 62.0135 49.1599 62.1681 49.1523C62.0209 49.1998 61.8707 49.2372 61.7185 49.2643C61.4401 49.3267 61.0545 49.4131 60.6305 49.5139C60.2065 49.6147 59.8305 49.7155 59.5489 49.7875C59.4011 49.8345 59.2504 49.8714 59.0977 49.8979Z" fill="#263238"/>
<path d="M62.6309 54.0938C62.1141 53.7002 61.5653 53.6234 60.9173 53.649C60.2673 53.6908 59.6308 53.8536 59.0405 54.129C58.0245 54.5738 57.0709 55.2282 56.4645 56.1562C55.8581 57.0842 55.6453 58.313 56.0997 59.3226C56.1354 59.4284 56.2089 59.5173 56.3061 59.5722C56.4185 59.6053 56.5391 59.5962 56.6453 59.5466C57.8005 59.1706 58.9637 58.7898 60.0245 58.1994C61.0853 57.609 62.0533 56.7898 62.6229 55.7178C62.7691 55.4645 62.8622 55.1842 62.8965 54.8938C62.9119 54.7492 62.8961 54.603 62.8503 54.465C62.8045 54.3271 62.7297 54.2005 62.6309 54.0938Z" fill="#294C88"/>
<path d="M62.6432 53.9727C62.6161 53.9854 62.5884 53.9966 62.56 54.0063L62.3184 54.0895L62.1424 54.1471L61.9376 54.2271C61.792 54.2863 61.6176 54.3455 61.4432 54.4319L61.16 54.5615C61.0624 54.6063 60.9648 54.6623 60.8608 54.7215C60.6512 54.8239 60.44 54.9551 60.2208 55.0895C59.252 55.6878 58.3909 56.4451 57.6736 57.3295C57.5136 57.5375 57.3536 57.7295 57.2256 57.9247C57.16 58.0207 57.0928 58.1103 57.0352 58.2031C56.9776 58.2959 56.9232 58.3823 56.8752 58.4671C56.7664 58.6271 56.6848 58.7871 56.608 58.9311C56.5712 58.9999 56.5344 59.0639 56.5024 59.1247L56.4224 59.2847C56.376 59.3775 56.3392 59.4543 56.3104 59.5135C56.2973 59.5406 56.2823 59.5668 56.2656 59.5919C56.2728 59.5626 56.283 59.5342 56.296 59.5071C56.3227 59.4463 56.3563 59.3679 56.3968 59.2719C56.4208 59.2207 56.4448 59.1631 56.472 59.1023C56.4992 59.0415 56.536 58.9759 56.5728 58.9055C56.6464 58.7663 56.7248 58.6031 56.8304 58.4351L56.9904 58.1663C57.0464 58.0735 57.1136 57.9823 57.1792 57.8847C57.3056 57.6863 57.4624 57.4911 57.6224 57.2815C57.9843 56.838 58.3801 56.4234 58.8064 56.0415C59.2389 55.6665 59.7006 55.3268 60.1872 55.0255C60.4144 54.8927 60.6288 54.7631 60.8416 54.6623C60.9456 54.6095 61.0448 54.5551 61.144 54.5103L61.4304 54.3855C61.6128 54.3007 61.784 54.2447 61.9312 54.1903C62.0064 54.1631 62.0752 54.1359 62.1392 54.1151L62.3168 54.0623L62.5632 53.9919C62.5891 53.9827 62.616 53.9762 62.6432 53.9727Z" fill="#263238"/>
<path d="M58.5939 56.1602C58.1818 56.3178 57.7614 56.4529 57.3347 56.565C56.9147 56.7013 56.4873 56.814 56.0547 56.9026C56.4667 56.7442 56.887 56.6085 57.3139 56.4962C57.7342 56.3612 58.1615 56.249 58.5939 56.1602Z" fill="#263238"/>
<path d="M58.5449 58.944C58.5232 58.8145 58.5141 58.6833 58.5177 58.552C58.5097 58.3088 58.5097 57.9744 58.5177 57.6032C58.5257 57.232 58.5481 56.8976 58.5689 56.656C58.5723 56.5246 58.5889 56.3938 58.6185 56.2656C58.6293 56.3966 58.6293 56.5282 58.6185 56.6592C58.6089 56.9248 58.5993 57.248 58.5881 57.6048C58.5769 57.9616 58.5721 58.2864 58.5641 58.552C58.5685 58.683 58.5621 58.8141 58.5449 58.944Z" fill="#263238"/>
<path d="M60.9238 57.7293C60.9046 57.7293 60.8406 57.0493 60.783 56.2077C60.7254 55.3661 60.6934 54.6813 60.7126 54.6797C60.7318 54.6781 60.7958 55.3597 60.855 56.2029C60.9142 57.0461 60.9446 57.7277 60.9238 57.7293Z" fill="#263238"/>
<path d="M57.9609 54.6143C58.0947 54.5979 58.2296 54.5936 58.3641 54.6015C58.6137 54.6015 58.9561 54.6111 59.3353 54.6239C59.7145 54.6367 60.0585 54.6511 60.3081 54.6655C60.443 54.6653 60.5776 54.6787 60.7097 54.7055C60.5759 54.7207 60.441 54.7245 60.3065 54.7167C60.0569 54.7167 59.7129 54.7087 59.3337 54.6959C58.9545 54.6831 58.6105 54.6671 58.3625 54.6527C58.2278 54.6521 58.0934 54.6392 57.9609 54.6143Z" fill="#263238"/>
<path d="M63.6794 62.9072C63.6733 62.881 63.6706 62.8541 63.6714 62.8272C63.6714 62.7664 63.6714 62.6896 63.6602 62.5952C63.6506 62.3936 63.649 62.1024 63.6602 61.7424C63.6714 61.3824 63.6906 60.9536 63.7338 60.48C63.777 60.0064 63.849 59.4864 63.9466 58.944C64.0442 58.4016 64.1658 57.8912 64.289 57.4304C64.4122 56.9696 64.5434 56.5616 64.665 56.2208C64.7866 55.88 64.889 55.608 64.969 55.4208L65.0602 55.2064C65.0692 55.1804 65.0816 55.1557 65.097 55.1328C65.0916 55.1597 65.0836 55.186 65.073 55.2112L64.9946 55.4304C64.9226 55.6176 64.8266 55.8928 64.713 56.2304C64.5994 56.568 64.4762 56.9824 64.353 57.4416C64.2298 57.9008 64.1162 58.4112 64.017 58.9504C63.9178 59.4896 63.857 60.008 63.801 60.48C63.745 60.952 63.7242 61.3792 63.7114 61.7376C63.6986 62.096 63.6794 62.3984 63.6794 62.5952C63.6794 62.6896 63.6794 62.7664 63.6794 62.8272C63.6821 62.8538 63.6821 62.8806 63.6794 62.9072Z" fill="#263238"/>
<path d="M63.9998 58.9648C63.9309 59.0623 63.8503 59.151 63.7598 59.2288C63.5998 59.3888 63.3838 59.592 63.131 59.8144C62.8782 60.0368 62.651 60.2272 62.4686 60.3616C62.379 60.4402 62.2807 60.5084 62.1758 60.5648C62.2545 60.4754 62.3419 60.394 62.4366 60.3216L63.0766 59.76L63.7166 59.192C63.8041 59.1081 63.8988 59.0321 63.9998 58.9648Z" fill="#263238"/>
<path d="M65.9016 60.5011C65.8064 60.3901 65.7208 60.2713 65.6456 60.1459L65.0504 59.2787C64.82 58.9507 64.6104 58.6563 64.4424 58.4179C64.3524 58.3031 64.2711 58.1816 64.1992 58.0547C64.3031 58.1577 64.3983 58.269 64.484 58.3875C64.644 58.6003 64.8744 58.8979 65.1096 59.2371C65.3448 59.5763 65.5464 59.8883 65.6872 60.1187C65.7693 60.2399 65.8411 60.3678 65.9016 60.5011Z" fill="#263238"/>
<path d="M64.9026 55.6806C64.9122 55.6982 64.2802 56.1238 63.4881 56.6406C62.6961 57.1574 62.0481 57.5494 62.0353 57.5318C62.0225 57.5142 62.6577 57.0886 63.4481 56.5718C64.2386 56.055 64.8914 55.6582 64.9026 55.6806Z" fill="#263238"/>
<path d="M66.6882 57.5981C66.0341 57.0257 65.4119 56.4178 64.8242 55.7773C65.1597 56.055 65.4802 56.3504 65.7842 56.6621C66.1029 56.9569 66.4047 57.2694 66.6882 57.5981Z" fill="#263238"/>
<path d="M67.1383 57.5631L67.6807 57.5183C68.0666 57.4869 68.4411 57.3723 68.7783 57.1823C68.943 57.0855 69.1141 57 69.2903 56.9263C69.9623 56.6559 70.7127 56.7039 71.4343 56.6671C72.6188 56.6073 73.7792 56.3108 74.8471 55.7951C74.9092 55.7664 74.9611 55.7196 74.9959 55.6607C75.1063 55.4574 74.8999 55.2767 74.7207 55.1662C73.8055 54.6014 72.8743 54.0302 71.8407 53.7502C70.8071 53.4702 69.6231 53.5182 68.7367 54.1278C67.6967 54.8431 67.3191 56.3135 67.1367 57.5631" fill="#294C88"/>
<path d="M75.0062 55.5917C74.9745 55.5804 74.9439 55.5659 74.915 55.5485L74.6574 55.4141C74.4334 55.2973 74.1118 55.1229 73.6974 54.9341C73.2244 54.7023 72.7318 54.5127 72.2254 54.3677C71.606 54.1888 70.9572 54.1344 70.3166 54.2077C69.6753 54.2794 69.0696 54.5394 68.5758 54.9549C68.1902 55.3157 67.8821 55.7512 67.6702 56.2349C67.5225 56.5588 67.3911 56.8899 67.2766 57.2269C67.235 57.3405 67.203 57.4317 67.179 57.5005C67.1697 57.5333 67.1568 57.5649 67.1406 57.5949C67.1463 57.5613 67.1543 57.5282 67.1646 57.4957C67.187 57.4253 67.2142 57.3357 67.2494 57.2173C67.3536 56.8756 67.4786 56.5405 67.6238 56.2141C67.8329 55.722 68.1424 55.2789 68.5326 54.9133C69.0339 54.4852 69.6519 54.2171 70.307 54.1437C70.9565 54.066 71.6151 54.1205 72.243 54.3037C72.7526 54.4521 73.2471 54.6481 73.7198 54.8893C74.1246 55.0909 74.443 55.2701 74.6622 55.3965L74.9134 55.5421C74.9458 55.5557 74.9769 55.5723 75.0062 55.5917Z" fill="#263238"/>
<path d="M73.7009 56.2899C73.6897 56.3075 72.9777 55.8467 72.1137 55.2643C71.2497 54.6819 70.5553 54.1939 70.5665 54.1763C70.5777 54.1587 71.2881 54.6195 72.1537 55.2035C73.0193 55.7875 73.7121 56.2739 73.7009 56.2899Z" fill="#263238"/>
<path d="M72.9432 54.1406C72.7761 54.1974 72.6013 54.2287 72.4248 54.2335C72.2504 54.2597 72.0729 54.2597 71.8984 54.2335C72.0707 54.2023 72.2451 54.1847 72.42 54.1807C72.5931 54.1533 72.7681 54.14 72.9432 54.1406Z" fill="#263238"/>
<path d="M69.8288 53.7383C69.771 53.8712 69.6921 53.9938 69.5952 54.1015C69.5139 54.2272 69.4147 54.3404 69.3008 54.4375C69.359 54.3068 69.4379 54.1863 69.5344 54.0807C69.6153 53.9528 69.7145 53.8375 69.8288 53.7383Z" fill="#263238"/>
<path d="M70.4663 56.7116C70.3462 56.6615 70.2314 56.5993 70.1239 56.526C69.9191 56.4012 69.6439 56.2188 69.3447 56.0044C69.0455 55.79 68.7879 55.5852 68.5991 55.4364C68.4936 55.361 68.3951 55.2764 68.3047 55.1836C68.4179 55.2436 68.525 55.3143 68.6247 55.3948L69.3831 55.9452C69.6775 56.1596 69.9495 56.3484 70.1479 56.4828C70.26 56.5503 70.3665 56.6268 70.4663 56.7116Z" fill="#263238"/>
<path d="M67.9373 59.869C67.4189 59.733 66.8013 60.237 66.6941 60.7618C66.5869 61.2866 66.7837 61.8242 67.0141 62.309C67.5068 63.3958 68.2399 64.3566 69.1581 65.1186C70.0833 65.8795 71.2388 66.3048 72.4365 66.325C72.2173 65.3074 72.4941 64.245 72.3725 63.2098C72.2646 62.2989 71.8509 61.4514 71.199 60.806C70.5472 60.1605 69.6957 59.7552 68.7837 59.6562C68.4525 59.621 68.0685 59.5682 67.9373 59.8738" fill="#294C88"/>
<path d="M72.4367 66.323C72.4108 66.3144 72.3861 66.3025 72.3631 66.2878C72.2938 66.2514 72.2284 66.208 72.1679 66.1582C71.9509 65.969 71.7768 65.7355 71.6575 65.4734C71.5743 65.3134 71.4815 65.139 71.3919 64.947L71.1119 64.3294C71.0124 64.1024 70.898 63.8822 70.7695 63.6702C70.6287 63.4455 70.4715 63.2316 70.2991 63.0302C69.9439 62.6126 69.5631 62.2526 69.2319 61.9102C68.9338 61.6095 68.6624 61.2834 68.4207 60.9358C68.2582 60.6998 68.1244 60.4452 68.0223 60.1774C67.9903 60.0814 67.9663 60.0078 67.9535 59.955C67.9444 59.9292 67.939 59.9023 67.9375 59.875C67.9375 59.875 67.9727 59.9806 68.0495 60.1678C68.1599 60.4284 68.2983 60.6763 68.4623 60.907C68.7082 61.2488 68.9816 61.5698 69.2799 61.867C69.6111 62.2078 69.9951 62.5678 70.3535 62.987C70.53 63.1914 70.6905 63.4091 70.8335 63.6382C70.9614 63.8538 71.0758 64.0772 71.1759 64.307L71.4495 64.9262C71.5359 65.1182 71.6255 65.2942 71.7055 65.4558C71.8171 65.7149 71.9804 65.9485 72.1855 66.1422C72.3375 66.267 72.4399 66.3166 72.4367 66.323Z" fill="#263238"/>
<path d="M69.7617 65.4741C69.766 65.3565 69.7821 65.2397 69.8097 65.1253C69.8513 64.9125 69.9169 64.6197 70.0065 64.2997C70.0961 63.9797 70.1937 63.6965 70.2705 63.4997C70.3059 63.3883 70.3531 63.281 70.4113 63.1797C70.3911 63.2954 70.36 63.409 70.3185 63.5189C70.2545 63.7253 70.1665 64.0117 70.0769 64.3285C69.9873 64.6453 69.9169 64.9365 69.8593 65.1461C69.8379 65.2584 69.8052 65.3683 69.7617 65.4741Z" fill="#263238"/>
<path d="M72.3357 62.9758C72.2118 62.9581 72.0898 62.9297 71.9709 62.891C71.7485 62.8334 71.4397 62.7534 71.0957 62.6766C70.7517 62.5998 70.4397 62.539 70.2125 62.4958C70.0886 62.48 69.9665 62.4527 69.8477 62.4142C69.9726 62.4128 70.0974 62.423 70.2205 62.4446C70.4509 62.475 70.7677 62.5278 71.1117 62.6046C71.4557 62.6814 71.7645 62.7646 71.9853 62.8414C72.1068 62.8726 72.2244 62.9177 72.3357 62.9758Z" fill="#263238"/>
<path d="M67.832 63.702C67.8381 63.5662 67.8568 63.4312 67.888 63.2988C67.9344 63.0508 68.0064 62.7116 68.104 62.3388C68.2016 61.966 68.304 61.6332 68.384 61.3964C68.4221 61.2653 68.4719 61.1378 68.5328 61.0156C68.5109 61.1499 68.4777 61.2821 68.4336 61.4108C68.3648 61.6524 68.2736 61.9852 68.1728 62.3564C68.072 62.7276 67.9968 63.0636 67.9376 63.3084C67.9145 63.4426 67.8791 63.5743 67.832 63.702Z" fill="#263238"/>
<path d="M71.1495 60.7979C71.1495 60.8171 70.4999 60.7659 69.7095 60.6811C68.9191 60.5963 68.2695 60.5115 68.2695 60.4923C68.2695 60.4731 68.9191 60.5243 69.7095 60.6091C70.4999 60.6939 71.1511 60.7787 71.1495 60.7979Z" fill="#263238"/>
<path d="M70.6733 68.6462C70.6733 68.6654 68.3981 68.6814 65.5933 68.6814C62.7885 68.6814 60.5117 68.6654 60.5117 68.6462C60.5117 68.627 62.7869 68.6094 65.5933 68.6094C68.3997 68.6094 70.6733 68.6254 70.6733 68.6462Z" fill="#455A64"/>
<path d="M69.0925 71.5743C69.0925 71.5951 67.5597 71.6111 65.6685 71.6111C63.7773 71.6111 62.2461 71.5951 62.2461 71.5743C62.2461 71.5535 63.7789 71.5391 65.6685 71.5391C67.5581 71.5391 69.0925 71.5551 69.0925 71.5743Z" fill="#455A64"/>
<path d="M69.0325 71.9977C69.0325 72.0169 67.5269 72.0329 65.6725 72.0329C63.8181 72.0329 62.3125 72.0169 62.3125 71.9977C62.3125 71.9785 63.8181 71.9609 65.6725 71.9609C67.5269 71.9609 69.0325 71.9705 69.0325 71.9977Z" fill="#455A64"/>
<path d="M69.1519 71.2321C69.1519 71.2513 67.5663 71.2673 65.6111 71.2673C63.6559 71.2673 62.0703 71.2513 62.0703 71.2321C62.0703 71.2129 63.6559 71.1953 65.6111 71.1953C67.5663 71.1953 69.1519 71.2113 69.1519 71.2321Z" fill="#455A64"/>
<path d="M68.4797 9.57937C68.4797 9.60337 67.4061 9.61617 66.0797 9.60977C64.7533 9.60337 63.6797 9.57777 63.6797 9.55537C63.6797 9.53297 64.7533 9.51856 66.0797 9.52496C67.4061 9.53136 68.4797 9.55697 68.4797 9.57937Z" fill="#263238"/>
<path d="M66.0988 11.9641C66.0764 11.9641 66.0476 10.8921 66.0332 9.56406C66.0188 8.23606 66.0332 7.16406 66.0508 7.16406C66.0684 7.16406 66.1036 8.23606 66.1164 9.56406C66.1292 10.8921 66.1228 11.9641 66.0988 11.9641Z" fill="#263238"/>
<path d="M71.0018 45.388C70.4995 45.1785 70.0082 44.9435 69.5298 44.684C69.0366 44.4488 68.556 44.1882 68.0898 43.9032C68.0994 43.884 68.7586 44.1992 69.5618 44.6088C70.365 45.0184 71.013 45.3688 71.0018 45.388Z" fill="#263238"/>
<path d="M68.8281 46.1107C69.0298 45.6047 69.2578 45.1096 69.5113 44.6275C69.7387 44.1348 69.9913 43.6542 70.2681 43.1875C70.0658 43.6932 69.8378 44.1883 69.5849 44.6707C69.3571 45.1632 69.1045 45.6438 68.8281 46.1107Z" fill="#263238"/>
<path d="M13.5684 34.1221C13.5684 34.1445 12.81 34.4693 11.858 34.8485C10.906 35.2277 10.1252 35.5189 10.1172 35.4981C10.1092 35.4773 10.874 35.1509 11.8276 34.7717C12.7812 34.3925 13.5588 34.1013 13.5684 34.1221Z" fill="#263238"/>
<path d="M11.8004 33.0809C11.8004 33.0809 11.7732 33.0345 11.7156 32.9609C11.634 32.8591 11.5219 32.7861 11.3956 32.7529C11.2942 32.7259 11.1872 32.7276 11.0867 32.7578C10.9862 32.788 10.896 32.8455 10.8263 32.924C10.7565 33.0025 10.71 33.0988 10.6918 33.2022C10.6736 33.3056 10.6846 33.412 10.7234 33.5095C10.7622 33.6071 10.8273 33.6919 10.9115 33.7546C10.9957 33.8173 11.0957 33.8553 11.2003 33.8645C11.3049 33.8736 11.4099 33.8535 11.5038 33.8064C11.5976 33.7593 11.6765 33.6871 11.7316 33.5978C11.8013 33.4866 11.8328 33.3557 11.8212 33.2249C11.8212 33.1321 11.794 33.0825 11.8004 33.0793C11.8297 33.1216 11.8478 33.1706 11.8532 33.2217C11.8789 33.3613 11.854 33.5054 11.7828 33.6282C11.7302 33.7214 11.6547 33.7997 11.5635 33.8557C11.4722 33.9117 11.3682 33.9435 11.2612 33.9482C11.1293 33.953 10.999 33.9169 10.8883 33.8449C10.7777 33.7728 10.692 33.6682 10.6431 33.5455C10.5942 33.4229 10.5845 33.2881 10.6152 33.1596C10.646 33.0312 10.7157 32.9154 10.8148 32.8281C10.8949 32.7578 10.9915 32.7089 11.0956 32.6862C11.1998 32.6636 11.308 32.6678 11.41 32.6985C11.5462 32.7379 11.6637 32.8247 11.7412 32.9433C11.7716 32.9839 11.7919 33.031 11.8004 33.0809Z" fill="#263238"/>
<path d="M13.0034 36.0908C12.9954 36.0908 12.9762 36.0444 12.9186 35.9708C12.8375 35.8684 12.7251 35.7953 12.5986 35.7628C12.5067 35.7393 12.4104 35.7388 12.3183 35.7614C12.2262 35.784 12.1411 35.829 12.0706 35.8924C11.9849 35.9697 11.925 36.0713 11.8988 36.1836C11.8727 36.296 11.8815 36.4136 11.9242 36.5208C11.9669 36.628 12.0414 36.7195 12.1376 36.783C12.2338 36.8466 12.3473 36.8792 12.4626 36.8764C12.5585 36.8755 12.6527 36.8506 12.7366 36.8039C12.8204 36.7572 12.8912 36.6903 12.9426 36.6092C13.0115 36.4977 13.0429 36.3671 13.0322 36.2364C13.0322 36.1436 13.0034 36.094 13.0114 36.0908C13.0404 36.1326 13.0586 36.181 13.0642 36.2316C13.0894 36.3718 13.0638 36.5165 12.9922 36.6396C12.9399 36.7328 12.8647 36.8112 12.7737 36.8672C12.6827 36.9232 12.5789 36.955 12.4722 36.9596C12.3402 36.9645 12.2099 36.9284 12.0993 36.8563C11.9886 36.7842 11.903 36.6797 11.8541 36.557C11.8052 36.4343 11.7954 36.2995 11.8262 36.1711C11.8569 36.0426 11.9266 35.9269 12.0258 35.8396C12.1062 35.77 12.2028 35.7215 12.3067 35.6986C12.4107 35.6757 12.5187 35.6791 12.621 35.7084C12.7568 35.7493 12.874 35.8365 12.9522 35.9548C12.9799 35.9954 12.9975 36.042 13.0034 36.0908Z" fill="#263238"/>
</svg>
