<svg width="120" height="80" viewBox="0 0 120 80" fill="none" xmlns="http://www.w3.org/2000/svg">
<path d="M113.05 9.37109H97.7305V31.5759H113.05V9.37109Z" fill="#E0E0E0"/>
<path d="M112.283 9.37109H96.9629V31.5759H112.283V9.37109Z" fill="#F5F5F5"/>
<path d="M110.379 11.7734H98.8672V29.1686H110.379V11.7734Z" fill="white"/>
<path d="M110.38 29.1735C110.38 29.1735 110.38 29.1431 110.38 29.0887C110.38 29.0343 110.38 28.9479 110.38 28.8407C110.38 28.6231 110.38 28.3031 110.38 27.8807C110.38 27.0471 110.38 25.8327 110.37 24.2983C110.37 21.2295 110.359 16.8871 110.351 11.7719L110.39 11.8103H98.8695L98.9111 11.7687C98.9111 18.3287 98.9111 24.3815 98.9111 29.1639L98.8775 29.1303L107.258 29.1479H109.574H110.18H110.391H110.188H109.586L107.278 29.1575L98.8775 29.1735H98.8439V29.1399C98.8439 24.3575 98.8439 18.3063 98.8359 11.7447V11.7031H98.8791H110.399H110.438V11.7415C110.43 16.8615 110.423 21.2183 110.418 24.2919C110.418 25.8231 110.418 27.0359 110.407 27.8663C110.407 28.2791 110.407 28.5959 110.407 28.8135C110.407 28.9191 110.407 28.9991 110.407 29.0551C110.407 29.1111 110.38 29.1735 110.38 29.1735Z" fill="#E0E0E0"/>
<path d="M112.32 9.37109C112.243 9.50926 112.153 9.63995 112.051 9.76149C111.874 9.99829 111.621 10.3231 111.333 10.6735C111.045 11.0239 110.776 11.3327 110.576 11.5535C110.475 11.6799 110.362 11.7971 110.24 11.9039C110.327 11.7687 110.424 11.6408 110.531 11.5215L111.269 10.6255L112 9.73109C112.096 9.60173 112.203 9.48125 112.32 9.37109Z" fill="#E0E0E0"/>
<path d="M110.438 29.1211C111.011 30.0306 111.684 30.8727 112.446 31.6315L110.438 29.1211Z" fill="white"/>
<path d="M112.446 31.6253C112.318 31.5311 112.202 31.4238 112.097 31.3053C111.829 31.0343 111.576 30.7491 111.338 30.4509C111.06 30.1021 110.83 29.7709 110.671 29.5245C110.58 29.3953 110.502 29.2575 110.438 29.1133C110.541 29.2317 110.636 29.3579 110.721 29.4909C110.881 29.7277 111.127 30.0525 111.404 30.3997C111.681 30.7469 111.945 31.0477 112.138 31.2653C112.25 31.3772 112.353 31.4975 112.446 31.6253Z" fill="#E0E0E0"/>
<path d="M96.9609 31.5588L98.9673 29.082L96.9609 31.5588Z" fill="white"/>
<path d="M98.9673 29.082C98.6673 29.5212 98.3437 29.9437 97.9977 30.3476C97.6731 30.7688 97.327 31.1731 96.9609 31.5588C97.2627 31.1211 97.5869 30.6992 97.9321 30.2948C98.2557 29.8727 98.6013 29.4679 98.9673 29.082Z" fill="#E0E0E0"/>
<path d="M96.9609 9.37109C97.3057 9.74126 97.6304 10.1295 97.9337 10.5343C98.2593 10.9227 98.5627 11.3293 98.8425 11.7519C98.4975 11.3814 98.1728 10.9926 97.8697 10.5871C97.5444 10.199 97.241 9.79303 96.9609 9.37109Z" fill="#E0E0E0"/>
<path d="M106.792 15.3047H102.938V26.2503H106.792V15.3047Z" fill="#E0E0E0"/>
<path d="M41.0547 70.418V76.0228H49.2515H58.2915V70.418H41.0547Z" fill="#F5F5F5"/>
<path d="M40.3301 68.8516V70.418H58.8933V68.8516H49.2501H40.3301Z" fill="#E0E0E0"/>
<path d="M49.6116 76.0228H58.29V70.418H58.8932V68.8516H49.25V70.2724L49.6116 76.0228Z" fill="#E0E0E0"/>
<path d="M46.9608 71.3242H43.4648V72.1674H46.9608V71.3242Z" fill="#E0E0E0"/>
<path d="M47.5036 73.2227H43.0156V75.0035H47.5036V73.2227Z" fill="white"/>
<path d="M44.8848 63.082V68.6868H53.0816H62.1216V63.082H44.8848Z" fill="#F5F5F5"/>
<path d="M44.1621 61.5117V63.0797H62.7253V61.5117H53.0821H44.1621Z" fill="#E0E0E0"/>
<path d="M53.4436 68.6845H62.122V63.0797H62.7252V61.5117H53.082V62.9341L53.4436 68.6845Z" fill="#E0E0E0"/>
<path d="M50.7929 63.9844H47.2969V64.8276H50.7929V63.9844Z" fill="#E0E0E0"/>
<path d="M51.3337 65.8789H46.8457V67.6597H51.3337V65.8789Z" fill="white"/>
<path d="M25.3369 13.3441L23.9609 13.3516L23.998 20.1947L25.3739 20.1872L25.3369 13.3441Z" fill="#E0E0E0"/>
<path d="M15.6084 13.3596L12.0469 13.3789L12.0673 17.1565L15.6289 17.1372L15.6084 13.3596Z" fill="#EBEBEB"/>
<path d="M19.1533 13.3401L15.5918 13.3594L15.6122 17.1369L19.1738 17.1177L19.1533 13.3401Z" fill="#F5F5F5"/>
<path d="M12.0517 14.426C14.4181 14.4452 16.7909 14.426 19.1573 14.3924C19.1659 14.3906 19.1737 14.3859 19.1793 14.3791C19.1849 14.3722 19.1879 14.3637 19.1879 14.3548C19.1879 14.346 19.1849 14.3374 19.1793 14.3306C19.1737 14.3237 19.1659 14.319 19.1573 14.3172C16.7909 14.3044 14.4181 14.3172 12.0517 14.3604C12.0442 14.3621 12.0376 14.3662 12.0328 14.3722C12.028 14.3782 12.0254 14.3856 12.0254 14.3932C12.0254 14.4009 12.028 14.4083 12.0328 14.4143C12.0376 14.4202 12.0442 14.4244 12.0517 14.426Z" fill="#E0E0E0"/>
<path d="M16.2965 17.0783L9.82617 17.1133L9.84283 20.1916L16.3131 20.1566L16.2965 17.0783Z" fill="#EBEBEB"/>
<path d="M22.7359 17.0431L16.2656 17.0781L16.2823 20.1565L22.7526 20.1215L22.7359 17.0431Z" fill="#F5F5F5"/>
<path d="M9.82888 17.9674C14.1281 18.017 18.4401 17.9674 22.7393 17.9034C22.7479 17.9016 22.7557 17.8969 22.7613 17.8901C22.7668 17.8832 22.7699 17.8747 22.7699 17.8658C22.7699 17.857 22.7668 17.8484 22.7613 17.8416C22.7557 17.8347 22.7479 17.83 22.7393 17.8282C18.4401 17.8058 14.1265 17.8074 9.82888 17.9034C9.82039 17.9034 9.81225 17.9068 9.80625 17.9128C9.80025 17.9188 9.79688 17.9269 9.79688 17.9354C9.79688 17.9439 9.80025 17.9521 9.80625 17.9581C9.81225 17.9641 9.82039 17.9674 9.82888 17.9674Z" fill="#E0E0E0"/>
<path d="M32.4774 20.1875H7.41016V21.2899H32.4774V20.1875Z" fill="#E0E0E0"/>
<path d="M12.5313 20.7188H11.5137V24.482H12.5313V20.7188Z" fill="#E0E0E0"/>
<path d="M27.7227 20.7188H26.7051V24.482H27.7227V20.7188Z" fill="#E0E0E0"/>
<path d="M26.726 10.6698L25.3516 10.6836L25.4457 20.0948L26.8201 20.0811L26.726 10.6698Z" fill="#EBEBEB"/>
<path d="M28.8837 12.4122L26.7461 12.4336L26.8224 20.0608L28.96 20.0394L28.8837 12.4122Z" fill="#F5F5F5"/>
<path d="M28.8098 14.0142C28.4554 14.0512 28.0988 14.0635 27.7426 14.051C27.3859 14.0635 27.0288 14.0512 26.6738 14.0142C27.0288 13.9772 27.3859 13.9649 27.7426 13.9774C28.0988 13.9649 28.4554 13.9772 28.8098 14.0142Z" fill="#E0E0E0"/>
<path d="M28.8098 13.6939C28.4554 13.7309 28.0988 13.7432 27.7426 13.7307C27.3859 13.7432 27.0288 13.7309 26.6738 13.6939C27.0288 13.6569 27.3859 13.6446 27.7426 13.6571C28.0988 13.6446 28.4554 13.6569 28.8098 13.6939Z" fill="#E0E0E0"/>
<path d="M28.8098 19.0215C28.4554 19.0585 28.0988 19.0708 27.7426 19.0583C27.3859 19.0708 27.0288 19.0585 26.6738 19.0215C27.0289 18.9854 27.3859 18.9731 27.7426 18.9847C28.0988 18.9732 28.4553 18.9854 28.8098 19.0215Z" fill="#E0E0E0"/>
<path d="M28.8098 18.7056C28.4554 18.7426 28.0988 18.7549 27.7426 18.7424C27.3859 18.7549 27.0288 18.7426 26.6738 18.7056C27.0288 18.6686 27.3859 18.6563 27.7426 18.6688C28.0988 18.6563 28.4554 18.6686 28.8098 18.7056Z" fill="#E0E0E0"/>
<path d="M27.777 18.0032C27.7562 18.0032 27.7402 17.2336 27.7402 16.2848C27.7402 15.336 27.7562 14.5664 27.777 14.5664C27.7978 14.5664 27.8138 15.336 27.8138 16.2848C27.8138 17.2336 27.7978 18.0032 27.777 18.0032Z" fill="#E0E0E0"/>
<path d="M31.1604 14.418H28.834V20.1748H31.1604V14.418Z" fill="#EBEBEB"/>
<path d="M25.9694 12.7943C26.1877 12.7943 26.3646 12.6174 26.3646 12.3991C26.3646 12.1808 26.1877 12.0039 25.9694 12.0039C25.7512 12.0039 25.5742 12.1808 25.5742 12.3991C25.5742 12.6174 25.7512 12.7943 25.9694 12.7943Z" fill="#E0E0E0"/>
<path d="M26.0905 13.4883H25.8457V19.0867H26.0905V13.4883Z" fill="#E0E0E0"/>
<path d="M45.6883 34.4102H20.6211V35.527H45.6883V34.4102Z" fill="#E0E0E0"/>
<path d="M25.7422 34.9492H24.7246V38.762H25.7422V34.9492Z" fill="#E0E0E0"/>
<path d="M40.9336 34.9492H39.916V38.762H40.9336V34.9492Z" fill="#E0E0E0"/>
<path d="M36.1871 24.782C36.2287 24.7436 36.5071 24.942 36.8735 25.3628C37.0864 25.6087 37.2805 25.8703 37.4543 26.1452C37.6679 26.4836 37.8546 26.8383 38.0127 27.206C38.1687 27.575 38.2965 27.9553 38.3951 28.3436C38.4716 28.6593 38.5251 28.9802 38.5551 29.3036C38.6047 29.8604 38.5551 30.2044 38.5039 30.2076C38.3727 30.2172 38.2527 28.8716 37.6031 27.3772C36.9535 25.8828 36.0911 24.8732 36.1871 24.782Z" fill="#EBEBEB"/>
<path d="M38.9439 31.3305C38.8863 31.3385 38.7279 30.6025 38.5823 29.3945C38.4367 28.1865 38.3119 26.5145 38.2623 24.6617C38.2127 22.8089 38.2335 21.1417 38.2623 19.9225C38.2911 18.7033 38.3567 17.9609 38.4223 17.9609C38.4879 17.9609 38.5375 18.7113 38.5823 19.9209C38.6271 21.1305 38.6543 22.8009 38.7039 24.6489C38.7535 26.4969 38.8239 28.1609 38.8927 29.3673C38.9615 30.5737 39.0063 31.3225 38.9439 31.3305Z" fill="#EBEBEB"/>
<path d="M41.6115 20.8017C41.6675 20.8353 41.4371 21.3505 41.1315 22.2097C40.8259 23.0689 40.4451 24.2689 40.0723 25.6096C39.6995 26.9504 39.4211 28.1808 39.2483 29.0768C39.0755 29.9728 39.0035 30.5312 38.9395 30.5296C38.8755 30.528 38.8387 29.9504 38.9395 29.0288C39.2442 26.6378 39.8847 24.3018 40.8419 22.0897C41.2291 21.2513 41.5635 20.7777 41.6115 20.8017Z" fill="#EBEBEB"/>
<path d="M35.5098 29.793V31.2666C35.5071 31.6771 35.5853 32.0841 35.7399 32.4643C35.8945 32.8446 36.1225 33.1907 36.4109 33.4828C36.6993 33.7749 37.0424 34.0074 37.4207 34.1668C37.799 34.3263 38.2049 34.4097 38.6154 34.4122C39.0259 34.4097 39.4319 34.3263 39.8102 34.1668C40.1884 34.0074 40.5315 33.7749 40.8199 33.4828C41.1084 33.1907 41.3364 32.8446 41.491 32.4643C41.6456 32.0841 41.7238 31.6771 41.721 31.2666V29.793H35.5098Z" fill="#E0E0E0"/>
<path d="M41.7789 31.0409C41.7789 31.0665 40.3757 31.0857 38.6461 31.0857C36.9165 31.0857 35.5117 31.0665 35.5117 31.0409C35.5117 31.0153 36.9149 30.9961 38.6461 30.9961C40.3773 30.9961 41.7789 31.0137 41.7789 31.0409Z" fill="#FAFAFA"/>
<path d="M41.7789 31.4471C41.7789 31.4711 40.3757 31.4919 38.6461 31.4919C36.9165 31.4919 35.5117 31.4711 35.5117 31.4471C35.5117 31.4231 36.9149 31.4023 38.6461 31.4023C40.3773 31.4023 41.7789 31.4231 41.7789 31.4471Z" fill="#FAFAFA"/>
<path d="M30.6284 30.792L30.6211 29.3984L23.778 29.4343L23.7853 30.8279L30.6284 30.792Z" fill="#E0E0E0"/>
<path d="M31.4527 34.407L31.4414 32.2422L23.8143 32.2821L23.8256 34.4469L31.4527 34.407Z" fill="#F5F5F5"/>
<path d="M29.9824 34.3914C29.9464 34.032 29.9341 33.6707 29.9456 33.3098C29.9341 32.9483 29.9463 32.5864 29.9824 32.2266C30.0205 32.5863 30.0333 32.9482 30.0208 33.3098C30.0333 33.6707 30.0205 34.0322 29.9824 34.3914Z" fill="#E0E0E0"/>
<path d="M30.3052 34.3914C30.2682 34.0321 30.2559 33.6707 30.2684 33.3098C30.2559 32.9483 30.2682 32.5864 30.3052 32.2266C30.3413 32.5864 30.3536 32.9483 30.342 33.3098C30.3536 33.6707 30.3413 34.032 30.3052 34.3914Z" fill="#E0E0E0"/>
<path d="M24.9732 34.3914C24.9362 34.0321 24.9239 33.6707 24.9364 33.3098C24.9239 32.9483 24.9362 32.5864 24.9732 32.2266C25.0102 32.5864 25.0225 32.9483 25.01 33.3098C25.0225 33.6707 25.0102 34.0321 24.9732 34.3914Z" fill="#E0E0E0"/>
<path d="M25.295 34.3914C25.2569 34.0322 25.2441 33.6707 25.2566 33.3098C25.2441 32.9482 25.2569 32.5863 25.295 32.2266C25.3311 32.5864 25.3433 32.9483 25.3318 33.3098C25.3433 33.6707 25.331 34.032 25.295 34.3914Z" fill="#E0E0E0"/>
<path d="M25.9922 33.3431C25.9922 33.3223 26.7618 33.3047 27.7106 33.3047C28.6594 33.3047 29.4306 33.3223 29.4306 33.3431C29.4306 33.3639 28.661 33.3799 27.7106 33.3799C26.7602 33.3799 25.9922 33.3639 25.9922 33.3431Z" fill="#E0E0E0"/>
<path d="M34.3139 32.1514L34.3066 30.7578L24.8956 30.8071L24.9029 32.2007L34.3139 32.1514Z" fill="#EBEBEB"/>
<path d="M32.9713 31.9805C32.8818 31.9818 32.7939 31.9564 32.7189 31.9076C32.6438 31.8588 32.585 31.7888 32.5499 31.7064C32.5147 31.6241 32.5049 31.5332 32.5216 31.4452C32.5383 31.3573 32.5807 31.2763 32.6436 31.2126C32.7064 31.1488 32.7868 31.1052 32.8745 31.0873C32.9622 31.0693 33.0532 31.0779 33.136 31.1118C33.2189 31.1458 33.2897 31.2036 33.3396 31.278C33.3894 31.3523 33.4161 31.4398 33.4161 31.5293C33.4165 31.5881 33.4053 31.6465 33.3832 31.701C33.3611 31.7555 33.3284 31.8051 33.2871 31.847C33.2458 31.8889 33.1967 31.9223 33.1425 31.9452C33.0883 31.9681 33.0301 31.9801 32.9713 31.9805Z" fill="#E0E0E0"/>
<path d="M31.7461 31.669V31.3906H25.4469V31.669H31.7461Z" fill="#E0E0E0"/>
<path d="M94.9643 54.3398H84.6523V55.3366H94.9643V54.3398Z" fill="#263238"/>
<path d="M93.8589 61.0859H83.5469V62.0827H93.8589V61.0859Z" fill="#263238"/>
<path d="M96.8589 47.0742H86.5469V48.071H96.8589V47.0742Z" fill="#263238"/>
<path d="M98.1206 40.2344H87.8086V41.2312H98.1206V40.2344Z" fill="#263238"/>
<path d="M91.6479 67.8711H81.3359V68.8679H91.6479V67.8711Z" fill="#263238"/>
<path d="M88.0516 34.2305L78.834 76.3169H80.562L89.8004 34.2977L88.0516 34.2305Z" fill="#263238"/>
<path d="M98.8312 34.2305L89.6152 76.3169H91.3416L100.58 34.2977L98.8312 34.2305Z" fill="#263238"/>
<path d="M88.9707 33.6797L98.6123 76.3133H100.204L90.6507 33.6797H88.9707Z" fill="#455A64"/>
<path d="M99.3867 33.6797L109.028 76.3133H110.62L101.068 33.6797H99.3867Z" fill="#455A64"/>
<path d="M87.5195 33.5266V34.413H102.252V33.3906L87.5195 33.5266Z" fill="#455A64"/>
<path d="M103.582 47.2812H93.2695V48.278H103.582V47.2812Z" fill="#455A64"/>
<path d="M105.595 54.3086H95.2832V55.3054H105.595V54.3086Z" fill="#455A64"/>
<path d="M106.757 61.0859H96.4453V62.0827H106.757V61.0859Z" fill="#455A64"/>
<path d="M108.49 68.375H98.1777V69.3718H108.49V68.375Z" fill="#455A64"/>
<path d="M101.757 40.2344H91.4453V41.2312H101.757V40.2344Z" fill="#455A64"/>
<path d="M99.7289 17.7161L99.7481 23.8553L97.3481 23.9689L97.2521 22.4985C97.2521 22.4985 96.097 22.6729 95.8554 21.8041C95.6954 21.2489 95.7401 16.9609 95.7401 16.9609L99.7289 17.7161Z" fill="#B78876"/>
<path d="M95.1511 17.5636C95.3287 17.9316 96.1735 18.602 96.1735 18.602L96.5559 19.6244C96.8871 19.3652 97.3319 19.3796 97.4167 19.9636C97.4775 20.3844 96.9527 20.4692 96.9527 20.4692C97.2583 20.9876 97.4647 21.4068 97.9127 21.8996C98.3927 22.434 98.6615 22.4868 99.1831 22.4964H99.7575C99.7575 22.4964 100.932 21.514 100.7 18.9284C100.468 16.3428 98.1399 17.098 97.5879 16.4516C96.6791 15.3988 94.5607 16.3396 95.1511 17.5636Z" fill="#263238"/>
<path d="M96.695 16.1821C96.5494 16.2257 96.4084 16.2836 96.2742 16.3549C96.1149 16.4421 95.9763 16.5625 95.8678 16.7081C95.7593 16.8537 95.6835 17.0209 95.6456 17.1985C95.6076 17.376 95.6084 17.5596 95.6478 17.7368C95.6873 17.9141 95.7645 18.0807 95.8742 18.2253C95.9703 18.345 96.0774 18.4554 96.1942 18.5549C96.1542 18.5418 96.1169 18.5218 96.0838 18.4957C95.9886 18.4311 95.9043 18.3517 95.8342 18.2605C95.712 18.1119 95.6249 17.9376 95.5794 17.7507C95.5338 17.5637 95.531 17.3689 95.5711 17.1807C95.6112 16.9925 95.6933 16.8158 95.8111 16.6637C95.929 16.5116 96.0796 16.388 96.2518 16.3021C96.3523 16.2491 96.4602 16.2113 96.5718 16.1901C96.612 16.1798 96.6538 16.1771 96.695 16.1821Z" fill="#455A64"/>
<path d="M96.9755 17.2578C96.9131 17.3057 96.8473 17.349 96.7787 17.3874C96.6265 17.4937 96.4994 17.6318 96.4059 17.7922C96.3134 17.9539 96.2587 18.1344 96.2459 18.3202C96.2473 18.3993 96.2436 18.4784 96.2347 18.557C96.1974 18.4839 96.1808 18.402 96.1867 18.3202C96.182 18.1214 96.2313 17.925 96.3293 17.752C96.4274 17.579 96.5705 17.4359 96.7435 17.3378C96.8116 17.2895 96.8921 17.2618 96.9755 17.2578Z" fill="#455A64"/>
<path d="M85.5193 32.0112C86.0282 32.0112 86.4409 31.5986 86.4409 31.0896C86.4409 30.5806 86.0282 30.168 85.5193 30.168C85.0103 30.168 84.5977 30.5806 84.5977 31.0896C84.5977 31.5986 85.0103 32.0112 85.5193 32.0112Z" fill="#294C88"/>
<path d="M92.9269 28.6211L91.7717 31.5747L87.1317 31.9667L87.0357 31.9411C86.9477 31.8835 86.8437 31.8115 86.7285 31.7235C86.6275 31.6465 86.5404 31.5529 86.4709 31.4467C86.3893 31.3297 86.3206 31.2041 86.2661 31.0723C86.2654 31.0622 86.2654 31.052 86.2661 31.0419C86.2616 31.0222 86.254 31.0033 86.2437 30.9859C86.2317 30.962 86.2133 30.9419 86.1906 30.9278C86.1678 30.9137 86.1416 30.9063 86.1149 30.9063C86.0881 30.9063 86.0619 30.9137 86.0392 30.9278C86.0164 30.9419 85.998 30.962 85.9861 30.9859C85.9397 31.0979 86.0101 31.4371 86.2469 31.7763C86.2495 31.7825 86.2527 31.7884 86.2565 31.7939C86.4869 32.1443 85.8661 31.9411 85.6389 31.8707C85.4117 31.8003 84.6997 31.6163 84.6245 31.6707C84.5141 31.7475 84.5797 31.8835 84.8069 31.9491C85.0341 32.0147 85.7093 32.2563 85.6693 32.3747C85.6293 32.4931 84.4773 32.1187 84.4773 32.1187C84.4773 32.1187 84.2437 32.0003 84.1925 32.1347C84.1013 32.3811 85.3541 32.6867 85.4725 32.7123C85.5557 32.7299 85.5173 32.8611 85.4277 32.8371C85.3381 32.8131 84.2869 32.4387 84.1909 32.6867C84.1189 32.8771 85.2197 32.9475 85.3973 33.1475C85.5749 33.3475 84.5669 33.0083 84.5045 33.1939C84.4805 33.2627 84.4741 33.3171 85.0789 33.4275C85.5564 33.4922 86.0371 33.5307 86.5189 33.5427L86.6549 33.5587V33.5411L92.2357 33.4707C93.0549 33.4707 93.7317 33.3379 93.9957 32.5603L94.9557 29.6803L92.9269 28.6211Z" fill="#B78876"/>
<path d="M108.576 55.0452L107.637 54.186L109.237 52.418L110.622 53.6612L110.531 53.778C110.117 54.29 108.389 56.354 107.994 56.5892C107.555 56.8532 108.576 55.0452 108.576 55.0452Z" fill="#294C88"/>
<g opacity="0.4">
<path opacity="0.4" d="M108.101 55.9521C108.101 55.9521 107.781 56.6161 107.923 56.6289C108.066 56.6417 109.894 54.6225 110.621 53.6609L110.579 53.6289L108.47 55.9969C108.47 55.9969 108.198 55.8529 108.101 55.9521Z" fill="white"/>
</g>
<path d="M110.603 53.6016C110.596 53.6136 110.588 53.6248 110.579 53.6352L110.505 53.7264L110.229 54.0608C109.993 54.3408 109.662 54.7248 109.288 55.1392C108.913 55.5536 108.566 55.9216 108.312 56.1856L108.008 56.4944L107.923 56.5776L107.893 56.6048C107.901 56.5932 107.91 56.5825 107.92 56.5728L108 56.4864L108.297 56.1664C108.547 55.8992 108.893 55.5264 109.267 55.1152C109.641 54.704 109.974 54.3152 110.213 54.0432L110.497 53.7152L110.574 53.6256L110.603 53.6016Z" fill="#263238"/>
<path d="M108.501 56.0244C108.434 55.9915 108.364 55.9652 108.293 55.946C108.219 55.9388 108.144 55.9388 108.07 55.946C108.14 55.9097 108.221 55.9006 108.298 55.9204C108.375 55.93 108.447 55.9668 108.501 56.0244Z" fill="#263238"/>
<path d="M108.707 55.2711C108.668 55.2805 108.627 55.2805 108.588 55.2711C108.524 55.2599 108.473 55.2455 108.475 55.2375C108.514 55.2281 108.554 55.2281 108.593 55.2375C108.657 55.2471 108.708 55.2631 108.707 55.2711Z" fill="#263238"/>
<path d="M108.759 55.0531C108.759 55.0611 108.717 55.0707 108.661 55.0771C108.628 55.0856 108.594 55.0856 108.561 55.0771C108.561 55.0691 108.604 55.0579 108.658 55.0515C108.713 55.0451 108.759 55.0451 108.759 55.0531Z" fill="#263238"/>
<path d="M108.673 54.8132C108.673 54.8132 108.648 54.8644 108.601 54.9156C108.555 54.9668 108.515 55.0052 108.509 54.9988C108.502 54.9924 108.534 54.9476 108.581 54.8964C108.627 54.8452 108.669 54.8068 108.673 54.8132Z" fill="#263238"/>
<path d="M108.585 54.6759C108.579 54.7246 108.557 54.7699 108.523 54.8055C108.473 54.8695 108.417 54.9047 108.412 54.8983C108.408 54.8919 108.452 54.8487 108.5 54.7879C108.548 54.7271 108.577 54.6727 108.585 54.6759Z" fill="#263238"/>
<path d="M108.499 55.1887C108.47 55.2319 108.435 55.2703 108.395 55.3023C108.352 55.3379 108.307 55.37 108.259 55.3983C108.23 55.4168 108.2 55.4313 108.168 55.4415C108.148 55.4493 108.126 55.4493 108.107 55.4415C108.097 55.4356 108.089 55.4271 108.083 55.417C108.078 55.4068 108.076 55.3953 108.076 55.3839C108.094 55.3211 108.133 55.2666 108.187 55.2295C108.241 55.1925 108.306 55.1752 108.371 55.1807C108.409 55.1832 108.446 55.1941 108.48 55.2127C108.504 55.2255 108.515 55.2351 108.513 55.2367C108.467 55.2176 108.419 55.2057 108.369 55.2015C108.316 55.1996 108.264 55.2135 108.219 55.2415C108.163 55.2725 108.122 55.3243 108.105 55.3855C108.105 55.4159 108.131 55.4271 108.161 55.4175C108.19 55.407 108.219 55.3941 108.246 55.3791C108.293 55.3524 108.339 55.3224 108.382 55.2895C108.456 55.2287 108.494 55.1855 108.499 55.1887Z" fill="#263238"/>
<path d="M108.481 55.2215C108.445 55.2126 108.413 55.1917 108.391 55.1623C108.364 55.132 108.345 55.0958 108.335 55.0567C108.327 55.0316 108.326 55.0051 108.331 54.9795C108.336 54.9538 108.347 54.9298 108.364 54.9095C108.377 54.9005 108.392 54.8968 108.408 54.8991C108.423 54.9015 108.437 54.9098 108.447 54.9223C108.463 54.9414 108.474 54.9638 108.481 54.9879C108.492 55.0253 108.499 55.064 108.501 55.1031C108.505 55.1393 108.501 55.1759 108.489 55.2103C108.489 55.2103 108.489 55.1687 108.489 55.1047C108.484 55.0676 108.475 55.0312 108.463 54.9959C108.453 54.9591 108.42 54.9095 108.389 54.9319C108.377 54.9488 108.369 54.9683 108.366 54.9888C108.363 55.0094 108.364 55.0304 108.37 55.0503C108.377 55.0865 108.392 55.1205 108.415 55.1495C108.441 55.1975 108.481 55.2167 108.481 55.2215Z" fill="#263238"/>
<path d="M110.08 53.1992C110.08 53.1992 110.03 53.2456 109.966 53.3336C109.885 53.4491 109.837 53.5847 109.827 53.7256C109.819 53.8663 109.85 54.0065 109.917 54.1304C109.969 54.2264 110.017 54.276 110.013 54.2792C109.999 54.2704 109.987 54.2596 109.977 54.2472C109.948 54.2148 109.921 54.1794 109.899 54.1416C109.824 54.0156 109.789 53.8702 109.798 53.724C109.809 53.577 109.865 53.4368 109.958 53.3224C109.985 53.2875 110.016 53.2554 110.049 53.2264C110.058 53.2159 110.068 53.2068 110.08 53.1992Z" fill="#263238"/>
<path d="M109.186 52.7188C109.317 52.8176 109.443 52.9245 109.562 53.0388C109.688 53.1428 109.807 53.2544 109.92 53.3731C109.788 53.2741 109.662 53.1672 109.542 53.0531C109.417 52.9489 109.298 52.8372 109.186 52.7188Z" fill="#263238"/>
<path d="M109.654 54.3595C109.597 54.4618 109.527 54.5564 109.446 54.6411C109.371 54.7312 109.286 54.8117 109.191 54.8811C109.191 54.8811 109.297 54.7659 109.423 54.6219C109.55 54.4779 109.646 54.3547 109.654 54.3595Z" fill="#263238"/>
<path d="M109.967 54.0117C109.975 54.0117 109.983 54.0437 109.999 54.0789C110.015 54.1141 110.032 54.1429 110.026 54.1477C110.02 54.1525 109.991 54.1317 109.972 54.0901C109.952 54.0485 109.959 54.0117 109.967 54.0117Z" fill="#263238"/>
<path d="M109.92 53.7344C109.92 53.7344 109.936 53.7632 109.939 53.7984C109.942 53.8336 109.939 53.8624 109.928 53.8624C109.917 53.8624 109.912 53.8352 109.91 53.8C109.909 53.7648 109.92 53.736 109.92 53.7344Z" fill="#263238"/>
<path d="M110.017 53.4783C110.017 53.4783 110 53.5071 109.985 53.5424C109.971 53.5776 109.968 53.608 109.96 53.608C109.952 53.608 109.941 53.5728 109.96 53.5311C109.979 53.4895 110.013 53.4703 110.017 53.4783Z" fill="#263238"/>
<path d="M110.103 53.3169C110.103 53.3169 110.103 53.3377 110.103 53.3569C110.103 53.3761 110.082 53.3905 110.076 53.3889C110.069 53.3873 110.068 53.3665 110.076 53.3473C110.084 53.3281 110.095 53.3137 110.103 53.3169Z" fill="#263238"/>
<g opacity="0.3">
<path opacity="0.3" d="M109.973 53.1221L108.181 54.6901L107.957 54.4901L109.578 52.7109L109.973 53.1221Z" fill="black"/>
</g>
<path d="M100.991 60.2242L100.781 58.9698L103.13 58.5586L103.45 60.3906L103.306 60.4258C102.666 60.5746 100.032 61.1362 99.5761 61.0802C99.0737 61.021 100.991 60.2242 100.991 60.2242Z" fill="#294C88"/>
<g opacity="0.4">
<path opacity="0.4" d="M100.061 60.6455C100.061 60.6455 99.3967 60.9655 99.5039 61.0695C99.6111 61.1735 102.293 60.7015 103.458 60.391L103.445 60.3398L100.321 60.9127C100.321 60.9127 100.2 60.6358 100.061 60.6455Z" fill="white"/>
</g>
<path d="M103.48 60.3359L103.44 60.3471L103.325 60.3743L102.902 60.4671C102.544 60.5439 102.046 60.6415 101.498 60.7375C100.949 60.8335 100.447 60.9103 100.083 60.9616L99.6529 61.0175L99.5361 61.032C99.5228 61.0334 99.5094 61.0334 99.4961 61.032H99.5361L99.6513 61.0127L100.08 60.9472C100.442 60.8911 100.941 60.8127 101.491 60.7167C102.042 60.6207 102.539 60.5247 102.898 60.4543L103.323 60.3695L103.438 60.3487C103.452 60.343 103.466 60.3387 103.48 60.3359Z" fill="#263238"/>
<path d="M100.329 60.9569C100.296 60.8901 100.257 60.8268 100.212 60.7681C100.16 60.7153 100.102 60.6686 100.039 60.6289C100.116 60.6447 100.185 60.6872 100.234 60.7489C100.29 60.8048 100.323 60.8785 100.329 60.9569Z" fill="#263238"/>
<path d="M100.96 60.4798C100.96 60.4798 100.913 60.451 100.87 60.403C100.827 60.355 100.796 60.3118 100.801 60.3054C100.806 60.299 100.848 60.3358 100.892 60.3838C100.937 60.4318 100.96 60.4798 100.96 60.4798Z" fill="#263238"/>
<path d="M101.131 60.3468C101.131 60.3468 101.086 60.334 101.038 60.3052C100.99 60.2764 100.958 60.246 100.961 60.2396C100.964 60.2332 101.008 60.2508 101.054 60.2812C101.1 60.3116 101.136 60.3388 101.131 60.3468Z" fill="#263238"/>
<path d="M101.214 60.1055C101.177 60.1265 101.136 60.139 101.094 60.1423C101.053 60.1547 101.01 60.1575 100.969 60.1503C101.006 60.1293 101.047 60.1167 101.089 60.1135C101.129 60.101 101.172 60.0983 101.214 60.1055Z" fill="#263238"/>
<path d="M101.226 59.9375C101.19 59.9707 101.145 59.9925 101.097 59.9999C101.049 60.015 100.999 60.015 100.951 59.9999C100.996 59.985 101.042 59.9737 101.089 59.9663C101.133 59.9517 101.18 59.942 101.226 59.9375Z" fill="#263238"/>
<path d="M100.843 60.2882C100.795 60.3047 100.744 60.3134 100.693 60.3138C100.637 60.3156 100.581 60.3129 100.525 60.3058C100.491 60.3024 100.459 60.2949 100.427 60.2834C100.417 60.2801 100.408 60.2749 100.4 60.268C100.392 60.2612 100.386 60.2528 100.381 60.2434C100.377 60.2326 100.376 60.2209 100.378 60.2096C100.38 60.1983 100.386 60.1879 100.394 60.1794C100.446 60.1408 100.511 60.1217 100.576 60.1255C100.641 60.1293 100.703 60.1557 100.75 60.2002C100.779 60.2264 100.801 60.258 100.818 60.293C100.824 60.3053 100.827 60.3191 100.827 60.333C100.804 60.2888 100.773 60.2492 100.736 60.2162C100.696 60.1822 100.646 60.1611 100.594 60.1554C100.563 60.15 100.531 60.1511 100.5 60.1585C100.47 60.1659 100.441 60.1796 100.416 60.1986C100.395 60.2194 100.416 60.2466 100.438 60.2578C100.468 60.2681 100.499 60.2751 100.53 60.2786C100.582 60.2882 100.636 60.2931 100.69 60.293C100.786 60.293 100.843 60.2834 100.843 60.2882Z" fill="#263238"/>
<path d="M100.801 60.3028C100.776 60.2747 100.763 60.238 100.764 60.2004C100.762 60.1602 100.77 60.1202 100.786 60.0836C100.796 60.0592 100.811 60.0374 100.83 60.0201C100.85 60.0028 100.873 59.9905 100.898 59.9844C100.914 59.9852 100.929 59.9919 100.94 60.0032C100.951 60.0144 100.957 60.0294 100.958 60.0452C100.958 60.07 100.954 60.0946 100.943 60.1172C100.929 60.1543 100.911 60.1893 100.887 60.2212C100.869 60.2525 100.843 60.2789 100.812 60.298C100.812 60.298 100.838 60.266 100.871 60.21C100.89 60.1782 100.906 60.1444 100.918 60.1092C100.934 60.0724 100.937 60.0132 100.898 60.0132C100.86 60.0132 100.828 60.0612 100.81 60.0948C100.794 60.1276 100.785 60.1637 100.785 60.2004C100.786 60.235 100.792 60.2693 100.801 60.3028Z" fill="#263238"/>
<path d="M103.321 59.6993C103.321 59.6993 103.253 59.6992 103.149 59.7345C103.013 59.7756 102.892 59.8524 102.797 59.9569C102.704 60.0637 102.643 60.1937 102.619 60.3329C102.601 60.4401 102.609 60.5073 102.603 60.5089C102.601 60.4929 102.601 60.4768 102.603 60.4609C102.598 60.4172 102.598 60.3733 102.603 60.3297C102.621 60.1841 102.683 60.0476 102.781 59.9379C102.878 59.8282 103.006 59.7506 103.149 59.7153C103.191 59.7048 103.235 59.6984 103.278 59.6961C103.293 59.6944 103.307 59.6955 103.321 59.6993Z" fill="#263238"/>
<path d="M102.906 58.7617C102.95 58.9195 102.985 59.0798 103.01 59.2417C103.046 59.4 103.071 59.5603 103.087 59.7217C103.043 59.5639 103.008 59.4036 102.983 59.2417C102.948 59.0833 102.923 58.923 102.906 58.7617Z" fill="#263238"/>
<path d="M102.267 60.3448C102.16 60.3914 102.047 60.4231 101.931 60.4392C101.816 60.4652 101.699 60.476 101.582 60.4712C101.582 60.4712 101.742 60.4456 101.924 60.4104C102.107 60.3752 102.265 60.3368 102.267 60.3448Z" fill="#263238"/>
<path d="M102.721 60.2662C102.721 60.2662 102.721 60.3014 102.703 60.3382C102.685 60.375 102.692 60.4085 102.682 60.4101C102.673 60.4117 102.665 60.375 102.682 60.3318C102.7 60.2886 102.721 60.2614 102.721 60.2662Z" fill="#263238"/>
<path d="M102.863 60.0202C102.863 60.0202 102.863 60.0522 102.837 60.081C102.812 60.1098 102.796 60.129 102.789 60.1242C102.783 60.1194 102.789 60.0938 102.813 60.065C102.837 60.0362 102.855 60.0154 102.863 60.0202Z" fill="#263238"/>
<path d="M103.094 59.8754C103.094 59.8834 103.062 59.8898 103.03 59.9074C102.998 59.925 102.975 59.949 102.969 59.9442C102.962 59.9394 102.969 59.9042 103.015 59.8818C103.062 59.8594 103.095 59.8674 103.094 59.8754Z" fill="#263238"/>
<path d="M103.261 59.7998C103.261 59.7998 103.261 59.8206 103.235 59.8318C103.209 59.843 103.2 59.8462 103.195 59.8398C103.19 59.8334 103.195 59.8174 103.221 59.8078C103.246 59.7982 103.257 59.7934 103.261 59.7998Z" fill="#263238"/>
<g opacity="0.3">
<path opacity="0.3" d="M103.28 59.5657L100.902 59.6969L100.85 59.4025L103.221 58.9961L103.28 59.5657Z" fill="black"/>
</g>
<path d="M93.9499 24.4301L89.5403 19.9501L89.4443 19.4701C89.4251 19.3821 89.4075 19.2829 89.3899 19.1693C89.3683 19.039 89.3683 18.906 89.3899 18.7757C89.4131 18.6133 89.4589 18.455 89.5259 18.3053C89.5995 18.1757 89.4811 18.0189 89.3579 18.0733C89.2347 18.1277 89.0219 18.4781 88.9755 18.9629C88.9291 19.4477 88.5163 18.8029 88.3627 18.5741C88.2091 18.3453 87.6971 17.6493 87.5899 17.6413C87.4299 17.6285 87.3947 17.8013 87.5531 18.0253C87.7115 18.2493 88.1451 18.9693 88.0235 19.0445C87.903 19.0236 87.7789 19.0417 87.6693 19.0961C87.5597 19.1504 87.4702 19.2383 87.4139 19.3469C87.3019 19.5613 87.1787 19.8637 87.2795 20.0029C87.4979 20.2663 87.7331 20.5154 87.9835 20.7485L88.1307 20.8749C88.1307 20.8749 91.9467 26.4045 92.7707 26.5853C93.2875 26.6957 101.284 27.3597 101.284 27.3597L101.888 25.1565L93.9499 24.4301Z" fill="#B78876"/>
<path d="M87.25 19.9088L87.658 20.3008C87.7034 20.3487 87.7578 20.3873 87.818 20.4144C87.8476 20.427 87.8801 20.431 87.9118 20.4259C87.9435 20.4208 87.9732 20.4068 87.9972 20.3856C88.014 20.3629 88.0249 20.3364 88.0291 20.3085C88.0333 20.2806 88.0306 20.2522 88.0212 20.2256C87.9987 20.1723 87.9667 20.1235 87.9268 20.0816L87.53 19.6016" fill="#B78876"/>
<path d="M87.5203 19.5977C87.5283 19.5977 87.6051 19.6665 87.7219 19.7945C87.7875 19.8681 87.8547 19.9433 87.9235 20.0233C87.9678 20.0688 88.006 20.1199 88.0371 20.1753C88.0561 20.2103 88.0651 20.2498 88.0631 20.2896C88.0611 20.3294 88.0483 20.3679 88.0259 20.4009C87.9984 20.4314 87.9621 20.4527 87.922 20.4618C87.8819 20.471 87.84 20.4676 87.8019 20.4521C87.7411 20.4268 87.6865 20.3886 87.6419 20.3401L87.4291 20.1225C87.3091 19.9977 87.2387 19.9161 87.2467 19.9065C87.329 19.9534 87.4039 20.0122 87.4691 20.0809L87.6947 20.2841C87.7325 20.3237 87.7784 20.3547 87.8291 20.3753C87.8511 20.3845 87.8753 20.387 87.8986 20.3824C87.922 20.3779 87.9435 20.3665 87.9603 20.3497C87.9726 20.3285 87.979 20.3045 87.979 20.2801C87.979 20.2556 87.9726 20.2316 87.9603 20.2105C87.9329 20.1603 87.8996 20.1135 87.8611 20.0713L87.6803 19.8393C87.6147 19.7676 87.5607 19.6861 87.5203 19.5977Z" fill="#AA6550"/>
<path d="M87.5391 19.6222L87.9471 20.0142C87.9922 20.0621 88.0466 20.1002 88.1071 20.1262C88.1342 20.1415 88.1656 20.1476 88.1965 20.1438C88.2274 20.1399 88.2563 20.1262 88.2788 20.1047C88.3014 20.0832 88.3165 20.0551 88.3218 20.0244C88.3272 19.9937 88.3226 19.9621 88.3087 19.9342C88.287 19.8803 88.2555 19.831 88.2159 19.7886L87.8191 19.3086" fill="#B78876"/>
<path d="M87.8127 19.3125C87.8887 19.369 87.9565 19.4358 88.0142 19.5109L88.2158 19.7381C88.2609 19.7859 88.2992 19.8398 88.3294 19.8981C88.3484 19.9331 88.3574 19.9727 88.3554 20.0125C88.3534 20.0522 88.3406 20.0907 88.3182 20.1237C88.2907 20.1542 88.2544 20.1755 88.2143 20.1847C88.1742 20.1938 88.1323 20.1904 88.0942 20.1749C88.0334 20.1496 87.9788 20.1114 87.9342 20.0629L87.7215 19.8405C87.6506 19.7776 87.5892 19.7049 87.5391 19.6245C87.6211 19.6712 87.696 19.7294 87.7615 19.7973L87.987 20.0021C88.0249 20.0417 88.0707 20.0728 88.1214 20.0933C88.1434 20.1021 88.1675 20.1044 88.1908 20.0998C88.2141 20.0953 88.2355 20.0841 88.2526 20.0677C88.2648 20.0462 88.2712 20.022 88.2712 19.9973C88.2712 19.9726 88.2648 19.9484 88.2526 19.9269C88.2252 19.8772 88.1919 19.831 88.1534 19.7893L87.9662 19.5493C87.9027 19.4791 87.8509 19.3991 87.8127 19.3125Z" fill="#AA6550"/>
<path d="M87.8574 19.3839L88.2654 19.7759C88.3098 19.8247 88.3644 19.8629 88.4254 19.8879C88.4526 19.9032 88.4839 19.9093 88.5148 19.9055C88.5458 19.9016 88.5746 19.8879 88.5972 19.8664C88.6198 19.8449 88.6348 19.8168 88.6402 19.7861C88.6456 19.7554 88.641 19.7238 88.627 19.6959C88.6047 19.642 88.5727 19.5927 88.5326 19.5503C88.4014 19.3903 88.2686 19.2303 88.1374 19.0703" fill="#B78876"/>
<path d="M88.131 19.0742C88.2068 19.1304 88.2746 19.1966 88.3326 19.271L88.5342 19.4998C88.578 19.5455 88.6156 19.5965 88.6462 19.6518C88.6661 19.6869 88.6755 19.7268 88.6735 19.767C88.6716 19.8073 88.6582 19.8461 88.635 19.879C88.6079 19.9096 88.5719 19.931 88.532 19.9401C88.4922 19.9493 88.4504 19.9459 88.4126 19.9302C88.3518 19.905 88.2972 19.8667 88.2526 19.8182L88.0382 19.6006C87.9675 19.538 87.9066 19.4652 87.8574 19.3846C87.9391 19.4318 88.014 19.4899 88.0798 19.5574L88.3054 19.7622C88.343 19.8014 88.3882 19.8325 88.4382 19.8534C88.4602 19.8624 88.4844 19.8648 88.5077 19.8603C88.531 19.8557 88.5525 19.8444 88.5694 19.8278C88.5821 19.8065 88.5888 19.7822 88.5888 19.7574C88.5888 19.7326 88.5821 19.7083 88.5694 19.687C88.542 19.6377 88.5093 19.5916 88.4718 19.5494L88.2846 19.3094C88.2213 19.2397 88.1694 19.1603 88.131 19.0742Z" fill="#AA6550"/>
<path d="M88.5039 20.0676C88.5039 20.0548 88.6047 20.034 88.7519 20.0788L88.7055 20.1188C88.6829 20.0272 88.6791 19.932 88.6943 19.8388C88.7161 19.7129 88.7714 19.5952 88.8543 19.498C88.9167 19.4244 88.9695 19.3956 88.9759 19.4036C88.8871 19.541 88.8222 19.6925 88.7839 19.8516C88.7712 19.9354 88.7712 20.0206 88.7839 20.1044V20.1684L88.7295 20.146C88.5999 20.0916 88.5023 20.0836 88.5039 20.0676Z" fill="#AA6550"/>
<path d="M95.3867 29.0483L94.9787 30.4323L92.3867 29.2579C92.4811 28.9683 92.9099 27.6787 93.7291 25.6323C93.9532 25.0709 94.3181 24.5767 94.7886 24.1972C95.2591 23.8178 95.8194 23.5659 96.4155 23.4659C97.2348 23.3178 98.0647 23.2364 98.8971 23.2227C100.352 23.2387 102.491 24.1475 102.777 25.5715C102.998 26.6595 102.276 33.4595 102.276 33.4595L102.708 36.0371L95.1483 35.6211L95.3867 29.0483Z" fill="#294C88"/>
<path d="M95.2012 24.209C95.2012 24.209 95.2764 24.2202 95.3996 24.2682C95.5715 24.3427 95.7198 24.4628 95.8284 24.6154C95.9868 24.844 96.0757 25.1135 96.0844 25.3914C96.0947 25.7335 96.0684 26.0757 96.006 26.4122C95.9004 27.0278 95.7615 27.6373 95.59 28.2378C95.5292 28.4618 95.478 28.6458 95.4396 28.7866C95.4176 28.8528 95.4015 28.9208 95.3916 28.9898C95.4216 28.9266 95.4457 28.8607 95.4636 28.793C95.5052 28.665 95.5644 28.481 95.6332 28.2506C95.819 27.6514 95.965 27.0404 96.07 26.4218C96.1328 26.0806 96.1575 25.7334 96.1436 25.3866C96.1311 25.0984 96.0343 24.8203 95.8652 24.5866C95.7484 24.4308 95.5897 24.3115 95.4076 24.2426C95.3581 24.2264 95.3072 24.2146 95.2556 24.2074C95.2172 24.2074 95.2012 24.2058 95.2012 24.209Z" fill="#263238"/>
<path d="M102.23 24.516C102.23 24.5256 100.485 24.5336 98.3312 24.5336C96.1776 24.5336 94.4336 24.5336 94.4336 24.516C94.4336 24.4984 96.1776 24.5 98.3312 24.5C100.485 24.5 102.23 24.508 102.23 24.516Z" fill="#F5F5F5"/>
<path d="M102.807 25.8106C102.807 25.8186 100.757 25.8266 98.2276 25.8266C95.698 25.8266 93.6484 25.8266 93.6484 25.8106C93.6484 25.7946 95.698 25.793 98.2276 25.793C100.757 25.793 102.807 25.801 102.807 25.8106Z" fill="#F5F5F5"/>
<path d="M102.797 27.1543C102.797 27.1639 100.64 27.1703 97.9774 27.1703C95.315 27.1703 93.1582 27.1703 93.1582 27.1543C93.1582 27.1383 95.315 27.1367 97.9774 27.1367C100.64 27.1367 102.797 27.1447 102.797 27.1543Z" fill="#F5F5F5"/>
<path d="M102.661 28.3028C102.661 28.3124 100.421 28.3188 97.6774 28.3188C94.9334 28.3188 92.6934 28.3188 92.6934 28.3028C92.6934 28.2868 94.9238 28.2852 97.6774 28.2852C100.431 28.2852 102.661 28.2932 102.661 28.3028Z" fill="#F5F5F5"/>
<path d="M102.637 29.5975C102.637 29.6071 101 29.6119 98.9822 29.6087C96.9646 29.6055 95.3262 29.5943 95.3262 29.5863C95.3262 29.5783 96.963 29.5719 98.9822 29.5751C101.001 29.5783 102.637 29.5799 102.637 29.5975Z" fill="#F5F5F5"/>
<path d="M102.562 30.5936C102.562 30.6032 100.944 30.608 98.9487 30.6048C96.9535 30.6016 95.3359 30.5904 95.3359 30.5824C95.3359 30.5744 96.9535 30.568 98.9487 30.5712C100.944 30.5744 102.562 30.584 102.562 30.5936Z" fill="#F5F5F5"/>
<path d="M102.359 31.582C102.359 31.5916 100.759 31.5964 98.8002 31.5932C96.8418 31.59 95.2402 31.5804 95.2402 31.5708C95.2402 31.5612 96.8402 31.5564 98.8002 31.5596C100.76 31.5628 102.359 31.5724 102.359 31.582Z" fill="#F5F5F5"/>
<path d="M102.358 32.6521H102.287H101.327C100.687 32.6521 99.8106 32.6377 98.841 32.6169L96.3546 32.5721L95.601 32.5625H95.3962H95.3242H95.3962H95.601H96.3546C96.9946 32.5625 97.8698 32.5769 98.841 32.5961L101.327 32.6409L102.081 32.6505H102.286C102.31 32.6496 102.334 32.6501 102.358 32.6521Z" fill="#F5F5F5"/>
<path d="M102.21 33.5742C102.21 33.5838 100.645 33.5886 98.7174 33.5854C96.7894 33.5822 95.2246 33.5726 95.2246 33.563C95.2246 33.5534 96.7878 33.5486 98.7174 33.5518C100.647 33.555 102.21 33.5646 102.21 33.5742Z" fill="#F5F5F5"/>
<path d="M102.463 34.5662C102.463 34.5758 100.842 34.5806 98.8438 34.5774C96.8454 34.5742 95.2246 34.563 95.2246 34.555C95.2246 34.547 96.8454 34.5406 98.8438 34.5438C100.842 34.547 102.463 34.5582 102.463 34.5662Z" fill="#F5F5F5"/>
<path d="M102.632 35.5664C102.632 35.576 100.957 35.5952 98.8912 35.6112C96.8256 35.6272 95.1504 35.6304 95.1504 35.6208C95.1504 35.6112 96.8256 35.592 98.8912 35.5776C100.957 35.5632 102.632 35.5584 102.632 35.5664Z" fill="#F5F5F5"/>
<path d="M95.252 29.5446C95.252 29.5542 94.668 29.5254 93.9496 29.4807C93.2312 29.4359 92.6504 29.3943 92.6504 29.3847C92.6504 29.3751 93.2344 29.4039 93.9528 29.4487C94.6712 29.4935 95.252 29.535 95.252 29.5446Z" fill="#F5F5F5"/>
<path d="M101.099 33.1052C101.076 33.1115 101.053 33.1153 101.029 33.1164C100.982 33.1164 100.915 33.1308 100.827 33.1324C100.578 33.1415 100.329 33.1276 100.083 33.0908C99.2617 32.9739 98.4905 32.6262 97.8591 32.088C97.2277 31.5498 96.7622 30.8433 96.5167 30.0508C96.441 29.8136 96.3875 29.5699 96.3567 29.3228C96.3439 29.2364 96.3423 29.1628 96.3391 29.1212C96.3349 29.0979 96.3349 29.0741 96.3391 29.0508C96.3607 29.1388 96.3773 29.228 96.3887 29.318C96.4306 29.5603 96.4916 29.7989 96.5711 30.0316C96.8277 30.8049 97.2915 31.4931 97.9122 32.0209C98.5329 32.5488 99.2866 32.8962 100.091 33.0252C100.334 33.0665 100.579 33.0889 100.826 33.0924C100.917 33.0897 101.008 33.094 101.099 33.1052Z" fill="#263238"/>
<g opacity="0.2">
<path opacity="0.2" d="M95.3269 29.5798C95.811 29.0961 96.1485 28.4854 96.3006 27.8181C96.4526 27.1509 96.4129 26.4543 96.1861 25.8086C95.8661 27.063 95.5749 28.3238 95.3125 29.591" fill="black"/>
</g>
<g opacity="0.2">
<path opacity="0.2" d="M96.5653 30.1641C96.7646 30.5646 97.0517 30.915 97.4052 31.1892C97.7586 31.4635 98.1694 31.6545 98.6069 31.7481C98.9365 31.8169 99.2757 31.8281 99.6037 31.9081C99.9392 31.9654 100.241 32.1471 100.448 32.4169C100.556 32.5769 100.608 32.8137 100.471 32.9593C100.333 33.1049 100.092 33.0825 99.8949 33.0297C99.1565 32.8289 98.4697 32.4722 97.8807 31.9837C97.2918 31.4952 96.8143 30.8862 96.4805 30.1977" fill="black"/>
</g>
<path d="M95.1504 35.6211L100.496 59.4579H103.52L100.565 38.7635L101.12 37.0051L100.789 35.8403L95.1504 35.6211Z" fill="#263238"/>
<path d="M99.2609 38.6992C99.5217 38.9776 99.3617 47.6464 99.3617 47.6464L107.842 54.76L109.89 52.9744L102.923 46.3488L103.135 38.3488L102.701 35.9168L98.8945 35.7344L99.2609 38.6992Z" fill="#263238"/>
<path d="M101.524 36.6641C101.543 36.7192 101.554 36.7769 101.556 36.8353C101.565 37.0044 101.538 37.1736 101.476 37.3313C101.378 37.5791 101.245 37.8118 101.082 38.0225C100.864 38.2923 100.697 38.5998 100.589 38.9297C100.505 39.3418 100.509 39.7669 100.599 40.1777L100.848 41.6177C101.018 42.6321 101.194 43.7489 101.372 44.9217C101.724 47.2657 102.042 49.3873 102.272 50.9297C102.392 51.6945 102.488 52.3137 102.557 52.7489C102.589 52.9601 102.615 53.1249 102.634 53.2449C102.634 53.2977 102.647 53.3393 102.652 53.3729C102.653 53.3878 102.653 53.4027 102.652 53.4177C102.645 53.404 102.641 53.3894 102.639 53.3745C102.639 53.3409 102.623 53.2993 102.613 53.2465C102.591 53.1281 102.559 52.9633 102.52 52.7553C102.442 52.3265 102.335 51.7073 102.21 50.9393C101.957 49.4049 101.639 47.2801 101.285 44.9329C101.106 43.7617 100.933 42.6449 100.767 41.6305C100.682 41.1233 100.607 40.6417 100.527 40.1905C100.436 39.7686 100.436 39.3323 100.527 38.9105C100.64 38.5751 100.814 38.2637 101.04 37.9921C101.203 37.786 101.338 37.5589 101.44 37.3169C101.529 37.1114 101.558 36.8852 101.524 36.6641Z" fill="#455A64"/>
<path d="M102.979 46.375C102.979 46.399 102.765 46.4582 102.515 46.5846C102.266 46.711 102.086 46.8486 102.07 46.831C102.183 46.6974 102.322 46.588 102.478 46.5097C102.634 46.4313 102.805 46.3855 102.979 46.375Z" fill="#455A64"/>
<path d="M26.0545 69.2111C26.3676 68.3938 26.7769 67.6166 27.2737 66.8959C27.4207 66.64 27.6407 66.4339 27.9057 66.3039C28.3649 66.1295 28.8657 66.4111 29.2705 66.6815L30.2209 67.3071C30.251 67.3211 30.2779 67.3412 30.2997 67.3663C30.3215 67.3914 30.3377 67.4209 30.3473 67.4527C30.3649 67.5711 30.2177 67.6383 30.1009 67.6527C29.6946 67.6991 29.2852 67.598 28.9473 67.3679C28.6929 67.1919 28.4433 66.9311 28.1345 66.9631C27.7505 67.0031 27.5793 67.4431 27.4305 67.8047C27.1075 68.5733 26.5393 69.2135 25.8145 69.6255" fill="#294C88"/>
<path d="M26.0524 69.364C26.126 67.4616 26.2012 65.5448 26.6572 63.6984C27.1132 61.852 27.9804 60.0552 29.4124 58.8008C29.2236 60.4008 28.6412 61.9288 28.0636 63.4408C27.2871 65.4674 26.51 67.4941 25.7324 69.5208" fill="#294C88"/>
<path d="M25.7225 70.0565C25.4532 68.3248 24.9694 66.6335 24.2825 65.0213C24.2038 64.775 24.0506 64.5592 23.8441 64.4037C23.5241 64.2085 23.1017 64.3365 22.7545 64.4917C21.9257 64.8603 21.1583 65.3541 20.4793 65.9557C20.4207 65.9974 20.3778 66.0577 20.3577 66.1269C20.355 66.1799 20.3712 66.2322 20.4034 66.2744C20.4357 66.3166 20.4818 66.3459 20.5337 66.3573C20.6403 66.3781 20.7504 66.3715 20.8537 66.3381L22.7545 65.8981C22.9427 65.8346 23.1456 65.8291 23.3369 65.8821C23.5609 65.9701 23.6857 66.2021 23.7929 66.4181L25.6601 70.1813" fill="#294C88"/>
<g opacity="0.4">
<path opacity="0.4" d="M26.0545 69.2111C26.3676 68.3938 26.7769 67.6166 27.2737 66.8959C27.4207 66.64 27.6407 66.4339 27.9057 66.3039C28.3649 66.1295 28.8657 66.4111 29.2705 66.6815L30.2209 67.3071C30.251 67.3211 30.2779 67.3412 30.2997 67.3663C30.3215 67.3914 30.3377 67.4209 30.3473 67.4527C30.3649 67.5711 30.2177 67.6383 30.1009 67.6527C29.6946 67.6991 29.2852 67.598 28.9473 67.3679C28.6929 67.1919 28.4433 66.9311 28.1345 66.9631C27.7505 67.0031 27.5793 67.4431 27.4305 67.8047C27.1075 68.5733 26.5393 69.2135 25.8145 69.6255" fill="black"/>
</g>
<g opacity="0.4">
<path opacity="0.4" d="M26.0524 69.364C26.126 67.4616 26.2012 65.5448 26.6572 63.6984C27.1132 61.852 27.9804 60.0552 29.4124 58.8008C29.2236 60.4008 28.6412 61.9288 28.0636 63.4408C27.2871 65.4674 26.51 67.4941 25.7324 69.5208" fill="black"/>
</g>
<g opacity="0.3">
<path opacity="0.3" d="M25.7225 70.0565C25.4532 68.3248 24.9694 66.6335 24.2825 65.0213C24.2038 64.775 24.0506 64.5592 23.8441 64.4037C23.5241 64.2085 23.1017 64.3365 22.7545 64.4917C21.9257 64.8603 21.1583 65.3541 20.4793 65.9557C20.4207 65.9974 20.3778 66.0577 20.3577 66.1269C20.355 66.1799 20.3712 66.2322 20.4034 66.2744C20.4357 66.3166 20.4818 66.3459 20.5337 66.3573C20.6403 66.3781 20.7504 66.3715 20.8537 66.3381L22.7545 65.8981C22.9427 65.8346 23.1456 65.8291 23.3369 65.8821C23.5609 65.9701 23.6857 66.2021 23.7929 66.4181L25.6601 70.1813" fill="black"/>
</g>
<path d="M28.6105 55.7227C27.023 57.6072 26.0933 59.958 25.9625 62.4187C25.7833 66.4667 25.5449 69.3835 25.5449 69.3835H25.9913C25.9913 69.3835 26.8841 61.2235 27.4793 59.7995C28.0745 58.3755 28.9977 56.3483 28.6105 55.7227Z" fill="#294C88"/>
<path d="M28.6108 55.7227C28.5966 55.7676 28.5779 55.8111 28.5548 55.8523L28.3836 56.2171C28.2364 56.5371 28.0316 56.9979 27.8044 57.5803C27.5772 58.1627 27.3244 58.8603 27.0908 59.6603C26.8281 60.5176 26.6203 61.3909 26.4684 62.2747C26.3884 62.7435 26.3516 63.2075 26.3084 63.6571C26.2652 64.1067 26.2492 64.5403 26.2252 64.9531C26.1756 65.7803 26.126 66.5259 26.0572 67.1483C25.9884 67.7707 25.9084 68.2683 25.838 68.6171C25.806 68.7899 25.7724 68.9211 25.7516 69.0123C25.742 69.0577 25.7297 69.1026 25.7148 69.1467C25.7171 69.0997 25.7241 69.053 25.7356 69.0075C25.7516 68.9179 25.7788 68.7851 25.806 68.6107C25.8668 68.2667 25.9404 67.7659 25.9996 67.1419C26.0588 66.5179 26.1036 65.7755 26.1484 64.9483C26.1708 64.5355 26.1948 64.1003 26.2268 63.6507C26.2588 63.2011 26.2972 62.7339 26.3772 62.2603C26.5327 61.373 26.7465 60.497 27.0172 59.6379C27.2588 58.8379 27.5148 58.1419 27.7484 57.5579C27.982 56.9739 28.198 56.5147 28.3532 56.2011C28.43 56.0411 28.4972 55.9243 28.5404 55.8427C28.5599 55.8004 28.5835 55.7603 28.6108 55.7227Z" fill="#263238"/>
<path d="M30.2708 59.5195C30.2708 59.5195 27.2564 62.3995 26.9108 65.1115C26.5652 67.8235 26.4004 69.2795 26.4004 69.2795H26.698C26.698 69.2795 27.4116 65.4107 28.3348 64.1899C29.258 62.9691 30.4788 59.8395 30.2708 59.5195Z" fill="#294C88"/>
<path d="M30.2382 59.6992C30.2261 59.7309 30.2111 59.7615 30.1934 59.7904L30.0526 60.0448L29.5262 60.9744C29.0862 61.7584 28.475 62.8464 27.9262 64.1024C27.4455 65.1725 27.0843 66.2923 26.8494 67.4416C26.763 67.8832 26.7134 68.2416 26.6894 68.4944C26.6734 68.6192 26.667 68.7168 26.659 68.7824C26.6573 68.8165 26.6519 68.8503 26.643 68.8832C26.6398 68.8492 26.6398 68.8149 26.643 68.7808C26.643 68.7152 26.643 68.6208 26.6574 68.4912C26.6845 68.1355 26.7299 67.7815 26.7934 67.4304C27.0137 66.2726 27.3698 65.1448 27.8542 64.0704C28.3375 62.9985 28.8818 61.9552 29.4846 60.9456C29.7134 60.5568 29.9022 60.2448 30.035 60.0304L30.195 59.784C30.2057 59.754 30.2202 59.7255 30.2382 59.6992Z" fill="#263238"/>
<path d="M24.4447 60.0156C24.4447 60.0156 23.9983 65.7004 25.0399 69.0924H25.3967C25.3967 69.0924 25.6351 61.742 24.4447 60.0156Z" fill="#294C88"/>
<path d="M24.6913 61.0938C24.7003 61.1195 24.7051 61.1465 24.7057 61.1737L24.7297 61.4042C24.7489 61.6169 24.7729 61.9033 24.8033 62.2521C24.8625 62.9689 24.9377 63.9593 25.0161 65.0521C25.0945 66.1449 25.1617 67.1321 25.2049 67.8553C25.2241 68.2057 25.2401 68.4953 25.2529 68.7065C25.2529 68.7977 25.2529 68.8745 25.2529 68.9369C25.2556 68.9641 25.2556 68.9914 25.2529 69.0185C25.2441 68.9927 25.2393 68.9658 25.2385 68.9385L25.2145 68.7081C25.1953 68.4953 25.1697 68.2089 25.1393 67.8601C25.0817 67.1433 25.0049 66.1529 24.9265 65.0585C24.8481 63.9641 24.7825 62.9785 24.7393 62.2553C24.7185 61.9065 24.7025 61.6153 24.6913 61.4057C24.6913 61.3129 24.6913 61.2361 24.6817 61.1737C24.6813 61.1468 24.6846 61.1199 24.6913 61.0938Z" fill="#263238"/>
<path d="M23.7364 68.7656C23.7364 68.7656 24.8292 69.5512 24.7732 69.916C24.7172 70.2808 22.0804 72.2424 22.25 73.7848C22.4196 75.3273 23.6804 76.3929 25.8388 76.3081C27.9972 76.2233 29.4548 74.8776 29.2596 73.5048C29.0644 72.132 26.9204 69.948 26.8964 69.8424C26.826 69.54 27.8564 68.7656 27.8564 68.7656H23.7364Z" fill="#263238"/>
<path d="M27.6646 70.7604C27.6646 70.7828 26.8646 70.802 25.887 70.802C24.9094 70.802 24.1094 70.7828 24.1094 70.7604C24.1094 70.738 24.9094 70.7188 25.887 70.7188C26.8646 70.7188 27.6646 70.7364 27.6646 70.7604Z" fill="#FAFAFA"/>
<path d="M27.917 71.1314C27.917 71.1538 26.9794 71.173 25.8226 71.173C24.6658 71.173 23.7266 71.1538 23.7266 71.1314C23.7266 71.109 24.6642 71.0898 25.8226 71.0898C26.981 71.0898 27.917 71.109 27.917 71.1314Z" fill="#FAFAFA"/>
<path d="M28.2942 71.5455C28.2942 71.5679 27.1854 71.5871 25.819 71.5871C24.4526 71.5871 23.3438 71.5679 23.3438 71.5455C23.3438 71.5231 24.451 71.5039 25.819 71.5039C27.187 71.5039 28.2942 71.5183 28.2942 71.5455Z" fill="#FAFAFA"/>
<path d="M28.6291 72.0963C28.6291 72.1187 27.3491 72.1379 25.7747 72.1379C24.2003 72.1379 22.9219 72.1187 22.9219 72.0963C22.9219 72.0739 24.2019 72.0547 25.7747 72.0547C27.3475 72.0547 28.6291 72.0723 28.6291 72.0963Z" fill="#FAFAFA"/>
<path d="M74.9929 65.0156H57.8105V71.9948H74.9929V65.0156Z" fill="white"/>
<path d="M74.9926 72.0002C74.9926 72.0002 74.9926 71.957 74.9926 71.8754C74.9926 71.7938 74.9926 71.6706 74.9926 71.5122C74.9926 71.1922 74.9926 70.7266 74.9926 70.1234C74.9926 68.9186 74.9926 67.1762 74.983 65.0194L75.0022 65.0386H57.8198L57.847 65.0114V72.0002L57.8198 71.973L70.1398 71.9858H73.7142H74.6742H73.7222H70.1542L57.8166 71.9986H57.791V72.0002C57.791 69.8242 57.791 67.4642 57.791 65.0194V64.9922H57.8198L75.0022 65.0002H75.0214V65.0194C75.0214 67.181 75.0134 68.9282 75.0102 70.1394C75.0102 70.741 75.0102 71.2066 75.0102 71.525C75.0102 71.685 75.0102 71.8018 75.0102 71.8834C75.0102 71.965 74.9926 72.0002 74.9926 72.0002Z" fill="#263238"/>
<path d="M57.8262 65.9569C57.8262 65.9409 61.6662 65.9297 66.4037 65.9297C71.1413 65.9297 74.9813 65.9409 74.9813 65.9569C74.9813 65.9729 71.1413 65.9841 66.4037 65.9841C61.6662 65.9841 57.8262 65.9713 57.8262 65.9569Z" fill="#263238"/>
<g opacity="0.3">
<path opacity="0.3" d="M58.5465 65.5389C58.5465 65.572 58.5333 65.6037 58.5099 65.6271C58.4865 65.6505 58.4548 65.6637 58.4217 65.6637C58.3886 65.6637 58.3568 65.6505 58.3334 65.6271C58.31 65.6037 58.2969 65.572 58.2969 65.5389C58.2969 65.5058 58.31 65.474 58.3334 65.4506C58.3568 65.4272 58.3886 65.4141 58.4217 65.4141C58.4548 65.4141 58.4865 65.4272 58.5099 65.4506C58.5333 65.474 58.5465 65.5058 58.5465 65.5389Z" fill="#263238"/>
</g>
<g opacity="0.3">
<path opacity="0.3" d="M58.9742 65.5389C58.9742 65.572 58.9611 65.6037 58.9377 65.6271C58.9143 65.6505 58.8825 65.6637 58.8494 65.6637C58.8163 65.6637 58.7846 65.6505 58.7612 65.6271C58.7378 65.6037 58.7246 65.572 58.7246 65.5389C58.7246 65.5058 58.7378 65.474 58.7612 65.4506C58.7846 65.4272 58.8163 65.4141 58.8494 65.4141C58.8825 65.4141 58.9143 65.4272 58.9377 65.4506C58.9611 65.474 58.9742 65.5058 58.9742 65.5389Z" fill="#263238"/>
</g>
<g opacity="0.3">
<path opacity="0.3" d="M59.3941 65.5389C59.3941 65.572 59.381 65.6037 59.3576 65.6271C59.3342 65.6505 59.3024 65.6637 59.2693 65.6637C59.2362 65.6637 59.2045 65.6505 59.1811 65.6271C59.1577 65.6037 59.1445 65.572 59.1445 65.5389C59.1445 65.5058 59.1577 65.474 59.1811 65.4506C59.2045 65.4272 59.2362 65.4141 59.2693 65.4141C59.3024 65.4141 59.3342 65.4272 59.3576 65.4506C59.381 65.474 59.3941 65.5058 59.3941 65.5389Z" fill="#263238"/>
</g>
<path d="M63.4199 67.0938H59.2695V71.2441H63.4199V67.0938Z" fill="#455A64"/>
<path d="M73.8045 68.203C73.8045 68.2174 71.6685 68.2302 69.0349 68.2302C66.4013 68.2302 64.2637 68.2174 64.2637 68.203C64.2637 68.1886 66.3997 68.1758 69.0349 68.1758C71.6701 68.1758 73.8045 68.187 73.8045 68.203Z" fill="#263238"/>
<path d="M73.8045 69.0467C73.8045 69.0627 71.6685 69.0739 69.0349 69.0739C66.4013 69.0739 64.2637 69.0627 64.2637 69.0467C64.2637 69.0307 66.3997 69.0195 69.0349 69.0195C71.6701 69.0195 73.8045 69.0323 73.8045 69.0467Z" fill="#263238"/>
<path d="M70.4001 69.8947H70.3377H70.1585L69.4994 69.9043H67.3282H65.157L64.4994 69.8947H64.3202H64.2578C64.2785 69.8921 64.2995 69.8921 64.3202 69.8947H64.4994H65.157L67.3282 69.8867L69.4994 69.8947H70.1585H70.3377C70.3585 69.8921 70.3794 69.8921 70.4001 69.8947Z" fill="#263238"/>
<path d="M77.8368 69.7109H70.4688V76.3141H77.8368V69.7109Z" fill="#294C88"/>
<g opacity="0.2">
<path opacity="0.2" d="M77.8368 69.7109H70.4688V76.3141H77.8368V69.7109Z" fill="black"/>
</g>
<path d="M73.3933 64.4297H56.2109V71.4089H73.3933V64.4297Z" fill="white"/>
<path d="M73.3926 71.4127C73.3926 71.4127 73.3926 71.3695 73.3926 71.2879C73.3926 71.2063 73.3926 71.0847 73.3926 70.9263C73.3926 70.6063 73.3926 70.1391 73.3926 69.5359C73.3926 68.3327 73.3926 66.5886 73.3814 64.4334L73.4006 64.4526L56.2183 64.4606L56.2455 64.4334C56.2455 66.8766 56.2455 69.2334 56.2455 71.4127L56.2199 71.3871L68.5398 71.3983L72.1126 71.4063H73.0726H72.1222H68.5542L56.2167 71.4191H56.1895V64.4062H56.2167H73.399H73.4182V64.4254C73.4182 66.5871 73.4102 68.3327 73.4086 69.5455C73.4086 70.1455 73.4086 70.6127 73.4086 70.9295C73.4086 71.0895 73.4086 71.2063 73.4086 71.2879C73.4086 71.3695 73.3926 71.4127 73.3926 71.4127Z" fill="#263238"/>
<path d="M56.2266 65.3749C56.2266 65.3589 60.0666 65.3477 64.8041 65.3477C69.5417 65.3477 73.3833 65.3589 73.3833 65.3749C73.3833 65.3909 69.5433 65.4021 64.8041 65.4021C60.065 65.4021 56.2266 65.3893 56.2266 65.3749Z" fill="#263238"/>
<g opacity="0.3">
<path opacity="0.3" d="M56.8221 65.0777C56.891 65.0777 56.9469 65.0219 56.9469 64.9529C56.9469 64.884 56.891 64.8281 56.8221 64.8281C56.7531 64.8281 56.6973 64.884 56.6973 64.9529C56.6973 65.0219 56.7531 65.0777 56.8221 65.0777Z" fill="#263238"/>
</g>
<g opacity="0.3">
<path opacity="0.3" d="M57.3746 64.9607C57.3746 64.9854 57.3673 65.0096 57.3536 65.0301C57.3399 65.0506 57.3204 65.0666 57.2976 65.076C57.2748 65.0855 57.2497 65.088 57.2255 65.0831C57.2012 65.0783 57.179 65.0664 57.1616 65.049C57.1441 65.0315 57.1322 65.0093 57.1274 64.9851C57.1226 64.9609 57.1251 64.9358 57.1345 64.913C57.1439 64.8902 57.1599 64.8707 57.1805 64.857C57.201 64.8433 57.2251 64.8359 57.2498 64.8359C57.2829 64.8359 57.3146 64.8491 57.338 64.8725C57.3615 64.8959 57.3746 64.9276 57.3746 64.9607Z" fill="#263238"/>
</g>
<g opacity="0.3">
<path opacity="0.3" d="M57.7945 64.9607C57.7945 64.9854 57.7872 65.0096 57.7735 65.0301C57.7598 65.0506 57.7403 65.0666 57.7175 65.076C57.6947 65.0855 57.6696 65.088 57.6454 65.0831C57.6212 65.0783 57.5989 65.0664 57.5815 65.049C57.564 65.0315 57.5521 65.0093 57.5473 64.9851C57.5425 64.9609 57.545 64.9358 57.5544 64.913C57.5639 64.8902 57.5799 64.8707 57.6004 64.857C57.6209 64.8433 57.645 64.8359 57.6697 64.8359C57.7028 64.8359 57.7346 64.8491 57.758 64.8725C57.7814 64.8959 57.7945 64.9276 57.7945 64.9607Z" fill="#263238"/>
</g>
<path d="M61.8203 66.5078H57.6699V70.6582H61.8203V66.5078Z" fill="#455A64"/>
<path d="M72.2052 67.621C72.2052 67.6354 70.0692 67.6481 67.4356 67.6481C64.802 67.6481 62.666 67.6354 62.666 67.621C62.666 67.6066 64.8004 67.5938 67.4356 67.5938C70.0708 67.5938 72.2052 67.6066 72.2052 67.621Z" fill="#263238"/>
<path d="M72.2052 68.4647C72.2052 68.4807 70.0692 68.4919 67.4356 68.4919C64.802 68.4919 62.666 68.4807 62.666 68.4647C62.666 68.4487 64.8004 68.4375 67.4356 68.4375C70.0708 68.4375 72.2052 68.4503 72.2052 68.4647Z" fill="#263238"/>
<path d="M68.799 69.3129H68.7366H68.5574L67.8998 69.3209L65.7286 69.3289L63.5574 69.3209L62.8982 69.3129H62.7206C62.6999 69.315 62.6789 69.315 62.6582 69.3129H62.7206H62.8982L63.5574 69.3049L65.7286 69.2969L67.8998 69.3049L68.5574 69.3129H68.7366H68.799Z" fill="#263238"/>
<path d="M72.2235 65.8828H55.041V72.862H72.2235V65.8828Z" fill="white"/>
<path d="M72.2229 72.8615C72.2229 72.8615 72.2229 72.8183 72.2229 72.7367C72.2229 72.6551 72.2229 72.5335 72.2229 72.3751C72.2229 72.0551 72.2229 71.5879 72.2229 70.9847C72.2229 69.7815 72.2229 68.0375 72.2117 65.8823L72.2309 65.9015L55.0389 65.9095L55.0661 65.8823C55.0661 68.3255 55.0661 70.6823 55.0661 72.8615L55.0405 72.8359L67.3605 72.8471L70.9333 72.8551H71.8933H70.9429H67.3749L55.0373 72.8679H55.0117V72.8423C55.0117 70.6663 55.0117 68.3063 55.0117 65.8631V65.8359H55.0389H72.2197H72.2389V65.8551C72.2389 68.0167 72.2389 69.7623 72.2293 70.9751C72.2293 71.5751 72.2293 72.0423 72.2293 72.3591C72.2293 72.5191 72.2293 72.6359 72.2293 72.7175C72.2293 72.7991 72.2229 72.8615 72.2229 72.8615Z" fill="#263238"/>
<path d="M55.0586 66.8241C55.0586 66.8081 58.8986 66.7969 63.6346 66.7969C68.3706 66.7969 72.2138 66.8081 72.2138 66.8241C72.2138 66.8401 68.3738 66.8513 63.6346 66.8513C58.8954 66.8513 55.0586 66.8385 55.0586 66.8241Z" fill="#263238"/>
<g opacity="0.3">
<path opacity="0.3" d="M55.7769 66.4021C55.7769 66.4268 55.7696 66.451 55.7559 66.4715C55.7422 66.492 55.7227 66.508 55.6999 66.5174C55.6771 66.5269 55.652 66.5294 55.6278 66.5245C55.6036 66.5197 55.5813 66.5078 55.5639 66.4904C55.5464 66.4729 55.5346 66.4507 55.5297 66.4265C55.5249 66.4023 55.5274 66.3772 55.5368 66.3544C55.5463 66.3316 55.5623 66.3121 55.5828 66.2984C55.6033 66.2847 55.6275 66.2773 55.6521 66.2773C55.6852 66.2773 55.717 66.2905 55.7404 66.3139C55.7638 66.3373 55.7769 66.369 55.7769 66.4021Z" fill="#263238"/>
</g>
<g opacity="0.3">
<path opacity="0.3" d="M56.0799 66.5309C56.1488 66.5309 56.2047 66.475 56.2047 66.4061C56.2047 66.3371 56.1488 66.2812 56.0799 66.2812C56.011 66.2812 55.9551 66.3371 55.9551 66.4061C55.9551 66.475 56.011 66.5309 56.0799 66.5309Z" fill="#263238"/>
</g>
<g opacity="0.3">
<path opacity="0.3" d="M56.6266 66.4022C56.6266 66.4268 56.6192 66.451 56.6055 66.4715C56.5918 66.492 56.5723 66.508 56.5495 66.5175C56.5267 66.5269 56.5016 66.5294 56.4774 66.5246C56.4532 66.5197 56.431 66.5079 56.4135 66.4904C56.3961 66.4729 56.3842 66.4507 56.3794 66.4265C56.3745 66.4023 56.377 66.3772 56.3865 66.3544C56.3959 66.3316 56.4119 66.3121 56.4324 66.2984C56.4529 66.2847 56.4771 66.2774 56.5018 66.2774C56.5182 66.2771 56.5345 66.2802 56.5498 66.2864C56.565 66.2926 56.5789 66.3018 56.5905 66.3134C56.6021 66.3251 56.6113 66.3389 56.6175 66.3541C56.6237 66.3694 56.6268 66.3857 56.6266 66.4022Z" fill="#263238"/>
</g>
<path d="M60.6504 67.9609H56.5V72.1113H60.6504V67.9609Z" fill="#455A64"/>
<path d="M71.0392 69.0702C71.0392 69.0846 68.9032 69.0974 66.2696 69.0974C63.636 69.0974 61.5 69.0846 61.5 69.0702C61.5 69.0558 63.6344 69.043 66.2696 69.043C68.9048 69.043 71.0392 69.0558 71.0392 69.0702Z" fill="#263238"/>
<path d="M71.0392 69.9217C71.0392 69.9377 68.9032 69.9489 66.2696 69.9489C63.636 69.9489 61.5 69.9377 61.5 69.9217C61.5 69.9057 63.6344 69.8945 66.2696 69.8945C68.9048 69.8945 71.0392 69.9025 71.0392 69.9217Z" fill="#263238"/>
<path d="M67.6359 70.7587H67.5735H67.3943L66.7367 70.7667L64.5656 70.7747L62.3992 70.7779L61.7416 70.7699H61.5624H61.5H61.5624H61.7416L62.3992 70.7619L64.5704 70.7539L66.7415 70.7619L67.3991 70.7699H67.5783L67.6359 70.7587Z" fill="#263238"/>
<path d="M53.3262 69.7109V76.3189H74.0798V69.7109H53.3262ZM64.4334 72.3189H61.2974C61.1187 72.3189 60.9474 72.248 60.8211 72.1216C60.6948 71.9953 60.6238 71.824 60.6238 71.6453C60.6238 71.4667 60.6948 71.2954 60.8211 71.169C60.9474 71.0427 61.1187 70.9717 61.2974 70.9717H64.4334C64.612 70.9717 64.7834 71.0427 64.9097 71.169C65.036 71.2954 65.107 71.4667 65.107 71.6453C65.107 71.824 65.036 71.9953 64.9097 72.1216C64.7834 72.248 64.612 72.3189 64.4334 72.3189Z" fill="#294C88"/>
<path d="M39.999 61.7058C39.8163 61.7061 39.6376 61.6522 39.4855 61.5509C39.3335 61.4495 39.2149 61.3054 39.1448 61.1366C39.0747 60.9679 39.0563 60.7821 39.0919 60.6029C39.1275 60.4236 39.2154 60.259 39.3446 60.1298C39.4738 60.0006 39.6385 59.9126 39.8177 59.877C39.9969 59.8415 40.1827 59.8599 40.3515 59.93C40.5202 60 40.6644 60.1186 40.7657 60.2707C40.867 60.4227 40.921 60.6015 40.9206 60.7842C40.9206 61.0286 40.8235 61.263 40.6507 61.4359C40.4779 61.6087 40.2435 61.7058 39.999 61.7058Z" fill="#294C88"/>
<path d="M12.2929 73.6041C12.4326 73.1146 12.1491 72.6046 11.6597 72.4649C11.1702 72.3252 10.6602 72.6087 10.5205 73.0982C10.3808 73.5876 10.6643 74.0976 11.1538 74.2373C11.6432 74.377 12.1532 74.0935 12.2929 73.6041Z" fill="#294C88"/>
<path d="M58.2439 34.062C58.7528 34.062 59.1655 33.6493 59.1655 33.1404C59.1655 32.6314 58.7528 32.2188 58.2439 32.2188C57.7349 32.2188 57.3223 32.6314 57.3223 33.1404C57.3223 33.6493 57.7349 34.062 58.2439 34.062Z" fill="#294C88"/>
<path d="M71.7087 48.1987C72.2177 48.1987 72.6303 47.7861 72.6303 47.2771C72.6303 46.7681 72.2177 46.3555 71.7087 46.3555C71.1997 46.3555 70.7871 46.7681 70.7871 47.2771C70.7871 47.7861 71.1997 48.1987 71.7087 48.1987Z" fill="#294C88"/>
<path d="M87.5993 18.558C88.1083 18.558 88.5209 18.1454 88.5209 17.6364C88.5209 17.1275 88.1083 16.7148 87.5993 16.7148C87.0903 16.7148 86.6777 17.1275 86.6777 17.6364C86.6777 18.1454 87.0903 18.558 87.5993 18.558Z" fill="#294C88"/>
<path d="M25.8298 51.0854C26.3388 51.0854 26.7514 50.6728 26.7514 50.1638C26.7514 49.6548 26.3388 49.2422 25.8298 49.2422C25.3208 49.2422 24.9082 49.6548 24.9082 50.1638C24.9082 50.6728 25.3208 51.0854 25.8298 51.0854Z" fill="#294C88"/>
<path d="M87.5978 17.6328L87.5258 17.7736L87.3066 18.1864C87.113 18.5528 86.8266 19.092 86.4506 19.796L83.1994 25.892C80.393 31.1368 76.3898 38.6152 71.6042 47.5528L71.5802 47.5976L71.5466 47.5608L58.0154 33.092H58.0794L51.2362 43.5912L39.809 61.1032L39.785 61.14L39.7514 61.1128L25.8314 49.972L25.881 49.964L15.3066 66.9928L12.377 71.7C12.041 72.2408 11.7818 72.66 11.6074 72.9336L11.3418 73.3528C11.3418 73.3528 11.4282 73.2072 11.5994 72.9272L12.361 71.6904C13.0298 70.604 14.0154 69.0104 15.273 66.972L25.8202 49.9288L25.8394 49.8968L25.8698 49.9192L39.7994 61.0504L39.7418 61.06L51.1594 43.5416L58.0042 33.0424L58.033 32.9976L58.0682 33.036L71.593 47.5144H71.5338C76.3338 38.5816 80.3418 31.108 83.1562 25.868L86.4298 19.788L87.297 18.188C87.3946 18.0072 87.4698 17.868 87.521 17.7768C87.5722 17.6856 87.5978 17.6328 87.5978 17.6328Z" fill="#294C88"/>
</svg>
