<svg width="512" height="512" viewBox="0 0 512 512" fill="none" xmlns="http://www.w3.org/2000/svg">
<path fill-rule="evenodd" clip-rule="evenodd" d="M464.898 136.554C464.685 145.386 457.368 152.383 448.536 152.191C439.704 151.978 432.706 144.66 432.898 135.828L433.773 97.3004L395.266 96.4257C386.434 96.2124 379.437 88.8951 379.629 80.0631C379.842 71.2311 387.16 64.2337 395.992 64.4257L450.52 65.6844C459.352 65.8764 466.349 73.1937 466.136 82.0257L464.898 136.554Z" fill="#FA7B16"/>
<path fill-rule="evenodd" clip-rule="evenodd" d="M124.311 199.381V458.389C124.311 473.28 112.257 485.334 97.3666 485.334H53.612C38.7213 485.334 26.668 473.28 26.668 458.389V199.381C26.668 184.512 38.7213 172.438 53.612 172.438H97.3666C112.257 172.438 124.311 184.512 124.311 199.381Z" fill="#FA7B16"/>
<path fill-rule="evenodd" clip-rule="evenodd" d="M364.994 330.663V458.385C364.994 465.532 362.157 472.38 357.101 477.436C352.045 482.492 345.197 485.329 338.05 485.329H294.296C287.149 485.329 280.301 482.492 275.245 477.436C270.189 472.38 267.352 465.532 267.352 458.385V330.663C267.352 323.516 270.189 316.668 275.245 311.612C280.301 306.556 287.149 303.719 294.296 303.719H338.05C345.197 303.719 352.045 306.556 357.101 311.612C362.157 316.668 364.994 323.516 364.994 330.663Z" fill="#FA7B16"/>
<path fill-rule="evenodd" clip-rule="evenodd" d="M244.65 265.022V458.387C244.65 473.278 232.597 485.331 217.706 485.331H173.952C159.061 485.331 147.008 473.278 147.008 458.387V265.022C147.008 257.875 149.845 251.027 154.901 245.971C159.957 240.915 166.805 238.078 173.952 238.078H217.706C232.597 238.078 244.65 250.153 244.65 265.022Z" fill="#FA7B16"/>
<path fill-rule="evenodd" clip-rule="evenodd" d="M485.334 265.022V458.387C485.334 473.278 473.281 485.331 458.39 485.331H414.635C399.745 485.331 387.691 473.278 387.691 458.387V265.022C387.691 257.875 390.529 251.027 395.585 245.971C400.641 240.915 407.489 238.078 414.635 238.078H458.39C473.281 238.078 485.334 250.153 485.334 265.022Z" fill="#FA7B16"/>
<path fill-rule="evenodd" clip-rule="evenodd" d="M52.2686 55.4656C45.1859 50.175 43.7566 40.127 49.0686 33.0656C54.3593 26.0043 64.3859 24.575 71.4686 29.8656L198.466 125.119H258.775C263.703 125.119 268.333 127.38 271.362 131.242L320.151 193.343L433.218 75.3483C439.319 68.9697 449.453 68.7563 455.831 74.879C462.21 80.9803 462.423 91.1137 456.322 97.4923L330.498 228.778C327.298 232.127 322.797 233.919 318.167 233.684C313.538 233.471 309.229 231.231 306.37 227.583L251.01 157.119H193.133C189.677 157.119 186.306 156.01 183.533 153.919L52.2686 55.4656Z" fill="#FA7B16"/>
</svg>
