<svg width="87" height="87" viewBox="0 0 87 87" fill="none" xmlns="http://www.w3.org/2000/svg">
<circle cx="43.5" cy="43.5" r="43.5" fill="#DBECFF"/>
<path d="M32.7015 55.1118C32.3152 55.1118 32.0014 54.798 32.0014 54.4117H30.6011C30.6011 55.5697 31.5434 56.5121 32.7015 56.5121V57.9124H34.1018V56.5121H36.2022V54.4117C36.2022 53.2536 35.2599 52.3112 34.1018 52.3112H32.7015C32.3152 52.3112 32.0014 51.9974 32.0014 51.6111V50.9109H34.1018C34.4881 50.9109 34.8019 51.2248 34.8019 51.6111H36.2022C36.2022 50.453 35.2599 49.5106 34.1018 49.5106V48.1104H32.7015V49.5106H30.6011V51.6111C30.6011 52.7692 31.5434 53.7115 32.7015 53.7115H34.1018C34.4881 53.7115 34.8019 54.0253 34.8019 54.4117V55.1118H32.7015Z" fill="#007AFF"/>
<path d="M33.4018 59.3123C29.927 59.3123 27.1005 56.4858 27.1005 53.011C27.1005 51.5589 27.6075 50.1404 28.5273 49.0189L27.4443 48.1309C26.3197 49.5024 25.7002 51.2362 25.7002 53.0109C25.7002 57.2574 29.1553 60.7125 33.4018 60.7125C35.1766 60.7125 36.9104 60.093 38.2819 58.9684L37.3941 57.8854C36.2723 58.8052 34.8539 59.3122 33.4017 59.3122L33.4018 59.3123Z" fill="#007AFF"/>
<path d="M28.5212 47.0541L29.4089 48.1371C30.5308 47.2173 31.9492 46.7103 33.4014 46.7103C36.8762 46.7103 39.7027 49.5368 39.7027 53.0116C39.7027 54.4637 39.1957 55.8822 38.2758 57.0037L39.3589 57.8914C40.4835 56.5202 41.103 54.7863 41.103 53.0117C41.103 48.7652 37.6479 45.3101 33.4014 45.3101C31.6266 45.3101 29.8928 45.9296 28.5213 47.0542L28.5212 47.0541Z" fill="#007AFF"/>
<path d="M64.9083 45.3096C65.6807 45.3096 66.3086 44.6817 66.3086 43.9093V41.1087C66.3086 40.3364 65.6807 39.7084 64.9083 39.7084H53.2955L60.4273 32.5766L63.3786 35.5269L65.8009 23.4124L53.6864 25.8347L56.6367 28.785L49.5052 35.9181L44.6042 31.0171L42.9141 32.7071H39.003C37.0244 32.7071 35.2578 33.6257 34.102 35.0567V31.3068H37.6027C41.0775 31.3068 43.904 28.4797 43.904 25.0055V24.3054H39.003C37.0244 24.3054 35.2578 25.224 34.102 26.6549V26.4058C34.102 22.9316 31.2755 20.1045 27.8007 20.1045H22.8997V20.8046C22.8997 24.2788 25.7262 27.1059 29.201 27.1059H32.7017V30.8558C31.5459 29.4248 29.7792 28.5062 27.8007 28.5062H22.8997V29.2064C22.8997 32.6805 25.7262 35.5077 29.201 35.5077H32.7017V42.5448C27.2371 42.9076 22.8997 47.4564 22.8997 53.0109C22.8997 58.8018 27.611 63.5131 33.4018 63.5131C39.1927 63.5131 43.904 58.8018 43.904 53.0109C43.904 49.2946 41.9583 46.0311 39.0381 44.1635L44.6042 38.5974L46.7571 40.7503C46.7262 40.8653 46.7046 40.9835 46.7046 41.1082V43.9088C46.7046 44.6811 47.3325 45.3091 48.1049 45.3091H48.805V47.1198L47.7304 48.1944C47.0693 48.8555 46.7046 49.7347 46.7046 50.6702V60.0121C46.7046 61.9425 48.2749 63.5129 50.2053 63.5129H62.8079C64.7383 63.5129 66.3087 61.9425 66.3087 60.0121V50.6702C66.3087 49.7347 65.9439 48.8554 65.2829 48.1944L64.2082 47.1198V45.3091L64.9083 45.3096ZM39.0029 34.1073H42.454C42.1136 36.4794 40.0679 38.3081 37.6026 38.3081H34.1516C34.4926 35.936 36.5377 34.1073 39.0029 34.1073ZM39.0029 25.7055H42.454C42.1136 28.0776 40.0679 29.9064 37.6026 29.9064H34.1516C34.4926 27.5343 36.5377 25.7055 39.0029 25.7055ZM29.2009 25.7055C26.7357 25.7055 24.6906 23.8767 24.3496 21.5046H27.8006C30.2658 21.5046 32.3109 23.3334 32.6519 25.7055H29.2009ZM29.2009 34.1073C26.7357 34.1073 24.6906 32.2785 24.3496 29.9064H27.8006C30.2658 29.9064 32.3109 31.7352 32.6519 34.1073H29.2009ZM35.9126 39.7084L34.1019 41.5191V39.7084H35.9126ZM42.5037 53.0112C42.5037 58.0298 38.4203 62.1131 33.4018 62.1131C28.3832 62.1131 24.2999 58.0298 24.2999 53.0112C24.2999 47.9926 28.3832 43.9093 33.4018 43.9093C38.4203 43.9093 42.5037 47.9926 42.5037 53.0112ZM37.7561 43.466C36.8822 43.0656 35.9448 42.7856 34.9624 42.6383L37.908 39.6928C41.1383 39.5365 43.7326 36.9425 43.8886 33.7121L44.604 32.9967L49.5051 37.8977L58.6166 28.7862L56.5268 26.6955L64.0162 25.1979L62.5177 32.6873L60.4273 30.5969L51.3158 39.7084H48.1048C47.9801 39.7084 47.8619 39.73 47.7469 39.7609L44.6041 36.6181L37.7561 43.466ZM48.1047 41.1086H64.9082L64.9094 43.9092H48.1043L48.1047 41.1086ZM52.3055 53.0111V51.6108C52.3055 51.2245 52.6194 50.9107 53.0057 50.9107H53.7058V52.311H55.1061V50.9107H56.5064V52.311H57.9067V50.9107H59.307V52.311H60.7073V50.9107H61.4074C61.7938 50.9107 62.1076 51.2245 62.1076 51.6108V53.0111C62.1076 53.3974 61.7938 53.7113 61.4074 53.7113H53.0057C52.6194 53.7113 52.3055 53.3974 52.3055 53.0111ZM51.6054 55.1116H52.3055V56.5118H53.7058V55.1116H55.1061V56.5118H56.5064V55.1116H57.9067V56.5118H59.307V55.1116H60.0071C60.3935 55.1116 60.7073 55.4254 60.7073 55.8117V57.212C60.7073 57.5983 60.3935 57.9121 60.0071 57.9121H51.6054C51.2191 57.9121 50.9052 57.5983 50.9052 57.212V55.8117C50.9052 55.4254 51.2191 55.1116 51.6054 55.1116ZM53.0057 62.113C52.6194 62.113 52.3055 61.7992 52.3055 61.4129V60.0126C52.3055 59.6262 52.6194 59.3124 53.0057 59.3124H53.7058V60.7127H55.1061V59.3124H56.5064V60.7127H57.9067V59.3124H59.307V60.7127H60.7073V59.3124H61.4074C61.7938 59.3124 62.1076 59.6262 62.1076 60.0126V61.4129C62.1076 61.7992 61.7938 62.113 61.4074 62.113H53.0057ZM64.2928 49.1847C64.6898 49.5817 64.9083 50.109 64.9083 50.6706V60.0126C64.9083 60.9606 64.2731 61.7539 63.4092 62.0143C63.4674 61.8224 63.508 61.6236 63.508 61.4129V60.0126C63.508 59.0442 62.8463 58.235 61.9536 57.9935C62.0511 57.7512 62.1077 57.4887 62.1077 57.2121V55.8118C62.1077 55.5351 62.0511 55.2726 61.9536 55.0304C62.8463 54.7881 63.508 53.9795 63.508 53.0112V51.6109C63.508 50.4528 62.5657 49.5105 61.4076 49.5105H53.0058C51.8477 49.5105 50.9054 50.4528 50.9054 51.6109V53.0112C50.9054 53.2878 50.962 53.5504 51.0595 53.7926C50.1668 54.0342 49.5051 54.8435 49.5051 55.8118V57.2121C49.5051 58.1804 50.1668 58.9896 51.0595 59.2312C50.962 59.4734 50.9054 59.736 50.9054 60.0126V61.4129C50.9054 61.6592 50.9557 61.8933 51.0342 62.113H50.2053C49.0472 62.113 48.1048 61.1707 48.1048 60.0126V50.6707C48.1048 50.1093 48.3239 49.5814 48.7203 49.1851L50.2053 47.6998V45.3096H62.8079V47.6998L64.2928 49.1847Z" fill="#007AFF"/>
</svg>
