<svg width="24" height="24" viewBox="0 0 24 24" fill="none" xmlns="http://www.w3.org/2000/svg">
<path d="M10.0153 24.0003C9.95901 24.0005 9.90339 23.9878 9.85277 23.9631C9.80215 23.9384 9.75789 23.9024 9.7234 23.8579C9.68892 23.8134 9.66513 23.7615 9.65388 23.7063C9.64264 23.6511 9.64423 23.5941 9.65854 23.5396C10.0725 21.9985 10.4863 20.4552 10.8998 18.9096C10.9165 18.8474 10.9493 18.7907 10.9948 18.7452C11.0404 18.6998 11.0972 18.6671 11.1595 18.6506L21.2415 15.9483C21.273 15.9399 21.3054 15.9356 21.3379 15.9356C21.3942 15.9353 21.4499 15.9479 21.5007 15.9724C21.5514 15.997 21.5959 16.0328 21.6307 16.0771C21.6795 16.1402 21.706 16.2178 21.706 16.2976C21.706 16.3304 21.7014 16.3631 21.6924 16.3947L20.7538 19.9032C20.6458 20.3065 20.4334 20.6743 20.1381 20.9695C19.8427 21.2647 19.4748 21.4769 19.0714 21.5848L10.1139 23.9882C10.0818 23.9966 10.0486 24.0006 10.0153 24.0003V24.0003Z" />
<path d="M12.5533 10.5382C12.5053 10.5386 12.4577 10.5294 12.4134 10.511C12.369 10.4927 12.3288 10.4655 12.2952 10.4313L5.11412 3.25401C5.06835 3.20863 5.03538 3.15196 5.01855 3.08974C5.00172 3.02752 5.00163 2.96196 5.01828 2.89969C5.03494 2.83742 5.06775 2.78066 5.1134 2.73515C5.15904 2.68964 5.2159 2.657 5.27822 2.64053L15.0848 0.0135092C15.1472 -0.00399155 15.2132 -0.0044975 15.276 0.0120436C15.3387 0.0285847 15.3959 0.061573 15.4416 0.1076L22.6226 7.28713C22.6687 7.33274 22.7019 7.38974 22.7188 7.45233C22.7357 7.51492 22.7358 7.58087 22.7189 7.64349C22.7021 7.70611 22.669 7.76316 22.623 7.80885C22.577 7.85454 22.5197 7.88723 22.457 7.90361L12.6467 10.5276C12.6157 10.5358 12.5838 10.5398 12.5518 10.5397L12.5533 10.5382Z" />
<path d="M11.8432 17.1997C11.7869 17.2003 11.7312 17.1878 11.6805 17.1632C11.6298 17.1387 11.5855 17.1027 11.551 17.0582C11.5165 17.0136 11.4928 16.9617 11.4817 16.9065C11.4707 16.8512 11.4725 16.7942 11.4871 16.7398C11.9006 15.1962 12.3144 13.6529 12.7284 12.1098C12.7449 12.0475 12.7775 11.9907 12.823 11.9451C12.8684 11.8995 12.9251 11.8668 12.9873 11.8501L23.0739 9.14855C23.1053 9.14014 23.1377 9.13584 23.1703 9.13575C23.2265 9.13534 23.2822 9.14789 23.3328 9.17243C23.3834 9.19697 23.4278 9.23284 23.4623 9.27727C23.5116 9.34017 23.5381 9.41791 23.5376 9.49781C23.5376 9.53041 23.5331 9.56285 23.524 9.59416C23.109 11.1378 22.6948 12.6824 22.2813 14.228C22.2643 14.2899 22.2315 14.3463 22.1861 14.3918C22.1407 14.4372 22.0843 14.47 22.0223 14.4869L11.9358 17.1915C11.9054 17.198 11.8743 17.2008 11.8432 17.1997Z" />
<path d="M9.8038 16.6578C9.75574 16.6582 9.70811 16.6488 9.66375 16.6303C9.61939 16.6118 9.57921 16.5846 9.54562 16.5502L2.16361 9.1697C2.11804 9.12369 2.08537 9.06651 2.06885 9.00389C2.05234 8.94127 2.05257 8.87541 2.06952 8.81291C2.48352 7.27082 2.89702 5.72823 3.31001 4.18513C3.33115 4.10687 3.37764 4.03782 3.4422 3.98879C3.50675 3.93976 3.58574 3.91351 3.66681 3.91415C3.71548 3.91298 3.76386 3.92188 3.80893 3.94027C3.85401 3.95866 3.8948 3.98616 3.92876 4.02104L11.3055 11.403C11.3518 11.4486 11.385 11.5057 11.4017 11.5685C11.4184 11.6312 11.4179 11.6973 11.4003 11.7598L10.1606 16.3861C10.1393 16.4643 10.0927 16.5333 10.0282 16.5824C9.96375 16.6316 9.88487 16.6581 9.8038 16.6578V16.6578Z" />
<path d="M1.48345 10.9897C1.50481 10.9116 1.55136 10.8427 1.61587 10.7937C1.68037 10.7447 1.75924 10.7184 1.84024 10.7188C1.88825 10.7183 1.93587 10.7275 1.98023 10.7459C2.0246 10.7643 2.0648 10.7914 2.09843 10.8257L9.47517 18.2077C9.5097 18.2414 9.53714 18.2816 9.55588 18.3261C9.57463 18.3706 9.58429 18.4183 9.58431 18.4666C9.58435 18.4997 9.57979 18.5326 9.57076 18.5645C9.15777 20.1065 8.74427 21.6489 8.33027 23.1915C8.30923 23.2694 8.26308 23.3381 8.19898 23.3871C8.13488 23.4361 8.05641 23.4626 7.97573 23.4625C7.92773 23.4628 7.88014 23.4536 7.83579 23.4352C7.79144 23.4169 7.75123 23.3898 7.71754 23.3556L1.15902 16.7925C0.863933 16.4974 0.651746 16.1298 0.543792 15.7266C0.435839 15.3235 0.435925 14.8991 0.544041 14.496L1.48345 10.9897Z" />
</svg>
