<svg width="20" height="20" viewBox="0 0 20 20" fill="none" xmlns="http://www.w3.org/2000/svg">
<circle cx="10" cy="10" r="10" fill="#333333"/>
<path d="M8.97483 16.0001C8.94667 16.0002 8.91886 15.9939 8.89355 15.9815C8.86824 15.9692 8.84611 15.9512 8.82886 15.9289C8.81162 15.9067 8.79973 15.8807 8.7941 15.8531C8.78848 15.8255 8.78928 15.797 8.79643 15.7698C9.00343 14.9992 9.21031 14.2276 9.41706 13.4548C9.42539 13.4237 9.44178 13.3953 9.46458 13.3726C9.48738 13.3499 9.51578 13.3336 9.5469 13.3253L14.5879 11.9742C14.6036 11.97 14.6198 11.9678 14.6361 11.9678C14.6642 11.9677 14.6921 11.974 14.7175 11.9862C14.7428 11.9985 14.7651 12.0164 14.7825 12.0385C14.8069 12.0701 14.8201 12.1089 14.8201 12.1488C14.8201 12.1652 14.8178 12.1816 14.8133 12.1974L14.344 13.9516C14.29 14.1533 14.1838 14.3372 14.0362 14.4848C13.8885 14.6324 13.7045 14.7385 13.5028 14.7924L9.02413 15.9941C9.00804 15.9983 8.99146 16.0003 8.97483 16.0001Z" fill="#F1F1F1"/>
<path d="M10.2438 9.26905C10.2198 9.26928 10.196 9.26467 10.1738 9.25549C10.1516 9.24631 10.1315 9.23274 10.1147 9.2156L6.52422 5.62699C6.50134 5.6043 6.48485 5.57597 6.47644 5.54486C6.46802 5.51375 6.46798 5.48097 6.4763 5.44983C6.48463 5.4187 6.50104 5.39032 6.52386 5.36757C6.54668 5.34481 6.57511 5.32849 6.60627 5.32026L11.5095 4.00675C11.5407 3.998 11.5738 3.99775 11.6051 4.00602C11.6365 4.01429 11.6651 4.03079 11.6879 4.0538L15.2784 7.64354C15.3014 7.66635 15.318 7.69484 15.3265 7.72614C15.335 7.75744 15.335 7.79041 15.3266 7.82172C15.3182 7.85303 15.3016 7.88156 15.2786 7.9044C15.2556 7.92724 15.227 7.94359 15.1956 7.95178L10.2905 9.26378C10.275 9.26786 10.2591 9.26989 10.2431 9.2698L10.2438 9.26905Z" fill="#F1F1F1"/>
<path d="M9.88876 12.5994C9.86059 12.5996 9.83275 12.5934 9.80741 12.5811C9.78206 12.5688 9.7599 12.5508 9.74266 12.5286C9.72542 12.5063 9.71357 12.4803 9.70803 12.4527C9.70249 12.4251 9.70342 12.3966 9.71074 12.3694C9.91749 11.5976 10.1244 10.8259 10.3314 10.0544C10.3396 10.0233 10.3559 9.99488 10.3786 9.97208C10.4014 9.94928 10.4297 9.93288 10.4608 9.92455L15.5041 8.57379C15.5198 8.56958 15.536 8.56743 15.5523 8.56739C15.5804 8.56718 15.6082 8.57346 15.6335 8.58573C15.6589 8.598 15.681 8.61593 15.6983 8.63814C15.7229 8.6696 15.7362 8.70846 15.7359 8.74842C15.7359 8.76472 15.7337 8.78093 15.7291 8.79659C15.5216 9.56839 15.3145 10.3407 15.1078 11.1135C15.0993 11.1444 15.0829 11.1727 15.0602 11.1954C15.0375 11.2181 15.0093 11.2345 14.9783 11.2429L9.93505 12.5952C9.91985 12.5985 9.9043 12.5999 9.88876 12.5994Z" fill="#F1F1F1"/>
<path d="M8.87039 12.3289C8.84636 12.3291 8.82254 12.3244 8.80036 12.3151C8.77818 12.3059 8.75809 12.2923 8.74129 12.2751L5.05031 8.58484C5.02753 8.56183 5.01119 8.53324 5.00294 8.50194C4.99468 8.47063 4.99479 8.4377 5.00327 8.40645C5.21027 7.63541 5.41702 6.86411 5.62351 6.09257C5.63408 6.05344 5.65732 6.01892 5.6896 5.9944C5.72188 5.96989 5.76138 5.95676 5.80191 5.95708C5.82624 5.9565 5.85043 5.96095 5.87297 5.97014C5.89551 5.97934 5.9159 5.99309 5.93288 6.01053L9.62123 9.70151C9.64437 9.72428 9.66099 9.75284 9.66933 9.78422C9.67767 9.8156 9.67743 9.84865 9.66865 9.8799L9.04878 12.193C9.03811 12.2321 9.01485 12.2666 8.98261 12.2912C8.95036 12.3157 8.91092 12.329 8.87039 12.3289Z" fill="#F1F1F1"/>
<path d="M4.71023 9.49585C4.72091 9.45678 4.74418 9.42233 4.77643 9.39784C4.80869 9.37334 4.84812 9.36017 4.88862 9.36036C4.91263 9.36012 4.93644 9.36474 4.95862 9.37392C4.9808 9.3831 5.0009 9.39667 5.01771 9.4138L8.70606 13.1048C8.72333 13.1216 8.73705 13.1418 8.74642 13.164C8.75579 13.1862 8.76062 13.2101 8.76063 13.2343C8.76065 13.2508 8.75837 13.2673 8.75386 13.2832C8.54736 14.0542 8.34061 14.8254 8.13361 15.5967C8.12309 15.6356 8.10002 15.67 8.06797 15.6945C8.03592 15.719 7.99669 15.7322 7.95635 15.7322C7.93235 15.7324 7.90855 15.7277 7.88638 15.7185C7.8642 15.7094 7.8441 15.6958 7.82726 15.6787L4.54801 12.3972C4.40047 12.2497 4.29438 12.0659 4.2404 11.8643C4.18643 11.6627 4.18647 11.4505 4.24053 11.2489L4.71023 9.49585Z" fill="#F1F1F1"/>
</svg>
