<svg xmlns="http://www.w3.org/2000/svg" viewBox="0 0 378.2 393.8"><defs><style>.cls-1{fill:#00a6a4;}</style></defs><g id="Layer_2" data-name="Layer 2"><g id="Layer_1-2" data-name="Layer 1"><path class="cls-1" d="M156.48,393.8a6,6,0,0,1-5.86-7.56l20.37-76a6,6,0,0,1,4.26-4.26l165.44-44.33a6,6,0,0,1,1.58-.21,6.08,6.08,0,0,1,4.8,2.32,5.87,5.87,0,0,1,1.25,3.62,5.76,5.76,0,0,1-.22,1.59l-15.42,57.57a39,39,0,0,1-27.58,27.6l-147,39.43A6.45,6.45,0,0,1,156.48,393.8Z"/><path class="cls-1" d="M197.9,172.94a5.84,5.84,0,0,1-4.23-1.75L75.83,53.39a6,6,0,0,1,2.7-10.07L239.44.22a6,6,0,0,1,5.85,1.54L363.11,119.58a6,6,0,0,1-2.7,10l-161,43.12a5.85,5.85,0,0,1-1.56.19Z"/><path class="cls-1" d="M186.35,282.21a6,6,0,0,1-5.85-7.55l20.37-76a6,6,0,0,1,4.25-4.26l165.44-44.33a6.11,6.11,0,0,1,6.38,2.11,5.88,5.88,0,0,1,1.26,3.62,6,6,0,0,1-.22,1.59l-20.36,76a6,6,0,0,1-4.25,4.25L187.93,282A6,6,0,0,1,186.35,282.21Z"/><path class="cls-1" d="M153.22,273.33a5.89,5.89,0,0,1-4.24-1.76L27.86,150.46a6,6,0,0,1-1.55-5.85q10.19-38,20.35-75.94a6,6,0,0,1,5.86-4.45A5.85,5.85,0,0,1,56.75,66q60.54,60.55,121.07,121.13a6,6,0,0,1,1.78,4.24,5.84,5.84,0,0,1-.22,1.61q-10.17,38-20.35,75.92A6,6,0,0,1,153.22,273.33Z"/><path class="cls-1" d="M16.75,180.3a6,6,0,0,1,5.86-4.45,5.84,5.84,0,0,1,4.23,1.75q60.54,60.57,121.07,121.13a6,6,0,0,1,1.78,4.25,5.84,5.84,0,0,1-.22,1.61q-10.17,37.95-20.35,75.92a6,6,0,0,1-5.81,4.45,5.89,5.89,0,0,1-4.24-1.76L11.43,275.55a39,39,0,0,1-10.1-37.69l15.42-57.57"/></g></g></svg>