<svg width="40" height="20" viewBox="0 0 20 20" fill="current" xmlns="http://www.w3.org/2000/svg">
<path d="M7.95972 20C7.91279 20.0001 7.86644 19.9895 7.82425 19.969C7.78207 19.9484 7.74518 19.9184 7.71644 19.8813C7.6877 19.8442 7.66788 19.801 7.65851 19.755C7.64914 19.709 7.65046 19.6615 7.66239 19.6161C8.00739 18.3318 8.35219 17.0457 8.69677 15.7577C8.71066 15.7058 8.73799 15.6586 8.77599 15.6207C8.81399 15.5828 8.86131 15.5556 8.91319 15.5419L17.315 13.29C17.3411 13.283 17.3681 13.2794 17.3952 13.2793C17.4422 13.2791 17.4886 13.2896 17.5309 13.31C17.5732 13.3305 17.6102 13.3603 17.6393 13.3972C17.6799 13.4499 17.702 13.5145 17.702 13.581C17.702 13.6084 17.6982 13.6356 17.6907 13.6619L16.9085 16.5857C16.8185 16.9218 16.6415 17.2283 16.3954 17.4743C16.1493 17.7203 15.8427 17.8972 15.5065 17.987L8.0419 19.9899C8.01507 19.9969 7.98744 20.0003 7.95972 20Z" fill="current"/>
<path d="M10.0748 8.78186C10.0348 8.78226 9.99508 8.77457 9.95811 8.75926C9.92114 8.74396 9.88764 8.72135 9.85961 8.69279L3.87538 2.71169C3.83723 2.67387 3.80976 2.62665 3.79573 2.5748C3.78171 2.52295 3.78163 2.46831 3.79551 2.41642C3.80939 2.36453 3.83673 2.31723 3.87477 2.27931C3.91281 2.24138 3.96019 2.21418 4.01212 2.20046L12.1843 0.0112577C12.2364 -0.00332632 12.2914 -0.00374794 12.3436 0.0100364C12.3959 0.0238208 12.4435 0.0513112 12.4816 0.0896675L18.4659 6.07265C18.5043 6.11066 18.5319 6.15816 18.546 6.21031C18.5601 6.26247 18.5602 6.31744 18.5462 6.36962C18.5321 6.4218 18.5046 6.46935 18.4662 6.50742C18.4279 6.54549 18.3801 6.57274 18.3279 6.58639L10.1526 8.77308C10.1268 8.77988 10.1002 8.78326 10.0735 8.78312L10.0748 8.78186Z" fill="current"/>
<path d="M9.48293 14.3323C9.436 14.3328 9.38959 14.3224 9.34735 14.3019C9.30511 14.2814 9.26818 14.2515 9.23944 14.2144C9.21071 14.1772 9.19095 14.134 9.18172 14.088C9.17249 14.0419 9.17403 13.9944 9.18623 13.9491C9.53082 12.6627 9.87561 11.3766 10.2206 10.0907C10.2344 10.0388 10.2615 9.99149 10.2994 9.95349C10.3373 9.91549 10.3846 9.88817 10.4364 9.87428L18.8419 7.62298C18.8681 7.61597 18.8951 7.61238 18.9222 7.61231C18.9691 7.61197 19.0155 7.62243 19.0577 7.64288C19.0999 7.66333 19.1368 7.69322 19.1656 7.73024C19.2067 7.78266 19.2288 7.84744 19.2283 7.91403C19.2284 7.9412 19.2246 7.96823 19.217 7.99433C18.8712 9.28066 18.526 10.5678 18.1814 11.8558C18.1673 11.9075 18.14 11.9545 18.1021 11.9923C18.0643 12.0302 18.0172 12.0575 17.9656 12.0716L9.56009 14.3254C9.53475 14.3309 9.50884 14.3332 9.48293 14.3323Z" fill="current"/>
<path d="M7.78414 13.8816C7.74409 13.8819 7.7044 13.8741 7.66743 13.8587C7.63046 13.8433 7.59698 13.8206 7.56899 13.7919L1.41727 7.64146C1.3793 7.60311 1.35207 7.55546 1.33831 7.50328C1.32455 7.4511 1.32474 7.39622 1.33886 7.34413C1.68386 6.05905 2.02845 4.77354 2.37262 3.48762C2.39023 3.4224 2.42897 3.36486 2.48277 3.324C2.53657 3.28314 2.60239 3.26127 2.66995 3.2618C2.7105 3.26083 2.75082 3.26824 2.78838 3.28357C2.82594 3.2989 2.85994 3.32181 2.88824 3.35088L9.03556 9.5026C9.07414 9.54055 9.10182 9.58816 9.11573 9.64046C9.12963 9.69276 9.12924 9.74783 9.1146 9.79992L8.08147 13.6552C8.06369 13.7204 8.02492 13.7779 7.97118 13.8188C7.91743 13.8597 7.8517 13.8818 7.78414 13.8816Z" fill="current"/>
<path d="M0.850469 9.15943C0.868276 9.09432 0.907063 9.0369 0.960819 8.99607C1.01457 8.95524 1.0803 8.93329 1.1478 8.93361C1.18781 8.93321 1.22749 8.9409 1.26446 8.95621C1.30143 8.97151 1.33493 8.99412 1.36295 9.02268L7.51028 15.1744C7.53906 15.2025 7.56192 15.236 7.57755 15.2731C7.59316 15.3102 7.60122 15.35 7.60123 15.3902C7.60127 15.4177 7.59747 15.4452 7.58994 15.4717C7.24578 16.7568 6.90119 18.0421 6.55619 19.3276C6.53866 19.3925 6.5002 19.4498 6.44678 19.4906C6.39337 19.5315 6.32797 19.5535 6.26074 19.5534C6.22074 19.5537 6.18108 19.546 6.14412 19.5307C6.10716 19.5154 6.07365 19.4928 6.04559 19.4643L0.580112 13.9951C0.334204 13.7492 0.15738 13.4428 0.0674186 13.1069C-0.0225431 12.7709 -0.0224716 12.4172 0.0676259 12.0813L0.850469 9.15943Z" fill="current"/>
</svg>
