<svg width="512" height="512" viewBox="0 0 512 512" fill="none" xmlns="http://www.w3.org/2000/svg">
<g clip-path="url(#clip0_1498_379)">
<path d="M503.467 72.5312H8.53333C3.82083 72.5312 0 76.3521 0 81.0646V115.198C0 129.335 11.4625 140.798 25.6 140.798H93.8667V149.331C93.9125 160.14 100.742 169.756 110.933 173.36V354.985C92.225 358.698 78.25 374.377 76.7083 393.385C75.1667 412.398 86.4292 430.123 104.3 436.802C122.167 443.481 142.296 437.49 153.6 422.123C161.558 433.019 174.242 439.46 187.733 439.46C201.225 439.46 213.908 433.019 221.867 422.123C233.192 437.381 253.25 443.294 271.038 436.615C288.829 429.94 300.046 412.29 298.533 393.348C297.025 374.41 283.154 358.76 264.533 354.985V173.36C274.725 169.756 281.554 160.14 281.6 149.331V140.798H298.667V149.331C298.667 163.469 310.129 174.931 324.267 174.931C325.008 174.931 325.7 174.777 326.425 174.71L436.675 318.469C430.254 326.056 426.713 335.66 426.667 345.598C426.667 369.16 445.771 388.265 469.333 388.265C492.896 388.265 512 369.16 512 345.598C512 322.035 492.896 302.931 469.333 302.931C462.592 302.977 455.963 304.64 449.996 307.777L342.358 167.431C347.167 162.635 349.871 156.123 349.867 149.331V140.798H486.4C500.538 140.798 512 129.335 512 115.198V81.0646C512 76.3521 508.179 72.5312 503.467 72.5312ZM494.933 345.598C494.933 359.735 483.471 371.198 469.333 371.198C455.196 371.198 443.733 359.735 443.733 345.598C443.733 331.46 455.196 319.998 469.333 319.998C483.471 319.998 494.933 331.46 494.933 345.598ZM162.133 140.798V149.331C162.179 160.14 169.008 169.756 179.2 173.36V354.985C168.929 357.135 159.817 362.998 153.6 371.452C147.383 362.998 138.271 357.135 128 354.985V173.36C138.192 169.756 145.021 160.14 145.067 149.331V140.798H162.133ZM230.4 140.798V149.331C230.446 160.14 237.275 169.756 247.467 173.36V354.985C237.196 357.135 228.083 362.998 221.867 371.452C215.65 362.998 206.538 357.135 196.267 354.985V173.36C206.458 169.756 213.288 160.14 213.333 149.331V140.798H230.4ZM196.267 149.331C196.267 154.044 192.446 157.865 187.733 157.865C183.021 157.865 179.2 154.044 179.2 149.331V140.798H196.267V149.331ZM128 149.331C128 154.044 124.179 157.865 119.467 157.865C114.754 157.865 110.933 154.044 110.933 149.331V140.798H128V149.331ZM119.467 422.398C105.329 422.398 93.8667 410.935 93.8667 396.798C93.8667 382.66 105.329 371.198 119.467 371.198C133.604 371.198 145.067 382.66 145.067 396.798C145.067 410.935 133.604 422.398 119.467 422.398ZM187.733 422.398C173.596 422.398 162.133 410.935 162.133 396.798C162.133 382.66 173.596 371.198 187.733 371.198C201.871 371.198 213.333 382.66 213.333 396.798C213.333 410.935 201.871 422.398 187.733 422.398ZM281.6 396.798C281.6 410.935 270.138 422.398 256 422.398C241.863 422.398 230.4 410.935 230.4 396.798C230.4 382.66 241.863 371.198 256 371.198C270.138 371.198 281.6 382.66 281.6 396.798ZM264.533 149.331C264.533 154.044 260.713 157.865 256 157.865C251.288 157.865 247.467 154.044 247.467 149.331V140.798H264.533V149.331ZM332.8 149.331C332.8 154.044 328.979 157.865 324.267 157.865C319.554 157.865 315.733 154.044 315.733 149.331V140.798H332.8V149.331ZM494.933 115.198C494.933 119.91 491.113 123.731 486.4 123.731H25.6C20.8875 123.731 17.0667 119.91 17.0667 115.198V89.5979H494.933V115.198Z" fill="#5A2C42"/>
<path d="M428.57 249.569L441.841 238.836L454.837 254.903L441.57 265.636L428.57 249.569Z" fill="#5A2C42"/>
<path d="M377.375 186.323L390.646 175.586L427.204 220.778L413.938 231.515L377.375 186.323Z" fill="#5A2C42"/>
<path d="M359.026 414.881L355.072 398.281C349.651 399.573 344.247 400.677 338.859 401.594L341.743 418.415C347.472 417.44 353.234 416.26 359.026 414.881Z" fill="#5A2C42"/>
<path d="M401.715 382.051L408.915 397.539C414.223 395.064 419.523 392.368 424.669 389.526L416.423 374.609C411.611 377.247 406.673 379.73 401.715 382.051Z" fill="#5A2C42"/>
<path d="M322.56 403.852C317.085 404.431 311.552 404.806 306.102 405.01L306.714 422.077C312.543 421.872 318.464 421.464 324.327 420.847L322.56 403.852Z" fill="#5A2C42"/>
<path d="M386.56 388.492C381.443 390.471 376.185 392.301 370.98 393.913L376.022 410.209C381.605 408.505 387.21 406.542 392.697 404.434L386.56 388.492Z" fill="#5A2C42"/>
<path d="M76.8008 320H93.8674V337.067H76.8008V320Z" fill="#5A2C42"/>
<path d="M145.066 285.867H162.133V302.934H145.066V285.867Z" fill="#5A2C42"/>
<path d="M213.332 320H230.399V337.067H213.332V320Z" fill="#5A2C42"/>
</g>
<defs>
<clipPath id="clip0_1498_379">
<rect width="512" height="512" fill="white"/>
</clipPath>
</defs>
</svg>
