<svg width="233" height="37" viewBox="0 0 233 37" fill="none" xmlns="http://www.w3.org/2000/svg">
<g clip-path="url(#clip0_3324_78236)">
<path d="M58.6756 12.8925C60.4506 12.8925 61.8808 13.4668 62.9663 14.6155C64.0517 15.7642 64.5948 17.3104 64.5956 19.254V28.9645H61.2082V19.473C61.2082 18.3868 60.9365 17.546 60.393 16.9505C59.8495 16.3551 59.108 16.0574 58.1686 16.0574C57.123 16.0574 56.2924 16.4022 55.6766 17.0917C55.0609 17.7812 54.7556 18.8151 54.7609 20.1934V28.9679H51.3735V19.473C51.3735 18.3868 51.1176 17.546 50.6057 16.9505C50.0938 16.3551 49.3682 16.0574 48.4287 16.0574C47.405 16.0574 46.5691 16.4071 45.9209 17.1064C45.2728 17.8057 44.9491 18.8347 44.9499 20.1934V28.9679H41.5625V13.2989H44.9499V15.1801C45.9526 13.655 47.4464 12.8925 49.4314 12.8925C51.4367 12.8925 52.92 13.7175 53.8813 15.3675C54.9261 13.7182 56.5242 12.8932 58.6756 12.8925Z" fill="#A1EAC4"/>
<path d="M71.4478 10.3067C71.1455 10.6054 70.7619 10.8085 70.3448 10.8904C69.9278 10.9724 69.4958 10.9296 69.103 10.7674C68.7101 10.6053 68.3737 10.3309 68.1359 9.97866C67.8981 9.62642 67.7693 9.21189 67.7657 8.78688C67.7629 8.50447 67.8169 8.22437 67.9245 7.96327C68.0322 7.70216 68.1913 7.4654 68.3924 7.26708C68.593 7.06361 68.8321 6.90204 69.0957 6.79176C69.3594 6.68148 69.6423 6.62469 69.928 6.62469C70.2138 6.62469 70.4967 6.68148 70.7603 6.79176C71.0239 6.90204 71.263 7.06361 71.4636 7.26708C71.6647 7.4654 71.8238 7.70216 71.9315 7.96327C72.0392 8.22437 72.0932 8.50447 72.0903 8.78688C72.0926 9.07065 72.0368 9.35189 71.9263 9.61327C71.8158 9.87464 71.653 10.1106 71.4478 10.3067ZM68.2354 28.9678V13.2989H71.6228V28.9678H68.2354Z" fill="#A1EAC4"/>
<path d="M83.7817 12.8925C85.5785 12.8925 87.0306 13.4668 88.1379 14.6155C89.2452 15.7642 89.7988 17.3416 89.7988 19.3477V28.9679H86.4114V19.6921C86.4114 18.5223 86.0979 17.6239 85.4709 16.9968C84.8438 16.3698 83.9872 16.0567 82.901 16.0574C81.7109 16.0574 80.75 16.4281 80.0183 17.1696C79.2866 17.9111 78.9227 19.0443 78.9264 20.5694V28.9679H75.5391V13.2989H78.9264V15.3054C79.9457 13.696 81.5641 12.8917 83.7817 12.8925Z" fill="#A1EAC4"/>
<path d="M102.171 16.5588H98.2856V24.0788C98.2856 24.7269 98.4316 25.1917 98.7237 25.4732C99.0157 25.7548 99.4493 25.9117 100.024 25.9441C100.739 25.9748 101.455 25.9695 102.17 25.9283V28.9679C99.5795 29.2803 97.7203 29.0545 96.5919 28.2904C95.4635 27.5264 94.8989 26.1214 94.8982 24.0754V16.5554H92.0234V13.299H94.9072V9.9116L98.2946 8.90894V13.2956H102.18L102.171 16.5588Z" fill="#A1EAC4"/>
<path d="M114.114 12.8924C116.265 12.8924 118.104 13.6862 119.63 15.2737C121.155 16.8613 121.918 18.8147 121.917 21.1339C121.917 23.4321 121.155 25.3802 119.63 26.9783C118.104 28.5764 116.266 29.3754 114.114 29.3754C111.732 29.3754 109.904 28.4876 108.63 26.7118V28.9701H105.242V7.03223H108.63V15.5244C109.906 13.7697 111.734 12.8924 114.114 12.8924ZM110.04 24.7212C110.981 25.6734 112.161 26.1488 113.581 26.1472C115.001 26.1457 116.181 25.6704 117.122 24.7212C118.062 23.7712 118.532 22.5754 118.532 21.1339C118.532 19.6924 118.062 18.4963 117.122 17.5455C116.182 16.5948 115.002 16.1195 113.581 16.1195C112.16 16.1195 110.979 16.5948 110.04 17.5455C109.1 18.4948 108.629 19.6909 108.625 21.1339C108.621 22.5769 109.093 23.7727 110.04 24.7212Z" fill="#A1EAC4"/>
<path d="M132.383 29.3755C130.084 29.3755 128.13 28.5813 126.522 26.993C124.914 25.4047 124.11 23.4517 124.109 21.134C124.109 18.8147 124.914 16.8613 126.522 15.2738C128.131 13.6862 130.084 12.8925 132.383 12.8925C134.7 12.8925 136.657 13.6862 138.254 15.2738C139.851 16.8613 140.65 18.8147 140.651 21.134C140.651 23.4517 139.852 25.4047 138.254 26.993C136.656 28.5813 134.699 29.3755 132.383 29.3755ZM128.904 24.6749C129.845 25.6136 131.004 26.0829 132.383 26.0829C133.761 26.0829 134.92 25.6128 135.86 24.6726C136.8 23.7317 137.27 22.5514 137.27 21.1317C137.27 19.712 136.8 18.5317 135.86 17.5908C134.921 16.6498 133.762 16.1797 132.383 16.1805C131.003 16.1812 129.844 16.6513 128.904 17.5908C127.964 18.5302 127.494 19.7105 127.493 21.1317C127.493 22.5529 127.963 23.734 128.904 24.6749Z" fill="#A1EAC4"/>
<path d="M156.602 28.9679H152.684L148.784 23.6237L144.882 28.9679H140.93L146.801 20.9194L141.253 13.299H145.17L148.773 18.2355L152.377 13.299H156.329L150.737 20.9398L156.602 28.9679Z" fill="#A1EAC4"/>
<path d="M14.3033 36C14.2188 36.0004 14.1354 35.9813 14.0594 35.9442C13.9835 35.9072 13.9171 35.8532 13.8654 35.7864C13.8136 35.7196 13.778 35.6418 13.7611 35.559C13.7442 35.4762 13.7466 35.3907 13.7681 35.309C14.3891 32.9973 15.0098 30.6822 15.63 28.3637C15.655 28.2704 15.7042 28.1854 15.7726 28.1172C15.841 28.049 15.9262 28 16.0196 27.9753L31.1431 23.9217C31.1903 23.9091 31.2388 23.9027 31.2876 23.9025C31.3722 23.9022 31.4557 23.9211 31.5318 23.9579C31.6079 23.9947 31.6746 24.0483 31.7269 24.1148C31.8001 24.2095 31.8398 24.3259 31.8398 24.4456C31.8398 24.4949 31.8329 24.5439 31.8195 24.5913L30.4114 29.8542C30.2494 30.4592 29.9309 31.0109 29.4878 31.4538C29.0448 31.8966 28.493 32.2149 27.8878 32.3766L14.4512 35.9819C14.4029 35.9945 14.3532 36.0005 14.3033 36Z" fill="#A1EAC4"/>
<path d="M18.095 15.8079C18.023 15.8086 17.9516 15.7947 17.885 15.7672C17.8185 15.7396 17.7582 15.6989 17.7077 15.6475L6.93584 4.88128C6.86718 4.81321 6.81772 4.72821 6.79247 4.63487C6.76723 4.54154 6.76709 4.44319 6.79207 4.34979C6.81706 4.25639 6.86628 4.17124 6.93475 4.10298C7.00322 4.03471 7.08851 3.98575 7.18199 3.96104L21.8923 0.0203865C21.986 -0.00586545 22.085 -0.00662439 22.1791 0.0181881C22.2732 0.0430005 22.3589 0.0924844 22.4275 0.161528L33.1994 10.9312C33.2685 10.9996 33.3183 11.0851 33.3437 11.179C33.3691 11.2729 33.3691 11.3718 33.3439 11.4657C33.3187 11.5596 33.269 11.6452 33.2 11.7138C33.131 11.7823 33.0451 11.8313 32.951 11.8559L18.235 15.7921C18.1886 15.8043 18.1408 15.8104 18.0928 15.8101L18.095 15.8079Z" fill="#A1EAC4"/>
<path d="M17.0373 25.7983C16.9528 25.7991 16.8692 25.7804 16.7932 25.7435C16.7172 25.7067 16.6507 25.6528 16.599 25.586C16.5472 25.5191 16.5117 25.4413 16.4951 25.3584C16.4785 25.2756 16.4812 25.19 16.5032 25.1084C17.1235 22.793 17.7441 20.4779 18.3651 18.1632C18.3899 18.0698 18.4388 17.9846 18.507 17.9162C18.5752 17.8478 18.6602 17.7986 18.7535 17.7736L33.8839 13.7212C33.931 13.7086 33.9796 13.7021 34.0284 13.702C34.1128 13.7014 34.1962 13.7202 34.2722 13.757C34.3482 13.7938 34.4147 13.8476 34.4665 13.9143C34.5404 14.0086 34.5802 14.1252 34.5794 14.2451C34.5795 14.294 34.5726 14.3426 34.5591 14.3896C33.9366 16.7051 33.3152 19.0221 32.6949 21.3405C32.6695 21.4334 32.6203 21.5181 32.5522 21.5862C32.4841 21.6543 32.3994 21.7035 32.3065 21.729L17.1761 25.7859C17.1305 25.7958 17.0839 25.7999 17.0373 25.7983Z" fill="#A1EAC4"/>
<path d="M14.0039 24.9876C13.9318 24.9881 13.8604 24.974 13.7938 24.9463C13.7273 24.9185 13.667 24.8777 13.6166 24.8261L2.54328 13.755C2.47493 13.686 2.42591 13.6002 2.40114 13.5063C2.37637 13.4123 2.37671 13.3136 2.40214 13.2198C3.02316 10.9066 3.64343 8.59263 4.26294 6.27791C4.29465 6.16052 4.36438 6.05694 4.46122 5.98339C4.55806 5.90984 4.67655 5.87047 4.79815 5.87143C4.87115 5.86968 4.94373 5.88302 5.01134 5.91061C5.07895 5.9382 5.14015 5.97944 5.19109 6.03176L16.2565 17.1051C16.326 17.1734 16.3758 17.2591 16.4008 17.3533C16.4259 17.4474 16.4252 17.5466 16.3988 17.6403L14.5391 24.58C14.5071 24.6973 14.4374 24.8008 14.3406 24.8745C14.2439 24.9481 14.1255 24.9879 14.0039 24.9876Z" fill="#A1EAC4"/>
<path d="M1.53088 16.4854C1.56293 16.3682 1.63275 16.2648 1.72952 16.1913C1.82628 16.1178 1.94458 16.0783 2.06609 16.0789C2.13811 16.0782 2.20954 16.092 2.27608 16.1196C2.34263 16.1471 2.40294 16.1878 2.45338 16.2392L13.5188 27.3126C13.5706 27.3631 13.6118 27.4236 13.6399 27.4903C13.668 27.557 13.6825 27.6286 13.6826 27.701C13.6826 27.7506 13.6758 27.8 13.6622 27.8478C13.0427 30.161 12.4225 32.4746 11.8014 34.7885C11.7699 34.9054 11.7007 35.0085 11.6045 35.082C11.5083 35.1555 11.3906 35.1952 11.2696 35.195C11.1976 35.1956 11.1262 35.1817 11.0597 35.1542C10.9932 35.1266 10.9328 35.086 10.8823 35.0347L1.04423 25.1898C0.601583 24.7471 0.283292 24.1957 0.121357 23.5909C-0.0405786 22.9862 -0.0404499 22.3495 0.12173 21.7448L1.53088 16.4854Z" fill="#A1EAC4"/>
</g>
<path d="M174.514 14.608C172.638 14.608 171.266 15.252 170.342 16.316V9.4H166.142V29H170.342V27.684C171.266 28.748 172.638 29.392 174.514 29.392C178.182 29.392 181.206 26.172 181.206 22C181.206 17.828 178.182 14.608 174.514 14.608ZM173.674 25.416C171.742 25.416 170.342 24.1 170.342 22C170.342 19.9 171.742 18.584 173.674 18.584C175.606 18.584 177.006 19.9 177.006 22C177.006 24.1 175.606 25.416 173.674 25.416ZM182.467 29H186.667V8.56H182.467V29ZM198.784 15V16.316C197.86 15.252 196.488 14.608 194.612 14.608C190.944 14.608 187.92 17.828 187.92 22C187.92 26.172 190.944 29.392 194.612 29.392C196.488 29.392 197.86 28.748 198.784 27.684V29H202.984V15H198.784ZM195.452 25.416C193.52 25.416 192.12 24.1 192.12 22C192.12 19.9 193.52 18.584 195.452 18.584C197.384 18.584 198.784 19.9 198.784 22C198.784 24.1 197.384 25.416 195.452 25.416ZM211.666 29.392C214.41 29.392 216.79 27.964 217.994 25.78L214.326 23.68C213.878 24.66 212.842 25.248 211.61 25.248C209.79 25.248 208.446 23.932 208.446 22C208.446 20.068 209.79 18.752 211.61 18.752C212.842 18.752 213.85 19.34 214.326 20.32L217.994 18.192C216.79 16.036 214.382 14.608 211.666 14.608C207.41 14.608 204.246 17.828 204.246 22C204.246 26.172 207.41 29.392 211.666 29.392ZM232.004 29L226.768 22L231.864 15H226.964L222.764 21.132V9.4H218.564V29H222.764V22.812L227.244 29H232.004Z" fill="white"/>
<defs>
<clipPath id="clip0_3324_78236">
<rect width="156.603" height="36" fill="white"/>
</clipPath>
</defs>
</svg>
