<svg width="512" height="512" viewBox="0 0 512 512" fill="none" xmlns="http://www.w3.org/2000/svg">
<path fill-rule="evenodd" clip-rule="evenodd" d="M38.9196 469.096H492.016V496H12.0156V16H38.9196V469.096ZM468.823 254L458.53 262.038C455.061 264.747 454.446 269.757 457.155 273.226C459.864 276.695 464.874 277.311 468.343 274.601L496.924 252.282C501.084 249.033 500.966 242.754 496.804 239.626L468.343 217.4C464.874 214.691 459.865 215.306 457.155 218.775C454.446 222.244 455.061 227.253 458.53 229.963L468.823 238H423.448L407.004 168.57C406.003 164.273 401.708 161.601 397.41 162.601C394.238 163.34 391.952 165.874 391.374 168.879L350.855 324.338L293.577 82.008C291.72 74.035 280.493 73.773 278.147 81.509L214.483 255.464L176.793 169.579C173.887 162.913 164.374 163.368 161.971 170.078L72.2656 401.324C70.6776 405.432 72.7206 410.049 76.8286 411.636C80.9366 413.223 85.5536 411.181 87.1406 407.073L169.933 193.649L207.84 280.026C210.679 286.549 220.181 286.388 222.654 279.562L284.142 111.552L342.702 359.243C344.578 367.264 356.098 367.499 358.187 359.434L398.843 203.449L409.256 247.415C409.924 251.158 413.196 253.999 417.131 253.999H468.823V254Z" fill="#FABC05"/>
</svg>
