<svg width="97" height="27" viewBox="0 0 97 27" fill="none" xmlns="http://www.w3.org/2000/svg">
<path d="M21.278 20V7.4H23.186L29.504 16.886V7.4H31.412V20H29.504L23.186 10.514V20H21.278ZM33.9694 20V7.4H35.8774V20H33.9694ZM38.4343 20V7.4H46.3363V8.948H40.3423V12.926H45.3103V14.456H40.3423V20H38.4343ZM51.1597 20V8.948H47.4337V7.4H56.7757V8.948H53.0677V20H51.1597ZM61.7652 20V15.356L57.5892 7.4H59.7492L62.7192 13.484L65.6712 7.4H67.8132L63.6732 15.356V20H61.7652ZM78.3165 20.216C77.4285 20.216 76.6605 20.06 76.0125 19.748C75.3645 19.424 74.8485 18.986 74.4645 18.434C74.0925 17.87 73.8645 17.234 73.7805 16.526H75.6525C75.7725 17.126 76.0725 17.624 76.5525 18.02C77.0325 18.404 77.6265 18.596 78.3345 18.596C78.8625 18.596 79.3185 18.47 79.7025 18.218C80.0865 17.954 80.3865 17.606 80.6025 17.174C80.8185 16.742 80.9265 16.256 80.9265 15.716C80.9265 14.864 80.6865 14.186 80.2065 13.682C79.7265 13.166 79.1205 12.908 78.3885 12.908C77.7645 12.908 77.2305 13.058 76.7865 13.358C76.3425 13.646 76.0185 14.012 75.8145 14.456H73.9965L75.0765 7.4H81.8805V9.074H76.5165L75.8685 12.44C76.1445 12.128 76.5225 11.87 77.0025 11.666C77.4945 11.45 78.0465 11.342 78.6585 11.342C79.5105 11.342 80.2425 11.54 80.8545 11.936C81.4665 12.32 81.9345 12.842 82.2585 13.502C82.5945 14.162 82.7625 14.894 82.7625 15.698C82.7625 16.538 82.5825 17.3 82.2225 17.984C81.8625 18.668 81.3465 19.214 80.6745 19.622C80.0145 20.018 79.2285 20.216 78.3165 20.216ZM90.0563 20.216C88.9163 20.216 87.9323 19.946 87.1043 19.406C86.2883 18.854 85.6583 18.092 85.2143 17.12C84.7823 16.136 84.5663 14.996 84.5663 13.7C84.5663 12.404 84.7823 11.27 85.2143 10.298C85.6583 9.314 86.2883 8.552 87.1043 8.012C87.9323 7.46 88.9163 7.184 90.0563 7.184C91.1963 7.184 92.1743 7.46 92.9903 8.012C93.8063 8.552 94.4303 9.314 94.8623 10.298C95.3063 11.27 95.5283 12.404 95.5283 13.7C95.5283 14.996 95.3063 16.136 94.8623 17.12C94.4303 18.092 93.8063 18.854 92.9903 19.406C92.1743 19.946 91.1963 20.216 90.0563 20.216ZM90.0563 18.506C90.7403 18.506 91.3463 18.314 91.8743 17.93C92.4143 17.546 92.8343 16.994 93.1343 16.274C93.4343 15.554 93.5843 14.696 93.5843 13.7C93.5843 12.704 93.4343 11.846 93.1343 11.126C92.8343 10.406 92.4143 9.854 91.8743 9.47C91.3463 9.086 90.7403 8.894 90.0563 8.894C89.3603 8.894 88.7483 9.086 88.2203 9.47C87.6923 9.854 87.2783 10.406 86.9783 11.126C86.6783 11.846 86.5283 12.704 86.5283 13.7C86.5283 14.696 86.6783 15.554 86.9783 16.274C87.2783 16.994 87.6923 17.546 88.2203 17.93C88.7483 18.314 89.3603 18.506 90.0563 18.506Z" fill="#F3B92A"/>
<circle cx="6" cy="14" r="6" fill="#F3B92A"/>
</svg>
