<svg width="48" height="32" viewBox="0 0 48 32" fill="none" xmlns="http://www.w3.org/2000/svg">
<path d="M34.3398 12.2485L22.6328 22.5414C22.6172 22.5551 22.6016 22.5688 22.5879 22.5834C22.209 22.9604 22 23.4632 22 23.9994C22 25.1019 22.8965 25.9994 24 25.9994C24.5312 25.9994 25.0332 25.7924 25.459 25.3665L35.752 13.6595C36.0996 13.264 36.0801 12.6654 35.7071 12.2924C35.334 11.9204 34.7383 11.9008 34.3398 12.2485Z" fill="#A73160"/>
<path d="M24 0C10.7656 0 0 10.7666 0 24C0 26.4824 0.38475 28.9395 1.14066 31.3047C1.2735 31.7188 1.65825 32.0001 2.09381 32.0001H45.9063C46.3418 32.0001 46.7266 31.7188 46.8594 31.3047C47.6152 28.9395 48 26.4825 48 24C48 10.7666 37.2344 0 24 0ZM43 25H45.9307C45.8534 26.6913 45.6272 28.3701 45.1641 30H2.83594C2.37281 28.37 2.14659 26.6913 2.06934 25H4.99997C5.55272 25 6 24.5527 6 24C6 23.4473 5.55272 23 4.99997 23H2.05059C2.19881 19.7263 3.05184 16.6376 4.48322 13.8867L7.04484 15.3662C7.20309 15.457 7.37494 15.5 7.54481 15.5C7.88859 15.5 8.22647 15.3213 8.41003 15C8.68734 14.5215 8.52328 13.9102 8.04478 13.6338L5.48887 12.1576C7.20666 9.48206 9.48281 7.20609 12.1584 5.48841L13.6346 8.04591C13.8182 8.36625 14.1562 8.54587 14.4998 8.54587C14.6698 8.54587 14.8417 8.50294 14.9998 8.41209C15.4783 8.13572 15.6424 7.52437 15.3651 7.04587L13.886 4.4835C16.6371 3.05194 19.7259 2.19881 22.9999 2.05059V4.99997C22.9999 5.55272 23.4472 6 23.9999 6C24.5527 6 24.9999 5.55272 24.9999 4.99997V2.05059C28.2739 2.19881 31.3628 3.05194 34.1138 4.4835L32.6348 7.04587C32.3574 7.52437 32.5215 8.13572 33 8.41209C33.1582 8.50294 33.3301 8.54587 33.5 8.54587C33.8438 8.54587 34.1816 8.36616 34.3652 8.04591L35.8414 5.48841C38.517 7.20609 40.7932 9.48206 42.5109 12.1576L39.955 13.6338C39.4765 13.9102 39.3125 14.5215 39.5898 15C39.7733 15.3213 40.1113 15.5 40.455 15.5C40.6249 15.5 40.7968 15.457 40.955 15.3662L43.5166 13.8867C44.948 16.6377 45.801 19.7263 45.9492 23H42.9998C42.4471 23 41.9998 23.4473 41.9998 24C42 24.5527 42.4473 25 43 25Z" fill="#A73160"/>
</svg>
