<svg width="15" height="18" viewBox="0 0 15 18" fill="none" xmlns="http://www.w3.org/2000/svg">
<path d="M14.0395 2.3913V1H1V2.3913H5.48234C6.38183 2.39356 7.24884 2.67853 7.9178 3.19181C8.58676 3.70508 9.01081 4.4107 9.10896 5.17391H1V6.56522H9.10896C9.01081 7.32843 8.58676 8.03405 7.9178 8.54732C7.24884 9.0606 6.38183 9.34557 5.48234 9.34783H1V10.9791L8.83758 17L9.92801 15.9663L3.12382 10.7391H5.48234C6.81571 10.7375 8.09937 10.3069 9.07739 9.53335C10.0554 8.75976 10.656 7.69995 10.7593 6.56522H14.0395V5.17391H10.7593C10.6658 4.12935 10.1484 3.14532 9.29641 2.3913H14.0395Z" fill="#294C88" stroke="#294C88" stroke-width="0.5"/>
</svg>
