<svg width="15" height="18" viewBox="0 0 15 18" fill="none" xmlns="http://www.w3.org/2000/svg">
<path d="M14.1395 2.4913H14.0395H9.55034C10.2851 3.21259 10.7414 4.11497 10.8497 5.07391H14.0395H14.1395V5.17391V6.56522V6.66522H14.0395H10.8495C10.7204 7.79535 10.1107 8.84353 9.13943 9.61178C8.14251 10.4003 6.83664 10.8375 5.48247 10.8391H5.48234H3.41813L9.98893 15.887L10.0818 15.9583L9.99681 16.0388L8.90638 17.0726L8.84439 17.1313L8.77666 17.0793L0.93908 11.0584L0.9 11.0284V10.9791V9.34783V9.24783H1L5.48209 9.24783L5.48234 9.24783M14.1395 2.4913L9.09419 6.66522C8.97317 7.38991 8.55744 8.05654 7.9178 8.54732C7.24884 9.0606 6.38183 9.34557 5.48234 9.34783V9.24783M14.1395 2.4913V2.3913V1V0.9H14.0395H1H0.9V1V2.3913V2.4913H1H5.48223M14.1395 2.4913H5.48223M5.48234 9.24783C6.36138 9.24557 7.20662 8.96694 7.85692 8.46798C8.47358 7.99484 8.87275 7.35628 8.99275 6.66522M5.48234 9.24783L8.99275 6.66522M8.99275 6.66522H1H0.9V6.56522V5.17391V5.07391H1H8.99275C8.87275 4.38285 8.47358 3.74429 7.85692 3.27115C7.20659 2.77217 6.36131 2.49354 5.48223 2.4913" fill="#58985F" stroke="#58985F" stroke-width="0.2"/>
</svg>
