<svg width="170" height="43" viewBox="0 0 170 43" fill="none" xmlns="http://www.w3.org/2000/svg">
<path d="M20.0531 41.3283C19.2209 42.6933 17.2859 42.6717 16.4843 41.2884L16.4007 21.0646C16.4188 19.4445 16.3645 18.3637 18.0009 18.382L30.1942 18.5183C31.8305 18.5366 32.8136 20.3982 31.9419 21.828L20.0531 41.3283Z" fill="white"/>
<path d="M12.2888 1.19208C13.124 -0.171129 15.059 -0.14521 15.8575 1.23988L15.8964 21.4637C15.8747 23.0838 15.9266 24.1648 14.2903 24.1429L2.09734 23.9795C0.461003 23.9576 -0.517927 22.0939 0.356928 20.666L12.2888 1.19208Z" fill="white"/>
<path d="M46.5853 28.352C45.6466 28.352 44.6759 28.2667 43.6733 28.096C42.6919 27.9253 41.7959 27.6373 40.9853 27.232C40.5586 27.0187 40.2493 26.752 40.0573 26.432C39.8866 26.0907 39.8119 25.7493 39.8333 25.408C39.8546 25.0667 39.9613 24.7573 40.1533 24.48C40.3666 24.2027 40.6333 24.0213 40.9533 23.936C41.2946 23.8293 41.6679 23.8613 42.0733 24.032C42.9479 24.3947 43.7479 24.6507 44.4733 24.8C45.1986 24.9493 45.9133 25.024 46.6173 25.024C47.5346 25.024 48.1959 24.8853 48.6013 24.608C49.0279 24.3093 49.2413 23.9253 49.2413 23.456C49.2413 23.0293 49.1026 22.7093 48.8253 22.496C48.5479 22.2827 48.1426 22.1333 47.6093 22.048L44.2493 21.44C42.9266 21.2053 41.9026 20.7253 41.1773 20C40.4733 19.2533 40.1213 18.304 40.1213 17.152C40.1213 16.0853 40.4199 15.168 41.0173 14.4C41.6146 13.6107 42.4359 13.0133 43.4813 12.608C44.5479 12.1813 45.7533 11.968 47.0973 11.968C48.0573 11.968 48.9426 12.0533 49.7533 12.224C50.5639 12.3947 51.3426 12.672 52.0893 13.056C52.4733 13.248 52.7399 13.504 52.8893 13.824C53.0599 14.144 53.1133 14.4747 53.0493 14.816C53.0066 15.1573 52.8786 15.4667 52.6653 15.744C52.4519 16.0213 52.1746 16.2027 51.8333 16.288C51.5133 16.3733 51.1399 16.3307 50.7133 16.16C50.0306 15.84 49.4013 15.616 48.8253 15.488C48.2493 15.3387 47.6946 15.264 47.1613 15.264C46.2013 15.264 45.5079 15.424 45.0813 15.744C44.6546 16.0427 44.4413 16.4267 44.4413 16.896C44.4413 17.2587 44.5586 17.568 44.7933 17.824C45.0493 18.0587 45.4333 18.2187 45.9453 18.304L49.3053 18.912C50.6919 19.1467 51.7479 19.616 52.4733 20.32C53.1986 21.0027 53.5613 21.9413 53.5613 23.136C53.5613 24.7573 52.9213 26.0373 51.6413 26.976C50.3826 27.8933 48.6973 28.352 46.5853 28.352ZM58.7513 28.288C57.9619 28.288 57.3539 28.0747 56.9273 27.648C56.5219 27.2213 56.3193 26.6133 56.3193 25.824V7.616C56.3193 6.80533 56.5219 6.19733 56.9273 5.792C57.3539 5.36533 57.9619 5.152 58.7513 5.152C59.5193 5.152 60.1059 5.36533 60.5113 5.792C60.9379 6.19733 61.1513 6.80533 61.1513 7.616V15.232H60.7033C61.1939 14.1867 61.9193 13.3867 62.8793 12.832C63.8606 12.256 64.9699 11.968 66.2073 11.968C67.4659 11.968 68.5006 12.2133 69.3113 12.704C70.1219 13.1733 70.7299 13.8987 71.1353 14.88C71.5406 15.84 71.7433 17.0667 71.7433 18.56V25.824C71.7433 26.6133 71.5299 27.2213 71.1033 27.648C70.6979 28.0747 70.1006 28.288 69.3113 28.288C68.5433 28.288 67.9459 28.0747 67.5193 27.648C67.1139 27.2213 66.9113 26.6133 66.9113 25.824V18.784C66.9113 17.696 66.7086 16.9173 66.3033 16.448C65.9193 15.9573 65.3219 15.712 64.5113 15.712C63.4873 15.712 62.6659 16.032 62.0473 16.672C61.4499 17.312 61.1513 18.1653 61.1513 19.232V25.824C61.1513 27.4667 60.3513 28.288 58.7513 28.288ZM80.6625 28.352C79.5105 28.352 78.4758 28.128 77.5585 27.68C76.6412 27.232 75.9265 26.624 75.4145 25.856C74.9025 25.088 74.6465 24.224 74.6465 23.264C74.6465 22.112 74.9452 21.2053 75.5425 20.544C76.1398 19.8613 77.1105 19.3813 78.4545 19.104C79.7985 18.8053 81.5798 18.656 83.7985 18.656H85.4945V21.152H83.8305C82.7425 21.152 81.8572 21.216 81.1745 21.344C80.5132 21.4507 80.0332 21.6427 79.7345 21.92C79.4572 22.1973 79.3185 22.5813 79.3185 23.072C79.3185 23.6693 79.5212 24.16 79.9265 24.544C80.3532 24.928 80.9612 25.12 81.7505 25.12C82.3692 25.12 82.9132 24.9813 83.3825 24.704C83.8732 24.4053 84.2572 24.0107 84.5345 23.52C84.8118 23.008 84.9505 22.432 84.9505 21.792V18.112C84.9505 17.1733 84.7372 16.512 84.3105 16.128C83.8838 15.7227 83.1585 15.52 82.1345 15.52C81.5585 15.52 80.9292 15.5947 80.2465 15.744C79.5852 15.872 78.8492 16.096 78.0385 16.416C77.5692 16.6293 77.1532 16.6827 76.7905 16.576C76.4278 16.448 76.1505 16.2347 75.9585 15.936C75.7665 15.616 75.6705 15.2747 75.6705 14.912C75.6705 14.528 75.7772 14.1653 75.9905 13.824C76.2038 13.4613 76.5558 13.1947 77.0465 13.024C78.0492 12.6187 78.9878 12.3413 79.8625 12.192C80.7585 12.0427 81.5798 11.968 82.3265 11.968C83.9692 11.968 85.3132 12.2133 86.3585 12.704C87.4252 13.1733 88.2252 13.9093 88.7585 14.912C89.2918 15.8933 89.5585 17.1627 89.5585 18.72V25.824C89.5585 26.6133 89.3665 27.2213 88.9825 27.648C88.5985 28.0747 88.0438 28.288 87.3185 28.288C86.5932 28.288 86.0278 28.0747 85.6225 27.648C85.2385 27.2213 85.0465 26.6133 85.0465 25.824V24.64L85.2705 24.832C85.1425 25.5573 84.8652 26.1867 84.4385 26.72C84.0332 27.232 83.5105 27.6373 82.8705 27.936C82.2305 28.2133 81.4945 28.352 80.6625 28.352ZM95.659 28.288C94.8483 28.288 94.2297 28.0747 93.803 27.648C93.3763 27.2213 93.163 26.6133 93.163 25.824V14.464C93.163 13.6747 93.3657 13.0773 93.771 12.672C94.1977 12.2453 94.7843 12.032 95.531 12.032C96.299 12.032 96.8857 12.2453 97.291 12.672C97.6963 13.0773 97.899 13.6747 97.899 14.464V16.128H97.579C97.835 14.848 98.4003 13.856 99.275 13.152C100.15 12.448 101.28 12.0533 102.667 11.968C103.2 11.9253 103.606 12.064 103.883 12.384C104.182 12.6827 104.342 13.184 104.363 13.888C104.406 14.5493 104.267 15.072 103.947 15.456C103.648 15.84 103.136 16.0747 102.411 16.16L101.675 16.224C100.459 16.3307 99.5523 16.6827 98.955 17.28C98.379 17.8773 98.091 18.7413 98.091 19.872V25.824C98.091 26.6133 97.8777 27.2213 97.451 27.648C97.0457 28.0747 96.4483 28.288 95.659 28.288ZM108.783 34.048C107.993 34.048 107.385 33.8347 106.959 33.408C106.553 33.0027 106.351 32.3947 106.351 31.584V14.464C106.351 13.6747 106.553 13.0773 106.959 12.672C107.385 12.2453 107.972 12.032 108.719 12.032C109.508 12.032 110.105 12.2453 110.511 12.672C110.916 13.0773 111.119 13.6747 111.119 14.464V16.64L110.767 15.392C111.087 14.368 111.727 13.5467 112.687 12.928C113.668 12.288 114.788 11.968 116.047 11.968C117.412 11.968 118.607 12.2987 119.631 12.96C120.676 13.6213 121.487 14.56 122.063 15.776C122.639 16.992 122.927 18.4427 122.927 20.128C122.927 21.8133 122.639 23.2747 122.063 24.512C121.487 25.7493 120.687 26.6987 119.663 27.36C118.639 28.0213 117.433 28.352 116.047 28.352C114.809 28.352 113.711 28.0533 112.751 27.456C111.791 26.8373 111.14 26.0373 110.799 25.056H111.183V31.584C111.183 32.3947 110.969 33.0027 110.543 33.408C110.137 33.8347 109.551 34.048 108.783 34.048ZM114.607 24.736C115.289 24.736 115.887 24.5653 116.399 24.224C116.932 23.8827 117.337 23.3813 117.615 22.72C117.913 22.0373 118.063 21.1733 118.063 20.128C118.063 18.5707 117.743 17.4293 117.103 16.704C116.463 15.9573 115.631 15.584 114.607 15.584C113.924 15.584 113.316 15.744 112.783 16.064C112.271 16.384 111.865 16.8853 111.567 17.568C111.268 18.2293 111.119 19.0827 111.119 20.128C111.119 21.6853 111.439 22.848 112.079 23.616C112.719 24.3627 113.561 24.736 114.607 24.736ZM134.042 28.352C132.186 28.352 130.586 28.0213 129.242 27.36C127.919 26.6773 126.895 25.728 126.17 24.512C125.466 23.2747 125.114 21.824 125.114 20.16C125.114 18.5387 125.455 17.12 126.138 15.904C126.82 14.6667 127.77 13.7067 128.986 13.024C130.223 12.32 131.62 11.968 133.178 11.968C134.308 11.968 135.332 12.16 136.25 12.544C137.167 12.9067 137.956 13.44 138.618 14.144C139.279 14.8267 139.78 15.6693 140.122 16.672C140.463 17.6533 140.634 18.752 140.634 19.968C140.634 20.3733 140.506 20.6827 140.25 20.896C139.994 21.088 139.62 21.184 139.13 21.184H129.082V18.688H137.146L136.634 19.136C136.634 18.2613 136.506 17.536 136.25 16.96C135.994 16.3627 135.62 15.9147 135.13 15.616C134.66 15.3173 134.074 15.168 133.37 15.168C132.58 15.168 131.908 15.3493 131.354 15.712C130.799 16.0747 130.372 16.5973 130.074 17.28C129.775 17.9627 129.626 18.784 129.626 19.744V20C129.626 21.6213 129.999 22.816 130.746 23.584C131.514 24.352 132.644 24.736 134.138 24.736C134.65 24.736 135.236 24.672 135.898 24.544C136.559 24.416 137.178 24.2133 137.754 23.936C138.244 23.7013 138.682 23.6267 139.066 23.712C139.45 23.776 139.748 23.9467 139.962 24.224C140.175 24.5013 140.292 24.8213 140.314 25.184C140.356 25.5467 140.282 25.9093 140.09 26.272C139.898 26.6133 139.578 26.9013 139.13 27.136C138.404 27.5413 137.583 27.84 136.666 28.032C135.77 28.2453 134.895 28.352 134.042 28.352ZM149.108 28.352C147.21 28.352 145.791 27.8293 144.852 26.784C143.914 25.7173 143.444 24.1387 143.444 22.048V7.616C143.444 6.80533 143.647 6.19733 144.052 5.792C144.479 5.36533 145.087 5.152 145.876 5.152C146.644 5.152 147.231 5.36533 147.636 5.792C148.063 6.19733 148.276 6.80533 148.276 7.616V21.856C148.276 22.7307 148.458 23.3813 148.82 23.808C149.204 24.2133 149.706 24.416 150.324 24.416C150.495 24.416 150.655 24.4053 150.804 24.384C150.954 24.3627 151.114 24.352 151.284 24.352C151.626 24.3093 151.86 24.416 151.988 24.672C152.138 24.9067 152.212 25.3867 152.212 26.112C152.212 26.752 152.084 27.2427 151.828 27.584C151.572 27.904 151.178 28.1173 150.644 28.224C150.431 28.2453 150.186 28.2667 149.908 28.288C149.631 28.3307 149.364 28.352 149.108 28.352ZM157.951 34.048C157.396 34.048 156.938 33.8987 156.575 33.6C156.212 33.3013 155.999 32.9067 155.935 32.416C155.871 31.9467 155.956 31.4453 156.191 30.912L158.335 26.176V28.16L152.671 15.168C152.458 14.6133 152.383 14.1013 152.447 13.632C152.532 13.1413 152.767 12.7573 153.151 12.48C153.556 12.1813 154.111 12.032 154.815 12.032C155.391 12.032 155.85 12.1707 156.191 12.448C156.554 12.704 156.884 13.2053 157.183 13.952L160.959 23.552H159.935L163.839 13.92C164.138 13.1947 164.468 12.704 164.831 12.448C165.215 12.1707 165.727 12.032 166.367 12.032C166.922 12.032 167.359 12.1813 167.679 12.48C168.02 12.7573 168.223 13.1307 168.287 13.6C168.372 14.0693 168.287 14.5813 168.031 15.136L160.511 32.192C160.191 32.9173 159.828 33.408 159.423 33.664C159.039 33.92 158.548 34.048 157.951 34.048Z" fill="white"/>
</svg>
