<svg width="18" height="18" viewBox="0 0 18 18" fill="none" xmlns="http://www.w3.org/2000/svg">
<circle cx="9" cy="9" r="9" fill="#294C88"/>
<path d="M8.07223 14.3986C8.04689 14.3987 8.02186 14.393 7.99908 14.3819C7.9763 14.3708 7.95638 14.3546 7.94086 14.3346C7.92534 14.3145 7.91464 14.2912 7.90958 14.2664C7.90452 14.2415 7.90524 14.2159 7.91168 14.1913C8.09798 13.4979 8.28416 12.8034 8.47024 12.1078C8.47774 12.0798 8.49249 12.0543 8.51301 12.0339C8.53353 12.0134 8.55909 11.9987 8.5871 11.9913L13.124 10.7753C13.1381 10.7715 13.1527 10.7696 13.1673 10.7695C13.1927 10.7694 13.2178 10.7751 13.2406 10.7861C13.2634 10.7972 13.2834 10.8133 13.2991 10.8332C13.3211 10.8616 13.333 10.8965 13.333 10.9325C13.333 10.9472 13.3309 10.9619 13.3269 10.9762L12.9045 12.555C12.8559 12.7365 12.7603 12.902 12.6274 13.0348C12.4945 13.1677 12.329 13.2631 12.1474 13.3117L8.11661 14.3932C8.10212 14.397 8.0872 14.3988 8.07223 14.3986Z" fill="white"/>
<path d="M9.21666 8.34175C9.19505 8.34197 9.17363 8.33782 9.15366 8.32955C9.1337 8.32129 9.11561 8.30908 9.10048 8.29365L5.86903 5.0639C5.84843 5.04348 5.8336 5.01798 5.82602 4.98998C5.81845 4.96198 5.81841 4.93248 5.8259 4.90446C5.8334 4.87644 5.84816 4.8509 5.8687 4.83042C5.88924 4.80994 5.91483 4.79525 5.94287 4.78784L10.3558 3.60569C10.3839 3.59781 10.4136 3.59759 10.4418 3.60503C10.4701 3.61247 10.4958 3.62732 10.5164 3.64803L13.7478 6.8788C13.7685 6.89932 13.7835 6.92497 13.7911 6.95314C13.7987 6.9813 13.7987 7.01098 13.7912 7.03916C13.7836 7.06734 13.7687 7.09301 13.748 7.11357C13.7273 7.13413 13.7015 7.14884 13.6733 7.15621L9.25866 8.33701C9.24474 8.34068 9.23039 8.34251 9.21598 8.34243L9.21666 8.34175Z" fill="white"/>
<path d="M8.89633 11.3397C8.87098 11.34 8.84593 11.3343 8.82312 11.3233C8.80031 11.3122 8.78036 11.296 8.76485 11.276C8.74933 11.256 8.73866 11.2326 8.73368 11.2077C8.72869 11.1829 8.72953 11.1572 8.73611 11.1327C8.92219 10.4381 9.10837 9.74364 9.29467 9.04925C9.30209 9.02124 9.31677 8.99568 9.33723 8.97516C9.35769 8.95464 9.3832 8.93989 9.41119 8.93239L13.9501 7.7167C13.9643 7.71291 13.9788 7.71098 13.9935 7.71094C14.0188 7.71076 14.0438 7.7164 14.0666 7.72745C14.0894 7.73849 14.1094 7.75463 14.1249 7.77462C14.1471 7.80293 14.159 7.83791 14.1588 7.87387C14.1588 7.88854 14.1567 7.90313 14.1527 7.91723C13.9659 8.61184 13.7795 9.3069 13.5934 10.0024C13.5858 10.0303 13.5711 10.0557 13.5506 10.0761C13.5302 10.0966 13.5048 10.1113 13.4769 10.1189L8.93799 11.336C8.92431 11.3389 8.91032 11.3402 8.89633 11.3397Z" fill="white"/>
<path d="M7.9823 11.096C7.96067 11.0962 7.93924 11.0919 7.91927 11.0836C7.89931 11.0753 7.88123 11.063 7.86612 11.0476L4.54423 7.72636C4.52373 7.70565 4.50902 7.67992 4.50159 7.65174C4.49416 7.62356 4.49426 7.59393 4.50189 7.5658C4.68819 6.87187 4.87426 6.1777 5.06011 5.48331C5.06962 5.4481 5.09054 5.41703 5.11959 5.39496C5.14864 5.3729 5.18419 5.36109 5.22067 5.36137C5.24257 5.36085 5.26434 5.36485 5.28462 5.37313C5.30491 5.3814 5.32326 5.39378 5.33854 5.40947L8.65806 8.73136C8.67889 8.75185 8.69384 8.77756 8.70134 8.8058C8.70885 8.83404 8.70864 8.86378 8.70074 8.89191L8.14285 10.9737C8.13325 11.0089 8.11232 11.04 8.0833 11.0621C8.05427 11.0842 8.01878 11.0961 7.9823 11.096Z" fill="white"/>
<path d="M4.23659 8.54578C4.24621 8.51062 4.26715 8.47961 4.29618 8.45757C4.32521 8.43552 4.3607 8.42366 4.39715 8.42384C4.41875 8.42362 4.44018 8.42777 4.46014 8.43604C4.48011 8.4443 4.4982 8.45651 4.51333 8.47194L7.83284 11.7938C7.84838 11.809 7.86073 11.8271 7.86916 11.8471C7.8776 11.8671 7.88195 11.8886 7.88196 11.9103C7.88198 11.9252 7.87992 11.94 7.87586 11.9544C7.69001 12.6483 7.50394 13.3424 7.31764 14.0365C7.30817 14.0716 7.28741 14.1025 7.25856 14.1246C7.22972 14.1466 7.19441 14.1585 7.1581 14.1585C7.1365 14.1586 7.11508 14.1545 7.09513 14.1462C7.07517 14.1379 7.05707 14.1257 7.04192 14.1104L4.0906 11.157C3.95781 11.0242 3.86233 10.8588 3.81375 10.6774C3.76517 10.496 3.76521 10.305 3.81386 10.1236L4.23659 8.54578Z" fill="white"/>
</svg>
