<svg width="87" height="87" viewBox="0 0 87 87" fill="none" xmlns="http://www.w3.org/2000/svg">
<circle cx="43.5" cy="43.5" r="43.5" fill="#DBECFF"/>
<path d="M19.5436 63.5653H27.4512C27.5952 63.5653 27.7336 63.508 27.8356 63.406C27.9372 63.3041 27.9944 63.1657 27.9944 63.0216V46.7174C27.9944 46.5734 27.9372 46.435 27.8356 46.333C27.7336 46.2311 27.5952 46.1738 27.4512 46.1738H19.5436C19.2434 46.1738 19 46.4172 19 46.7175V63.0217C19 63.1657 19.0572 63.3041 19.1592 63.4061C19.2612 63.508 19.3996 63.5653 19.5436 63.5653ZM20.0873 47.2611H26.9076V62.4783H20.0873V47.2611Z" fill="#007AFF"/>
<path d="M31.4019 51.6084C31.1016 51.6084 30.8586 51.8518 30.8586 52.152V63.0215C30.8586 63.1656 30.9159 63.3039 31.0175 63.4059C31.1195 63.5079 31.2578 63.5651 31.4019 63.5651H39.3042C39.4482 63.5651 39.5866 63.5079 39.6882 63.4059C39.7902 63.3039 39.8474 63.1655 39.8474 63.0215V52.152C39.8474 52.008 39.7902 51.8696 39.6882 51.7676C39.5866 51.6656 39.4482 51.6084 39.3042 51.6084L31.4019 51.6084ZM38.7605 62.4779H31.9455V52.6953H38.7605V62.4779Z" fill="#007AFF"/>
<path d="M43.2605 38.022C42.9607 38.022 42.7173 38.2654 42.7173 38.5656V63.0219C42.7173 63.166 42.7745 63.3043 42.8765 63.4063C42.9781 63.5083 43.1165 63.5655 43.2605 63.5655H51.1628C51.3069 63.5655 51.4453 63.5083 51.5472 63.4063C51.6488 63.3043 51.7061 63.166 51.7061 63.0219V38.5656C51.7061 38.4215 51.6488 38.2832 51.5472 38.1812C51.4452 38.0792 51.3069 38.022 51.1628 38.022L43.2605 38.022ZM50.6192 62.4783H43.8041V39.1089H50.6192V62.4783Z" fill="#007AFF"/>
<path d="M55.1138 27.1528C54.8136 27.1528 54.5706 27.3962 54.5706 27.6965V63.0222C54.5706 63.1663 54.6278 63.3047 54.7294 63.4066C54.8314 63.5086 54.9697 63.5658 55.1138 63.5658H63.0213C63.1654 63.5658 63.3038 63.5086 63.4057 63.4066C63.5077 63.3046 63.5649 63.1663 63.5649 63.0222V27.6965C63.5649 27.5524 63.5077 27.414 63.4057 27.3121C63.3038 27.2101 63.1654 27.1528 63.0213 27.1528L55.1138 27.1528ZM62.4778 62.4786H55.6575V28.2398H62.4778V62.4786Z" fill="#007AFF"/>
<path d="M68.4564 19H65.739C65.4388 19 65.1954 19.2434 65.1954 19.5436V65.1954H19.5436C19.2434 65.1954 19 65.4388 19 65.739V68.4564C19 68.6004 19.0572 68.7388 19.1592 68.8408C19.2612 68.9428 19.3996 69 19.5436 69H68.4562C68.6003 69 68.7387 68.9428 68.8406 68.8408C68.9426 68.7388 68.9998 68.6004 68.9998 68.4564V19.5438C68.9998 19.3997 68.9426 19.2614 68.8406 19.1594C68.7386 19.0574 68.6003 19.0002 68.4562 19.0002L68.4564 19ZM67.9128 67.9126H20.0871V66.2825H65.7389C65.8829 66.2825 66.0213 66.2252 66.1233 66.1232C66.2252 66.0213 66.2825 65.8829 66.2825 65.7388V20.0871H67.913L67.9128 67.9126Z" fill="#007AFF"/>
<path d="M23.4945 36.2827C24.3414 36.283 25.1523 35.9422 25.7445 35.3368L32.489 39.9728C32.3017 40.3842 32.2035 40.8307 32.2013 41.2826C32.1994 42.3111 32.6994 43.2755 33.5406 43.8669C34.3822 44.4583 35.4593 44.602 36.4259 44.2521C37.393 43.9018 38.1284 43.1023 38.3965 42.1094C38.6645 41.1166 38.4314 40.0555 37.7717 39.2662L45.6305 29.9893C46.2708 30.3676 47.0244 30.5064 47.7572 30.3809C48.4904 30.2558 49.1549 29.8748 49.6333 29.3054C50.1117 28.736 50.3726 28.0154 50.3695 27.272C50.3673 27.0343 50.34 26.7973 50.288 26.5653L56.4294 23.9673L56.429 23.9677C56.9847 24.8195 57.9181 25.3507 58.9348 25.3928C59.9512 25.4349 60.9255 24.983 61.5494 24.1797C62.1738 23.3764 62.3713 22.321 62.0793 21.3463C61.7878 20.3717 61.0429 19.5983 60.0797 19.2704C59.1168 18.9421 58.0545 19.0998 57.2285 19.6934C56.4024 20.2871 55.9141 21.2436 55.9183 22.2611C55.9175 22.4991 55.9448 22.7361 55.9998 22.9677L54.0217 23.8047L49.8588 25.5603L49.8584 25.56C49.7647 25.4235 49.6631 25.2931 49.554 25.1687C49.0153 24.58 48.2734 24.2183 47.478 24.1561C46.6827 24.094 45.8934 24.3362 45.2697 24.834C44.6461 25.3317 44.2348 26.0478 44.1192 26.8371C44.1003 26.9812 44.0893 27.1264 44.0866 27.272C44.087 28.0093 44.3467 28.7231 44.8206 29.288L36.9346 38.5653C36.3303 38.2089 35.6236 38.0652 34.928 38.1581C34.2323 38.2506 33.5878 38.574 33.0977 39.0763L26.3586 34.4402C26.5485 34.0297 26.6467 33.5827 26.6467 33.1305C26.6467 32.2946 26.3146 31.4928 25.7236 30.9014C25.1322 30.3104 24.3308 29.9783 23.4945 29.9783C22.6586 29.9783 21.8568 30.3104 21.2658 30.9014C20.6744 31.4928 20.3423 32.2945 20.3423 33.1305C20.3423 33.9665 20.6744 34.7682 21.2658 35.3596C21.8568 35.9506 22.6586 36.2827 23.4945 36.2827ZM25.5598 33.1305C25.5598 33.6783 25.3422 34.2034 24.9548 34.5908C24.5677 34.9782 24.0423 35.1959 23.4945 35.1959C22.9467 35.1959 22.4216 34.9782 22.0342 34.5908C21.6471 34.2034 21.4295 33.6783 21.4295 33.1305C21.4295 32.5827 21.6471 32.0576 22.0342 31.6702C22.4216 31.2828 22.9467 31.0652 23.4945 31.0652C24.0423 31.0652 24.5677 31.2828 24.9548 31.6702C25.3422 32.0577 25.5598 32.5827 25.5598 33.1305ZM35.3423 39.2173C35.8901 39.2173 36.4152 39.4349 36.8026 39.8224C37.1897 40.2098 37.4073 40.7348 37.4073 41.2827C37.4073 41.8305 37.1897 42.3555 36.8026 42.7429C36.4152 43.1304 35.8901 43.348 35.3423 43.348C34.7945 43.348 34.2691 43.1304 33.882 42.7429C33.4946 42.3555 33.277 41.8305 33.277 41.2827C33.277 40.733 33.4961 40.206 33.8858 39.8186C34.2755 39.4308 34.8036 39.2147 35.3529 39.2173L35.3423 39.2173ZM47.2114 25.2064C47.7588 25.2064 48.2843 25.424 48.6717 25.8114C49.0588 26.1985 49.2764 26.7239 49.2764 27.2717C49.2764 27.8195 49.0588 28.3446 48.6717 28.732C48.2843 29.1194 47.7588 29.3367 47.2114 29.3367C46.6636 29.3367 46.1381 29.1194 45.7507 28.732C45.3637 28.3446 45.1461 27.8195 45.1461 27.2717C45.1461 26.7239 45.3637 26.1985 45.7507 25.8114C46.1382 25.424 46.6636 25.2064 47.2114 25.2064ZM56.9939 22.2608H56.9935C56.9935 21.713 57.2111 21.1879 57.5986 20.8005C57.986 20.413 58.5111 20.1954 59.0589 20.1954C59.6067 20.1954 60.1321 20.413 60.5192 20.8005C60.9066 21.1879 61.1242 21.7129 61.1242 22.2608C61.1242 22.8086 60.9066 23.3336 60.5192 23.7211C60.1321 24.1085 59.6067 24.3261 59.0589 24.3261C58.513 24.3231 57.9906 24.1043 57.6054 23.7173C57.2206 23.3302 57.0045 22.8067 57.0045 22.2608H56.9939Z" fill="#007AFF"/>
</svg>
