<svg width="512" height="512" viewBox="0 0 512 512" fill="none" xmlns="http://www.w3.org/2000/svg">
<path d="M494.453 123.365L484.951 214.93C483.851 224.982 471.523 229.301 464.454 222.233L441.995 199.774L300.563 341.205C291.689 350.079 276.062 350.079 267.188 341.205L189.287 263.304L57.6717 394.998C53.1168 399.553 47.0704 401.909 41.0234 401.909C34.9765 401.909 28.9301 399.553 24.3752 394.998C15.1874 385.81 15.1874 370.89 24.3752 361.623L172.639 213.36C181.513 204.486 197.14 204.486 205.935 213.36L283.915 291.261L408.699 166.477L382.391 140.17C375.245 133.024 379.564 120.695 389.616 119.674L481.182 110.172C488.799 109.308 495.239 115.747 494.453 123.365Z" fill="#41BF4E"/>
</svg>
