<svg width="512" height="512" viewBox="0 0 512 512" fill="none" xmlns="http://www.w3.org/2000/svg">
<path d="M368.213 152.324C359.893 149.124 350.72 153.39 347.733 161.71C344.747 170.03 348.8 179.204 357.12 182.19C403.413 199.47 432 227.63 432 256.004C432 305.07 351.36 346.67 256 346.67C160.64 346.67 80 305.07 80 256.004C80 213.764 139.307 177.497 216.32 167.897L180.693 203.524C174.507 209.71 174.507 219.95 180.693 226.137C183.893 229.337 187.947 230.83 192 230.83C196.053 230.83 200.107 229.337 203.307 226.137L278.827 150.617C281.813 147.63 283.52 143.577 283.52 139.31C283.52 135.044 281.813 130.99 278.827 128.004L203.307 52.4838C197.12 46.2971 186.88 46.2971 180.693 52.4838C174.507 58.6704 174.507 68.9104 180.693 75.0971L239.147 133.55C130.773 138.457 48 190.297 48 255.79C48 324.484 139.307 378.457 256 378.457C372.693 378.457 464 324.484 464 255.79C464 213.124 428.16 174.297 368.213 152.11V152.324Z" fill="#00CFFD"/>
</svg>
