<svg width="512" height="512" viewBox="0 0 512 512" fill="none" xmlns="http://www.w3.org/2000/svg">
<g clip-path="url(#clip0_1529_202)">
<path d="M451.247 354.559C532.248 273.556 532.247 141.755 451.247 60.752C370.245 -20.2507 238.445 -20.2507 157.444 60.752C88.7239 129.472 78.3163 231.675 126.193 311.485C126.193 311.485 129.632 317.255 124.987 321.896C98.4898 348.392 18.9931 427.89 18.9931 427.89C-2.10409 448.986 -7.12644 478.485 11.5825 497.197L14.8037 500.415C33.5126 519.127 63.0134 514.107 84.1089 493.009C84.1089 493.009 163.437 413.679 189.88 387.238C194.748 382.371 200.515 385.81 200.515 385.81C280.324 433.685 382.528 423.279 451.247 354.559ZM195.798 316.203C135.946 256.35 135.947 158.964 195.8 99.1115C255.652 39.2606 353.038 39.2589 412.889 99.1115C472.742 158.963 472.742 256.35 412.889 316.203C353.037 376.052 255.652 376.052 195.798 316.203Z" fill="#58985F"/>
<path d="M209.056 195.323C206.27 195.323 203.438 194.776 200.708 193.623C189.804 189.008 184.703 176.427 189.318 165.521C218.324 96.9743 297.687 64.8065 366.232 93.8124C377.136 98.4274 382.237 111.009 377.622 121.915C373.006 132.82 360.428 137.918 349.519 133.305C302.752 113.516 248.6 135.464 228.812 182.231C225.35 190.41 217.41 195.323 209.056 195.323Z" fill="#58985F"/>
</g>
<defs>
<clipPath id="clip0_1529_202">
<rect width="512" height="512" fill="white"/>
</clipPath>
</defs>
</svg>
