<svg width="512" height="512" viewBox="0 0 512 512" fill="none" xmlns="http://www.w3.org/2000/svg">
<g clip-path="url(#clip0_1498_390)">
<path d="M511.655 432.867C511.522 432.317 511.326 431.782 511.08 431.27C511.026 431.083 510.963 430.895 510.885 430.716L492.584 400.226C489.495 395.11 483.953 391.981 477.978 391.981C472.003 391.981 466.461 395.11 463.372 400.226L452.386 418.523L441.396 400.226C438.306 395.11 432.765 391.981 426.789 391.981C420.814 391.981 415.272 395.11 412.183 400.226L401.193 418.523L390.207 400.226C387.118 395.11 381.576 391.981 375.601 391.981C369.625 391.981 364.083 395.11 360.994 400.226L350.004 418.523L339.018 400.226C335.925 395.11 330.387 391.981 324.412 391.981C318.433 391.981 312.895 395.11 309.806 400.226L298.816 418.523L287.826 400.226C284.737 395.11 279.199 391.981 273.219 391.981C267.244 391.981 261.706 395.11 258.613 400.226L247.627 418.523L236.637 400.226C233.548 395.11 228.006 391.981 222.031 391.981C216.056 391.981 210.514 395.11 207.424 400.226L191.607 426.58H113.807C109.285 417.07 102.337 408.915 93.6668 402.936C93.8738 402.303 94.0066 401.647 94.0574 400.983V320.496L120.411 304.679C125.527 301.59 128.656 296.048 128.656 290.073C128.656 284.097 125.527 278.556 120.411 275.466L102.11 264.48L120.411 253.491C125.527 250.401 128.656 244.859 128.656 238.884C128.656 232.909 125.527 227.367 120.411 224.278L102.11 213.288L120.411 202.302C125.527 199.213 128.656 193.671 128.656 187.696C128.656 181.72 125.527 176.178 120.411 173.089L102.11 162.099L120.411 151.109C125.527 148.02 128.656 142.482 128.656 136.507C128.656 130.528 125.527 124.99 120.411 121.901L102.11 110.911L120.411 99.9207C125.527 96.8315 128.656 91.2936 128.656 85.3144C128.656 79.3391 125.527 73.7972 120.411 70.708L102.11 59.722L120.411 48.7321C125.527 45.6429 128.656 40.1011 128.656 34.1258C128.656 28.1504 125.527 22.6086 120.411 19.5194L89.9215 1.2185C89.7379 1.14429 89.5544 1.0779 89.3669 1.02323C88.8592 0.781088 88.332 0.589722 87.7891 0.453031C87.2306 0.281192 86.6604 0.167934 86.0824 0.109352C85.8833 0.101541 85.7231 0 85.5279 0H51.4021C37.2644 0 25.8058 11.4586 25.8058 25.5963V364.015C25.8098 367.709 27.0087 371.298 29.2192 374.255L44.4465 394.567C17.2998 401.804 -1.13389 426.986 0.170525 455.054C1.47885 483.119 22.1738 506.477 49.879 511.16C77.5803 515.843 104.801 500.58 115.26 474.499L137.849 491.418C140.809 493.628 144.398 494.823 148.089 494.831H486.511C500.645 494.831 512.104 483.373 512.104 469.235V435.109C512.104 434.906 512.002 434.734 511.994 434.539C511.936 433.973 511.819 433.41 511.655 432.867ZM488.507 426.58H467.433L477.978 408.994L488.507 426.58ZM437.318 426.58H416.245L426.789 408.994L437.318 426.58ZM386.126 426.58H365.056L375.601 408.994L386.126 426.58ZM334.937 426.58H313.867L324.412 408.994L334.937 426.58ZM283.749 426.58H262.675L273.219 408.994L283.749 426.58ZM222.031 408.994L232.56 426.58H211.486L222.031 408.994ZM94.0574 300.645V279.571L111.644 290.073L94.0574 300.645ZM94.0574 249.456V228.382L111.644 238.884L94.0574 249.456ZM94.0574 198.264V177.194L111.644 187.696L94.0574 198.264ZM94.0574 147.075V126.001L111.644 136.507L94.0574 147.075ZM94.0574 95.8864V74.7697L111.644 85.3144L94.0574 95.8864ZM94.0574 44.6978V23.5811L111.644 34.1258L94.0574 44.6978ZM42.8687 25.5963C42.8687 20.8824 46.6882 17.0629 51.4021 17.0629H76.9945V392.454H64.1963L42.8687 364.015V25.5963ZM59.9316 494.831C36.374 494.831 17.2725 475.734 17.2725 452.172C17.2725 428.614 36.374 409.517 59.9316 409.517C83.4892 409.517 102.591 428.614 102.591 452.172C102.559 475.722 83.4775 494.804 59.9316 494.831ZM495.041 469.235C495.041 473.949 491.221 477.768 486.511 477.768H148.097L119.654 456.441V443.643H495.041V469.235Z" fill="#333333"/>
<path d="M59.9322 426.578C45.7984 426.578 34.3359 438.037 34.3359 452.17C34.3359 466.308 45.7984 477.767 59.9322 477.767C74.0699 477.767 85.5285 466.308 85.5285 452.17C85.5285 438.037 74.0699 426.578 59.9322 426.578ZM59.9322 460.704C55.2222 460.704 51.4027 456.884 51.4027 452.17C51.4027 447.461 55.2222 443.641 59.9322 443.641C64.6461 443.641 68.4656 447.461 68.4656 452.17C68.4656 456.884 64.6461 460.704 59.9322 460.704Z" fill="#333333"/>
<path d="M323.504 298.566C313.521 276.818 299.849 256.525 282.952 238.378C303.76 229.206 332.59 224.549 339.977 202.1C352.128 202.185 364.281 202.191 376.379 201.755C381.31 201.603 385.167 197.964 384.994 193.628C384.83 189.506 381.068 186.198 376.379 186.053C364.443 185.693 352.457 185.763 340.473 185.916C338.773 178.74 334.635 172.187 328.605 167.124C343.337 166.883 358.076 166.59 372.731 165.725C377.984 165.561 382.09 161.683 381.903 157.065C381.725 152.677 377.721 149.157 372.731 149C343.391 149.203 313.997 151.21 284.676 152.218C266.427 153.22 247.047 152.11 229.356 156.587C226.099 157.469 224.272 160.504 225.275 163.368C225.877 165.084 227.404 166.427 229.356 166.956C252.484 170.963 276.641 167.311 300.09 167.661C311.277 169.902 320.523 176.791 324.873 186.126C308.996 186.448 293.118 186.091 277.252 186.561C267.059 186.894 254.929 185.731 245.845 190.449C243.438 191.732 242.671 194.489 244.13 196.605C244.556 197.221 245.144 197.738 245.845 198.112C254.673 202.626 266.129 201.534 275.998 201.797C291.753 202.193 307.513 201.775 323.275 201.979C311.164 218.984 283.768 217.403 267.595 229.639C260.114 237.686 270.544 246.358 275.625 253.047C279.664 258.425 283.654 263.82 287.316 269.404C294.374 280.133 300.406 291.359 305.348 302.967C306.846 307.296 311.934 309.836 316.93 308.749C321.921 307.509 324.852 302.97 323.504 298.566Z" fill="#333333"/>
</g>
<defs>
<clipPath id="clip0_1498_390">
<rect width="512" height="512" fill="white"/>
</clipPath>
</defs>
</svg>
