<svg width="1000" height="865" viewBox="0 0 1000 865" fill="none" xmlns="http://www.w3.org/2000/svg">
<path d="M918.1 651.59C917.926 651.802 916.494 650.932 914.908 649.655C913.322 648.378 912.161 647.159 912.335 646.947C912.509 646.734 913.941 647.585 915.527 648.881C917.113 650.177 918.332 651.377 918.1 651.59Z" fill="#263238"/>
<path d="M961.686 586.553C961.937 580.479 962.111 574.25 960.196 568.465C958.281 562.681 953.831 557.399 947.873 556.161C941.063 554.749 934.099 559.044 930.307 564.848C926.515 570.651 925.18 577.693 924.058 584.541C916.299 631.789 913.44 679.711 915.527 727.545L943.346 731.415C955.553 681.522 959.461 637.897 961.686 586.553Z" fill="#667E89"/>
<path d="M944.004 555.947C943.991 556.101 943.952 556.251 943.888 556.392C943.753 556.721 943.617 557.147 943.424 557.65C942.979 558.83 942.36 560.435 941.489 562.447C941.102 563.492 940.58 564.633 940.174 565.93C939.767 567.226 939.303 568.638 938.819 570.147C938.336 571.656 937.813 573.262 937.272 574.983C936.73 576.705 936.324 578.562 935.821 580.497C933.506 589.562 931.716 598.754 930.462 608.026C928.953 618.492 927.966 630.08 927.193 642.249C925.761 666.624 925.548 688.678 924.91 704.735C924.62 712.745 924.349 719.206 924.039 723.675C923.885 725.842 923.768 727.544 923.691 728.821C923.691 729.363 923.691 729.788 923.575 730.156C923.595 730.31 923.595 730.466 923.575 730.62C923.556 730.466 923.556 730.31 923.575 730.156V728.802C923.575 727.544 923.575 725.822 923.73 723.656C923.923 719.187 924.078 712.706 924.291 704.716C924.736 688.717 924.852 666.605 926.225 642.191C927.019 629.983 928.025 618.376 929.592 607.891C930.893 598.596 932.76 589.39 935.182 580.323C935.724 578.388 936.227 576.454 936.691 574.79C937.156 573.126 937.814 571.482 938.336 569.973C938.858 568.464 939.322 567.071 939.767 565.775C940.212 564.479 940.754 563.357 941.18 562.312C942.031 560.377 942.708 558.733 943.114 557.572L943.675 556.353C943.927 556.063 943.985 555.928 944.004 555.947Z" fill="#263238"/>
<path d="M946.577 555.969C948.042 557.69 949.195 559.654 949.982 561.772C952.112 567.517 952.976 573.654 952.516 579.764C951.781 595.241 950.407 616.328 948.647 639.736C946.886 663.144 944.778 684.231 943.133 699.553C942.321 707.195 941.605 713.385 941.083 717.641C940.812 719.711 940.599 721.336 940.444 722.555C940.444 723.058 940.309 723.484 940.251 723.832C940.276 723.973 940.276 724.117 940.251 724.258C940.226 724.11 940.226 723.96 940.251 723.813C940.251 723.464 940.251 723.039 940.251 722.536C940.367 721.317 940.502 719.673 940.696 717.603C941.121 713.23 941.702 707.059 942.437 699.495C943.888 684.192 945.822 663.048 947.66 639.658C949.498 616.269 950.988 595.163 951.897 579.783C952.406 573.751 951.661 567.678 949.711 561.947C948.859 559.859 947.809 557.857 946.577 555.969Z" fill="#263238"/>
<path d="M965.865 627.891C962.276 627.289 958.823 626.05 955.669 624.234C959.264 624.813 962.721 626.053 965.865 627.891V627.891Z" fill="#263238"/>
<path d="M969.231 599.609C967.714 600.8 966.016 601.741 964.201 602.395C962.518 603.341 960.686 603.995 958.784 604.33C961.967 602.177 965.503 600.599 969.231 599.667V599.609Z" fill="#263238"/>
<path d="M967.49 576.455C966.143 576.869 964.713 576.942 963.331 576.668C961.935 576.73 960.543 576.465 959.268 575.894C962.014 575.42 964.834 575.613 967.49 576.455V576.455Z" fill="#263238"/>
<path d="M938.78 561.634C938.548 561.789 937.33 560.261 936.053 558.249C934.776 556.237 933.944 554.476 934.118 554.38C934.292 554.283 935.569 555.753 936.846 557.784C937.762 558.912 938.422 560.226 938.78 561.634Z" fill="#263238"/>
<path d="M929.301 575.657C928.063 576.099 926.737 576.245 925.432 576.082C924.115 576.192 922.79 575.993 921.563 575.502C921.563 575.212 923.343 575.037 925.432 575.076C926.749 574.967 928.074 575.165 929.301 575.657V575.657Z" fill="#263238"/>
<path d="M922.491 603.614C922.375 603.885 920.557 603.362 918.332 602.473C916.107 601.583 914.463 600.673 914.463 600.422C915.918 600.484 917.339 600.875 918.622 601.563C920.886 602.453 922.588 603.362 922.491 603.614Z" fill="#263238"/>
<path d="M921.756 627.159C921.756 627.43 920.228 627.991 918.216 628.416C916.204 628.842 914.521 628.958 914.482 628.687C914.443 628.416 916.01 627.855 918.022 627.449C920.034 627.043 921.698 626.888 921.756 627.159Z" fill="#263238"/>
<path d="M918.545 665.676C918.545 665.947 916.92 666.469 914.792 666.856C912.664 667.243 910.923 667.32 910.923 667.049C910.923 666.779 912.548 666.256 914.676 665.869C916.804 665.483 918.506 665.405 918.545 665.676Z" fill="#263238"/>
<path d="M916.417 686.94C916.552 687.172 915.14 688.178 913.283 689.165C911.426 690.152 909.82 690.732 909.685 690.5C909.549 690.268 910.962 689.262 912.819 688.275C914.676 687.288 916.301 686.689 916.417 686.94Z" fill="#263238"/>
<path d="M933.79 711.083C933.538 711.218 932.319 709.535 931.042 707.311C930.109 706.042 929.45 704.592 929.108 703.055C929.34 702.919 930.559 704.602 931.836 706.924C932.767 708.16 933.433 709.576 933.79 711.083V711.083Z" fill="#263238"/>
<path d="M938.8 670.956C938.974 671.169 937.62 672.891 935.743 674.632C933.867 676.373 932.203 677.805 932.009 677.611C931.816 677.418 933.189 675.773 935.047 673.935C936.904 672.097 938.606 670.763 938.8 670.956Z" fill="#263238"/>
<path d="M937.678 649.929C937.485 650.123 936.227 649.078 934.853 647.608C933.48 646.138 932.571 644.803 932.764 644.629C932.958 644.455 934.234 645.48 935.589 646.931C936.943 648.382 937.891 649.736 937.678 649.929Z" fill="#263238"/>
<path d="M941.121 623.039C941.334 623.232 940.193 624.838 938.587 626.618C936.981 628.398 935.511 629.713 935.318 629.539C935.124 629.365 936.246 627.74 937.852 625.96C939.458 624.18 940.928 622.865 941.121 623.039Z" fill="#263238"/>
<path d="M943.056 603.538C942.863 603.731 941.296 602.493 939.535 600.752C937.775 599.011 936.498 597.463 936.691 597.27C936.885 597.076 938.471 598.315 940.232 600.056C941.992 601.797 943.25 603.344 943.056 603.538Z" fill="#263238"/>
<path d="M946.867 577.172C946.562 578.576 945.955 579.896 945.087 581.041C943.888 583.072 942.708 584.62 942.476 584.485C942.244 584.349 943.017 582.55 944.236 580.615C945.455 578.681 946.635 577.036 946.867 577.172Z" fill="#263238"/>
<path d="M954.044 552.735C953.808 554.126 953.266 555.447 952.458 556.604C951.355 558.655 950.253 560.202 950.021 560.086C950.241 558.664 950.777 557.309 951.588 556.12C952.71 554.147 953.793 552.599 954.044 552.735Z" fill="#263238"/>
<path d="M962.17 563.819C962.286 564.071 961.164 564.845 959.674 565.56C958.184 566.276 956.888 566.663 956.772 566.412C956.656 566.16 957.759 565.386 959.248 564.671C960.738 563.955 962.054 563.587 962.17 563.819Z" fill="#263238"/>
<path d="M962.363 651.591C960.47 651.609 958.602 651.157 956.927 650.276C955.123 649.686 953.499 648.647 952.207 647.258C953.974 647.793 955.684 648.499 957.314 649.366C959.066 649.939 960.758 650.684 962.363 651.591V651.591Z" fill="#263238"/>
<path d="M959.035 670.181C959.035 670.452 957.41 670.993 955.302 671.4C953.193 671.806 951.433 671.922 951.433 671.651C951.433 671.38 953.038 670.839 955.166 670.432C956.417 670.037 957.744 669.95 959.035 670.181V670.181Z" fill="#263238"/>
<path d="M954.953 702.065C953.242 701.208 951.782 699.922 950.717 698.331C949.41 696.937 948.496 695.221 948.066 693.359C949.325 694.715 950.47 696.17 951.491 697.712C952.774 699.055 953.933 700.512 954.953 702.065Z" fill="#263238"/>
<path d="M910.246 716.635C910.072 716.422 911.194 715.165 912.761 713.83C914.328 712.495 915.759 711.566 915.933 711.76C916.108 711.953 914.986 713.23 913.419 714.584C911.852 715.939 910.362 716.886 910.246 716.635Z" fill="#263238"/>
<path d="M897.381 647.065C895.582 641.416 892.177 634.82 886.238 634.742C884.477 634.841 882.774 635.41 881.308 636.39C879.842 637.369 878.665 638.725 877.9 640.314C876.278 643.474 875.498 646.998 875.636 650.548C876.369 675.725 880.668 700.671 888.404 724.642H910.11C909.866 698.284 905.573 672.12 897.381 647.065Z" fill="#667E89"/>
<path d="M858.128 611.486C855.091 599.337 846.037 592.779 835.513 592.141C825.84 593.824 822.203 603.284 821.062 612.957C819.92 622.63 822.996 632.302 825.879 641.569C835.41 671.362 844.941 701.167 854.472 730.985L881.556 728.025C872.928 688.115 868.014 651.107 858.128 611.486Z" fill="#667E89"/>
<path d="M886.238 634.742C885.545 635.718 884.931 636.746 884.4 637.818C883.285 640.913 882.939 644.233 883.394 647.491C883.8 651.612 884.284 656.584 884.98 662.039C885.677 667.495 886.663 673.472 887.882 679.702C890.339 692.18 893.105 703.381 894.866 711.545C895.756 715.627 896.433 718.935 896.8 721.218C896.994 722.262 897.149 723.152 897.265 723.868C897.299 724.177 897.299 724.488 897.265 724.797C897.126 724.515 897.028 724.216 896.975 723.907L896.336 721.295L894.034 711.622C892.099 703.516 889.236 692.276 886.779 679.818C885.541 673.569 884.593 667.572 883.936 662.078C883.587 659.331 883.355 656.719 883.123 654.339C882.891 651.96 882.659 649.638 882.543 647.53C882.163 644.197 882.635 640.822 883.916 637.721C884.465 636.572 885.257 635.555 886.238 634.742Z" fill="#263238"/>
<path d="M835.881 591.406C834.685 592.777 833.599 594.239 832.63 595.778C830.139 600.092 828.725 604.943 828.51 609.92C828.38 617.338 829.512 624.723 831.857 631.761C834.236 639.79 836.828 648.612 839.595 657.878L853.388 705.275C855.091 711.311 856.484 716.206 857.47 719.727L858.534 723.596C858.681 724.049 858.785 724.516 858.844 724.989C858.624 724.565 858.455 724.117 858.341 723.654L857.103 719.785C856.039 716.302 854.549 711.427 852.711 705.449L838.608 657.994C835.9 648.708 833.327 639.887 830.967 631.839C828.65 624.725 827.583 617.263 827.813 609.785C828.083 604.718 829.627 599.8 832.302 595.488C833.264 593.942 834.473 592.563 835.881 591.406V591.406Z" fill="#263238"/>
<path d="M875.539 725.167C875.305 724.752 875.104 724.319 874.94 723.871C874.572 723.001 874.011 721.743 873.392 720.002C872.115 716.674 870.452 711.78 868.749 705.647C867.047 699.515 865.344 692.105 863.719 683.845C862.094 675.584 860.43 666.434 858.631 656.973C856.832 647.513 854.646 638.46 852.228 630.431C850.126 623.306 847.494 616.348 844.354 609.615C842.223 605.077 839.786 600.688 837.061 596.479C836.132 594.97 835.3 593.887 834.797 593.094C834.511 592.707 834.252 592.299 834.023 591.875C834.374 592.206 834.686 592.576 834.952 592.978C835.513 593.732 836.403 594.777 837.39 596.266C840.248 600.412 842.783 604.771 844.973 609.306C848.232 616.03 850.949 623.004 853.098 630.16C855.743 638.958 857.926 647.889 859.637 656.915C861.417 666.453 863.1 675.526 864.648 683.806C866.195 692.086 867.84 699.457 869.465 705.589C871.09 711.722 872.618 716.636 873.798 720.002C874.359 721.685 874.862 722.962 875.153 723.871C875.323 724.29 875.452 724.724 875.539 725.167V725.167Z" fill="#263238"/>
<path d="M826.343 637.121C826.343 637.392 824.95 637.972 823.073 638.417C821.197 638.862 819.61 639.036 819.552 638.766C819.494 638.495 820.965 637.914 822.841 637.469C824.718 637.025 826.285 636.85 826.343 637.121Z" fill="#263238"/>
<path d="M823.48 618.688C820.466 619.217 817.394 619.334 814.349 619.037C815.769 618.376 817.332 618.084 818.895 618.185C820.441 617.954 822.021 618.128 823.48 618.688V618.688Z" fill="#263238"/>
<path d="M826.537 601.837C826.363 602.05 824.892 601.102 823.248 599.709C821.603 598.316 820.443 597.04 820.617 596.827C820.791 596.614 822.261 597.562 823.906 598.955C825.55 600.348 826.711 601.624 826.537 601.837Z" fill="#263238"/>
<path d="M834.778 586.244C835.048 586.244 834.971 587.618 834.932 589.204C834.894 590.79 834.932 592.106 834.604 592.164C834.275 592.222 833.888 590.887 833.946 589.185C834.004 587.482 834.507 586.186 834.778 586.244Z" fill="#263238"/>
<path d="M851.628 593.593C851.841 593.748 851.183 595.083 850.138 596.572C849.094 598.062 848.088 599.126 847.856 598.971C847.624 598.816 848.281 597.482 849.326 595.992C850.371 594.502 851.396 593.438 851.628 593.593Z" fill="#263238"/>
<path d="M862.539 612.572C862.655 612.842 861.262 613.636 859.424 614.39C857.586 615.145 856.019 615.531 855.923 615.28C855.826 615.028 857.219 614.216 859.057 613.461C860.895 612.707 862.442 612.417 862.539 612.572Z" fill="#263238"/>
<path d="M869.174 632.109C866.56 633.912 863.353 634.639 860.217 634.141C863.169 633.321 866.158 632.643 869.174 632.109V632.109Z" fill="#263238"/>
<path d="M838.782 626.558C838.512 626.558 838.782 625.126 839.189 623.559C839.595 621.992 840.311 620.754 840.562 620.832C840.814 620.909 840.562 622.263 840.137 623.849C839.711 625.436 838.995 626.655 838.782 626.558Z" fill="#263238"/>
<path d="M842.98 651.108C843.071 649.678 843.488 648.288 844.199 647.045C845.128 644.917 846.134 643.273 846.347 643.389C846.248 644.819 845.824 646.209 845.109 647.451C844.18 649.56 843.232 651.204 842.98 651.108Z" fill="#263238"/>
<path d="M832.495 657.803C832.379 658.074 830.676 657.61 828.626 656.952C826.575 656.294 824.873 655.714 824.931 655.443C824.989 655.172 826.865 655.346 828.916 656.004C830.967 656.662 832.592 657.571 832.495 657.803Z" fill="#263238"/>
<path d="M838.531 677.803C838.705 678.035 837.544 679.138 835.958 680.26C834.371 681.382 832.959 682.195 832.785 681.904C832.611 681.614 833.791 680.589 835.377 679.447C836.964 678.306 838.376 677.59 838.531 677.803Z" fill="#263238"/>
<path d="M843.387 697.749C843.387 698.02 842.013 698.581 840.194 699.026C838.376 699.471 836.828 699.625 836.751 699.355C836.674 699.084 838.125 698.523 839.962 698.078C841.8 697.633 843.329 697.536 843.387 697.749Z" fill="#263238"/>
<path d="M869.736 648.77C869.871 649.002 868.652 649.989 866.872 650.704C865.093 651.42 863.526 651.459 863.468 651.188C863.41 650.917 864.822 650.414 866.505 649.776C868.188 649.137 869.581 648.538 869.736 648.77Z" fill="#263238"/>
<path d="M873.469 679.797C873.353 680.049 871.902 679.604 870.219 678.811C868.536 678.017 867.259 677.166 867.375 676.876C867.492 676.586 868.962 677.05 870.645 677.843C872.328 678.637 873.605 679.546 873.469 679.797Z" fill="#263238"/>
<path d="M880.124 701.989C878.62 701.928 877.147 701.539 875.81 700.847C873.527 699.957 871.767 699.009 871.941 698.758C873.439 698.834 874.903 699.229 876.236 699.919C877.665 700.323 878.991 701.028 880.124 701.989Z" fill="#263238"/>
<path d="M844.451 719.381C844.315 719.129 846.095 717.949 848.146 716.324C849.314 715.216 850.614 714.255 852.015 713.461C852.228 713.635 850.931 715.395 848.784 717.098C847.58 718.247 846.079 719.037 844.451 719.381V719.381Z" fill="#263238"/>
<path d="M861.997 708.1C861.727 708.1 861.34 706.63 860.663 704.908C859.985 703.186 859.289 701.793 859.502 701.639C859.715 701.484 860.875 702.664 861.591 704.54C862.307 706.417 862.268 708.081 861.997 708.1Z" fill="#263238"/>
<path d="M857.354 681.401C857.2 681.613 856.058 681.072 854.82 680.182C853.582 679.292 852.711 678.402 852.885 678.247C853.06 678.093 854.182 678.576 855.42 679.466C856.658 680.356 857.509 681.169 857.354 681.401Z" fill="#263238"/>
<path d="M898.27 639.498C898.425 639.711 897.322 640.814 895.794 641.936C894.266 643.058 892.912 643.871 892.738 643.58C892.563 643.29 893.685 642.265 895.214 641.143C896.742 640.021 898.096 639.344 898.27 639.498Z" fill="#263238"/>
<path d="M904.422 656.406C904.422 656.677 902.72 657.045 900.553 656.812C898.387 656.58 896.8 655.864 896.878 655.613C896.955 655.361 898.619 655.613 900.747 655.826C902.875 656.039 904.403 656.135 904.422 656.406Z" fill="#263238"/>
<path d="M877.919 660.203C877.919 660.455 876.39 661.035 874.32 661.17C872.25 661.306 870.587 660.958 870.606 660.687C870.625 660.416 872.27 660.319 874.243 660.184C876.216 660.048 877.861 659.932 877.919 660.203Z" fill="#263238"/>
<path d="M880.202 644.256C880.202 644.527 878.557 644.566 876.797 643.753C875.036 642.941 873.992 641.683 874.185 641.49C874.378 641.296 875.597 642.109 877.203 642.844C878.809 643.579 880.24 643.966 880.202 644.256Z" fill="#263238"/>
<path d="M906.705 674.515C906.551 674.747 904.906 673.973 903.01 672.773C901.114 671.574 899.683 670.413 899.838 670.181C899.992 669.949 901.637 670.742 903.533 671.922C905.429 673.102 906.86 674.321 906.705 674.515Z" fill="#263238"/>
<path d="M971.378 721.82H829.98V746.892H971.378V721.82Z" fill="#252B34"/>
<path d="M840.523 741.914L857.722 816.801H942.011L960.815 741.914H840.523Z" fill="#252B34"/>
<path d="M971.301 746.909C971.301 747.18 939.4 747.412 900.07 747.412C860.74 747.412 828.819 747.18 828.819 746.909C828.819 746.638 860.721 746.406 900.07 746.406C939.419 746.406 971.301 746.638 971.301 746.909Z" fill="#263238"/>
<path d="M892.66 660.782C892.428 660.937 891.461 659.796 890.494 658.267C889.526 656.739 888.946 655.365 889.178 655.23C889.41 655.095 890.377 656.197 891.345 657.745C892.312 659.293 892.95 660.608 892.66 660.782Z" fill="#263238"/>
<path d="M892.719 680.897C892.448 680.897 892.719 679.117 893.454 677.028C894.189 674.939 894.866 673.449 895.137 673.526C895.213 674.857 894.96 676.186 894.402 677.395C893.724 679.427 892.951 680.994 892.719 680.897Z" fill="#263238"/>
<path d="M899.606 702.081C898.554 700.972 897.75 699.653 897.245 698.212C896.461 696.935 895.966 695.502 895.794 694.013C896.046 693.897 897.091 695.581 898.155 697.786C898.951 699.092 899.447 700.559 899.606 702.081Z" fill="#263238"/>
<path d="M884.67 719.106C884.477 718.932 885.309 717.617 886.605 716.185C887.901 714.753 889.023 713.728 889.236 713.902C889.449 714.076 888.598 715.392 887.302 716.823C886.005 718.255 884.883 719.28 884.67 719.106Z" fill="#263238"/>
<path d="M881.537 688.194C881.537 688.465 880.144 688.446 878.499 688.194C876.855 687.943 875.597 687.459 875.636 687.188C875.675 686.917 877.048 686.937 878.673 687.188C880.298 687.44 881.595 687.865 881.537 688.194Z" fill="#263238"/>
<path d="M851.276 542.955H873.466C873.466 542.955 824.792 200.284 827.52 103.594L824.076 542.955H851.276Z" fill="#E0E0E0"/>
<path d="M747.157 0.494433C747.157 0.494433 830.093 -4.53546 827.868 87.2022C821.445 352.82 852.688 552.623 852.688 552.623H541.976V9.9932L747.157 0.494433Z" fill="#EBEBEB"/>
<path d="M534.238 695.413L749.808 695.277C762.257 695.272 774.195 690.323 782.996 681.519C791.797 672.714 796.741 660.774 796.741 648.325L796.625 107.882C796.627 101.706 795.411 95.5896 793.045 89.8844C790.679 84.1791 787.21 78.997 782.837 74.635C778.465 70.2731 773.274 66.8172 767.563 64.4653C761.852 62.1135 755.733 60.9121 749.556 60.9299L533.987 61.0653C527.821 61.0628 521.715 62.2756 516.019 64.6345C510.322 66.9934 505.146 70.4521 500.788 74.8128C496.429 79.1734 492.972 84.3506 490.616 90.0481C488.259 95.7456 487.049 101.852 487.054 108.017L487.15 648.461C487.15 654.638 488.369 660.755 490.737 666.46C493.105 672.165 496.576 677.347 500.95 681.709C505.325 686.071 510.517 689.526 516.229 691.878C521.941 694.229 528.061 695.431 534.238 695.413V695.413Z" fill="#667E89"/>
<path d="M534.238 80.1797H576.044H698.097H749.382C758.105 80.1797 766.47 83.6446 772.637 89.8123C778.805 95.98 782.27 104.345 782.27 113.067L782.367 640.568C782.367 649.291 778.902 657.656 772.734 663.824C766.566 669.991 758.201 673.456 749.479 673.456L534.335 673.592C525.612 673.592 517.247 670.127 511.079 663.959C504.912 657.791 501.447 649.426 501.447 640.704L501.35 113.067C501.35 104.345 504.815 95.98 510.983 89.8123C517.15 83.6446 525.516 80.1797 534.238 80.1797Z" fill="#EBEBEB"/>
<path d="M561.322 0.4375L767.625 2.37208C737.368 0.959836 730.907 12.9929 725.935 20.6151C716.475 35.2212 717.423 51.8972 728.237 65.5554C734.532 72.9924 743.169 78.0679 752.729 79.9486H526.674C513.518 67.045 510.771 53.2901 512.725 40.9088C516.44 17.4424 537.391 0.4375 561.322 0.4375Z" fill="#EBEBEB"/>
<path d="M790.55 11.2695C790.084 11.0538 789.643 10.7878 789.235 10.4764C788.037 9.66438 786.79 8.92781 785.501 8.27096C780.7 5.89533 775.556 4.28937 770.256 3.5119C762.45 2.19414 754.449 2.62361 746.829 4.76938C737.565 7.74797 729.818 14.2047 725.219 22.7803C720.402 31.2242 718.801 41.1256 720.712 50.6575C721.678 54.7523 723.44 58.6173 725.897 62.0328C728.048 65.0418 730.606 67.7373 733.499 70.042C737.635 73.4275 742.277 76.1432 747.254 78.0898C750.775 79.444 752.845 79.889 752.807 80.0244C752.302 79.9657 751.803 79.8621 751.317 79.7149C749.869 79.3775 748.441 78.9576 747.041 78.4574C741.949 76.6409 737.195 73.9862 732.977 70.603C730.038 68.2765 727.434 65.5553 725.239 62.5165C722.687 59.0439 720.852 55.0981 719.841 50.909C717.808 41.1513 719.418 30.9866 724.368 22.3353C729.088 13.5363 737.057 6.92797 746.577 3.91816C754.335 1.7806 762.474 1.41694 770.392 2.85414C775.754 3.67152 780.94 5.38495 785.733 7.92273C787.023 8.62915 788.258 9.43101 789.428 10.3216C789.824 10.6104 790.199 10.9271 790.55 11.2695V11.2695Z" fill="#263238"/>
<path d="M799.275 16.125C800.903 17.0203 802.434 18.0837 803.84 19.2977C807.906 22.7105 811.538 26.6087 814.655 30.9052C816.96 33.9893 818.999 37.2641 820.749 40.6941C822.867 44.7702 824.435 49.1092 825.411 53.5977C826.514 58.4729 826.069 63.793 826.262 69.3259C826.456 74.8587 826.591 80.7785 826.765 86.9498C827.191 99.3118 827.752 112.834 828.41 127.363C828.41 134.657 828.41 142.143 828.294 149.901C828.177 157.659 828.294 165.61 828.294 173.793C828.294 206.468 828.99 242.412 830.402 280.195C833.13 355.643 838.702 423.721 843.596 472.917C846.111 497.525 848.336 517.413 849.941 531.129C850.754 537.977 851.392 543.297 851.876 546.934C852.07 548.74 852.224 550.113 852.34 551.055C852.34 551.983 852.456 552.467 852.456 552.467C852.456 552.467 852.456 552.003 852.224 551.074C851.992 550.146 851.915 548.753 851.663 546.973C851.199 543.316 850.503 538.016 849.613 531.187C847.872 517.451 845.55 497.583 842.938 472.995C837.87 423.798 832.182 355.682 829.396 280.233C827.984 242.528 827.462 206.584 827.462 173.832C827.462 165.648 827.462 157.678 827.462 149.94C827.462 142.201 827.655 134.676 827.636 127.441C826.997 112.912 826.494 99.3698 826.107 87.0079C825.933 80.8366 825.779 74.9555 825.682 69.3839C825.585 63.8123 825.972 58.5309 824.908 53.7525C823.975 49.3013 822.453 44.9944 820.381 40.9456C818.664 37.5282 816.665 34.2603 814.403 31.176C811.328 26.8594 807.756 22.9182 803.763 19.4331C803.149 18.8923 802.503 18.3884 801.829 17.9242C801.383 17.5583 800.918 17.216 800.436 16.8988C799.642 16.4152 799.275 16.125 799.275 16.125Z" fill="#263238"/>
<path d="M782.251 409.214C782.251 409.214 779.542 622.269 762.518 653.358L462.349 649.488L468.462 623.894L782.347 238.023L782.251 409.214Z" fill="#E0E0E0"/>
<path d="M782.25 112.938C782.25 112.938 776.872 585.129 746.577 626.432H454.069C454.069 626.432 521.373 272.114 501.35 113.073L782.25 112.938Z" fill="#F5F5F5"/>
<path d="M784.785 112.938C784.785 112.938 779.407 585.129 749.111 626.432H454.069C454.069 626.432 500.982 277.473 500.982 120.656" fill="#FAFAFA"/>
<path d="M500.982 120.652V123.148C500.982 124.811 500.982 127.288 500.982 130.518C500.982 133.749 500.982 137.792 500.808 142.551C500.634 147.31 500.712 152.824 500.402 159.034C499.57 183.893 497.597 220.031 494.095 265.204C486.879 355.529 473.569 481.876 454.63 626.505L454.146 625.944H749.111L748.724 626.137C751.094 622.256 752.892 618.053 754.064 613.659C755.302 609.268 756.404 604.857 757.294 600.408C759.229 591.528 760.564 582.629 761.821 573.807C764.298 556.144 766.097 538.714 767.625 521.574C770.701 487.39 772.79 454.599 774.531 423.529C777.917 361.371 779.852 306.12 781.264 260.077C782.676 214.034 783.45 177.258 783.972 151.953C784.204 139.321 784.398 129.551 784.533 122.935C784.533 119.627 784.649 117.131 784.669 115.429C784.688 113.726 784.669 112.875 784.669 112.875C784.669 112.875 784.669 113.726 784.669 115.429C784.669 117.131 784.669 119.627 784.669 122.935C784.572 129.551 784.437 139.321 784.282 151.953C783.856 177.258 783.16 214.073 781.864 260.096C780.567 306.12 778.691 361.41 775.344 423.568C773.642 454.657 771.572 487.409 768.515 521.651C766.948 538.753 765.168 556.183 762.711 573.884C761.454 582.725 760.061 591.644 758.204 600.543C757.294 605.012 756.269 609.461 754.934 613.872C753.747 618.38 751.903 622.689 749.459 626.66L749.324 626.873H453.508V626.311C472.486 481.76 485.931 355.471 493.302 265.087C496.9 219.934 498.97 183.835 499.918 158.976C500.247 152.766 500.305 147.252 500.402 142.493C500.499 137.734 500.576 133.71 500.653 130.46C500.731 127.21 500.77 124.657 500.808 123.09C500.847 121.523 500.982 120.652 500.982 120.652Z" fill="#263238"/>
<path d="M782.309 112.333C782.309 112.333 781.651 79.4453 749.421 79.4453C717.191 79.4453 526.751 79.4453 526.751 79.4453C526.751 79.4453 501.35 86.4872 501.35 114.674L700.283 129.957L782.309 112.333Z" fill="#FAFAFA"/>
<path d="M561.322 0.438848H560.78C560.432 0.438848 559.89 0.438848 559.194 0.438848C557.146 0.460655 555.102 0.635253 553.081 0.961185C545.473 2.14617 538.28 5.20428 532.148 9.86023C522.896 17.1744 516.258 27.2866 513.228 38.6854C511.582 45.6095 511.883 52.8541 514.099 59.6175C515.236 63.2521 516.863 66.7147 518.935 69.9095C521.022 73.2786 523.538 76.3612 526.422 79.0794L526.113 78.9633H582.97L702.178 79.3502L738.316 79.5824L748.125 79.6985H750.678H751.549C751.549 79.6985 751.259 79.6985 750.678 79.6985H748.125H738.316H702.178H582.97L526.113 79.563H525.919L525.803 79.447C522.836 76.66 520.236 73.5072 518.065 70.0643C515.983 66.7839 514.337 63.246 513.17 59.5402C510.94 52.6172 510.666 45.2128 512.377 38.1437C515.489 26.62 522.282 16.4295 531.723 9.1251C535.247 6.43221 539.161 4.29248 543.33 2.77969C546.451 1.60741 549.697 0.802366 553.003 0.380813C555.039 0.0799874 557.098 -0.0430012 559.155 0.0132425C559.888 0.0969807 560.612 0.239304 561.322 0.438848V0.438848Z" fill="#263238"/>
<path d="M782.347 303.062C782.347 303.062 782.347 303.643 782.347 304.746C782.347 305.848 782.347 307.531 782.347 309.698V328.676C782.347 345.159 782.193 369.032 781.883 398.514C781.574 427.997 781.09 463.11 779.794 502.072C779.136 521.554 778.207 542.021 776.234 563.147C774.261 584.273 771.533 606.095 767.741 628.284C766.252 636.97 764.665 645.521 762.924 653.53L762.828 653.917H762.518C678.403 653.724 603.36 652.35 549.347 651.422L485.603 650.145L468.346 649.739L463.877 649.603H462.349H463.877H468.366L485.603 649.835L549.444 650.803C603.457 651.538 678.499 652.737 762.595 652.969L762.112 653.356C763.853 645.405 765.439 636.835 766.929 628.207C770.701 606.056 773.429 584.253 775.422 563.147C777.414 542.041 778.362 521.612 779.039 502.13C780.394 463.187 780.877 428.075 781.341 398.592C781.806 369.109 781.941 345.294 782.135 328.773C782.135 320.551 782.27 314.148 782.309 309.795C782.309 307.628 782.309 305.926 782.309 304.842C782.309 303.759 782.347 303.062 782.347 303.062Z" fill="#263238"/>
<path d="M762.75 133.675C753.56 134.346 744.333 134.346 735.144 133.675C744.333 133.004 753.56 133.004 762.75 133.675V133.675Z" fill="#263238"/>
<path d="M762.75 126.456C753.56 127.127 744.333 127.127 735.144 126.456C744.333 125.785 753.56 125.785 762.75 126.456V126.456Z" fill="#263238"/>
<path d="M762.75 119.277C753.56 119.947 744.333 119.947 735.144 119.277C744.333 118.606 753.56 118.606 762.75 119.277V119.277Z" fill="#263238"/>
<path d="M533.212 138.332H533.812H535.457L541.55 138.177L541.376 138.351C541.376 136.997 541.376 135.527 541.376 133.94C541.376 133.108 541.376 132.335 541.376 131.387C541.462 130.885 541.708 130.425 542.078 130.076C542.448 129.727 542.921 129.508 543.427 129.452C544.414 129.452 545.265 129.452 546.329 129.452C546.875 129.56 547.367 129.854 547.72 130.285C548.073 130.715 548.265 131.255 548.263 131.812C548.263 133.882 548.263 136.03 548.263 138.254L547.973 137.984H555.712L555.421 138.274C555.421 135.178 555.421 131.986 555.421 128.601C555.421 127.788 555.421 126.976 555.421 126.163C555.386 125.799 555.271 125.447 555.084 125.132C554.896 124.818 554.642 124.549 554.338 124.345L550.972 121.037L547.78 117.787L546.193 116.239C545.652 115.717 545.226 115.175 544.607 115.059C544.308 114.975 543.994 114.962 543.689 115.019C543.383 115.076 543.095 115.202 542.847 115.388C542.382 115.775 541.879 116.336 541.415 116.8L538.649 119.586C536.927 121.385 535.108 123.029 533.793 124.577C533.403 125.485 533.27 126.481 533.406 127.459V130.168C533.406 131.832 533.406 133.283 533.406 134.521C533.406 135.759 533.406 136.571 533.406 137.326C533.406 138.08 533.406 138.312 533.406 138.332C533.379 138.023 533.379 137.712 533.406 137.403C533.406 136.668 533.406 135.759 533.406 134.656C533.406 133.553 533.406 131.928 533.406 130.245V127.498C533.406 126.995 533.406 126.492 533.406 125.97C533.404 125.407 533.551 124.853 533.831 124.364C535.263 122.623 536.946 121.075 538.707 119.238L541.434 116.432C541.937 115.929 542.344 115.465 542.924 114.943C543.239 114.709 543.603 114.55 543.988 114.476C544.373 114.403 544.77 114.417 545.149 114.517C545.907 114.76 546.579 115.216 547.083 115.833L548.65 117.38L551.92 120.572L555.286 123.88C555.598 124.163 555.883 124.474 556.137 124.809C556.387 125.197 556.527 125.644 556.543 126.105C556.543 126.918 556.543 127.73 556.543 128.562C556.543 131.832 556.543 135.043 556.543 138.235V138.525H556.253H548.515H547.78V138.254C547.78 136.01 547.78 133.863 547.78 131.793C547.788 131.338 547.635 130.894 547.349 130.54C547.062 130.186 546.66 129.945 546.213 129.858C545.342 129.858 544.278 129.858 543.427 129.858C543.031 129.909 542.66 130.082 542.365 130.352C542.071 130.622 541.867 130.977 541.783 131.367C541.783 132.141 541.783 133.031 541.783 133.824V138.409H541.608H535.418H533.793L533.212 138.332Z" fill="#263238"/>
<path d="M778.343 165.534C778.343 165.805 715.895 166.037 638.899 166.037C561.903 166.037 499.435 165.805 499.435 165.534C499.435 165.263 561.864 165.031 638.899 165.031C715.934 165.031 778.343 165.263 778.343 165.534Z" fill="#E0E0E0"/>
<path d="M780.742 261.878C780.742 262.149 718.313 262.381 641.297 262.381C564.282 262.381 501.853 262.149 501.853 261.878C501.853 261.607 564.262 261.375 641.297 261.375C718.332 261.375 780.742 261.588 780.742 261.878Z" fill="#E0E0E0"/>
<path d="M777.647 354.292C777.647 354.563 712.587 354.795 632.36 354.795C552.133 354.795 487.054 354.563 487.054 354.292C487.054 354.021 552.094 353.789 632.36 353.789C712.625 353.789 777.647 354.002 777.647 354.292Z" fill="#E0E0E0"/>
<path d="M773.738 444.386C773.738 444.676 706.995 444.889 624.776 444.889C542.556 444.889 475.813 444.676 475.813 444.386C475.813 444.096 542.518 443.883 624.776 443.883C707.034 443.883 773.738 444.115 773.738 444.386Z" fill="#E0E0E0"/>
<path d="M764.453 545.737C764.453 546.028 697.458 546.24 614.852 546.24C532.245 546.24 465.251 546.028 465.251 545.737C465.251 545.447 532.226 545.234 614.852 545.234C697.478 545.234 764.453 545.467 764.453 545.737Z" fill="#E0E0E0"/>
<path d="M556.582 232.185C556.559 231.973 556.559 231.758 556.582 231.546C556.582 231.063 556.582 230.482 556.582 229.786C556.582 228.141 556.582 225.917 556.466 223.189C556.466 217.385 556.35 209.473 556.253 199.974L556.698 200.4H524.449L524.952 199.897V208.544C524.952 211.369 524.952 214.154 524.952 216.863C524.952 222.28 524.952 227.387 524.952 232.069L524.507 231.643L547.722 231.856L554.319 231.972H556.079H556.737C555.993 232.063 555.243 232.101 554.493 232.088L547.993 232.185L524.488 232.417H524.062V231.972C524.062 227.29 524.062 222.183 524.062 216.766C524.062 214.058 524.062 211.272 524.062 208.447V199.8L524.565 199.297H556.814H557.24V199.742C557.24 209.415 557.066 217.463 557.027 223.247C557.027 225.955 556.93 228.141 556.911 229.747C556.892 231.353 556.602 232.223 556.582 232.185Z" fill="#263238"/>
<path d="M742.089 213.878C742.089 214.149 705.332 214.381 659.889 214.381C614.445 214.381 577.688 214.149 577.688 213.878C577.688 213.607 614.445 213.375 659.889 213.375C705.332 213.375 742.089 213.588 742.089 213.878Z" fill="#263238"/>
<path d="M662.5 226.651C662.5 226.942 643.522 227.174 620.094 227.174C596.667 227.174 577.688 226.942 577.688 226.651C577.688 226.361 596.667 226.148 620.094 226.148C643.522 226.148 662.5 226.381 662.5 226.651Z" fill="#263238"/>
<path d="M557.453 182.905C558.788 183.253 556.253 197.318 550.585 213.858C549.869 215.928 549.153 217.94 548.438 219.875L547.354 222.719L546.813 224.092L546.658 224.44C546.577 224.66 546.48 224.874 546.368 225.079C546.129 225.479 545.843 225.85 545.516 226.182C544.875 226.788 544.078 227.205 543.214 227.386C542.35 227.567 541.453 227.505 540.622 227.207C539.861 226.901 539.194 226.401 538.687 225.756L538.359 225.272L538.184 224.963L537.855 224.382C537.043 222.873 536.347 221.423 535.747 220.107C533.367 214.806 532.439 211.324 533.038 211.034C533.638 210.744 535.747 213.646 538.842 218.385L541.396 222.254L541.763 222.757L541.918 222.99H542.073C542.17 222.99 542.305 222.99 542.286 222.854L542.402 222.525L542.866 221.132C543.176 220.184 543.485 219.198 543.814 218.269L545.749 212.272C551.378 195.886 556.06 182.557 557.453 182.905Z" fill="#252B34"/>
<path d="M553.042 329.315C553.027 329.102 553.027 328.889 553.042 328.676C553.042 328.192 553.042 327.612 553.042 326.916C553.042 325.265 553.003 323.059 552.926 320.299C552.926 314.496 552.79 306.603 552.713 297.084L553.139 297.51H520.909L521.412 297.007V305.674C521.412 308.518 521.412 311.304 521.412 314.012C521.412 319.409 521.412 324.517 521.412 329.218L520.986 328.792L544.201 329.005L550.798 329.121H552.558C552.77 329.094 552.985 329.094 553.197 329.121C552.458 329.198 551.715 329.231 550.972 329.218L544.472 329.334L520.967 329.566H520.522V329.121C520.522 324.42 520.522 319.313 520.522 313.915C520.522 311.207 520.522 308.421 520.522 305.577V296.91C520.057 297.355 521.121 296.291 521.025 296.407H553.255H553.584V296.852C553.487 306.525 553.409 314.554 553.351 320.357C553.351 323.066 553.313 325.233 553.235 326.858C553.242 327.681 553.177 328.503 553.042 329.315V329.315Z" fill="#263238"/>
<path d="M738.568 310.995C738.568 311.285 701.811 311.518 656.368 311.518C610.925 311.518 574.148 311.285 574.148 310.995C574.148 310.705 610.905 310.492 656.368 310.492C701.83 310.492 738.568 310.802 738.568 310.995Z" fill="#263238"/>
<path d="M548.051 419.7C548.051 419.7 548.051 419.468 548.051 419.062C548.051 418.656 548.051 417.998 548.051 417.301C548.051 415.657 548.051 413.432 547.935 410.705C547.935 404.901 547.819 396.988 547.722 387.49L548.147 387.915H515.917L516.42 387.412V396.04C516.42 398.884 516.42 401.67 516.42 404.378C516.42 409.795 516.42 414.903 516.42 419.584L515.995 419.159L539.21 419.371L545.807 419.487H547.567H548.205C547.468 419.58 546.724 419.619 545.981 419.604L539.481 419.7L515.975 419.932H515.55V419.487C515.55 414.806 515.55 409.699 515.55 404.282C515.55 401.573 515.55 398.788 515.55 395.944V387.316L516.053 386.812H548.283H548.728V387.257C548.631 396.93 548.554 404.959 548.496 410.763C548.496 413.471 548.496 415.657 548.399 417.263C548.348 418.083 548.232 418.898 548.051 419.7V419.7Z" fill="#263238"/>
<path d="M733.499 401.401C733.499 401.672 696.743 401.904 651.299 401.904C605.856 401.904 569.099 401.672 569.099 401.401C569.099 401.131 605.856 400.898 651.299 400.898C696.743 400.898 733.499 401.111 733.499 401.401Z" fill="#263238"/>
<path d="M540.254 515.365C540.231 515.153 540.231 514.939 540.254 514.727C540.254 514.243 540.254 513.663 540.254 512.967C540.254 511.322 540.254 509.097 540.138 506.37C540.138 500.566 540.003 492.654 539.906 483.155L540.351 483.58H508.121C508.005 483.696 509.069 482.632 508.605 483.077V500.044C508.605 505.46 508.605 510.568 508.605 515.249L508.16 514.824L531.375 515.037L537.971 515.153H539.751H540.39C539.652 515.245 538.908 515.284 538.165 515.269L531.665 515.365L508.14 515.598H507.715V515.153C507.715 510.471 507.715 505.364 507.715 499.947V491.628C507.715 490.197 507.715 488.765 507.715 487.314V482.981C507.27 483.426 508.334 482.362 508.237 482.478H540.467H540.912V482.923C540.912 492.596 540.757 500.643 540.699 506.428C540.699 509.136 540.699 511.322 540.583 512.928C540.528 513.747 540.418 514.561 540.254 515.365V515.365Z" fill="#263238"/>
<path d="M725.761 497.066C725.761 497.336 689.004 497.569 643.561 497.569C598.118 497.569 561.341 497.336 561.341 497.066C561.341 496.795 598.098 496.562 643.561 496.562C689.023 496.562 725.761 496.775 725.761 497.066Z" fill="#263238"/>
<path d="M535.612 606.12C535.612 606.12 535.612 605.888 535.612 605.482C535.612 605.075 535.612 604.418 535.612 603.702C535.612 602.077 535.612 599.833 535.495 597.105C535.495 591.301 535.379 583.408 535.283 573.89L535.708 574.335H503.478L503.981 573.832V582.499C503.981 585.343 503.981 588.128 503.981 590.837C503.981 596.234 503.981 601.342 503.981 606.043L503.536 605.598L526.751 605.83L533.348 605.946H535.109H535.747C535.747 605.946 535.012 605.946 533.522 606.043L527.022 606.159L503.517 606.371H503.091V605.946C503.091 601.245 503.091 596.138 503.091 590.74C503.091 588.032 503.091 585.246 503.091 582.402V573.909L503.594 573.406H535.824H536.269V573.909C536.173 583.582 536.095 591.63 536.057 597.414C536.057 600.149 536.018 602.315 535.94 603.915C535.882 604.656 535.772 605.393 535.612 606.12Z" fill="#263238"/>
<path d="M726.864 586.191C726.864 586.461 690.107 586.693 644.663 586.693C599.22 586.693 562.444 586.461 562.444 586.191C562.444 585.92 599.201 585.688 644.663 585.688C690.126 585.688 726.864 585.92 726.864 586.191Z" fill="#263238"/>
<path d="M697.013 413.8C697.013 414.09 668.091 414.303 632.399 414.303C596.706 414.303 567.784 414.09 567.784 413.8C567.784 413.51 596.802 413.297 632.399 413.297C667.995 413.297 697.013 413.529 697.013 413.8Z" fill="#263238"/>
<path d="M614.755 512.659C614.755 512.949 603.051 513.162 588.599 513.162C574.148 513.162 562.444 512.949 562.444 512.659C562.444 512.369 574.148 512.156 588.599 512.156C603.051 512.156 614.755 512.388 614.755 512.659Z" fill="#263238"/>
<path d="M745.629 0.807678C745.629 1.07852 704.461 1.31067 653.698 1.31067C602.935 1.31067 561.748 1.07852 561.748 0.807678C561.748 0.536837 602.915 0.304688 653.698 0.304688C704.481 0.304688 745.629 0.536837 745.629 0.807678Z" fill="#263238"/>
<path d="M1000 819.658C1000 818.136 776.098 816.831 500.016 816.831C223.935 816.831 0 818.136 0 819.658C0 821.18 223.902 822.484 500.016 822.484C776.13 822.484 1000 821.18 1000 819.658Z" fill="#263238"/>
<path d="M293.137 300.869C293.137 300.869 342.682 370.514 351.968 373.532C383.753 384.095 418.904 310.949 418.904 310.949L400.003 315.108L365.316 336.988L327.457 285.219L293.137 304.971" fill="#B78876"/>
<path d="M358.023 358.14C357.626 357.058 357.468 355.903 357.559 354.754C357.537 349.17 359.528 343.764 363.169 339.529C363.86 338.611 364.729 337.842 365.723 337.266C363.348 340.204 361.394 343.46 359.919 346.939C358.761 350.564 358.122 354.335 358.023 358.14V358.14Z" fill="#AA6550"/>
<path d="M364.949 766.7L372.03 799.994L395.341 802.083L405.169 791.037L396.173 751.281L364.949 766.7Z" fill="#B78876"/>
<path d="M223.028 760.8C222.7 761.884 223.028 803.361 223.028 803.361L236.106 811.099L253.189 800.846L256.806 760.742L223.028 760.8Z" fill="#B78876"/>
<path d="M211.924 402.053C211.924 402.053 195.151 433.78 187.954 459.723C180.758 485.666 173.89 500.485 181.299 523.777C188.709 547.069 198.594 635.344 203.47 658.636C207.474 677.827 216.354 752.966 222.815 776.781H259.127L262.822 510.003C262.822 510.003 327.379 659.816 334.789 677.808C342.198 695.799 363.904 772.602 363.904 772.602L401.493 766.798C401.493 766.798 378.723 633.951 371.836 602.185C364.949 570.419 345.371 484.176 337.439 457.092C329.507 430.008 330.32 411.378 319.061 398.242L211.924 402.053Z" fill="#263238"/>
<path d="M267.717 407.278C267.717 407.278 267.911 406.988 268.433 406.775C269.216 406.502 270.068 406.502 270.851 406.775C271.454 406.977 271.993 407.336 272.411 407.816C272.829 408.295 273.112 408.877 273.231 409.503C273.397 410.278 273.32 411.086 273.012 411.816C272.704 412.547 272.178 413.165 271.507 413.587C270.836 414.01 270.051 414.215 269.259 414.177C268.467 414.138 267.706 413.857 267.079 413.372C266.569 412.992 266.17 412.484 265.922 411.899C265.673 411.315 265.585 410.674 265.666 410.044C265.748 409.221 266.118 408.454 266.711 407.878C267.117 407.471 267.427 407.394 267.466 407.433C266.863 408.197 266.487 409.115 266.382 410.083C266.354 410.576 266.453 411.068 266.67 411.512C266.887 411.956 267.214 412.336 267.62 412.617C268.098 412.975 268.673 413.18 269.269 413.205C269.865 413.23 270.455 413.075 270.961 412.759C271.467 412.443 271.866 411.981 272.105 411.435C272.345 410.888 272.413 410.282 272.302 409.696C272.231 409.208 272.035 408.747 271.733 408.358C271.432 407.968 271.035 407.663 270.58 407.471C269.667 407.121 268.669 407.054 267.717 407.278V407.278Z" fill="#667E89"/>
<path d="M278.241 476.207C277.961 476.322 277.669 476.406 277.37 476.458C276.771 476.594 275.9 476.749 274.778 476.884C271.562 477.272 268.307 477.22 265.105 476.729C264.029 476.575 262.963 476.355 261.913 476.072C261.312 475.884 260.762 475.56 260.307 475.124C259.846 474.638 259.542 474.025 259.437 473.363C259.127 470.868 259.147 468.391 258.992 465.625C258.76 460.247 258.528 454.346 258.257 448.214C257.773 435.813 257.386 424.592 257.154 416.467C257.154 412.598 256.98 409.271 256.922 406.794V404.183C256.872 403.882 256.872 403.574 256.922 403.273C257.011 403.568 257.057 403.875 257.057 404.183C257.057 404.898 257.193 405.75 257.27 406.794C257.406 409.213 257.58 412.463 257.812 416.467C258.218 424.592 258.721 435.813 259.205 448.194C259.437 454.385 259.669 460.285 259.862 465.605C259.998 468.256 259.959 470.926 260.191 473.17C260.27 473.675 260.495 474.146 260.839 474.524C261.183 474.902 261.631 475.171 262.126 475.298C263.129 475.594 264.15 475.827 265.183 475.994C268.325 476.529 271.521 476.685 274.701 476.458C276.983 476.342 278.222 476.033 278.241 476.207Z" fill="#667E89"/>
<path d="M329.508 432.306C329.073 432.751 328.57 433.123 328.018 433.409C326.549 434.256 324.975 434.906 323.336 435.343C320.615 436.096 317.768 436.277 314.974 435.875C312.179 435.472 309.499 434.495 307.101 433.004C304.703 431.513 302.641 429.542 301.043 427.214C299.446 424.887 298.348 422.253 297.819 419.48C297.485 417.812 297.374 416.108 297.49 414.411C297.489 413.752 297.601 413.098 297.819 412.477C297.842 414.744 298.075 417.004 298.516 419.228C299.104 421.876 300.216 424.379 301.786 426.591C303.356 428.803 305.353 430.678 307.658 432.107C309.963 433.537 312.531 434.491 315.21 434.914C317.889 435.336 320.626 435.219 323.259 434.569C325.407 434.01 327.499 433.252 329.508 432.306Z" fill="#667E89"/>
<path d="M282.652 418.145C281.821 412.776 281.646 407.326 282.13 401.914C282.986 407.281 283.162 412.734 282.652 418.145V418.145Z" fill="#667E89"/>
<path d="M288.94 416.983C288.706 414.319 288.706 411.639 288.94 408.974C288.838 406.302 288.994 403.627 289.404 400.984C290.008 403.615 290.19 406.325 289.945 409.013C290.039 411.706 289.7 414.398 288.94 416.983V416.983Z" fill="#667E89"/>
<path d="M323.974 412.765C323.974 412.765 323.665 412.901 323.007 413.036L320.202 413.617C317.764 414.12 314.205 414.719 309.794 415.358C286.774 418.651 263.439 419.126 240.304 416.77C235.874 416.306 232.295 415.841 229.838 415.454L227.013 414.99C226.675 414.961 226.343 414.883 226.027 414.758C226.361 414.711 226.699 414.711 227.033 414.758L229.896 415.029C232.353 415.3 235.951 415.648 240.381 416.015C251.917 416.974 263.495 417.348 275.068 417.137C286.647 416.886 298.205 416.04 309.697 414.603C314.108 414.062 317.687 413.578 320.144 413.191L322.988 412.804C323.315 412.761 323.645 412.748 323.974 412.765V412.765Z" fill="#667E89"/>
<path d="M229.2 417.992C228.558 419.614 227.612 421.098 226.414 422.364C223.697 425.638 220.244 428.221 216.336 429.902C212.429 431.583 208.179 432.315 203.934 432.037C202.189 432.02 200.462 431.672 198.846 431.012C198.846 430.838 200.781 431.283 203.973 431.321C208.086 431.395 212.168 430.589 215.945 428.958C219.722 427.326 223.106 424.907 225.872 421.861C228.039 419.617 229.045 417.992 229.2 417.992Z" fill="#667E89"/>
<path d="M276.906 464.091C276.616 464.091 276.287 454.631 276.171 442.985C276.055 431.339 276.171 421.859 276.442 421.859C276.713 421.859 277.042 431.3 277.177 442.966C277.313 454.631 277.177 464.091 276.906 464.091Z" fill="#667E89"/>
<path d="M263.094 508.914C262.669 504.788 262.578 500.635 262.823 496.494C262.743 492.348 262.988 488.202 263.558 484.094C263.983 488.22 264.073 492.373 263.829 496.514C263.921 500.66 263.675 504.808 263.094 508.914V508.914Z" fill="#667E89"/>
<path d="M322.968 484.255C320.98 484.771 318.956 485.14 316.913 485.358C313.16 485.958 307.975 486.789 302.288 487.834C296.6 488.879 291.454 489.981 287.74 490.794C285.751 491.318 283.728 491.7 281.685 491.935C283.552 491.105 285.496 490.458 287.488 490.001C291.183 489.014 296.31 487.815 302.017 486.751C307.724 485.687 312.947 484.971 316.739 484.565C318.801 484.26 320.887 484.156 322.968 484.255V484.255Z" fill="#667E89"/>
<path d="M328.579 493.151C326.225 493.368 323.861 493.446 321.498 493.383C317.126 493.383 311.09 493.596 304.435 493.944C297.78 494.292 291.764 494.757 287.392 495.124C285.05 495.428 282.692 495.589 280.331 495.608C280.947 495.358 281.601 495.214 282.265 495.182C283.465 494.95 285.225 494.699 287.392 494.428C291.745 493.867 297.78 493.267 304.455 492.919C311.129 492.571 317.204 492.571 321.576 492.687C323.781 492.687 325.445 492.822 326.76 492.899C327.375 492.898 327.988 492.982 328.579 493.151V493.151Z" fill="#667E89"/>
<path d="M248.874 487.348C247.167 486.821 245.499 486.175 243.883 485.413C239.919 483.774 235.87 482.346 231.753 481.138C227.636 479.959 223.457 479.003 219.237 478.274C217.461 478.073 215.703 477.743 213.975 477.288C215.765 477.152 217.566 477.243 219.333 477.559C227.943 478.625 236.327 481.055 244.173 484.755C245.839 485.426 247.418 486.296 248.874 487.348V487.348Z" fill="#667E89"/>
<path d="M409.812 787.344V789.936C409.812 789.936 454.442 806.399 455.158 814.757L367.541 816.827L368.044 787.634C381.296 793.302 394.935 793.728 409.812 787.344Z" fill="#252B34"/>
<g opacity="0.6">
<path d="M377.137 796.737C376.3 797.013 375.595 797.588 375.156 798.352C374.717 799.116 374.575 800.015 374.757 800.877C375.002 801.723 375.561 802.443 376.321 802.889C377.08 803.336 377.981 803.474 378.839 803.276C379.727 802.986 380.475 802.375 380.936 801.563C381.398 800.751 381.54 799.796 381.335 798.885C380.985 798.03 380.32 797.342 379.478 796.964C378.635 796.586 377.679 796.546 376.808 796.853" fill="white"/>
</g>
<g opacity="0.6">
<path d="M367.619 816.827L367.735 809.805L451.657 810.385C451.657 810.385 455.526 811.991 455.236 814.757L367.619 816.827Z" fill="white"/>
</g>
<path d="M410.199 790.187C410.199 790.612 408.071 790.844 406.001 792.276C403.931 793.708 402.847 795.526 402.441 795.371C402.035 795.217 402.634 792.721 405.169 791.038C407.703 789.355 410.295 789.78 410.199 790.187Z" fill="#263238"/>
<path d="M419.485 793.763C419.601 794.169 417.763 794.943 416.35 796.781C414.938 798.619 414.551 800.553 414.126 800.553C413.7 800.553 413.371 798.135 415.17 795.872C416.97 793.608 419.465 793.299 419.485 793.763Z" fill="#263238"/>
<path d="M424.96 804.638C424.573 804.734 423.934 802.606 424.96 800.246C425.985 797.886 427.978 796.9 428.171 797.248C428.365 797.596 427.146 798.892 426.236 800.846C425.327 802.8 425.385 804.58 424.96 804.638Z" fill="#263238"/>
<path d="M254.407 797.289C254.407 797.289 231.192 813.791 219.875 799.495L216.934 806.44L203.702 855.791C203.254 857.338 203.387 858.995 204.074 860.452C204.762 861.909 205.957 863.065 207.436 863.703C208.57 864.155 209.811 864.274 211.01 864.044C212.21 863.814 213.319 863.246 214.207 862.407C223.763 853.314 258.818 819.633 258.47 815.068L258.334 802.957C258.325 801.735 257.953 800.543 257.264 799.534C256.574 798.524 255.6 797.743 254.465 797.289H254.407Z" fill="#252B34"/>
<g opacity="0.6">
<path d="M208.577 864.033L258.489 810.852V813.502C258.741 816.384 257.503 817.506 256.129 819.306C252.086 824.761 240.923 836.93 214.4 862.369C213.645 863.103 212.719 863.636 211.705 863.92C210.691 864.204 209.623 864.229 208.597 863.994L208.577 864.033Z" fill="white"/>
</g>
<g opacity="0.6">
<path d="M251.176 802.975C250.406 803.535 249.869 804.361 249.669 805.292C249.469 806.224 249.62 807.197 250.093 808.024C250.629 808.813 251.446 809.368 252.376 809.576C253.307 809.785 254.282 809.631 255.104 809.146C255.922 808.551 256.488 807.671 256.692 806.68C256.896 805.689 256.723 804.658 256.206 803.787C255.565 803.024 254.654 802.537 253.663 802.429C252.672 802.321 251.677 802.6 250.886 803.207" fill="white"/>
</g>
<path d="M222.97 836.81C222.603 836.965 221.21 833.695 217.495 831.915C213.781 830.135 210.395 830.909 210.318 830.522C210.241 830.135 211.053 829.884 212.523 829.671C214.447 829.472 216.387 829.828 218.114 830.697C219.864 831.538 221.32 832.886 222.293 834.566C223.028 835.862 223.125 836.752 222.97 836.81Z" fill="#263238"/>
<path d="M218.502 845.147C218.192 845.418 216.2 843.387 212.969 842.439C209.738 841.491 206.972 842.013 206.875 841.626C206.778 841.239 209.719 840.001 213.375 841.123C217.031 842.245 218.811 844.973 218.502 845.147Z" fill="#263238"/>
<path d="M231.289 826.192C230.999 826.482 227.942 823.329 223.048 821.433C218.153 819.537 213.801 819.653 213.781 819.247C213.762 818.841 218.328 818.047 223.551 820.156C228.774 822.265 231.599 825.94 231.289 826.192Z" fill="#263238"/>
<path d="M232.392 811.079C232.237 811.466 228.774 810.015 224.286 809.822C219.797 809.628 216.238 810.711 216.102 810.325C215.967 809.938 219.527 808.196 224.363 808.39C229.199 808.583 232.604 810.808 232.392 811.079Z" fill="#263238"/>
<path d="M221.732 809.689C221.678 808.892 221.796 808.094 222.081 807.348C222.684 805.233 223.703 803.26 225.079 801.544C225.961 800.212 227.261 799.212 228.774 798.7C229.29 798.576 229.832 798.615 230.324 798.813C230.816 799.011 231.235 799.357 231.521 799.803C232.034 800.692 232.199 801.74 231.986 802.743C231.459 804.783 230.238 806.575 228.532 807.81C226.827 809.046 224.744 809.649 222.642 809.514C220.571 809.339 218.599 808.551 216.977 807.253C215.355 805.954 214.155 804.203 213.53 802.221C213.369 801.724 213.32 801.197 213.387 800.678C213.454 800.16 213.635 799.663 213.917 799.223C214.242 798.801 214.692 798.493 215.203 798.343C215.714 798.194 216.259 798.21 216.761 798.391C218.202 799.011 219.456 799.999 220.398 801.254C221.825 802.891 222.945 804.772 223.706 806.806C224.048 807.526 224.233 808.311 224.247 809.108C223.085 806.493 221.547 804.062 219.682 801.892C218.814 800.831 217.697 800.001 216.432 799.474C216.16 799.376 215.864 799.366 215.586 799.446C215.308 799.526 215.062 799.691 214.884 799.919C214.732 800.216 214.642 800.54 214.619 800.872C214.596 801.205 214.64 801.539 214.749 801.854C215.339 803.547 216.405 805.036 217.818 806.14C219.231 807.245 220.933 807.919 222.719 808.083C224.498 808.212 226.267 807.721 227.727 806.696C229.186 805.67 230.247 804.171 230.728 802.453C230.902 801.76 230.826 801.027 230.515 800.383C230.363 800.132 230.134 799.937 229.863 799.826C229.591 799.714 229.291 799.693 229.006 799.764C227.724 800.193 226.608 801.011 225.814 802.105C224.022 804.376 222.641 806.942 221.732 809.689V809.689Z" fill="#263238"/>
<path d="M300.392 238.191C296.755 235.289 292.499 233.258 288.785 230.549C285.07 227.841 281.511 220.702 280.64 216.117L250.789 218.729C247.622 230.519 246.316 242.732 246.92 254.925C247.172 260.109 247.926 265.642 251.409 269.492C255.278 273.729 261.294 274.851 266.885 275.76L294.124 280.113C297.335 280.616 300.798 281.1 303.797 279.687C306.575 278.085 308.647 275.495 309.601 272.433C311.781 266.472 312.067 259.983 310.418 253.854C308.77 247.724 305.268 242.254 300.392 238.191V238.191Z" fill="#263238"/>
<path d="M190.063 264.909C188.477 256.068 190.179 247.073 190.992 238.232C192.191 225.347 191.495 212.037 190.992 198.844C190.489 185.65 189.986 172.321 191.708 159.61C193.429 146.9 197.511 134.79 204.418 127.961C211.324 121.132 221.268 120.725 228.155 129.121L225.447 162.628C229.434 210.164 229.926 257.928 226.917 305.535C217.816 307.32 208.464 307.412 199.33 305.806C198.222 305.73 197.159 305.338 196.268 304.676C195.376 304.015 194.693 303.111 194.3 302.073C193.178 298.822 194.726 295.282 195.325 291.877C195.876 287.222 195.38 282.503 193.874 278.064C192.365 273.752 191.093 269.361 190.063 264.909V264.909Z" fill="#263238"/>
<path d="M215.406 131.946C218.104 129.245 221.426 127.252 225.079 126.142C226.527 125.604 228.101 125.503 229.606 125.852C230.349 126.052 231.004 126.496 231.464 127.114C231.924 127.732 232.162 128.487 232.14 129.257L223.202 141.909C222.226 142.622 221.061 143.031 219.854 143.086C218.646 143.142 217.449 142.84 216.412 142.218C215.537 141.875 214.75 141.34 214.107 140.654C213.465 139.968 212.983 139.148 212.697 138.252C212.598 137.06 212.794 135.861 213.266 134.762C213.738 133.662 214.473 132.695 215.406 131.946V131.946Z" fill="#667E89"/>
<path d="M282.342 168.528C281.589 159.573 277.465 151.238 270.804 145.206C264.143 139.173 255.441 135.893 246.456 136.027C241.815 136.086 237.234 137.082 232.987 138.955C228.74 140.828 224.916 143.54 221.743 146.927C218.57 150.315 216.115 154.309 214.524 158.669C212.933 163.029 212.239 167.666 212.485 172.301L219.101 249.684C219.225 251.181 219.852 252.593 220.881 253.688C226.581 259.693 234.409 263.222 242.683 263.516C249.815 263.315 256.69 260.81 262.281 256.377C263.197 255.672 263.911 254.737 264.349 253.666C264.787 252.596 264.935 251.429 264.776 250.283L262.358 230.338C264.084 230.113 265.796 229.79 267.485 229.371C271.857 227.591 282.478 224.263 282.961 206.736C283.448 193.998 283.241 181.244 282.342 168.528V168.528Z" fill="#B78876"/>
<path d="M260.695 197.294C262.268 196.675 263.912 196.253 265.589 196.037C266.363 195.902 267.098 195.689 267.195 195.166C267.188 194.363 266.938 193.581 266.479 192.922C265.609 191.123 264.68 189.227 263.693 187.254C259.824 179.187 256.961 172.513 257.29 172.377C257.619 172.242 261.024 178.645 264.912 186.712C265.841 188.647 266.731 190.581 267.601 192.516C268.156 193.404 268.382 194.458 268.24 195.495C268.146 195.777 267.99 196.033 267.782 196.244C267.574 196.456 267.32 196.616 267.04 196.714C266.621 196.863 266.186 196.96 265.744 197.004C264.079 197.306 262.383 197.403 260.695 197.294V197.294Z" fill="#263238"/>
<path d="M276.539 179.483C276.603 180.216 276.375 180.945 275.904 181.51C275.432 182.076 274.757 182.432 274.024 182.501C273.668 182.558 273.304 182.545 272.953 182.461C272.603 182.378 272.272 182.225 271.98 182.013C271.689 181.801 271.443 181.533 271.255 181.225C271.068 180.916 270.944 180.574 270.89 180.218C270.83 179.483 271.06 178.755 271.529 178.188C271.999 177.62 272.672 177.259 273.405 177.18C273.762 177.125 274.126 177.141 274.477 177.227C274.828 177.313 275.158 177.468 275.449 177.682C275.74 177.895 275.986 178.165 276.173 178.474C276.36 178.783 276.484 179.126 276.539 179.483V179.483Z" fill="#263238"/>
<path d="M277.758 173.927C277.487 174.41 275.03 172.824 271.954 173.288C268.878 173.753 267.001 175.919 266.595 175.513C266.189 175.107 266.595 174.488 267.446 173.579C268.503 172.31 269.991 171.476 271.625 171.238C273.269 171.007 274.941 171.386 276.326 172.302C277.448 172.94 277.893 173.695 277.758 173.927Z" fill="#263238"/>
<path d="M247.83 182.17C247.894 182.903 247.666 183.632 247.195 184.198C246.723 184.763 246.048 185.119 245.315 185.188C244.957 185.246 244.592 185.232 244.24 185.147C243.889 185.062 243.557 184.908 243.265 184.693C242.974 184.479 242.728 184.209 242.541 183.899C242.355 183.588 242.233 183.244 242.181 182.886C242.116 182.153 242.344 181.424 242.816 180.858C243.287 180.293 243.963 179.937 244.696 179.868C245.053 179.813 245.417 179.829 245.768 179.915C246.119 180.001 246.449 180.155 246.74 180.369C247.031 180.583 247.277 180.852 247.464 181.161C247.651 181.47 247.775 181.813 247.83 182.17V182.17Z" fill="#263238"/>
<path d="M248.236 176.887C247.868 177.352 245.469 175.437 242.161 175.495C238.853 175.553 236.474 177.429 236.106 176.984C235.738 176.539 236.28 175.959 237.305 175.05C238.669 173.928 240.376 173.307 242.142 173.289C243.905 173.281 245.618 173.874 246.998 174.972C248.042 175.882 248.41 176.694 248.236 176.887Z" fill="#263238"/>
<path d="M262.358 230.336C262.358 230.336 250.364 232.271 234.887 224.688C234.887 224.688 241.02 239.584 263.035 235.869L262.358 230.336Z" fill="#AA6550"/>
<path d="M259.998 204.627C259.348 203.953 258.542 203.451 257.651 203.164C256.76 202.877 255.812 202.815 254.891 202.982C254.224 203.095 253.586 203.339 253.015 203.701C252.443 204.064 251.95 204.536 251.563 205.091C251.191 205.617 250.991 206.246 250.991 206.89C250.991 207.535 251.191 208.163 251.563 208.689C252.11 209.184 252.786 209.512 253.512 209.636C254.239 209.759 254.986 209.672 255.665 209.386C257.063 208.777 258.325 207.895 259.379 206.793C259.706 206.53 259.981 206.208 260.192 205.845C260.301 205.679 260.359 205.484 260.359 205.284C260.359 205.085 260.301 204.89 260.192 204.723" fill="#AA6550"/>
<path d="M249.861 165.569C249.629 166.401 246.553 166.304 243.012 167.059C239.472 167.813 236.667 168.993 236.125 168.355C235.874 168.026 236.299 167.213 237.383 166.42C238.845 165.283 240.555 164.508 242.374 164.157C244.19 163.777 246.07 163.816 247.868 164.273C249.222 164.563 249.958 165.163 249.861 165.569Z" fill="#263238"/>
<path d="M276.984 167.328C276.384 168.044 273.85 167.444 270.812 167.541C267.775 167.637 265.28 168.256 264.641 167.541C264.37 167.192 264.738 166.496 265.821 165.799C267.322 164.963 269.017 164.536 270.735 164.561C272.47 164.498 274.191 164.891 275.726 165.703C276.868 166.283 277.255 166.98 276.984 167.328Z" fill="#263238"/>
<path d="M248.526 131.791C247.454 130.639 246.134 129.745 244.667 129.175C243.199 128.606 241.622 128.376 240.053 128.503C226.317 128.503 212.504 138.698 206.623 151.118C200.742 163.538 202.754 180.465 210.125 192.073L215.29 192.228C225.698 190.061 239.086 158.257 251.447 139.994C252.995 137.673 250.248 133.92 248.526 131.791Z" fill="#263238"/>
<path d="M275.533 136.86C268.975 131.269 258.702 124.808 247.694 130.96C246.456 134.481 250.538 138.214 253.788 140.265C258.547 143.283 262.59 145.179 265.744 147.384C272.128 151.814 280.35 159.475 282.304 169.032C282.439 169.632 282.575 188.475 283.155 188.281C283.735 188.088 285.496 165.066 285.67 159.669C286.018 148.235 282.091 142.432 275.533 136.86Z" fill="#263238"/>
<path d="M217.747 185.612C217.399 185.496 204.205 182.382 205.385 195.556C206.565 208.731 219.508 204.9 219.488 204.513C219.469 204.126 217.747 185.612 217.747 185.612Z" fill="#B78876"/>
<path d="M215.038 199.866C215.038 199.866 214.826 200.04 214.458 200.253C214.197 200.396 213.911 200.485 213.615 200.515C213.319 200.545 213.02 200.515 212.736 200.427C211.842 199.962 211.088 199.266 210.551 198.413C210.014 197.56 209.713 196.579 209.68 195.572C209.55 194.443 209.675 193.299 210.047 192.225C210.135 191.798 210.325 191.399 210.602 191.062C210.878 190.725 211.232 190.46 211.634 190.29C211.89 190.2 212.17 190.203 212.425 190.299C212.679 190.394 212.892 190.576 213.026 190.813C213.239 191.161 213.181 191.432 213.259 191.451C213.336 191.47 213.51 191.199 213.355 190.677C213.26 190.353 213.055 190.073 212.775 189.884C212.584 189.764 212.371 189.684 212.148 189.647C211.926 189.611 211.698 189.619 211.479 189.671C210.948 189.825 210.465 190.112 210.075 190.505C209.686 190.897 209.403 191.383 209.254 191.915C208.792 193.102 208.626 194.384 208.77 195.649C208.807 196.831 209.194 197.976 209.883 198.937C210.572 199.898 211.532 200.632 212.64 201.046C213.002 201.124 213.376 201.117 213.735 201.026C214.094 200.936 214.428 200.764 214.71 200.524C215.038 200.176 215.097 199.886 215.038 199.866Z" fill="#AA6550"/>
<path d="M278.473 139.141C277.272 139.637 276.01 139.969 274.72 140.128C268.543 141.198 262.228 141.198 256.051 140.128C254.76 139.999 253.496 139.679 252.298 139.18C253.596 139.212 254.889 139.342 256.167 139.567C259.238 139.905 262.325 140.073 265.415 140.07C268.507 140.042 271.594 139.835 274.662 139.45C275.921 139.237 277.196 139.134 278.473 139.141V139.141Z" fill="#667E89"/>
<path d="M284.161 147.964C283.319 148.496 282.378 148.852 281.394 149.009C276.708 150.136 271.78 149.695 267.369 147.751C266.431 147.423 265.57 146.91 264.834 146.242C267.896 147.444 271.092 148.27 274.353 148.699C277.64 148.858 280.934 148.611 284.161 147.964V147.964Z" fill="#667E89"/>
<path d="M205.521 155.802C205.521 155.628 208.403 155.802 212.969 155.067C215.633 154.65 218.265 154.042 220.842 153.249C223.984 152.228 227.053 151.001 230.032 149.573C232.992 148.103 235.86 146.456 238.621 144.64C240.864 143.129 243.021 141.495 245.083 139.745C248.584 136.766 250.499 134.599 250.596 134.715C250.232 135.279 249.81 135.804 249.339 136.282C248.833 136.89 248.297 137.471 247.733 138.024C247.075 138.681 246.34 139.436 245.45 140.19C243.428 142.017 241.289 143.71 239.047 145.259C236.283 147.137 233.393 148.824 230.399 150.308C227.379 151.756 224.256 152.978 221.055 153.964C218.434 154.737 215.756 155.3 213.046 155.648C212.007 155.795 210.961 155.886 209.912 155.918C209.12 155.975 208.325 155.975 207.532 155.918C206.86 155.956 206.185 155.918 205.521 155.802V155.802Z" fill="#667E89"/>
<path d="M250.325 139.414C250.111 140.084 249.832 140.732 249.493 141.349C249.166 142.113 248.791 142.856 248.371 143.573C247.888 144.405 247.404 145.411 246.708 146.417C245.191 148.845 243.483 151.148 241.6 153.304C239.281 155.934 236.73 158.349 233.978 160.52C231.191 162.66 228.212 164.538 225.079 166.131C222.512 167.4 219.846 168.461 217.109 169.303C215.967 169.69 214.865 169.903 213.936 170.154C213.007 170.406 212.175 170.522 211.498 170.638C210.804 170.781 210.098 170.865 209.39 170.89C209.39 170.716 212.35 170.271 216.935 168.742C219.59 167.836 222.177 166.736 224.673 165.453C230.835 162.274 236.357 157.985 240.962 152.801C242.848 150.697 244.58 148.46 246.147 146.108C248.913 142.064 250.171 139.414 250.325 139.414Z" fill="#667E89"/>
<path d="M240.053 128.505C240.907 128.219 241.822 128.165 242.703 128.35C244.856 128.684 246.869 129.623 248.507 131.058C248.977 131.473 249.404 131.933 249.784 132.432C250.124 132.901 250.41 133.407 250.635 133.941C251.065 134.801 251.427 135.694 251.718 136.611C252.074 137.451 252.122 138.389 251.854 139.261C251.718 139.261 251.757 138.255 251.177 136.804C250.815 135.945 250.408 135.105 249.958 134.289C249.738 133.803 249.465 133.343 249.145 132.916C248.788 132.47 248.393 132.056 247.965 131.678C246.424 130.335 244.578 129.392 242.587 128.93C241.059 128.582 240.072 128.64 240.053 128.505Z" fill="#667E89"/>
<path d="M207.126 187.101C207.096 186.867 207.031 186.639 206.933 186.424C206.797 185.979 206.565 185.36 206.314 184.49C205.525 182.178 204.878 179.82 204.379 177.428C203.666 173.889 203.335 170.283 203.393 166.672C203.448 162.257 204.192 157.877 205.598 153.691C206.353 151.541 207.325 149.473 208.5 147.52C209.636 145.712 210.931 144.01 212.369 142.432C214.797 139.763 217.545 137.404 220.552 135.409C222.574 134.05 224.674 132.81 226.84 131.695L228.619 130.786C228.834 130.697 229.036 130.58 229.219 130.438L228.581 130.67C228.155 130.863 227.517 131.095 226.743 131.482C224.521 132.516 222.374 133.705 220.32 135.042C217.244 137.014 214.43 139.367 211.943 142.045C210.5 143.646 209.205 145.375 208.074 147.21C206.859 149.193 205.86 151.301 205.095 153.498C203.667 157.744 202.929 162.192 202.909 166.672C202.879 170.314 203.255 173.948 204.031 177.506C204.539 179.907 205.224 182.267 206.082 184.567C206.372 185.399 206.662 185.999 206.817 186.502C206.905 186.709 207.008 186.909 207.126 187.101V187.101Z" fill="#667E89"/>
<path d="M261.72 208.131C261.72 207.725 258.721 207.299 255.258 205.751C251.795 204.204 249.338 201.882 249.145 202.25C250.508 204.427 252.546 206.099 254.949 207.009C258.528 208.634 261.7 208.46 261.72 208.131Z" fill="#263238"/>
<path d="M282.478 242.877L263.558 240.633L218.811 246.417L195.964 259.147L235.661 275.881L264.545 269.961L282.478 242.877Z" fill="#B78876"/>
<path d="M207.629 251.619L175.941 264.542L183.041 325.384C183.041 325.384 194.822 321.167 201.148 351.907C207.475 382.648 207.571 402.322 207.571 402.322L322.833 398.221C322.833 398.221 318.635 324.533 316.527 308.109L308.788 245.37L279.054 240.398C279.054 240.398 250.403 288.802 207.629 251.619Z" fill="#667E89"/>
<path d="M308.807 245.368C308.807 245.368 322.852 244.362 333.957 263.785C342.392 278.566 345.371 284.273 345.371 284.273L312.715 303.347L299.657 267.693L308.807 245.368Z" fill="#667E89"/>
<path d="M176.328 264.328C176.328 264.328 163.695 271.486 156.982 280.753C150.269 290.019 142.241 307.024 142.241 307.024L180.932 328.537L186.736 317.49L176.328 264.328Z" fill="#667E89"/>
<path d="M187.142 316.41C186.968 316.41 187.974 313.759 188.864 309.407C189.399 306.856 189.742 304.27 189.889 301.668C190.068 298.495 189.99 295.311 189.657 292.15C189.25 288.997 188.604 285.88 187.722 282.826C186.988 280.333 186.076 277.895 184.995 275.532C183.06 271.508 181.59 269.206 181.745 269.109C182.214 269.56 182.617 270.075 182.944 270.638C183.952 272.098 184.85 273.63 185.633 275.223C186.825 277.581 187.821 280.033 188.612 282.555C189.535 285.658 190.182 288.837 190.547 292.053C190.901 295.266 190.959 298.504 190.721 301.726C190.522 304.337 190.101 306.925 189.464 309.465C189.061 311.191 188.53 312.885 187.877 314.533C187.733 315.194 187.485 315.827 187.142 316.41V316.41Z" fill="#263238"/>
<path d="M311.013 274.836C310.704 274.836 309.678 268.8 306.602 261.932C304.605 257.839 302.403 253.849 300.005 249.977C301.045 250.854 301.946 251.885 302.675 253.033C306.501 258.351 309.182 264.405 310.549 270.812C310.926 272.118 311.083 273.478 311.013 274.836V274.836Z" fill="#263238"/>
<path d="M288.146 240.492C288.089 240.834 287.985 241.166 287.837 241.479C287.566 242.098 287.256 243.046 286.676 244.187C285.108 247.461 283.16 250.539 280.872 253.357C277.516 257.578 273.514 261.241 269.013 264.21C261.197 269.326 252.105 272.155 242.766 272.377C233.427 272.599 224.212 270.206 216.161 265.468C213.023 263.653 210.108 261.478 207.474 258.987C206.526 258.136 205.888 257.362 205.424 256.878C204.959 256.395 204.747 256.104 204.785 256.085C204.824 256.066 205.83 257.033 207.745 258.697C210.443 261.048 213.38 263.11 216.509 264.849C221.137 267.438 226.135 269.303 231.328 270.382C237.672 271.767 244.229 271.866 250.613 270.673C256.996 269.48 263.075 267.019 268.491 263.436C272.943 260.549 276.928 257 280.311 252.912C282.602 250.162 284.599 247.179 286.27 244.013C287.488 241.769 288.146 240.473 288.146 240.492Z" fill="#263238"/>
<path d="M233.978 311.189C227.469 290.556 223.163 269.293 221.132 247.754C219.836 232.567 215.87 220.321 215.329 205.367L206.681 220.67C202.15 239.909 198.988 259.446 197.221 279.133C196.66 285.304 196.447 292.191 200.471 296.911C203.702 300.781 209.273 302.541 211.053 307.184C212.988 312.214 210.163 319.643 214.922 322.158C216.161 322.661 217.527 322.758 218.824 322.435C220.121 322.111 221.281 321.384 222.138 320.358C223.794 318.269 224.982 315.847 225.621 313.259C226.065 317.128 230.592 321.229 233.533 318.617C235.39 316.857 234.771 313.703 233.978 311.189Z" fill="#263238"/>
<path d="M2.35121 487.813C4.00419 491.83 6.47574 495.459 9.60841 498.469C12.7411 501.478 16.4662 503.802 20.5465 505.293C24.6268 506.783 28.9728 507.408 33.3077 507.126C37.6425 506.845 41.8712 505.663 45.7244 503.657L476.845 278.821L531.903 199.039L437.244 213.49L16.0287 448.619C9.34803 452.347 4.26627 458.395 1.74562 465.618C-0.775022 472.841 -0.559568 480.738 2.35121 487.813V487.813Z" fill="#252B34"/>
<path d="M16.0287 448.617C9.34803 452.345 4.26627 458.393 1.74562 465.617C-0.775022 472.84 -0.559568 480.737 2.35121 487.812V487.812C4.00419 491.829 6.47574 495.458 9.60841 498.467C12.7411 501.477 16.4662 503.801 20.5465 505.291C24.6268 506.782 28.9728 507.406 33.3077 507.125C37.6425 506.843 41.8712 505.662 45.7244 503.656L16.0287 448.617Z" fill="#263238"/>
<g opacity="0.4">
<path d="M437.224 213.492L16.0283 448.621L21.0969 458.023L443.957 226.048L437.224 213.492Z" fill="black"/>
</g>
<g opacity="0.4">
<path d="M469.435 266.109L40.8491 494.621L45.7243 503.656L476.845 278.82L469.435 266.109Z" fill="black"/>
</g>
<g opacity="0.4">
<path d="M452.411 238.797L28.2554 471.256L35.007 483.792L459.627 251.739L452.411 238.797Z" fill="black"/>
</g>
<g opacity="0.4">
<path d="M476.845 278.82L437.225 213.489L495.165 204.648L512.983 226.432L476.845 278.82Z" fill="white"/>
</g>
<path d="M400.681 319.326L408.419 311.162C408.419 311.162 407.51 292.571 410.682 287.947L412.327 285.2C412.327 285.2 410.682 276.166 415.538 274.076C416.912 270.652 418.692 269.259 421.11 271.174C421.11 271.174 419.756 264.365 426.101 263.436C432.446 262.507 434.265 291.333 434.265 291.333C434.265 291.333 437.438 304.256 430.183 304.256C430.183 304.256 426.101 308.782 421.555 309.247C421.555 309.247 420.2 316.985 413.816 316.501L400.681 319.326Z" fill="#B78876"/>
<path d="M420.587 305.922C420.587 305.922 420.955 306.154 421.303 306.85C421.765 307.848 421.894 308.967 421.671 310.043C421.372 311.648 420.532 313.102 419.291 314.163C417.806 315.418 416.082 316.359 414.223 316.93C410.967 318.058 407.566 318.709 404.124 318.864C402.703 319.037 401.262 318.958 399.868 318.632C404.63 318.249 409.335 317.334 413.894 315.904C415.63 315.372 417.251 314.519 418.672 313.389C419.81 312.479 420.618 311.223 420.974 309.81C421.25 308.505 421.115 307.147 420.587 305.922V305.922Z" fill="#AA6550"/>
<path d="M426.217 295.689C425.908 295.689 425.888 289.885 424.515 282.959C423.141 276.033 420.975 270.655 421.265 270.539C422.004 271.577 422.572 272.727 422.948 273.944C424.059 276.803 424.913 279.755 425.501 282.766C426.084 285.777 426.414 288.831 426.488 291.897C426.604 293.167 426.513 294.448 426.217 295.689V295.689Z" fill="#AA6550"/>
<path d="M420.742 298.864C420.452 298.864 419.91 293.235 418.459 286.425C417.008 279.615 415.248 274.198 415.519 274.102C417.395 277.927 418.698 282.007 419.388 286.212C420.448 290.342 420.904 294.603 420.742 298.864V298.864Z" fill="#AA6550"/>
<path d="M430.879 298.65C431.111 298.495 432.059 300.275 431.44 302.519C430.821 304.763 429.119 305.847 429.003 305.595C428.887 305.344 429.989 304.164 430.473 302.268C430.957 300.372 430.608 298.747 430.879 298.65Z" fill="#AA6550"/>
<path d="M413.159 299.985C412.739 297.656 412.538 295.292 412.559 292.924C412.255 290.577 412.158 288.208 412.269 285.844C413.146 288.08 413.586 290.464 413.565 292.866C413.868 295.244 413.73 297.658 413.159 299.985V299.985Z" fill="#AA6550"/>
<path d="M144.136 307.023C144.136 307.023 118.542 360.979 114.673 369.027C110.804 377.074 104.555 391.951 114.673 400.289C124.791 408.627 195.287 409.15 195.287 409.15L198.788 380.731L152.358 369.491L179.636 328.536L144.136 307.023Z" fill="#B78876"/>
<path d="M204.959 381.239C206.381 378.14 208.468 375.392 211.073 373.191C215.503 369.322 225.253 366.342 226.549 362.647C227.845 358.952 231.502 361.835 230.631 366.42C230.089 369.36 224.054 377.041 224.054 377.041C224.054 377.041 231.134 378.801 235.854 376.093C240.575 373.384 257.135 368.49 258.837 370.811C260.54 373.133 256.496 374.274 254.659 375.338C253.246 376.131 242.277 381.567 242.277 381.567C242.277 381.567 264.099 380.832 266.846 381.877C269.593 382.922 266.846 385.63 265.395 385.746C264.544 385.746 260.791 389.132 258.141 391.55C256.346 393.234 253.986 394.186 251.525 394.22H246.456L261.933 395.845C261.933 395.845 264.583 398.282 260.888 399.559C259.224 400.12 212.523 406.852 208.886 407.065C202.618 407.433 192.713 409 192.713 409L195.228 379.981L204.959 381.239Z" fill="#B78876"/>
<path d="M265.705 385.855C262.418 387.462 258.889 388.515 255.258 388.97C251.705 389.762 248.047 389.978 244.425 389.608C244.425 389.318 249.242 389.028 255.084 387.983C260.927 386.939 265.608 385.585 265.705 385.855Z" fill="#AA6550"/>
<path d="M305.856 188.436L318.005 167.001C310.481 154.788 307.797 140.203 310.481 126.112C313.166 112.021 321.023 99.4434 332.51 90.852C343.997 82.2606 358.282 78.2767 372.558 79.6833C386.833 81.0899 400.066 87.7854 409.655 98.4535C419.244 109.122 424.496 122.991 424.378 137.335C424.261 151.679 418.782 165.46 409.019 175.969C399.256 186.479 385.915 192.956 371.619 194.128C357.322 195.3 343.104 191.082 331.76 182.304V182.304L305.856 188.436Z" fill="white"/>
<path d="M305.856 188.44L331.837 182.636H332.186L331.973 182.346L331.644 182.655C339.64 188.891 349.145 192.896 359.192 194.263C362.204 194.683 365.246 194.839 368.285 194.727C369.852 194.727 371.438 194.611 373.063 194.476L377.9 193.741C385.617 192.264 392.95 189.223 399.448 184.806C405.946 180.389 411.471 174.688 415.682 168.055C419.894 161.422 422.704 153.997 423.938 146.237C425.172 138.478 424.805 130.547 422.859 122.935C420.7 114.183 416.474 106.077 410.536 99.2945C404.523 92.3387 396.935 86.9199 388.404 83.4891C380.22 80.2539 371.414 78.8986 362.636 79.5232C354.337 80.0909 346.265 82.4821 338.995 86.5263C325.945 93.8093 316.187 105.824 311.737 120.091C309.956 126.157 309.114 132.459 309.241 138.779C309.547 148.865 312.517 158.69 317.85 167.256V167.024L305.895 188.575L318.237 167.295V167.179V167.063C313.032 158.533 310.157 148.787 309.899 138.799C309.811 132.553 310.672 126.33 312.453 120.343C316.836 106.226 326.477 94.3336 339.382 87.1261C346.529 83.1811 354.453 80.8501 362.597 80.297C371.234 79.668 379.903 80.9904 387.959 84.1662C396.347 87.5219 403.814 92.8272 409.743 99.6428C415.577 106.305 419.736 114.264 421.873 122.858C423.941 131.089 424.178 139.674 422.569 148.007C421.018 155.63 417.927 162.856 413.486 169.243C409.045 175.629 403.348 181.043 396.742 185.151C390.889 188.795 384.428 191.358 377.667 192.715L372.889 193.45C371.303 193.586 369.716 193.624 368.169 193.721C365.17 193.855 362.165 193.713 359.192 193.296C349.234 191.993 339.798 188.082 331.837 181.959L330.406 180.856L331.508 182.269L331.644 181.901L305.856 188.44Z" fill="#263238"/>
<path d="M338.125 140.364L346.153 132.336L361.63 146.091L392.022 116.859L399.47 124.869L360.488 161.567L338.125 140.364Z" fill="#252B34"/>
<path d="M604.133 133.801C603.773 133.801 603.48 133.714 603.253 133.541C603.04 133.367 602.867 133.094 602.733 132.721L598.553 120.901C598.407 120.474 598.433 120.114 598.633 119.821C598.847 119.527 599.2 119.381 599.693 119.381C600.053 119.381 600.333 119.467 600.533 119.641C600.733 119.801 600.893 120.061 601.013 120.421L604.613 131.101H603.813L607.573 120.441C607.707 120.081 607.873 119.814 608.073 119.641C608.273 119.467 608.533 119.381 608.853 119.381C609.173 119.381 609.427 119.467 609.613 119.641C609.8 119.814 609.96 120.087 610.093 120.461L613.733 131.101H613.033L616.693 120.421C616.813 120.074 616.973 119.814 617.173 119.641C617.373 119.467 617.647 119.381 617.993 119.381C618.42 119.381 618.733 119.527 618.933 119.821C619.133 120.114 619.16 120.474 619.013 120.901L614.793 132.741C614.66 133.101 614.487 133.367 614.273 133.541C614.06 133.714 613.773 133.801 613.413 133.801C613.053 133.801 612.767 133.714 612.553 133.541C612.34 133.367 612.167 133.094 612.033 132.721L608.553 122.801H609.013L605.493 132.741C605.36 133.101 605.187 133.367 604.973 133.541C604.773 133.714 604.493 133.801 604.133 133.801ZM623.228 133.841C622.521 133.841 621.888 133.707 621.328 133.441C620.781 133.161 620.348 132.787 620.028 132.321C619.721 131.854 619.568 131.327 619.568 130.741C619.568 130.021 619.754 129.454 620.128 129.041C620.501 128.614 621.108 128.307 621.948 128.121C622.788 127.934 623.914 127.841 625.328 127.841H626.328V129.281H625.348C624.521 129.281 623.861 129.321 623.368 129.401C622.874 129.481 622.521 129.621 622.308 129.821C622.108 130.007 622.008 130.274 622.008 130.621C622.008 131.061 622.161 131.421 622.468 131.701C622.774 131.981 623.201 132.121 623.748 132.121C624.188 132.121 624.574 132.021 624.908 131.821C625.254 131.607 625.528 131.321 625.728 130.961C625.928 130.601 626.028 130.187 626.028 129.721V127.421C626.028 126.754 625.881 126.274 625.588 125.981C625.294 125.687 624.801 125.541 624.108 125.541C623.721 125.541 623.301 125.587 622.848 125.681C622.408 125.774 621.941 125.934 621.448 126.161C621.194 126.281 620.968 126.314 620.768 126.261C620.581 126.207 620.434 126.101 620.328 125.941C620.221 125.767 620.168 125.581 620.168 125.381C620.168 125.181 620.221 124.987 620.328 124.801C620.434 124.601 620.614 124.454 620.868 124.361C621.481 124.107 622.068 123.927 622.628 123.821C623.201 123.714 623.721 123.661 624.188 123.661C625.148 123.661 625.934 123.807 626.548 124.101C627.174 124.394 627.641 124.841 627.948 125.441C628.254 126.027 628.408 126.787 628.408 127.721V132.521C628.408 132.934 628.308 133.254 628.108 133.481C627.908 133.694 627.621 133.801 627.248 133.801C626.874 133.801 626.581 133.694 626.368 133.481C626.168 133.254 626.068 132.934 626.068 132.521V131.561H626.228C626.134 132.027 625.948 132.434 625.668 132.781C625.401 133.114 625.061 133.374 624.648 133.561C624.234 133.747 623.761 133.841 623.228 133.841ZM635.425 133.841C634.558 133.841 633.832 133.694 633.245 133.401C632.672 133.107 632.245 132.681 631.965 132.121C631.685 131.547 631.545 130.841 631.545 130.001V125.741H630.505C630.185 125.741 629.938 125.661 629.765 125.501C629.592 125.327 629.505 125.094 629.505 124.801C629.505 124.494 629.592 124.261 629.765 124.101C629.938 123.941 630.185 123.861 630.505 123.861H631.545V122.041C631.545 121.627 631.652 121.314 631.865 121.101C632.092 120.887 632.405 120.781 632.805 120.781C633.205 120.781 633.512 120.887 633.725 121.101C633.938 121.314 634.045 121.627 634.045 122.041V123.861H636.165C636.485 123.861 636.732 123.941 636.905 124.101C637.078 124.261 637.165 124.494 637.165 124.801C637.165 125.094 637.078 125.327 636.905 125.501C636.732 125.661 636.485 125.741 636.165 125.741H634.045V129.861C634.045 130.501 634.185 130.981 634.465 131.301C634.745 131.621 635.198 131.781 635.825 131.781C636.052 131.781 636.252 131.761 636.425 131.721C636.598 131.681 636.752 131.654 636.885 131.641C637.045 131.627 637.178 131.681 637.285 131.801C637.392 131.907 637.445 132.134 637.445 132.481C637.445 132.747 637.398 132.987 637.305 133.201C637.225 133.401 637.072 133.541 636.845 133.621C636.672 133.674 636.445 133.721 636.165 133.761C635.885 133.814 635.638 133.841 635.425 133.841ZM643.043 133.841C642.016 133.841 641.123 133.634 640.363 133.221C639.603 132.794 639.016 132.194 638.603 131.421C638.19 130.647 637.983 129.741 637.983 128.701C637.983 127.914 638.096 127.214 638.323 126.601C638.563 125.974 638.903 125.447 639.343 125.021C639.783 124.581 640.316 124.247 640.943 124.021C641.57 123.781 642.27 123.661 643.043 123.661C643.483 123.661 643.956 123.721 644.463 123.841C644.983 123.961 645.47 124.161 645.923 124.441C646.136 124.574 646.276 124.734 646.343 124.921C646.41 125.107 646.423 125.301 646.383 125.501C646.343 125.687 646.256 125.854 646.123 126.001C646.003 126.134 645.85 126.221 645.663 126.261C645.476 126.287 645.27 126.241 645.043 126.121C644.75 125.947 644.45 125.821 644.143 125.741C643.836 125.647 643.543 125.601 643.263 125.601C642.823 125.601 642.436 125.674 642.103 125.821C641.77 125.954 641.483 126.154 641.243 126.421C641.016 126.674 640.843 126.994 640.723 127.381C640.603 127.767 640.543 128.214 640.543 128.721C640.543 129.707 640.776 130.487 641.243 131.061C641.723 131.621 642.396 131.901 643.263 131.901C643.543 131.901 643.83 131.861 644.123 131.781C644.43 131.701 644.736 131.574 645.043 131.401C645.27 131.281 645.47 131.241 645.643 131.281C645.83 131.321 645.983 131.414 646.103 131.561C646.223 131.694 646.296 131.861 646.323 132.061C646.35 132.247 646.323 132.434 646.243 132.621C646.176 132.807 646.043 132.961 645.843 133.081C645.403 133.347 644.936 133.541 644.443 133.661C643.95 133.781 643.483 133.841 643.043 133.841ZM649.197 133.801C648.797 133.801 648.49 133.694 648.277 133.481C648.063 133.254 647.957 132.934 647.957 132.521V120.641C647.957 120.227 648.063 119.914 648.277 119.701C648.49 119.487 648.797 119.381 649.197 119.381C649.597 119.381 649.903 119.487 650.117 119.701C650.343 119.914 650.457 120.227 650.457 120.641V125.821H650.177C650.47 125.114 650.923 124.581 651.537 124.221C652.163 123.847 652.87 123.661 653.657 123.661C654.443 123.661 655.09 123.807 655.597 124.101C656.103 124.394 656.483 124.841 656.737 125.441C656.99 126.027 657.117 126.774 657.117 127.681V132.521C657.117 132.934 657.01 133.254 656.797 133.481C656.583 133.694 656.277 133.801 655.877 133.801C655.477 133.801 655.163 133.694 654.937 133.481C654.723 133.254 654.617 132.934 654.617 132.521V127.801C654.617 127.041 654.47 126.487 654.177 126.141C653.897 125.794 653.457 125.621 652.857 125.621C652.123 125.621 651.537 125.854 651.097 126.321C650.67 126.774 650.457 127.381 650.457 128.141V132.521C650.457 133.374 650.037 133.801 649.197 133.801ZM662.996 133.841C661.889 133.841 661.056 133.527 660.496 132.901C659.936 132.261 659.656 131.327 659.656 130.101V120.641C659.656 120.227 659.763 119.914 659.976 119.701C660.189 119.487 660.496 119.381 660.896 119.381C661.296 119.381 661.603 119.487 661.816 119.701C662.043 119.914 662.156 120.227 662.156 120.641V129.981C662.156 130.594 662.283 131.047 662.536 131.341C662.803 131.634 663.176 131.781 663.656 131.781C663.763 131.781 663.863 131.781 663.956 131.781C664.049 131.767 664.143 131.754 664.236 131.741C664.423 131.714 664.549 131.767 664.616 131.901C664.683 132.021 664.716 132.274 664.716 132.661C664.716 132.994 664.649 133.254 664.516 133.441C664.383 133.627 664.163 133.741 663.856 133.781C663.723 133.794 663.583 133.807 663.436 133.821C663.289 133.834 663.143 133.841 662.996 133.841ZM667.283 133.781C666.883 133.781 666.576 133.661 666.363 133.421C666.149 133.181 666.043 132.847 666.043 132.421V125.081C666.043 124.641 666.149 124.307 666.363 124.081C666.576 123.841 666.883 123.721 667.283 123.721C667.683 123.721 667.989 123.841 668.203 124.081C668.429 124.307 668.543 124.641 668.543 125.081V132.421C668.543 132.847 668.436 133.181 668.223 133.421C668.009 133.661 667.696 133.781 667.283 133.781ZM667.283 121.861C666.816 121.861 666.449 121.747 666.183 121.521C665.929 121.281 665.803 120.954 665.803 120.541C665.803 120.114 665.929 119.787 666.183 119.561C666.449 119.334 666.816 119.221 667.283 119.221C667.763 119.221 668.129 119.334 668.383 119.561C668.636 119.787 668.763 120.114 668.763 120.541C668.763 120.954 668.636 121.281 668.383 121.521C668.129 121.747 667.763 121.861 667.283 121.861ZM674.72 133.841C674.147 133.841 673.54 133.781 672.9 133.661C672.26 133.541 671.687 133.334 671.18 133.041C670.967 132.907 670.814 132.754 670.72 132.581C670.64 132.394 670.607 132.214 670.62 132.041C670.647 131.854 670.714 131.694 670.82 131.561C670.94 131.427 671.087 131.341 671.26 131.301C671.447 131.261 671.647 131.294 671.86 131.401C672.394 131.654 672.894 131.834 673.36 131.941C673.827 132.034 674.287 132.081 674.74 132.081C675.38 132.081 675.854 131.974 676.16 131.761C676.48 131.534 676.64 131.241 676.64 130.881C676.64 130.574 676.534 130.341 676.32 130.181C676.12 130.007 675.814 129.881 675.4 129.801L673.4 129.421C672.574 129.261 671.94 128.961 671.5 128.521C671.074 128.067 670.86 127.487 670.86 126.781C670.86 126.141 671.034 125.587 671.38 125.121C671.74 124.654 672.234 124.294 672.86 124.041C673.487 123.787 674.207 123.661 675.02 123.661C675.607 123.661 676.154 123.727 676.66 123.861C677.18 123.981 677.68 124.174 678.16 124.441C678.36 124.547 678.494 124.687 678.56 124.861C678.64 125.034 678.66 125.214 678.62 125.401C678.58 125.574 678.5 125.734 678.38 125.881C678.26 126.014 678.107 126.101 677.92 126.141C677.747 126.167 677.547 126.127 677.32 126.021C676.907 125.807 676.507 125.654 676.12 125.561C675.747 125.467 675.387 125.421 675.04 125.421C674.387 125.421 673.9 125.534 673.58 125.761C673.274 125.987 673.12 126.287 673.12 126.661C673.12 126.941 673.214 127.174 673.4 127.361C673.587 127.547 673.874 127.674 674.26 127.741L676.26 128.121C677.127 128.281 677.78 128.574 678.22 129.001C678.674 129.427 678.9 130.001 678.9 130.721C678.9 131.694 678.52 132.461 677.76 133.021C677 133.567 675.987 133.841 674.72 133.841ZM685.288 133.841C684.422 133.841 683.695 133.694 683.108 133.401C682.535 133.107 682.108 132.681 681.828 132.121C681.548 131.547 681.408 130.841 681.408 130.001V125.741H680.368C680.048 125.741 679.802 125.661 679.628 125.501C679.455 125.327 679.368 125.094 679.368 124.801C679.368 124.494 679.455 124.261 679.628 124.101C679.802 123.941 680.048 123.861 680.368 123.861H681.408V122.041C681.408 121.627 681.515 121.314 681.728 121.101C681.955 120.887 682.268 120.781 682.668 120.781C683.068 120.781 683.375 120.887 683.588 121.101C683.802 121.314 683.908 121.627 683.908 122.041V123.861H686.028C686.348 123.861 686.595 123.941 686.768 124.101C686.942 124.261 687.028 124.494 687.028 124.801C687.028 125.094 686.942 125.327 686.768 125.501C686.595 125.661 686.348 125.741 686.028 125.741H683.908V129.861C683.908 130.501 684.048 130.981 684.328 131.301C684.608 131.621 685.062 131.781 685.688 131.781C685.915 131.781 686.115 131.761 686.288 131.721C686.462 131.681 686.615 131.654 686.748 131.641C686.908 131.627 687.042 131.681 687.148 131.801C687.255 131.907 687.308 132.134 687.308 132.481C687.308 132.747 687.262 132.987 687.168 133.201C687.088 133.401 686.935 133.541 686.708 133.621C686.535 133.674 686.308 133.721 686.028 133.761C685.748 133.814 685.502 133.841 685.288 133.841Z" fill="#252B34"/>
</svg>
